<?xml version="1.0" encoding="utf-8"?>
<!-- Generator: Adobe Illustrator 22.1.0, SVG Export Plug-In . SVG Version: 6.00 Build 0)  -->
<svg version="1.1" id="Layer_1" xmlns="http://www.w3.org/2000/svg" xmlns:xlink="http://www.w3.org/1999/xlink" x="0px" y="0px"
	 viewBox="0 0 409.7 95" style="enable-background:new 0 0 409.7 95;" xml:space="preserve">
<style type="text/css">
	.st0{fill:#EC174C;}
	.st1{fill:#FFFFFF;}
</style>
<g>
	<g>
		<path d="M107,35.1c3.4,0,5.7,2.3,5.7,5.7v7.3c0,3.4-2.3,5.7-5.7,5.7h-8.9v10.1h-5.8V35.1H107z M105.6,48.3c0.9,0,1.4-0.5,1.4-1.4
			v-5c0-0.9-0.5-1.4-1.4-1.4h-7.5v7.7L105.6,48.3L105.6,48.3z"/>
		<path d="M132.3,63.9l-4.6-10.7h-4.6v10.7h-5.8V35.1H132c3.4,0,5.7,2.3,5.7,5.7v6.7c0,2.7-1.5,4.8-3.9,5.4l4.8,10.9
			C138.5,63.9,132.3,63.9,132.3,63.9z M131.9,41.9c0-0.9-0.5-1.4-1.4-1.4h-7.5v7.3h7.5c0.9,0,1.4-0.5,1.4-1.4V41.9z"/>
		<path d="M157.9,35c3.4,0,5.7,2.3,5.7,5.7v17.7c0,3.4-2.3,5.7-5.7,5.7h-9.6c-3.4,0-5.7-2.3-5.7-5.7V40.6c0-3.4,2.3-5.7,5.7-5.7
			C148.3,35,157.9,35,157.9,35z M157.8,41.7c0-0.9-0.5-1.4-1.4-1.4h-6.7c-0.9,0-1.4,0.5-1.4,1.4v15.5c0,0.9,0.5,1.4,1.4,1.4h6.7
			c0.9,0,1.4-0.5,1.4-1.4V41.7z"/>
		<path d="M186.8,58.4c0,3.4-2.3,5.7-5.7,5.7h-8.3c-3.4,0-5.7-2.3-5.7-5.7V52h5.8v5.2c0,0.9,0.5,1.4,1.4,1.4h5.5
			c0.9,0,1.4-0.5,1.4-1.4V35.1h5.8L186.8,58.4L186.8,58.4z"/>
		<path d="M211.5,35.1v5.4h-13.1v5.9H209v5.4h-10.6v6.5h13.1v5.4h-18.8V35.1H211.5z"/>
		<path d="M230.2,41.7c0-0.9-0.5-1.4-1.4-1.4h-6.2c-0.9,0-1.4,0.5-1.4,1.4v15.5c0,0.9,0.5,1.4,1.4,1.4h6.2c0.9,0,1.4-0.5,1.4-1.4
			v-3.5h5.8v4.6c0,3.4-2.3,5.7-5.7,5.7h-9.1c-3.4,0-5.7-2.3-5.7-5.7V40.6c0-3.4,2.3-5.7,5.7-5.7h9.1c3.4,0,5.7,2.3,5.7,5.7v4.6h-5.8
			V41.7z"/>
		<path d="M251.9,40.5v23.4h-5.8V40.5h-7.5v-5.4h20.8v5.4C259.4,40.5,251.9,40.5,251.9,40.5z"/>
		<path class="st0" d="M300.6,63.9h-5.4V44.7L289,59.3h-4.2l-6.2-14.6v19.2h-5.4V35.1h6.3l7.4,16.9l7.4-16.9h6.3L300.6,63.9
			L300.6,63.9z"/>
		<path class="st0" d="M310.4,63.9h-6l9.3-28.8h6.7l9.3,28.8h-6.2l-1.9-6.5h-9.3L310.4,63.9z M313.9,52h6.1l-3-10.5L313.9,52z"/>
		<path class="st0" d="M355.6,35.1v28.8h-6.2l-10.6-19.6v19.6h-5.4V35.1h6.2l10.6,19.6V35.1H355.6z"/>
		<path class="st0" d="M382,58.4c0,3.4-2.3,5.7-5.7,5.7h-9.2c-3.4,0-5.7-2.3-5.7-5.7V35.1h5.8v22.1c0,0.9,0.5,1.4,1.4,1.4h6.3
			c0.9,0,1.4-0.5,1.4-1.4V35.1h5.8L382,58.4L382,58.4z"/>
		<path class="st0" d="M401.3,41.7c0-0.9-0.5-1.4-1.4-1.4h-5.8c-0.9,0-1.4,0.5-1.4,1.4v2.7c0,0.9,0.5,1.2,1.4,1.4l7.4,1.6
			c3.1,0.7,5.8,2.6,5.8,5.8v5.2c0,3.4-2.3,5.7-5.7,5.7h-8.9c-3.4,0-5.7-2.3-5.7-5.7v-3.7h5.6v2.6c0,0.9,0.5,1.4,1.4,1.4h6.2
			c0.9,0,1.4-0.5,1.4-1.4v-3c0-0.9-0.5-1.2-1.4-1.4l-7.4-1.6c-3.1-0.7-5.8-2.6-5.8-5.8v-4.9c0-3.4,2.3-5.7,5.7-5.7h8.5
			c3.4,0,5.7,2.3,5.7,5.7V44h-5.6L401.3,41.7L401.3,41.7z"/>
	</g>
	<g>
		<g>
			<ellipse transform="matrix(0.2298 -0.9732 0.9732 0.2298 -18.1861 73.4009)" cx="37.3" cy="48.2" rx="34.3" ry="34.3"/>
			<g>
				<g>
					<g>
						<path class="st1" d="M27.9,35h-6.6c-0.1,0-0.1,0.1-0.1,0.1v30.7c0,0.1,0.1,0.1,0.1,0.1h5.6c0.1,0,0.1-0.1,0.1-0.1V46
							c0-0.2,0.2-0.2,0.3-0.1l5.3,12.4c0,0.1,0.2,0.1,0.3,0l2.7-6.1c0,0,0-0.1,0-0.1L28,35.1C28,35,28,35,27.9,35z"/>
						<g>
							<path class="st1" d="M50.5,35.1l-5.6,12.6c0,0,0,0,0,0.1v18.1c0,0.1,0.1,0.1,0.1,0.1h5.6c0.1,0,0.1-0.1,0.1-0.1l0-30.6
								c0-0.1-0.1-0.1-0.1-0.1l0,0C50.6,35.1,50.5,35.1,50.5,35.1z"/>
						</g>
					</g>
				</g>
				<path class="st1" d="M57.6,29.6l-11.1-5.1c-0.1,0-0.1,0-0.2,0l-6.1,0.6L40,25.6l3.6,5c0,0,0.1,0.1,0.1,0.1l1.5,0.7
					c0.2,0.1,0.3,0.3,0.2,0.5l-9.8,21.9l0,0L33.4,59c-0.1,0.2,0.1,0.5,0.3,0.5l5,0c0.1,0,0.3-0.1,0.3-0.2l7.6-17.2l3.7-8.1
					c0.1-0.2,0.3-0.2,0.5-0.2l4.1,1.9c0.1,0,0.2,0,0.3,0l1.3-0.5c0.1,0,0.2-0.1,0.2-0.2l1.7-3.7c0-0.1,0-0.2,0-0.3l-0.5-1.3
					C57.8,29.8,57.7,29.7,57.6,29.6z"/>
			</g>
		</g>
	</g>
</g>
</svg>
