<?xml version="1.0" encoding="UTF-8"?>
<svg xmlns="http://www.w3.org/2000/svg" xmlns:xlink="http://www.w3.org/1999/xlink" viewBox="0 720 595 842" version="1.1">
<defs>
<clipPath id="clip1">
  <path d="M 457 745 L 468.398438 745 L 468.398438 757 L 457 757 Z M 457 745 "/>
</clipPath>
<clipPath id="clip2">
  <path d="M 0 722.5 L 95 722.5 L 95 818 L 0 818 Z M 0 722.5 "/>
</clipPath>
</defs>
<g id="surface1">
<path style=" stroke:none;fill-rule:nonzero;fill:rgb(6.266785%,5.734253%,5.047607%);fill-opacity:1;" d="M 116.199219 746.054688 L 116.199219 817.609375 L 101.597656 817.609375 L 101.597656 746.054688 L 116.199219 746.054688 "/>
<path style=" stroke:none;fill-rule:nonzero;fill:rgb(6.266785%,5.734253%,5.047607%);fill-opacity:1;" d="M 161.117188 797.855469 L 161.117188 786.070312 C 158.148438 781.757812 154.039062 780.320312 149.925781 780.320312 C 142.753906 780.320312 137.777344 785.109375 137.777344 792.394531 C 137.777344 797.761719 142.753906 803.605469 149.925781 803.605469 C 154.039062 803.605469 158.148438 802.167969 161.117188 797.855469 Z M 175.714844 769.386719 L 175.714844 817.761719 C 175.714844 832.777344 164.035156 842 149.726562 842 C 135.921875 842 125.640625 833.433594 124.632812 821.339844 L 139.179688 821.425781 C 139.785156 826.5625 144.292969 828.78125 150.242188 828.78125 C 155.878906 828.78125 161.117188 825.773438 161.117188 817.914062 L 161.117188 811.765625 C 157.386719 814.183594 152.648438 815.59375 147.308594 815.59375 C 134.003906 815.59375 123.320312 804.8125 123.320312 792.414062 C 123.320312 778.003906 134.003906 768.328125 147.308594 768.328125 C 152.648438 768.328125 157.386719 769.738281 161.117188 772.15625 L 161.117188 769.539062 L 175.714844 769.386719 "/>
<path style=" stroke:none;fill-rule:nonzero;fill:rgb(6.266785%,5.734253%,5.047607%);fill-opacity:1;" d="M 219.800781 792.90625 C 219.800781 785.890625 215.1875 780.222656 208.074219 780.222656 C 200.867188 780.222656 196.253906 785.890625 196.253906 792.90625 C 196.253906 800.117188 200.867188 805.496094 208.074219 805.496094 C 215.1875 805.496094 219.800781 800.117188 219.800781 792.90625 Z M 233.890625 792.910156 C 233.890625 807.804688 222.871094 818.414062 208.078125 818.414062 C 193.183594 818.414062 182.164062 807.804688 182.164062 792.910156 C 182.164062 778.117188 193.183594 767.300781 208.078125 767.300781 C 222.871094 767.300781 233.890625 778.117188 233.890625 792.910156 "/>
<path style=" stroke:none;fill-rule:nonzero;fill:rgb(6.266785%,5.734253%,5.047607%);fill-opacity:1;" d="M 310.132812 800.945312 L 310.132812 786.207031 C 307.105469 781.910156 302.910156 780.742188 298.714844 780.742188 C 291.394531 780.742188 286.320312 786.597656 286.320312 793.625 C 286.320312 800.550781 291.394531 806.40625 298.714844 806.40625 C 302.910156 806.40625 307.105469 805.238281 310.132812 800.945312 Z M 324.460938 769.464844 L 324.460938 817.539062 L 310.132812 817.609375 L 310.132812 814.890625 C 306.402344 817.308594 301.667969 818.820312 296.324219 818.820312 C 283.023438 818.820312 272.339844 807.53125 272.339844 793.625 C 272.339844 779.617188 283.023438 768.328125 296.324219 768.328125 C 301.667969 768.328125 306.402344 769.839844 310.132812 772.257812 L 310.132812 769.539062 L 324.460938 769.464844 "/>
<path style=" stroke:none;fill-rule:nonzero;fill:rgb(6.266785%,5.734253%,5.047607%);fill-opacity:1;" d="M 383.277344 791.507812 L 383.277344 817.609375 L 369.210938 817.609375 L 369.210938 793.179688 C 369.210938 785.320312 365.28125 781.1875 358.328125 781.1875 C 354.699219 781.1875 350.667969 783.304688 347.242188 787.335938 L 347.242188 817.609375 L 332.855469 817.609375 L 332.855469 769.539062 L 347.242188 769.539062 L 347.242188 773.164062 C 351.171875 770.042969 355.707031 768.328125 361.148438 768.328125 C 373.949219 768.328125 383.277344 777.398438 383.277344 791.507812 "/>
<path style=" stroke:none;fill-rule:nonzero;fill:rgb(6.266785%,5.734253%,5.047607%);fill-opacity:1;" d="M 456.15625 747.886719 L 452.601562 747.886719 L 452.601562 756.414062 L 450.507812 756.414062 L 450.507812 747.886719 L 446.949219 747.886719 L 446.949219 745.945312 L 456.15625 745.945312 L 456.15625 747.886719 "/>
<g clip-path="url(#clip1)" clip-rule="nonzero">
<path style=" stroke:none;fill-rule:nonzero;fill:rgb(6.266785%,5.734253%,5.047607%);fill-opacity:1;" d="M 468.398438 756.414062 L 466.304688 756.414062 L 466.304688 750.5625 L 463.582031 754.875 L 462.320312 754.875 L 462.320312 754.859375 L 459.5625 750.503906 L 459.59375 756.414062 L 457.5 756.414062 L 457.5 745.945312 L 458.976562 745.945312 L 462.949219 752.289062 L 466.921875 745.945312 L 468.398438 745.945312 L 468.398438 756.414062 "/>
</g>
<g clip-path="url(#clip2)" clip-rule="nonzero">
<path style=" stroke:none;fill-rule:nonzero;fill:rgb(13.729858%,12.159729%,12.548828%);fill-opacity:1;" d="M 94.945312 817.578125 L 80.0625 817.578125 L 70.390625 781.613281 L 49.605469 817.578125 L 32.988281 817.578125 L 65.113281 761.910156 L 59.945312 742.582031 L 16.625 817.59375 L 0 817.59375 L 54.898438 722.5 L 69.453125 722.5 L 75.828125 746.125 L 90.84375 746.125 L 80.589844 763.957031 L 94.945312 817.578125 "/>
</g>
<path style=" stroke:none;fill-rule:nonzero;fill:rgb(6.266785%,5.734253%,5.047607%);fill-opacity:1;" d="M 426.753906 801 L 426.753906 786.152344 C 423.707031 781.824219 419.476562 780.644531 415.25 780.644531 C 407.875 780.644531 402.761719 786.542969 402.761719 793.527344 C 402.761719 800.605469 407.875 806.507812 415.25 806.507812 C 419.476562 806.507812 423.707031 805.328125 426.753906 801 Z M 441.355469 746.054688 L 441.355469 817.609375 L 426.753906 817.609375 L 426.753906 814.890625 C 423.027344 817.308594 418.289062 818.820312 412.949219 818.820312 C 399.644531 818.820312 388.964844 807.53125 388.964844 793.523438 C 388.964844 779.617188 399.644531 768.328125 412.949219 768.328125 C 418.289062 768.328125 423.027344 769.839844 426.753906 772.257812 L 426.753906 746.054688 L 441.355469 746.054688 "/>
<path style=" stroke:none;fill-rule:nonzero;fill:rgb(6.266785%,5.734253%,5.047607%);fill-opacity:1;" d="M 269.734375 781.648438 C 266.546875 782.039062 259.105469 782.398438 254.738281 788.410156 L 254.738281 817.609375 L 240.339844 817.609375 L 240.339844 769.609375 L 254.738281 769.609375 L 254.738281 773.210938 C 258.019531 770.378906 262.972656 768.746094 269.734375 769.40625 "/>
</g>
</svg>
