<?xml version="1.0" encoding="utf-8"?>
<!-- Generator: Adobe Illustrator 27.1.1, SVG Export Plug-In . SVG Version: 6.00 Build 0)  -->
<svg version="1.1" id="Layer_1" xmlns="http://www.w3.org/2000/svg" xmlns:xlink="http://www.w3.org/1999/xlink" x="0px" y="0px"
	 viewBox="0 0 1917.5 1208.1" style="enable-background:new 0 0 1917.5 1208.1;" xml:space="preserve">
<style type="text/css">
	.st0{fill:#F1F1F1;stroke:#F1F1F1;stroke-width:9.380000e-02;}
	.st1{fill:#F2F2F2;stroke:#F2F2F2;stroke-width:9.380000e-02;}
	.st2{fill:#A0B538;stroke:#000000;stroke-width:9.380000e-02;}
</style>
<g>
	<path class="st0" d="M867.2,5.1c5.4,0,10.8,0,16.2,0c0,6.6,0,13.2,0,19.7c-5.4,0-10.8,0-16.2,0C867.2,18.3,867.2,11.7,867.2,5.1z"
		/>
	<path class="st0" d="M1223.9,782.5c5.4,0,10.8,0,16.1,0c0.2,11.4,0.2,22.8,0,34.1c-5.4,0-10.8,0-16.1,0
		C1223.9,805.2,1223.8,793.9,1223.9,782.5z"/>
	<path class="st0" d="M1711.6,879.4c5.4-0.1,10.8,0,16.2,0c0,11.3-0.1,22.7,0,34.1c-5.4,0-10.8,0-16.2,0
		C1711.6,902.1,1711.6,890.7,1711.6,879.4z"/>
	<path class="st0" d="M1223.9,969.3c5.4,0,10.8,0,16.3,0c0,11.3,0,22.7,0,34c-5.4,0-10.8,0-16.3,0
		C1223.9,992,1223.9,980.7,1223.9,969.3z"/>
	<path class="st0" d="M1223.9,1018.7c5.4,0,10.8,0,16.3,0c0,11.4,0,22.7,0,34.1c-5.4,0.1-10.8,0-16.3,0
		C1223.9,1041.5,1223.9,1030.1,1223.9,1018.7z"/>
	<path class="st1" d="M888.1,5.1c5.4,0,10.8,0,16.1,0c0,6.6,0,13.2,0,19.7c-5.4,0-10.7,0-16.1,0C888.1,18.3,888.1,11.7,888.1,5.1z"
		/>
	<path class="st1" d="M834.5,79.4c5.4,0,10.8,0,16.2,0c0,11.4,0,22.7,0,34.1c-5.4,0-10.8,0-16.2,0
		C834.5,102.1,834.5,90.8,834.5,79.4z"/>
	<path class="st1" d="M828.2,135.3c5.4-0.1,10.8-0.1,16.2,0c0,11.4,0,22.7,0,34.1c-5.4,0-10.8,0-16.2,0
		C828.2,158,828.2,146.6,828.2,135.3z"/>
	<path class="st1" d="M852.1,135.2c5.4,0,10.8-0.1,16.2,0.1c-0.1,11.3,0,22.7,0,34c-5.4,0-10.8,0-16.2,0
		C852.1,158,852.1,146.6,852.1,135.2z"/>
	<path class="st1" d="M922.4,135.2c5.4,0,10.8,0,16.2,0.1c-0.1,11.4,0,22.7,0,34.1c-5.4,0-10.8,0-16.1,0
		C922.3,158,922.4,146.6,922.4,135.2z"/>
	<path class="st1" d="M823.4,230.1c0-11.4,0-22.8,0-34.2c5.4,0.1,10.8,0,16.2,0c0,11.4,0,22.8,0,34.2
		C834.1,230.1,828.7,230.1,823.4,230.1z"/>
	<path class="st1" d="M847.3,195.9c5.4,0.1,10.8,0,16.2,0c0,11.4,0,22.8,0,34.2c-5.4,0-10.8,0-16.2,0
		C847.3,218.7,847.3,207.3,847.3,195.9z"/>
	<path class="st1" d="M898.4,230c0-11.4,0-22.8,0-34.1c5.4,0,10.8,0,16.1,0c0,11.4,0,22.8,0,34.2C909.2,230.1,903.8,230.2,898.4,230
		z"/>
	<path class="st1" d="M922.4,230c0-11.4-0.1-22.8,0-34.2c5.4,0,10.8,0,16.1,0c0,11.4,0,22.8,0,34.2
		C933.2,230.1,927.8,230.1,922.4,230z"/>
	<path class="st1" d="M946.4,230.1c0-11.4-0.1-22.8,0-34.2c5.4,0.1,10.8,0,16.2,0c0,11.4,0,22.8,0,34.2
		C957.1,230.1,951.7,230.1,946.4,230.1z"/>
	<path class="st1" d="M1505.2,208.7c5.3,0.1,10.7,0,16.1,0c0,11.4-0.1,22.7,0,34c-5.4,0.1-10.8,0-16.2,0
		C1505.3,231.4,1504.7,220.1,1505.2,208.7z"/>
	<path class="st1" d="M1530.6,208.7c5.4,0,10.8,0.1,16.2,0c0.1,11.4,0,22.7,0.1,34.1c-5.4,0-10.8,0.1-16.2,0
		C1530.7,231.4,1530.7,220.1,1530.6,208.7z"/>
	<path class="st1" d="M1554.6,208.7c5.4,0,10.8,0,16.1,0c0.1,11.4,0,22.7,0.1,34.1c-5.4,0-10.8,0-16.2,0
		C1554.6,231.4,1554.6,220.1,1554.6,208.7z"/>
	<path class="st1" d="M1530.6,255c5.4,0,10.8,0,16.2,0c0.1,11.4,0,22.7,0,34.1c-5.4,0-10.8,0-16.2,0
		C1530.6,277.7,1530.6,266.4,1530.6,255z"/>
	<path class="st1" d="M823.3,298.2c5.4,0,10.8,0,16.2,0c-0.1,11.4,0,22.7,0,34c-5.4,0-10.8,0-16.2,0
		C823.3,320.9,823.4,309.5,823.3,298.2z"/>
	<path class="st1" d="M898.4,298.2c5.4,0,10.8,0,16.2,0c0,11.3,0,22.7,0,34c-5.4,0-10.7,0-16.1,0
		C898.3,320.9,898.4,309.5,898.4,298.2z"/>
	<path class="st1" d="M946.3,298.2c5.4,0,10.8,0,16.2,0c-0.1,11.3,0,22.7,0,34c-5.4-0.1-10.7,0.2-16.1-0.1
		C946.2,320.8,946.4,309.5,946.3,298.2z"/>
	<path class="st1" d="M1636.6,298.2c5.4,0,10.8,0,16.2,0c0,11.3,0.1,22.7,0,34.1c-5.4,0-10.8,0-16.1,0
		C1636.5,320.9,1636.6,309.5,1636.6,298.2z"/>
	<path class="st1" d="M1686.2,298.2c5.4,0,10.8,0,16.2,0c0,11.4,0,22.7,0,34.1c-5.4,0-10.8,0-16.2,0
		C1686.1,320.9,1686.1,309.5,1686.2,298.2z"/>
	<path class="st1" d="M1711.7,298.2c5.4,0,10.8,0,16.2,0c0,11.4,0,22.7,0,34c-5.4,0-10.8,0-16.2,0
		C1711.6,320.9,1711.6,309.5,1711.7,298.2z"/>
	<path class="st1" d="M1759.6,298.2c5.4,0,10.8,0,16.2,0c-0.1,11.3,0,22.7,0,34c-5.4,0-10.8,0-16.2,0
		C1759.6,320.9,1759.5,309.5,1759.6,298.2z"/>
	<path class="st1" d="M1783.6,298.2c5.4,0,10.8,0,16.2,0c0,11.4,0,22.7,0,34c-5.4,0-10.8,0-16.2,0
		C1783.5,320.9,1783.5,309.5,1783.6,298.2z"/>
	<path class="st1" d="M1807.5,298.2c5.4,0,10.8,0,16.2,0c0,11.3,0,22.7,0,34c-5.4,0.1-10.8,0-16.2,0
		C1807.4,320.9,1807.5,309.6,1807.5,298.2z"/>
	<path class="st1" d="M1530.7,299.7c5.4,0.1,10.8,0,16.2,0c0,11.4,0,22.7,0,34.1c-5.4,0-10.8,0-16.2,0
		C1530.7,322.4,1530.6,311.1,1530.7,299.7z"/>
	<path class="st1" d="M315.7,344.4c5.4,0,10.8,0,16.2,0c0,11.4,0.1,22.8,0,34.2c-5.4,0-10.8,0-16.1,0
		C315.8,367.2,315.7,355.8,315.7,344.4z"/>
	<path class="st1" d="M338.2,344.4c5.4,0,10.8-0.1,16.2,0c0,11.4,0,22.8,0,34.2c-5.4,0-10.8,0-16.1,0
		C338.2,367.2,338.2,355.8,338.2,344.4z"/>
	<path class="st1" d="M1890.6,359.8c5.4,0,10.8,0,16.2,0c0.1,11.4,0,22.8,0,34.2c-5.4,0-10.8,0.1-16.2,0
		C1890.6,382.5,1890.6,371.2,1890.6,359.8z"/>
	<path class="st1" d="M14.4,366.2c5.4,0,10.8,0,16.2,0.1c-0.1,11.4,0,22.8,0,34.2c-5.4,0-10.8,0-16.2,0
		C14.4,389,14.3,377.6,14.4,366.2z"/>
	<path class="st1" d="M1321.3,368.3c5.4,0,10.8,0,16.2,0c0,11.4,0,22.8,0,34.2c-5.4,0-10.8,0-16.2,0
		C1321.2,391.1,1321.3,379.7,1321.3,368.3z"/>
	<path class="st1" d="M1346.8,368.4c5.4,0,10.8-0.1,16.2,0c0.2,11.4,0,22.7,0.1,34.1c-5.5,0.1-10.9,0-16.3,0
		C1346.9,391.1,1346.8,379.7,1346.8,368.4z"/>
	<path class="st1" d="M1372.5,368.3c5.4,0,10.8,0,16.2,0c0,11.4,0,22.8,0,34.2c-5.4,0-10.8,0-16.2,0
		C1372.4,391.1,1372.4,379.7,1372.5,368.3z"/>
	<path class="st1" d="M1396.4,368.3c5.4,0,10.8,0,16.2,0c0,11.4,0,22.8,0,34.2c-5.4,0-10.8,0-16.2,0
		C1396.4,391.1,1396.4,379.7,1396.4,368.3z"/>
	<path class="st1" d="M1636.6,387.5c5.4,0,10.8,0,16.2,0c0,11.4,0,22.8,0,34.2c-5.4,0-10.8,0-16.2,0
		C1636.6,410.3,1636.6,398.9,1636.6,387.5z"/>
	<path class="st1" d="M1660.6,387.5c5.4,0,10.8,0,16.2,0c0,11.4,0,22.8,0,34.2c-5.4,0-10.8,0-16.2,0
		C1660.6,410.3,1660.5,398.9,1660.6,387.5z"/>
	<path class="st1" d="M1686.2,387.5c5.4,0,10.8,0,16.2,0c-0.1,11.4,0,22.8,0,34.2c-5.4,0-10.8,0-16.2,0
		C1686.1,410.3,1686.1,398.9,1686.2,387.5z"/>
	<path class="st1" d="M1735.6,387.5c5.4,0,10.8,0,16.2,0c0,11.4,0,22.8,0,34.2c-5.4,0-10.8,0-16.2,0
		C1735.6,410.3,1735.6,398.9,1735.6,387.5z"/>
	<path class="st1" d="M1783.5,387.5c5.4,0,10.8,0,16.2,0c0,11.4,0,22.8,0,34.2c-5.4,0-10.8,0-16.2,0
		C1783.5,410.3,1783.5,398.9,1783.5,387.5z"/>
	<path class="st1" d="M291.8,391.8c5.4,0,10.8,0,16.2,0c0,11.4,0,22.8,0,34.1c-5.4,0-10.8,0-16.2,0
		C291.8,414.5,291.8,403.1,291.8,391.8z"/>
	<path class="st1" d="M314.2,391.8c5.4,0,10.8,0,16.2,0c0,11.4,0,22.7,0,34.1c-5.4,0-10.8,0.1-16.2,0
		C314.2,414.5,314.2,403.1,314.2,391.8z"/>
	<path class="st1" d="M336.5,425.9c0.1-11.4,0-22.7,0.1-34.1c5.4,0,10.8,0,16.1,0c0,11.4,0,22.7,0,34.1
		C347.3,425.9,341.9,425.9,336.5,425.9z"/>
	<path class="st1" d="M659.3,398.2c5.4,0,10.8,0,16.2,0c0,11.4,0,22.8,0,34.1c-5.4,0-10.8,0-16.2,0
		C659.3,421,659.3,409.6,659.3,398.2z"/>
	<path class="st1" d="M14.3,412.5c5.4,0,10.8,0,16.2,0c0,11.4,0,22.8,0,34.2c-5.4,0-10.8,0-16.1,0C14.3,435.3,14.3,423.9,14.3,412.5
		z"/>
	<path class="st1" d="M1346.8,414.7c5.4,0,10.7,0,16.1,0c0.5,11.4,0.1,22.7,0.2,34.1c-5.4,0.1-10.9,0-16.3,0.1
		C1346.8,437.4,1346.9,426.1,1346.8,414.7z"/>
	<path class="st1" d="M823.3,451.9c0.1-11.4-0.1-22.7,0.1-34.1c5.4,0.1,10.8,0,16.2,0.1c-0.1,11.4-0.1,22.7,0,34.1
		C834.2,452,828.7,452,823.3,451.9z"/>
	<path class="st1" d="M847.3,451.9c0-11.4-0.1-22.7,0.1-34.1c5.4,0.1,10.8,0,16.2,0c0,11.4,0,22.7,0,34.1
		C858.1,451.9,852.7,452,847.3,451.9z"/>
	<path class="st1" d="M898.4,451.9c0-11.4,0-22.7,0-34.1c5.4,0,10.8,0.1,16.2,0c0,11.4,0,22.8,0,34.1
		C909.2,452,903.8,452,898.4,451.9z"/>
	<path class="st1" d="M946.4,452c0-11.4-0.1-22.8,0-34.1c5.4,0.1,10.8,0,16.1,0c0,11.4,0,22.7,0,34.1C957.1,452,951.7,452,946.4,452
		z"/>
	<path class="st1" d="M1865.2,428.5c5.3,0,10.7,0,16.1,0c0,11.4,0,22.8,0,34.1c-5.4,0.1-10.8,0-16.2,0
		C1864.9,451.3,1864.7,439.9,1865.2,428.5z"/>
	<path class="st1" d="M1890.6,428.5c5.4,0,10.8,0,16.2,0c0,11.4,0,22.8,0,34.2c-5.4,0-10.8,0-16.2,0
		C1890.6,451.3,1890.6,439.9,1890.6,428.5z"/>
	<path class="st1" d="M1505.1,433.8c5.4,0,10.7,0,16.1,0c0,11.4,0,22.7,0,34.1c-5.4,0-10.8,0-16.2,0
		C1505,456.6,1505,445.2,1505.1,433.8z"/>
	<path class="st1" d="M1530.6,433.8c5.4,0,10.8,0,16.2,0c0,11.4,0,22.7,0,34.1c-5.4,0-10.8,0-16.2,0
		C1530.7,456.6,1530.6,445.2,1530.6,433.8z"/>
	<path class="st1" d="M1554.6,433.8c5.4,0,10.8,0,16.1,0c0.1,11.4,0,22.8,0.1,34.1c-5.4,0-10.8,0-16.2,0
		C1554.6,456.6,1554.6,445.2,1554.6,433.8z"/>
	<path class="st1" d="M292.3,440.2c5.4,0,10.8,0,16.2,0c0,11.4,0,22.8,0,34.2c-5.4,0-10.8,0-16.2,0
		C292.3,463,292.4,451.6,292.3,440.2z"/>
	<path class="st1" d="M314.7,440.2c5.4,0,10.8,0,16.2,0c0,11.4,0.1,22.8-0.1,34.3c-5.4-0.1-10.8-0.1-16.1,0
		C314.7,463,314.7,451.6,314.7,440.2z"/>
	<path class="st1" d="M545.3,455.1c5.4,0,10.8,0,16.2,0c0,11.4,0,22.7,0,34.1c-5.4,0-10.8,0-16.2,0
		C545.3,477.9,545.3,466.5,545.3,455.1z"/>
	<path class="st1" d="M567.7,455.1c5.4,0,10.8,0,16.2,0c0,11.4,0,22.7,0,34.1c-5.4,0-10.8,0-16.2,0
		C567.7,477.9,567.6,466.5,567.7,455.1z"/>
	<path class="st1" d="M589.9,455.2c5.4-0.1,10.9-0.1,16.3,0c0,11.3,0,22.7,0,34.1c-5.3,0-10.7-0.1-16,0
		C589.6,477.9,590.1,466.5,589.9,455.2z"/>
	<path class="st1" d="M14.3,493c0-11.4-0.1-22.8,0.1-34.1c5.4,0,10.8,0,16.1,0c0,11.4,0,22.7,0,34.1C25.1,493,19.7,493,14.3,493z"/>
	<path class="st1" d="M1686.1,468.9c5.4,0,10.8,0,16.2,0c0,11.4,0,22.9,0,34.3c-5.4,0-10.8,0-16.1,0
		C1686.1,491.8,1686.1,480.3,1686.1,468.9z"/>
	<path class="st1" d="M1735.6,468.9c5.4,0,10.8,0,16.2,0c0,11.4,0,22.8,0,34.3c-5.4,0-10.8,0-16.2,0
		C1735.6,491.8,1735.6,480.3,1735.6,468.9z"/>
	<path class="st1" d="M1783.5,503c0-11.4,0-22.7,0-34.1c5.4,0,10.8,0,16.2,0c0,11.4,0,22.8,0,34.3
		C1794.3,503.1,1788.9,503.3,1783.5,503z"/>
	<path class="st1" d="M1505.1,476.9c5.3,0,10.7,0,16.1,0c0,11.3-0.1,22.7,0,34c-5.3,0.3-10.7,0-16,0.2
		C1504.8,499.8,1505,488.3,1505.1,476.9z"/>
	<path class="st1" d="M1530.7,476.9c5.4,0,10.8,0,16.2,0c0,11.4,0.1,22.8,0,34.2c-5.4-0.1-10.8,0-16.2,0
		C1530.6,499.7,1530.6,488.3,1530.7,476.9z"/>
	<path class="st1" d="M224.6,479.2c5.4,0,10.8,0,16.2,0c0,11.4,0.1,22.7,0,34.1c-5.4,0-10.8,0-16.2,0
		C224.6,501.9,224.7,490.5,224.6,479.2z"/>
	<path class="st1" d="M291.8,485.4c5.4,0,10.8,0,16.2,0c0,11.4,0,22.8,0,34.2c-5.4,0-10.8,0-16.2,0
		C291.8,508.2,291.8,496.8,291.8,485.4z"/>
	<path class="st1" d="M314.2,485.4c5.4,0.1,10.8,0,16.2,0c0,11.4,0,22.8,0,34.2c-5.4,0-10.8,0-16.2,0
		C314.2,508.2,314.2,496.8,314.2,485.4z"/>
	<path class="st1" d="M336.5,485.4c5.4,0,10.8,0,16.2,0c0,11.4,0,22.8,0,34.2c-5.4,0-10.8,0-16.2,0
		C336.6,508.2,336.5,496.8,336.5,485.4z"/>
	<path class="st1" d="M1009.3,523.8c0-11.4,0-22.8,0-34.2c5.4,0.1,10.8,0.1,16.2,0c-0.1,11.4,0,22.7,0,34.1
		C1020,523.8,1014.6,523.8,1009.3,523.8z"/>
	<path class="st1" d="M1063.5,523.8c0-11.4,0-22.7,0-34.1c5.4,0,10.8,0,16.1,0c0.1,11.4,0,22.7,0.1,34.1
		C1074.3,523.8,1068.9,523.8,1063.5,523.8z"/>
	<path class="st1" d="M1087.5,523.8c0-11.4-0.1-22.7,0-34.1c5.4,0,10.8,0,16.2,0c0,11.4,0,22.7,0,34.1
		C1098.3,523.8,1092.9,523.8,1087.5,523.8z"/>
	<path class="st1" d="M1111.4,523.8c0-11.4-0.1-22.7,0-34.1c5.4,0.1,10.8,0,16.2,0c0,11.4,0,22.7,0,34.1
		C1122.2,523.8,1116.8,523.8,1111.4,523.8z"/>
	<path class="st1" d="M1346.8,492.9c5.4,0,10.9,0,16.3,0c0,11.4-0.1,22.7,0,34.1c-5.5,0.1-10.9,0.1-16.4,0
		C1346.9,515.6,1346.8,504.3,1346.8,492.9z"/>
	<path class="st1" d="M1372.4,492.9c5.4-0.1,10.8-0.1,16.2,0c0,11.4,0,22.7,0,34.1c-5.4,0.1-10.8,0.1-16.2,0
		C1372.5,515.6,1372.4,504.3,1372.4,492.9z"/>
	<path class="st1" d="M1396.4,492.9c5.4-0.1,10.8,0,16.2,0c0,11.4,0,22.8,0,34.1c-5.4,0.1-10.8,0.1-16.2,0
		C1396.4,515.6,1396.4,504.3,1396.4,492.9z"/>
	<path class="st1" d="M733.4,528.1c-0.2-11.4-0.1-22.8,0-34.2c5.4,0,10.7,0,16.1,0c0,11.4,0,22.9,0,34.3
		C744.1,528.1,738.8,528.3,733.4,528.1z"/>
	<path class="st1" d="M757.4,528.2c-0.2-11.5-0.1-22.9,0-34.3c5.4,0.1,10.7,0,16.1,0c0,11.4,0,22.9,0,34.3
		C768.1,528.2,762.8,528.2,757.4,528.2z"/>
	<path class="st1" d="M781.3,528.2c0-11.5-0.1-22.9,0.1-34.3c5.4,0.1,10.7,0,16.1,0c0,11.4,0,22.9,0,34.3
		C792.1,528.2,786.7,528.2,781.3,528.2z"/>
	<path class="st1" d="M1530.6,521.6c5.4,0,10.8,0,16.2,0c0,11.4,0,22.8,0,34.2c-5.4,0-10.8,0-16.2,0
		C1530.7,544.4,1530.6,533,1530.6,521.6z"/>
	<path class="st1" d="M1554.6,521.6c5.4,0,10.8,0,16.2,0c0.1,11.4,0,22.8,0,34.2c-5.4,0-10.8,0-16.2,0
		C1554.6,544.4,1554.6,533,1554.6,521.6z"/>
	<path class="st1" d="M158.6,525.9c5.4,0,10.8,0,16.2,0c0.1,11.4,0,22.8,0,34.1c-5.4,0-10.8,0-16.2,0
		C158.6,548.7,158.6,537.3,158.6,525.9z"/>
	<path class="st1" d="M181.1,525.9c5.4,0,10.8,0,16.2,0c0,11.4,0,22.7,0,34.1c-5.4,0-10.8,0-16.2,0
		C181.1,548.6,181,537.3,181.1,525.9z"/>
	<path class="st1" d="M203.4,525.9c5.4,0,10.8,0,16.2,0c0,11.3,0,22.7,0,34c-5.4,0.1-10.8,0-16.2,0
		C203.4,548.7,203.4,537.3,203.4,525.9z"/>
	<path class="st1" d="M225.7,525.9c5.4,0,10.8,0,16.2,0c0,11.4,0,22.7,0,34.1c-5.4,0-10.8,0-16.2,0
		C225.7,548.6,225.7,537.3,225.7,525.9z"/>
	<path class="st1" d="M898.4,531.2c5.4,0,10.8,0,16.2,0c0,11.4,0,22.8,0,34.1c-5.4,0-10.8,0-16.2,0
		C898.4,554,898.4,542.6,898.4,531.2z"/>
	<path class="st1" d="M14.4,543.5c5.4,0,10.8,0,16.2,0c0,11.4,0,22.8,0,34.2c-5.4,0-10.8,0-16.2,0C14.3,566.2,14.3,554.9,14.4,543.5
		z"/>
	<path class="st1" d="M545.4,546.2c5.4,0,10.8,0,16.2,0c0,11.3,0,22.7,0,34c-5.4,0-10.8,0-16.2,0
		C545.3,568.9,545.3,557.6,545.4,546.2z"/>
	<path class="st1" d="M589.9,546.3c5.5-0.1,10.9-0.1,16.3,0c0,11.3,0,22.7,0,34c-5.4,0-10.9,0-16.3,0
		C589.9,568.9,589.9,557.6,589.9,546.3z"/>
	<path class="st1" d="M1036.4,558.4c5.4,0,10.8,0,16.2,0c0,11.4,0,22.7,0,34.1c-5.4,0-10.8,0-16.2,0
		C1036.3,581.2,1036.4,569.8,1036.4,558.4z"/>
	<path class="st1" d="M1530.6,566.4c5.4-0.1,10.8,0,16.2,0c0,11.4,0,22.8,0,34.2c-5.4,0-10.8,0-16.2,0
		C1530.6,589.2,1530.6,577.8,1530.6,566.4z"/>
	<path class="st1" d="M1660.5,566.4c5.4,0,10.8,0,16.2,0c0,11.4,0,22.8,0,34.2c-5.4,0-10.8,0-16.2,0
		C1660.5,589.2,1660.6,577.8,1660.5,566.4z"/>
	<path class="st1" d="M1686.2,566.4c5.4,0,10.8,0,16.2,0c0,11.4,0,22.8,0,34.2c-5.4,0-10.8,0-16.2,0
		C1686.1,589.2,1686.1,577.8,1686.2,566.4z"/>
	<path class="st1" d="M1711.6,566.4c5.4,0,10.8,0,16.2,0c0,11.4,0,22.8,0,34.2c-5.4,0-10.8,0-16.2,0
		C1711.6,589.2,1711.6,577.8,1711.6,566.4z"/>
	<path class="st1" d="M1735.6,566.4c5.4-0.1,10.8,0,16.2,0c0,11.4,0,22.8,0,34.2c-5.4,0-10.8,0-16.2,0
		C1735.6,589.2,1735.6,577.8,1735.6,566.4z"/>
	<path class="st1" d="M1783.5,566.4c5.4,0,10.8,0,16.2,0c0,11.4,0,22.8,0,34.2c-5.4,0-10.8,0-16.2,0
		C1783.5,589.2,1783.5,577.8,1783.5,566.4z"/>
	<path class="st1" d="M181,570.6c5.4,0,10.8,0,16.2,0c-0.1,11.4,0,22.8-0.1,34.2c-5.4,0-10.8-0.1-16.1,0
		C181,593.4,181.1,582,181,570.6z"/>
	<path class="st1" d="M636.9,593c5.4,0,10.8,0,16.2,0c0,11.4,0,22.7,0,34.1c-5.4,0-10.8,0-16.2-0.1
		C636.9,615.7,636.9,604.3,636.9,593z"/>
	<path class="st1" d="M659.3,593.1c5.4-0.1,10.8-0.1,16.2-0.1c0,11.4,0,22.7,0,34.1c-5.4,0-10.8,0-16.2,0
		C659.3,615.8,659.3,604.4,659.3,593.1z"/>
	<path class="st1" d="M683.3,593c5.4-0.1,10.8,0,16.2,0c0,11.4,0,22.7,0,34.1c-5.4,0-10.8,0-16.2,0
		C683.3,615.7,683.3,604.4,683.3,593z"/>
	<path class="st1" d="M54.2,600.5c5.4,0,10.9,0,16.3,0c-0.1,11.4,0,22.7,0,34.1c-5.4,0-10.8,0-16.3,0
		C54.2,623.2,54.2,611.8,54.2,600.5z"/>
	<path class="st1" d="M76.6,600.5c5.4,0,10.8,0,16.2,0c0,11.4,0,22.7,0,34.1c-5.4,0-10.8,0-16.2,0C76.7,623.2,76.7,611.8,76.6,600.5
		z"/>
	<path class="st1" d="M99,600.5c5.4,0,10.8,0,16.1,0c0.1,11.4,0,22.7,0,34.1c-5.4,0-10.7,0-16.1,0C98.9,623.2,99,611.8,99,600.5z"/>
	<path class="st1" d="M121.3,600.5c5.4,0,10.9,0,16.3,0c0,11.4,0,22.7,0,34.1c-5.4,0-10.9,0-16.3,0
		C121.3,623.2,121.3,611.8,121.3,600.5z"/>
	<path class="st1" d="M388.7,600.5c5.4,0,10.8,0,16.2,0c0,11.4,0,22.7,0,34.1c-5.4,0-10.8,0-16.2,0
		C388.7,623.2,388.7,611.8,388.7,600.5z"/>
	<path class="st1" d="M411.1,600.5c5.4,0,10.8,0,16.2,0c0,11.4,0,22.7,0,34.1c-5.4,0-10.8,0-16.2,0
		C411.1,623.2,411.1,611.8,411.1,600.5z"/>
	<path class="st1" d="M433.5,600.5c5.4,0,10.8,0,16.2,0c0,11.4,0,22.7,0,34.1c-5.4-0.1-10.8,0-16.2,0
		C433.5,623.2,433.5,611.8,433.5,600.5z"/>
	<path class="st1" d="M455.8,600.5c5.4,0,10.8,0,16.2,0c0,11.4,0,22.8,0,34.1c-5.4,0-10.8,0-16.2,0
		C455.8,623.2,455.8,611.8,455.8,600.5z"/>
	<path class="st1" d="M478.2,600.5c5.4,0,10.8,0,16.2,0c-0.1,11.3,0,22.7,0,34.1c-5.4,0-10.8,0-16.2,0
		C478.2,623.2,478.2,611.8,478.2,600.5z"/>
	<path class="st1" d="M500.6,600.5c5.4,0,10.8,0,16.2,0c0,11.4,0,22.7,0,34.1c-5.4,0-10.8,0-16.2,0
		C500.6,623.2,500.6,611.8,500.6,600.5z"/>
	<path class="st1" d="M1249.4,638.9c0-11.4,0-22.8,0.1-34.2c5.4,0,10.8,0,16.1,0c0,11.4,0,22.8,0,34.2
		C1260.2,638.9,1254.8,638.9,1249.4,638.9z"/>
	<path class="st1" d="M1321.3,604.7c5.4,0,10.8,0,16.2,0c0,11.4,0,22.8,0,34.2c-5.4,0-10.8,0-16.2,0
		C1321.2,627.5,1321.3,616.1,1321.3,604.7z"/>
	<path class="st1" d="M1346.8,604.7c5.4,0,10.9,0,16.3,0c-0.1,11.4,0.1,22.7-0.1,34.1c-5.4,0.1-10.8,0.1-16.2,0
		C1346.9,627.5,1346.8,616.1,1346.8,604.7z"/>
	<path class="st1" d="M1372.5,638.8c0-11.4,0-22.8,0-34.2c5.4,0,10.8,0,16.2,0c0.1,11.4,0,22.8,0,34.2
		C1383.3,638.9,1377.9,638.9,1372.5,638.8z"/>
	<path class="st1" d="M1396.4,638.9c0-11.4,0-22.8,0-34.2c5.4,0,10.8,0,16.2,0c0,11.4,0,22.8,0,34.2
		C1407.2,638.9,1401.8,638.9,1396.4,638.9z"/>
	<path class="st1" d="M1009.2,620.7c5.4-0.1,10.8,0,16.2,0c0,11.4,0,22.7,0,34.1c-5.4,0-10.8,0-16.2,0
		C1009.2,643.4,1009.3,632.1,1009.2,620.7z"/>
	<path class="st1" d="M1111.4,654.8c0-11.4,0-22.7,0-34.1c5.4,0,10.8,0,16.2,0c0,11.4,0,22.7,0,34.1
		C1122.2,654.8,1116.8,654.8,1111.4,654.8z"/>
	<path class="st1" d="M757.3,623.3c5.4,0,10.8,0,16.2,0c0,11.4,0,22.8,0,34.2c-5.4,0-10.8,0-16.2,0
		C757.3,646.1,757.3,634.7,757.3,623.3z"/>
	<path class="st1" d="M1686.1,630.3c5.4,0,10.8,0,16.2,0c-0.1,11.4,0,22.7,0,34.1c-5.4,0-10.8,0-16.2,0
		C1686.1,653,1686.1,641.6,1686.1,630.3z"/>
	<path class="st1" d="M1735.6,630.3c5.4,0,10.8,0,16.2,0c-0.1,11.3,0,22.7,0,34.1c-5.4,0.1-10.8,0-16.2,0
		C1735.6,653,1735.6,641.6,1735.6,630.3z"/>
	<path class="st1" d="M54.2,645.1c5.4,0,10.8,0,16.3,0c0,11.4,0,22.8,0,34.2c-5.4,0-10.9,0-16.3,0C54.2,667.9,54.2,656.5,54.2,645.1
		z"/>
	<path class="st1" d="M99,645.1c5.4,0,10.8,0,16.2,0c0,11.4,0,22.8,0,34.2c-5.4,0-10.8,0-16.2,0C99,667.9,99,656.5,99,645.1z"/>
	<path class="st1" d="M121.3,645.1c5.4,0,10.9,0,16.3,0c0,11.4,0,22.8,0,34.2c-5.4,0-10.8-0.1-16.2,0
		C121.3,667.9,121.3,656.5,121.3,645.1z"/>
	<path class="st1" d="M1172.7,651.5c5.4,0,10.8,0,16.2,0c0,11.4,0,22.7,0,34.1c-5.4,0-10.8,0-16.2,0
		C1172.7,674.3,1172.7,662.9,1172.7,651.5z"/>
	<path class="st1" d="M1198.3,651.5c5.4,0,10.8,0,16.2,0c0,11.4,0,22.7,0,34.1c-5.4,0-10.8,0-16.2,0
		C1198.3,674.3,1198.3,662.9,1198.3,651.5z"/>
	<path class="st1" d="M1223.9,651.6c5.4-0.1,10.8,0,16.3,0c0,11.4,0.1,22.7-0.1,34.1c-5.4,0-10.8,0-16.1,0
		C1223.8,674.3,1223.9,662.9,1223.9,651.6z"/>
	<path class="st1" d="M1247.8,651.5c5.4,0,10.8,0,16.1,0c0,11.4,0,22.7,0,34.1c-5.4,0-10.7,0-16.1,0
		C1247.8,674.3,1247.9,662.9,1247.8,651.5z"/>
	<path class="st1" d="M823.3,662.2c5.4-0.1,10.8,0,16.2,0c0,11.4,0,22.8,0,34.1c-5.4,0-10.8,0-16.2,0
		C823.3,685,823.4,673.6,823.3,662.2z"/>
	<path class="st1" d="M872.8,662.2c5.4,0,10.8-0.1,16.2,0c0,11.4,0,22.8,0,34.2c-5.4-0.1-10.8,0-16.1,0
		C872.8,685,872.8,673.6,872.8,662.2z"/>
	<path class="st1" d="M922.4,662.2c5.4-0.1,10.8,0,16.2,0c-0.1,11.4,0,22.8,0,34.1c-5.4,0-10.8,0-16.2,0
		C922.3,685,922.4,673.6,922.4,662.2z"/>
	<path class="st1" d="M946.3,662.2c5.4-0.1,10.8,0,16.2,0c0,11.4,0,22.8,0,34.2c-5.4,0-10.8,0-16.2,0
		C946.3,685,946.4,673.6,946.3,662.2z"/>
	<path class="st1" d="M659.3,666.4c5.4,0,10.8,0,16.2,0c0,11.4,0,22.8,0,34.2c-5.4,0-10.8,0-16.2,0
		C659.3,689.2,659.3,677.8,659.3,666.4z"/>
	<path class="st1" d="M314.2,668.6c5.4,0,10.8,0,16.2,0c0,11.3,0,22.7,0,34.1c-5.4,0-10.8,0-16.2,0
		C314.2,691.3,314.2,679.9,314.2,668.6z"/>
	<path class="st1" d="M411.1,670.6c5.4,0,10.8,0.1,16.2,0c0,11.4,0,22.7,0,34.1c-5.4,0.1-10.8,0-16.2,0
		C411.1,693.4,411.1,682,411.1,670.6z"/>
	<path class="st1" d="M455.8,670.7c5.4,0,10.8,0,16.2,0c0,11.4,0,22.7,0,34.1c-5.4,0-10.8,0-16.2,0
		C455.8,693.4,455.8,682,455.8,670.7z"/>
	<path class="st1" d="M500.6,670.7c5.4,0,10.8,0,16.2,0c0.1,11.4,0,22.8,0,34.1c-5.4,0-10.8,0-16.2,0
		C500.6,693.4,500.6,682,500.6,670.7z"/>
	<path class="st1" d="M1865.2,683.9c5.3,0,10.6,0,16,0c0.1,11.4,0,22.9,0,34.3c-5.3-0.1-10.6,0.1-15.9-0.1c-0.7-4.3-0.3-8.7-0.4-13
		C1865,698,1864.7,690.9,1865.2,683.9z"/>
	<path class="st1" d="M1505.1,689.3c5.4,0,10.8,0,16.1,0c0,11.4,0,22.8,0,34.2c-5.4,0-10.8,0-16.1,0
		C1504.9,712.1,1505,700.7,1505.1,689.3z"/>
	<path class="st1" d="M1530.6,689.3c5.4-0.1,10.8,0,16.2,0c0,11.4,0,22.8,0,34.2c-5.4,0-10.8,0-16.2,0
		C1530.6,712.1,1530.7,700.7,1530.6,689.3z"/>
	<path class="st1" d="M1554.6,689.3c5.4-0.1,10.8,0,16.2,0c0,11.4,0,22.8,0,34.2c-5.4,0-10.8,0-16.2,0
		C1554.6,712.1,1554.7,700.7,1554.6,689.3z"/>
	<path class="st1" d="M54.2,691.5c5.4,0,10.9,0,16.3,0c0,11.4,0,22.7,0,34.1c-5.4,0-10.9,0-16.3,0C54.2,714.2,54.2,702.8,54.2,691.5
		z"/>
	<path class="st1" d="M76.6,691.5c5.4,0,10.8,0,16.2,0c0,11.4,0,22.7,0,34.1c-5.4,0-10.8,0-16.2,0C76.7,714.2,76.7,702.8,76.6,691.5
		z"/>
	<path class="st1" d="M99,691.5c5.4,0,10.7,0,16.1,0c0,11.4,0,22.7,0,34.1c-5.4,0-10.8,0-16.1,0C98.9,714.2,98.9,702.8,99,691.5z"/>
	<path class="st1" d="M121.3,691.5c5.4,0,10.9,0,16.3,0c0,11.4,0,22.7,0,34.1c-5.4,0-10.8,0-16.3,0
		C121.3,714.2,121.3,702.8,121.3,691.5z"/>
	<path class="st1" d="M1346.8,692.6c5.4,0,10.7,0,16.1,0c0.4,11.3,0.2,22.7,0.1,34.1c-5.4,0.1-10.8,0.1-16.3,0
		C1346.9,715.2,1346.8,703.9,1346.8,692.6z"/>
	<path class="st1" d="M411.1,715.4c5.4,0,10.8,0,16.2,0c-0.1,11.4,0,22.7,0,34.1c-5.4,0-10.8,0-16.2,0
		C411.1,738.2,411.1,726.8,411.1,715.4z"/>
	<path class="st1" d="M433.5,715.4c5.4,0,10.8,0,16.2,0c0,11.4,0,22.7,0,34.1c-5.4,0-10.8,0-16.1,0
		C433.4,738.2,433.5,726.8,433.5,715.4z"/>
	<path class="st1" d="M455.8,715.5c5.4-0.1,10.8,0,16.2,0c0,11.4,0,22.7,0,34.1c-5.4,0-10.8,0-16.2,0
		C455.8,738.2,455.8,726.8,455.8,715.5z"/>
	<path class="st1" d="M567.7,718.6c5.4,0,10.8,0,16.2,0c0,11.4,0,22.7,0,34.1c-5.4,0-10.8,0-16.2,0
		C567.7,741.3,567.7,730,567.7,718.6z"/>
	<path class="st1" d="M1636.6,730.8c5.4,0,10.8,0,16.2,0c0.1,11.4,0,22.8,0,34.1c-5.4,0-10.8,0-16.2,0
		C1636.6,753.6,1636.6,742.2,1636.6,730.8z"/>
	<path class="st1" d="M1759.6,730.8c5.4,0,10.8,0,16.2,0c-0.1,11.4,0,22.7,0,34.1c-5.4,0-10.8,0-16.2,0
		C1759.6,753.6,1759.6,742.2,1759.6,730.8z"/>
	<path class="st1" d="M1783.5,764.9c0-11.4,0-22.8,0-34.1c5.4,0,10.8,0,16.2,0.1c0,11.3,0,22.7,0,34.1
		C1794.3,765,1788.9,764.9,1783.5,764.9z"/>
	<path class="st1" d="M1807.5,764.9c0-11.4,0-22.8,0-34.1c5.4,0,10.8,0,16.2,0c-0.1,11.3,0,22.7,0,34.1
		C1818.3,765,1812.9,764.9,1807.5,764.9z"/>
	<path class="st1" d="M1198.3,732.9c5.4,0,10.8,0,16.1,0c0,11.3,0,22.7,0,34c-5.4,0.3-10.8,0.2-16.2,0
		C1198.3,755.6,1198.3,744.3,1198.3,732.9z"/>
	<path class="st1" d="M1247.8,732.9c5.4,0,10.7,0,16.1,0c0.1,11.4,0.1,22.8,0,34.2c-5.4,0-10.7,0.1-16.1-0.1
		C1247.8,755.6,1247.8,744.3,1247.8,732.9z"/>
	<path class="st1" d="M76.6,736.2c5.4,0,10.8,0,16.2,0c0,11.4,0,22.8,0,34.1c-5.4,0-10.8,0-16.2,0C76.7,759,76.7,747.6,76.6,736.2z"
		/>
	<path class="st1" d="M99,736.2c5.4,0,10.8,0,16.2,0c0,11.4,0,22.8,0,34.2c-5.4-0.1-10.8-0.1-16.2,0C99,758.9,99,747.6,99,736.2z"/>
	<path class="st1" d="M158.6,736.7c5.4,0,10.8,0,16.2,0c0.1,11.4,0,22.7,0,34.1c-5.4,0-10.8,0-16.2,0
		C158.6,759.4,158.6,748.1,158.6,736.7z"/>
	<path class="st1" d="M181.1,736.7c5.4,0,10.8,0,16.2,0c0,11.3-0.1,22.7,0.1,34c-5.4,0.1-10.8,0.1-16.2,0
		C181,759.4,181,748,181.1,736.7z"/>
	<path class="st1" d="M203.4,770.8c0-11.4-0.1-22.7,0-34.1c5.4,0,10.8,0,16.1,0c0,11.4,0,22.7,0,34.1
		C214.2,770.8,208.8,770.8,203.4,770.8z"/>
	<path class="st1" d="M225.7,736.7c5.4,0,10.8,0,16.2,0c0,11.4,0,22.7,0,34.1c-5.4,0-10.8,0-16.2,0
		C225.7,759.4,225.7,748,225.7,736.7z"/>
	<path class="st1" d="M291.8,771.7c5.4,0,10.8,0,16.2,0c0,11.4,0,22.8,0,34.2c-5.4,0-10.8,0-16.2,0
		C291.7,794.5,291.8,783.1,291.8,771.7z"/>
	<path class="st1" d="M314.2,771.7c5.4,0,10.8,0,16.2,0c0,11.4,0,22.8,0,34.2c-5.4,0-10.8,0-16.2,0
		C314.2,794.5,314.2,783.1,314.2,771.7z"/>
	<path class="st1" d="M336.5,805.9c0.1-11.4,0-22.8,0-34.2c5.4,0,10.8,0,16.2,0c0,11.4,0,22.8,0,34.2
		C347.3,805.9,341.9,806,336.5,805.9z"/>
	<path class="st1" d="M54.2,780.8c5.4,0,10.8,0,16.3,0c0,11.3,0,22.7,0,34.1c-5.4,0-10.9,0-16.3,0C54.2,803.5,54.2,792.2,54.2,780.8
		z"/>
	<path class="st1" d="M1198.3,782.5c5.4,0,10.8,0,16.2,0c0,11.3,0,22.7,0,34.1c-5.4,0-10.8,0-16.2,0
		C1198.3,805.2,1198.3,793.8,1198.3,782.5z"/>
	<path class="st1" d="M1247.8,782.5c5.4,0,10.7,0,16.1,0c0,11.4,0,22.8,0,34.1c-5.4,0-10.7,0-16.1,0
		C1247.8,805.2,1247.8,793.9,1247.8,782.5z"/>
	<path class="st1" d="M181.1,782.9c5.4,0,10.8,0,16.2,0c-0.1,11.4,0,22.8-0.1,34.2c-5.4,0-10.8,0-16.2,0
		C181,805.8,181,794.4,181.1,782.9z"/>
	<path class="st1" d="M203.4,783c5.4,0,10.8,0,16.2,0c0,11.4,0,22.8,0,34.2c-5.4,0-10.8,0-16.2,0C203.4,805.7,203.4,794.3,203.4,783
		z"/>
	<path class="st1" d="M922.4,820.9c0-11.4-0.1-22.8,0-34.3c5.4,0.1,10.8,0,16.2,0c0,11.4,0,22.8,0,34.2
		C933.2,820.9,927.8,820.9,922.4,820.9z"/>
	<path class="st1" d="M1505,786.7c5.4,0,10.8,0,16.3,0c0,11.4,0,22.8,0,34.2c-5.4,0-10.8,0-16.3,0
		C1505.4,809.5,1504.9,798.1,1505,786.7z"/>
	<path class="st1" d="M1554.6,786.7c5.4,0,10.7,0,16.1,0c0.1,11.4,0,22.8,0.1,34.2c-5.4,0-10.8,0-16.2,0
		C1554.6,809.5,1554.6,798.1,1554.6,786.7z"/>
	<path class="st1" d="M1466.7,787.7c5.4,0,10.8,0,16.2,0c0,11.4,0,22.8,0,34.2c-5.4,0-10.8,0-16.2,0
		C1466.7,810.5,1466.7,799.1,1466.7,787.7z"/>
	<path class="st1" d="M567.7,788.8c5.4,0,10.8,0,16.2,0c0,11.4,0,22.8,0,34.1c-5.4,0-10.8,0-16.2,0
		C567.6,811.6,567.7,800.2,567.7,788.8z"/>
	<path class="st1" d="M590,788.8c5.4,0,10.8,0,16.2,0c0,11.4,0,22.7,0,34.1c-5.4,0-10.9,0.1-16.3,0C590,811.5,589.8,800.2,590,788.8
		z"/>
	<path class="st1" d="M636.9,789.4c5.4,0,10.8,0,16.2,0c0,11.4,0,22.8,0,34.1c-5.4,0-10.8,0-16.2,0
		C636.9,812.1,636.9,800.7,636.9,789.4z"/>
	<path class="st1" d="M659.3,789.4c5.4,0,10.8,0,16.2,0c0,11.4,0,22.7,0,34.1c-5.4,0-10.8,0-16.2,0
		C659.3,812.1,659.3,800.7,659.3,789.4z"/>
	<path class="st1" d="M683.3,789.4c5.4,0,10.8,0,16.2,0c0,11.4,0,22.7,0,34.1c-5.4,0-10.8,0-16.1,0
		C683.2,812.1,683.3,800.7,683.3,789.4z"/>
	<path class="st1" d="M54.2,823.9c5.4,0,10.8,0,16.2,0c0,11.3,0,22.7,0,34c-5.4,0.3-10.8,0.2-16.2,0.2
		C54.2,846.7,54.2,835.3,54.2,823.9z"/>
	<path class="st1" d="M99,823.9c5.4,0,10.8,0,16.2,0c0,11.3,0,22.7,0,34c-5.4,0.3-10.8,0.3-16.2,0C99,846.6,99,835.3,99,823.9z"/>
	<path class="st1" d="M411.1,823.9c5.4,0,10.8,0,16.2,0c0,11.4,0,22.8,0,34.2c-5.4,0-10.8,0-16.1,0
		C411.1,846.7,411.1,835.3,411.1,823.9z"/>
	<path class="st1" d="M433.4,857.9c0.1-11.3,0-22.7,0.1-34c5.4,0.1,10.8,0,16.1,0.1c0,11.3,0,22.7,0,34
		C444.2,858.3,438.8,858.1,433.4,857.9z"/>
	<path class="st1" d="M455.8,823.9c5.4,0,10.8,0,16.1,0c0,11.4,0,22.8,0,34.2c-5.4,0-10.8,0-16.1,0
		C455.8,846.7,455.8,835.3,455.8,823.9z"/>
	<path class="st1" d="M478.3,823.9c5.4,0,10.8,0,16.2,0c0,11.4,0,22.8,0,34.2c-5.4-0.1-10.8,0.1-16.2-0.2
		C478.2,846.6,478.2,835.3,478.3,823.9z"/>
	<path class="st1" d="M1890.6,826.1c5.4,0,10.8,0,16.2,0c0,11.4,0,22.7,0,34.1c-5.4,0-10.8,0-16.2,0
		C1890.6,848.9,1890.6,837.5,1890.6,826.1z"/>
	<path class="st1" d="M158.6,827.7c5.4,0,10.7,0,16.1,0c0.2,11.4,0.1,22.8,0.1,34.2c-5.4,0-10.8,0-16.2,0
		C158.7,850.4,158.6,839.1,158.6,827.7z"/>
	<path class="st1" d="M203.4,861.8c0-11.4,0-22.8,0-34.1c5.4,0,10.8,0,16.2,0c0,11.4,0,22.7,0,34.1
		C214.2,861.8,208.8,861.8,203.4,861.8z"/>
	<path class="st1" d="M225.7,827.7c5.4,0,10.8,0,16.2,0c0,11.4,0,22.7,0,34.1c-5.4,0-10.8,0-16.2,0
		C225.7,850.4,225.7,839,225.7,827.7z"/>
	<path class="st1" d="M1711.7,828.2c5.4,0,10.8,0,16.2,0c-0.1,11.4,0,22.8,0,34.1c-5.4,0-10.8,0-16.2,0
		C1711.6,851,1711.6,839.6,1711.7,828.2z"/>
	<path class="st1" d="M1346.8,832.9c5.4,0.1,10.9-0.2,16.4,0.3c-0.3,11.3,0.3,22.7-0.3,34c-5.4-0.1-10.7-0.1-16,0
		C1346.9,855.8,1346.8,844.3,1346.8,832.9z"/>
	<path class="st1" d="M1396.4,833c5.4-0.1,10.8-0.1,16.2,0c0,11.4,0.1,22.8,0,34.3c-5.4-0.1-10.8,0-16.1,0
		C1396.4,855.8,1396.4,844.4,1396.4,833z"/>
	<path class="st1" d="M1036.4,839.4c5.4,0,10.8,0,16.2,0c0,11.4,0,22.8,0,34.2c-5.4,0-10.8,0-16.2,0
		C1036.4,862.2,1036.3,850.8,1036.4,839.4z"/>
	<path class="st1" d="M1063.5,839.4c5.4,0,10.8,0,16.2,0c0,11.4,0,22.8,0,34.2c-5.4,0-10.8,0-16.2,0
		C1063.5,862.2,1063.5,850.8,1063.5,839.4z"/>
	<path class="st1" d="M1087.5,839.4c5.4,0,10.8,0,16.2,0c0,11.4,0,22.8,0,34.2c-5.4,0-10.8,0-16.2,0
		C1087.4,862.2,1087.4,850.8,1087.5,839.4z"/>
	<path class="st1" d="M757.3,885.7c0-11.4,0-22.7,0-34.1c5.4,0,10.8,0,16.2,0c0,11.4,0,22.7,0,34.1
		C768.1,885.8,762.7,885.8,757.3,885.7z"/>
	<path class="st1" d="M781.3,851.6c5.4,0,10.8,0,16.2,0c0,11.4,0,22.7,0,34.1c-5.4,0-10.8,0-16.2,0
		C781.3,874.4,781.3,863,781.3,851.6z"/>
	<path class="st1" d="M54.2,867.2c5.4-0.1,10.9,0,16.3,0c0,11.3,0,22.7,0,34.1c-5.4,0-10.8,0-16.3,0
		C54.2,889.8,54.2,878.5,54.2,867.2z"/>
	<path class="st1" d="M76.7,867.1c5.4,0,10.8,0,16.2,0c0,11.3,0,22.7,0,34c-5.4,0-10.8,0-16.2,0C76.6,889.8,76.6,878.5,76.7,867.1z"
		/>
	<path class="st1" d="M99,867.1c5.4,0,10.8,0,16.2,0c-0.1,11.3,0,22.7,0,34c-5.4,0-10.8,0-16.2,0C99,889.8,99,878.5,99,867.1z"/>
	<path class="st1" d="M158.6,872.4c5.4,0,10.8-0.1,16.2,0c0,11.4,0,22.8,0,34.2c-5.4,0-10.8,0-16.2,0
		C158.6,895.2,158.6,883.8,158.6,872.4z"/>
	<path class="st1" d="M203.4,872.4c5.4,0,10.8,0,16.2,0c0,11.4,0,22.8,0,34.2c-5.4,0-10.8,0-16.2,0
		C203.4,895.1,203.4,883.8,203.4,872.4z"/>
	<path class="st1" d="M1636.6,879.4c5.4,0,10.8,0,16.2,0c0,11.4,0,22.7,0,34.1c-5.4,0-10.8,0-16.2,0
		C1636.6,902.1,1636.6,890.7,1636.6,879.4z"/>
	<path class="st1" d="M1660.5,879.4c5.4,0,10.8,0,16.2,0c0,11.4,0,22.7,0,34.1c-5.4,0-10.8,0-16.1,0
		C1660.5,902.1,1660.6,890.7,1660.5,879.4z"/>
	<path class="st1" d="M1735.6,879.4c5.4-0.1,10.8,0,16.2,0c0,11.3-0.1,22.7,0,34.1c-5.4,0-10.8,0-16.2,0
		C1735.6,902.1,1735.6,890.7,1735.6,879.4z"/>
	<path class="st1" d="M1759.6,879.4c5.4-0.1,10.8,0,16.2,0c0,11.4,0,22.7,0,34.1c-5.4,0-10.8,0-16.2,0
		C1759.5,902.1,1759.6,890.7,1759.6,879.4z"/>
	<path class="st1" d="M1783.5,879.4c5.4,0,10.8,0,16.2,0c0,11.4,0,22.7,0,34.1c-5.4,0-10.8,0-16.2,0
		C1783.5,902.1,1783.5,890.7,1783.5,879.4z"/>
	<path class="st1" d="M1807.5,879.3c5.4,0,10.8,0,16.2,0c0,11.4-0.1,22.7,0,34.1c-5.4,0-10.8,0-16.2,0
		C1807.5,902.1,1807.5,890.7,1807.5,879.3z"/>
	<path class="st1" d="M1346.8,890.5c5.4-0.1,10.7,0,16.1,0c0.3,11.4,0.4,22.8,0,34.2c-5.4-0.1-10.7,0-16.1,0
		C1346.9,913.2,1346.9,901.9,1346.8,890.5z"/>
	<path class="st1" d="M1372.5,890.5c5.4,0,10.8,0,16.2,0c0,11.4,0,22.8,0,34.2c-5.4,0-10.8,0-16.2,0
		C1372.4,913.3,1372.4,901.9,1372.5,890.5z"/>
	<path class="st1" d="M1396.4,890.5c5.4,0,10.8,0,16.2,0c0,11.4,0,22.8,0,34.2c-5.4,0-10.8,0-16.2,0
		C1396.4,913.3,1396.4,901.9,1396.4,890.5z"/>
	<path class="st1" d="M1172.7,892.7c5.4,0,10.8,0,16.2,0c0,11.3,0,22.7,0,34.1c-5.4,0-10.8,0-16.2,0
		C1172.7,915.4,1172.7,904,1172.7,892.7z"/>
	<path class="st1" d="M1198.3,892.7c5.4-0.1,10.8,0,16.2,0c0,11.3,0,22.7,0,34.1c-5.4,0.1-10.8,0-16.2,0
		C1198.3,915.4,1198.3,904,1198.3,892.7z"/>
	<path class="st1" d="M1223.9,892.7c5.4,0,10.8,0,16.3,0c0,11.3,0,22.7,0,34.1c-5.4,0-10.8,0-16.3,0
		C1223.9,915.4,1223.9,904,1223.9,892.7z"/>
	<path class="st1" d="M1247.8,892.7c5.4,0,10.7,0,16.1,0c0,11.4,0,22.7,0,34.1c-5.4,0-10.8,0-16.1,0
		C1247.8,915.4,1247.8,904,1247.8,892.7z"/>
	<path class="st1" d="M823.3,903.3c5.4,0,10.8,0,16.2,0c-0.1,11.3,0,22.7,0,34c-5.4,0-10.8,0-16.2,0
		C823.3,926.1,823.4,914.7,823.3,903.3z"/>
	<path class="st1" d="M847.3,903.3c5.4,0,10.8,0,16.2,0c0,11.3,0,22.7,0,34c-5.4,0-10.8,0-16.2,0
		C847.3,926.1,847.3,914.7,847.3,903.3z"/>
	<path class="st1" d="M872.8,903.3c5.4,0,10.8,0,16.1,0c0,11.4,0,22.7,0,34.1c-5.4-0.1-10.8,0-16.2,0
		C872.8,926,872.8,914.7,872.8,903.3z"/>
	<path class="st1" d="M898.4,903.3c5.4,0,10.8,0,16.2,0c0,11.4,0,22.7,0,34.1c-5.4,0-10.8,0-16.2,0
		C898.4,926,898.4,914.7,898.4,903.3z"/>
	<path class="st1" d="M922.4,903.3c5.4-0.1,10.8,0,16.2,0c-0.1,11.3,0,22.7,0,34.1c-5.4,0-10.8,0-16.2,0
		C922.3,926.1,922.4,914.7,922.4,903.3z"/>
	<path class="st1" d="M946.4,903.3c5.4,0,10.8,0,16.2,0c0,11.3,0,22.7,0,34.1c-5.4,0-10.8,0-16.2,0
		C946.3,926,946.3,914.7,946.4,903.3z"/>
	<path class="st1" d="M54.2,910.2c5.4,0,10.9,0,16.3,0c0,11.4,0,22.7,0,34.1c-5.4,0-10.9,0-16.3,0C54.2,933,54.2,921.6,54.2,910.2z"
		/>
	<path class="st1" d="M76.7,910.2c5.4,0,10.8,0,16.2,0c0,11.4,0,22.7,0,34.1c-5.4,0-10.8,0-16.2,0C76.7,933,76.6,921.6,76.7,910.2z"
		/>
	<path class="st1" d="M99,910.2c5.4,0,10.8,0,16.2,0c-0.1,11.4,0,22.7,0,34.1c-5.4-0.1-10.8,0-16.2,0C99,933,99,921.6,99,910.2z"/>
	<path class="st1" d="M121.3,910.2c5.4,0,10.9,0,16.3,0c0,11.3,0,22.7,0,34.1c-5.4,0-10.8-0.1-16.2,0
		C121.3,933,121.3,921.6,121.3,910.2z"/>
	<path class="st1" d="M291.8,910.7c5.4,0,10.8,0,16.2,0c0,11.4,0,22.8,0,34.2c-5.4,0-10.8,0-16.2,0
		C291.8,933.4,291.8,922.1,291.8,910.7z"/>
	<path class="st1" d="M336.5,910.7c5.4-0.1,10.8,0,16.2,0c0,11.4,0,22.8,0,34.2c-5.4,0-10.8,0-16.2,0
		C336.5,933.5,336.6,922.1,336.5,910.7z"/>
	<path class="st1" d="M545.4,945.9c-0.1-11.4-0.1-22.8,0-34.2c5.4,0,10.8,0,16.2,0c0,11.4,0,22.7,0,34.1
		C556.1,945.9,550.8,945.9,545.4,945.9z"/>
	<path class="st1" d="M567.7,911.8c5.4,0,10.8,0,16.2,0c0,11.3,0,22.7,0,34.1c-5.4,0-10.8,0-16.2,0
		C567.7,934.6,567.7,923.2,567.7,911.8z"/>
	<path class="st1" d="M590.2,911.8c5.4,0.1,10.7,0,16.1,0c0,11.3,0,22.7,0,34.1c-5.5,0-10.9,0.1-16.3,0
		C590.1,934.5,589.6,923.1,590.2,911.8z"/>
	<path class="st1" d="M1660.5,927.3c5.4,0,10.8,0,16.2,0c0,11.4,0,22.7,0,34.1c-5.4,0-10.8,0-16.1,0
		C1660.5,950,1660.6,938.6,1660.5,927.3z"/>
	<path class="st1" d="M1711.7,927.2c5.4,0,10.8,0,16.2,0c-0.1,11.4,0,22.7,0,34.1c-5.4,0-10.8,0-16.2,0
		C1711.6,950,1711.6,938.6,1711.7,927.2z"/>
	<path class="st1" d="M1735.6,927.3c5.4,0,10.8,0,16.2,0c0,11.4,0,22.7,0,34.1c-5.4,0-10.8,0-16.2,0
		C1735.6,950,1735.6,938.6,1735.6,927.3z"/>
	<path class="st1" d="M1759.6,927.2c5.4,0,10.8,0,16.2,0c0,11.4,0,22.7,0,34.1c-5.4,0-10.8,0-16.2,0
		C1759.6,950,1759.5,938.6,1759.6,927.2z"/>
	<path class="st1" d="M1442.7,928.3c5.4-0.1,10.8,0,16.2,0c0,11.4,0,22.7,0,34.1c-5.4,0-10.8,0-16.2,0
		C1442.7,951,1442.8,939.7,1442.7,928.3z"/>
	<path class="st1" d="M1505.2,928.8c5.3,0,10.7,0,16.1,0c-0.1,11.4,0,22.8,0,34.1c-5.4,0-10.8,0-16.1,0
		C1505.2,951.5,1504.9,940.1,1505.2,928.8z"/>
	<path class="st1" d="M1530.6,928.8c5.4,0,10.8,0,16.2,0c0,11.4,0,22.8,0,34.1c-5.4,0-10.8,0-16.2,0
		C1530.6,951.5,1530.6,940.2,1530.6,928.8z"/>
	<path class="st1" d="M1554.6,928.8c5.4,0,10.8,0,16.1,0c0.1,11.4,0,22.8,0.1,34.2c-5.4,0-10.8,0-16.2,0
		C1554.6,951.5,1554.6,940.2,1554.6,928.8z"/>
	<path class="st1" d="M455.8,951.7c5.4,0,10.8,0,16.2,0c0,11.4,0,22.8,0,34.2c-5.4,0-10.8,0-16.1,0
		C455.8,974.5,455.8,963.1,455.8,951.7z"/>
	<path class="st1" d="M181,953.8c5.4,0,10.8,0,16.2,0c0,11.4,0,22.8,0,34.1c-5.4,0.1-10.8,0-16.2,0C181,976.5,181.1,965.2,181,953.8
		z"/>
	<path class="st1" d="M203.4,987.9c0-11.4-0.1-22.8,0.1-34.2c5.4,0.1,10.8,0,16.1,0c0,11.4,0,22.8,0,34.2
		C214.2,987.9,208.8,988,203.4,987.9z"/>
	<path class="st1" d="M225.7,953.8c5.4,0,10.8,0,16.2,0c0,11.4,0,22.8,0,34.2c-5.4,0-10.8,0.1-16.2,0
		C225.7,976.5,225.7,965.2,225.7,953.8z"/>
	<path class="st1" d="M76.7,954.9c5.4,0.1,10.8,0,16.2,0c0.1,11.4,0.1,22.8,0,34.2c-5.4-0.3-10.8-0.1-16.1-0.2
		C76.6,977.6,76.6,966.2,76.7,954.9z"/>
	<path class="st1" d="M1172.7,969.3c5.4,0,10.8,0,16.1,0c0,11.4,0,22.8,0,34.2c-5.4-0.1-10.8-0.1-16.2,0
		C1172.7,992,1172.7,980.7,1172.7,969.3z"/>
	<path class="st1" d="M1198.3,969.3c5.4-0.1,10.8,0,16.2,0c0,11.4,0,22.7,0,34.1c-5.4,0-10.8,0-16.1,0
		C1198.2,992.1,1198.3,980.7,1198.3,969.3z"/>
	<path class="st1" d="M1864.9,984.3c5.4-0.1,10.9-0.1,16.3,0c0,11.4-0.1,22.8,0,34.1c-5.4,0-10.7,0-16.1,0
		C1864.6,1007,1865.1,995.6,1864.9,984.3z"/>
	<path class="st1" d="M1890.6,984.2c5.4,0,10.8-0.1,16.2,0c-0.1,11.4,0.1,22.8-0.1,34.2c-5.4-0.1-10.8-0.1-16.1,0
		C1890.6,1007,1890.6,995.6,1890.6,984.2z"/>
	<path class="st1" d="M1505.1,987.8c5.4,0,10.7,0,16.1,0c0,11.4,0,22.9,0,34.3c-5.4-0.1-10.7,0-16.1,0
		C1504.9,1010.7,1505,999.3,1505.1,987.8z"/>
	<path class="st1" d="M1530.7,987.9c5.4,0,10.8,0,16.2,0c0,11.4,0.1,22.9,0,34.3c-5.4,0-10.8-0.1-16.1,0
		C1530.6,1010.7,1530.6,999.3,1530.7,987.9z"/>
	<path class="st1" d="M388.7,996.4c5.4-0.1,10.8,0,16.2,0c0,11.4,0,22.7,0,34.1c-5.4,0-10.8,0-16.2,0
		C388.7,1019.2,388.7,1007.8,388.7,996.4z"/>
	<path class="st1" d="M433.5,996.4c5.4,0,10.8,0,16.2,0c0,11.4,0,22.7,0,34.1c-5.4,0-10.8,0-16.2,0
		C433.5,1019.2,433.5,1007.8,433.5,996.4z"/>
	<path class="st1" d="M455.8,996.4c5.4,0,10.8,0,16.2,0c0,11.4,0,22.7,0,34.1c-5.4,0-10.8,0-16.2,0
		C455.8,1019.2,455.8,1007.8,455.8,996.4z"/>
	<path class="st1" d="M478.2,996.4c5.4,0,10.8,0,16.2,0c0,11.3,0,22.7,0,34.1c-5.4,0-10.8,0-16.2,0
		C478.3,1019.1,478.2,1007.8,478.2,996.4z"/>
	<path class="st1" d="M733.3,1000.2c5.4-0.1,10.8,0,16.2,0c0,11.3,0,22.7,0,34.1c-5.4,0-10.8-0.1-16.1,0
		C733.3,1022.9,733.3,1011.6,733.3,1000.2z"/>
	<path class="st1" d="M1172.7,1018.7c5.4,0,10.8,0,16.2,0c0,11.4,0,22.8,0,34.2c-5.4,0-10.8,0-16.2,0
		C1172.7,1041.5,1172.7,1030.1,1172.7,1018.7z"/>
	<path class="st1" d="M1247.8,1018.7c5.4,0,10.8,0,16.1,0c0.1,11.4-0.1,22.8,0,34.1c-5.4,0-10.8,0-16.1,0
		C1247.8,1041.5,1247.8,1030.1,1247.8,1018.7z"/>
	<path class="st1" d="M1660.5,1029.4c5.4,0,10.8,0,16.2,0c0,11.4,0,22.8,0,34.2c-5.4,0-10.8,0-16.2,0
		C1660.5,1052.2,1660.6,1040.8,1660.5,1029.4z"/>
	<path class="st1" d="M1711.6,1029.4c5.4,0,10.8,0,16.2,0c0,11.4,0,22.8,0,34.2c-5.4,0-10.8,0-16.2,0
		C1711.6,1052.2,1711.6,1040.8,1711.6,1029.4z"/>
	<path class="st1" d="M1735.6,1029.4c5.4,0,10.8,0,16.2,0c0,11.4,0,22.8,0,34.2c-5.4,0-10.8,0-16.2,0
		C1735.6,1052.2,1735.6,1040.8,1735.6,1029.4z"/>
	<path class="st1" d="M1759.6,1029.4c5.4,0,10.8,0,16.2,0c0,11.4,0,22.8,0,34.2c-5.4,0-10.8,0-16.2,0
		C1759.6,1052.2,1759.6,1040.8,1759.6,1029.4z"/>
	<path class="st1" d="M1442.7,1030.4c5.4,0,10.8,0,16.2,0c0,11.4,0.1,22.8,0,34.2c-5.4,0-10.8,0-16.1,0
		C1442.7,1053.2,1442.7,1041.8,1442.7,1030.4z"/>
	<path class="st1" d="M1466.7,1030.4c5.4,0,10.8,0,16.2,0c0,11.4,0,22.8,0,34.2c-5.4,0-10.8,0-16.2,0
		C1466.7,1053.2,1466.7,1041.8,1466.7,1030.4z"/>
	<path class="st1" d="M659.3,1051.3c5.4,0,10.8,0,16.2,0c0,11.4,0,22.8,0,34.2c-5.4,0-10.8,0-16.2,0
		C659.3,1074,659.3,1062.6,659.3,1051.3z"/>
	<path class="st1" d="M683.3,1051.2c5.4,0,10.8,0,16.2,0c0,11.4,0,22.8,0,34.2c-5.4,0-10.8,0-16.2,0
		C683.3,1074,683.3,1062.6,683.3,1051.2z"/>
	<path class="st1" d="M158.6,1055.9c5.4,0,10.8-0.1,16.2,0.1c0,11.4,0.1,22.8-0.1,34.2c-5.4,0-10.7-0.1-16.1,0
		C158.6,1078.8,158.6,1067.4,158.6,1055.9z"/>
	<path class="st1" d="M1321.3,1075.7c5.4,0,10.8,0,16.2,0c0,11.4,0,22.7,0,34.1c-5.4,0-10.8,0-16.2,0
		C1321.3,1098.5,1321.3,1087.1,1321.3,1075.7z"/>
	<path class="st1" d="M1346.8,1075.7c5.4,0,10.9,0,16.3,0c-0.2,11.4,0.2,22.7-0.2,34.1c-5.4,0-10.8,0-16.1,0
		C1346.9,1098.4,1346.8,1087.1,1346.8,1075.7z"/>
	<path class="st1" d="M1372.5,1109.8c0-11.4,0-22.7,0-34.1c5.4,0,10.8,0,16.2,0c0,11.4,0,22.7,0,34.1
		C1383.3,1109.8,1377.9,1109.9,1372.5,1109.8z"/>
	<path class="st1" d="M1396.4,1109.8c0-11.4,0-22.8,0-34.1c5.4,0,10.8,0,16.2,0c0.1,11.4,0,22.7,0,34.1
		C1407.2,1109.8,1401.8,1109.9,1396.4,1109.8z"/>
	<path class="st1" d="M1711.6,1091.6c5.4,0,10.8,0,16.2,0c0,11.4-0.1,22.8,0,34.2c-5.4,0-10.8,0-16.2,0
		C1711.6,1114.4,1711.6,1103,1711.6,1091.6z"/>
	<path class="st1" d="M847.3,1104.5c5.4,0,10.8,0,16.2,0c0,11.4,0,22.7,0,34.1c-5.4,0-10.8,0-16.2,0
		C847.3,1127.2,847.3,1115.9,847.3,1104.5z"/>
	<path class="st1" d="M898.4,1104.5c5.4,0,10.8,0,16.2,0c0,11.4,0,22.7,0,34.1c-5.4,0-10.8,0-16.2,0
		C898.4,1127.2,898.4,1115.9,898.4,1104.5z"/>
	<path class="st1" d="M946.3,1104.5c5.4,0,10.8,0,16.2,0c0,11.4,0,22.7,0,34.1c-5.4,0-10.8,0-16.2,0
		C946.3,1127.2,946.3,1115.9,946.3,1104.5z"/>
	<path class="st1" d="M291.8,1121.5c5.4-0.1,10.8,0,16.2,0c0,11.4,0,22.8,0,34.2c-5.4,0-10.8,0-16.2,0
		C291.8,1144.2,291.8,1132.8,291.8,1121.5z"/>
	<path class="st1" d="M1636.6,1144.4c5.4,0,10.8,0,16.2,0c0,11.4,0,22.8,0,34.2c-5.4,0-10.8,0-16.2,0
		C1636.6,1167.1,1636.6,1155.7,1636.6,1144.4z"/>
	<path class="st1" d="M1686.2,1144.3c5.4,0,10.8,0,16.2,0c0,11.4,0,22.8,0,34.2c-5.4,0-10.8,0-16.2,0
		C1686.1,1167.2,1686.1,1155.8,1686.2,1144.3z"/>
	<path class="st1" d="M1711.6,1144.4c5.4-0.1,10.8,0,16.2,0c0,11.4-0.1,22.8,0,34.2c-5.4,0.1-10.8,0-16.2,0
		C1711.6,1167.2,1711.6,1155.8,1711.6,1144.4z"/>
	<path class="st1" d="M1759.6,1144.3c5.4,0,10.8,0,16.2,0c-0.1,11.4,0,22.8,0,34.2c-5.4,0-10.8,0-16.2,0
		C1759.6,1167.1,1759.5,1155.7,1759.6,1144.3z"/>
	<path class="st1" d="M1807.5,1144.4c5.4,0,10.8,0,16.2,0c-0.1,11.4,0,22.8,0,34.2c-5.4,0-10.8,0-16.2,0
		C1807.5,1167.1,1807.5,1155.8,1807.5,1144.4z"/>
	<path class="st1" d="M1223.9,1144.9c5.3,0,10.7,0,16.1,0c0.4,11.3,0.1,22.7,0.2,34c-5.4,0.1-10.8,0-16.2,0
		C1223.8,1167.6,1223.8,1156.2,1223.9,1144.9z"/>
	<path class="st1" d="M1247.9,1144.9c5.4,0,10.7,0,16.1,0c0,11.4,0,22.7,0,34.1c-5.4,0-10.8,0-16.1,0
		C1247.8,1167.6,1247.8,1156.2,1247.9,1144.9z"/>
	<path class="st2" d="M1917.3,1199.3L1917.3,1199.3c0.5-20.4,0-40.8,0.1-61.2c0-261,0-522,0-783c-0.1-1.3-0.2-2.6-0.4-3.9
		c-4.6-0.8-9.3-0.3-13.9-0.3c-18.3,0-36.6,0-54.9,0c-0.3-21.5,0.3-43-0.3-64.4c-46.7,0.1-93.4,0-140.1,0c-14.7-0.2-29.4,0.4-44-0.1
		c-1-5.3-0.3-10.7-0.5-16.1c-2.7-0.3-5.9,0.3-8.3-1.1c-0.5-2.7-0.5-5.5-0.9-8.2c-7.3,0.2-14.6,0.2-21.8,0.2
		c-0.1,2.9-0.2,5.8-0.2,8.7c-2.8,0-5.7-0.1-8.5-0.1c-0.3,5.5-0.2,11.1-0.2,16.7c-4.2,0.1-8.5,0.1-12.7-0.1
		c-0.2,26.5,0.3,53-0.2,79.4c0.4,6.8,0.1,13.5,0.2,20.3c0,29.6,0.1,59.3,0,88.9c-9-0.1-18,0-27,0.1c-0.3-59.4,0.1-118.8,0-178.3
		c-0.1-22.5,0-44.9,0-67.4c-0.2-9.7-0.1-19.5,0-29.2c-18.6-0.5-37.3,0.4-55.9-0.4c-11.8,0.2-23.5-0.2-35.2,0.3
		c-0.1,7.1,0.1,14.3-0.1,21.4c0,18,0.3,36.1-0.1,54.1c0.4,13.1,0,26.2,0.2,39.4c-0.1,14.2,0.3,28.4-0.2,42.6
		c0.4,24.8,0.1,49.6,0.2,74.4c0,12.5,0.2,25.1-0.2,37.6c0.4,43.2,0,86.3,0.2,129.5c0.1,59.2-0.2,118.5,0.1,177.7
		c-6.8,0.8-13.6,0.3-20.4,0.4c-12.8,0.1-25.6-0.1-38.4,0.1c-0.5-7.4-0.2-14.9-0.2-22.3c0-134.2-0.2-268.3,0.1-402.5
		c-0.2-0.3-0.6-0.8-0.8-1.1c-0.3-0.2-0.8-0.5-1.1-0.7c-7.4,0.1-14.7,0.1-22.1,0.1c0-6.4,0-12.8,0-19.2c-11.6-0.2-23.2,0.1-34.8-0.1
		c-13,0.1-26.1,0.1-39.2,0c-1,0-2,0.1-2.9,0.1c0,6.4,0,12.7,0.1,19.1c-10.1,0.1-20.2,0.1-30.3,0.1c-0.2,11.5,0,23-0.1,34.6
		c0,46.8,0.2,93.5-0.1,140.2c0.3,53.6,0,107.1,0.1,160.7c-6.1,0-12.2,0-18.3,0c0-31.3,0-62.5,0-93.8c-6.8,0-13.7,0.1-20.5-0.1
		c-10.7,0.2-21.4,0.2-32.1,0c-13.2,0.2-26.4,0-39.6,0.1c-8.4,0-16.8,0-25.2,0c-0.1-11,0-21.9,0-32.9c-3.5,0-7,0-10.5,0
		c0,11,0,21.9,0,32.8c-3.7,0-7.4,0-11.1,0c0-36.2,0-72.5,0-108.7c-2.9,0-5.8,0-8.7,0c0-5.6,0-11.1,0-16.7c-10.9,0-21.9,0-32.8,0
		c-0.2,5.5-0.1,11,0,16.5c-36.5,0.4-73.1,0.2-109.6,0.2c0.3,59.1,0.2,118.3,0,177.4l-0.7,0c-5.1,0.1-10.2,0-15.2,0
		c0-71.5,0-143.1,0-214.6c0-21-0.1-42.1,0-63.1c-0.1-24.3-0.1-48.7,0-73c-0.1-21.7-0.1-43.3,0-65c-0.2-21.1,0-42.1-0.1-63.2
		c-6.1,0-12.2,0-18.3,0c0-10.2,0-20.3,0-30.5c-0.1-9.4,0.2-18.9-0.2-28.3c-2.2,0.2-4.5,0.2-6.7,0.3c0.1-8.7-0.1-17.4,0.2-26.1
		c-0.2-10.4-0.1-20.9-0.1-31.3c-6.1-0.1-12.2,0-18.3,0c0-5.6,0-11.2,0-16.8c0-5.3,0-10.5,0-15.8c-4.3,0-8.6,0-12.9,0
		c0-4.4,0.1-8.8,0.2-13.2c-0.3-6.8-0.1-13.6-0.2-20.3c-20,0.2-40-0.1-60,0.2c0,0.4-0.1,1.2-0.1,1.6c0,10.6,0.1,21.2,0.1,31.8
		c-4.3,0-8.6,0-12.8,0.1c0,3.7,0,7.4,0,11.2c-0.1,7.2,0,14.3,0,21.5c-6.1-0.1-12.2-0.1-18.3,0c0,9.8,0.1,19.5-0.1,29.3
		c0.2,8.4,0,16.9,0,25.3c0,0.7,0,2.1,0,2.8c-2.3,0-4.5,0.1-6.8,0.1c-0.1,8.6,0,17.2-0.1,25.9c0,10.6,0.4,21.3-0.2,31.9
		c5.8,1.4,11.8,1,17.7,1c39.3,0,78.7-0.1,118,0.1c-41.7,0.1-83.3,0-125,0.1c-9.1,0.8-18.1-1-27.2-0.2c-0.1,26.3,0.2,52.7,0,79
		c0.2,21.2,0.1,42.5,0.1,63.7c-0.1,24,0.1,48.1,0,72.2c0.1,19,0.1,38,0.1,57c-8.8,0-17.6,0-26.5,0c0,9.9,0,19.7,0,29.6
		c-15.1,0-30.3,0-45.4-0.1l0.1-0.5c-0.4-16,0.3-32.1-0.1-48.1c-3.6-0.1-7.3-0.1-10.9,0c0-3.1-0.1-6.2,0-9.2c0-14,0.1-28,0-41.9
		c-12.3,0.4-24.6-0.2-36.9,0.1c-24,0.2-47.9,0-71.9,0.1c0,19.9,0,39.9,0,59.8c-15.9,0-31.7,0-47.6-0.1c-12.3,0.2-24.6,0-36.9,0.1
		c-0.2,2.8-0.2,5.6-0.3,8.4c0.4,44.5,0,88.9,0.2,133.4c-13.6,0.5-27.2,0.1-40.8,0.1c0-6.3,0.1-12.5-0.1-18.8
		c-4.5-0.2-9-0.1-13.5-0.1c0,6.1,0.2,12.1-0.1,18.2l0,0.7c-10.3,0.3-20.6,0.1-30.9,0c0.1-14.5,0-29.1,0-43.6
		c-3.2-0.1-6.4-0.2-9.6-0.3c-10.6,0.3-21.3,0.1-31.9,0.2c-0.2-6,0.5-12.1-0.3-18.1c-0.7-0.2-2.2-0.5-2.9-0.7c0,6,0,11.9,0,17.9v0.9
		c-5.8,0-11.6,0.1-17.4,0l-0.8,0c-0.3-55-0.1-110,0-165c-0.2-16.2,0.4-32.3-0.2-48.5c-4.2,0.1-8.4,0-12.6-0.1
		c-19.3,0.4-38.6,0.2-57.9,0c-8,0.5-16,0.2-24,0c-8.4,0.5-16.8,0.1-25.1,0.1c-0.2,46.6,0.1,93.3-0.1,139.9
		c-11.2-0.1-22.5,0.1-33.7-0.1c-8.3,0.1-16.6,0.2-24.9-0.1c-11.8,0.5-23.5,0-35.3,0.2c-8.1,0.2-16.1,0-24.2,0
		c-0.5,39.2,0,78.3-0.2,117.5c-31.6,0-63.2,0-94.9,0c-0.5-23.6,0-47.2-0.2-70.8c0-54,0-108,0-162C32.5,352.7,16.3,353,0,353v849.7
		v5.4h473.6h44.1h33.5h52.3h45h68.1h131.9h269.2h78.7h87.8h40h78.2h42.4h1.7h470.8V1199.3z M844.3,169.4c-5.4,0-10.8,0-16.2,0
		c0-11.4,0-22.7,0-34.1c5.4-0.1,10.8-0.1,16.2,0C844.3,146.6,844.3,158,844.3,169.4z M850.7,113.5c-5.4,0-10.8,0-16.2,0
		c0-11.4,0-22.7,0-34.1c5.4,0,10.8,0,16.2,0C850.6,90.8,850.7,102.1,850.7,113.5z M868.3,169.3c-5.4,0-10.8,0-16.2,0
		c0-11.4,0-22.7,0-34.1c5.4,0,10.8-0.1,16.2,0.1C868.3,146.6,868.3,158,868.3,169.3z M883.4,24.9c-5.4,0-10.8,0-16.2,0
		c0-6.6,0-13.2,0-19.8c5.4,0,10.8,0,16.2,0C883.5,11.7,883.4,18.3,883.4,24.9z M904.2,24.9c-5.4,0-10.7,0-16.1,0
		c0-6.6,0-13.2,0-19.7c5.4,0,10.8,0,16.1,0C904.2,11.7,904.3,18.3,904.2,24.9z M938.6,169.3c-5.4,0-10.8,0-16.1,0
		c-0.1-11.4,0-22.8,0-34.1c5.4,0,10.8,0,16.2,0.1C938.5,146.6,938.6,158,938.6,169.3z M14.3,577.6c0-11.4,0-22.8,0-34.2
		c5.4,0,10.8,0,16.2,0c0,11.4,0,22.8,0,34.2C25.1,577.6,19.7,577.7,14.3,577.6z M14.4,458.8c5.4,0,10.8,0,16.1,0
		c0,11.4,0,22.7,0,34.1c-5.4,0-10.8,0-16.2,0C14.4,481.6,14.3,470.2,14.4,458.8z M30.5,446.7c-5.4,0-10.8,0-16.1,0
		c-0.1-11.4,0-22.8,0-34.2c5.4,0,10.8,0,16.2,0C30.5,423.9,30.5,435.3,30.5,446.7z M30.6,400.4c-5.4,0-10.8,0-16.2,0
		c0.1-11.4,0-22.8,0.1-34.2c5.4,0,10.8,0,16.2,0.1C30.5,377.7,30.5,389,30.6,400.4z M92.8,600.5c0,11.4,0,22.7,0,34.1
		c-5.4,0-10.8,0-16.2,0c0-11.4,0-22.7,0-34.1C82,600.5,87.4,600.5,92.8,600.5z M92.8,725.6c-5.4,0-10.8,0-16.2,0
		c0-11.3,0-22.7,0-34.1c5.4,0,10.8,0,16.2,0C92.9,702.8,92.8,714.2,92.8,725.6z M70.5,944.3c-5.4,0-10.9,0-16.3,0
		c0-11.4,0-22.7,0-34.1c5.4,0,10.9,0,16.3,0C70.5,921.6,70.5,932.9,70.5,944.3z M54.2,901.2c0-11.3,0-22.7,0-34
		c5.4-0.1,10.9,0,16.3,0c0,11.3,0,22.7,0,34.1C65.1,901.2,59.6,901.2,54.2,901.2z M54.3,858.1c-0.1-11.4-0.1-22.8,0-34.2
		c5.4,0,10.8,0,16.2,0c0,11.3,0,22.7,0,34C65.1,858.2,59.7,858.2,54.3,858.1z M54.2,814.9c0-11.3,0-22.7,0-34c5.4,0,10.8,0,16.3,0
		c0,11.3,0,22.7,0,34.1C65.1,814.9,59.6,814.9,54.2,814.9z M54.2,725.6c0-11.4,0-22.7,0-34.1c5.4,0,10.9,0,16.3,0
		c0,11.4,0,22.7,0,34.1C65.1,725.6,59.6,725.6,54.2,725.6z M54.2,679.3c0-11.4,0-22.8,0-34.2c5.4,0,10.8,0,16.3,0
		c0,11.4,0,22.8,0,34.2C65.1,679.3,59.6,679.3,54.2,679.3z M70.5,634.6c-5.4,0-10.8,0-16.3,0c0-11.4,0-22.7,0-34.1
		c5.4,0,10.9,0,16.3,0C70.5,611.8,70.5,623.2,70.5,634.6z M76.6,736.2c5.4,0,10.8,0,16.2,0c0,11.4,0,22.8,0,34.1
		c-5.4,0-10.8,0-16.2,0C76.7,759,76.7,747.6,76.6,736.2z M92.9,901.2c-5.4,0-10.8,0-16.2,0c0-11.3,0-22.7,0-34c5.4,0,10.8,0,16.2,0
		C92.9,878.5,92.8,889.8,92.9,901.2z M76.7,910.2c5.4,0,10.8,0,16.2,0c0,11.4,0,22.7,0,34.1c-5.4,0-10.8,0-16.2,0
		C76.7,933,76.6,921.6,76.7,910.2z M92.8,989.1c-5.4-0.3-10.8-0.1-16.1-0.2c0-11.4,0-22.7,0-34.1c5.4,0.1,10.8,0,16.2,0
		C92.9,966.3,92.9,977.7,92.8,989.1z M121.3,600.5c5.4,0,10.9,0,16.3,0c0,11.4,0,22.7,0,34.1c-5.4,0-10.9,0-16.3,0
		C121.3,623.2,121.3,611.8,121.3,600.5z M99,600.5c5.4,0,10.8,0,16.1,0c0.1,11.4,0,22.7,0,34.1c-5.4,0-10.7,0-16.1,0
		C98.9,623.2,99,611.8,99,600.5z M99,645.1c5.4,0,10.8,0,16.2,0c0,11.4,0,22.8,0,34.2c-5.4,0-10.8,0-16.2,0
		C99,667.9,99,656.5,99,645.1z M99,691.5c5.4,0,10.7,0,16.1,0c0,11.4,0,22.7,0,34.1c-5.4,0-10.8,0-16.1,0
		C98.9,714.2,98.9,702.8,99,691.5z M99,736.2c5.4,0,10.8,0,16.2,0c0,11.4,0,22.8,0,34.2c-5.4-0.1-10.8-0.1-16.2,0
		C99,758.9,99,747.6,99,736.2z M99,823.9c5.4,0,10.8,0,16.2,0c0,11.3,0,22.7,0,34c-5.4,0.3-10.8,0.3-16.2,0
		C99,846.6,99,835.3,99,823.9z M115.2,944.3c-5.4-0.1-10.8,0-16.2,0c0-11.3,0-22.7,0-34.1c5.4,0,10.8,0,16.2,0
		C115.1,921.6,115.2,933,115.2,944.3z M115.2,901.2c-5.4,0-10.8,0-16.2,0c0-11.3,0-22.7,0-34c5.4,0,10.8,0,16.2,0
		C115.1,878.5,115.2,889.8,115.2,901.2z M137.6,944.3c-5.4,0-10.8-0.1-16.2,0c-0.1-11.4,0-22.7,0-34.1c5.4,0,10.9,0,16.3,0
		C137.6,921.6,137.6,933,137.6,944.3z M121.3,691.5c5.4,0,10.9,0,16.3,0c0,11.4,0,22.7,0,34.1c-5.4,0-10.8,0-16.3,0
		C121.3,714.2,121.3,702.8,121.3,691.5z M137.6,679.3c-5.4,0-10.8-0.1-16.2,0c-0.1-11.4,0-22.8-0.1-34.2c5.4,0,10.9,0,16.3,0
		C137.6,656.5,137.6,667.9,137.6,679.3z M181.1,525.9c5.4,0,10.8,0,16.2,0c0,11.4,0,22.7,0,34.1c-5.4,0-10.8,0-16.2,0
		C181.1,548.6,181,537.3,181.1,525.9z M197.3,570.6c-0.1,11.4,0,22.8-0.1,34.2c-5.4,0-10.8-0.1-16.1,0c-0.1-11.4,0-22.8,0-34.2
		C186.4,570.6,191.8,570.6,197.3,570.6z M158.6,525.9c5.4,0,10.8,0,16.2,0c0.1,11.4,0,22.8,0,34.1c-5.4,0-10.8,0-16.2,0
		C158.6,548.7,158.6,537.3,158.6,525.9z M174.8,736.7c0.1,11.4,0,22.7,0,34.1c-5.4,0-10.8,0-16.2,0c0-11.4,0-22.7,0-34.1
		C164,736.7,169.4,736.7,174.8,736.7z M174.7,1090.2c-5.4,0-10.7-0.1-16.1,0c0-11.4,0-22.9,0-34.3c5.4,0,10.8-0.1,16.2,0.1
		C174.8,1067.4,174.9,1078.8,174.7,1090.2z M174.8,906.6c-5.4,0-10.8,0-16.2,0c0-11.4,0-22.8,0-34.2c5.4,0,10.8-0.1,16.2,0
		C174.8,883.7,174.8,895.2,174.8,906.6z M174.8,861.8c-5.4,0-10.8,0-16.2,0c0.1-11.4,0-22.7,0-34.1c5.4,0,10.7,0,16.1,0
		C174.9,839,174.8,850.4,174.8,861.8z M197.2,987.9c-5.4,0.1-10.8,0-16.2,0c-0.1-11.4,0-22.8-0.1-34.2c5.4,0,10.8,0,16.2,0
		C197.2,965.2,197.2,976.5,197.2,987.9z M197.2,817.2c-5.4,0-10.8,0-16.2,0c0-11.4,0-22.8,0-34.2c5.4,0,10.8,0,16.2,0
		C197.2,794.4,197.3,805.8,197.2,817.2z M181.1,770.8c0-11.4,0-22.7,0-34.1c5.4,0,10.8,0,16.2,0c0,11.3-0.1,22.7,0.1,34
		C191.9,770.8,186.5,770.8,181.1,770.8z M203.4,987.9c0-11.4-0.1-22.8,0.1-34.2c5.4,0.1,10.8,0,16.1,0c0,11.4,0,22.8,0,34.2
		C214.2,987.9,208.8,988,203.4,987.9z M203.4,736.7c5.4,0,10.8,0,16.1,0c0,11.4,0,22.7,0,34.1c-5.4,0-10.8,0-16.2,0
		C203.4,759.4,203.3,748,203.4,736.7z M219.6,906.5c-5.4,0-10.8,0-16.2,0c0-11.4,0-22.8,0-34.2c5.4,0,10.8,0,16.2,0
		C219.6,883.8,219.6,895.1,219.6,906.5z M203.4,827.7c5.4,0,10.8,0,16.2,0c0,11.4,0,22.7,0,34.1c-5.4,0-10.8,0-16.2,0
		C203.4,850.4,203.4,839,203.4,827.7z M203.4,817.1c0-11.4,0-22.8,0-34.2c5.4,0,10.8,0,16.2,0c0,11.4,0,22.8,0,34.2
		C214.2,817.2,208.8,817.2,203.4,817.1z M203.4,560c-0.1-11.4,0-22.7,0-34.1c5.4,0,10.8,0,16.2,0c0,11.3,0,22.7,0,34
		C214.2,560.1,208.8,560,203.4,560z M224.6,479.2c5.4,0,10.8,0,16.2,0c0,11.4,0.1,22.7,0,34.1c-5.4,0-10.8,0-16.2,0
		C224.6,501.9,224.7,490.5,224.6,479.2z M225.7,736.7c5.4,0,10.8,0,16.2,0c0,11.4,0,22.7,0,34.1c-5.4,0-10.8,0-16.2,0
		C225.7,759.4,225.7,748,225.7,736.7z M241.9,987.9c-5.4,0-10.8,0.1-16.2,0c0-11.4,0-22.8,0-34.2c5.4,0,10.8,0,16.2,0
		C241.9,965.1,241.9,976.5,241.9,987.9z M241.9,861.8c-5.4,0-10.8,0-16.2,0c0.1-11.4,0-22.7,0-34.1c5.4,0,10.8,0,16.2,0
		C241.9,839.1,241.9,850.4,241.9,861.8z M225.7,560c0.1-11.4,0-22.7,0-34.1c5.4,0,10.8,0,16.2,0c0,11.4,0,22.7,0,34.1
		C236.5,560,231.1,560,225.7,560z M308,391.8c0,11.4,0,22.8,0,34.1c-5.4,0-10.8,0-16.2,0c0-11.4,0-22.7,0-34.1
		C297.2,391.8,302.6,391.8,308,391.8z M307.9,1155.7c-5.4,0-10.8,0-16.2,0c0-11.4,0-22.8,0-34.1c5.4-0.1,10.8,0,16.2,0
		C308,1132.9,308,1144.3,307.9,1155.7z M291.8,944.8c0-11.4,0-22.8,0-34.2c5.4,0,10.8,0,16.2,0c0,11.4,0,22.8,0,34.2
		C302.6,944.8,297.2,944.8,291.8,944.8z M291.8,771.7c5.4,0,10.8,0,16.2,0c0,11.4,0,22.8,0,34.2c-5.4,0-10.8,0-16.2,0
		C291.7,794.5,291.8,783.1,291.8,771.7z M291.7,519.6c0-11.4,0-22.8,0-34.2c5.4,0,10.8,0,16.2,0c0,11.4,0,22.8,0,34.2
		C302.6,519.6,297.1,519.6,291.7,519.6z M292.4,474.4c-0.1-11.4,0-22.8-0.1-34.2c5.4,0,10.8,0,16.2,0c0,11.4,0,22.8,0,34.2
		C303.2,474.4,297.8,474.3,292.4,474.4z M336.6,391.8c5.4,0,10.8,0,16.1,0c0,11.4,0,22.7,0,34.1c-5.4,0-10.8,0-16.2,0
		C336.6,414.5,336.5,403.1,336.6,391.8z M352.7,485.4c0,11.4,0,22.8,0,34.2c-5.4,0-10.8,0-16.2,0c0-11.4,0-22.8,0-34.2
		C341.9,485.4,347.3,485.4,352.7,485.4z M314.2,391.8c5.4,0,10.8,0,16.2,0c0,11.4,0,22.7,0,34.1c-5.4,0-10.8,0.1-16.2,0
		C314.2,414.5,314.2,403.1,314.2,391.8z M314.2,485.4c5.4,0.1,10.8,0,16.2,0c0,11.4,0,22.8,0,34.2c-5.4,0-10.8,0-16.2,0
		C314.2,508.2,314.2,496.8,314.2,485.4z M314.2,668.6c5.4,0,10.8,0,16.2,0c0,11.3,0,22.7,0,34.1c-5.4,0-10.8,0-16.2,0
		C314.2,691.3,314.2,679.9,314.2,668.6z M330.4,805.9c-5.4,0-10.8,0-16.2,0c0-11.4,0-22.8,0-34.2c5.4,0,10.8,0,16.2,0
		C330.4,783.1,330.4,794.5,330.4,805.9z M330.8,474.4c-5.4-0.1-10.8-0.1-16.1,0c0-11.4,0-22.8,0-34.2c5.4,0,10.8,0,16.2,0
		C330.8,451.6,331,463,330.8,474.4z M331.8,378.6c-5.4,0-10.8,0-16.1,0c0.1-11.4,0-22.8,0-34.2c5.4,0,10.8,0,16.2,0
		C331.8,355.8,332,367.2,331.8,378.6z M336.6,771.8c5.4,0,10.8,0,16.2,0c0,11.4,0,22.8,0,34.2c-5.4,0-10.8,0-16.2,0
		C336.6,794.5,336.5,783.1,336.6,771.8z M352.7,944.8c-5.4,0-10.8,0-16.2,0c0-11.4,0-22.8,0-34.2c5.4-0.1,10.8,0,16.2,0
		C352.8,922,352.7,933.4,352.7,944.8z M354.4,378.6c-5.4,0-10.8,0-16.1,0c-0.1-11.4,0-22.8,0-34.2c5.4,0,10.8-0.1,16.2,0
		C354.4,355.8,354.4,367.2,354.4,378.6z M433.5,715.4c5.4,0,10.8,0,16.2,0c0,11.4,0,22.7,0,34.1c-5.4,0-10.8,0-16.1,0
		C433.4,738.2,433.5,726.8,433.5,715.4z M411.1,670.6c5.4,0,10.8,0.1,16.2,0c0,11.4,0,22.7,0,34.1c-5.4,0.1-10.8,0-16.2,0
		C411.1,693.4,411.1,682,411.1,670.6z M388.7,1030.5c0-11.4,0-22.7,0-34.1c5.4-0.1,10.8,0,16.2,0c0,11.4,0,22.7,0,34.1
		C399.5,1030.5,394.1,1030.5,388.7,1030.5z M404.9,634.6c-5.4,0-10.8,0-16.2,0c0-11.4,0-22.7,0-34.1c5.4,0,10.8,0,16.2,0
		C404.9,611.8,404.9,623.2,404.9,634.6z M427.3,858.2c-5.4,0-10.8,0-16.1,0c-0.1-11.4,0-22.8,0-34.2c5.4,0,10.8,0,16.2,0
		C427.3,835.4,427.3,846.8,427.3,858.2z M427.3,749.5c-5.4,0-10.8,0-16.2,0c0-11.4,0-22.7,0-34.1c5.4,0,10.8,0,16.2,0
		C427.3,726.8,427.3,738.2,427.3,749.5z M411.1,634.6c0-11.4,0-22.7,0-34.1c5.4,0,10.8,0,16.2,0c0,11.4,0,22.7,0,34.1
		C421.9,634.6,416.5,634.6,411.1,634.6z M433.5,823.9c5.4,0.1,10.8,0,16.1,0.1c0,11.3,0,22.7,0,34c-5.4,0.3-10.8,0.2-16.2,0
		C433.5,846.6,433.4,835.3,433.5,823.9z M449.6,1030.5c-5.4,0-10.8,0-16.2,0c0-11.4,0-22.7,0-34.1c5.4,0,10.8,0,16.2,0
		C449.6,1007.8,449.7,1019.1,449.6,1030.5z M449.6,634.6c-5.4-0.1-10.8,0-16.2,0c0-11.4,0-22.8,0-34.1c5.4,0,10.8,0,16.2,0
		C449.6,611.8,449.7,623.2,449.6,634.6z M472,1030.5c-5.4,0-10.8,0-16.2,0c0-11.4,0-22.7,0-34.1c5.4,0,10.8,0,16.2,0
		C472,1007.8,472,1019.1,472,1030.5z M472,985.8c-5.4,0-10.8,0-16.1,0c0-11.4,0-22.8,0-34.2c5.4,0,10.8,0,16.2,0
		C472,963.1,472,974.5,472,985.8z M471.9,858.1c-5.4,0-10.8,0-16.1,0c0-11.4,0-22.8,0-34.2c5.4,0,10.8,0,16.1,0
		C471.9,835.4,472,846.7,471.9,858.1z M472,749.5c-5.4,0-10.8,0-16.2,0c0-11.4,0-22.7,0-34.1c5.4-0.1,10.8,0,16.2,0
		C472,726.8,471.9,738.2,472,749.5z M472,704.8c-5.4,0-10.8,0-16.2,0c0-11.4,0-22.7,0-34.1c5.4,0,10.8,0,16.2,0
		C472,682.1,472,693.4,472,704.8z M471.9,634.6c-5.4,0-10.8,0-16.2,0c0-11.4,0-22.7,0-34.1c5.4,0,10.8,0,16.2,0
		C471.9,611.8,472,623.2,471.9,634.6z M478.2,1030.5c0-11.4,0-22.7,0-34.1c5.4,0,10.8,0,16.2,0c0,11.3,0,22.7,0,34.1
		C489,1030.5,483.6,1030.5,478.2,1030.5z M478.3,823.9c5.4,0,10.8,0,16.2,0c0,11.4,0,22.8,0,34.2c-5.4-0.1-10.8,0.1-16.2-0.2
		C478.2,846.6,478.2,835.3,478.3,823.9z M494.4,634.6c-5.4,0-10.8,0-16.2,0c0-11.4,0-22.7,0-34.1c5.4,0,10.8,0,16.2,0
		C494.4,611.8,494.4,623.2,494.4,634.6z M500.6,704.8c0-11.4,0-22.7,0-34.1c5.4,0,10.8,0,16.2,0c0.1,11.4,0,22.8,0,34.1
		C511.4,704.8,506,704.8,500.6,704.8z M516.8,634.6c-5.4,0-10.8,0-16.2,0c0-11.4,0-22.7,0-34.1c5.4,0,10.8,0,16.2,0
		C516.7,611.8,516.8,623.2,516.8,634.6z M561.5,945.9c-5.4,0-10.8,0-16.2,0c-0.1-11.4-0.1-22.8,0-34.2c5.4,0,10.8,0,16.2,0
		C561.5,923.2,561.5,934.5,561.5,945.9z M545.4,546.2c5.4,0,10.8,0,16.2,0c0,11.3,0,22.7,0,34c-5.4,0-10.8,0-16.2,0
		C545.3,568.9,545.3,557.6,545.4,546.2z M545.4,489.2c-0.1-11.4,0-22.7,0-34.1c5.4,0,10.8,0,16.2,0c0,11.4,0,22.7,0,34.1
		C556.1,489.2,550.8,489.2,545.4,489.2z M583.9,945.9c-5.4,0-10.8,0-16.2,0c0-11.4,0-22.8,0-34.1c5.4,0,10.8,0,16.2,0
		C583.9,923.2,583.9,934.6,583.9,945.9z M567.7,822.9c0-11.4,0-22.8,0-34.1c5.4,0,10.8,0,16.2,0c0,11.4,0,22.8,0,34.1
		C578.5,822.9,573.1,823,567.7,822.9z M567.7,752.7c0-11.4,0-22.8,0-34.1c5.4,0,10.8,0,16.2,0c0,11.4,0,22.7,0,34.1
		C578.5,752.7,573.1,752.7,567.7,752.7z M583.9,489.2c-5.4,0-10.8,0-16.2,0c0-11.4,0-22.7,0-34.1c5.4,0,10.8,0,16.2,0
		C583.9,466.5,583.9,477.9,583.9,489.2z M589.9,945.9c0.1-11.3-0.3-22.7,0.2-34.1c5.4,0.1,10.7,0,16.1,0c0,11.3,0,22.7,0,34.1
		C600.8,945.9,595.4,946,589.9,945.9z M606.2,822.9c-5.4,0-10.9,0.1-16.3,0c0.1-11.3-0.1-22.7,0.1-34c5.4,0,10.8,0,16.2,0
		C606.2,800.2,606.2,811.6,606.2,822.9z M606.2,580.3c-5.4,0-10.9,0-16.3,0c0-11.3,0-22.7,0-34c5.5-0.1,10.9-0.1,16.3,0
		C606.2,557.6,606.3,568.9,606.2,580.3z M590.2,489.3c-0.7-11.3-0.2-22.7-0.3-34.1c5.4-0.1,10.9-0.1,16.3,0c0,11.3,0,22.7,0,34.1
		C600.9,489.3,595.6,489.2,590.2,489.3z M683.3,593c5.4-0.1,10.8,0,16.2,0c0,11.4,0,22.7,0,34.1c-5.4,0-10.8,0-16.2,0
		C683.3,615.7,683.3,604.4,683.3,593z M675.5,398.2c0,11.4,0,22.8,0,34.1c-5.4,0-10.8,0-16.2,0c0-11.4,0-22.8,0-34.2
		C664.7,398.2,670.1,398.2,675.5,398.2z M675.5,593c0,11.4,0,22.7,0,34.1c-5.4,0-10.8,0-16.2,0c0-11.3,0-22.7,0-34
		C664.7,592.9,670.1,593,675.5,593z M636.9,593c5.4,0,10.8,0,16.2,0c0,11.4,0,22.7,0,34.1c-5.4,0-10.8,0-16.2-0.1
		C636.9,615.7,636.9,604.3,636.9,593z M653.1,823.5c-5.4,0-10.8,0-16.2,0c0-11.4,0-22.8,0-34.1c5.4,0,10.8,0,16.2,0
		C653.1,800.7,653.1,812.1,653.1,823.5z M675.5,1085.4c-5.4,0-10.8,0-16.2,0c0-11.4,0-22.8,0-34.1c5.4,0,10.8,0,16.2,0
		C675.5,1062.6,675.5,1074,675.5,1085.4z M675.5,823.5c-5.4,0-10.8,0-16.2,0c0-11.4,0-22.8,0-34.1c5.4,0,10.8,0,16.2,0
		C675.5,800.8,675.5,812.1,675.5,823.5z M675.5,700.6c-5.4,0-10.8,0-16.2,0c0-11.4,0-22.8,0-34.2c5.4,0,10.8,0,16.2,0
		C675.5,677.8,675.5,689.2,675.5,700.6z M699.5,1085.4c-5.4,0-10.8,0-16.2,0c0-11.4,0-22.8,0-34.1c5.4,0,10.8,0,16.2,0
		C699.5,1062.6,699.5,1074,699.5,1085.4z M699.5,823.5c-5.4,0-10.8,0-16.1,0c-0.1-11.4,0-22.8,0-34.2c5.4,0,10.8,0,16.2,0
		C699.5,800.8,699.5,812.1,699.5,823.5z M749.5,1034.3c-5.4,0-10.8-0.1-16.1,0c-0.1-11.4,0-22.7,0-34.1c5.4-0.1,10.8,0,16.2,0
		C749.5,1011.6,749.5,1022.9,749.5,1034.3z M749.5,528.2c-5.3-0.1-10.7,0.1-16-0.1c-0.2-11.4-0.1-22.8,0-34.2c5.4,0,10.7,0,16.1,0
		C749.5,505.3,749.5,516.8,749.5,528.2z M757.4,493.9c5.4,0.1,10.7,0,16.1,0c0,11.4,0,22.9,0,34.3c-5.4,0-10.7,0-16.1,0
		C757.2,516.8,757.3,505.3,757.4,493.9z M757.3,885.7c0-11.4,0-22.7,0-34.1c5.4,0,10.8,0,16.1,0c0,11.4,0,22.7,0,34.1
		C768.1,885.8,762.7,885.8,757.3,885.7z M773.5,657.5c-5.4,0-10.8,0-16.2,0c0-11.4,0-22.8,0-34.2c5.4,0,10.8,0,16.2,0
		C773.5,634.7,773.5,646.1,773.5,657.5z M781.4,493.9c5.4,0.1,10.7,0,16.1,0c0,11.4,0,22.9,0,34.3c-5.4,0-10.8,0-16.2,0
		C781.3,516.8,781.2,505.3,781.4,493.9z M781.3,885.7c0-11.4,0-22.7,0-34.1c5.4,0,10.8,0,16.2,0c0,11.4,0,22.7,0,34.1
		C792.1,885.8,786.7,885.8,781.3,885.7z M847.3,195.9c5.4,0.1,10.8,0,16.2,0c0,11.4,0,22.8,0,34.2c-5.4,0-10.8,0-16.2,0
		C847.3,218.7,847.3,207.3,847.3,195.9z M823.4,195.8c5.4,0.1,10.8,0,16.2,0c0,11.4,0,22.8,0,34.2c-5.4,0-10.8,0-16.2,0
		C823.3,218.7,823.3,207.2,823.4,195.8z M823.3,298.2c5.4,0,10.8,0,16.2,0c-0.1,11.4,0,22.7,0,34c-5.4,0-10.8,0-16.2,0
		C823.3,320.9,823.4,309.5,823.3,298.2z M823.4,417.8c5.4,0.1,10.8,0,16.2,0.1c-0.1,11.3-0.1,22.7,0,34.1c-5.4,0-10.8,0-16.2,0
		C823.4,440.6,823.3,429.2,823.4,417.8z M839.6,662.2c0,11.4,0,22.8,0,34.1c-5.4,0-10.8,0-16.2,0c0-11.4,0-22.8,0-34.2
		C828.7,662.2,834.2,662.2,839.6,662.2z M839.6,937.4c-5.4,0-10.8,0-16.2,0c-0.1-11.4,0-22.7,0-34.1c5.4,0,10.8,0,16.2,0
		C839.5,914.7,839.5,926,839.6,937.4z M863.5,1138.6c-5.4,0-10.8,0-16.2,0c0-11.4,0-22.7,0-34.1c5.4,0,10.8,0,16.2,0
		C863.5,1115.9,863.5,1127.2,863.5,1138.6z M863.5,937.4c-5.4,0-10.8,0-16.2,0c-0.1-11.4,0-22.7,0-34.1c5.4,0,10.8,0,16.2,0
		C863.5,914.7,863.5,926,863.5,937.4z M863.5,451.9c-5.4,0-10.8,0.1-16.2,0c0-11.4-0.1-22.7,0.1-34.1c5.4,0.1,10.8,0,16.2,0
		C863.5,429.2,863.5,440.6,863.5,451.9z M946.4,195.8c5.4,0.1,10.8,0,16.2,0c0,11.4,0,22.8,0,34.2c-5.4,0-10.8,0-16.2,0
		C946.4,218.7,946.3,207.2,946.4,195.8z M938.6,820.9c-5.4,0-10.8,0-16.2,0c0-11.4-0.1-22.8,0-34.3c5.4,0.1,10.8,0,16.2,0
		C938.6,798.1,938.5,809.5,938.6,820.9z M938.6,696.4c-5.4,0-10.8,0-16.2,0c-0.1-11.4,0-22.8,0-34.2c5.4-0.1,10.8,0,16.2,0
		C938.5,673.6,938.6,685,938.6,696.4z M888.9,662.2c0,11.4,0,22.8,0,34.2c-5.4-0.1-10.8,0-16.1,0c0-11.4,0-22.8,0-34.1
		C878.2,662.2,883.5,662.2,888.9,662.2z M888.9,937.4c-5.4-0.1-10.8,0-16.2,0c0.1-11.4,0-22.7,0-34.1c5.4,0,10.8,0,16.1,0
		C888.9,914.7,889,926.1,888.9,937.4z M898.4,195.9c5.4,0,10.8,0,16.1,0c0,11.4,0,22.8,0,34.2c-5.4,0-10.8,0.1-16.2-0.1
		C898.4,218.6,898.4,207.2,898.4,195.9z M914.6,332.2c-5.4,0-10.7,0-16.1,0c-0.1-11.4,0-22.7,0-34c5.4,0,10.8,0,16.2,0
		C914.6,309.5,914.7,320.9,914.6,332.2z M914.6,451.9c-5.4,0.1-10.8,0-16.2,0c0-11.4,0-22.7,0-34.1c5.4,0,10.8,0.1,16.2,0
		C914.6,429.2,914.6,440.6,914.6,451.9z M898.4,1138.6c-0.1-11.4,0-22.8,0-34.1c5.4,0,10.8,0,16.2,0c0,11.4,0,22.7,0,34.1
		C909.2,1138.6,903.8,1138.6,898.4,1138.6z M914.6,937.4c-5.4,0-10.8,0-16.2,0c0-11.4,0-22.7,0-34.1c5.4,0,10.8,0,16.2,0
		C914.6,914.7,914.6,926,914.6,937.4z M914.6,565.4c-5.4,0-10.8,0-16.2,0c0-11.4,0-22.8,0-34.2c5.4,0,10.8,0,16.2,0
		C914.6,542.6,914.6,554,914.6,565.4z M922.4,195.9c5.4,0,10.8,0,16.1,0c0,11.4,0,22.8,0,34.2c-5.4,0-10.8,0-16.2,0
		C922.4,218.6,922.3,207.3,922.4,195.9z M938.6,937.4c-5.4,0-10.8,0-16.2,0c-0.1-11.3,0-22.7,0-34.1c5.4-0.1,10.8,0,16.2,0
		C938.5,914.7,938.6,926,938.6,937.4z M962.5,1138.6c-5.4,0-10.8,0-16.2,0c0-11.4,0-22.7,0-34.1c5.4,0,10.8,0,16.2,0
		C962.5,1115.9,962.5,1127.2,962.5,1138.6z M962.5,937.4c-5.4,0-10.8,0-16.2,0c-0.1-11.4,0-22.7,0-34.1c5.4,0,10.8,0,16.2,0
		C962.5,914.7,962.5,926,962.5,937.4z M962.5,662.2c0,11.4,0,22.8,0,34.2c-5.4,0-10.8,0-16.2,0c-0.1-11.4,0-22.8,0-34.1
		C951.7,662.1,957.1,662.2,962.5,662.2z M946.4,417.8c5.4,0.1,10.8,0,16.1,0c0,11.4,0,22.7,0,34.1c-5.4,0-10.8,0-16.2,0
		C946.4,440.6,946.3,429.2,946.4,417.8z M962.5,332.2c-5.4-0.1-10.7,0.1-16.1-0.1c-0.2-11.3,0-22.6-0.1-33.9c5.4,0,10.8,0,16.2,0
		C962.5,309.5,962.6,320.9,962.5,332.2z M1025.4,654.8c-5.4,0-10.8,0-16.2,0c-0.1-11.3,0-22.7,0-34c5.4-0.1,10.8,0,16.2,0
		C1025.4,632.1,1025.4,643.4,1025.4,654.8z M1025.4,523.8c-5.4,0-10.8,0-16.2,0c0-11.4,0-22.8,0-34.2c5.4,0.1,10.8,0.1,16.2,0
		C1025.4,501.1,1025.4,512.4,1025.4,523.8z M1052.6,873.6c-5.4,0-10.8,0-16.2,0c0-11.4,0-22.8,0-34.2c5.4,0,10.8,0,16.2,0
		C1052.5,850.8,1052.6,862.2,1052.6,873.6z M1052.6,592.5c-5.4,0-10.8,0-16.2,0c-0.1-11.4,0-22.8,0-34.1c5.4,0,10.8,0,16.2,0
		C1052.5,569.8,1052.6,581.1,1052.6,592.5z M1063.5,489.7c5.4,0,10.8,0,16.1,0c0.1,11.4,0,22.7,0.1,34.1c-5.4,0-10.8,0-16.2,0
		C1063.5,512.4,1063.5,501.1,1063.5,489.7z M1063.5,873.6c0-11.4,0-22.8,0-34.2c5.4,0,10.8,0,16.2,0c0,11.4,0,22.8,0,34.2
		C1074.3,873.6,1068.9,873.6,1063.5,873.6z M1103.7,873.6c-5.4,0-10.8,0-16.2,0c0-11.4,0-22.8,0-34.2c5.4,0,10.8,0,16.2,0
		C1103.7,850.8,1103.6,862.2,1103.7,873.6z M1087.5,523.8c0-11.4-0.1-22.7,0-34.1c5.4,0,10.8,0,16.2,0c0,11.4,0,22.7,0,34.1
		C1098.3,523.8,1092.9,523.8,1087.5,523.8z M1111.4,654.8c0-11.4,0-22.7,0-34.1c5.4,0,10.8,0,16.2,0c0,11.4,0,22.7,0,34.1
		C1122.2,654.8,1116.8,654.8,1111.4,654.8z M1111.4,523.8c0-11.4-0.1-22.7,0-34.1c5.4,0.1,10.8,0,16.2,0c0,11.4,0,22.7,0,34.1
		C1122.2,523.8,1116.8,523.8,1111.4,523.8z M1172.7,651.5c5.4,0,10.8,0,16.2,0c0,11.4,0,22.7,0,34.1c-5.4,0-10.8,0-16.2,0
		C1172.7,674.3,1172.7,662.9,1172.7,651.5z M1188.8,1052.9c-5.4,0-10.8,0-16.2,0c0-11.4,0-22.8,0-34.2c5.4,0,10.8,0,16.2,0
		C1188.8,1030.1,1188.8,1041.5,1188.8,1052.9z M1172.7,1003.4c0-11.4,0-22.8,0-34.1c5.4,0,10.8,0,16.1,0c0,11.4,0,22.8,0,34.2
		C1183.4,1003.4,1178.1,1003.4,1172.7,1003.4z M1188.8,926.7c-5.4,0-10.8,0-16.2,0c0-11.4,0-22.7,0-34.1c5.4,0,10.8,0,16.2,0
		C1188.8,904,1188.8,915.4,1188.8,926.7z M1240.1,651.5c0,11.4,0.1,22.7-0.1,34.1c-5.4,0-10.8,0-16.1,0c-0.1-11.4,0-22.7,0-34.1
		C1229.3,651.5,1234.7,651.5,1240.1,651.5z M1214.5,1003.4c-5.4,0-10.8,0-16.1,0c-0.1-11.4,0-22.7-0.1-34.1c5.4-0.1,10.8,0,16.2,0
		C1214.5,980.7,1214.5,992,1214.5,1003.4z M1198.3,926.7c0-11.3,0-22.7,0-34c5.4-0.1,10.8,0,16.2,0c0,11.3,0,22.7,0,34.1
		C1209.1,926.8,1203.7,926.8,1198.3,926.7z M1214.5,816.6c-5.4,0-10.8,0-16.2,0c0-11.4,0-22.7,0-34.1c5.4,0,10.8,0,16.2,0
		C1214.5,793.9,1214.5,805.2,1214.5,816.6z M1198.3,766.9c0.1-11.3,0-22.7,0-34c5.4,0,10.8,0,16.1,0c0,11.3,0,22.7,0,34
		C1209.1,767.2,1203.7,767.2,1198.3,766.9z M1198.3,685.6c0-11.4,0-22.8,0-34.1c5.4,0,10.8,0,16.2,0c0,11.4,0,22.7,0,34.1
		C1209.1,685.6,1203.7,685.6,1198.3,685.6z M1240.1,1178.9c-5.4,0.1-10.8,0-16.2,0c0-11.4,0-22.7,0-34.1c5.3,0,10.7,0,16.1,0
		C1240.4,1156.2,1240,1167.6,1240.1,1178.9z M1240.1,969.3c0,11.3,0,22.7,0,34c-5.4,0-10.8,0-16.3,0c0-11.4,0-22.7,0-34.1
		C1229.3,969.3,1234.7,969.3,1240.1,969.3z M1223.9,926.8c0-11.4,0-22.7,0-34.1c5.4,0,10.8,0,16.3,0c0,11.3,0,22.7,0,34.1
		C1234.7,926.8,1229.3,926.7,1223.9,926.8z M1240.1,1018.8c0,11.4,0,22.7,0,34.1c-5.4,0.1-10.8,0-16.3,0c0-11.4,0-22.8,0-34.2
		C1229.3,1018.7,1234.7,1018.7,1240.1,1018.8z M1240,816.6c-5.4,0-10.8,0-16.1,0c0-11.4,0-22.7,0-34.1c5.4,0,10.8,0,16.1,0
		C1240.2,793.9,1240.2,805.2,1240,816.6z M1247.8,651.5c5.4,0,10.8,0,16.1,0c0,11.4,0,22.7,0,34.1c-5.4,0-10.7,0-16.1,0
		C1247.8,674.3,1247.9,662.9,1247.8,651.5z M1247.8,892.7c5.4,0,10.7,0,16.1,0c0,11.4,0,22.7,0,34.1c-5.4,0-10.8,0-16.1,0
		C1247.8,915.4,1247.8,904,1247.8,892.7z M1247.8,782.5c5.4,0,10.7,0,16.1,0c0,11.4,0,22.8,0,34.1c-5.4,0-10.7,0-16.1,0
		C1247.8,805.2,1247.8,793.9,1247.8,782.5z M1263.9,767.1c-5.4,0-10.7,0.1-16.1-0.1c-0.1-11.4,0-22.7,0-34.1c5.4,0,10.7,0,16.1,0
		C1264,744.3,1264,755.7,1263.9,767.1z M1247.8,1178.9c0-11.4,0-22.7,0-34.1c5.4,0,10.7,0,16.1,0c0,11.4,0,22.7,0,34.1
		C1258.6,1178.9,1253.2,1179,1247.8,1178.9z M1264,1052.9c-5.4,0-10.8,0-16.1,0c0-11.4,0-22.8,0-34.2c5.4,0,10.8,0,16.1,0
		C1264.1,1030.1,1263.9,1041.5,1264,1052.9z M1249.4,638.9c0-11.4,0-22.8,0.1-34.2c5.4,0,10.8,0,16.1,0c0,11.4,0,22.8,0,34.2
		C1260.2,638.9,1254.8,638.9,1249.4,638.9z M1396.4,368.3c5.4,0,10.8,0,16.2,0c0,11.4,0,22.8,0,34.2c-5.4,0-10.8,0-16.2,0
		C1396.4,391.1,1396.4,379.7,1396.4,368.3z M1346.8,368.4c5.4,0,10.8-0.1,16.2,0c0.2,11.4,0,22.7,0.1,34.1c-5.5,0.1-10.9,0-16.3,0
		C1346.9,391.1,1346.8,379.7,1346.8,368.4z M1362.9,414.7c0.5,11.4,0.1,22.7,0.2,34.1c-5.4,0.1-10.9,0-16.3,0.1
		c0-11.4,0-22.7,0-34.1C1352.2,414.7,1357.6,414.7,1362.9,414.7z M1346.8,492.9c5.4,0,10.9,0,16.3,0c0,11.4-0.1,22.7,0,34.1
		c-5.5,0.1-10.9,0.1-16.4,0C1346.9,515.6,1346.8,504.3,1346.8,492.9z M1346.8,604.7c5.4,0,10.9,0,16.3,0
		c-0.1,11.4,0.1,22.7-0.1,34.1c-5.4,0.1-10.8,0.1-16.2,0C1346.9,627.5,1346.8,616.1,1346.8,604.7z M1337.5,1109.9
		c-5.4,0-10.8,0-16.2,0c0-11.4,0-22.7,0-34.1c5.4,0,10.8,0,16.2,0C1337.5,1087.1,1337.5,1098.5,1337.5,1109.9z M1337.5,638.9
		c-5.4,0-10.8,0-16.2,0c-0.1-11.4,0-22.8,0-34.2c5.4,0,10.8,0,16.2,0C1337.5,616.1,1337.5,627.5,1337.5,638.9z M1337.5,402.5
		c-5.4,0-10.8,0-16.2,0c-0.1-11.4,0-22.8,0-34.2c5.4,0,10.8,0,16.2,0C1337.4,379.7,1337.5,391.1,1337.5,402.5z M1346.8,692.6
		c5.4,0,10.7,0,16.1,0c0.4,11.3,0.2,22.7,0.1,34.1c-5.4,0.1-10.8,0.1-16.3,0C1346.9,715.2,1346.8,703.9,1346.8,692.6z
		 M1362.9,1109.8c-5.4,0-10.8,0-16.1,0c0-11.4,0-22.7,0-34.1c5.4,0,10.9,0,16.3,0C1363,1087.1,1363.4,1098.5,1362.9,1109.8z
		 M1362.9,924.7c-5.4-0.1-10.7,0-16.1,0c0-11.4,0-22.8,0-34.1c5.4-0.1,10.7,0,16.1,0C1363.3,901.9,1363.3,913.3,1362.9,924.7z
		 M1362.8,867.3c-5.4-0.1-10.7-0.1-16,0c0-11.4,0-22.9,0-34.3c5.4,0.1,10.9-0.2,16.4,0.3C1362.9,844.6,1363.5,855.9,1362.8,867.3z
		 M1388.7,1109.8c-5.4,0-10.8,0-16.2,0c0-11.4,0-22.7,0-34.1c5.4,0,10.8,0,16.2,0C1388.7,1087.1,1388.6,1098.4,1388.7,1109.8z
		 M1388.6,924.7c-5.4,0-10.8,0-16.2,0c0-11.4,0-22.8,0-34.2c5.4,0,10.8,0,16.2,0C1388.6,901.9,1388.7,913.3,1388.6,924.7z
		 M1372.5,638.8c0-11.4,0-22.8,0-34.2c5.4,0,10.8,0,16.2,0c0.1,11.4,0,22.8,0,34.2C1383.3,638.9,1377.9,638.9,1372.5,638.8z
		 M1388.7,527c-5.4,0.1-10.8,0.1-16.2,0c0.1-11.4,0-22.7,0-34.1c5.4-0.1,10.8-0.1,16.2,0C1388.6,504.3,1388.6,515.7,1388.7,527z
		 M1388.7,402.5c-5.4,0-10.8,0-16.2,0c0-11.4,0-22.8,0-34.2c5.4,0,10.8,0,16.2,0C1388.6,379.7,1388.7,391.1,1388.7,402.5z
		 M1412.6,1109.8c-5.4,0-10.8,0-16.2,0c0-11.4,0-22.8,0-34.1c5.4,0,10.8,0,16.2,0C1412.7,1087.1,1412.6,1098.5,1412.6,1109.8z
		 M1396.4,924.7c0-11.4,0-22.8,0-34.2c5.4,0,10.8,0,16.2,0c0,11.4,0,22.8,0,34.2C1407.2,924.6,1401.8,924.7,1396.4,924.7z
		 M1412.6,867.2c-5.4-0.1-10.8,0-16.1,0c0-11.4,0-22.8,0-34.2c5.4-0.1,10.8-0.1,16.2,0C1412.6,844.4,1412.7,855.8,1412.6,867.2z
		 M1396.4,604.7c5.4,0,10.8,0,16.2,0c0,11.4,0,22.8,0,34.2c-5.4,0-10.8,0-16.2,0C1396.4,627.5,1396.4,616.1,1396.4,604.7z
		 M1396.4,527c0-11.4,0-22.7,0-34.1c5.4-0.1,10.8,0,16.2,0c0,11.4,0,22.8,0,34.1C1407.2,527.1,1401.8,527.1,1396.4,527z
		 M1458.9,928.3c0,11.4,0,22.7,0,34.1c-5.4,0-10.8,0-16.2,0c0-11.4,0-22.7,0-34.1C1448.1,928.3,1453.5,928.3,1458.9,928.3z
		 M1458.9,1064.6c-5.4,0-10.8,0-16.1,0c0-11.4,0-22.8,0-34.2c5.4,0,10.8,0,16.2,0C1458.9,1041.8,1458.9,1053.2,1458.9,1064.6z
		 M1466.7,787.7c5.4,0,10.8,0,16.2,0c0,11.4,0,22.8,0,34.2c-5.4,0-10.8,0-16.2,0C1466.7,810.5,1466.7,799.1,1466.7,787.7z
		 M1482.9,1064.6c-5.4,0-10.8,0-16.2,0c0.1-11.4,0-22.8,0-34.2c5.4,0,10.8,0,16.2,0C1482.9,1041.8,1482.9,1053.2,1482.9,1064.6z
		 M1505,786.7c5.4,0,10.8,0,16.3,0c0,11.4,0,22.8,0,34.2c-5.4,0-10.8,0-16.3,0C1505.4,809.5,1504.9,798.1,1505,786.7z M1505.1,689.3
		c5.4,0,10.8,0,16.1,0c0,11.4,0,22.8,0,34.2c-5.4,0-10.8,0-16.1,0C1504.9,712.1,1505,700.7,1505.1,689.3z M1521.2,1022.2
		c-5.4-0.1-10.7,0-16.1,0c-0.2-11.4-0.1-22.9,0-34.3c5.4,0,10.7,0,16.1,0C1521.2,999.3,1521.2,1010.7,1521.2,1022.2z M1521.3,962.9
		c-5.4,0-10.8,0-16.1,0c0-11.4-0.2-22.8,0.1-34.2c5.3,0,10.7,0,16.1,0C1521.2,940.2,1521.2,951.5,1521.3,962.9z M1505.2,511.2
		c-0.4-11.4-0.2-22.8-0.1-34.2c5.3,0,10.7,0,16.1,0c0,11.3-0.1,22.7,0,34C1515.9,511.2,1510.6,511,1505.2,511.2z M1505.1,467.9
		c-0.1-11.4-0.1-22.8,0-34.1c5.4,0,10.7,0,16.1,0c0,11.4,0,22.7,0,34.1C1515.9,468,1510.5,467.9,1505.1,467.9z M1505.1,242.8
		c0.2-11.4-0.5-22.7,0.1-34.1c5.3,0.1,10.7,0,16.1,0c0,11.4-0.1,22.7,0,34C1515.9,242.9,1510.5,242.8,1505.1,242.8z M1530.6,555.8
		c0-11.4,0-22.8,0-34.2c5.4,0,10.8,0,16.2,0c0,11.4,0,22.8,0,34.2C1541.4,555.8,1536,555.8,1530.6,555.8z M1546.8,600.5
		c-5.4,0-10.8,0-16.2,0c0-11.4,0-22.8,0-34.1c5.4-0.1,10.8,0,16.2,0C1546.8,577.8,1546.9,589.2,1546.8,600.5z M1546.8,289.1
		c-5.4,0-10.8,0-16.2,0c0-11.4,0-22.7,0-34.1c5.4,0,10.8,0,16.2,0C1546.9,266.4,1546.8,277.7,1546.8,289.1z M1546.8,467.9
		c-5.4,0-10.8,0-16.2,0c0-11.4,0-22.7,0-34.1c5.4,0,10.8,0,16.2,0C1546.9,445.2,1546.8,456.6,1546.8,467.9z M1530.6,208.7
		c5.4,0,10.8,0.1,16.2,0c0.1,11.4,0,22.7,0.1,34.1c-5.4,0-10.8,0.1-16.2,0C1530.7,231.4,1530.7,220.1,1530.6,208.7z M1530.7,299.7
		c5.4,0.1,10.8,0,16.2,0c0,11.4,0,22.7,0,34.1c-5.4,0-10.8,0-16.2,0C1530.7,322.4,1530.6,311.1,1530.7,299.7z M1546.8,689.3
		c0,11.4,0,22.8,0,34.2c-5.4,0-10.8,0-16.2,0c0-11.4,0.1-22.8,0-34.2C1536,689.2,1541.4,689.3,1546.8,689.3z M1546.8,1022.2
		c-5.4,0-10.8-0.1-16.1,0c0-11.5,0-22.9,0-34.3c5.4,0,10.8,0,16.2,0C1546.8,999.3,1546.9,1010.7,1546.8,1022.2z M1546.8,962.9
		c-5.4,0-10.8,0-16.2,0c0-11.4,0-22.7,0-34.1c5.4,0,10.8,0,16.2,0C1546.8,940.2,1546.9,951.5,1546.8,962.9z M1546.8,511.2
		c-5.4-0.1-10.8,0-16.2,0c0-11.4,0-22.8,0-34.2c5.4,0,10.8,0,16.2,0C1546.8,488.3,1546.9,499.7,1546.8,511.2z M1554.6,433.8
		c5.4,0,10.8,0,16.1,0c0.1,11.4,0,22.8,0.1,34.1c-5.4,0-10.8,0-16.2,0C1554.6,456.6,1554.6,445.2,1554.6,433.8z M1570.8,521.6
		c0.1,11.4,0,22.8,0,34.2c-5.4,0-10.8,0-16.2,0c0-11.4,0-22.8,0-34.2C1560,521.6,1565.4,521.6,1570.8,521.6z M1554.6,962.9
		c0-11.4,0-22.8,0-34.1c5.4,0,10.8,0,16.1,0c0.1,11.4,0,22.8,0.1,34.2C1565.4,962.9,1560,962.9,1554.6,962.9z M1554.6,820.9
		c0-11.4,0-22.8,0-34.2c5.4,0,10.7,0,16.1,0c0.1,11.4,0,22.8,0.1,34.2C1565.4,820.9,1560,820.9,1554.6,820.9z M1570.8,723.5
		c-5.4,0-10.8,0-16.2,0c0-11.4,0-22.8,0-34.2c5.4-0.1,10.8,0,16.2,0C1570.8,700.7,1570.8,712.1,1570.8,723.5z M1554.6,242.8
		c0-11.4,0-22.7,0-34c5.4,0,10.8,0,16.1,0c0.1,11.4,0,22.7,0.1,34.1C1565.4,242.8,1560,242.8,1554.6,242.8z M1652.8,298.2
		c0,11.4,0.1,22.7,0,34.1c-5.4,0-10.8,0-16.1,0c-0.1-11.3,0-22.7,0-34.1C1642,298.2,1647.4,298.2,1652.8,298.2z M1636.6,387.5
		c5.4,0,10.8,0,16.2,0c0,11.4,0,22.8,0,34.2c-5.4,0-10.8,0-16.2,0C1636.6,410.3,1636.6,398.9,1636.6,387.5z M1652.8,879.4
		c0,11.4,0,22.7,0,34.1c-5.4,0-10.8,0-16.2,0c0-11.4,0-22.7,0-34.1C1642,879.3,1647.4,879.3,1652.8,879.4z M1652.7,1178.5
		c-5.4,0-10.8,0-16.2,0c0-11.4,0-22.8,0-34.2c5.4,0,10.8,0,16.2,0C1652.8,1155.8,1652.8,1167.1,1652.7,1178.5z M1636.6,765
		c0-11.4,0-22.8,0-34.1c5.4,0,10.8,0,16.2,0c0.1,11.4,0,22.8,0,34.1C1647.4,764.9,1642,764.9,1636.6,765z M1660.6,387.5
		c5.4,0,10.8,0,16.2,0c0,11.4,0,22.8,0,34.2c-5.4,0-10.8,0-16.2,0C1660.6,410.3,1660.5,398.9,1660.6,387.5z M1676.7,566.4
		c0,11.4,0,22.8,0,34.2c-5.4,0-10.8,0-16.2,0c0-11.4,0-22.8,0-34.2C1665.9,566.3,1671.3,566.3,1676.7,566.4z M1676.7,913.4
		c-5.4,0-10.8,0-16.1,0c-0.1-11.4,0-22.7,0-34.1c5.4,0,10.8,0,16.2,0C1676.7,890.7,1676.8,902.1,1676.7,913.4z M1676.7,927.3
		c0,11.4,0,22.7,0,34.1c-5.4,0-10.8,0-16.1,0c-0.1-11.4,0-22.7,0-34.1C1665.9,927.2,1671.3,927.2,1676.7,927.3z M1676.7,1063.6
		c-5.4,0-10.8,0-16.2,0c0-11.4,0-22.8,0-34.2c5.4,0,10.8,0,16.2,0C1676.7,1040.8,1676.7,1052.2,1676.7,1063.6z M1686.2,298.2
		c5.4,0,10.8,0,16.2,0c0,11.4,0,22.7,0,34.1c-5.4,0-10.8,0-16.2,0C1686.1,320.9,1686.1,309.5,1686.2,298.2z M1702.3,1178.5
		c-5.4,0-10.8,0-16.2,0c-0.1-11.4-0.1-22.8,0-34.2c5.4,0,10.8,0,16.2,0C1702.3,1155.8,1702.3,1167.1,1702.3,1178.5z M1702.3,664.4
		c-5.4,0-10.8,0-16.2,0c0-11.4,0-22.7,0-34.1c5.4,0,10.8,0,16.2,0C1702.3,641.6,1702.3,653,1702.3,664.4z M1702.3,600.5
		c-5.4,0-10.8,0-16.2,0c-0.1-11.4-0.1-22.8,0-34.2c5.4,0,10.8,0,16.2,0C1702.3,577.8,1702.3,589.2,1702.3,600.5z M1686.1,468.9
		c5.4,0,10.8,0,16.2,0c0,11.4,0,22.9,0,34.3c-5.4,0-10.8,0-16.1,0C1686.1,491.8,1686.1,480.3,1686.1,468.9z M1702.3,421.7
		c-5.4,0-10.8,0-16.2,0c0-11.4,0-22.8,0-34.2c5.4,0,10.8,0,16.2,0C1702.3,398.9,1702.3,410.3,1702.3,421.7z M1807.5,298.2
		c5.4,0,10.8,0,16.2,0c0,11.3,0,22.7,0,34c-5.4,0.1-10.8,0-16.2,0C1807.4,320.9,1807.5,309.6,1807.5,298.2z M1823.7,764.9
		c-5.4,0-10.8,0-16.2,0c0-11.4,0-22.8,0-34.1c5.4,0,10.8,0,16.2,0C1823.7,742.2,1823.7,753.6,1823.7,764.9z M1783.6,298.2
		c5.4,0,10.8,0,16.2,0c0,11.4,0,22.7,0,34c-5.4,0-10.8,0-16.2,0C1783.5,320.9,1783.5,309.5,1783.6,298.2z M1799.7,421.7
		c-5.4,0-10.8,0-16.2,0c0-11.4,0-22.8,0-34.2c5.4,0,10.8,0,16.2,0C1799.7,398.9,1799.7,410.3,1799.7,421.7z M1783.6,468.9
		c5.4,0,10.8,0,16.2,0c0,11.4,0,22.8,0,34.3c-5.4,0-10.8,0.2-16.2-0.2C1783.5,491.6,1783.5,480.3,1783.6,468.9z M1799.7,566.4
		c0,11.4,0,22.8,0,34.2c-5.4,0-10.8,0-16.2,0c0-11.4,0-22.8,0-34.2C1788.9,566.3,1794.3,566.4,1799.7,566.4z M1735.6,387.5
		c5.4,0,10.8,0,16.2,0c0,11.4,0,22.8,0,34.2c-5.4,0-10.8,0-16.2,0C1735.6,410.3,1735.6,398.9,1735.6,387.5z M1751.8,664.3
		c-5.4,0.1-10.8,0-16.2,0c0-11.4,0-22.7,0-34.1c5.4,0,10.8,0,16.2,0C1751.8,641.6,1751.8,653,1751.8,664.3z M1751.8,600.6
		c-5.4,0-10.8,0-16.2,0c-0.1-11.4,0-22.8,0-34.2c5.4-0.1,10.8,0,16.2,0C1751.8,577.8,1751.8,589.2,1751.8,600.6z M1735.6,468.9
		c5.4,0,10.8,0,16.2,0c0,11.4,0,22.8,0,34.3c-5.4,0-10.8,0-16.2,0C1735.6,491.8,1735.6,480.3,1735.6,468.9z M1727.8,862.4
		c-5.4,0-10.8,0-16.2,0c0-11.4,0-22.8,0-34.2c5.4,0,10.8,0,16.2,0C1727.8,839.6,1727.8,851,1727.8,862.4z M1727.8,600.6
		c-5.4,0-10.8,0-16.2,0c0-11.4,0-22.8,0-34.2c5.4,0,10.8,0,16.2,0C1727.8,577.8,1727.8,589.2,1727.8,600.6z M1711.7,298.2
		c5.4,0,10.8,0,16.2,0c0,11.4,0,22.7,0,34c-5.4,0-10.8,0-16.2,0C1711.6,320.9,1711.6,309.5,1711.7,298.2z M1711.6,1091.6
		c5.4,0,10.8,0,16.2,0c0,11.4-0.1,22.8,0,34.2c-5.4,0-10.8,0-16.2,0C1711.6,1114.4,1711.6,1103,1711.6,1091.6z M1711.6,1029.4
		c5.4,0,10.8,0,16.2,0c0,11.4,0,22.8,0,34.2c-5.4,0-10.8,0-16.2,0C1711.6,1052.2,1711.6,1040.8,1711.6,1029.4z M1727.8,961.3
		c-5.4,0-10.8,0-16.2,0c0-11.4,0-22.7,0-34.1c5.4,0,10.8,0,16.2,0C1727.8,938.6,1727.8,950,1727.8,961.3z M1711.6,1178.5
		c0-11.4,0-22.8,0-34.2c5.4-0.1,10.8,0,16.2,0c0,11.4-0.1,22.8,0,34.2C1722.5,1178.6,1717,1178.5,1711.6,1178.5z M1711.6,913.5
		c0-11.4,0-22.7,0-34.1c5.4-0.1,10.8,0,16.2,0c0,11.3-0.1,22.7,0,34.1C1722.5,913.5,1717,913.4,1711.6,913.5z M1735.6,1063.6
		c0-11.4,0-22.8,0-34.2c5.4,0,10.8,0,16.2,0c0,11.4,0,22.8,0,34.2C1746.4,1063.6,1741,1063.6,1735.6,1063.6z M1751.8,961.3
		c-5.4,0-10.8,0-16.2,0c0-11.4,0-22.7,0-34.1c5.4,0,10.8,0,16.2,0C1751.8,938.6,1751.8,950,1751.8,961.3z M1735.6,913.5
		c0-11.4,0-22.7,0-34.1c5.4-0.1,10.8,0,16.2,0c0,11.3-0.1,22.7,0,34.1C1746.4,913.5,1741,913.4,1735.6,913.5z M1775.8,764.9
		c-5.4,0-10.8,0-16.2,0c0-11.4,0-22.8,0-34.1c5.4,0,10.8,0,16.2,0C1775.7,742.2,1775.8,753.6,1775.8,764.9z M1775.8,879.3
		c0,11.4,0,22.7,0,34.1c-5.4,0-10.8,0-16.2,0c-0.1-11.4,0-22.7,0-34.1C1765,879.3,1770.4,879.4,1775.8,879.3z M1775.7,1178.6
		c-5.4,0-10.8,0-16.2,0c0-11.4,0-22.8,0-34.2c5.4,0,10.8,0,16.2,0C1775.7,1155.7,1775.8,1167.1,1775.7,1178.6z M1759.6,1063.6
		c0-11.4,0-22.8,0-34.2c5.4,0,10.8,0,16.2,0c0,11.4,0,22.8,0,34.2C1770.4,1063.6,1765,1063.6,1759.6,1063.6z M1759.6,961.4
		c0-11.4,0-22.7,0-34.1c5.4,0,10.8,0,16.2,0c0,11.4,0,22.7,0,34.1C1770.4,961.4,1765,961.3,1759.6,961.4z M1775.8,332.2
		c-5.4,0-10.8,0-16.2,0c0-11.3,0-22.7,0-34c5.4,0,10.8,0,16.2,0C1775.7,309.5,1775.8,320.9,1775.8,332.2z M1783.6,730.8
		c5.4,0,10.8,0,16.2,0.1c0,11.3,0,22.7,0,34.1c-5.4,0-10.8,0-16.2,0C1783.6,753.6,1783.5,742.2,1783.6,730.8z M1783.5,913.5
		c0-11.4,0-22.7,0-34.1c5.4,0,10.8,0,16.2,0c0,11.4-0.1,22.7,0,34.1C1794.4,913.5,1788.9,913.4,1783.5,913.5z M1823.7,1178.5
		c-5.4,0-10.8,0-16.2,0c-0.1-11.4,0-22.8,0-34.2c5.4,0,10.8,0,16.2,0C1823.7,1155.7,1823.7,1167.1,1823.7,1178.5z M1807.5,913.5
		c-0.1-11.4,0-22.7,0-34.1c5.4,0,10.8,0,16.2,0c0,11.4-0.1,22.7,0,34.1C1818.3,913.5,1812.9,913.4,1807.5,913.5z M1890.6,428.5
		c5.4,0,10.8,0,16.2,0c0,11.4,0,22.8,0,34.2c-5.4,0-10.8,0-16.2,0C1890.6,451.3,1890.6,439.9,1890.6,428.5z M1864.9,705.1
		c0.1-7.1-0.3-14.1,0.3-21.2c5.3,0,10.6,0,16,0c0.1,11.4,0,22.9,0,34.3c-5.3-0.1-10.6,0.1-15.9-0.1
		C1864.6,713.8,1865,709.4,1864.9,705.1z M1865.2,1018.4c-0.5-11.4-0.1-22.8-0.3-34.1c5.4-0.1,10.9-0.1,16.3,0
		c0,11.4-0.1,22.8,0,34.1C1875.9,1018.4,1870.5,1018.3,1865.2,1018.4z M1865.1,462.7c-0.3-11.4-0.4-22.8,0.1-34.2
		c5.3,0,10.7,0,16.1,0c0,11.4-0.1,22.8,0,34.1C1875.9,462.7,1870.5,462.7,1865.1,462.7z M1906.8,826.2c0,11.4,0,22.7,0,34.1
		c-5.4,0-10.8,0-16.2,0c0-11.4,0-22.8,0-34.1C1896,826.1,1901.4,826.1,1906.8,826.2z M1906.8,1018.4c-5.4-0.1-10.8-0.1-16.1,0
		c0-11.4,0-22.8,0-34.2c5.4,0,10.8-0.1,16.2,0C1906.8,995.6,1906.9,1007,1906.8,1018.4z M1890.6,393.9c0-11.4,0-22.8,0-34.1
		c5.4,0,10.8,0,16.2,0c0.1,11.4,0,22.8,0,34.2C1901.4,394,1896,394,1890.6,393.9z"/>
</g>
</svg>
