<?xml version="1.0" encoding="utf-8"?>
<!-- Generator: Adobe Illustrator 26.0.2, SVG Export Plug-In . SVG Version: 6.00 Build 0)  -->
<svg version="1.1" id="Layer_1" xmlns="http://www.w3.org/2000/svg" xmlns:xlink="http://www.w3.org/1999/xlink" x="0px" y="0px"
	 viewBox="0 0 148 206" style="enable-background:new 0 0 148 206;" xml:space="preserve">
<style type="text/css">
	.st0{fill-rule:evenodd;clip-rule:evenodd;fill:#EB6C2C;stroke:#EB6C2C;stroke-miterlimit:10;}
	.st1{fill-rule:evenodd;clip-rule:evenodd;fill:#EB6C2C;}
	.st2{fill:#32576C;}
	.st3{fill-rule:evenodd;clip-rule:evenodd;fill:#323232;}
	.st4{fill-rule:evenodd;clip-rule:evenodd;fill:#E3AF5B;}
	.st5{fill:none;stroke:#EB6C2C;stroke-width:2;stroke-linecap:round;stroke-miterlimit:10;}
	.st6{fill-rule:evenodd;clip-rule:evenodd;fill:#32576C;stroke:#231F20;stroke-linecap:round;stroke-miterlimit:10;}
	.st7{fill-rule:evenodd;clip-rule:evenodd;fill:#32576C;}
	.st8{fill:none;stroke:#000000;stroke-width:0.4;stroke-miterlimit:10;}
	.st9{fill:none;stroke:#231F20;stroke-width:0.5;stroke-linecap:round;stroke-miterlimit:10;}
	.st10{fill:#F2B351;}
	.st11{fill:none;stroke:#F2B351;stroke-miterlimit:10;}
</style>
<path class="st0" d="M119.6,206V65.3H119V206H119.6z"/>
<path class="st0" d="M111.5,206V65.3h-0.7V206H111.5z"/>
<path class="st1" d="M119,194.4c-0.1-0.2-0.2-0.3-0.3-0.3h-7.3v1.1h6.4l-6.6,9.9c-0.1,0.1-0.1,0.4-0.1,0.6c0.1,0.2,0.2,0.3,0.3,0.3
	h7.9v-1.1h-7.1l6.6-9.9C119,194.8,119,194.6,119,194.4z"/>
<path class="st1" d="M119,183.5c-0.1-0.2-0.2-0.3-0.3-0.3h-7.3v1.1h6.4l-6.6,9.9c-0.1,0.2-0.1,0.4-0.1,0.6c0.1,0.2,0.2,0.3,0.3,0.3
	h7.9V194h-7.1l6.6-9.9C119,184,119,183.8,119,183.5z"/>
<path class="st1" d="M119,172.7c-0.1-0.2-0.2-0.3-0.3-0.3h-7.3v1.1h6.4l-6.6,9.9c-0.1,0.2-0.1,0.4-0.1,0.6c0.1,0.2,0.2,0.3,0.3,0.3
	h7.9v-1.1h-7.1l6.6-9.9C119,173.2,119,172.9,119,172.7z"/>
<path class="st1" d="M119,161.9c-0.1-0.2-0.2-0.3-0.3-0.3h-7.3v1.1h6.4l-6.6,9.9c-0.1,0.2-0.1,0.4-0.1,0.6c0.1,0.2,0.2,0.3,0.3,0.3
	h7.9v-1.1h-7.1l6.6-9.9C119,162.3,119,162.1,119,161.9z"/>
<path class="st1" d="M119,151.1c-0.1-0.2-0.2-0.3-0.3-0.3h-7.3v1.1h6.4l-6.6,9.9c-0.1,0.1-0.1,0.4-0.1,0.6c0.1,0.2,0.2,0.3,0.3,0.3
	h7.9v-1.1h-7.1l6.6-9.9C119,151.5,119,151.3,119,151.1z"/>
<path class="st1" d="M119,140.2c-0.1-0.2-0.2-0.3-0.3-0.3h-7.3v1.1h6.4l-6.6,9.9c-0.1,0.2-0.1,0.4-0.1,0.6c0.1,0.2,0.2,0.3,0.3,0.3
	h7.9v-1.1h-7.1l6.6-9.9C119,140.7,119,140.4,119,140.2z"/>
<path class="st1" d="M119.1,129.4c-0.1-0.2-0.2-0.3-0.3-0.3h-7.3v1.1h6.4l-6.6,9.9c-0.1,0.1-0.1,0.4-0.1,0.6
	c0.1,0.2,0.2,0.3,0.3,0.3h7.9v-1.1h-7.1l6.6-9.9C119.2,129.8,119.2,129.6,119.1,129.4z"/>
<path class="st1" d="M119.1,118.6c-0.1-0.2-0.2-0.3-0.3-0.3h-7.3v1.1h6.4l-6.6,9.9c-0.1,0.2-0.1,0.4-0.1,0.6
	c0.1,0.2,0.2,0.3,0.3,0.3h7.9V129h-7.1l6.6-9.9C119.2,119,119.2,118.8,119.1,118.6z"/>
<path class="st1" d="M119.1,107.7c-0.1-0.2-0.2-0.3-0.3-0.3h-7.3v1.1h6.4l-6.6,9.9c-0.1,0.2-0.1,0.4-0.1,0.6s0.2,0.3,0.3,0.3h7.9
	v-1.1h-7.1l6.6-9.9C119.2,108.2,119.2,107.9,119.1,107.7z"/>
<path class="st1" d="M119.1,96.9c-0.1-0.2-0.2-0.3-0.3-0.3h-7.3v1.1h6.4l-6.6,9.9c-0.1,0.2-0.1,0.4-0.1,0.6s0.2,0.3,0.3,0.3h7.9
	v-1.1h-7.1l6.6-9.9C119.2,97.3,119.2,97.1,119.1,96.9z"/>
<path class="st1" d="M119.1,86.1c-0.1-0.2-0.2-0.3-0.3-0.3h-7.3v1.1h6.4l-6.6,9.9c-0.1,0.2-0.1,0.4-0.1,0.6s0.2,0.3,0.3,0.3h7.9
	v-1.1h-7.1l6.6-9.9C119.2,86.5,119.2,86.3,119.1,86.1z"/>
<path class="st1" d="M119.1,75.2c-0.1-0.2-0.2-0.3-0.3-0.3h-7.3V76h6.4l-6.6,9.9c-0.1,0.2-0.1,0.4-0.1,0.6s0.2,0.3,0.3,0.3h7.9v-1.1
	h-7.1l6.6-9.9C119.2,75.7,119.2,75.4,119.1,75.2z"/>
<path class="st1" d="M119.1,64.4c-0.1-0.2-0.2-0.3-0.3-0.3h-7.3v1.1h6.4l-6.6,9.8c-0.1,0.2-0.1,0.4-0.1,0.6s0.2,0.3,0.3,0.3h7.9
	v-1.1h-7.1l6.6-9.9C119.1,64.9,119.2,64.6,119.1,64.4z"/>
<path class="st1" d="M119,75.6c-0.1,0.2-0.2,0.3-0.3,0.3h-7.3v-1.1h6.4l-6.6-9.8c-0.1-0.2-0.1-0.4-0.1-0.6c0.1-0.2,0.2-0.3,0.3-0.3
	h7.9v1.1h-7.1l6.6,9.9C119,75.2,119.1,75.4,119,75.6z"/>
<path class="st1" d="M119,86.5c-0.1,0.2-0.2,0.3-0.3,0.3h-7.3v-1.1h6.4l-6.6-9.9c-0.1-0.2-0.1-0.4-0.1-0.6c0.1-0.2,0.2-0.3,0.3-0.3
	h7.9V76h-7.1l6.6,9.9C119,86,119.1,86.3,119,86.5z"/>
<path class="st1" d="M119,97.3c-0.1,0.2-0.2,0.3-0.3,0.3h-7.3v-1.1h6.4l-6.6-9.8c-0.1-0.2-0.1-0.4-0.1-0.6c0.1-0.2,0.2-0.3,0.3-0.3
	h7.9v1.1h-7.1l6.6,9.9C119,96.8,119.1,97.1,119,97.3z"/>
<path class="st1" d="M119,108.1c-0.1,0.2-0.2,0.3-0.3,0.3h-7.3v-1.1h6.4l-6.6-9.8c-0.1-0.2-0.1-0.4-0.1-0.6c0.1-0.2,0.2-0.3,0.3-0.3
	h7.9v1.1h-7.1l6.6,9.9C119,107.7,119.1,107.9,119,108.1z"/>
<path class="st1" d="M119,119c-0.1,0.2-0.2,0.3-0.3,0.3h-7.3v-1.1h6.4l-6.6-9.9c-0.1-0.2-0.1-0.4-0.1-0.6c0.1-0.2,0.2-0.3,0.3-0.3
	h7.9v1.1h-7.1l6.6,9.9C119,118.5,119.1,118.7,119,119z"/>
<path class="st1" d="M119,129.8c-0.1,0.2-0.2,0.3-0.3,0.3h-7.3V129h6.4l-6.6-9.9c-0.1-0.2-0.1-0.4-0.1-0.6c0.1-0.2,0.2-0.3,0.3-0.3
	h7.9v1.1h-7.1l6.6,9.9C119,129.3,119.1,129.6,119,129.8z"/>
<path class="st1" d="M119.2,140.6c-0.1,0.2-0.2,0.3-0.3,0.3h-7.3v-1.1h6.4l-6.6-9.9c-0.1-0.1-0.1-0.4-0.1-0.6
	c0.1-0.2,0.2-0.3,0.3-0.3h7.9v1.1h-7.1l6.6,9.9C119.2,140.2,119.2,140.4,119.2,140.6z"/>
<path class="st1" d="M119.2,151.4c-0.1,0.2-0.2,0.3-0.3,0.3h-7.3v-1.1h6.4l-6.6-9.9c-0.1-0.2-0.1-0.4-0.1-0.6
	c0.1-0.2,0.2-0.3,0.3-0.3h7.9v1.1h-7.1l6.6,9.9C119.2,151,119.2,151.2,119.2,151.4z"/>
<path class="st1" d="M119.2,162.3c-0.1,0.2-0.2,0.3-0.3,0.3h-7.3v-1.1h6.4l-6.6-9.9c-0.1-0.2-0.1-0.4-0.1-0.6
	c0.1-0.2,0.2-0.3,0.3-0.3h7.9v1.1h-7.1l6.6,9.9C119.2,161.8,119.2,162.1,119.2,162.3z"/>
<path class="st1" d="M119.2,173.1c-0.1,0.2-0.2,0.3-0.3,0.3h-7.3v-1.1h6.4l-6.6-9.9c-0.1-0.2-0.1-0.4-0.1-0.6
	c0.1-0.2,0.2-0.3,0.3-0.3h7.9v1.1h-7.1l6.6,9.9C119.2,172.7,119.2,172.9,119.2,173.1z"/>
<path class="st1" d="M119.2,183.9c-0.1,0.2-0.2,0.3-0.3,0.3h-7.3v-1.1h6.4l-6.6-9.9c-0.1-0.2-0.1-0.4-0.1-0.6
	c0.1-0.2,0.2-0.3,0.3-0.3h7.9v1.1h-7.1l6.6,9.9C119.2,183.5,119.2,183.7,119.2,183.9z"/>
<path class="st1" d="M119.2,194.8c-0.1,0.2-0.2,0.3-0.3,0.3h-7.3V194h6.4l-6.6-9.9c-0.1-0.1-0.1-0.4-0.1-0.6
	c0.1-0.2,0.2-0.3,0.3-0.3h7.9v1.1h-7.1l6.6,9.9C119.2,194.3,119.2,194.6,119.2,194.8z"/>
<path class="st1" d="M119.2,205.6c-0.1,0.2-0.2,0.3-0.3,0.3h-7.3v-1.1h6.4l-6.6-9.9c-0.1-0.2-0.1-0.4-0.1-0.6
	c0.1-0.2,0.2-0.3,0.3-0.3h7.9v1.1h-7.1l6.6,9.9C119.2,205.2,119.2,205.4,119.2,205.6z"/>
<path class="st0" d="M131.3,56.9H28.2l-16.5,7.2l0.3,0.7h135.5l0.3-0.7L131.3,56.9z M131,57.7l14.5,6.4H13.9l14.5-6.4H131z"/>
<path class="st1" d="M39.8,63.9c0.2-0.1,0.3-0.2,0.3-0.4v-6.1h-1v5.3l-9.8-5.6c-0.2-0.1-0.4-0.1-0.6,0c-0.2,0.1-0.3,0.2-0.3,0.4v6.6
	h1v-5.9l9.8,5.6C39.4,64,39.6,64,39.8,63.9z"/>
<path class="st1" d="M50.4,63.9c0.2-0.1,0.3-0.2,0.3-0.4v-6.1h-1v5.3l-9.8-5.6c-0.2-0.1-0.4-0.1-0.6,0c-0.2,0.1-0.3,0.2-0.3,0.4v6.6
	h1v-5.9l9.8,5.6C50.1,64,50.3,64,50.4,63.9z"/>
<path class="st1" d="M61,63.9c0.2-0.1,0.3-0.2,0.3-0.4v-6.1h-1v5.3l-9.8-5.6c-0.2-0.1-0.4-0.1-0.6,0c-0.2,0.1-0.3,0.2-0.3,0.4v6.6h1
	v-5.9l9.9,5.7C60.6,64,60.9,64,61,63.9z"/>
<path class="st1" d="M71.7,63.9c0.2-0.1,0.3-0.2,0.3-0.4v-6.1h-1v5.3l-9.8-5.6c-0.2-0.1-0.4-0.1-0.6,0c-0.2,0.1-0.3,0.2-0.3,0.4v6.6
	h1v-5.9l9.8,5.6C71.3,64,71.5,64,71.7,63.9z"/>
<path class="st1" d="M82.3,63.9c0.2-0.1,0.3-0.2,0.3-0.4v-6.1h-1v5.3l-9.8-5.6c-0.2-0.1-0.4-0.1-0.6,0c-0.2,0.1-0.3,0.2-0.3,0.4v6.6
	h1v-5.9l9.8,5.7C81.9,64,82.1,64,82.3,63.9z"/>
<path class="st1" d="M92.8,63.9c0.2-0.1,0.3-0.2,0.3-0.4v-6.1h-1v5.3l-9.8-5.6c-0.2-0.1-0.4-0.1-0.6,0c-0.2,0.1-0.3,0.2-0.3,0.4v6.6
	h1v-5.9l9.8,5.6C92.5,64,92.7,64,92.8,63.9z"/>
<path class="st1" d="M103.4,63.9c0.2-0.1,0.3-0.2,0.3-0.4v-6.1h-1v5.3l-9.8-5.6c-0.2-0.1-0.4-0.1-0.6,0c-0.2,0.1-0.3,0.2-0.3,0.4
	v6.6h1v-5.9l9.8,5.6C103.1,64,103.2,64,103.4,63.9z"/>
<path class="st1" d="M114.1,63.9c0.2-0.1,0.3-0.2,0.3-0.4v-6.1h-1v5.3l-9.8-5.6c-0.2-0.1-0.4-0.1-0.6,0c-0.2,0.1-0.3,0.2-0.3,0.4
	v6.6h1v-5.9l9.8,5.6C113.7,64,113.9,64,114.1,63.9z"/>
<path class="st1" d="M39.8,57.5c0.2,0.1,0.3,0.2,0.3,0.4V64h-1v-5.3l-9.8,5.6c-0.2,0.1-0.4,0.1-0.6,0c-0.2-0.1-0.3-0.2-0.3-0.4v-6.6
	h1v5.9l9.8-5.6C39.4,57.5,39.6,57.5,39.8,57.5z"/>
<path class="st1" d="M50.4,57.5c0.2,0.1,0.3,0.2,0.3,0.4V64h-1v-5.3l-9.8,5.6c-0.2,0.1-0.4,0.1-0.6,0c-0.2-0.1-0.3-0.2-0.3-0.4v-6.6
	h1v5.9l9.8-5.6C50.1,57.5,50.3,57.5,50.4,57.5z"/>
<path class="st1" d="M61,57.5c0.2,0.1,0.3,0.2,0.3,0.4V64h-1v-5.3l-9.8,5.6c-0.1,0.1-0.4,0.1-0.5,0.1c-0.2-0.1-0.3-0.2-0.3-0.4v-6.6
	h1v5.9l9.8-5.7C60.6,57.5,60.9,57.5,61,57.5z"/>
<path class="st1" d="M71.7,57.5c0.2,0.1,0.3,0.2,0.3,0.4V64h-1v-5.3l-9.8,5.6c-0.2,0.1-0.4,0.1-0.6,0c-0.2-0.1-0.3-0.2-0.3-0.4v-6.6
	h1v5.9l9.8-5.6C71.3,57.5,71.5,57.5,71.7,57.5z"/>
<path class="st1" d="M82.3,57.5c0.2,0.1,0.3,0.2,0.3,0.4V64h-1v-5.3l-9.8,5.6c-0.2,0.1-0.4,0.1-0.6,0.1c-0.2-0.1-0.3-0.2-0.3-0.4
	v-6.6h1v5.9l9.8-5.7C81.9,57.5,82.1,57.5,82.3,57.5z"/>
<path class="st1" d="M92.8,57.5c0.2,0.1,0.3,0.2,0.3,0.4V64h-1v-5.3l-9.8,5.6c-0.2,0.1-0.4,0.1-0.6,0c-0.2-0.1-0.3-0.2-0.3-0.4v-6.6
	h1v5.9l9.8-5.6C92.5,57.5,92.7,57.5,92.8,57.5z"/>
<path class="st1" d="M114.1,57.5c0.2,0.1,0.3,0.2,0.3,0.4V64h-1v-5.3l-9.8,5.6c-0.2,0.1-0.4,0.1-0.6,0c-0.2-0.1-0.3-0.2-0.3-0.4
	v-6.6h1v5.9l9.8-5.6C113.7,57.5,113.9,57.5,114.1,57.5z"/>
<path class="st1" d="M109.7,57.6c0.2,0.1,0.3,0.2,0.3,0.4v6.1h-1v-5.3l-9.8,5.6c-0.2,0.1-0.4,0.1-0.6,0c-0.2-0.1-0.3-0.2-0.3-0.4
	v-6.6h1v5.9l9.8-5.6C109.3,57.5,109.5,57.5,109.7,57.6z"/>
<path class="st1" d="M120.3,57.6c0.2,0.1,0.3,0.2,0.3,0.4v6.1h-1v-5.3l-9.8,5.6c-0.2,0.1-0.4,0.1-0.6,0c-0.2-0.1-0.3-0.2-0.3-0.4
	v-6.6h1v5.9l9.8-5.6C119.9,57.5,120.1,57.5,120.3,57.6z"/>
<path class="st1" d="M131,57.6c0.2,0.1,0.3,0.2,0.3,0.4v6.1h-1v-5.3l-9.9,5.6c-0.2,0.1-0.4,0.1-0.6,0c-0.2-0.1-0.3-0.2-0.3-0.4v-6.6
	h1v5.9l9.8-5.6C130.6,57.5,130.8,57.5,131,57.6z"/>
<path class="st2" d="M144.5,64h-2.4v7h2.4V64z"/>
<path class="st2" d="M141.8,64h-2.4v7h2.4V64z"/>
<path class="st2" d="M139.1,64h-2.4v7h2.4V64z"/>
<path class="st1" d="M44.9,62.7c0.1-0.2,0.1-0.4,0.1-0.5s0-0.1,0-0.1l0,0l0,0l0,0c0,0,0,0,0.1,0v0.3h0.1l0,0l0,0l0,0l0,0l0,0v0.1
	c0,0.1-0.1,0.3-0.1,0.5"/>
<path class="st1" d="M25.8,64.5l0.3-0.1"/>
<path class="st1" d="M76.5,57.3l-0.4-0.2"/>
<path class="st1" d="M147.6,64.2l-0.4,0.2"/>
<path class="st3" d="M104.7,1.5l0.5-0.2"/>
<path class="st1" d="M131.3,57l-0.5,0.1"/>
<path class="st4" d="M107.9,51.7h14.5v16h-20V56.1C102.4,53.6,104.9,51.7,107.9,51.7z M125.8,48.9v21.6H98.9V56.1
	c0-4,4.1-7.1,8.9-7.1H125.8z"/>
<path class="st2" d="M101.6,60.5h21v7.9h-21V60.5z"/>
<line class="st5" x1="122" y1="49.1" x2="122" y2="35.3"/>
<line class="st5" x1="110.9" y1="49.1" x2="122" y2="35.3"/>
<ellipse class="st6" cx="122" cy="35.3" rx="1.9" ry="2.4"/>
<rect x="108.1" y="96.6" class="st7" width="14.2" height="6"/>
<rect x="107.9" y="139.9" class="st7" width="14.4" height="6"/>
<rect x="107.9" y="183.2" class="st7" width="15.2" height="6"/>
<line class="st8" x1="39.5" y1="90.7" x2="53.5" y2="78.8"/>
<line class="st8" x1="53.7" y1="78.8" x2="66.5" y2="90.3"/>
<path class="st9" d="M39.8,91.7c0-0.7-0.6-1.3-1.1-1.3c-0.6,0-1.1,0.6-1.1,1.3"/>
<path class="st9" d="M66.9,90.4c-0.6,0-1.1,0.5-1.1,1.3"/>
<path class="st9" d="M68,91.7c0-0.7-0.5-1.3-1.1-1.3"/>
<path d="M52.6,81.3c1.9,0,1.9-1.8,1.9-1.8s0-0.2,0.3-0.2c0.2,0,0.3-0.4,0-0.4c-0.4,0-0.6,0.2-0.9,0.5C53.7,79.8,53.3,80,53,80
	c-0.6,0.1-1-0.3-1.1-0.9V79c0-0.8,0.5-1.1,0.9-1.1c0.3,0,0.6,0,1.1,0.1v-1.6h-1.1v0.5c-2.1,0-2.4,1.4-2.4,2.1
	C50.3,79.8,50.7,81.3,52.6,81.3"/>
<polygon class="st10" points="54.5,76.2 54.5,75.4 52.3,75.4 52.3,76.2 52.8,76.2 53.8,76.2 "/>
<polyline class="st10" points="52.3,65.3 52.3,68.8 51.5,68.8 51.5,65.3 "/>
<polyline class="st10" points="55.6,65.3 55.6,68.8 54.8,68.8 54.8,65.3 "/>
<path d="M56.2,72.2v-3.1h-5.6v3.1l1.1,2.9H55L56.2,72.2z"/>
<path class="st11" d="M46.2,64.1"/>
<path d="M47.4,70.1"/>
<path d="M50.7,69.8C50.7,69.8,50.7,69.8,50.7,69.8C50.7,69.7,50.7,69.7,50.7,69.8C50.7,69.7,50.7,69.7,50.7,69.8L50.7,69.8z"/>
</svg>
