<?xml version="1.0" encoding="utf-8"?>
<!-- Generator: Adobe Illustrator 26.0.2, SVG Export Plug-In . SVG Version: 6.00 Build 0)  -->
<svg version="1.1" id="torex" xmlns="http://www.w3.org/2000/svg" xmlns:xlink="http://www.w3.org/1999/xlink" x="0px" y="0px"
	 viewBox="0 0 951 581.2" style="enable-background:new 0 0 951 581.2;" xml:space="preserve">
<style type="text/css">
	.st0{fill:#F06E01;}
	.st1{fill:#023345;}
	.st2{fill:#C23800;}
	.st3{fill:#C23800;stroke:#C23800;stroke-width:1.689;stroke-linejoin:round;}
	.st4{fill:none;stroke:#000000;stroke-width:1.689;stroke-linejoin:round;}
	.st5{fill:none;stroke:#C23800;stroke-width:1.689;stroke-linejoin:round;}
	.st6{fill:none;stroke:#FFFF54;stroke-width:1.689;stroke-linejoin:round;}
	.st7{fill:none;stroke:#A80000;stroke-width:1.689;stroke-linejoin:round;}
	.st8{fill:#F06E01;stroke:#C23800;stroke-width:1.689;stroke-linejoin:round;}
	.st9{fill:#A89187;}
	.st10{fill:#FFA800;stroke:#000000;stroke-width:1.689;stroke-linejoin:round;}
	.st11{fill:#A80000;stroke:#000000;stroke-width:1.689;stroke-linejoin:round;}
	.st12{fill:#A89187;stroke:#000000;stroke-width:1.689;stroke-linejoin:round;}
	.st13{fill:#029C9A;}
	.st14{stroke:#A80000;stroke-width:1.689;stroke-linejoin:round;}
	.st15{fill:#FFA800;}
	.st16{fill:#FFFFFF;stroke:#FFFFFF;stroke-width:1.689;stroke-linejoin:round;}
	.st17{fill:#A80000;}
	.st18{stroke:#A89187;stroke-width:1.689;stroke-linejoin:round;}
	.st19{stroke:#000000;stroke-width:1.689;stroke-linejoin:round;}
	.st20{fill:#A89187;stroke:#FFFFFF;stroke-width:1.689;stroke-linejoin:round;}
	.st21{stroke:#FFFFFF;stroke-width:1.689;stroke-linejoin:round;}
	.st22{fill:#FFA800;stroke:#000000;stroke-width:10.5;stroke-linejoin:round;}
</style>
<g>
	<polyline class="st0" points="639.7,80.4 658.8,53.5 672.5,32.5 841.6,32.5 867.5,32.5 873.7,32.5 860.8,45.5 854.6,45.5 
		802.4,45.5 756.5,45.5 756.5,60.1 805.4,59.7 854,59.7 859.2,65.2 913.4,77 914.2,86.4 868.1,85.4 850.6,93.1 864.3,158.4 
		868.1,177.9 875.4,187 886.6,198.3 911.2,215 914,226 914,240.7 914,316.4 919.1,379.4 926.9,392.7 932.6,420.9 926.9,433.2 
		886.6,441.1 854.6,441.1 620,427.6 620,406.2 607.2,392.7 573.5,392.7 560.8,406.2 561.1,422 551.8,422 514.6,422 487.2,422 
		487.2,406.4 440.8,411.5 439.6,418 433.4,407 428.2,395.5 425.4,386.2 410.9,386.2 209.6,329.4 222.3,316.4 229.1,288.1 
		248.2,294.7 261.9,288.1 261.9,275.2 242,267.9 222.3,260.5 183.1,246.5 145.4,233.9 104.2,226 83.9,208.2 58.8,191.4 53.2,191.4 
		26.8,191.4 6.9,191.4 13.2,163.8 19.8,136.6 19.8,122.4 38.9,115 144.3,80.4 150.1,80.4 398,80.4 	"/>
	<polygon class="st1" points="106.4,225.1 263.6,280.8 573.7,280.8 616.2,225.1 	"/>
	<polyline class="st0" points="580.4,280.8 491,280.8 470.9,295.2 231.3,295.2 108.1,225.7 264.7,272.4 592.1,257.2 616.1,224.5 
		621.1,224.5 669.7,118.6 670.1,263.2 631.2,263.7 611.6,278.9 597.9,302.9 597.9,336.3 	"/>
	<polygon class="st2" points="866.6,441.7 864.7,431.7 863.2,419.7 860.8,407.9 857,396.3 852.3,384.9 846.9,374.2 840.5,363.7 
		833.2,354.1 824.9,345.1 815.9,336.9 806.4,329.5 796.2,322.8 785.6,317.2 774.3,312.7 762.7,308.7 751.2,306.3 739.1,304.8 
		727.2,304.2 715.1,304.8 703.1,306.3 691.2,308.7 680,312.7 668.6,317.2 657.9,322.8 647.8,329.5 638.2,336.9 629.6,345.1 
		621.1,354.1 613.8,363.7 607.4,374.2 601.8,384.9 835.4,441.7 	"/>
	<polygon class="st3" points="144.9,89.4 637.6,89.4 643.8,89.4 650.4,89.4 662.9,74.4 662.9,80.9 650.4,95.9 142.8,95.9 
		26.2,132.1 26.8,126.9 	"/>
	<polygon class="st3" points="635.4,94.2 635.4,172.8 641.9,161.2 641.9,95 	"/>
	<path class="st4" d="M650.9,135.9"/>
	<path class="st4" d="M650.9,89.2"/>
	<rect x="140.6" y="95.9" class="st3" width="6.6" height="116.3"/>
	<rect x="308.8" y="95.9" class="st3" width="6.4" height="115.9"/>
	<rect x="485" y="95.4" class="st3" width="6.2" height="116.3"/>
	<polygon class="st3" points="62,119.7 62,181.8 68.4,185.9 68.4,117.5 	"/>
	<polyline class="st5" points="60.9,181.8 105.7,213.5 361.6,213.5 	"/>
	<line class="st5" x1="60.3" y1="181.8" x2="17.8" y2="181.8"/>
	<polygon class="st3" points="26.2,127.4 27.1,137.5 17.8,181.8 18.9,181.8 27.9,137 27.1,131 	"/>
	<polyline class="st5" points="358.6,213.5 611.8,213.5 635.4,173.5 	"/>
	<path class="st6" d="M325.1,213.5"/>
	<path class="st6" d="M325.1,96.1"/>
	<polygon class="st2" points="6.5,190.4 25.6,205.6 82.1,205.6 59.9,190.4 	"/>
	<path class="st4" d="M67.1,116.4"/>
	<path class="st4" d="M29.9,127.6"/>
	<path class="st4" d="M79.4,112.2"/>
	<path class="st4" d="M145.6,91.4"/>
	<path class="st4" d="M313.4,89.9"/>
	<path class="st4" d="M159.5,89.9"/>
	<path class="st7" d="M489.5,89.9"/>
	<path class="st7" d="M327.3,89.9"/>
	<polyline class="st5" points="504.7,89.9 638.2,89.9 638.2,165.1 	"/>
	<polygon class="st1" points="400.4,362.4 404.4,370.4 409.8,374.9 415.4,383.4 415.8,386 416.4,388.8 413,391 418.6,419.4 
		422.8,427.2 465.5,427.2 496.1,407.5 557.2,407.5 561.7,413.5 621.3,413.5 626.8,398 627.3,390.1 628.6,385.6 628.1,382.2 
		595.4,382.6 512.9,383.2 513.5,391.6 528.7,391.6 528.7,399.5 497.2,399.5 497.2,392.2 514.2,391.6 514.2,378.3 514.8,362.4 	"/>
	<polygon class="st2" points="609.7,283 609.7,364.8 597.1,364.8 597.1,304.6 	"/>
	<polygon class="st2" points="399.7,361.6 404.2,371 405.9,375.5 416.6,383.7 628.1,383.7 629,377.5 630.9,374.7 633.5,374.2 
		637.6,374.2 638.8,374.2 643.8,368.7 612.1,368.7 595.1,360.5 398,359.7 	"/>
	<polygon class="st2" points="552.7,351.9 552.7,367 620.6,367 616.2,373.6 541.8,373.6 539.6,360.5 	"/>
	<rect x="552.9" y="340.8" class="st8" width="66" height="26.1"/>
	<path class="st4" d="M915.7,346.8"/>
	<path class="st4" d="M853.4,346.8"/>
	<rect x="911.4" y="242.4" class="st9" width="6.2" height="96.8"/>
	<path class="st4" d="M892.2,345.3"/>
	<path class="st4" d="M892.2,220.6"/>
	<polyline class="st4" points="853.4,187 863.2,181.8 867.5,176.2 	"/>
	<path class="st4" d="M704.8,192.7"/>
	<line class="st4" x1="866.4" y1="182.5" x2="876.1" y2="193.8"/>
	<line class="st4" x1="868.2" y1="182" x2="877.1" y2="191.9"/>
	<polyline class="st4" points="864.7,184.6 873.7,194.7 878.8,190.4 	"/>
	<line class="st4" x1="864.7" y1="184.6" x2="870.3" y2="181.2"/>
	<rect x="742.6" y="201.1" class="st10" width="13.7" height="6"/>
	<rect x="742.6" y="201.1" class="st11" width="13.7" height="6"/>
	<rect x="742.6" y="200.9" class="st12" width="13.9" height="3"/>
	<rect x="738.1" y="91" class="st13" width="91.1" height="101.4"/>
	<polygon class="st13" points="836,91.6 853.6,93.3 868.6,175.6 857.4,187 836,192.5 	"/>
	<polygon class="st13" points="732.3,91.6 732.3,192.5 706.6,192.5 706.6,121.2 721.8,92 	"/>
	<path class="st4" d="M911.4,220.6"/>
	<path class="st4" d="M860.4,192.7"/>
	<polygon class="st0" points="677.8,107.2 707.6,48.5 716.2,44.4 860.4,44.4 825.3,50.7 819.3,59.5 842.9,59.5 826.6,63.7 
		748.1,63.7 733.4,69.1 719,90.3 717.1,92.5 721.8,96.5 707.2,130.2 703.6,126.9 684.1,162.7 	"/>
	<rect x="677.8" y="107.4" class="st14" width="13.5" height="120.9"/>
	<rect x="657.1" y="220.6" class="st15" width="11.4" height="7.1"/>
	<polyline class="st12" points="668.9,24.3 684.1,24.3 684.1,241.4 668.9,241.4 	"/>
	<rect x="677.4" y="25.2" class="st16" width="5.6" height="203.2"/>
	<rect x="670.2" y="26.9" class="st9" width="5.4" height="201.9"/>
	<polygon class="st12" points="671.4,18.1 678.3,10.2 678.9,13 673.1,18.7 	"/>
	<polygon class="st12" points="670.2,18.1 678.9,9.5 674.8,9.1 669.5,15.9 	"/>
	<path class="st6" d="M845,345.9"/>
	<path class="st4" d="M847.4,346.2"/>
	<path class="st4" d="M703.8,123.5"/>
	<path class="st4" d="M703.8,287.4"/>
	<path class="st4" d="M832.6,89.7"/>
	<path class="st4" d="M832.6,329"/>
	<path class="st4" d="M735.1,287.4"/>
	<path class="st4" d="M735.1,89.4"/>
	<rect x="849.7" y="287.4" class="st2" width="15" height="49.5"/>
	<rect x="609.7" y="259.4" class="st0" width="49.1" height="107.6"/>
	<polygon class="st17" points="869.9,440 900.7,440.9 900.7,409.8 893.9,411.3 880.8,414.1 867.1,415.4 	"/>
	<polygon class="st18" points="885.9,378.7 882.7,379.8 881.9,383.2 880.2,407.5 878.8,414.1 875.4,421 871.1,428.7 868.1,434.9 
		865.8,439.2 864.7,440.9 887.8,442 887.8,378.3 	"/>
	<polygon class="st9" points="893.4,445.6 889.2,444.3 887,441.5 885.9,436 885.9,373.2 886.6,371.4 889.2,369.1 892.8,367.6 
		898.2,366.9 931.1,366.9 935.6,368.5 939.3,373 941,377.2 944,379.4 942.3,379.8 939.9,382 939.3,387.9 944.9,390.1 939.9,393.3 
		938.9,400.6 943.4,402.5 939.3,404.7 938.9,413.5 944.6,415.4 939.9,418 939.3,426.1 945.5,428.7 940.6,432.7 941,437.2 
		940.4,440.9 938.4,443.7 934.4,444.5 930.3,445.6 	"/>
	<polygon class="st19" points="893.8,402.5 893.9,404.2 895.4,405.7 897.7,405.9 938.2,405.9 939.9,405.9 942.3,405.3 943.2,404.2 
		944,402.5 942.3,403.6 940.4,404.2 897.7,404.2 895.6,404 894.9,402.5 	"/>
	<polygon class="st19" points="893.9,390.7 894.3,392.2 895.6,393.5 898.2,394 938.4,394 940.4,394 942.7,393.3 943.4,392.2 
		944.6,390.7 942.7,391.2 940.6,392.2 898.2,392.2 896.2,391.8 895.4,390.7 	"/>
	<polygon class="st19" points="893.8,379.4 893.9,381.1 895.4,382.2 897.7,382.8 938.2,382.8 939.9,382.8 942.3,382 943.2,381.1 
		944,379.4 942.3,380.4 940.4,381.1 897.7,381.1 895.6,380.5 894.9,379.4 	"/>
	<polygon class="st19" points="894.3,415.4 894.9,417.1 896.2,418.6 898.8,418.8 938.9,418.8 940.6,418.8 943.2,418 944,417.1 
		944.9,415.4 943.2,416.4 941,417.1 898.8,417.1 896.6,416.9 895.6,415.4 	"/>
	<polygon class="st19" points="894.9,429.3 895.4,431 896.6,432.5 899,432.7 939.3,432.7 941,432.7 943.4,431.7 944.6,431 
		945.5,429.3 943.4,430 941.6,431 899,431 897.1,430.6 896.2,429.3 	"/>
	<polygon class="st20" points="897.1,375.3 937.2,375.3 938.9,375.3 941.6,376 942.3,377 943.2,378.7 941.6,377.5 939.3,377 	"/>
	<polygon class="st20" points="897.9,386.2 938.2,386.2 939.9,386.2 942.3,387.3 943.2,387.9 944,389.5 942.3,389 940.4,387.9 	"/>
	<polygon class="st20" points="897.9,398.4 938.2,398.4 939.9,398.4 942.3,399.1 943.2,400 944,401.7 942.3,400.8 940.4,400 	"/>
	<polygon class="st20" points="898.2,411.9 938.4,411.9 940.4,411.9 942.7,412.6 943.4,413.5 944.6,415.2 942.7,414.1 940.6,413.5 	
		"/>
	<polygon class="st20" points="898.8,425 938.9,425 940.6,425 943.2,425.9 944,426.7 944.9,428.4 943.2,427.6 941,426.7 	"/>
	<polygon class="st18" points="888.7,442.6 888.9,444.3 890,445.6 892.6,446.2 933.1,446.2 934.8,446.2 937.2,445.4 938.2,444.3 
		938.9,442.6 937.2,443.7 935,444.3 892.6,444.3 890.6,443.9 889.8,442.6 	"/>
	<polygon class="st3" points="69.5,114.5 76.1,112.4 76.1,190.2 69.5,183.7 	"/>
	<rect x="146.8" y="91" class="st3" width="8.4" height="120"/>
	<rect x="315.1" y="91" class="st3" width="8.8" height="120"/>
	<rect x="492.3" y="91" class="st3" width="8.4" height="120"/>
	<path class="st6" d="M76.1,192.5"/>
	<path class="st6" d="M76.1,111.7"/>
	<path class="st6" d="M156.1,212.2"/>
	<path class="st6" d="M156.1,89.2"/>
	<path class="st6" d="M501.7,213.5"/>
	<path class="st6" d="M501.7,90.3"/>
	<rect x="658.8" y="229.4" class="st9" width="38.1" height="120.4"/>
	<rect x="683.4" y="228.5" class="st16" width="8.4" height="120.8"/>
	<polygon points="720.1,337.2 731.4,337.2 743.8,339.5 755.9,342.3 766.1,347 777.7,351.9 787.8,359.4 797.4,366.9 806,375.5 
		813.1,385 820.8,395.7 825.5,407 830,417.7 833.2,430 834.9,442.8 836,456.1 834.9,467.4 833.2,479.7 830,492.1 825.5,502.8 
		820.8,514 813.1,524.7 806,534.3 797.4,543.1 787.8,550.6 777.7,558.3 766.1,563 755.9,567.5 743.8,570.7 731.4,572.4 720.1,573.5 
		707.2,572.4 694.8,570.7 682.4,567.5 671.8,563 660.7,558.3 650.6,550.6 641.4,543.1 632.6,534.3 625.1,524.7 617.8,514 
		612.9,502.8 608.4,492.1 605.2,479.7 603.5,467.4 603.5,456.1 603.5,442.8 605.2,430 608.4,417.7 612.9,407 617.8,395.7 625.1,385 
		632.6,375.5 641.4,366.9 650.6,359.4 660.7,351.9 671.8,347 682.4,342.3 694.8,339.5 707.2,337.2 	"/>
	<polygon class="st21" points="790.2,455.7 790.1,449.5 789.1,443.2 787.8,437 786.1,431 783.5,425 780.5,419.4 777.1,414.1 
		773.2,409 768.9,404.5 764.2,400.2 759.1,396.3 753.7,392.9 748.1,390.1 742.1,387.9 735.9,386.2 729.7,384.9 723.3,384.3 
		717.1,383.9 710.6,384.5 704.4,385.4 698.2,387.1 692.4,389 686.4,391.6 681.1,394.6 675.7,398.4 670.8,402.3 666.1,406.8 
		662.2,411.5 658.4,416.5 655.1,422.2 652.6,427.8 650.4,433.8 648.7,440 647.6,446.2 647,452.7 647,459.1 647.6,465.3 648.7,471.5 
		650.4,477.7 652.6,483.7 655.1,489.5 658.4,494.9 662.2,500 666.1,505 670.8,509.4 675.7,513.5 681.1,516.9 686.4,520 692.4,522.9 
		698.2,524.7 704.4,526.2 710.6,527.4 717.1,527.5 723.3,527.5 729.7,526.8 735.9,525.7 742.1,524 748.1,521.4 753.7,518.5 
		759.1,515.2 764.2,511.6 768.9,507.3 773.2,502.4 777.1,497.4 780.5,492.1 783.5,486.7 786.1,480.9 787.8,474.7 789.1,468.5 
		790.1,462.3 	"/>
	<polygon class="st10" points="768.3,455.5 768.1,450.1 767.2,444.9 766.1,439.8 764.2,434.7 761.6,429.9 758.8,425.5 755.4,421.4 
		751.8,417.7 747.5,414.3 743,411.3 738.1,409 733.4,407 728.4,405.7 722.9,404.7 717.7,404.5 712.2,404.7 707.2,405.7 701.9,407 
		697.1,409 692.4,411.3 687.9,414.3 683.9,417.7 680,421.4 676.4,425.5 673.6,429.9 671.4,434.7 669.5,439.8 668,444.9 667.2,450.1 
		666.9,455.5 667.2,460.8 668,465.9 669.5,471.3 671.4,476 673.6,480.9 676.4,485.4 680,489.5 683.9,493.2 687.9,496.6 692.4,499.4 
		697.1,501.9 701.9,503.7 707.2,505 712.2,506 717.7,506.2 722.9,506 728.4,505 733.4,503.7 738.1,501.9 743,499.4 747.5,496.6 
		751.8,493.2 755.4,489.5 758.8,485.4 761.6,480.9 764.2,476 766.1,471.3 767.2,465.9 768.1,460.8 	"/>
	<polygon class="st17" points="758.6,454.6 758.2,450.1 757.4,445.4 755.9,440.9 754.1,436.4 751.4,432.5 748.6,428.7 745.6,425.4 
		741.9,422.2 737.6,419.7 733.4,417.7 728.9,416 724.4,415.2 719.6,414.7 714.9,414.9 710.4,415.4 705.9,416.9 701.4,418.6 
		697.1,420.9 693.5,423.7 689.8,426.7 686.8,430.4 684.1,434.4 681.9,438.7 680.2,443.2 679.1,447.7 678.5,452.4 678.5,457.2 
		679.1,461.7 680.2,466.4 681.9,470.9 684.1,474.9 686.8,478.8 689.8,482.5 693.5,485.9 697.1,488.4 701.4,490.6 705.9,492.7 
		710.4,493.8 714.9,494.5 719.6,494.5 724.4,494.4 728.9,493.2 733.4,491.7 737.6,489.9 741.9,487.2 745.6,484.2 748.6,480.9 
		751.4,477.1 754.1,473 755.9,468.7 757.4,464.2 758.2,459.5 	"/>
	<polygon class="st19" points="750.3,454.6 750.1,450.5 749.2,446.2 747.9,442.2 745.8,438.7 743.6,434.9 740.8,431.7 737.4,428.9 
		733.6,426.7 730.1,425 725.8,423.7 721.6,423.1 717.3,422.7 713.2,423.3 708.9,424.2 704.9,425.9 701.4,427.8 698,430.4 
		694.8,433.2 692.4,436.6 690.1,440.4 688.4,444.3 687.3,448.4 686.8,452.7 686.8,456.9 687.3,461.2 688.4,465.1 690.1,469 
		692.4,472.6 694.8,476 698,479.2 701.4,481.6 704.9,483.7 708.9,485 713.2,486.1 717.3,486.5 721.6,486.5 725.8,485.5 730.1,484.4 
		733.6,482.7 737.4,480.3 740.8,477.7 743.6,474.3 745.8,470.9 747.9,467 749.2,463 750.1,458.9 	"/>
	<polygon class="st11" points="744.7,455 744.7,452.9 744.1,450.7 743.8,448.4 743.2,446.2 742.1,444.3 741.3,442 739.8,440.4 
		738.5,438.3 737,436.6 735.3,435.3 733.4,434.2 731.4,432.7 729.7,431.7 727.4,430.6 725.2,430 722.9,429.5 720.7,429.3 
		718.4,429.3 716.2,429.3 714.3,429.5 711.7,430 709.8,430.6 707.6,431.7 705.5,432.7 703.6,434.2 701.9,435.3 699.9,436.6 
		698.8,438.3 697.4,440.4 695.9,442 694.8,444.3 694.1,446.2 693.5,448.4 692.9,450.7 692.6,452.9 692.6,455 692.6,457.2 
		692.9,459.5 693.5,461.7 694.1,463.6 694.8,465.9 695.9,467.5 697.4,469.8 698.8,471.5 699.9,473.2 701.9,474.7 703.6,476 
		705.5,477.1 707.6,478.2 709.8,479.2 711.7,479.7 714.3,480.3 716.2,480.5 718.4,480.9 720.7,480.5 722.9,480.3 725.2,479.7 
		727.4,479.2 729.7,478.2 731.4,477.1 733.4,476 735.3,474.7 737,473.2 738.5,471.5 739.8,469.8 741.3,467.5 742.1,465.9 
		743.2,463.6 743.8,461.7 744.1,459.5 744.7,457.2 	"/>
	<polygon class="st22" points="726.3,454.6 726.3,454 726.3,453.3 726.1,452.4 725.8,451.8 725.6,451 725.2,450.5 725,449.5 
		724.4,449 723.9,448.4 723.3,447.9 722.8,447.7 721.8,447.1 721.2,446.7 720.7,446.5 719.9,446.2 719,446 718.4,446 717.7,446 
		716.8,446 716.2,446 715.4,446.2 714.9,446.5 713.9,446.7 713.4,447.1 712.6,447.7 712.1,447.9 711.5,448.4 710.9,449 710.6,449.5 
		710.4,450.5 709.8,451 709.4,451.8 709.2,452.4 709.2,453.3 708.9,454 708.9,454.6 708.9,455.5 709.2,456.3 709.2,457.2 
		709.4,457.8 709.8,458.5 710.4,459.1 710.6,459.7 710.9,460.2 711.5,460.8 712.1,461.4 712.6,461.9 713.4,462.5 713.9,462.9 
		714.9,463 715.4,463.4 716.2,463.4 716.8,463.6 717.7,463.6 718.4,463.6 719,463.4 719.9,463.4 720.7,463 721.2,462.9 721.8,462.5 
		722.8,461.9 723.3,461.4 723.9,460.8 724.4,460.2 725,459.7 725.2,459.1 725.6,458.5 725.8,457.8 726.1,457.2 726.3,456.3 
		726.3,455.5 	"/>
	<polygon class="st10" points="723.3,454.6 722.9,452.9 722.2,451.2 720.7,449.9 719,449 717.3,448.8 715.4,449 713.9,449.9 
		712.6,451.2 711.7,452.9 711.5,454.6 711.7,456.7 712.6,458.4 713.9,459.5 715.4,460.2 717.3,460.6 719,460.2 720.7,459.5 
		722.2,458.4 722.9,456.7 	"/>
	<polygon points="289.8,303.7 302.8,303.7 316.8,306.3 330.9,309.7 342.5,314.9 355.8,320.5 367.1,328.8 377.8,337.4 387.9,347.5 
		396.3,358.6 404.8,370.8 410.2,383.7 415.4,395.7 418.8,409.8 420.9,424.2 422.2,439.2 420.9,452.2 418.8,466.4 415.4,480.5 
		410.2,492.9 404.8,505.6 396.3,518 387.9,528.7 377.8,538.8 367.1,547.2 355.8,556 342.5,561.3 330.9,566.7 316.8,570.1 
		302.8,572.4 289.8,573.5 275,572.4 260.8,570.1 246.7,566.7 234.9,561.3 221.9,556 210.5,547.2 200,538.8 189.9,528.7 181.1,518 
		173,505.6 167.4,492.9 161.9,480.5 158.9,466.4 156.7,452.2 156.7,439.2 156.7,424.2 158.9,409.8 161.9,395.7 167.4,383.7 
		173,370.8 181.1,358.6 189.9,347.5 200,337.4 210.5,328.8 221.9,320.5 234.9,314.9 246.7,309.7 260.8,306.3 275,303.7 	"/>
	<polygon class="st21" points="370.1,439.2 369.9,432.5 368.9,425.5 367.6,419.2 365.6,412.6 363.1,406.2 360.3,400.2 356.6,394.4 
		352.6,388.8 348.5,383.7 343.6,378.9 338.6,374.4 332.9,370.4 326.9,367 321.1,364 314.6,361.6 308.2,359.7 301.6,358.2 
		294.9,357.5 288.1,357.1 281.4,357.5 274.6,358.2 267.9,359.7 261.3,361.6 255.1,364 248.9,367 243.3,370.4 237.7,374.4 
		232.6,378.9 227.9,383.7 223.4,388.8 219.5,394.4 216.1,400.2 212.9,406.2 210.7,412.6 208.8,419.2 207.3,425.5 206.4,432.5 
		206.2,439.2 206.4,446 207.3,452.7 208.8,459.5 210.7,465.9 212.9,472 216.1,478.2 219.5,484.2 223.4,489.5 227.9,494.9 
		232.6,499.6 237.7,503.9 243.3,507.9 248.9,511.2 255.1,514.4 261.3,516.9 267.9,518.9 274.6,520.2 281.4,521.2 288.1,521.4 
		294.9,521.2 301.6,520.2 308.2,518.9 314.6,516.9 321.1,514.4 326.9,511.2 332.9,507.9 338.6,503.9 343.6,499.6 348.5,494.9 
		352.6,489.5 356.6,484.2 360.3,478.2 363.1,472 365.6,465.9 367.6,459.5 368.9,452.7 369.9,446 	"/>
	<polygon class="st10" points="345.1,438.7 344.8,433 344,427.2 342.5,421.6 340.8,416.4 338.2,411.3 335.4,406.2 332,401.7 
		328.1,397.4 323.9,393.5 319.4,390.1 314.4,387.3 309.3,384.9 303.9,382.8 298.2,381.5 292.6,380.9 287,380.5 281.4,380.9 
		275.8,381.5 270.1,382.8 264.7,384.9 259.6,387.3 254.9,390.1 250.1,393.5 245.9,397.4 242.2,401.7 238.8,406.2 235.8,411.3 
		233.6,416.4 231.5,421.6 230.2,427.2 229.2,433 229.1,438.7 229.2,444.3 230.2,449.9 231.5,455.5 233.6,460.8 235.8,465.9 
		238.8,470.9 242.2,475.4 245.9,479.7 250.1,483.7 254.9,487 259.6,489.9 264.7,492.3 270.1,494.4 275.8,495.7 281.4,496.6 
		287,496.8 292.6,496.6 298.2,495.7 303.9,494.4 309.3,492.3 314.4,489.9 319.4,487 323.9,483.7 328.1,479.7 332,475.4 335.4,470.9 
		338.2,465.9 340.8,460.8 342.5,455.5 344,449.9 344.8,444.3 	"/>
	<polygon class="st17" points="333.1,437.7 332.9,433 332.4,427.8 330.9,423.1 329,418.2 326.8,414.1 323.6,409.8 320.6,405.9 
		316.8,402.5 312.7,399.7 308.4,397.2 303.9,395.2 299.2,393.5 294.1,392.7 289.1,392.4 284.2,392.4 279.1,392.9 274.2,394.4 
		269.6,396.1 265.1,398.4 260.8,401.2 256.8,404.2 253.4,407.9 250.4,411.9 247.8,416 245.6,420.5 243.9,425.4 243.1,430.4 
		242.6,435.3 242.6,440.4 243.1,445.4 243.9,450.1 245.6,455 247.8,459.5 250.4,464 253.4,467.9 256.8,471.3 260.8,474.7 
		265.1,477.5 269.6,479.7 274.2,481.4 279.1,482.5 284.2,483.3 289.1,483.3 294.1,483.1 299.2,482 303.9,480.5 308.4,478.6 
		312.7,476 316.8,473 320.6,469.6 323.6,465.9 326.8,461.7 329,457.2 330.9,452.7 332.4,447.9 332.9,442.8 	"/>
	<polygon class="st19" points="324.1,437.7 323.9,433.2 323,428.9 321.9,424.8 320,420.5 317.8,416.9 314.9,413.2 311.6,410.2 
		307.8,407.4 304.2,405.1 299.9,403.4 295.8,402.3 291.3,401.4 286.8,401.4 282.3,401.7 277.8,402.9 273.5,404.2 269.6,406.2 
		265.8,408.7 262.4,411.5 259.4,414.9 256.8,418.6 254.6,422.5 253.2,426.7 252.1,431.2 251.6,435.5 251.6,440 252.1,444.5 
		253.2,449 254.6,452.9 256.8,456.9 259.4,460.6 262.4,464 265.8,467 269.6,469.2 273.5,471.5 277.8,473 282.3,473.7 286.8,474.3 
		291.3,474.1 295.8,473.5 299.9,472 304.2,470.4 307.8,468.1 311.6,465.7 314.9,462.5 317.8,458.9 320,455.2 321.9,451 323,446.7 
		323.9,442.2 	"/>
	<polygon class="st17" points="317.9,438.3 317.8,435.9 317.4,433 316.8,430.4 316.2,428.2 315.1,425.5 313.8,423.3 312.3,421.4 
		311,419.4 308.9,417.5 307.2,415.4 305,414.1 302.8,412.6 300.9,411.5 298.2,410.7 295.8,409.8 293.2,409.2 290.8,408.7 
		288.1,408.7 285.7,408.7 282.9,409.2 280.6,409.8 278,410.7 275.6,411.5 273.1,412.6 270.9,414.1 269,415.4 266.9,417.5 
		265.2,419.4 263.6,421.4 262.2,423.3 261.1,425.5 260,428.2 259.1,430.4 258.5,433 258.5,435.9 258.3,438.3 258.5,440.5 
		258.5,443.2 259.1,445.6 260,448.2 261.1,450.7 262.2,452.9 263.6,455 265.2,457.2 266.9,458.9 269,460.6 270.9,462.3 273.1,463.6 
		275.6,464.5 278,465.7 280.6,466.4 282.9,467 285.7,467.4 288.1,467.5 290.8,467.4 293.2,467 295.8,466.4 298.2,465.7 300.9,464.5 
		302.8,463.6 305,462.3 307.2,460.6 308.9,458.9 311,457.2 312.3,455 313.8,452.9 315.1,450.7 316.2,448.2 316.8,445.6 317.4,443.2 
		317.8,440.5 	"/>
	<polygon class="st22" points="297.1,437.7 296.9,437.2 296.9,436 296.9,435.3 296.6,434.4 296,433.6 295.8,432.7 295.2,432.1 
		294.7,431.2 294.1,430.6 293.6,430 292.6,429.5 292.1,428.9 291.3,428.7 290.4,428.4 289.8,428.2 288.7,427.8 287.9,427.8 
		287,427.6 286.2,427.8 285.3,427.8 284.6,428.2 283.6,428.4 282.9,428.7 281.9,428.9 281.4,429.5 280.6,430 280.1,430.6 
		279.5,431.2 278.9,432.1 278.6,432.7 278,433.6 277.8,434.4 277.4,435.3 277.2,436 277.2,437.2 276.9,437.7 277.2,438.7 
		277.2,439.8 277.4,440.5 277.8,441.5 278,442 278.6,443.2 278.9,443.7 279.5,444.3 280.1,445 280.6,445.6 281.4,446.2 281.9,446.7 
		282.9,447.1 283.6,447.3 284.6,447.7 285.3,447.9 286.2,447.9 287,447.9 287.9,447.9 288.7,447.9 289.8,447.7 290.4,447.3 
		291.3,447.1 292.1,446.7 292.6,446.2 293.6,445.6 294.1,445 294.7,444.3 295.2,443.7 295.8,443.2 296,442 296.6,441.5 296.9,440.5 
		296.9,439.8 296.9,438.7 	"/>
	<polygon class="st10" points="293.6,437.7 293.2,436 292.4,434.2 290.9,432.7 289.6,431.5 287.6,431 285.7,431 284,431.5 
		282.3,432.7 280.8,434.2 280.1,436 279.7,437.7 280.1,439.8 280.8,441.5 282.3,443.2 284,443.9 285.7,444.5 287.6,444.5 
		289.6,443.9 290.9,443.2 292.4,441.5 293.2,439.8 	"/>
</g>
</svg>
