<?xml version="1.0" encoding="utf-8"?>
<!-- Generator: Adobe Illustrator 27.1.1, SVG Export Plug-In . SVG Version: 6.00 Build 0)  -->
<svg version="1.1"
	 id="svg5233" xmlns:dc="http://purl.org/dc/elements/1.1/" xmlns:inkscape="http://www.inkscape.org/namespaces/inkscape" xmlns:cc="http://creativecommons.org/ns#" xmlns:sodipodi="http://sodipodi.sourceforge.net/DTD/sodipodi-0.dtd" xmlns:ns1="http://sozi.baierouge.fr" xmlns:rdf="http://www.w3.org/1999/02/22-rdf-syntax-ns#" xmlns:svg="http://www.w3.org/2000/svg"
	 xmlns="http://www.w3.org/2000/svg" xmlns:xlink="http://www.w3.org/1999/xlink" x="0px" y="0px" viewBox="0 0 772.2 670"
	 style="enable-background:new 0 0 772.2 670;" xml:space="preserve">
<style type="text/css">
	.st0{fill:#F8A84F;}
	.st1{fill:#F6414B;}
	.st2{fill:#FBC02D;}
	.st3{fill:#F85B4F;}
	.st4{fill:url(#path5780_00000047018989798171320580000011009182859395301273_);}
	.st5{fill:#F8C44F;}
</style>
<sodipodi:namedview  bordercolor="#666666" borderopacity="1.0" fit-margin-bottom="0" fit-margin-left="0" fit-margin-right="0" fit-margin-top="0" id="base" inkscape:current-layer="g6670" inkscape:cx="528.56558" inkscape:cy="347.72724" inkscape:document-units="px" inkscape:guide-bbox="true" inkscape:pageopacity="0.0" inkscape:pageshadow="2" inkscape:window-height="804" inkscape:window-maximized="1" inkscape:window-width="1152" inkscape:window-x="-4" inkscape:window-y="-4" inkscape:zoom="0.49497475" pagecolor="#ffffff" showgrid="false" showguides="true">
	</sodipodi:namedview>
<g id="layer1" transform="translate(1056.6 383.71)" inkscape:groupmode="layer" inkscape:label="Layer 1">
	<g id="g6670">
		<g id="g6815" transform="matrix(.43854 0 0 .43854 -573.03 -15.973)">
			<g id="g5803" transform="matrix(.88270 -.46995 .46995 .88270 98.037 86.632)">
				
					<path id="path5798" inkscape:connector-curvature="0" inkscape:transform-center-x="8.4651585" inkscape:transform-center-y="-11.377627" sodipodi:nodetypes="ccccccccc" class="st0" d="
					M430.1-486.1c-10.6,82.5-42.1,55.4-73.8,27.4c-47.3,36.1-81.1,43.7-74.8-32.6c-31.8-15.4-92.4-19.2-22.6-75.3
					c-25.2-71.2-7.5-89.5,37.3-74.6c11.3-78.5,45.6-48,77.7-27.6c44-25.5,71.9-22.5,66.2,40.3c62.3,3.4,71.4,29.2,31.3,75.7
					C505.9-475.3,469.2-479.3,430.1-486.1L430.1-486.1z"/>
				<path id="path5801" inkscape:connector-curvature="0" class="st1" d="M426.1-560.9c0,30.1-27.1,54.5-60.6,54.5
					c-33.5,0-60.6-24.4-60.6-54.5c0-30.1,27.1-54.5,60.6-54.5C398.9-615.4,426.1-591,426.1-560.9z"/>
			</g>
			<g id="g5794" transform="matrix(.88270 -.46995 .46995 .88270 -507.55 49.708)">
				
					<path id="path5773" inkscape:connector-curvature="0" inkscape:transform-center-x="-3.010614" inkscape:transform-center-y="-2.2232693" sodipodi:nodetypes="acacacacacscacacacaca" class="st2" d="
					M771.7,724.9c-5.4,37.8-114.5,7.1-114.5,7.1s109.4,66.9,81.7,99.8c-28,33.3-113.8-64.2-113.8-64.2s57.3,118.6,15.2,130.8
					c-43.8,12.7-59.3-123.1-59.3-123.1S558,911.6,515.9,894.8C475,878.4,550.2,767,550.2,767s-102,86.5-123.7,48
					c-22.1-39.2,107-82.2,107-82.2S393.7,746.6,403.2,695c4.9-26.6,118-11.5,118-11.5s-107.2-68.1-79-99.9
					c25.3-28.4,97.2,59.8,97.2,59.8S488.9,539.9,525.8,527c37.9-13.3,63.8,102.3,63.8,102.3s11.7-111.8,48.4-102.6
					c37.6,9.5-6,116.2-6,116.2s85.4-75.9,106.9-44c21.9,32.6-82.7,84.1-82.7,84.1S777.5,684.4,771.7,724.9L771.7,724.9z"/>
				<path id="path5776" inkscape:connector-curvature="0" class="st3" d="M631.9,703.9c0,26.2-19.4,47.5-43.4,47.5
					c-24,0-43.4-21.3-43.4-47.5s19.4-47.5,43.4-47.5C612.4,656.4,631.9,677.7,631.9,703.9z"/>
			</g>
			<g id="g5790" transform="matrix(.88270 -.46995 .46995 .88270 -770.24 -43.893)">
				
					<radialGradient id="path5780_00000060028510904104745930000009203111930797207682_" cx="-1445.7957" cy="344.7854" r="170.37" gradientTransform="matrix(0.6236 0.6267 0.3621 -1.1459 813.1869 1408.7758)" gradientUnits="userSpaceOnUse">
					<stop  offset="0" style="stop-color:#F68A11"/>
					<stop  offset="1" style="stop-color:#FCCA91"/>
				</radialGradient>
				
					<path id="path5780" inkscape:connector-curvature="0" inkscape:transform-center-x="-1.3612934" inkscape:transform-center-y="-1.2958651" sodipodi:nodetypes="cccccc" style="fill:url(#path5780_00000060028510904104745930000009203111930797207682_);" d="
					M180.9,168.2c9.6,94.4-16.4,149.1-146.2,88.1C-52.3,272.7-123.8,270-93.9,142.8C-123.2,65.9-123.8,2.2-24.8-15.9
					C47-94.2,98.4-62.4,143.5,3.8C227.9,31.6,268,76.1,180.9,168.2L180.9,168.2z"/>
				<path id="path5785" inkscape:connector-curvature="0" class="st5" d="M139.5,118.8c0,48.5-39.8,87.9-88.9,87.9
					s-88.9-39.3-88.9-87.9c0-48.5,39.8-87.9,88.9-87.9C99.7,30.9,139.5,70.3,139.5,118.8z"/>
			</g>
		</g>
	</g>
</g>
</svg>
