<svg id="Layer_1" data-name="Layer 1" xmlns="http://www.w3.org/2000/svg" viewBox="0 0 427.64 428.78"><defs><style>.cls-1{fill:#ffe636;}</style></defs><title>gear07</title><path class="cls-1" d="M1045.52,691.3,1082.2,718l28.71-23.69-19.26-41a168,168,0,0,0,17.41-24.59l44.87,5,12.86-35-37.09-26a180.34,180.34,0,0,0,2.75-30l41.1-18.18-6.4-37-44.87-4.13a185.58,185.58,0,0,0-12.86-26.92l-.54-.89h0l.42.77h0l.12.24h0l-1.2-2.21a10.71,10.71,0,0,0-1.2-1.56l-.89-.77-4.85,1,5.62-.12s1.68,2.46,1.68,2.58l.24-.24,26.92-35.66-23.93-29-41,18.85h0l-.24.12H1069l-.65-1c-.42.54-.42.54-.54.54h0l.66.9h0c-.12.12-.36,1.43,0,0l-4.43-1.44.66,3.77-1.14.54,2.21-1-4.12-2,1.79,3,1.68-4.13-1.8,3.89,6.88-3.11a175.43,175.43,0,0,0-24.29-17.71l4.55-45-35.12-13.28-25.43,36.91a180.54,180.54,0,0,0-30-3.11l-18.49-41.34L904.45,332l-3.65,45a172.14,172.14,0,0,0-27.34,12.39l-36.68-26.69-28.59,23.81,19.38,40.81a168,168,0,0,0-17.41,24.59L765.29,447l-12.74,35,37.09,25.9A168.43,168.43,0,0,0,787,538l-41.1,18.3,6.52,37,44.75,4a177.3,177.3,0,0,0,12.74,27.58l-26.26,36.43,24.05,29,40.56-19A176.22,176.22,0,0,0,873,689.09L868.67,734l35.12,13.16,25.49-36.91a175.46,175.46,0,0,0,30,3L978,754.66l36.79-6.1,3.53-44.87A166.09,166.09,0,0,0,1045.52,691.3Zm-191-64.37c-48.4-58.63-40.68-145,17.41-192.82s144.19-39.13,192.59,19.5,40.68,145-17.29,192.82S902.89,685.56,854.49,626.93Z" transform="translate(-745.91 -325.88)"/><path class="cls-1" d="M972.41,443.32c50.56,4.55,96.86,50.55,91.06,109.78-5.56,58.1-61.92,96.21-111.58,91-54-5.62-96.5-57.61-90.76-111.34A101.29,101.29,0,0,1,972.41,443.32Zm60.49,107c5.56-42.78-28.84-73.59-63.3-77-39.37-3.88-74,23.7-78,62.52s24.59,73.59,63.35,78.26C987.43,617.84,1030.33,593.73,1032.9,550.29Z" transform="translate(-745.91 -325.88)"/></svg>