<svg id="Layer_1" data-name="Layer 1" xmlns="http://www.w3.org/2000/svg" viewBox="0 0 633.2 633.97"><defs><style>.cls-1{fill:#f9a22d;}.cls-2{fill:#ffe636;}</style></defs><title>gear09</title><g id="Layer_1-2" data-name="Layer 1-2"><g id="Layer_2-2" data-name="Layer 2-2"><g id="Layer_1-2-2" data-name="Layer 1-2-2"><path class="cls-1" d="M962.22,222.61l20.2,1.21h3.23c8.69,0,8.89,0,10.1,8.84,3.49,22.93,7,45.81,10.1,68.68.71,4.8,2.33,6.06,7,6.92a165.5,165.5,0,0,1,44.49,15.15c5.76,2.73,11.87,5.71,17.43,8.18,20.7-18.08,40.9-36.41,61.4-54.44a351.44,351.44,0,0,1,68.28,60.91c2.17,2.62,1.82,4,0,6.71-14.69,19.29-29.29,39.09-44,58.43a6.73,6.73,0,0,0-.6,7.83q12.08,23.33,23.28,46.86a74.37,74.37,0,0,1,3.94,13,5,5,0,0,0,5.45,4.09c18,.81,36.11,1.67,53.58,2.73a233.3,233.3,0,0,1,24,1.26,303,303,0,0,1,4.09,96.46l-27.57,4c-16.57,2.27-33.13,4.59-49.9,6.67a5.34,5.34,0,0,0-5.5,5A216.26,216.26,0,0,1,1170.33,651a6.2,6.2,0,0,0,1.11,5.45c16.32,17.93,32.58,35.76,49.09,53.48,1.41,1.52,2.68,3.13,4.34,5.05-19.24,24.95-37.72,50.5-63.53,70.7-14.59-10.7-28.73-20.9-42.87-31.66-6.57-5.05-13.13-10.56-20.2-15.76a6.42,6.42,0,0,0-6-.65,198.22,198.22,0,0,1-60.6,29.08,5.71,5.71,0,0,0-4.9,6.42c-.71,24.49-2.27,48.68-3.48,73.17a5.77,5.77,0,0,1-3.44,4.25,328.49,328.49,0,0,1-89.23,5,6,6,0,0,1-3.39-3.69c-3.73-23.58-7.42-47.17-10.55-70.7a8.63,8.63,0,0,0-8.13-8.84,173,173,0,0,1-56.31-19.9,8.34,8.34,0,0,0-11.67,1.32h0c-18,17.22-36.56,33.73-55,50.5a286.84,286.84,0,0,1-70.35-64.49C731.43,718,747.54,696.61,764,675.2a216.14,216.14,0,0,1-33.58-70.4l-58.73-2.93c-5.66,0-11.72-.86-17.37-1.06a4.54,4.54,0,0,1-5-3.89,1.14,1.14,0,0,1,0-.45,259.18,259.18,0,0,1-4.6-84.64c.56-4.14,2.07-5.61,5.91-6.16l62.07-9.5,13.48-2a208.37,208.37,0,0,1,24.49-66.4c1.92-3,.91-5.05-1.26-7.48L697.14,363a323.84,323.84,0,0,1,59.59-67.52,4.76,4.76,0,0,1,6.72,0h0l.3.31c19.14,14.44,38.18,28.68,57.07,43.12a8.38,8.38,0,0,0,11.21.66c16-8.89,32.52-16.92,49.14-24.9a82.26,82.26,0,0,1,15.5-4.14l.71-26.46c.86-16.87,2.12-33.83,3.08-50.5,0-3.43,1.31-5,4.74-5,6.12-1.31,12.28-2.22,18.39-3.18a64.36,64.36,0,0,0,6.26-1.57C940.4,223.57,951.06,223.07,962.22,222.61Zm-10.1,130.8c-97.82-3.49-183,94.38-177.26,192.76C778,649,863.92,729.85,966.76,726.71s183.68-89.06,180.54-191.9h0V529.4C1143,426.48,1046.45,341.64,952.12,353.41Z" transform="translate(-643.05 -222.61)"/><path class="cls-2" d="M953.53,385.53c77.47-4.6,157.67,54.69,162.36,145.64,4.3,89.13-72.26,159-148.32,162.51-82.92,3.64-159.23-65.6-162.15-147.86a154.28,154.28,0,0,1,148-160.29Zm130.65,147.36c-1.42-75.2-68.48-119.64-128.93-116.66a123,123,0,0,0-118.37,127.5v0h0a125.75,125.75,0,0,0,129,119.08C1023,661.06,1090.84,608.39,1084.18,532.89Z" transform="translate(-643.05 -222.61)"/></g></g></g></svg>