<?xml version="1.0" encoding="utf-8"?>
<!-- Generator: Adobe Illustrator 26.0.2, SVG Export Plug-In . SVG Version: 6.00 Build 0)  -->
<svg version="1.1" id="Layer_1" xmlns="http://www.w3.org/2000/svg" xmlns:xlink="http://www.w3.org/1999/xlink" x="0px" y="0px"
	 viewBox="0 0 200 200" style="enable-background:new 0 0 200 200;" xml:space="preserve">
<style type="text/css">
	.st0{fill:#9B9359;}
</style>
<path class="st0" d="M121.56,11.18c0,0-4.93,2.55-4.93,2.55c-1.55,0.18-2.88-0.39-4.93-1.27c-1.27-0.55-2.08-1.06-2.46-1.27
	c-1.82-1.03-4.12-1.22-11.09,0c-5.67,0.99-8.5,1.49-11.09,2.55c-4.43,1.81-7.43,4.12-8.62,5.09c-3.18,2.59-5.09,5.11-5.54,5.73
	c-1.24,1.68-2.08,3.26-3.7,6.37c-0.96,1.84-2.26,4.44-3.7,7.64l3.08,3.18l0.6-0.62C72.87,34.71,75.52,26,84.34,25.7
	c1.27-0.04,2.29,0.31,3.06,0.91c0.58,0.29,1.68,0.99,2.13,2.39c0.37,1.14,0.12,2.15,0,2.55v10.19l1.23,1.27v40.74l-2.46,2.55v20.37
	l-1.19,8.63c-0.01,0.23-0.03,0.46-0.04,0.69v18.69l1.23,8.91v24.19c0,5.09,0,5.09,0,5.09c-0.16,2.03-0.46,3.27,0,5.09
	c0.08,0.31,0.16,0.61,0.24,0.88c1.69,0.79,3.49,1.65,5.2,1.72c0.07,0,0.15,0.01,0.22,0.02c0.16-0.03,0.32-0.05,0.5-0.07
	c1.21-0.16,0.26,0.06,7.39,0c1.32-0.01,4.12-0.06,6.16-1.27c0.38-0.23,0.92-0.61,1.23-1.27c0.49-1.05,0.11-2.19,0-2.55
	c-0.39-1.28-0.67-5.1-1.23-12.73c-0.13-1.81,0.05-0.56,0-10.19c-0.03-5.7-0.09-5.89,0-7.64c0.25-4.93,0.85-5.48,1.23-10.19
	c0.13-1.61,0.02-1.05,0-11.46c-0.01-2.38-0.01-4.24-0.01-6.08c-0.77-5.92-0.82-11.91-1.05-17.91c-0.09-0.77-0.15-1.65-0.17-2.75
	c-0.05-2.86-0.08-4.29,0-5.09c0.17-1.73,0.43-2.67,0-3.82c-0.49-1.3-1.59-2.08-2.46-2.55V43.01l1.23-2.55c-0.39-2.7-0.22-4.9,0-6.37
	c0.41-2.73,0.74-4.99,2.46-6.37c0.8-0.63,2.17-0.85,4.93-1.27c3.08-0.48,4.29-0.2,4.93,0c1.11,0.34,1.93,0.87,2.46,1.27l1.06,0.27
	c2.46,0.05,4.91-0.28,7.38-0.37v-17.3L121.56,11.18z"/>
</svg>
