<?xml version="1.0" encoding="utf-8"?>
<!-- Generator: Adobe Illustrator 27.1.1, SVG Export Plug-In . SVG Version: 6.00 Build 0)  -->
<svg version="1.1" id="Layer_1" xmlns:serif="http://www.serif.com/"
	 xmlns="http://www.w3.org/2000/svg" xmlns:xlink="http://www.w3.org/1999/xlink" x="0px" y="0px" viewBox="0 0 371.4 414.8"
	 style="enable-background:new 0 0 371.4 414.8;" xml:space="preserve">
<style type="text/css">
	.st0{fill-rule:evenodd;clip-rule:evenodd;fill:#79CCCA;}
	.st1{fill-rule:evenodd;clip-rule:evenodd;fill:#929396;}
	.st2{fill-rule:evenodd;clip-rule:evenodd;fill:#8BEAE5;}
	.st3{fill-rule:evenodd;clip-rule:evenodd;fill:#3D9391;}
</style>
<path class="st0" d="M169,264.1v144.4H16.5V264.1H169z M143.7,264.7H74V338h69.7V264.7z"/>
<path class="st1" d="M185.7,250.5v167H5.8v-167H185.7z M133,273.5H63.3v73.4H133V273.5z"/>
<path class="st2" d="M185.7,250.5v167H5.8v-167H185.7z M133,273.5H63.3v73.4H133V273.5z"/>
<g transform="matrix(1,0,0,1,41.9488,0)">
	<path class="st2" d="M0.9,76.1h52.9V64.6H85V52.4h58.8v35.1H0.9V76.1z"/>
</g>
<rect x="65.6" y="176.7" class="st0" width="109.8" height="22.4"/>
<g transform="matrix(1,0,0,1,7.58262,-206.412)">
	<path class="st2" d="M183.9,299.7v167H4v-167H183.9z M131.2,322.7H61.5v73.4h69.7V322.7z"/>
</g>
<path class="st2" d="M203.2,136.8h18v9h22v43.9H311v13.6h17v12.8h17.5v9h18v9h2v26.1H185.7V127.8h17.5V136.8z"/>
<path class="st2" d="M365.6,250.5v171.6H185.7V250.5H365.6z M301.8,300.5h-58.2v117h58.2V300.5z"/>
<g transform="matrix(1,0,0,0.823816,-10.0156,249.71)">
	<rect x="10" y="-196.9" class="st3" width="11.6" height="394.3"/>
</g>
<g transform="matrix(0.429543,0.903046,-0.470919,0.223997,831.584,398.686)">
	
		<rect x="-734.5" y="976.2" transform="matrix(2.519709e-06 1 -1 2.519709e-06 355.562 1618.9507)" class="st3" width="205.6" height="22.1"/>
</g>
<g transform="matrix(0.428935,-0.903335,0.471069,0.22368,-23.2302,964.143)">
	
		<rect x="948.7" y="-432.6" transform="matrix(-1 2.532367e-06 -2.532367e-06 -1 1908.8589 -470.8155)" class="st3" width="11.6" height="394.3"/>
</g>
<g transform="matrix(1,0,0,0.823816,226.205,249.71)">
	<rect x="-46.3" y="-196.9" class="st3" width="11.6" height="394.3"/>
</g>
<g transform="matrix(1,0,0,0.823816,462.425,249.71)">
	<rect x="-102.6" y="-196.9" class="st3" width="11.6" height="394.3"/>
</g>
<g transform="matrix(6.12323e-17,-1,0.912545,5.58773e-17,-518.071,1517.63)">
	
		<rect x="1087.2" y="764.9" transform="matrix(-2.535182e-06 -1 1 -2.535182e-06 495.9471 2038.3597)" class="st3" width="359.8" height="12.7"/>
</g>
<g transform="matrix(6.12323e-17,-1,0.912545,5.58773e-17,-518.071,1311.22)">
	
		<rect x="1038" y="764.9" transform="matrix(-2.535182e-06 -1 1 -2.535182e-06 446.7463 1989.1591)" class="st3" width="359.8" height="12.7"/>
</g>
</svg>
