<svg xmlns="http://www.w3.org/2000/svg" viewBox="0 0 1366 768"><defs><style>.cls-1{fill:#f7f0dd;}.cls-2{fill:#fff;}</style></defs><g id="Layer_1" data-name="Layer 1"><rect class="cls-1" width="1366" height="768"/></g><g id="Layer_4" data-name="Layer 4"><ellipse class="cls-2" cx="34.11" cy="43.8" rx="5.33" ry="5.83"/><ellipse class="cls-2" cx="34.11" cy="102.11" rx="5.33" ry="5.83"/><ellipse class="cls-2" cx="34.11" cy="160.42" rx="5.33" ry="5.83"/><ellipse class="cls-2" cx="34.11" cy="218.73" rx="5.33" ry="5.83"/><ellipse class="cls-2" cx="34.11" cy="277.04" rx="5.33" ry="5.83"/><ellipse class="cls-2" cx="87.05" cy="43.8" rx="5.33" ry="5.83"/><ellipse class="cls-2" cx="87.05" cy="102.11" rx="5.33" ry="5.83"/><ellipse class="cls-2" cx="87.05" cy="160.42" rx="5.33" ry="5.83"/><ellipse class="cls-2" cx="87.05" cy="218.73" rx="5.33" ry="5.83"/><ellipse class="cls-2" cx="87.05" cy="277.04" rx="5.33" ry="5.83"/><ellipse class="cls-2" cx="139.99" cy="43.8" rx="5.33" ry="5.83"/><ellipse class="cls-2" cx="139.99" cy="102.11" rx="5.33" ry="5.83"/><ellipse class="cls-2" cx="139.99" cy="160.42" rx="5.33" ry="5.83"/><ellipse class="cls-2" cx="139.99" cy="218.73" rx="5.33" ry="5.83"/><ellipse class="cls-2" cx="139.99" cy="277.04" rx="5.33" ry="5.83"/><ellipse class="cls-2" cx="194.07" cy="43.8" rx="5.33" ry="5.83"/><ellipse class="cls-2" cx="194.07" cy="102.11" rx="5.33" ry="5.83"/><ellipse class="cls-2" cx="194.07" cy="160.42" rx="5.33" ry="5.83"/><ellipse class="cls-2" cx="194.07" cy="218.73" rx="5.33" ry="5.83"/><ellipse class="cls-2" cx="194.07" cy="277.04" rx="5.33" ry="5.83"/><ellipse class="cls-2" cx="247.01" cy="43.8" rx="5.33" ry="5.83"/><ellipse class="cls-2" cx="247.01" cy="102.11" rx="5.33" ry="5.83"/><ellipse class="cls-2" cx="247.01" cy="160.42" rx="5.33" ry="5.83"/><ellipse class="cls-2" cx="247.01" cy="218.73" rx="5.33" ry="5.83"/><ellipse class="cls-2" cx="247.01" cy="277.04" rx="5.33" ry="5.83"/><ellipse class="cls-2" cx="299.95" cy="43.8" rx="5.33" ry="5.83"/><ellipse class="cls-2" cx="299.95" cy="102.11" rx="5.33" ry="5.83"/><ellipse class="cls-2" cx="299.95" cy="160.42" rx="5.33" ry="5.83"/><ellipse class="cls-2" cx="299.95" cy="218.73" rx="5.33" ry="5.83"/><ellipse class="cls-2" cx="299.95" cy="277.04" rx="5.33" ry="5.83"/><ellipse class="cls-2" cx="354.41" cy="43.8" rx="5.33" ry="5.83"/><ellipse class="cls-2" cx="354.41" cy="102.11" rx="5.33" ry="5.83"/><ellipse class="cls-2" cx="354.41" cy="160.42" rx="5.33" ry="5.83"/><ellipse class="cls-2" cx="354.41" cy="218.73" rx="5.33" ry="5.83"/><ellipse class="cls-2" cx="354.41" cy="277.04" rx="5.33" ry="5.83"/><ellipse class="cls-2" cx="407.34" cy="43.8" rx="5.33" ry="5.83"/><ellipse class="cls-2" cx="407.34" cy="102.11" rx="5.33" ry="5.83"/><ellipse class="cls-2" cx="407.34" cy="160.42" rx="5.33" ry="5.83"/><ellipse class="cls-2" cx="407.34" cy="218.73" rx="5.33" ry="5.83"/><ellipse class="cls-2" cx="407.34" cy="277.04" rx="5.33" ry="5.83"/><ellipse class="cls-2" cx="460.28" cy="43.8" rx="5.33" ry="5.83"/><ellipse class="cls-2" cx="460.28" cy="102.11" rx="5.33" ry="5.83"/><ellipse class="cls-2" cx="460.28" cy="160.42" rx="5.33" ry="5.83"/><ellipse class="cls-2" cx="460.28" cy="218.73" rx="5.33" ry="5.83"/><ellipse class="cls-2" cx="460.28" cy="277.04" rx="5.33" ry="5.83"/><ellipse class="cls-2" cx="33.65" cy="335.31" rx="5.33" ry="5.83"/><ellipse class="cls-2" cx="33.65" cy="393.62" rx="5.33" ry="5.83"/><ellipse class="cls-2" cx="33.65" cy="451.93" rx="5.33" ry="5.83"/><ellipse class="cls-2" cx="33.65" cy="510.24" rx="5.33" ry="5.83"/><ellipse class="cls-2" cx="33.65" cy="568.55" rx="5.33" ry="5.83"/><ellipse class="cls-2" cx="86.58" cy="335.31" rx="5.33" ry="5.83"/><ellipse class="cls-2" cx="86.58" cy="393.62" rx="5.33" ry="5.83"/><ellipse class="cls-2" cx="86.58" cy="451.93" rx="5.33" ry="5.83"/><ellipse class="cls-2" cx="86.58" cy="510.24" rx="5.33" ry="5.83"/><ellipse class="cls-2" cx="86.58" cy="568.55" rx="5.33" ry="5.83"/><ellipse class="cls-2" cx="139.52" cy="335.31" rx="5.33" ry="5.83"/><ellipse class="cls-2" cx="139.52" cy="393.62" rx="5.33" ry="5.83"/><ellipse class="cls-2" cx="139.52" cy="451.93" rx="5.33" ry="5.83"/><ellipse class="cls-2" cx="139.52" cy="510.24" rx="5.33" ry="5.83"/><ellipse class="cls-2" cx="139.52" cy="568.55" rx="5.33" ry="5.83"/><ellipse class="cls-2" cx="193.6" cy="335.31" rx="5.33" ry="5.83"/><ellipse class="cls-2" cx="193.6" cy="393.62" rx="5.33" ry="5.83"/><ellipse class="cls-2" cx="193.6" cy="451.93" rx="5.33" ry="5.83"/><ellipse class="cls-2" cx="193.6" cy="510.24" rx="5.33" ry="5.83"/><ellipse class="cls-2" cx="193.6" cy="568.55" rx="5.33" ry="5.83"/><ellipse class="cls-2" cx="246.54" cy="335.31" rx="5.33" ry="5.83"/><ellipse class="cls-2" cx="246.54" cy="393.62" rx="5.33" ry="5.83"/><ellipse class="cls-2" cx="246.54" cy="451.93" rx="5.33" ry="5.83"/><ellipse class="cls-2" cx="246.54" cy="510.24" rx="5.33" ry="5.83"/><ellipse class="cls-2" cx="246.54" cy="568.55" rx="5.33" ry="5.83"/><ellipse class="cls-2" cx="299.48" cy="335.31" rx="5.33" ry="5.83"/><ellipse class="cls-2" cx="299.48" cy="393.62" rx="5.33" ry="5.83"/><ellipse class="cls-2" cx="299.48" cy="451.93" rx="5.33" ry="5.83"/><ellipse class="cls-2" cx="299.48" cy="510.24" rx="5.33" ry="5.83"/><ellipse class="cls-2" cx="299.48" cy="568.55" rx="5.33" ry="5.83"/><ellipse class="cls-2" cx="353.94" cy="335.31" rx="5.33" ry="5.83"/><ellipse class="cls-2" cx="353.94" cy="393.62" rx="5.33" ry="5.83"/><ellipse class="cls-2" cx="353.94" cy="451.93" rx="5.33" ry="5.83"/><ellipse class="cls-2" cx="353.94" cy="510.24" rx="5.33" ry="5.83"/><ellipse class="cls-2" cx="353.94" cy="568.55" rx="5.33" ry="5.83"/><ellipse class="cls-2" cx="406.87" cy="335.31" rx="5.33" ry="5.83"/><ellipse class="cls-2" cx="406.87" cy="393.62" rx="5.33" ry="5.83"/><ellipse class="cls-2" cx="406.87" cy="451.93" rx="5.33" ry="5.83"/><ellipse class="cls-2" cx="406.87" cy="510.24" rx="5.33" ry="5.83"/><ellipse class="cls-2" cx="406.87" cy="568.55" rx="5.33" ry="5.83"/><ellipse class="cls-2" cx="459.81" cy="335.31" rx="5.33" ry="5.83"/><ellipse class="cls-2" cx="459.81" cy="393.62" rx="5.33" ry="5.83"/><ellipse class="cls-2" cx="459.81" cy="451.93" rx="5.33" ry="5.83"/><ellipse class="cls-2" cx="459.81" cy="510.24" rx="5.33" ry="5.83"/><ellipse class="cls-2" cx="459.81" cy="568.55" rx="5.33" ry="5.83"/><ellipse class="cls-2" cx="518.49" cy="43.75" rx="5.33" ry="5.83"/><ellipse class="cls-2" cx="518.49" cy="102.06" rx="5.33" ry="5.83"/><ellipse class="cls-2" cx="518.49" cy="160.37" rx="5.33" ry="5.83"/><ellipse class="cls-2" cx="518.49" cy="218.69" rx="5.33" ry="5.83"/><ellipse class="cls-2" cx="518.49" cy="277" rx="5.33" ry="5.83"/><ellipse class="cls-2" cx="571.43" cy="43.75" rx="5.33" ry="5.83"/><ellipse class="cls-2" cx="571.43" cy="102.06" rx="5.33" ry="5.83"/><ellipse class="cls-2" cx="571.43" cy="160.37" rx="5.33" ry="5.83"/><ellipse class="cls-2" cx="571.43" cy="218.69" rx="5.33" ry="5.83"/><ellipse class="cls-2" cx="571.43" cy="277" rx="5.33" ry="5.83"/><ellipse class="cls-2" cx="624.36" cy="43.75" rx="5.33" ry="5.83"/><ellipse class="cls-2" cx="624.36" cy="102.06" rx="5.33" ry="5.83"/><ellipse class="cls-2" cx="624.36" cy="160.37" rx="5.33" ry="5.83"/><ellipse class="cls-2" cx="624.36" cy="218.69" rx="5.33" ry="5.83"/><ellipse class="cls-2" cx="624.36" cy="277" rx="5.33" ry="5.83"/><ellipse class="cls-2" cx="678.44" cy="43.75" rx="5.33" ry="5.83"/><ellipse class="cls-2" cx="678.44" cy="102.06" rx="5.33" ry="5.83"/><ellipse class="cls-2" cx="678.44" cy="160.37" rx="5.33" ry="5.83"/><ellipse class="cls-2" cx="678.44" cy="218.69" rx="5.33" ry="5.83"/><ellipse class="cls-2" cx="678.44" cy="277" rx="5.33" ry="5.83"/><ellipse class="cls-2" cx="731.38" cy="43.75" rx="5.33" ry="5.83"/><ellipse class="cls-2" cx="731.38" cy="102.06" rx="5.33" ry="5.83"/><ellipse class="cls-2" cx="731.38" cy="160.37" rx="5.33" ry="5.83"/><ellipse class="cls-2" cx="731.38" cy="218.69" rx="5.33" ry="5.83"/><ellipse class="cls-2" cx="731.38" cy="277" rx="5.33" ry="5.83"/><ellipse class="cls-2" cx="784.32" cy="43.75" rx="5.33" ry="5.83"/><ellipse class="cls-2" cx="784.32" cy="102.06" rx="5.33" ry="5.83"/><ellipse class="cls-2" cx="784.32" cy="160.37" rx="5.33" ry="5.83"/><ellipse class="cls-2" cx="784.32" cy="218.69" rx="5.33" ry="5.83"/><ellipse class="cls-2" cx="784.32" cy="277" rx="5.33" ry="5.83"/><ellipse class="cls-2" cx="838.78" cy="43.75" rx="5.33" ry="5.83"/><ellipse class="cls-2" cx="838.78" cy="102.06" rx="5.33" ry="5.83"/><ellipse class="cls-2" cx="838.78" cy="160.37" rx="5.33" ry="5.83"/><ellipse class="cls-2" cx="838.78" cy="218.69" rx="5.33" ry="5.83"/><ellipse class="cls-2" cx="838.78" cy="277" rx="5.33" ry="5.83"/><ellipse class="cls-2" cx="891.72" cy="43.75" rx="5.33" ry="5.83"/><ellipse class="cls-2" cx="891.72" cy="102.06" rx="5.33" ry="5.83"/><ellipse class="cls-2" cx="891.72" cy="160.37" rx="5.33" ry="5.83"/><ellipse class="cls-2" cx="891.72" cy="218.69" rx="5.33" ry="5.83"/><ellipse class="cls-2" cx="891.72" cy="277" rx="5.33" ry="5.83"/><ellipse class="cls-2" cx="944.65" cy="43.75" rx="5.33" ry="5.83"/><ellipse class="cls-2" cx="944.65" cy="102.06" rx="5.33" ry="5.83"/><ellipse class="cls-2" cx="944.65" cy="160.37" rx="5.33" ry="5.83"/><ellipse class="cls-2" cx="944.65" cy="218.69" rx="5.33" ry="5.83"/><ellipse class="cls-2" cx="944.65" cy="277" rx="5.33" ry="5.83"/><ellipse class="cls-2" cx="518.42" cy="335.1" rx="5.33" ry="5.83"/><ellipse class="cls-2" cx="518.42" cy="393.41" rx="5.33" ry="5.83"/><ellipse class="cls-2" cx="518.42" cy="451.72" rx="5.33" ry="5.83"/><ellipse class="cls-2" cx="518.42" cy="510.04" rx="5.33" ry="5.83"/><ellipse class="cls-2" cx="518.42" cy="568.35" rx="5.33" ry="5.83"/><ellipse class="cls-2" cx="571.36" cy="335.1" rx="5.33" ry="5.83"/><ellipse class="cls-2" cx="571.36" cy="393.41" rx="5.33" ry="5.83"/><ellipse class="cls-2" cx="571.36" cy="451.72" rx="5.33" ry="5.83"/><ellipse class="cls-2" cx="571.36" cy="510.04" rx="5.33" ry="5.83"/><ellipse class="cls-2" cx="571.36" cy="568.35" rx="5.33" ry="5.83"/><ellipse class="cls-2" cx="624.29" cy="335.1" rx="5.33" ry="5.83"/><ellipse class="cls-2" cx="624.29" cy="393.41" rx="5.33" ry="5.83"/><ellipse class="cls-2" cx="624.29" cy="451.72" rx="5.33" ry="5.83"/><ellipse class="cls-2" cx="624.29" cy="510.04" rx="5.33" ry="5.83"/><ellipse class="cls-2" cx="624.29" cy="568.35" rx="5.33" ry="5.83"/><ellipse class="cls-2" cx="678.37" cy="335.1" rx="5.33" ry="5.83"/><ellipse class="cls-2" cx="678.37" cy="393.41" rx="5.33" ry="5.83"/><ellipse class="cls-2" cx="678.37" cy="451.72" rx="5.33" ry="5.83"/><ellipse class="cls-2" cx="678.37" cy="510.04" rx="5.33" ry="5.83"/><ellipse class="cls-2" cx="678.37" cy="568.35" rx="5.33" ry="5.83"/><ellipse class="cls-2" cx="731.31" cy="335.1" rx="5.33" ry="5.83"/><ellipse class="cls-2" cx="731.31" cy="393.41" rx="5.33" ry="5.83"/><ellipse class="cls-2" cx="731.31" cy="451.72" rx="5.33" ry="5.83"/><ellipse class="cls-2" cx="731.31" cy="510.04" rx="5.33" ry="5.83"/><ellipse class="cls-2" cx="731.31" cy="568.35" rx="5.33" ry="5.83"/><ellipse class="cls-2" cx="784.25" cy="335.1" rx="5.33" ry="5.83"/><ellipse class="cls-2" cx="784.25" cy="393.41" rx="5.33" ry="5.83"/><ellipse class="cls-2" cx="784.25" cy="451.72" rx="5.33" ry="5.83"/><ellipse class="cls-2" cx="784.25" cy="510.04" rx="5.33" ry="5.83"/><ellipse class="cls-2" cx="784.25" cy="568.35" rx="5.33" ry="5.83"/><ellipse class="cls-2" cx="838.71" cy="335.1" rx="5.33" ry="5.83"/><ellipse class="cls-2" cx="838.71" cy="393.41" rx="5.33" ry="5.83"/><ellipse class="cls-2" cx="838.71" cy="451.72" rx="5.33" ry="5.83"/><ellipse class="cls-2" cx="838.71" cy="510.04" rx="5.33" ry="5.83"/><ellipse class="cls-2" cx="838.71" cy="568.35" rx="5.33" ry="5.83"/><ellipse class="cls-2" cx="891.65" cy="335.1" rx="5.33" ry="5.83"/><ellipse class="cls-2" cx="891.65" cy="393.41" rx="5.33" ry="5.83"/><ellipse class="cls-2" cx="891.65" cy="451.72" rx="5.33" ry="5.83"/><ellipse class="cls-2" cx="891.65" cy="510.04" rx="5.33" ry="5.83"/><ellipse class="cls-2" cx="891.65" cy="568.35" rx="5.33" ry="5.83"/><ellipse class="cls-2" cx="944.59" cy="335.1" rx="5.33" ry="5.83"/><ellipse class="cls-2" cx="944.59" cy="393.41" rx="5.33" ry="5.83"/><ellipse class="cls-2" cx="944.59" cy="451.72" rx="5.33" ry="5.83"/><ellipse class="cls-2" cx="944.59" cy="510.04" rx="5.33" ry="5.83"/><ellipse class="cls-2" cx="944.59" cy="568.35" rx="5.33" ry="5.83"/><ellipse class="cls-2" cx="1000.73" cy="43.65" rx="5.33" ry="5.83"/><ellipse class="cls-2" cx="1000.73" cy="101.96" rx="5.33" ry="5.83"/><ellipse class="cls-2" cx="1000.73" cy="160.27" rx="5.33" ry="5.83"/><ellipse class="cls-2" cx="1000.73" cy="218.58" rx="5.33" ry="5.83"/><ellipse class="cls-2" cx="1000.73" cy="276.89" rx="5.33" ry="5.83"/><ellipse class="cls-2" cx="1053.67" cy="43.65" rx="5.33" ry="5.83"/><ellipse class="cls-2" cx="1053.67" cy="101.96" rx="5.33" ry="5.83"/><ellipse class="cls-2" cx="1053.67" cy="160.27" rx="5.33" ry="5.83"/><ellipse class="cls-2" cx="1053.67" cy="218.58" rx="5.33" ry="5.83"/><ellipse class="cls-2" cx="1053.67" cy="276.89" rx="5.33" ry="5.83"/><ellipse class="cls-2" cx="1000.66" cy="335" rx="5.33" ry="5.83"/><ellipse class="cls-2" cx="1000.66" cy="393.31" rx="5.33" ry="5.83"/><ellipse class="cls-2" cx="1000.66" cy="451.62" rx="5.33" ry="5.83"/><ellipse class="cls-2" cx="1000.66" cy="509.93" rx="5.33" ry="5.83"/><ellipse class="cls-2" cx="1000.66" cy="568.24" rx="5.33" ry="5.83"/><ellipse class="cls-2" cx="1053.6" cy="335" rx="5.33" ry="5.83"/><ellipse class="cls-2" cx="1053.6" cy="393.31" rx="5.33" ry="5.83"/><ellipse class="cls-2" cx="1053.6" cy="451.62" rx="5.33" ry="5.83"/><ellipse class="cls-2" cx="1053.6" cy="509.93" rx="5.33" ry="5.83"/><ellipse class="cls-2" cx="1053.6" cy="568.24" rx="5.33" ry="5.83"/><ellipse class="cls-2" cx="33.31" cy="621.17" rx="5.33" ry="5.83"/><ellipse class="cls-2" cx="86.25" cy="621.17" rx="5.33" ry="5.83"/><ellipse class="cls-2" cx="139.19" cy="621.17" rx="5.33" ry="5.83"/><ellipse class="cls-2" cx="193.27" cy="621.17" rx="5.33" ry="5.83"/><ellipse class="cls-2" cx="246.21" cy="621.17" rx="5.33" ry="5.83"/><ellipse class="cls-2" cx="299.14" cy="621.17" rx="5.33" ry="5.83"/><ellipse class="cls-2" cx="353.6" cy="621.17" rx="5.33" ry="5.83"/><ellipse class="cls-2" cx="406.54" cy="621.17" rx="5.33" ry="5.83"/><ellipse class="cls-2" cx="459.48" cy="621.17" rx="5.33" ry="5.83"/><ellipse class="cls-2" cx="518.09" cy="620.97" rx="5.33" ry="5.83"/><ellipse class="cls-2" cx="571.02" cy="620.97" rx="5.33" ry="5.83"/><ellipse class="cls-2" cx="623.96" cy="620.97" rx="5.33" ry="5.83"/><ellipse class="cls-2" cx="678.04" cy="620.97" rx="5.33" ry="5.83"/><ellipse class="cls-2" cx="730.98" cy="620.97" rx="5.33" ry="5.83"/><ellipse class="cls-2" cx="783.92" cy="620.97" rx="5.33" ry="5.83"/><ellipse class="cls-2" cx="838.38" cy="620.97" rx="5.33" ry="5.83"/><ellipse class="cls-2" cx="891.32" cy="620.97" rx="5.33" ry="5.83"/><ellipse class="cls-2" cx="944.25" cy="620.97" rx="5.33" ry="5.83"/><ellipse class="cls-2" cx="1000.33" cy="620.86" rx="5.33" ry="5.83"/><ellipse class="cls-2" cx="1053.27" cy="620.86" rx="5.33" ry="5.83"/><ellipse class="cls-2" cx="1113.25" cy="43.63" rx="5.33" ry="5.83"/><ellipse class="cls-2" cx="1113.25" cy="101.94" rx="5.33" ry="5.83"/><ellipse class="cls-2" cx="1113.25" cy="160.25" rx="5.33" ry="5.83"/><ellipse class="cls-2" cx="1113.25" cy="218.56" rx="5.33" ry="5.83"/><ellipse class="cls-2" cx="1113.25" cy="276.87" rx="5.33" ry="5.83"/><ellipse class="cls-2" cx="1167.72" cy="43.63" rx="5.33" ry="5.83"/><ellipse class="cls-2" cx="1167.72" cy="101.94" rx="5.33" ry="5.83"/><ellipse class="cls-2" cx="1167.72" cy="160.25" rx="5.33" ry="5.83"/><ellipse class="cls-2" cx="1167.72" cy="218.56" rx="5.33" ry="5.83"/><ellipse class="cls-2" cx="1167.72" cy="276.87" rx="5.33" ry="5.83"/><ellipse class="cls-2" cx="1220.65" cy="43.63" rx="5.33" ry="5.83"/><ellipse class="cls-2" cx="1220.65" cy="101.94" rx="5.33" ry="5.83"/><ellipse class="cls-2" cx="1220.65" cy="160.25" rx="5.33" ry="5.83"/><ellipse class="cls-2" cx="1220.65" cy="218.56" rx="5.33" ry="5.83"/><ellipse class="cls-2" cx="1220.65" cy="276.87" rx="5.33" ry="5.83"/><ellipse class="cls-2" cx="1273.59" cy="43.63" rx="5.33" ry="5.83"/><ellipse class="cls-2" cx="1273.59" cy="101.94" rx="5.33" ry="5.83"/><ellipse class="cls-2" cx="1273.59" cy="160.25" rx="5.33" ry="5.83"/><ellipse class="cls-2" cx="1273.59" cy="218.56" rx="5.33" ry="5.83"/><ellipse class="cls-2" cx="1273.59" cy="276.87" rx="5.33" ry="5.83"/><ellipse class="cls-2" cx="1113.19" cy="334.98" rx="5.33" ry="5.83"/><ellipse class="cls-2" cx="1113.19" cy="393.29" rx="5.33" ry="5.83"/><ellipse class="cls-2" cx="1113.19" cy="451.6" rx="5.33" ry="5.83"/><ellipse class="cls-2" cx="1113.19" cy="509.91" rx="5.33" ry="5.83"/><ellipse class="cls-2" cx="1113.19" cy="568.22" rx="5.33" ry="5.83"/><ellipse class="cls-2" cx="1167.65" cy="334.98" rx="5.33" ry="5.83"/><ellipse class="cls-2" cx="1167.65" cy="393.29" rx="5.33" ry="5.83"/><ellipse class="cls-2" cx="1167.65" cy="451.6" rx="5.33" ry="5.83"/><ellipse class="cls-2" cx="1167.65" cy="509.91" rx="5.33" ry="5.83"/><ellipse class="cls-2" cx="1167.65" cy="568.22" rx="5.33" ry="5.83"/><ellipse class="cls-2" cx="1220.58" cy="334.98" rx="5.33" ry="5.83"/><ellipse class="cls-2" cx="1220.58" cy="393.29" rx="5.33" ry="5.83"/><ellipse class="cls-2" cx="1220.58" cy="451.6" rx="5.33" ry="5.83"/><ellipse class="cls-2" cx="1220.58" cy="509.91" rx="5.33" ry="5.83"/><ellipse class="cls-2" cx="1220.58" cy="568.22" rx="5.33" ry="5.83"/><ellipse class="cls-2" cx="1273.52" cy="334.98" rx="5.33" ry="5.83"/><ellipse class="cls-2" cx="1273.52" cy="393.29" rx="5.33" ry="5.83"/><ellipse class="cls-2" cx="1273.52" cy="451.6" rx="5.33" ry="5.83"/><ellipse class="cls-2" cx="1273.52" cy="509.91" rx="5.33" ry="5.83"/><ellipse class="cls-2" cx="1273.52" cy="568.22" rx="5.33" ry="5.83"/><ellipse class="cls-2" cx="1329.67" cy="43.52" rx="5.33" ry="5.83"/><ellipse class="cls-2" cx="1329.67" cy="101.83" rx="5.33" ry="5.83"/><ellipse class="cls-2" cx="1329.67" cy="160.15" rx="5.33" ry="5.83"/><ellipse class="cls-2" cx="1329.67" cy="218.46" rx="5.33" ry="5.83"/><ellipse class="cls-2" cx="1329.67" cy="276.77" rx="5.33" ry="5.83"/><ellipse class="cls-2" cx="1329.6" cy="334.87" rx="5.33" ry="5.83"/><ellipse class="cls-2" cx="1329.6" cy="393.18" rx="5.33" ry="5.83"/><ellipse class="cls-2" cx="1329.6" cy="451.5" rx="5.33" ry="5.83"/><ellipse class="cls-2" cx="1329.6" cy="509.81" rx="5.33" ry="5.83"/><ellipse class="cls-2" cx="1329.6" cy="568.12" rx="5.33" ry="5.83"/><ellipse class="cls-2" cx="1112.85" cy="620.84" rx="5.33" ry="5.83"/><ellipse class="cls-2" cx="1167.31" cy="620.84" rx="5.33" ry="5.83"/><ellipse class="cls-2" cx="1220.25" cy="620.84" rx="5.33" ry="5.83"/><ellipse class="cls-2" cx="1273.19" cy="620.84" rx="5.33" ry="5.83"/><ellipse class="cls-2" cx="1329.27" cy="620.74" rx="5.33" ry="5.83"/><ellipse class="cls-2" cx="33.56" cy="674.91" rx="5.33" ry="5.83"/><ellipse class="cls-2" cx="86.5" cy="674.91" rx="5.33" ry="5.83"/><ellipse class="cls-2" cx="139.43" cy="674.91" rx="5.33" ry="5.83"/><ellipse class="cls-2" cx="193.52" cy="674.91" rx="5.33" ry="5.83"/><ellipse class="cls-2" cx="246.45" cy="674.91" rx="5.33" ry="5.83"/><ellipse class="cls-2" cx="299.39" cy="674.91" rx="5.33" ry="5.83"/><ellipse class="cls-2" cx="353.85" cy="674.91" rx="5.33" ry="5.83"/><ellipse class="cls-2" cx="406.79" cy="674.91" rx="5.33" ry="5.83"/><ellipse class="cls-2" cx="459.73" cy="674.91" rx="5.33" ry="5.83"/><ellipse class="cls-2" cx="518.33" cy="674.71" rx="5.33" ry="5.83"/><ellipse class="cls-2" cx="571.27" cy="674.71" rx="5.33" ry="5.83"/><ellipse class="cls-2" cx="624.21" cy="674.71" rx="5.33" ry="5.83"/><ellipse class="cls-2" cx="678.29" cy="674.71" rx="5.33" ry="5.83"/><ellipse class="cls-2" cx="731.23" cy="674.71" rx="5.33" ry="5.83"/><ellipse class="cls-2" cx="784.16" cy="674.71" rx="5.33" ry="5.83"/><ellipse class="cls-2" cx="838.63" cy="674.71" rx="5.33" ry="5.83"/><ellipse class="cls-2" cx="891.56" cy="674.71" rx="5.33" ry="5.83"/><ellipse class="cls-2" cx="944.5" cy="674.71" rx="5.33" ry="5.83"/><ellipse class="cls-2" cx="1000.58" cy="674.61" rx="5.33" ry="5.83"/><ellipse class="cls-2" cx="1053.51" cy="674.61" rx="5.33" ry="5.83"/><ellipse class="cls-2" cx="33.23" cy="727.53" rx="5.33" ry="5.83"/><ellipse class="cls-2" cx="86.16" cy="727.53" rx="5.33" ry="5.83"/><ellipse class="cls-2" cx="139.1" cy="727.53" rx="5.33" ry="5.83"/><ellipse class="cls-2" cx="193.18" cy="727.53" rx="5.33" ry="5.83"/><ellipse class="cls-2" cx="246.12" cy="727.53" rx="5.33" ry="5.83"/><ellipse class="cls-2" cx="299.06" cy="727.53" rx="5.33" ry="5.83"/><ellipse class="cls-2" cx="353.52" cy="727.53" rx="5.33" ry="5.83"/><ellipse class="cls-2" cx="406.46" cy="727.53" rx="5.33" ry="5.83"/><ellipse class="cls-2" cx="459.39" cy="727.53" rx="5.33" ry="5.83"/><ellipse class="cls-2" cx="518" cy="727.33" rx="5.33" ry="5.83"/><ellipse class="cls-2" cx="570.94" cy="727.33" rx="5.33" ry="5.83"/><ellipse class="cls-2" cx="623.88" cy="727.33" rx="5.33" ry="5.83"/><ellipse class="cls-2" cx="677.96" cy="727.33" rx="5.33" ry="5.83"/><ellipse class="cls-2" cx="730.89" cy="727.33" rx="5.33" ry="5.83"/><ellipse class="cls-2" cx="783.83" cy="727.33" rx="5.33" ry="5.83"/><ellipse class="cls-2" cx="838.29" cy="727.33" rx="5.33" ry="5.83"/><ellipse class="cls-2" cx="891.23" cy="727.33" rx="5.33" ry="5.83"/><ellipse class="cls-2" cx="944.17" cy="727.33" rx="5.33" ry="5.83"/><ellipse class="cls-2" cx="1000.24" cy="727.22" rx="5.33" ry="5.83"/><ellipse class="cls-2" cx="1053.18" cy="727.22" rx="5.33" ry="5.83"/><ellipse class="cls-2" cx="1113.1" cy="674.58" rx="5.33" ry="5.83"/><ellipse class="cls-2" cx="1167.56" cy="674.58" rx="5.33" ry="5.83"/><ellipse class="cls-2" cx="1220.5" cy="674.58" rx="5.33" ry="5.83"/><ellipse class="cls-2" cx="1273.44" cy="674.58" rx="5.33" ry="5.83"/><ellipse class="cls-2" cx="1329.51" cy="674.48" rx="5.33" ry="5.83"/><ellipse class="cls-2" cx="1112.77" cy="727.2" rx="5.33" ry="5.83"/><ellipse class="cls-2" cx="1167.23" cy="727.2" rx="5.33" ry="5.83"/><ellipse class="cls-2" cx="1220.17" cy="727.2" rx="5.33" ry="5.83"/><ellipse class="cls-2" cx="1273.1" cy="727.2" rx="5.33" ry="5.83"/><ellipse class="cls-2" cx="1329.18" cy="727.1" rx="5.33" ry="5.83"/></g></svg>