<?xml version="1.0" encoding="utf-8"?>
<!-- Generator: Adobe Illustrator 26.0.2, SVG Export Plug-In . SVG Version: 6.00 Build 0)  -->
<svg version="1.1" id="Layer_3" xmlns="http://www.w3.org/2000/svg" xmlns:xlink="http://www.w3.org/1999/xlink" x="0px" y="0px"
	 viewBox="0 0 1366 768" style="enable-background:new 0 0 1366 768;" xml:space="preserve">
<style type="text/css">
	.st0{fill:#989359;}
</style>
<path class="st0" d="M658,148.6l6.1-35.4l10.7,0.9l3.3,5.8l18.4,100.9l-13.5,42.6l-4.8-0.1c-0.6-3.3-1.7-6.5-3.4-9.5
	c-2.2-3.9-4.8-6.3-7.4-8.8c-2.3-2.2-4.8-4.2-7.4-5.9c-2.6-1.8-5.3-3.3-8.1-4.4c-2.4-1-4.8-1.7-7.3-2.3l7.1-39.8l6.3-4.3l-2.5-2.9
	l6.4-2.8l-2.5-3.7l5.5-3.5l-3.3-3.7l3.9-3.6l26.9,159c8.2-1,13.1-1.9,16-2.7c0.5-0.1,2.5-0.7,3.2,0c0.5,0.5,0,1.2,0.1,2.9
	c0.2,1.2,0.5,2.4,0.9,3.6c0.4,1.4,0.6,2.1,0.9,2.9c0.4,1.1,0.5,1.1,0.9,2.2c0.3,0.9,0.5,1.6,0.9,2.9c0.6,2.2,0.6,2.3,0.9,2.9
	c0.4,0.8,1,1.6,1.6,2.2c0.6,0.6,0.6,0.5,1.6,1.5c0.5,0.5,1.1,1,1.6,1.5c0.5,0.3,1,0.6,1.6,0.7l3.5,0l3.7,0l23.9-5.5l4.8,0.1l3.3,3.7
	l3.4,7.3c-1.7,1.5-4.2,3.7-7.1,6.4c-4.2,4.1-6.9,6.7-9.4,10c-2.4,3.2-5.8,7.9-6.9,14.4c-1.3,7.9,1.6,14.6,3.6,18.2
	c14,23.3,25.6,48,34.6,73.7c9.3,26.6,15.6,54.2,18.7,82.1l2.5,108.3l0.2,6.7c-0.2,2.1-0.7,4.1-1.5,6.1c-3.1,7.4-9.9,10.9-12.5,12.2
	l-1.6,0.7l-22.4,1.2l-3.6,0c-1.9-1.3-3.7-2.8-5.4-4.4c-3.6-3.7-6.2-8.2-7.5-13.1l-0.4-18.1l-0.3-40.2l-0.6-31.6l-3.4-43.6
	c-0.7-5.4-1.6-10.7-2.8-16c-2.8-12-6.8-23.7-12-34.9c-21.8-49.1-17.9-43.6-27.1-61.9c-14.6-29.2-21.9-43.8-23.5-45.9
	c-2.7-3.5-4.7-7.4-5.9-11.7c-0.9-3.3-1.3-6.7-1.1-10.1l-9.4-24.8l1.6-0.7l-9.4-27.7l-4.8-0.1c-4.9,1.3-10.1,1.7-15.2,1.3
	c-3.6-0.4-7.1-1.1-10.5-2.3c-9.6-3.4-17.9-9.8-23.7-18.4c-4.8-7.9-6.5-17.3-4.6-26.1l-6.4-0.1l-15.4-43.7l14.5-102l2.3-4.3l11.2-0.6
	l7.2,35.6l-4.7,5l3.3,3.7l-4.7,3.6l3.3,3.7l-3.9,3.6l4.9,4.4l-3.9,3.6l5.7,3.7L605,182l6.5,3.7l-3.1,2.9l8.1,4.5l8.1,41
	c6.4-0.7,12.9-0.8,19.4-0.1c1.6,0.2,3.2,0.4,4.7,0.8c6.2,1.5,10.3,4.7,13.8,7.4c4.2,3.3,7.8,7.2,10.7,11.7c1.7,2.7,3.1,5.7,4.2,8.8
	l0,1.4c0.2,6.4,0.2,7.1,0.2,8c0,2.7-0.2,5.3-0.6,8c5.9-49.7-11.1-116.2-18.1-124.8L658,148.6z"/>
<path class="st0" d="M589.5,292.3l4.8-1.4c0.7,4.7,2.5,9.2,5.1,13.1c2.3,3.4,5,6.3,8.2,8.8c5,3.8,13,6.7,13,6.7l-8.2,27.4l0.8,1.5
	l-7.5,24.5l0.1,5.8l-48.7,114.6l-10.5,31c-2.4,7-4.1,14.3-5.1,21.7c-0.9,7.7-1.3,15.4-1.1,23.2c0,3,0.1,5.5,0.2,7.3l1.7,76.2
	l0.7,32.5c-0.7,2.8-1.7,5.4-3,7.9c-1.7,3.3-2.6,5-4.7,6.5c-2.4,1.5-5.1,2.2-8,2.1l-21.7-1c-4.3-1.5-8.2-4-11.4-7.4
	c-3.2-3.4-5.2-7.8-5.9-12.4l-1.2-54.4l-0.8-69.5c0.1-5.7,0.5-11.7,1.2-18.1c0.6-5.1,1.3-9.9,2.1-14.5c1.7-9.3,3.9-18.4,6.6-27.5
	c3.5-11.9,7.1-20.6,13.6-36.1c5.6-13.2,12.5-29.3,20.6-47.6l3.8-8.5c0.6-3.6,0.5-7.4-0.3-11c-0.7-3.1-1.9-6-3.4-8.7
	c-2.2-4.3-5-8.2-8.3-11.7c-3.4-3.7-7.3-6.9-11.5-9.6l-0.9-3.6c0.6-1.8,1.4-3.5,2.3-5c0.9-1.5,1.9-3,3.1-4.3l4.8,0.1l28.2,6.1
	c2.5,0.4,5-0.1,7.2-1.4c2.9-1.8,4.4-5.2,3.8-8.6l3.7-12.3l18.5,3.1L589.5,292.3z"/>
<path class="st0" d="M534.3,403.9l-0.2-10.1L534.3,403.9z"/>
<polygon class="st0" points="663.9,161 660.7,164.5 665.6,168.2 676.9,238.7 679.3,238 668.8,167.5 "/>
</svg>
