<?xml version="1.0" encoding="utf-8"?>
<!-- Generator: Adobe Illustrator 26.0.2, SVG Export Plug-In . SVG Version: 6.00 Build 0)  -->
<svg version="1.1"
	 id="svg2" inkscape:version="0.91 r13725" xmlns:cc="http://creativecommons.org/ns#" xmlns:dc="http://purl.org/dc/elements/1.1/" xmlns:inkscape="http://www.inkscape.org/namespaces/inkscape" xmlns:ns1="http://sozi.baierouge.fr" xmlns:rdf="http://www.w3.org/1999/02/22-rdf-syntax-ns#" xmlns:sodipodi="http://sodipodi.sourceforge.net/DTD/sodipodi-0.dtd"
	 xmlns="http://www.w3.org/2000/svg" xmlns:xlink="http://www.w3.org/1999/xlink" x="0px" y="0px" viewBox="0 0 277.6 137.1"
	 style="enable-background:new 0 0 277.6 137.1;" xml:space="preserve">
<style type="text/css">
	.st0{fill-rule:evenodd;clip-rule:evenodd;fill:#B3AA9E;}
	.st1{fill-rule:evenodd;clip-rule:evenodd;fill:#9B9286;}
	.st2{fill-rule:evenodd;clip-rule:evenodd;fill:#7C7367;}
	.st3{fill-rule:evenodd;clip-rule:evenodd;fill:#898074;}
	.st4{fill-rule:evenodd;clip-rule:evenodd;fill:#635B52;}
	.st5{fill-rule:evenodd;clip-rule:evenodd;fill:#C0B7AA;}
	.st6{fill-rule:evenodd;clip-rule:evenodd;fill:#D2C8BA;}
</style>
<g id="g10" transform="matrix(1.25 0 0 -1.25 0 137.05)">
	<g id="g12">
		<path id="path14" inkscape:connector-curvature="0" class="st0" d="M180.1,57.1v1.2c3.6,0.6,7.3,0.9,11.1,1
			c2.1,0.2,3.3,1.1,3.6,2.7c1.3-0.2,3.2-0.8,5.7-1.9c3.1-1.3,5-2.6,5.5-3.8c-0.9,1.4-3.3,2.2-7.2,2.4c-3.8-0.1-5.8-0.1-5.9-0.1
			c-2.3,0-4.1-0.3-5.3-0.9c-1.2-0.6-1.9-0.9-2.2-0.9L180.1,57.1z M195,19.2c-0.1-0.1-0.4-0.1-0.9-0.1l1.1,0.2L195,19.2L195,19.2z
			 M197.7,19.9L197.7,19.9l0,0.3l0.2,0.8v0l0.1,0.2l-0.1-0.3L197.7,19.9z M153.9,7.8c0.1-0.1,2-0.9,5.6-2.4
			C157.5,6,155.6,6.8,153.9,7.8z M145.6,14.8l0.5-0.4l0.4-0.4L145.6,14.8L145.6,14.8z M12.2,8.7l1.3-0.4l1-0.4L11.4,9
			C11.7,8.9,11.9,8.8,12.2,8.7z M2,21l2.5,1.5c3.2-1.8,9.7-3.5,19.6-5.1c0.5,0,0.9,0,1.2,0.1c-0.3,3.2-0.1,5.3,0.5,6.4
			c0.5,0.9,1.5,1.3,2.9,1.3c0.5,0,3.2-0.5,8-1.5c3.7,0,5.5,2.3,5.5,7c0,2.2-0.7,4.2-2.2,6.1c-1.4,1.7-2.6,2.6-3.8,2.6
			c1.6,0.1,3.4,0.1,5.4,0.1c-0.6,0-1.4-0.2-2.2-0.5c1.9-2.5,3.5-4.7,4.9-6.8c1.9-2.8,2.8-4.6,2.8-5.4c-0.5-1.4-1.3-2.8-2.2-4.2
			C42.9,20,41,18.6,39,18.6c-0.5,0-1.4,0.3-2.7,1c-1.3,0.7-2,1.1-2.2,1.1c-0.1,0-1.2-0.7-3.5-2.2c-2.3-1.5-4.6-2.4-6.8-2.6
			c0.3,0.2,0.6,0.5,1,0.9l-0.7,0.1c-0.3-0.1-1-0.4-1.8-0.8c-0.5-0.2-1.2-0.3-2.1-0.3c-2.2,0-4.4,0.1-6.5,0.4c-0.3,0.1-2.4,1-6.2,2.6
			c-0.5,0.2-1,0.4-1.5,0.6l-0.3,0.3c0-0.1,0-0.1,0.1-0.2C3.7,20.4,2.4,20.9,2,21z M31.5,39.2c0.9,0.1,1.9,0.1,3.1,0.2
			c-0.4,0-0.9-0.1-1.4-0.1C32.6,39.3,32,39.2,31.5,39.2z M58.4,33c1.3,0.6,2,1,2.1,1.2l0.9,0.2c-0.2-0.4-0.4-0.7-0.6-0.9
			C60.6,33.2,60,33,59,33L58.4,33z M54.7,33.3c-0.7-0.9-1.1-1.6-1.1-2.1c0-0.7,0.2-1.5,0.5-2.5c0.4-1.1,0.7-2.3,0.8-3.4
			c-0.7,0.6-1.5,1.6-2.5,3.1c-1.3,2.1-2,3.9-2,5.4L54.7,33.3z M58.6,49.1c0.4-0.2,1.3-0.5,2.8-0.9c1.6-0.5,2.8-0.8,3.6-1
			c-0.5-0.4-1-1.1-1.4-2.1c-0.5-1-0.8-1.7-1-2c-0.1-0.1-0.9-1-2.4-2.7c-0.9-1-1.9-1.8-3-2.3c-0.8,0-1.8,0.1-3,0.3
			c-1.4,0.2-2.2,0.3-2.4,0.3c-2.1,0.2-4.1,0.6-5.8,1.2c-1.3,0.5-2.1,0.8-2.2,0.8l-2-0.2c0.1,0.4,0.7,1.3,1.7,2.8
			c1,1.4,1.6,2.2,1.8,2.5l0.5-0.3c-0.6-0.7-0.8-1.2-0.8-1.2c0-0.3,0-0.5,0.1-0.6c0.1-0.1,0.1-0.2,0.1-0.2c0.3-0.1,1.2-0.2,2.6-0.5
			c1.5-0.2,2.9-0.4,4.2-0.4c2.2,0,3.3,1.2,3.3,3.6c0,0.9-0.4,1.5-1.1,1.9c-0.7,0.3-2,0.7-4,0.9c0.8,0.5,1.7,1.3,2.7,2.4
			c0.6-0.3,1.3-0.6,1.9-0.9c-0.6,0.5-1,0.8-1.2,0.9c-0.3,0.2-0.9,0.6-1.9,1.2c-0.1,0.1-0.2,0.5-0.3,1.2c0.4-0.3,0.9-0.7,1.4-1.1
			c0.8-0.6,2.3-1.6,4.5-2.9l-2.5,0.7c0.3-0.2,0.9-0.4,1.8-0.8C57.5,49.3,58.2,49.1,58.6,49.1z M53.2,54c-0.1,0-0.5,0.4-1,1.2
			c-0.5,0.7-0.9,1.1-1,1.3c0.2,0.9,0.4,1.7,0.6,2.6l-0.1-1.3c0-0.3,0.2-0.8,0.5-1.7C52.6,55.1,52.9,54.4,53.2,54z M61.9,69.9
			l-4.6-3.3c0.2,0.3,0.9,0.8,2,1.6C60.3,68.9,61.2,69.5,61.9,69.9z M85.7,80.5c0.8,0,1.4,0.3,1.9,1c0.4,0.6,0.7,1.3,0.8,2
			c0.3-0.6,0.7-1,1.3-1.3c0.5-0.2,1.1-0.3,2-0.3c1.8,0,4-0.5,6.7-1.6c2.6-1,4.4-1.6,5.2-1.6c1.8,0,3.9,0.5,6.4,1.4
			c2.2,0.8,3.6,1.5,4.1,2.2c0-0.6,0.2-1,0.5-1.4c0.3-0.4,0.7-0.6,1.2-0.6l2.2,0h-0.6l-0.2-1.3l-1.4,1.3l0-1.2
			c-0.3-0.1-0.7-0.9-1.2-2.2c-0.5-1.3-1.3-2.1-2.5-2.6c-0.5-0.1-1.6-0.2-3.2-0.5c-1.8-0.3-2.8-0.5-2.9-0.6c-2.6,0.1-4.4,0.2-5.3,0.4
			c-0.8,0.2-1.3,0.3-1.5,0.3l-1.4,0c-0.8,0.4-1.6,0.9-2.3,1.4c-1.1,0.8-2.2,1.5-3.1,2l-0.9,0.6l0.1-0.1
			C88.1,79.5,86.1,80.4,85.7,80.5L85.7,80.5z M127.4,75.3c-1.6,0.6-3.2,1.4-4.9,2.6c-1.5,1-2.4,1.8-2.7,2.3l0.5,0.6
			c0.1-0.1,0.5-0.5,1.3-1.2c1-0.8,2.2-1.6,3.5-2.2c4.2-2,9.4-3,15.6-3c1.8,0,3.2,0.2,4.1,0.6c1.2,0.5,1.8,1.4,1.8,2.6
			c0,0.7-0.5,1.7-1.4,3c-1,1.3-1.4,2.3-1.4,2.9l1,1.3c1.5-0.3,2.8-0.5,3.9-0.6c1-0.2,3-1,6-2.4c0.5-1,1-1.8,1.5-2.2
			c0.3-0.3,0.5-0.4,0.7-0.4c0.3,0,0.5,0,0.5,0.1c0,0,0,0.1,0,0.1l0.1,1l1.1-0.6c-0.2,0.4-0.6,1-1.1,1.6c0,0.6-0.3,1.6-1,3
			c-0.7,1.5-1.2,2.4-1.6,2.7c-0.5,0.4-2,0.8-4.4,1.2c-2.5,0.4-3.9,0.7-4.2,1l0.7,0.2c1.1,0.1,2.8,0.2,5.2,0.3c1.7,0.1,3,0.1,3.8,0.1
			c3.4,0,5.4-0.3,6-0.9c1-0.9,2.4-1.5,4.4-1.8l0.3-1c-0.6-1.1-2.9-2.5-6.9-4.4c1.9,0.5,4,0.7,6.5,0.8c1.3,0.1,3.1,0.1,5.2,0.1
			c3.2,0.2,4.8,1.8,4.8,4.6l-0.1,2.7l1.3-2.6c0-1.5-0.5-2.9-1.5-4.2c-0.7-0.9-1.4-1.3-2.2-1.4l1.1-0.3c-1.9,0.3-3.6,0.3-5.2-0.2
			c-0.9-0.3-4.8-1.8-11.6-4.6c-0.8,0-1.4,0.2-2,0.5c-0.5,0.3-0.8,0.7-0.8,1.2c-0.1,1.7-1.5,3.1-4.1,4.3c-2.5,1.1-4.6,1.5-6.3,1
			c3.5-0.9,5.7-1.6,6.5-2.2c0.5-0.3,1-0.7,1.6-1.2c-0.5,0.1-1.1,0.2-1.7,0.2c0.7-0.2,1.3-0.7,1.7-1.5c0-0.7,0.2-1.3,0.4-1.7
			c0.2-0.5,0.5-0.7,0.8-0.6c0.1,0,0.2,0.1,0.2,0.1c0.5-0.5,0.9-0.8,1.3-0.9c-1.6-0.5-3-0.9-4.2-1.2c-1-0.2-2.6-0.4-4.8-0.6l2.9,1.2
			c-5.1-1.1-7.9-1.6-8.4-1.6c-4.1,0-7.2,0.2-9.2,0.6C129.6,75,128.1,75.3,127.4,75.3L127.4,75.3L127.4,75.3z M149.7,80.7
			c-0.2,0-0.5,0-0.7,0h0.6C149.6,80.7,149.6,80.7,149.7,80.7L149.7,80.7z M93.7,96.3c4.6-3.5,7.9-5.8,9.6-7c0.1,0,0.1-0.1,0.2-0.1
			c-1.7,0.4-2.6,0.7-2.7,0.7c-0.9,0.9-1.7,1.5-2.2,1.9c-0.9,0.7-2.7,1-5.2,0.8c0.1,0.3,0.2,0.9,0.3,1.8
			C93.8,95.3,93.8,95.9,93.7,96.3z M123.1,97.5c0-0.6-0.3-1-0.8-1.4c-0.6-0.4-1.2-0.6-2-0.6c-1,0-3.2,0.5-6.8,1.5
			c-3.7,1-6,1.7-6.7,2.3c-0.3,0.2-2,1.2-5.1,2.9c-1.7,0.9-3,1.7-4,2.3c1.7-1,3.6-1.6,5.7-1.6c2.8-0.1,4.4-0.4,4.9-0.8
			c0.6-0.5,2-1.1,4-1.7c2.3-0.7,4.3-1.1,6-1.2l-0.3,0.3c-0.7,0.5-1.3,1-1.9,1.5c-1.1,0.9-1.8,1.8-2.1,2.6c2.6-0.3,5-0.8,7.2-1.4
			c1.7-0.5,3.3-0.7,4.7-0.7c1.9,0,2.9,0.6,2.9,1.9c0,0.3-0.2,0.9-0.5,1.8c-0.3,0.9-0.5,1.3-0.5,1.4c1.1-0.2,2.8-0.9,5.2-2.2
			c1.9-1,3.2-1.8,4-2.4c-0.2,0.1-0.3,0.2-0.5,0.2l-0.5,0c-0.5-2.2-2.1-3.5-5-4c-1-0.2-2-0.2-2.9-0.1c-0.8,0.1-1.3,0.3-1.3,0.5
			c-0.7,0-2.2,0.5-4.5,1.6c-2.3,1.1-4.5,1.6-6.5,1.6l1-0.4c0.8-0.2,1.7-0.5,2.9-1.1c1.1-0.5,1.9-1,2.4-1.4l-1.3-0.3
			C121.6,98.1,122.4,97.9,123.1,97.5L123.1,97.5z M135.4,89.3c2,1.1,3.2,1.9,3.8,2.3c0.1,0.1,0.8,0.5,1.9,1.2
			c1.1,0.8,1.8,1.3,1.9,1.4l0.9,0c-0.1-0.5-0.5-1-1-1.5c-0.5-0.5-1.1-0.9-1.6-1l0.1,0.2L135.4,89.3L135.4,89.3z M194.9,62
			c-0.2,0.1-0.6,0.1-1,0.1l-0.6,0c0.3,0,0.5,0.1,0.5,0.3l-1.4,0.5L194.9,62z M194.1,20.6c-9-1.2-15.6-2.4-19.6-3.6l0.3-0.2
			c0.4-0.1,0.9-0.2,1.6-0.2c0.6,0,1.3,0,1.8,0.1c-3.5-0.8-6.5-1.2-9-1.2c-3.3,0-5.1-0.1-5.4-0.1c-1,0.2-2.4,0.9-4.4,1.9
			c-1.9,1.1-3.1,1.9-3.6,2.4c1.3,0.2,2.3,0.6,3.2,1.1c0.5,0.3,1.4,0.9,2.7,1.8h-0.2c-4.7,0.1-7.8,0.5-9.4,1.3
			c-1.1,1.7-1.9,2.8-2.5,3.4c-0.5,0.6-0.9,0.9-1.3,1.2c-0.4,0.3-1.1,0.6-2.1,1c-1.1,0.3-1.7,0.5-1.8,0.6l-1,3.6
			c0.3,0.5,0.9,1.1,1.7,1.9c0.4,0.4,0.9,0.8,1.4,1.2l1.4-0.2c0,0-0.1-0.1-0.4-0.2c-0.1-0.1-0.1-0.2-0.1-0.6c0-0.6,0.4-1,1.3-1.2
			c1.7-0.4,2.7-0.7,2.9-0.8c0.7-0.3,1.1-0.5,1.2-0.7c0.4-0.6,1-1.4,1.9-2.2c0.3-0.3,1.4-0.7,3.2-1c1.5-0.3,2.4-0.9,2.8-1.8l-0.1-0.6
			c-2.2,0.4-4.1,0.1-5.6-0.8c-1-0.6-1.8-1.4-2.2-2.3c1.4-0.2,3.9-0.6,7.5-1.2c1.2-0.2,3-0.6,5.3-1.3c-0.3-0.5-1.1-1-2.4-1.5
			c-1-0.4-1.7-0.6-2.1-0.6l0.4-0.4c0.9-0.2,1.9-0.6,3-1.2c1.3-0.5,3.1-0.8,5.3-0.8c0.5,0,1,0,1.3,0.1l0,1.2
			c-0.4,3.2-0.6,5.7-0.6,7.6c0.1,3.4,1.5,5.1,4,5.1c0.7,0,1.4-0.1,1.9-0.4c0.7-0.4,1-1,1-1.8c0-0.8-0.3-1.5-0.8-2
			c-0.8-0.7-1.4-1.7-1.9-2.9c0-0.6,0.6-0.9,1.8-0.9c4.8,0,7.5,0,8,0.1c2.9,0.4,4.5,1.6,4.9,3.6C191.3,24.6,192.9,22.4,194.1,20.6z
			 M161.4,49.8c0.5,0.3,1.8,1.1,3.9,2.4c-1.2-1-2.2-1.7-3-2.1C162.3,50.2,161.4,49.8,161.4,49.8z M193.5,41.8c0.1-1.4,0.1-2.4,0-3.2
			c-2,0.8-3.7,1.5-5.2,2c-2.8,1-5.5,1.4-8.2,1.4c-1.1,0.7-2.9,1.2-5.4,1.7c-2.2,0.4-3.9,0.6-5.2,0.6l-4.2-0.1c0,0.5-0.1,0.8-0.3,1
			l-0.3,0.1l0.6,2.1l-2-0.6c0.1,0.2,0.2,0.8,0.6,1.8c0.5,1.3,0.9,2.4,1.4,3.5l1.4,0.1c0-0.5,0.1-0.9,0.2-1.3
			c0.1-0.3,0.3-0.5,0.5-0.5l-1.2-0.6c1.6-0.8,4.5-2.2,8.6-4.3c3.6-1.7,6.2-2.5,7.8-2.5c1.1,0,2.1,0.3,2.8,0.8c1.1,0.7,3.6,1.4,7.6,2
			L193.5,41.8L193.5,41.8z M190.7,61.7l-15.9-2.1c0.7,1.1,1.2,1.7,1.5,2c1,0,3.9,0.1,8.5,0.2C187.4,61.8,189.3,61.8,190.7,61.7z
			 M128.4,71c0.6-0.2,1.1-0.4,1.6-0.4c1.1-0.4,2.3-0.8,3.6-1.2c-1.3,0.3-2,0.4-2,0.4C131.4,69.8,130.4,70.2,128.4,71L128.4,71z
			 M138.6,61.1l-1.2-0.2c-0.6,0.1-1.3,0.2-1.9,0.2c-1.1,0-2-0.3-2.5-1c-1.1-0.2-2.2-0.4-3.2-0.6c-0.5,0.1-1.1,0.1-1.6,0.1
			c-0.1,0-0.3-0.2-0.6-0.6h0c-3-0.6-5.9-1.4-8.8-2.3l4,0.2l-0.6-0.4c0.8-0.2,1.6-0.4,2.4-0.4c1.3,0,3.3,0.1,6.1,0.3
			c-2-1.9-3.6-3.8-4.9-5.8c-1.1-2-1.9-3.3-2.4-4c-0.7-1.1-1.7-1.8-3-2.2c-1.4-0.5-3.7-0.7-6.8-0.7c-2.5,0-4.5,0.3-6.1,0.8
			c-1.3,0.7-2.2,1.1-2.7,1.3l-1.4,0.6l0.2-0.2l-2,0.6h0.1c0.2,0.2,0.4,0.4,0.7,0.6c0.2,0.2,0.2,0.3,0.2,0.5c0,0.9-1.5,1.6-4.4,2.1
			c-3.1,0.4-4.9,0.6-5.4,0.7c2.3,1.6,5.2,2.9,8.6,3.7c1,0.3,1.7,0.6,2.1,0.9c0.5,0.4,0.7,1.2,0.7,2.2c-0.7,6.1-1.1,9.5-1.3,10l0,1.2
			l-0.6-0.2l-0.6,0.8v0.6c1.5,0.1,2.4,0.1,2.8,0.2c0-1-0.1-2.5-0.2-4.5c0-1.2,0.2-2,0.6-2.3c0.6-0.6,2.1-0.9,4.5-0.9
			c1.2,0,4.4,0.5,9.7,1.6c2,0,3.5-0.2,4.5-0.5c1-0.3,1.8-0.5,2.5-0.5c2.3,0,4.8,0.5,7.4,1.6c2.8,1.1,4.4,2.4,4.8,3.8l-1.5,0.5
			c1.3,0,2.2,0.1,2.6,0.2c0.3-0.2,1.7-1.5,4.3-3.8l-0.8-0.7l-0.6,0.6c0-0.5-0.1-1-0.2-1.4C140.1,62.1,139,61.3,138.6,61.1
			L138.6,61.1z M126.2,36.2l-0.3,0.6l0.4-0.7L126.2,36.2z M114.6,40.3l2.8-1l-0.3,0L114.6,40.3z M126.2,24.2c-3.9-0.4-6.6-1.4-7.9-3
			c-0.7-0.8-1-1.9-0.9-3.3c1.3-0.1,3.5,0.3,6.7,1.2c-0.5-0.7-0.9-1.5-1.2-2.6c-0.2-0.8-0.6-1.3-0.9-1.6c-0.9-0.7-4.6-1-11-1
			c-1.7,0-3.1,0.7-4.1,2c-0.9,1.1-1.4,2.7-1.5,4.6l0.4,0.4c0.3,0.3,0.7,0.4,1,0.4c0.1,0,1.1-0.4,3.1-1.3c2.1-0.8,3.2-1.2,3.5-1.2
			c2.7,0,4,2,3.8,5.9c-0.1,1.8,0.7,3.4,2.4,4.9c1.8,1.5,2.6,2.9,2.6,4c0,0.7-0.3,1.6-0.8,2.6c-0.4,0.7-0.8,1.2-1.4,1.7
			c0.5-0.3,1-0.7,1.6-1.1c2.2-1.5,3.6-2.4,4-2.9c0.2-0.8,0.3-1.6,0.3-2.4l-0.4-0.6c-0.5,0-0.9-0.1-1.3-0.4c-0.4-0.3-0.6-0.6-0.6-1
			c-0.6-1-0.8-2.7-0.8-5C122.9,24.3,126.2,24.2,126.2,24.2z M151.1,38c0.2,0.2,0.8,0.5,1.7,0.8c1,0.3,1.9,0.5,2.7,0.5L151.1,38
			L151.1,38z M180.1,56.2l2.1-0.7l-2.1,0.1L180.1,56.2z M185.6,55c2.1,0,3.9-0.4,5.4-1.3c1.5-0.8,2.2-1.8,2.2-3
			c-0.2,0.7-1.2,1.6-3,2.5C188.6,54.2,187,54.8,185.6,55z M168,14.4c-0.6,0.1-1.6,0.3-3,0.7c1.1-0.1,3.1,0,6,0
			C170.9,15.1,168,14.4,168,14.4z M130.5,19.5c-0.1,0-0.8,0.2-2,0.6c-1.2,0.4-1.9,0.6-2,0.6c0.1,0.2,0.2,0.7,0.5,1.7
			s0.4,1.5,0.4,1.7c1,0,1.8-0.4,2.5-1.3c0.7-0.9,1-1.9,1-3.1L130.5,19.5z M126.9,98.3c0-0.4-0.1-0.5-0.3-0.3
			C126.4,98.2,126.5,98.3,126.9,98.3z M105.9,88.6c1.1-0.2,2.5-0.4,4.3-0.6c3.3-0.4,5.3-1.5,5.8-3.1l-1.4,0
			c-0.6,1.3-2.8,2.4-6.5,3.3C107.3,88.3,106.6,88.5,105.9,88.6z M100.5,77.4l0-0.3c0.1-0.2,0.2-0.4,0.5-0.8c1.1-0.1,1.7-0.2,1.9-0.2
			c1.2,0,2.2,0.3,3.2,1l4.8,2c-0.2-0.1-1.8-0.3-4.8-0.8C102.9,77.8,101.1,77.5,100.5,77.4z M100.1,70.3c-0.1-1-0.5-2.1-1.3-3
			c-1.3-1.5-2-2.5-2.2-2.8c-0.7-1.2-1.5-2.6-2.5-4.1c-1.1-1.6-1.8-2.5-2.2-2.8c-0.5-0.4-1.7-0.7-3.6-1C86,56.3,84.6,56,84,55.8
			c-3.3-1.1-6.7-2.5-10.1-4.1c-2.2-1.1-3.9-1.6-4.9-1.6c1.3,0.8,3.9,2,8,3.6c0.2,0.1,3.5,1.3,9.8,3.7l-4.6,0.1c-3,0-5.6-0.5-7.7-1.5
			c-2.1-1-5-1.5-8.6-1.5c-1.9,0-3.2,0.2-4.1,0.6c-1.5,0.7-2.3,2.2-2.3,4.4c0,1.3,0.5,2.6,1.4,4c1.1,1.7,2.7,3.1,4.9,4.4
			c0-0.2,0-0.5,0.2-1c0.1-0.3,0.1-0.5-0.2-0.5c1.2,0,3.1,0.5,5.7,1.5c2.8,1,4.5,1.9,5.2,2.8c0.6,0.8,1.3,2.6,1.8,5.3
			c0.4,1.7,1.4,2.6,3.2,2.6c2.5,0,6.3-1.7,11.5-5.1c-0.2,0.7-0.7,1.5-1.6,2.2c-1.1,0.7-1.9,1.2-2.4,1.6l0.2-0.1l6.6-3.6
			c1.4-1.3,2.4-2.2,3.1-2.7C99.6,70.7,99.9,70.5,100.1,70.3L100.1,70.3z M107.1,70.8l1.6-0.2l-2.1,0L107.1,70.8z M125.3,72.2
			c-1,0.4-1.8,0.6-2.4,0.6c-2.4-0.8-4.3-1.4-5.6-1.8c1.1,0.3,2,0.8,2.8,1.3c1.1,0.8,1.8,1.2,2.1,1.2
			C122.2,73.6,123.3,73.1,125.3,72.2z M80.6,33.4l-0.5-0.9c-1.7-0.9-2.5-2.7-2.3-5.4c-2.2-0.4-4.2-1.2-6-2.4
			c-1.7-1.1-2.5-2.2-2.5-3.2c0-1,0.5-1.7,1.6-2c1-0.3,2.8-0.5,5.3-0.5c1.1,0,1.8,0.1,2.2,0.4l-2.6-4.5c-0.3,0-1.8,0.3-4.6,0.9
			c-2.9,0.6-4.6,0.9-5.2,0.9c-0.8,0-2.5-0.3-4.9-0.9c-2.4-0.6-4.2-1.1-5.4-1.6c0,2,0.2,3.7,0.7,5.2c0.5,1.5,0.7,2.4,0.7,2.8
			c0,0.6-0.3,1.3-0.8,2.1c1.1-0.2,2.6-0.4,4.3-0.7c1.3-0.2,2.5-0.3,3.4-0.3c2.6,0,4.3,0.2,5.2,0.7c0.5,0.3,1.1,1,1.6,2.1
			c1.6,3.4,2.6,5.5,3,6.4c1.1,2.7,1.7,4.7,1.7,5.9l0,2.3h-6.4l-1-0.2c0.4,0.3,1.1,0.6,2.1,0.7c1,0.2,1.9,0.2,2.8,0.2
			c2.9,0,4.6-1.2,5.3-3.6c0.1-0.3,0.1-1.8,0.1-4.4L80.6,33.4L80.6,33.4z M88.6,40.4c0.6,0.6,1.4,1.3,2.6,2c-0.1-0.3-0.3-1.5-0.8-3.5
			c-0.5-2-0.9-3.2-1.2-3.6L89,36.2C88.9,38,88.8,39.4,88.6,40.4z M66.7,49.5l-5,0.7h0.2l3.4-0.4C65.2,49.8,66.7,49.5,66.7,49.5z
			 M95.9,44.7c0.3,0.2,0.9,0.3,1.8,0.4c1.3,0.2,2.5,0,3.6-0.4C99.6,44.9,97.9,44.9,95.9,44.7z M104.8,23.5l1,2
			c-0.1-0.3-0.2-0.7-0.5-1.2C105,23.9,104.9,23.6,104.8,23.5z M99.4,13c-2,0.1-3.3-0.1-4-0.4c-0.7-0.4-1.2-0.6-1.6-0.6
			c-0.5,0-3.2,1.3-8.1,3.8c-0.6,0.3-1.1,0.8-1.7,1.4c-0.9,1.1-1.5,2.5-1.6,4.4c2.3-0.4,6,0.6,11,3c5.3,2.4,8.3,3.7,9.2,3.7
			c0.9,0,1.6-0.2,2-0.6c0.4-0.3,0.8-0.9,1-1.6c-1-0.5-2.3-1.8-3.9-4.1c-1.7-2.6-2.6-4.8-2.6-6.8C99.3,14.6,99.3,13.9,99.4,13z"/>
		<path id="path16" inkscape:connector-curvature="0" class="st1" d="M193.2,50.7c0,1.2-0.7,2.2-2.2,3c-1.5,0.9-3.3,1.3-5.4,1.3
			c-1.1,0.2-2.2,0.4-3.3,0.5l-2.1,0.7v0.9l5.4-0.2c0.2,0,1,0.3,2.2,0.9c1.2,0.6,3,0.9,5.3,0.9c0.1,0,2.1,0,5.9,0.1
			c3.9-0.2,6.4-1,7.2-2.4l0-0.2c-1.3-2.1-2.1-3.7-2.5-4.6c-0.2,0.9-0.3,1.7-0.4,2.6l-1.6-4.4l1.6-0.7c0.7-1.5,1.3-3.4,1.6-5.9
			c0.3-2.1,0.3-3.7,0.1-4.6l-3.7-1.4c-0.4,0.7-0.7,1.5-1.1,2.5l-1.3-1.3c-0.1,0.3-0.6,1.6-1.4,4.1c-0.8,2.6-1.3,4-1.4,4.3
			c-0.5,1-0.8,1.7-1.1,2.1c-0.4,0.5-0.9,1.3-1.5,2.4l-0.3-0.8C193.3,50.6,193.2,50.7,193.2,50.7z M158.4,6.3
			C157.9,6.4,157,7,155.8,8c-1.9,1.6-3,2.6-3.5,3c-0.4-0.9-0.7-1.4-0.8-1.6l-0.4,0.3c0.3,2.1,0.1,4.5-0.6,7.4
			c-0.7,2.7-1.2,4.3-1.2,4.9v1.7l0.9,0.1c0.8-0.5,1.5-2.3,2-5.7c0.6-3.7,1-5.8,1.2-6.2c0,0,0.1,1.2,0.3,3.6c0.2,2,0.9,3.3,2.1,4.1
			c0.5-0.6,1.7-1.4,3.6-2.4c1.9-1.1,3.4-1.7,4.4-1.9h-0.1c0.4-0.2,0.8-0.3,1.2-0.4c1.4-0.4,2.4-0.6,3-0.7l-3-1.3l4.2,0.1
			c0.6,0,2.5-0.1,5.6-0.2c3.6-0.2,6.1-0.3,7.6-0.5c0-0.1,0.2-0.2,0.6-0.2c-0.3-1.8-2.5-2.6-6.6-2.6c-3.6,0-6.7,0.1-9.1,0.4
			c-0.3,0-1.2,0.3-2.6,0.8l-2.1,0.8c-0.1,0-0.2-0.1-0.4-0.4l0,0.1c-0.1-0.1-0.1-0.2-0.2-0.3c-0.3-0.3-0.7-0.8-1.2-1.4
			C159.3,7.9,158.6,6.9,158.4,6.3z M23.9,15.8c2.2,0.2,4.4,1.1,6.8,2.6c2.2,1.5,3.4,2.2,3.5,2.2c0.2,0,0.9-0.4,2.2-1.1
			c1.3-0.7,2.2-1,2.7-1c2,0,3.9,1.4,5.8,4.1c0.9,1.4,1.7,2.8,2.2,4.2c0,0.8-0.9,2.6-2.8,5.4c-1.4,2.1-3,4.3-4.9,6.8
			c0.9,0.3,1.6,0.5,2.2,0.5l0.1,1l2,0.2c0.1,0,0.9-0.3,2.2-0.8c1.8-0.6,3.7-1,5.8-1.2c0.2,0,1-0.1,2.4-0.3c1.3-0.2,2.3-0.3,3-0.3
			c-1-0.5-1.9-0.8-2.9-1.2c-3.4-0.1-6.2-0.1-8.5,0.2l-0.9,0.2l2.7-1l-3.3-0.2c0.9-0.5,3.7-1.1,8.4-1.8h0.1c1.2-0.5,3.8-0.6,7.8-0.2
			c-0.1-0.2-0.8-0.5-2.1-1.2c-1.7,0.2-3,0.3-3.7,0.2l-4.4,0.5c0-1.5,0.7-3.3,2-5.4c1-1.5,1.8-2.6,2.5-3.1c0.5-0.5,0.9-0.8,1.2-1
			c0.6-0.8,0.8-1.5,0.8-2.1c0-0.4-0.2-1.3-0.7-2.8c-0.5-1.5-0.7-3.2-0.7-5.2c1.2,0.5,3,1,5.4,1.6c2.5,0.6,4.1,0.9,4.9,0.9
			c0.6,0,2.4-0.3,5.2-0.9c2.8-0.6,4.3-0.9,4.6-0.9l-0.8-1.2c-1.1,0.2-2.4,0.4-4,0.6c-1.3,0.2-2.3,0.2-2.8,0.2
			c-0.6,0-2.8-0.4-6.6-1.1c-3.9-0.7-6.1-1.1-6.6-1.1c-0.5,0-1.2,0-2.1,0.1c-1.1,0.1-2,0.1-2.6,0.2c0.2,0.4,0.4,1,0.7,1.8
			c0.2,0.7,0.4,1.1,0.4,1.3c0,3.1-0.7,6.7-2.2,10.9c-1.5,4.3-3,7.1-4.6,8.5l-1,0.8c0.5-1.4,1-2.5,1.6-3.3c0.3-0.5,0.8-1,1.3-1.8
			c0.8-1.3,1.3-4.3,1.3-9c-0.5-1.1-1.1-3.8-2.1-8.3c-1,0.2-1.8,0.3-2.3,0.3c-0.3,0-2.5-1-6.5-2.9c-4.4-2.1-7.2-3.3-8.4-3.7l-1.1-0.2
			c-0.8-0.1-2.6-0.2-5.3-0.2c-2.9,0-4.8,0.5-5.8,1.5c-0.8,0.9-1.3,2.7-1.5,5.4c0.6,0,1.8,0.2,3.7,0.6C21.1,14.6,22.9,15.2,23.9,15.8
			L23.9,15.8z M13.6,16.2c-0.7,0-2,0.4-3.9,1.2C8,18.1,6.9,18.7,6.4,19L6,19.4c0.5-0.2,0.9-0.4,1.5-0.6
			C11.3,17.2,13.3,16.3,13.6,16.2z M2,21c0.4-0.1,1.7-0.6,3.8-1.5c0.2-0.6,0.9-1.9,2.1-3.9c0.9-1.5,1.1-3.2,0.8-5.1l-0.2-0.4
			c-2.1,0.9-4.1,2.7-6,5.3C0.8,17.8,0,19,0,19.1c0,0.1,0.1,0.3,0.4,0.6C0.8,20.1,1.3,20.5,2,21z M60.9,50.2L60.9,50.2l-2.5,0.3
			l3.1-1.4c-1.6,0.2-3.1,0.4-4.6,0.7c-2.2,1.3-3.7,2.3-4.5,2.9c-0.5,0.5-1,0.8-1.4,1.1c0,0.8,0,1.7,0,2.5c0.1-0.1,0.4-0.6,1-1.3
			c0.5-0.7,0.9-1.1,1-1.2c0.9-0.7,1.9-1.4,3-2C57.8,51.1,59.4,50.6,60.9,50.2z M97.7,73.8c-0.9,0-1.8,0.2-2.5,0.6l0.9-0.8l-6.6,3.6
			c0.4-0.2-1.1,0.9-4.4,3.1l0.6,0.2c0.4-0.1,2.4-1.1,5.8-2.8c0.6-0.7,1.4-1.5,2.4-2.2l0.6-0.5l-2.2,2.2c0.9-0.6,2-1.3,3.1-2
			C96.1,74.7,96.9,74.2,97.7,73.8L97.7,73.8z M96.2,105.5L96.2,105.5c0.2-0.1,0.3-0.3,0.4-0.4c0.3-0.3,0.7-0.5,1.1-0.7
			c1-0.6,2.3-1.4,4-2.3c3.1-1.7,4.8-2.6,5.1-2.9c0.7-0.5,2.9-1.3,6.7-2.3c3.6-1,5.8-1.5,6.8-1.5l-1-0.1c0.5-2.5,0.8-4,0.8-4.3
			c0-1.6-0.3-2.9-1-3.8c-0.8-0.9-1.4-1.7-1.8-2.3l-1.3-0.1c-0.6,1.7-2.5,2.7-5.8,3.1c-1.8,0.2-3.2,0.5-4.3,0.6
			c-0.9,0.2-1.7,0.4-2.4,0.6c-0.1,0.1-0.2,0.1-0.2,0.1c-1.8,1.2-5,3.5-9.6,7l-0.4,2.4c0.3,2.1,1,3.9,1.9,5.4l1,1.3L96.2,105.5
			L96.2,105.5z M193.5,41.8c0.1-0.9,0.2-2,0.2-3.2l-0.2,0C193.6,39.4,193.6,40.4,193.5,41.8z M165.3,52.3c-2.1-1.4-3.4-2.2-3.9-2.4
			h-1c0.2,0.2,0.8,0.8,1.8,1.8c1.2,1.2,2.6,2.7,4.2,4.4c0.7,0.8,1.6,2,2.6,3.8c1,1.4,2.2,2.3,3.6,2.5l0-0.4l3.7-0.4
			c-0.3-0.2-0.9-0.9-1.5-2c-0.9,0-1.7-0.6-2.3-1.7c-0.7-1.1-1-2.4-1-4c-0.7-0.7-1.7-1.1-2.8-1.3c-1.3-0.2-2-0.3-2-0.4l-1.4-0.1
			L165.3,52.3L165.3,52.3z M194.1,20.6c-1.2,1.9-2.8,4-4.8,6.5c-0.1,0.7-0.8,2.5-2.2,5.4c-1.5,2.9-2.3,4.5-2.4,4.7
			c1.1-0.7,2.3-1.4,3.6-2c0.4-0.3,1.6-1.2,3.4-2.5c1.5-1.1,2.7-2,3.3-2.6c0.6-0.6,1.2-2.1,1.7-4.4c0.2-1.2,0.5-2.5,0.8-3.9l0.4-0.7
			v0l-0.2-0.8l-0.5,0C196.5,20.4,195.5,20.5,194.1,20.6z M158.1,76.9c6.9,2.8,10.7,4.3,11.6,4.6c1.5,0.5,3.2,0.5,5.2,0.2
			c1-0.5,1.8-1.4,2.2-2.8c0.3-0.9,0.8-2.8,1.4-5.9c-0.5-0.3-1.8,0.2-3.9,1.3c-2.7,1.4-4.8,2.3-6.4,2.7c-1.4,0.3-3.2,0.4-5.2,0.3
			C160.8,77.1,159.1,77,158.1,76.9L158.1,76.9z M139.3,69c0.2,0.1,0.5,0.3,1.1,0.6c0.5,0.3,0.8,0.6,0.9,0.6c-1.7,1-3.1,1.5-4.1,1.6
			c0.8,0,2,0.2,3.6,0.5c2.3,0.5,4.3,1.2,6,2c2.2,0.2,3.8,0.5,4.8,0.6c1.2,0.2,2.6,0.6,4.2,1.2l5.5,0.3c1.4,0,2.4-0.2,3-0.6
			c1.9-1.3,2.9-2,3-2c0.2-0.3,0.7-0.8,1.4-1.4c0.5-0.5,0.9-1.1,1.3-1.8c0.1-0.9,0.2-2.5,0.2-4.8c0-2.3-0.8-3.6-2.4-3.7
			c-0.9,0-1.7,0-2.2-0.1c-0.9-0.2-1.6-0.6-2.1-1.2c-0.7-0.9-1.2-1.9-1.4-3.2c-0.1-0.7-0.7-1-1.6-1c-2.2-0.2-4.4-0.2-6.5,0
			c-4.1,0.3-6.6,1.3-7.3,3c-1,1.8-1.6,3-1.9,3.6l-0.1-0.8l-1.8,1.9l0.8,0.7C141,67.6,139.5,68.9,139.3,69L139.3,69z M139.2,91.6
			c-0.6-0.4-1.8-1.2-3.8-2.3c-1.7-0.7-2.9-1.2-3.7-1.4c0.7,0.6,1.4,1,1.9,1.3C134.5,89.6,136.3,90.4,139.2,91.6z M127.4,75.3
			c-0.5,0.1-3,1-7.6,2.6c1.6-1.3,2.5-2.1,2.6-2.3c0.2-0.1,1.7-0.8,4.5-2l-1.6,0c0.8-0.8,1.3-1.3,1.7-1.6c0.3-0.2,1.3-0.7,3-1.5
			c-0.5,0.1-1,0.2-1.6,0.4l-3.2,1.2c-2,0.9-3.1,1.4-3.1,1.4c-0.3,0-1-0.4-2.1-1.2c-0.8-0.6-1.7-1-2.8-1.3c-0.6-0.2-1.3-0.3-2-0.4
			c-1.6-0.1-3.8-0.1-6.5,0l-1.6,0.2l1.1,0.5l2.1-0.1c2.3,0,3.9,0.5,4.7,1.5c0.7,1,1.3,3.1,1.5,6.4h-0.8l0,1.2l1.4-1.3l0.2,1.3h0.6
			l1.7,0l0.2,2.2l0.8,0.6c-0.4-0.6-0.6-1.1-0.6-1.7c0-0.3,0-0.5,0.1-0.5l0.2-0.1l-0.5-0.6c0.3-0.5,1.2-1.3,2.7-2.3
			C124.1,76.7,125.8,75.9,127.4,75.3L127.4,75.3z M142,63.6c0-0.7-0.3-1.3-1-1.8c-0.7-0.5-1.5-0.7-2.4-0.7
			C139,61.3,140.1,62.1,142,63.6z M132.9,60c0.5,0.7,1.4,1,2.5,1c0.6,0,1.2,0,1.9-0.2L132.9,60L132.9,60z M144.6,63.4h0.1l0.2,0.4
			c0.1,0.2,0.3,0.3,0.4,0.2l-0.8,0.8C144.5,64.7,144.6,63.4,144.6,63.4z M136,40.4c-0.3-0.8-0.8-2.9-1.6-6.4c0-0.2,0.1-0.9,0.3-2
			c0.2-1.2,0.2-2.1,0.3-2.8c-0.3-0.2-0.6-0.4-0.9-0.5c-0.6,0.7-1,1.8-1.4,3.4c-0.5,2.2-0.8,3.5-1,4c-1.2,3.2-4.2,4.8-8.8,4.8
			c-3.1,0-6.5,0.5-10.2,1.6c-3.6,1-6.2,2.1-7.9,3.4c0.5-0.2,1.4-0.7,2.7-1.3c1.5-0.6,3.6-0.8,6.1-0.8c3.1,0,5.3,0.2,6.8,0.7
			c1.2,0.4,2.2,1.1,3,2.2c0.5,0.7,1.3,2,2.4,4c1.3,2,2.9,3.9,4.9,5.8l1.6,0.1c0.2-0.2,0.4-0.3,0.8-0.5c0.3-0.2,0.4-0.5,0.4-0.9
			c0-0.1-0.2-0.6-0.7-1.6c-0.5-1.1-0.7-2-0.7-2.6c0-1.7,0.7-3.4,2-5.2C135.3,43.9,136,42.1,136,40.4C136,40.4,136,40.4,136,40.4z
			 M102.3,68.5l-0.6-0.1v0.9L102.3,68.5z M102.9,67.4c0.2-0.5,0.6-3.9,1.3-10c0-1.1-0.2-1.8-0.7-2.2c-0.3-0.3-1-0.6-2.1-0.9
			c-3.4-0.8-6.3-2.1-8.6-3.7c0.5-0.1,2.3-0.3,5.4-0.7c2.9-0.5,4.4-1.2,4.4-2.1c0-0.2-0.1-0.3-0.2-0.5c-0.3-0.2-0.5-0.4-0.7-0.6h-0.1
			l2-0.6c5.4-3.2,9.4-5.3,11.9-6c1.4-0.5,3.6-1.1,6.5-1.9c-1.5,0.4-3,0.7-4.5,1l-2.8,1c-1.2,0.5-2.4,0.9-3.7,1.4
			c-2.5,0.9-4,1.4-4.3,1.4c-0.2,0-2,0.5-5.4,1.6c-1,0.4-2.2,0.6-3.6,0.4c-0.9-0.1-1.5-0.2-1.8-0.4c-1.2-0.1-2-0.3-2.6-0.5
			c-0.9-0.3-1.6-0.9-2.1-1.7c-1.2-0.7-2-1.4-2.6-2l-0.3,2.8c0.1,0.2,0.1,0.9,0.1,2.2c2.4,4.1,4.3,6.5,5.6,7.1
			c0.5,0.2,1.3,0.5,2.4,0.9c1.2,0.5,2.6,1.3,4,2.4c1.9,1.4,2.9,2.8,2.9,4.2C103.1,62.4,102.9,64.9,102.9,67.4z M143.4,33.7l1-3.6
			c-0.4,0.2-0.8,0.4-1.1,0.6C143.3,32.3,143.3,33.3,143.4,33.7z M181.8,40.7l0.6-0.4v-0.2L181.8,40.7z M148.3,28.5
			c0.4-0.2,0.8-0.6,1.3-1.2c0.5-0.6,1.4-1.8,2.5-3.4c-0.4,0.4-1.2,1.2-2.1,2.4C149,27.6,148.4,28.3,148.3,28.5z M102.5,12.8
			c0.1,2,0.1,3.9,0.3,5.9c0.4,1.1,0.7,1.9,1,2.6l-0.2-2.4l1.8,1.5c0.2-1.9,0.7-3.4,1.5-4.6c1-1.3,2.3-2,4.1-2c6.4,0,10.1,0.3,11,1
			c0.4,0.3,0.7,0.8,0.9,1.6c0.3,1,0.7,1.9,1.2,2.6c0.1,0.1,0.5,0.3,1.2,0.8c0.7,0.5,1.1,0.8,1.2,0.9c0.2,0,0.8-0.2,2-0.6
			c1.2-0.4,1.8-0.6,2-0.6c-0.7-0.6-1.9-1.2-3.4-1.8c-1.5-0.6-2.8-1.4-3.8-2.2c-0.1-0.1-0.2-0.6-0.5-1.8c-0.3-1.2-0.6-2.1-0.9-2.7
			c-0.9-1.5-2.9-2.3-5.8-2.3c-4.8,0.4-7.9,0.6-9.4,0.6c-1.1,0-1.8,0-2,0.1c-0.9,0.3-1.5,0.9-1.8,2C102.9,11.5,102.5,12.8,102.5,12.8
			z M127.3,24.2l0,0.9l-1.1-0.9l-3.3,0.1c0,2.3,0.3,3.9,0.8,5l0-1.3c2.3,0.3,4.1-0.8,5.6-3.4c1.1-2,1.6-3.6,1.6-4.8
			c0,1.2-0.3,2.2-1,3.1C129.1,23.7,128.3,24.2,127.3,24.2L127.3,24.2z M66.7,49.5l-1.5,0.3c1.5-0.1,2.8,0,3.8,0.4
			c1,0,2.7,0.5,4.9,1.6c3.4,1.7,6.8,3,10.1,4.1c0.5,0.2,2,0.4,4.3,0.8c1.9,0.3,3.1,0.6,3.6,1c0.4,0.3,1.1,1.2,2.2,2.8
			c1,1.5,1.9,2.9,2.5,4.1c0.2,0.3,0.9,1.3,2.2,2.8c0.8,1,1.2,2,1.3,3c0.5-0.4,0.8-0.8,1-1.1c0.1-0.2,0.2-0.5,0.3-0.9l-1.7-0.4
			c0.5-0.6,0.7-1.3,0.7-2.1c0-0.9-0.2-1.9-0.7-3c-0.1-0.2-0.4-0.7-0.7-1.2c-0.3-0.7-0.5-1-0.5-1.1v0c-1-1.6-1.9-2.7-2.7-3.2
			c-0.4,0-0.7-0.1-0.9-0.3c-0.3-0.2-0.4-0.4-0.4-0.6c-1-0.6-2-1.2-3.1-1.7c-0.5-0.2-1-0.3-1.6-0.4c-2,0.1-3.7-0.1-5.2-0.3L84,53.9
			c-0.9,0-2.4-0.3-4.4-0.9c-1.8-0.5-2.9-0.9-3.3-1.2c-0.5-0.1-1.6-0.6-3.2-1.4c-1.5-0.8-2.6-1.2-3.3-1.2
			C68.9,49.1,67.9,49.3,66.7,49.5L66.7,49.5z M110.2,73.4l-4.2-0.2c0.1,0,1.1,0.2,2.9,0.6c1.6,0.3,2.7,0.5,3.2,0.5
			C111.5,73.9,110.8,73.6,110.2,73.4z M89.2,35.3l-0.3-0.4l0.1,1.3C89,36.2,89.2,35.3,89.2,35.3z M68.4,44.8l0.8,1.8l-6.7-3.5
			c0.2,0.3,0.5,0.9,1,2c0.5,1,0.9,1.7,1.4,2.1c-0.7,0.2-1.9,0.5-3.6,1C60,48.6,59,49,58.6,49.1l4.4-0.6c0.9-0.3,1.5-0.5,2-0.8
			c0.5-0.2,1.6-0.4,3.5-0.6l3,0C71.6,47,68.4,44.8,68.4,44.8z M71.6,47c1.3-0.1,2.5-0.1,3.8-0.1c0.5,0,2.6,0.2,6.1,0.6l1.4,0l0-0.1
			c0.1-0.1,0.2-0.2,0.3-0.2c-0.7-0.7-1.9-1.5-3.8-2.6c-0.7-0.4-1-1.4-1-3c0-1.9,0.5-3.4,1.5-4.6c0.8-1,1-2.1,0.6-3.5l-2.5,0
			c0,2.6,0,4.1-0.1,4.4c-0.6,2.4-2.4,3.6-5.3,3.6c-0.8,0-1.7-0.1-2.8-0.2c-1-0.1-1.7-0.4-2.1-0.7l-1.6-0.8l0.3,0.6
			c0.2,0.2,1.1,1.4,2.6,3.4C70.7,45.7,71.5,46.8,71.6,47z M80.1,32.5c-0.1-0.2-0.2-0.5-0.3-0.9c-0.2-0.7-0.3-1.3-0.4-1.9l0.5-2.6
			h-2.2C77.7,29.8,78.4,31.6,80.1,32.5z M81.1,25.9l-0.2-1.5c-0.1-0.9,0.4-1.8,1.6-2.8c0.2-1.8,0.7-3.3,1.6-4.4
			c0.5-0.6,1.1-1.1,1.7-1.4c4.9-2.6,7.5-3.8,8.1-3.8c0.4,0,0.9,0.2,1.6,0.6c0.7,0.3,2,0.5,4,0.4l0-0.7c0-2.5-1.9-3.7-5.8-3.7
			c-3.2,0-6,0.8-8.2,2.4c-2,1.4-3.6,3.4-4.6,6c0.1,1.2-0.1,2.3-0.3,3.2c0,1.7-0.1,3.1-0.4,4.2l0,1.8c0-0.1,0-0.2,0.1-0.4
			c0.1-0.2,0.1-0.3,0.3-0.4c0.1-0.1,0.3,0,0.4,0C80.9,25.5,81,25.7,81.1,25.9z"/>
		<path id="path18" inkscape:connector-curvature="0" class="st2" d="M222,30.8c-0.2-1.7-1-3.1-2.5-4.1c-1.7-1.2-4.3-1.8-7.6-1.8
			l-1.8,0.2c0.5,2.7,1,5.9,1.5,9.6l-0.2,0.6c-0.2-0.1-0.6-0.3-1.4-0.6c-0.7-0.3-1.2-0.4-1.3-0.4c0.1,0.1,0.5,0.4,1.3,1s1.2,1,1.4,1
			c1.3,0,2-0.9,2-2.7c0-1.2-0.3-3.3-0.9-6.5c1.2-0.2,2.2-0.2,3.1-0.2c1.9,0,2.9,0.7,3.2,2c0.1,2.7,0.2,5.4,0.3,8.1
			c0.8-0.7,1.5-1.8,2.1-3.4C221.8,32.3,222,31.4,222,30.8z M146.1,14.4l-0.5,0.4c-0.6,0.4-1.2,0.7-1.8,1c-0.9,1.8-1.5,3.4-2.1,4.6
			c-1,2.4-1.6,4.8-1.6,7c0,0.6,0.2,2.9,0.5,6.9c0.3,4.2,0.5,6.4,0.5,6.6c0.6,0.6,1.2,1.2,1.9,2c0.6,0.5,1.6,1.1,3,1.6
			c-0.7-0.9-1.3-1.8-1.6-2.7l-0.3-1.1c0.5,0,1.4,0.5,2.9,1.5c1.8,1.2,4.1,2.3,6.9,3.3c-0.9-0.3-1.7-0.7-2.5-1.1
			c-2-1-3.8-2.5-5.5-4.6l-0.2-0.2c-1.4-1.8-2.5-3.7-3.3-5.8c-0.8-2-1.2-3.9-1.2-5.6c0-4.3,0.4-7.1,1.1-8.2c0.2-0.2,0.8-1,1.8-2.2
			C145.2,16.5,145.9,15.3,146.1,14.4L146.1,14.4z M21.5,4.7c1.2,0.2,2.4,0.3,3.6,0.4c-0.3-0.1-0.8-0.3-1.6-0.4
			c-0.7-0.1-1.3-0.1-1.8-0.1h0L21.5,4.7z M124.9,95.9l-1.8,1.6c-0.8,0.4-1.5,0.7-2.2,0.8l1.3,0.3c-0.5,0.4-1.3,0.8-2.4,1.4
			c-1.1,0.5-2.1,0.9-2.9,1.1l-1,0.4c2,0,4.1-0.5,6.5-1.6c2.3-1,3.8-1.5,4.5-1.6c0-0.2,0.4-0.4,1.3-0.5c0.9-0.1,1.9-0.1,2.9,0.1
			c2.9,0.5,4.6,1.8,5,4l0.5,0c0.2,0,0.3-0.1,0.5-0.2c0.2-0.1,0.3-0.3,0.5-0.5l0.1-0.2c0.1-0.5,0.3-1.5,0.4-2.9
			c0.4-0.7,0.8-1.4,1.4-2.1c-1.7-2.2-2.8-3.5-3.4-4.1c-2.1-2-4.6-3.6-7.6-4.8l-0.3,0c2.2,1.1,3.8,2,4.8,2.8c1,0.8,1.8,1.9,2.4,3.2
			c-0.4-0.3-1-0.6-2-0.8c-0.7-0.2-1.3-0.2-1.8-0.2c-1.1,0-1.8,0.2-2.1,0.6c-0.2,0.2-0.3,0.6-0.5,1.3
			C128.7,95.2,127.3,95.9,124.9,95.9L124.9,95.9z M131.3,94.5c0.8,0.1,1.4,0.3,1.6,0.6c0.3,0.3,0.8,1.5,1.5,3.4
			c-0.4-0.6-1.3-1.2-2.8-1.8c-1.7-0.7-2.7-1.2-2.8-1.2l0.2-0.2c0.3-0.2,0.7-0.3,1.2-0.5c-0.1-0.6-0.1-1.3,0-2l0.6-0.1
			c0.3,0.1,0.5,0.2,0.6,0.3L131.3,94.5L131.3,94.5L131.3,94.5z M188.6,79.6c-0.3-9.4-2.3-14.1-6.2-14.1c-1.6,0-3.4,0.3-5.3,0.8
			c-2,0.5-3.4,1.2-4.2,1.9l-0.6,0.8c0.1-0.4,0.4-1.6,0.9-3.8c0.3-1.2,0.7-1.8,1.2-1.8l3,0.4c2.1,0.3,3.6,0.5,4.4,0.5
			c0.4,0,1.9,0,4.4-0.1c2.3-0.1,4.1-0.1,5.4-0.1c0.3-0.4,0.5-0.7,0.5-0.7l0.6-0.5l1.4-0.5c0-0.2-0.2-0.2-0.5-0.3l-2.7-0.4
			c-1.4,0.1-3.3,0.1-5.9,0c-4.7-0.1-7.5-0.2-8.5-0.2l-3.7,0.4l0,0.4c0.2,0.6,0.2,1.3,0.1,2.1c-0.2,1.5-1.1,3.6-2.6,6.2
			c-0.4,0.7-0.8,1.3-1.3,1.8c-0.7,0.7-1.1,1.1-1.4,1.4c1.2,0.3,2,0.1,2.6-0.6c0.2-0.3,0.6-1.1,1.2-2.4c1-2.6,3.1-3.9,6.2-3.9
			c2.1,0,3.8,0.7,5,2.1c1.3,1.5,2,3.7,2,6.5c0,0.9-0.6,2.1-1.7,3.7c-1.9,2.6-3.6,5.3-5.1,8.3l-1.3,2.6c-0.1,0.4-0.3,0.9-0.4,1.4
			c-0.1,0.3-0.2,0.5-0.3,0.7l0.9-0.2c0.3,0,1.3-0.3,2.8-0.9c1.9-1.4,3.7-2.5,5.4-3.6c0.9-0.7,2-2.1,3.2-4.2c0.4-1.2,0.7-2.2,0.9-3.2
			c0-0.1,0-0.1,0-0.2c0,0,0-0.1,0-0.1v-0.1C188.6,79.8,188.6,79.7,188.6,79.6L188.6,79.6L188.6,79.6z M203.6,51.6
			c1-2.9,1.6-4.4,1.6-4.4l-1.9,2l-1.6,0.7l1.6,4.4C203.4,53.4,203.5,52.5,203.6,51.6z M201.3,37.2l3.7,1.4l3.1,0.5
			c0,1.4-0.2,2.7-0.6,3.8c0.5-0.8,1-1.6,1.5-2.4c0.3-0.5,0.4-1.1,0.4-1.8c0-1.2-0.3-1.9-1-2.3c-0.6-0.3-1.8-0.5-3.6-0.5
			c-1.4,0-2.3,0.1-2.8,0.2c-0.5,0.1-0.9,0.4-1.1,0.8L201.3,37.2L201.3,37.2z M209.3,29.3c-0.4-0.9-0.8-1.5-1.3-1.8
			c-0.5-0.2-0.8-0.6-1-1.2c-0.4-0.9-0.7-1.5-0.8-1.7c-0.3-0.4-0.9-0.6-1.7-0.6c-1.6,0-2.5,0.2-2.8,0.5c-1,1.2-2.1,2.2-3.1,2.9
			c-0.2,0.4-0.4,1.2-0.4,2.2c-0.1,2.3-2.3,4.5-6.8,6.8c-4.9,2-7.8,3.3-8.8,3.8l-0.6,0.4l-1.6,1.3c2.7,0,5.4-0.5,8.2-1.4
			c1.5-0.5,3.2-1.2,5.2-2l0.2,0c5.6-1.4,8.6-3.7,9-6.9c0.2-1.1,0.7-1.8,1.6-2.2c0.8-0.3,2.1-0.5,4-0.5C208.7,29,209,29.1,209.3,29.3
			L209.3,29.3z M203.9,33.9c0.2-0.1,0.7-0.3,1.4-0.4c0.7-0.1,1.2-0.2,1.6-0.2c0.2,0,0.6-0.1,1.2-0.3c0.6-0.2,1-0.4,1.4-0.6
			c-3.2,0.4-5.6,0.9-7.2,1.4L203.9,33.9z M153,79.2L153,79.2c0,0.8,0,1.2,0,1.3c-0.6,0.5-1.1,0.9-1.6,1.2c-0.9,0.6-3,1.3-6.5,2.2
			c1.7,0.5,3.8,0.1,6.3-1c2.6-1.2,4-2.6,4.1-4.3c-0.3-0.8-0.6-1.3-0.8-1.6c-0.1-0.1-0.2-0.1-0.2-0.1c-0.3-0.1-0.6,0.1-0.8,0.6
			C153.2,77.9,153,78.5,153,79.2z M127.7,34.6c0.6-0.7,1.4-1.5,2.6-2.5c0.9-1,1.6-2.5,2.1-4.4C131,28,129.5,30.3,127.7,34.6z
			 M132.9,18.9c-0.1,0.2-0.5,1.1-1.3,2.6c-1,1.9-2,4.2-3,6.6c0.4-0.6,1.3-1.6,2.6-2.8C132.4,23.9,132.9,21.7,132.9,18.9z M164.9,7.4
			c-0.2-0.1-1.2-0.3-2.8-0.8c-1-0.3-2.2-0.4-3.5-0.4c0.6,0.8,1.6,2.3,3.2,4.6c0.1,0.1,0.1,0.2,0.2,0.3l0-0.1l0.2-1
			c0-1,0.3-1.7,0.9-2.1C163.3,7.9,163.9,7.7,164.9,7.4L164.9,7.4z M170.9,15.1c-2.9-0.1-4.9-0.1-6,0c-0.4,0.1-0.8,0.2-1.2,0.4h0.1
			c0.3,0,2.1,0.1,5.4,0.1c2.5,0,5.5,0.4,9,1.2c5-0.7,9.1-0.6,12,0.4c1.6,0.5,2.8,1.2,3.8,2c0.5,0,0.8,0,0.9,0.1h1.8l0.1-0.7
			c-0.5-2.5-1.1-4.2-1.9-5.2l-0.6-0.6l-0.6-0.3c0.5,1.1,0.7,2,0.7,2.6c0,0.3,0,0.5-0.1,0.6c-0.2,0.3-0.3,0.5-0.3,0.6
			c-0.3-0.2-0.8-0.3-1.5-0.4c0,0-0.6-0.1-1.8-0.2c-0.1-0.2-0.1-1.3,0.1-3.1c0-1.2-0.6-2.3-1.8-3.2c-1.6-1.2-3.9-1.8-7-1.7
			c1.8,0.7,3.1,1.8,4.1,3.2c0.7,1,1.1,1.9,1.1,2.7c0,0.5-1,0.9-2.9,1.3c-2,0.3-4.7,0.5-7.9,0.5C176.4,15.2,170.9,15.1,170.9,15.1z
			 M134.3,24.4c0.5-0.2,0.8-0.3,1-0.2c0.1,0.1,0.4,0.3,0.9,0.8l2.4,0.8v-2.5c0-0.6-0.2-1.2-0.4-1.6c-0.3-0.5-0.6-0.7-1-0.7
			c-0.3,0-0.6,0.1-1,0.4c-1,0.7-2.1,1.6-3.4,2.5l0.3,0L134.3,24.4z M102.5,12.8l0.4-1.3c0.4-2.2,0.9-3.6,1.4-4.2
			c0.7-0.9,2.1-1.4,4.2-1.4c0.5,0,2.3,0.1,5.4,0.2c3.3,0.1,5.4,0.2,6.4,0.3c0.8,0.1,1.7,0.6,3,1.7c1.2,1,1.9,1.9,2.1,2.6v-0.2
			c0.1,0.5,0.5,1,1.2,1.5c0.5,0.4,0.9,0.6,1.2,0.6c0.7,0,1.2-0.5,1.3-1.4c0.1-0.4,0.1-1.3,0.1-2.6c0-1.6-0.7-2.6-2-3
			c-1.7-0.3-3-0.7-3.8-1.2c-0.9-0.5-2.3-1.1-4.1-1.6c-1.9-0.5-3.4-0.7-4.6-0.7c-1.4,0-2.4,0.3-3,0.9c-0.6,0.7-1.9,1.1-4,1.2
			c-1.9,0.1-3,0.3-3.3,0.6C103,5.9,102.4,8.6,102.5,12.8L102.5,12.8z M132.9,14.6c-0.9,1.1-1.6,1.9-2,2.2c-0.4,0.3-0.9,0.4-1.4,0.4
			c-0.4,0-1.1-0.1-2-0.4c-1-0.3-1.5-0.5-1.6-0.5c0.8,0.9,2.1,1.4,3.7,1.4C131.1,17.6,132.2,16.6,132.9,14.6z M126.9,98.3
			c-0.4,0-0.5-0.1-0.3-0.3C126.8,97.8,126.9,97.9,126.9,98.3z M124.6,88c0.6,1.1,1,1.9,1.2,2.3c0.3,0.6,0.4,1.6,0.4,2.8
			c0,0.5-0.2,1.1-0.6,1.8c0.9-1,1.4-1.8,1.4-2.5C126.9,90.8,126.2,89.3,124.6,88z M76.2,51.8c0.4,0.2,1.5,0.6,3.3,1.2
			c2,0.6,3.5,0.9,4.4,0.9L76.2,51.8z M83,50.3L79.2,50c0.4,0.2,1,0.3,1.8,0.3C81.5,50.3,82.1,50.3,83,50.3z M87.5,54
			c0.8,0.1,1.6,0.1,2.3,0.3c0.6,0.1,1.1,0.2,1.6,0.4c0.1,0,0.6,0.2,1.5,0.6c1,0.4,1.5,0.7,1.8,0.8c0.5-0.4,1-0.6,1.6-0.6
			c0.5,0,0.8,0.1,1,0.4c0.2,0.3,0.5,1.1,0.8,2.4l-1.3-0.6c1,1.6,1.6,2.5,1.7,2.7v0c0,0.1,0.2,0.5,0.5,1.1c0.3,0.6,0.5,1,0.7,1.2
			c0.5,0.3,0.8,0.5,0.9,0.7c0.4,0.3,0.7,0.9,1.1,1.6c0.1-4.8-2.4-8.7-7.6-11.7c-1.9-1.1-3.9-2-6-2.5c-1.9-0.5-3.3-0.6-4.2-0.5
			c1.9,0.3,3.2,0.8,3.9,1.4c0.4,0.3,0.7,0.7,1,1.3C88.5,53.5,88,53.8,87.5,54z M88.5,45.4c0-1.3,0-2-0.1-2.2
			c-1.1-2.5-1.9-4.2-2.6-5.3c-1.1-1.8-2.2-2.6-3.2-2.5c-0.1,1.7-0.3,3-0.6,4c-0.4,1-0.6,1.8-0.6,2.4c0,0.7,0.7,1.3,2.2,1.8
			c2,0.7,3.6,2,4.9,3.7L88.5,45.4L88.5,45.4z M45.8,13.3c0.9,4.5,1.6,7.3,2.1,8.3l1.1,3c0.1-3.4,0-6.6-0.1-9.6c-0.2-3-0.4-5-0.8-5.9
			c0.2-0.9,0.3-1.3,0.4-1.4c0.6,0,2.4,0.7,5.3,2.1c3.8,1.3,8.3,1.8,13.6,1.5c-1.7-0.8-3.3-1.8-4.8-2.8c-1.4-1-2.4-1.7-3-2.1
			c-1.9-1.2-4.8-1.8-8.6-1.8c-2.1,0-3.1,0.3-3.1,1C47.9,7.4,48,8.6,48,9.2l0,0.9l-0.4,8.3c0-1.7-0.4-3.8-1.3-6.2
			c-0.8-2.3-1.6-3.8-2.4-4.4c0.6,1.3,1.1,2.6,1.4,3.9C45.6,12.8,45.8,13.3,45.8,13.3z M13.5,8.3l-1.3,0.4l-0.6,0.6
			c0,0,0.1,0.5,0.5,1.6c0.3,0.9,0.5,1.6,0.6,1.9L13.5,8.3z M102.4,6.3c-0.5-0.7-1.2-1.2-2.3-1.4c-0.7-0.2-1.7-0.3-3-0.3
			c-2.4,0-3.9,0.2-4.5,0.6c-2.3,1.5-3.5,2.3-3.6,2.3c4.1,0,7.4-0.3,9.9-0.9C100.7,6.2,101.8,6.1,102.4,6.3L102.4,6.3z"/>
		<path id="path20" inkscape:connector-curvature="0" class="st3" d="M219.2,36.9c-0.1-2.7-0.2-5.4-0.3-8.1c-0.3-1.3-1.4-2-3.2-2
			c-0.8,0-1.9,0.1-3.1,0.2c0.6,3.1,0.9,5.3,0.9,6.5c0,1.8-0.7,2.7-2,2.7c-0.2,0-0.6-0.3-1.4-1s-1.2-1-1.3-1c-0.9,0-1.6-0.1-2.3-0.1
			c-1.3-0.1-2.2-0.2-2.6-0.3l-1.6-0.1c1.6-0.5,4-1,7.2-1.4c0.2-1.1,0.2-2.1-0.2-3.1c-0.3-0.2-0.6-0.2-1.1-0.2c-1.9,0-3.2,0.2-4,0.5
			c-0.9,0.4-1.4,1.1-1.6,2.2c-0.4,3.2-3.4,5.5-9,6.9c0,1.3-0.1,2.4-0.2,3.2l-0.5,4.1l0.7,0c0.1,2-0.1,3.5-0.4,4.6l0.3,0.8
			c0.6-1.1,1.1-1.9,1.5-2.4c0.3-0.3,0.6-1,1.1-2.1c0.1-0.3,0.6-1.7,1.4-4.3c0.8-2.5,1.2-3.9,1.4-4.1l1.3,1.3c0.4-1,0.8-1.9,1.1-2.5
			l-0.5-0.3c0.2-0.4,0.6-0.7,1.1-0.8c0.5-0.1,1.4-0.2,2.8-0.2c1.8,0,3,0.2,3.6,0.5c0.7,0.4,1,1.1,1,2.3c0,0.7-0.1,1.3-0.4,1.8
			c-0.5,0.7-1,1.5-1.5,2.4c0.3-1.1,0.5-2.4,0.6-3.8l-3.1-0.5c0.2,0.9,0.2,2.5-0.1,4.6c-0.3,2.5-0.9,4.5-1.6,5.9l1.9-2
			c0,0.1-0.6,1.6-1.6,4.4c0.4,0.9,1.2,2.5,2.5,4.6c0.6-1.4,1.1-3.7,1.5-6.7c0.8-3,2.5-5.8,5.1-8.5L219.2,36.9L219.2,36.9z
			 M155.8,19.8c-1.2-0.8-1.9-2.1-2.1-4.1c-0.2-2.4-0.3-3.6-0.3-3.6c-0.2,0.4-0.6,2.4-1.2,6.2c-0.5,3.3-1.2,5.2-2,5.7l-0.9-0.1v-1.7
			c0.1-0.6,0.5-2.2,1.2-4.9c0.7-2.9,0.9-5.3,0.6-7.4l-0.5,0.4c-1.3,1.1-2.6,2.3-4,3.8l-0.4,0.4c-0.2,1-0.9,2.1-1.9,3.5
			c-1.1,1.2-1.7,1.9-1.8,2.2c-0.7,1.1-1.1,3.9-1.1,8.2c0,1.7,0.4,3.6,1.2,5.6c0.8,2.1,1.9,4,3.3,5.8l0-0.6c-0.1-0.5-0.2-0.9-0.3-1.4
			l0.2-0.8l0.8-0.1c-0.5-0.4-0.9-0.8-1.4-1.2c-0.8-0.8-1.4-1.4-1.7-1.9c-0.1-0.3-0.1-1.3-0.2-3c0.3-0.2,0.7-0.5,1.1-0.6
			c0.2-0.1,0.8-0.3,1.8-0.6c1-0.3,1.7-0.6,2.1-1c0.1-0.2,0.7-0.9,1.6-2.2c1-1.2,1.7-2.1,2.1-2.4c1.6-0.8,4.7-1.2,9.4-1.3h0.2
			c-1.3-0.9-2.1-1.5-2.7-1.8C158.2,20.4,157.1,20,155.8,19.8L155.8,19.8z M123.7,29.2c0,0.4,0.2,0.7,0.6,1c0.4,0.3,0.8,0.4,1.3,0.4
			l0.4,0.6c-0.1,0.8-0.2,1.6-0.3,2.4c0.4-0.5,0.8-1.3,1.2-2.2c0.4-0.8,0.6-1.3,0.6-1.4c0-0.6-0.3-1.1-0.8-1.2
			c-0.8-0.1-1.5-0.3-2.2-0.4l-0.4-0.1c2.2,0.1,3.6,0.1,4.4-0.1c1-2.5,2.1-4.7,3-6.6c0.8-1.6,1.2-2.5,1.3-2.6c-0.1-0.6,0-1.6,0.3-2.9
			c0.2-1,0.4-1.8,0.6-2.2v-0.3l-0.8,1c-0.8,2.1-1.9,3.1-3.2,3.1c-1.7,0-2.9-0.5-3.7-1.4c-0.3-1.8-0.5-3.7-0.6-5.6
			c-0.2-0.7-0.9-1.5-2.1-2.6c-1.2-1.1-2.2-1.7-3-1.7c-0.9-0.1-3.1-0.2-6.4-0.3c-3.1-0.1-4.9-0.2-5.4-0.2c-2,0-3.4,0.5-4.2,1.4
			c-0.6,0.6-1,2.1-1.4,4.2c0.3-1.1,0.9-1.8,1.8-2c0.2-0.1,0.9-0.1,2-0.1c1.4-0.1,4.6-0.3,9.4-0.6c2.9,0,4.8,0.8,5.8,2.3
			c0.3,0.5,0.6,1.4,0.9,2.7c0.3,1.1,0.4,1.7,0.5,1.8c1.1,0.9,2.4,1.6,3.8,2.2c1.5,0.6,2.6,1.2,3.4,1.8l0.3,0.3
			c0.1,1.2-0.4,2.8-1.6,4.8c-1.4,2.6-3.3,3.7-5.6,3.4C123.7,28,123.7,29.2,123.7,29.2z M25.1,5.1c-1.2-0.1-2.4-0.2-3.6-0.4
			c-1.2,0.4-2.1,0.8-2.7,1.2l-4.3,2l-1,0.4l-0.7,4.5c-0.1-0.3-0.3-0.9-0.6-1.9c-0.3-1-0.5-1.5-0.5-1.6l-2.4,2.5
			c-0.1-0.3-0.3-0.7-0.6-1.3c0.4,1.9,0.1,3.6-0.8,5.1c-1.2,2-1.9,3.3-2.1,3.9c-0.1,0.1-0.1,0.1-0.1,0.2L6,19.4L6.4,19
			c0.5-0.3,1.5-0.9,3.3-1.6c1.9-0.9,3.3-1.3,3.9-1.2c2.2-0.2,4.3-0.4,6.5-0.4c0.9,0,1.6,0.1,2.1,0.3c0.9,0.4,1.5,0.7,1.8,0.8
			l0.7-0.1c-0.3-0.4-0.6-0.7-1-0.9c-1-0.7-2.7-1.3-5.2-1.8c-1.9-0.4-3.2-0.6-3.7-0.6c0.2-2.7,0.7-4.5,1.5-5.4c1-1,2.9-1.5,5.8-1.5
			c2.7,0,4.5,0.1,5.3,0.2c-0.3-0.3-0.5-0.6-0.8-0.8C26.3,5.6,25.7,5.3,25.1,5.1C25.1,5.1,25.1,5.1,25.1,5.1z M139.2,91.6
			c-2.9-1.2-4.7-2-5.6-2.4c-0.6-0.3-1.2-0.7-1.9-1.3c-1.4-0.5-2.4-0.7-3.2-0.8c3,1.2,5.5,2.8,7.6,4.8c0.6,0.6,1.8,2,3.4,4.1
			c0.9-0.8,1.6-1.3,2.1-1.5c0.3-0.1,0.8-0.2,1.5-0.3c-0.1-0.1-0.8-0.6-1.9-1.4C139.9,92.1,139.3,91.7,139.2,91.6z M177.4,87.6
			c1.5-3,3.2-5.8,5.1-8.3c1.1-1.5,1.7-2.8,1.7-3.7c0-2.8-0.7-5-2-6.5c-1.2-1.4-2.9-2.1-5-2.1c-3.1,0-5.1,1.3-6.2,3.9
			c-0.6,1.3-1,2.1-1.2,2.4c-0.6,0.6-1.4,0.8-2.6,0.6c0,0-1,0.7-3,2c-0.6,0.4-1.5,0.6-3,0.6l-5.5-0.3c-0.4,0.1-0.9,0.4-1.3,0.9
			c0.2,0.2,0.5,0.8,0.8,1.6c0-0.5,0.3-0.8,0.8-1.2c0.5-0.3,1.2-0.5,2-0.5c1,0.1,2.7,0.2,5,0.4c2,0.2,3.8,0.1,5.2-0.3
			c1.5-0.4,3.6-1.3,6.4-2.7c2.2-1.1,3.5-1.6,3.9-1.3c-0.6,3.1-1.1,5-1.4,5.9c-0.5,1.4-1.2,2.3-2.2,2.8l-1.1,0.3
			c0.8,0.1,1.5,0.6,2.2,1.4C176.9,84.7,177.4,86.1,177.4,87.6L177.4,87.6z M142,63.6c0.1,0.5,0.2,0.9,0.2,1.4l0.6-0.6l1.8-1.9
			c0.1-0.9,0.2-2.7,0.6-5.3c0-1.5-0.4-2.4-1.3-2.9c-0.6-0.3-1.6-0.5-3.1-0.5c-1.1,0-2,0.3-2.8,0.9c-0.1,0.1-0.8,0.7-2,1.9
			c-1.6,1.5-3.7,2.5-6.2,2.7c1.1,0.2,2.1,0.4,3.2,0.6l4.4,0.8l1.2,0.2c0.9,0,1.7,0.2,2.4,0.7C141.6,62.3,142,62.9,142,63.6L142,63.6
			z M172.5,62.4c-1.4-0.2-2.6-1.1-3.6-2.5c-1-1.8-1.8-3-2.6-3.8c-1.6-1.7-3-3.2-4.2-4.4c-1-1-1.6-1.6-1.8-1.8h1l0.9,0.3
			c0.8,0.4,1.8,1.1,3,2.1l-0.1-0.1c-0.5-1.1-0.9-2.2-1.4-3.5c-0.3-0.9-0.5-1.5-0.6-1.8c-0.4-0.1-0.8-0.1-1.2-0.3
			c-0.8-0.2-1.2-0.5-1.2-0.8c0-1.7-5-3.7-15-6c1.7,2.1,3.5,3.6,5.5,4.6c0.8,0.4,1.6,0.7,2.5,1.1l0.9,0.4c1.3,0.4,3.6,1.2,6.8,2.3
			c-7.7-1.2-11.8-1.9-12.3-2c-0.5-0.4-1.6-0.9-3.2-1.6c-1.4-0.6-2.4-1.1-3-1.6c-0.6-0.7-1.3-1.4-1.9-2c0,4,0.2,6.1,0.4,6.4
			c0.1,0.2,0.6,0.5,1.4,1.1c1,0.7,2,1.6,3,2.6c0.5,0.5,0.7,1.9,0.8,4.4c0,2.1,0,3.5-0.2,4.2c0.7-1.7,3.1-2.7,7.3-3
			c2.1-0.2,4.3-0.1,6.5,0c1,0,1.5,0.3,1.6,1c0.2,1.3,0.7,2.3,1.4,3.2c0.5,0.6,1.2,1,2.1,1.2c0.5,0.1,1.2,0.1,2.2,0.1
			c1.6,0.1,2.4,1.3,2.4,3.7c0,2.3-0.1,3.9-0.2,4.8c1.5-2.6,2.4-4.7,2.6-6.2C172.7,63.7,172.7,63,172.5,62.4L172.5,62.4z M130.2,94.8
			l1.1-0.2v-1.6c0-0.1-0.2-0.2-0.6-0.3l-0.6,0.1C130.1,93.5,130.1,94.1,130.2,94.8z M126.9,73.6c-2.8,1.2-4.3,1.9-4.5,2
			c-0.2,0.2-1.1,1-2.6,2.3c4.6-1.6,7.1-2.5,7.6-2.6h0c0.7,0,2.2-0.3,4.6-0.8c2.1-0.4,5.1-0.6,9.2-0.6c0.5,0,3.3,0.5,8.4,1.6
			l-2.9-1.2c-1.7-0.8-3.7-1.5-6-2c-1.6-0.3-2.8-0.5-3.6-0.5h-0.4c-2.4,0-4.1,0.1-5.2,0.4C128.8,73.1,127.2,73.5,126.9,73.6z
			 M149.7,80.7c-0.1,0-0.1,0-0.2,0H149C149.2,80.7,149.4,80.7,149.7,80.7L149.7,80.7z M153,79.2c-0.5,0.8-1,1.3-1.7,1.5
			c0.6,0,1.2-0.1,1.7-0.2C153,80.4,153,80,153,79.2C153,79.3,153,79.2,153,79.2z M136,40.4c0,1.7-0.7,3.5-2,5.3
			c-1.4,1.8-2,3.5-2,5.2c0,0.6,0.2,1.4,0.7,2.6c0.5,1,0.7,1.5,0.7,1.6c0,0.4-0.1,0.7-0.4,0.9c-0.4,0.2-0.6,0.4-0.8,0.5
			c2.7,0.2,4.1-0.7,4.4-2.7c0.2-1,0-2.2-0.4-3.6c0-0.1,0.3-0.7,1-1.9c0.6-1.3,1-2.2,1-2.7c0-1.1-0.2-2.1-0.7-2.9
			C137.1,42.2,136.6,41.5,136,40.4L136,40.4z M122.6,56.8l-4-0.2c2.9,0.9,5.8,1.6,8.8,2.3c0,0,0,0,0,0c-0.5-0.5-1-1-1.7-1.4
			c-0.4,0-0.9-0.1-1.6-0.2C123.4,57.1,122.9,57,122.6,56.8z M101.4,68.3l0.2-1.2c0.1,0.3,0,0.5,0,0.7c-0.1,0.2-0.1,0.4,0.2,0.5
			l0.6,0.1l0.6,0.2l0-1.2c0-2.5,0.2-5,0.5-7.4c0-1.4-1-2.8-2.9-4.2c-1.4-1.1-2.8-1.9-4-2.4c-1.1-0.4-2-0.7-2.4-0.9
			c-1.4-0.6-3.3-3-5.6-7.1v2c-1.3-1.8-2.9-3-4.9-3.7c-1.5-0.6-2.2-1.2-2.2-1.8c0-0.6,0.2-1.5,0.6-2.4c0.4-1,0.6-2.4,0.6-4
			c1-0.1,2,0.7,3.2,2.5c0.7,1.1,1.6,2.9,2.6,5.3l0.3-2.8c0.2-1,0.3-2.4,0.4-4.2l-0.1-1.3c-0.5-0.7-1.1-1.2-1.7-1.5
			c-0.7-0.3-1.2-0.6-1.6-0.8c-1.4-0.9-2.9-3.1-4.6-6.6c-0.1-0.2-0.1-0.4-0.2-0.4c-0.1-0.1-0.3-0.1-0.4,0c-0.1,0.1-0.2,0.2-0.3,0.4
			c-0.1,0.1-0.1,0.2-0.1,0.4v0.1L80,27.1l-0.5,2.6c0.1,0.6,0.2,1.2,0.4,1.9c0.1,0.4,0.2,0.8,0.3,0.9l0.5,0.9
			c0.4,1.4,0.2,2.6-0.6,3.5c-1,1.2-1.5,2.8-1.5,4.6c0,1.6,0.3,2.6,1,3c1.8,1.1,3.1,1.9,3.8,2.6c-0.2,0.1-0.3,0.2-0.3,0.2l0,0.1
			l-1.4,0c-3.5-0.4-5.5-0.6-6.1-0.6c-1.3,0-2.5,0-3.8,0.1h0l-3,0c-1.8,0.2-3,0.5-3.5,0.6c-0.5,0.2-1.1,0.5-2,0.8
			c1.2-0.1,2.5-0.2,3.9-0.2c2,0,3.6,0.1,4.9,0.2c3.2,0.2,5.7,0.8,7.3,1.5l3.8,0.4l1,0.1c0.9-0.2,2.3,0,4.2,0.5
			c2.1,0.6,4.1,1.4,6,2.5c5.1,3,7.6,6.9,7.6,11.7c-0.3-0.7-0.7-1.2-1.1-1.6c-0.1-0.1-0.4-0.4-0.9-0.7c0.5,1.1,0.7,2.1,0.7,3
			c0,0.8-0.2,1.5-0.7,2.1C99.7,67.9,101.4,68.3,101.4,68.3z M122,38.3c-2.9,0.8-5,1.4-6.5,1.9c-2.6,0.8-6.5,2.8-11.9,6l-0.2,0.2
			l1.4-0.6c1.7-1.3,4.3-2.4,7.9-3.4c3.7-1,7.1-1.6,10.2-1.6c4.7,0,7.6-1.6,8.8-4.8c0.2-0.5,0.6-1.9,1-4c0.3-1.6,0.8-2.7,1.4-3.4
			c0.3,0.1,0.7,0.3,0.9,0.5c0-0.4-0.3-0.8-0.8-1c-0.5-0.3-1.2-0.4-1.9-0.4c-0.5,1.9-1.1,3.4-2.1,4.4c-1.1,1-2,1.8-2.6,2.5
			c-0.3,0.5-0.5,0.7-0.6,0.8c-0.1,0.1-0.4,0.4-0.8,0.8l-0.4,0.7l0.3-0.6C126.2,36.2,122,38.3,122,38.3z M188.2,35.2
			c2-0.7,3.4-1.3,4-1.6c2.3-1,3.7-1.9,4.2-2.7c0.3-0.6,0.6-2.2,0.8-4.7c0.1-1.8,0.2-3.3,0.2-4.5c-0.3,1.4-0.5,2.7-0.8,3.9
			c-0.5,2.3-1,3.8-1.7,4.4c-0.7,0.7-1.8,1.5-3.3,2.6C189.8,34,188.6,34.9,188.2,35.2z M168,14.4l3,0.7l5.4,0.1
			c3.3,0,5.9-0.2,7.9-0.5c1.9-0.3,2.9-0.8,2.9-1.3c0-0.8-0.4-1.7-1.1-2.7c-1-1.4-2.3-2.5-4.1-3.2l-17.1-0.1c-1,0.3-1.6,0.5-1.7,0.6
			c-0.6,0.4-0.9,1.1-0.9,2.1l-0.2,1c0.2,0.3,0.4,0.4,0.4,0.4l2.1-0.8c1.4-0.5,2.3-0.8,2.6-0.8c2.4-0.3,5.5-0.4,9.1-0.4
			c4.1,0,6.3,0.9,6.6,2.6c-0.4,0-0.6,0.1-0.6,0.2c-1.5,0.1-4,0.3-7.6,0.5c-3.2,0.2-5.1,0.2-5.6,0.2l-4.2-0.1L168,14.4L168,14.4z
			 M158.6,6.2l-0.2,0c0.2,0.6,0.9,1.6,2.2,3.2c0.5,0.6,0.9,1.1,1.2,1.4C160.3,8.6,159.2,7,158.6,6.2z M134.3,24.4l1.9,0.6
			c-0.5-0.5-0.8-0.7-0.9-0.8C135.1,24.1,134.8,24.2,134.3,24.4z M125.6,94.9c0.4-0.8,0.6-1.3,0.6-1.8c0-1.2-0.1-2.1-0.4-2.8
			c-0.2-0.4-0.6-1.2-1.2-2.3c-1-0.3-2.2-0.9-3.6-1.7c-1.2-0.7-2.4-1.1-3.6-1.4c0.4,0.7,1,1.4,1.8,2.3c0.6,0.9,1,2.2,1,3.8
			c0,0.3-0.2,1.8-0.8,4.3l1,0.1c0.8,0,1.4,0.2,2,0.6c0.5,0.4,0.8,0.9,0.8,1.4l1.8-1.6h-0.8L125.6,94.9z M123.3,84.7l-2.7-1.6
			l-0.8-0.6c0,0.8,0.4,1.5,1.2,2.1c0.8,0.6,1.8,0.9,2.9,0.9C124,85.5,123.3,84.7,123.3,84.7z M115.7,79.1h0.8
			c-0.3-3.3-0.8-5.4-1.5-6.4c-0.8-1-2.4-1.5-4.7-1.5l-2.1,0.1l2.7,2.1l-0.7,0c0.6,0.2,1.3,0.5,1.8,0.8c1.2,0.5,2,1.3,2.5,2.6
			C115.1,78.2,115.4,78.9,115.7,79.1z M68.4,44.8l-11.2-7.8l-3-0.1c0.9,0.3,1.9,0.7,2.9,1.2c1.1,0.5,2.1,1.3,3,2.3
			c1.5,1.7,2.4,2.6,2.4,2.7l6.7,3.5C69.3,46.7,68.4,44.8,68.4,44.8z M66.7,49.5c1.2-0.2,2.2-0.3,3-0.4c-3.2-0.1-6-0.1-8.2,0
			l-3.1,1.4l2.4-0.3h0.1l0.4,0h0.1l0.2,0h0.1L66.7,49.5z M89.8,54.3c-0.7-0.1-1.5-0.2-2.3-0.3c-0.6,0-1.5,0-2.8,0
			C86.1,54.2,87.8,54.3,89.8,54.3z M91.4,54.7c1.1,0.5,2.1,1.1,3.1,1.7l0.2-0.3c-0.2-0.1-0.8-0.4-1.8-0.8
			C92,54.9,91.5,54.7,91.4,54.7z M95.8,57.3c0.8,0.5,1.7,1.6,2.7,3.2c-0.1-0.2-0.7-1.1-1.7-2.7L95.8,57.3L95.8,57.3z M52.6,34.4
			c-4.7,0.7-7.5,1.3-8.4,1.8l3.3,0.2l2.2-1C51.1,34.9,52.1,34.5,52.6,34.4z M66.5,40.3l-0.3-0.6l-0.4-0.3
			C65.8,39.4,66.5,40.3,66.5,40.3z M75.1,13.6c-0.6-0.6-2-1.1-4.2-1.5c-2.4-0.5-3.6-0.7-3.6-0.8c-5.3,0.3-9.8-0.2-13.6-1.5
			c-2.9-1.4-4.7-2.1-5.3-2.1c-0.1,0-0.2,0.5-0.4,1.4c0.3,0.9,0.6,2.8,0.8,5.9c0.2,3,0.2,6.2,0.1,9.6l-1.1-3c0,4.7-0.5,7.7-1.3,9
			c-0.6,0.7-1,1.3-1.3,1.8c-0.6,0.9-1.1,2-1.6,3.3l1-0.8c1.6-1.4,3.1-4.3,4.6-8.5c1.4-4.2,2.2-7.8,2.2-10.9c0-0.1-0.1-0.6-0.4-1.3
			c-0.2-0.8-0.5-1.4-0.7-1.8c0.7-0.1,1.5-0.2,2.6-0.2c1-0.1,1.7-0.1,2.1-0.1c0.5,0,2.7,0.4,6.6,1.1c3.8,0.7,6,1.1,6.6,1.1
			c0.5,0,1.4-0.1,2.8-0.2C72.7,14,74,13.8,75.1,13.6z M45.8,13.3c0,0-0.1-0.6-0.4-1.6c-0.3-1.3-0.8-2.6-1.4-3.9
			c-1.1-0.9-3.6-1.3-7.6-1.2c-4.2,0.3-6.9,0.5-7.9,0.4c1.2,0.4,4,1.6,8.4,3.7c4,1.9,6.2,2.9,6.5,2.9C44,13.6,44.8,13.5,45.8,13.3z
			 M105.7,25.6l-1-2c-0.5-0.7-0.8-1.5-0.9-2.2c-0.3-0.6-0.6-1.5-1-2.6l0.1,1.7c-0.1-0.4-0.5-1.7-1.3-4c-0.5-1.4-0.8-3-0.8-4.7
			c0-1.9,0.2-3.1,0.6-3.7c0.5-0.7,0.8-1.3,0.9-1.7c-0.5-0.2-1.7-0.1-3.4,0.3c-2.6,0.6-5.9,0.9-9.9,0.9c-1.8,1.1-4,1.9-6.6,2.4
			c-1.3,0.3-1.9,1.1-1.9,2.5c0.2,2.3,0.3,3.8,0.3,4.4c1.1-2.6,2.6-4.6,4.6-6c2.3-1.6,5-2.4,8.2-2.4c3.9,0,5.8,1.2,5.8,3.7l0,0.7
			c-0.1,0.9-0.2,1.6-0.2,2.2c0,1.9,0.9,4.2,2.6,6.8c1.5,2.3,2.8,3.7,3.9,4.1L105.7,25.6L105.7,25.6z M80,24.4
			c0.3-1.1,0.4-2.5,0.4-4.2L80.1,21l-0.5-0.3C79.8,21.2,80,22.4,80,24.4z"/>
		<path id="path22" inkscape:connector-curvature="0" class="st4" d="M197.9,21.2l-0.1-0.2l-0.4,0.7c0,1.2-0.1,2.7-0.2,4.5
			c-0.2,2.6-0.5,4.1-0.8,4.7c-0.5,0.8-1.9,1.7-4.2,2.7c-0.6,0.3-2,0.8-4,1.6c-1.2,0.6-2.4,1.2-3.6,2c-0.2,0.2-0.6,0.6-1.1,1.3
			c-0.6,0.8-1,1.3-1.1,1.6v0.2c1-0.5,3.9-1.8,8.8-3.8c4.5-2.2,6.7-4.5,6.8-6.8c0.1-1.1,0.2-1.8,0.4-2.2c1.1-0.7,2.1-1.7,3.1-2.9
			c0.3-0.3,1.2-0.5,2.8-0.5c0.8,0,1.4,0.2,1.7,0.6c0.2,0.2,0.5,0.8,0.8,1.7c0.2,0.5,0.6,0.9,1,1.2c0.5,0.3,0.9,0.9,1.3,1.8
			c0.4,1,0.4,2.1,0.2,3.1c-0.3,0.2-0.8,0.4-1.4,0.6c-0.5,0.2-0.9,0.3-1.2,0.3c-0.4,0-1,0.1-1.6,0.2c-0.7,0.1-1.2,0.3-1.4,0.4
			c0.4,0.1,1.2,0.2,2.6,0.3c0.7,0,1.5,0.1,2.3,0.1c0.1,0,0.6,0.2,1.3,0.4c0.7,0.3,1.2,0.5,1.4,0.6l0.2-0.6c-0.4-3.7-0.9-6.9-1.5-9.6
			l1.8-0.2c3.3,0,5.9,0.6,7.6,1.8c1.5,1,2.3,2.4,2.5,4.1l0-0.8c0-4-3.4-6.4-10.3-7.2C204.2,22.4,199.5,21.9,197.9,21.2L197.9,21.2
			L197.9,21.2z M197.7,19.9L197.7,19.9c0.1-1,0.2-1.6,0.2-1.7c0-4.4-1.2-8-3.5-10.6c-1.7-2-3.3-3-4.7-3c-2.1,0.1-3.4,0.2-3.8,0.2
			c-14.7,0-23.5,0.2-26.4,0.6c-3.6,1.6-5.5,2.4-5.6,2.4l-2.4,1.6c0.1,0.2,0.4,0.7,0.8,1.6c0.5-0.4,1.7-1.4,3.5-3
			c1.2-1,2.1-1.6,2.6-1.8l0.2,0c1.3,0,2.5,0.1,3.5,0.4c1.6,0.5,2.6,0.7,2.8,0.8L182,7.5c3.1-0.1,5.4,0.5,7,1.7
			c1.2,0.9,1.8,2,1.8,3.2c-0.1,1.8-0.2,2.8-0.1,3.1c1.2,0.1,1.8,0.2,1.8,0.2c0.7,0.1,1.2,0.3,1.5,0.4c0-0.1,0.1-0.3,0.3-0.6
			c0.1-0.1,0.1-0.3,0.1-0.6c0-0.6-0.2-1.5-0.7-2.6l0.6,0.3l0.6,0.6c0.8,1,1.5,2.8,1.9,5.2l-0.1,0.7H195l0.2,0.1l-1.1-0.2
			c-1-0.8-2.3-1.4-3.8-2c-3-1-7-1.2-12-0.4c-0.6-0.1-1.2-0.1-1.8-0.1c-0.6,0-1.2,0.1-1.6,0.2l-0.3,0.2c4,1.2,10.6,2.4,19.6,3.6
			c1.4-0.1,2.4-0.2,3.1-0.4l0.5,0L197.7,19.9L197.7,19.9L197.7,19.9L197.7,19.9z M146.6,59.7c0.2-0.7,0.2-2.2,0.2-4.2
			c-0.1-2.5-0.3-4-0.8-4.4c-1-1-2.1-1.9-3-2.6c-0.8-0.6-1.3-0.9-1.4-1.1c-0.2-0.3-0.4-2.4-0.4-6.4c0-0.3-0.2-2.5-0.5-6.6
			c-0.3-4-0.5-6.3-0.5-6.9c0-2.2,0.5-4.5,1.6-7c0.5-1.3,1.2-2.8,2.1-4.6c-1.6,0.3-2.6,0.5-3.2,0.5c-0.6,0-1.5-0.1-3-0.2
			c-1.7-0.2-3-0.3-3.9-0.6l0-1v-0.3l0-0.3c-0.2,0.4-0.3,1.1-0.6,2.2c-0.3,1.3-0.4,2.3-0.3,2.9c0,2.8-0.6,5-1.7,6.5
			c-1.3,1.2-2.2,2.2-2.6,2.8c-0.8,0.2-2.2,0.2-4.4,0.1l0.4,0.1c0.6,0.1,1.3,0.3,2.2,0.4c0.5,0.2,0.8,0.6,0.8,1.2
			c0,0.1-0.2,0.6-0.6,1.4c-0.4,1-0.8,1.7-1.2,2.2c-0.4,0.5-1.8,1.4-4,2.9c-0.6,0.4-1.1,0.8-1.6,1.1c-0.7,0.6-1.6,1.1-2.6,1.5
			l-1.1,0.2l0.7-0.1l0.3,0c1.5-0.3,3.1-0.6,4.5-1l4.2-2l0.1-0.1c0.5-0.4,0.8-0.7,0.8-0.8c0.1-0.1,0.2-0.3,0.6-0.8
			c1.7-4.3,3.3-6.6,4.6-6.9c0.7,0,1.3,0.1,1.9,0.4c0.5,0.3,0.8,0.6,0.8,1c0,0.7-0.1,1.6-0.3,2.8c-0.2,1.1-0.3,1.8-0.3,2
			c0.8,3.5,1.3,5.7,1.6,6.4c0.6,1.1,1.1,1.8,1.4,2.3c0.5,0.8,0.7,1.8,0.7,2.9c0,0.5-0.3,1.4-1,2.7c-0.6,1.2-1,1.9-1,1.9
			c0.4,1.4,0.5,2.6,0.4,3.6c-0.3,2-1.7,2.9-4.4,2.7l-1.6-0.1c-2.8-0.2-4.8-0.3-6.1-0.3c-0.8,0-1.6,0.1-2.4,0.4l0.6,0.4
			c0.3,0.1,0.8,0.3,1.5,0.4c0.7,0.1,1.2,0.2,1.6,0.2c0.7,0.4,1.2,0.9,1.7,1.4c0,0,0,0,0,0h0c0.3,0.4,0.5,0.6,0.6,0.6
			c0.6,0,1.1,0,1.6-0.1c2.6-0.3,4.7-1.2,6.2-2.7c1.2-1.2,1.9-1.8,2-1.9c0.8-0.6,1.7-0.9,2.8-0.9c1.5,0,2.5,0.2,3.1,0.5
			c0.9,0.5,1.3,1.4,1.3,2.9c-0.3,2.6-0.5,4.3-0.6,5.3l0.1,0.8C145,62.7,145.6,61.5,146.6,59.7L146.6,59.7z M75.1,13.6l0.8,1.2
			l2.6,4.5c0,0.1,0.4,0.5,1.2,1.3l0.5,0.3l0.3-0.8c0.3-1,0.4-2,0.3-3.2c0-0.6-0.1-2.1-0.3-4.4c0-1.4,0.6-2.3,1.9-2.5
			C85,9.5,87.2,8.7,89,7.6c0.1-0.1,1.3-0.8,3.6-2.3c0.6-0.4,2.1-0.6,4.5-0.6c1.3,0,2.3,0.1,3,0.3c1,0.3,1.8,0.8,2.3,1.4
			c-0.1,0.4-0.3,0.9-0.9,1.7c-0.4,0.6-0.6,1.9-0.6,3.7c0,1.7,0.3,3.2,0.8,4.7c0.8,2.3,1.2,3.7,1.3,4l-0.1-1.7
			c-0.1-2-0.2-3.9-0.3-5.9c-0.1-4.3,0.5-6.9,1.8-8c0.3-0.3,1.4-0.5,3.3-0.6c2.1-0.2,3.4-0.6,4-1.2c0.5-0.6,1.5-0.9,3-0.9
			c1.2,0,2.7,0.2,4.6,0.7c1.8,0.5,3.2,1,4.1,1.6c0.8,0.5,2.1,0.9,3.8,1.2c1.3,0.4,2,1.4,2,3c0,1.4,0,2.3-0.1,2.6
			c-0.2,0.9-0.6,1.4-1.3,1.4c-0.2,0-0.6-0.2-1.2-0.6c-0.7-0.5-1.1-0.9-1.2-1.5v0.2c0.1,1.9,0.3,3.8,0.6,5.6c0.1,0,0.6,0.2,1.6,0.5
			c0.9,0.3,1.5,0.4,2,0.4c0.5,0,1-0.1,1.4-0.4c0.5-0.3,1.2-1.1,2-2.2l0.8-1c0.1-1-0.3-2.8-1.3-5.6c-0.9-2.5-1.5-4-1.9-4.4
			c-1.3-1-3-1.7-5.2-1.9c-2.1-0.1-3.2-0.1-3.6-0.1l-9.2-1.1c-2.5-0.3-4.2-0.4-5.2-0.4c-5.5,0-10.6,1.1-15.3,3.4
			c-4.8,2.9-8.4,5-11,6.2L80.7,10c-0.3,0.1-0.7,0.3-1.3,0.6c-0.7,0.3-1.1,0.4-1.3,0.4c-0.7,0.2-1.4,0.3-2.1,0.3
			c-3.3-1.5-6.4-2.9-9.4-4.1c-5.8-2.4-10.4-3.7-13.9-3.8c-2.6-0.1-6.8-0.1-12.4,0C33.6,3.6,28.5,3.7,25,3.7
			c-0.6,0.1-1.7,0.4-3.3,0.9h0c0.6,0,1.2,0,1.8,0.1c0.7,0.1,1.2,0.2,1.6,0.4c0.6,0.2,1.1,0.6,1.6,1c0.2,0.2,0.5,0.5,0.8,0.8l1.1,0.2
			c1,0,3.6-0.1,7.9-0.4c4-0.1,6.5,0.3,7.6,1.2c0.7,0.6,1.5,2,2.4,4.4c0.9,2.4,1.3,4.5,1.3,6.2l0.4-8.3l0-0.9
			c-0.1-0.6-0.2-1.7-0.4-3.5c0-0.6,1-1,3.1-1c3.8,0,6.7,0.6,8.6,1.8c0.6,0.4,1.6,1.1,3,2.1c1.5,1,3.1,2,4.8,2.8
			c0.1,0,1.3,0.3,3.6,0.8C73.1,12.5,74.4,13,75.1,13.6L75.1,13.6z M8.4,10.1l0.2,0.4c0.3,0.6,0.5,1,0.6,1.3l2.4-2.5l0.6-0.6
			c-0.3,0.1-0.6,0.2-0.8,0.3C9.5,9.7,8.5,10.1,8.4,10.1z M54.5,50.6c-0.7,0.3-1.3,0.6-1.9,0.9l0.2,0.2c-0.4,0.3-0.9,0.6-1.3,1
			c1-0.6,1.6-1,1.9-1.2C53.5,51.3,53.9,51,54.5,50.6z M191.4,64.1c-1.2,0-3,0-5.4,0.1c-2.5,0.1-4,0.1-4.4,0.1
			c-0.8,0-2.3-0.2-4.4-0.5l-3-0.4c-0.5,0-0.9,0.6-1.2,1.8c-0.5,2.2-0.8,3.4-0.9,3.8l0.6-0.8c0.8-0.7,2.2-1.3,4.2-1.9
			c1.9-0.5,3.7-0.8,5.3-0.8c3.8,0,5.9,4.7,6.2,14.1l0.6-3c0.2-1.3,0.5-3.4,1-6.6C190.7,67.2,191.1,65.3,191.4,64.1L191.4,64.1z
			 M131.3,94.5l-1.1,0.2c-0.5,0.1-0.9,0.3-1.2,0.5l-0.2,0.2c0.1,0.1,1,0.5,2.8,1.2c1.5,0.6,2.4,1.2,2.8,1.8
			c-0.7-1.9-1.2-3.1-1.5-3.4C132.6,94.8,132.1,94.6,131.3,94.5L131.3,94.5z M124.9,95.9c2.5,0,3.8-0.6,4.1-1.9
			c0.2-0.7,0.3-1.1,0.5-1.3c0.3-0.4,1.1-0.6,2.1-0.6c0.5,0,1,0.1,1.8,0.2c0.9,0.2,1.6,0.5,2,0.8c-0.7-1.3-1.5-2.4-2.4-3.2
			c-1-0.8-2.6-1.8-4.8-2.8c-0.4-0.3-1-0.6-1.8-0.9c-0.9-0.3-1.6-0.6-2.2-0.7c-1.1,0-2.1-0.3-2.9-0.9c-0.8-0.6-1.2-1.3-1.2-2.1
			l-0.2-2.2l-1.7,0l-2.2,0c-0.5,0-0.8,0.2-1.2,0.6c-0.3,0.4-0.5,0.9-0.5,1.4l-2.2,2.3l2.8,0.2l1.4,0l1.3,0.1
			c1.2,0.3,2.4,0.7,3.6,1.4c1.4,0.8,2.6,1.4,3.6,1.7c1.5,1.3,2.3,2.7,2.3,4.4c0,0.7-0.5,1.6-1.4,2.5l-1.5,1L124.9,95.9L124.9,95.9z
			 M137.2,71.8c1-0.1,2.3-0.6,4.1-1.6c-0.1-0.1-0.4-0.3-0.9-0.6c-0.6-0.3-0.9-0.5-1.1-0.6c-0.4-0.1-1.3-0.2-2.6-0.2
			c-1,0.1-2,0.2-3.1,0.5c-1.3,0.4-2.5,0.8-3.6,1.2c-1.7,0.8-2.7,1.3-3,1.5c-0.4,0.2-0.9,0.8-1.7,1.6l1.6,0c0.3-0.1,1.8-0.5,4.7-1.3
			c1.1-0.3,2.8-0.4,5.2-0.4L137.2,71.8L137.2,71.8z M153.9,45.5c-2.7-1-5-2.1-6.9-3.3c-1.5-1-2.5-1.5-2.9-1.5l0.3,1.1
			c0.4,1,0.9,1.9,1.6,2.7c1.7,0.7,2.7,1.2,3.2,1.6c0.5,0.2,4.6,0.8,12.3,2c-3.2-1.1-5.5-1.9-6.8-2.3L153.9,45.5L153.9,45.5z
			 M101.4,68.3c-0.1,0.4-0.2,0.7-0.3,0.9c-0.2,0.3-0.5,0.7-1,1.1c-0.2,0.1-0.5,0.3-0.9,0.6c-0.7,0.5-1.7,1.4-3.1,2.7l-0.9,0.8
			c0.7-0.4,1.6-0.6,2.5-0.6l1.4,0c0.2,0,0.7-0.1,1.5-0.3c0.9-0.2,2.7-0.3,5.3-0.4l4.2,0.2l0.7,0l-2.7-2.1l-1.1-0.5l-0.5-0.2
			l-2.1-0.5c-0.4-0.1-1.3-0.1-2.8-0.2v-1.5c-0.2-0.1-0.3-0.3-0.2-0.5c0.1-0.2,0.1-0.4,0-0.7L101.4,68.3L101.4,68.3z M144.6,63.4
			l-0.1,1.3l0.8-0.8c-0.1,0.1-0.3,0.1-0.4-0.2l-0.2-0.4H144.6z M136.2,25l-1.9-0.6l-1.2-0.4l-0.3,0c1.3-0.9,2.4-1.7,3.4-2.5
			c0.4-0.3,0.8-0.4,1-0.4c0.4,0,0.7,0.2,1,0.7c0.2,0.4,0.4,0.9,0.4,1.6v2.5C138.6,25.8,136.2,25,136.2,25z M91.5,77.7l-0.1,0.1
			l0.9-0.6l2.2-2.2l-0.6,0.5C92.9,76.3,92.1,77,91.5,77.7z M84.6,54c1.3,0,2.3,0.1,2.8,0c0.5-0.2,1-0.5,1.4-0.9
			c-0.3-0.5-0.6-1-1-1.3c-0.7-0.6-2-1.1-3.9-1.4l-1-0.1c-0.9,0-1.5,0-2,0c-0.8,0-1.4-0.1-1.8-0.3c-1.6-0.8-4.1-1.3-7.3-1.5
			c-1.3-0.1-2.9-0.2-4.9-0.2c-1.4,0-2.7,0.1-3.9,0.2l-4.4,0.6c-0.4,0-1.2,0.2-2.3,0.6c-1,0.4-1.6,0.6-1.8,0.8l2.5-0.7
			c1.5-0.3,3-0.5,4.6-0.7c2.2-0.2,4.9-0.2,8.2,0c0.7,0.1,1.8,0.5,3.3,1.2c1.7,0.8,2.7,1.3,3.2,1.4l7.7,2.1C84,53.9,84.6,54,84.6,54z
			 M94.5,56.4c0,0.3,0.1,0.5,0.4,0.6c0.2,0.2,0.5,0.3,0.9,0.3l1,0.4l1.3,0.6c-0.3-1.3-0.6-2.1-0.8-2.4c-0.2-0.3-0.5-0.4-1-0.4
			c-0.6,0-1.2,0.2-1.6,0.6C94.6,56.1,94.5,56.4,94.5,56.4z M71.6,47L71.6,47c-0.1-0.2-0.9-1.3-2.4-3.4c-1.5-2-2.4-3.2-2.6-3.4
			l-0.7-0.9c-0.9-1.1-2-2.4-3.2-4c-0.4-0.5-0.8-0.8-1.2-1l-0.9-0.2c-3.9-0.4-6.5-0.3-7.8,0.2h-0.1c-0.5,0.1-1.5,0.5-2.9,1.1l-2.2,1
			l-2.7,1l0.9-0.2c2.3-0.3,5.2-0.3,8.5-0.2l3,0.1l11.2,7.8C68.4,44.8,71.6,47,71.6,47z"/>
		<path id="path24" inkscape:connector-curvature="0" class="st5" d="M193,45.9c-4-0.6-6.6-1.2-7.6-2c-0.8-0.6-1.7-0.8-2.8-0.8
			c-1.5,0-4.1,0.8-7.8,2.5c-4.1,2.1-7,3.5-8.6,4.3l1.2,0.6c0,0,1.4-0.8,4.1-2.3c3-1.5,5.2-2.3,6.7-2.3l1.1-0.1
			c-0.2,0.1-1.7,1-4.6,2.7c-1.5,0.9-2.3,1.7-2.3,2.3c0,0.5,0.8,1.6,2.5,3.4c1.7,1.8,2.5,3.3,2.5,4.6c0,0.3-0.8,0.1-2.2-0.9
			c-1.5-0.9-2.2-1.6-2.2-1.9c0-0.6-0.5-1.3-1.5-2c0,1.5,0.3,2.9,1,4c0.6,1.1,1.4,1.7,2.3,1.7l15.9,2.1l2.7,0.4l0.6,0
			c0.4,0,0.7,0,1-0.1c-0.3-1.6-1.5-2.5-3.6-2.7c-3.8-0.1-7.5-0.5-11.1-1v-2.1l0-0.6l2.1-0.1c1.1-0.1,2.2-0.2,3.3-0.5
			c1.4-0.2,3-0.8,4.7-1.8c1.7-1,2.7-1.8,3-2.5l0.1-0.2c0.3-1.1,0.4-2.7,0.4-4.6C193.7,45.9,193,45.9,193,45.9z M4.5,22.4L4.5,22.4
			l0.7,0.4c2.7,0.7,5,1.7,6.9,3c1.2,0.8,2.7,2.2,4.6,4.1c4,4.2,8.4,7.2,13.1,9c0.2,0,0.4,0,0.6,0l1.2,0.1c0.5,0,1,0.1,1.6,0.1
			c0.5,0,1,0.1,1.4,0.1l0.4,0c0.4,0,0.8,0,1.2,0c1.2,0,2.4-0.9,3.8-2.6c1.5-1.9,2.2-3.9,2.2-6.1c0-4.7-1.8-7-5.5-7
			c-4.9,1-7.6,1.5-8,1.5c-1.4,0-2.4-0.4-2.9-1.3c-0.7-1.1-0.8-3.3-0.5-6.4c-0.2-0.1-0.6-0.1-1.2-0.1C14.2,19,7.7,20.7,4.5,22.4z
			 M49.9,49c2-0.3,3.4-0.6,4-0.9c0.7-0.4,1.1-1,1.1-1.9c0-2.4-1.1-3.6-3.3-3.6c-1.3,0-2.7,0.1-4.2,0.4c-1.4,0.3-2.3,0.5-2.6,0.5
			c0,0,0,0.1-0.1,0.2c-0.1,0.1-0.1,0.3-0.1,0.6c0,0.1,0.3,0.5,0.8,1.2l-0.5,0.3h0L49.9,49z M57.3,66.6l4.6,3.3
			c3.5,2.1,6.7,3.9,9.6,5.5l7.5,4.8c2.7-0.1,4.8-0.1,6.1,0.2c3.3-2.3,4.8-3.3,4.4-3.1l-0.2,0.1c0.5-0.3,1.2-0.9,2.4-1.6
			c0.9-0.7,1.4-1.4,1.6-2.2c-5.2,3.4-9,5.1-11.5,5.1c-1.8,0-2.8-0.9-3.2-2.6c-0.6-2.7-1.2-4.5-1.8-5.3c-0.7-0.9-2.4-1.8-5.2-2.8
			c-2.6-1-4.5-1.5-5.7-1.5c0.2,0,0.3,0.2,0.2,0.5c-0.2,0.5-0.2,0.8-0.2,1c-2.2-1.3-3.8-2.7-4.9-4.4c-0.9-1.4-1.4-2.7-1.4-4
			c0-2.2,0.8-3.6,2.3-4.4c0.9-0.4,2.2-0.6,4.1-0.6c3.6,0,6.5,0.5,8.6,1.5c2.1,1,4.7,1.5,7.7,1.5l4.6-0.1c-6.3-2.4-9.6-3.6-9.8-3.7
			c-4.1-1.6-6.7-2.8-8-3.6c-1-0.4-2.3-0.5-3.8-0.4l-3.4,0.4h-0.2l-0.2,0h-0.1l-0.4,0c-1.5,0.3-3.1,0.9-4.7,1.8c-1.1,0.6-2.2,1.2-3,2
			c-0.3,0.5-0.6,1.1-1,2c-0.3,0.9-0.5,1.5-0.5,1.7l0.1,1.3c0.5,1.3,0.9,2.2,1,2.5C53.6,62.7,55.1,64.4,57.3,66.6L57.3,66.6z
			 M103.6,89.2c0.7-0.2,1.5-0.3,2.4-0.6c0.7-0.2,1.4-0.3,2.2-0.5c3.7-0.9,5.8-1.9,6.5-3.3l-2.8-0.2l2.2-2.3
			c-0.6-0.6-1.9-1.4-4.1-2.2c-2.5-0.9-4.6-1.4-6.4-1.4c-0.8,0-2.5,0.5-5.2,1.6c-2.6,1.1-4.9,1.6-6.7,1.6c-0.9,0-1.5,0.1-2,0.3
			c-0.5,0.2-1,0.7-1.3,1.3l0,0l0,0.3c0.2,1.9,0.8,3.7,1.8,5.4c1,1.7,2,2.8,3.2,3.3c2.6,0.2,4.3,0,5.2-0.8c0.5-0.4,1.3-1,2.2-1.9
			C100.9,89.9,101.8,89.6,103.6,89.2z M97.8,104.4c-0.4,0.2-0.8,0.4-1.1,0.7c-0.1,0.1-0.3,0.2-0.4,0.4h0l0.2,0.2
			c0.3,0.3,0.5,0.6,0.8,0.8c0.9,1,2.7,1.8,5.3,2.4c2.5,0.5,5.4,0.8,8.8,0.8l6.3-0.2c3.3-0.1,5.5-0.8,6.6-2.3
			c0.1-0.1,0.7-0.2,1.9-0.4c1.2-0.2,1.8-0.3,1.8-0.5c0-0.1,0.2-0.5,0.5-1.4c0.3-0.9,0.5-1.5,0.5-1.8c0-1.3-1-1.9-2.9-1.9
			c-1.5,0-3,0.2-4.7,0.7c-2.2,0.6-4.6,1.1-7.2,1.4c0.3-0.8,1-1.6,2.1-2.6c0.6-0.5,1.2-1,1.9-1.5l0.3-0.3c-1.7,0.1-3.7,0.5-6,1.2
			c-2.1,0.6-3.4,1.2-4,1.7c-0.5,0.4-2.1,0.6-4.9,0.8C101.4,102.8,99.5,103.4,97.8,104.4z M120.3,80.8l-0.2,0.1
			c-0.1,0-0.1,0.2-0.1,0.5c0,0.6,0.2,1.1,0.6,1.7l2.7,1.6c-0.2-0.2-0.4-0.6-0.7-1.1c-0.3-0.6-0.6-1-0.6-1.3c0.2-0.2,0.5-0.4,0.7-0.6
			c0.3-0.2,0.6-0.2,1-0.2c0.6,0,1.2,0.3,1.7,0.8c0.7,0.8,2.3,1.6,4.9,2.4c1.8,0.5,3.6,1.2,5.4,2.2c2.8,1.5,4.7,3.1,5.5,4.9
			c0.6,0.2,1.1,0.5,1.6,1c0.6,0.5,0.9,1,1,1.5c0.6,0,2.1,0,4.5,0.2c2.4,0,6.1-0.2,11.1-0.7c6.8-0.7,12.1-1.1,15.8-1.4
			c0.1-0.2,0.2-0.4,0.3-0.7c0.2-0.5,0.3-1,0.4-1.4l0.1-2.7c0-2.8-1.6-4.4-4.8-4.6c-2.2,0-3.9-0.1-5.2-0.1c-2.5-0.1-4.6-0.4-6.5-0.8
			c4,1.8,6.3,3.3,6.9,4.4l-0.3,1c-1.9,0.3-3.4,1-4.4,1.8c-0.6,0.6-2.6,0.9-6,0.9c-0.8,0-2.1,0-3.8-0.1c-2.4-0.1-4.1-0.2-5.2-0.3
			l-0.7-0.2c0.3-0.2,1.7-0.5,4.2-1c2.4-0.4,3.9-0.8,4.4-1.2c0.4-0.3,1-1.3,1.6-2.7c0.6-1.4,1-2.4,1-3c-0.4,0.2-1.7,1.2-3.9,2.8
			c-1.4,1.1-2.5,1.7-3.3,1.8c-3.7,0.8-6.3,1.2-7.9,1.2c-0.1,0-0.4-0.1-0.8-0.4c-0.4-0.3-0.7-0.5-1-0.8c0.9-0.5,2.3-0.9,4.2-1.3
			l-1-1.3c0-0.6,0.5-1.6,1.4-2.9c0.9-1.4,1.4-2.4,1.4-3c0-1.2-0.6-2.1-1.8-2.6c-0.9-0.4-2.3-0.6-4.1-0.6c-6.2,0-11.4,1-15.6,3
			c-1.3,0.6-2.5,1.4-3.5,2.2C120.8,80.3,120.4,80.7,120.3,80.8L120.3,80.8z M125.3,72.2l3.2-1.2c1.9-0.7,3-1.1,3.1-1.2
			c0,0,0.7-0.1,2-0.4c1.1-0.3,2.1-0.5,3.1-0.5l1.5-0.5c-0.4-1.4-2-2.6-4.8-3.8c-2.6-1-5-1.6-7.4-1.6c-0.7,0-1.5,0.2-2.5,0.5
			c-1,0.3-2.5,0.5-4.5,0.5c-5.3-1-8.5-1.6-9.7-1.6c-2.3,0-3.8,0.3-4.5,0.9c-0.4,0.3-0.6,1.1-0.6,2.3c0.1,2,0.2,3.5,0.2,4.5l2.1,0.5
			l2.1,0c2.7-0.1,4.9,0,6.5,0c0.7,0.1,1.4,0.2,2,0.4c1.3,0.3,3.2,0.9,5.6,1.8C123.5,72.8,124.3,72.6,125.3,72.2L125.3,72.2z
			 M157.4,80.4l-0.1-1c0-0.1,0-0.1,0-0.1c0-0.1-0.2-0.1-0.5-0.1c-0.2,0-0.4,0.1-0.7,0.4c-0.5,0.5-1,1.2-1.5,2.2L157.4,80.4
			L157.4,80.4z M95.9,44.7c2,0.2,3.8,0.2,5.4,0c3.4-1.1,5.2-1.6,5.4-1.6c0.3,0,1.8-0.5,4.3-1.4c1.2-0.5,2.5-0.9,3.7-1.4l2.5-1
			l-0.7,0.1l1.1-0.2c1-0.3,1.9-0.8,2.6-1.5c0.5-0.5,1-1.1,1.4-1.7c0.6-1,0.8-1.8,0.8-2.6c0-1.1-0.9-2.4-2.6-4
			c-1.7-1.5-2.5-3.1-2.4-4.9c0.2-3.9-1.1-5.9-3.8-5.9c-0.3,0-1.4,0.4-3.5,1.2c-2,0.9-3.1,1.3-3.1,1.3c-0.3,0-0.7-0.1-1-0.4l-0.4-0.4
			l-1.8-1.5l0.2,2.4c0.2,0.7,0.5,1.5,0.9,2.2c0.1,0.1,0.3,0.4,0.5,0.8c0.2,0.5,0.4,0.9,0.5,1.2l0,0.5c-0.3,0.7-0.6,1.3-1,1.6
			c-0.5,0.4-1.2,0.6-2,0.6c-0.9,0-3.9-1.2-9.2-3.7c-5-2.3-8.7-3.3-11-3c-1.2,1-1.7,1.9-1.6,2.8l0.2,1.5c1.7,3.5,3.2,5.8,4.6,6.6
			c0.4,0.2,0.9,0.5,1.6,0.8c0.6,0.3,1.2,0.9,1.7,1.5l0.3,0.4c0.3,0.4,0.7,1.6,1.2,3.6c0.5,2,0.7,3.2,0.8,3.5
			c0.5,0.8,1.1,1.4,2.1,1.7C93.9,44.4,94.7,44.5,95.9,44.7z M66.2,39.7l1.6,0.8l1,0.2h6.4l0-2.3c0-1.2-0.6-3.2-1.7-5.9
			c-0.4-0.9-1.4-3-3-6.4c-0.5-1.1-1-1.8-1.6-2.1c-0.9-0.5-2.6-0.7-5.2-0.7c-1,0-2.1,0.1-3.4,0.3c-1.7,0.3-3.1,0.5-4.3,0.7
			c-0.3,0.2-0.7,0.5-1.2,1c-0.1,1.1-0.4,2.3-0.8,3.4c-0.3,1-0.5,1.8-0.5,2.5c0,0.5,0.4,1.2,1.1,2.1c0.7,0,1.9-0.1,3.7-0.2l0.6,0
			c1,0,1.6,0.2,1.9,0.5c0.2,0.2,0.4,0.5,0.6,0.9c0.4,0.2,0.8,0.5,1.2,1c1.2,1.6,2.2,2.9,3.2,4L66.2,39.7z M151.1,38l4.4,1.3
			c2.5,0,4.7,0.6,6.5,1.8c1.8,1.2,2.7,2.6,2.7,4.3l0.3-0.1c0.2-0.2,0.3-0.5,0.3-1l4.2,0.1c1.3,0,3.1-0.2,5.2-0.6
			c2.5-0.5,4.3-1,5.4-1.7l1.6-1.3l0.6-0.6c0.1-0.3,0.5-0.8,1.1-1.6c0.6-0.7,0.9-1.2,1.1-1.3c0.1-0.3,0.9-1.8,2.4-4.7
			c1.4-2.9,2.1-4.7,2.2-5.4c-0.4-2-2-3.2-4.9-3.6c-0.5-0.1-3.2-0.1-8-0.1c-1.2,0-1.8,0.3-1.8,0.9c0.5,1.3,1.1,2.2,1.9,2.9
			c0.6,0.5,0.8,1.2,0.8,2c0,0.8-0.3,1.4-1,1.8c-0.5,0.3-1.2,0.4-1.9,0.4c-2.5,0-3.9-1.7-4-5.1c-0.1-1.9,0.1-4.4,0.6-7.6l0-1.2
			c-0.3-0.1-0.8-0.1-1.3-0.1c-2.2,0-4,0.3-5.3,0.8c-1.1,0.6-2.1,1-3,1.2l-0.4,0.4c0.4,0,1.1,0.2,2.1,0.6c1.3,0.5,2,1,2.4,1.5
			c-2.3,0.7-4.1,1.1-5.3,1.3c-3.6,0.5-6.1,0.9-7.5,1.2c0.5,0.9,1.2,1.7,2.2,2.3c1.5,0.9,3.4,1.2,5.6,0.8l0.1,0.6
			c-0.3,1-1.2,1.6-2.8,1.8c-1.8,0.3-2.9,0.7-3.2,1c-0.9,0.9-1.5,1.6-1.9,2.2c-0.1,0.1-0.5,0.4-1.2,0.7c-0.2,0.1-1.2,0.4-2.9,0.8
			c-0.9,0.2-1.3,0.6-1.3,1.2c0,0.3,0,0.5,0.1,0.6c0.2,0.1,0.3,0.2,0.4,0.2l1.1-0.2c0.5,0.1,0.8,0.2,1,0.4
			C150.3,37,150.6,37.4,151.1,38L151.1,38z M124.1,19c-3.2-0.9-5.5-1.3-6.7-1.2c-0.1,1.4,0.2,2.5,0.9,3.3c1.3,1.6,3.9,2.6,7.9,3
			l1.1,0.9l0-0.9c0-0.2-0.1-0.7-0.4-1.7s-0.4-1.5-0.5-1.7c-0.1-0.1-0.5-0.4-1.2-0.9C124.6,19.4,124.2,19.1,124.1,19z M100.5,77.4
			c0.6,0.1,2.5,0.4,5.6,0.9c3,0.5,4.6,0.7,4.8,0.8l-4.8-2c-0.9-0.6-2-1-3.2-1c-0.2,0-0.9,0.1-1.9,0.2c-0.3,0.4-0.4,0.6-0.5,0.8
			C100.5,77.1,100.5,77.4,100.5,77.4z M80.1,26.1l0-1.8c-0.1-1.9-0.2-3.2-0.4-3.7c-0.8-0.8-1.2-1.2-1.2-1.3C78,19.1,77.3,19,76.2,19
			c-2.6,0-4.3,0.2-5.3,0.5c-1.1,0.3-1.6,1-1.6,2c0,1,0.8,2,2.5,3.2c1.8,1.2,3.7,2,6,2.4H80l0.1-0.8C80.1,26.2,80.1,26.1,80.1,26.1z"
			/>
		<path id="path26" inkscape:connector-curvature="0" class="st6" d="M123.3,84.7l0.7,0.8c0.6,0.1,1.4,0.3,2.2,0.7
			c0.8,0.3,1.4,0.6,1.8,0.9l0.3,0c0.8,0.1,1.9,0.3,3.2,0.8c0.8,0.2,2,0.7,3.7,1.4l5.9,2.6l-0.1-0.2c-0.8-1.8-2.7-3.4-5.5-4.9
			c-1.8-0.9-3.6-1.7-5.4-2.2c-2.5-0.7-4.2-1.5-4.9-2.4c-0.5-0.6-1.1-0.8-1.7-0.8c-0.4,0-0.8,0.1-1,0.2c-0.3,0.2-0.5,0.4-0.7,0.6
			c0.1,0.3,0.3,0.7,0.6,1.3C122.9,84.1,123.2,84.5,123.3,84.7z M154.7,81.9c-3,1.5-5.1,2.3-6,2.4c-1.1,0-2.4,0.2-3.9,0.6
			c-1.9,0.4-3.4,0.8-4.2,1.3c0.3,0.3,0.6,0.6,1,0.8c0.4,0.2,0.6,0.4,0.8,0.4c1.6,0,4.2-0.4,7.9-1.2c0.7-0.2,1.8-0.8,3.3-1.8
			c2.2-1.6,3.5-2.6,3.9-2.8c0.5-0.7,0.9-1.2,1.1-1.6l-1.1,0.6L154.7,81.9z M163.2,46.9l2,0.6l-0.6-2.1c0-1.7-0.9-3.1-2.7-4.3
			c-1.8-1.2-3.9-1.8-6.5-1.8c-0.7,0-1.6-0.2-2.7-0.5c-0.9-0.3-1.5-0.5-1.7-0.8c-0.5-0.6-0.9-1-1.2-1.2c-0.2-0.2-0.6-0.3-1-0.4
			l-1.1,0.2l-1.4,0.2l-0.8,0.1l-0.2,0.8c0.1,0.4,0.2,0.9,0.3,1.4l0,0.6l0.2,0.2c10,2.2,15,4.2,15,6c0,0.3,0.4,0.6,1.2,0.8
			C162.5,46.8,162.9,46.9,163.2,46.9L163.2,46.9z M166.6,52.3c0,0,0.7,0.1,2,0.4c1.1,0.2,2.1,0.7,2.8,1.3c1,0.7,1.5,1.4,1.5,2
			c0,0.3,0.7,1,2.2,1.9c1.5,0.9,2.2,1.2,2.2,0.9c0-1.3-0.8-2.8-2.5-4.6c-1.7-1.8-2.5-2.9-2.5-3.4c0-0.7,0.8-1.4,2.3-2.3
			c2.8-1.7,4.3-2.6,4.6-2.7l-1.1,0.1c-1.5,0-3.7,0.8-6.7,2.3c-2.7,1.5-4.1,2.3-4.1,2.3c-0.2,0-0.3,0.2-0.5,0.5
			C166.7,51.3,166.6,51.8,166.6,52.3z"/>
	</g>
</g>
</svg>
