<?xml version="1.0" encoding="utf-8"?>
<!-- Generator: Adobe Illustrator 26.0.2, SVG Export Plug-In . SVG Version: 6.00 Build 0)  -->
<svg version="1.1" id="Layer_1" xmlns="http://www.w3.org/2000/svg" xmlns:xlink="http://www.w3.org/1999/xlink" x="0px" y="0px"
	 viewBox="0 0 1280 1156" style="enable-background:new 0 0 1280 1156;" xml:space="preserve">
<style type="text/css">
	.st0{fill:#9B9359;}
</style>
<g transform="translate(0.000000,1156.000000) scale(0.100000,-0.100000)">
	<path class="st0" d="M7328.2,11255.5c-455.95,177.85-966.45,160.9-1447.83-48.58c-119.67-51.52-179.86-87.33-191.22-112.74
		c-4.7-9.28-22.18-3211.91-18.83-3359.59l1.52-76.54l72.28-114.39c219.99-348.6,305.24-630.87,251.77-835.97
		c-29.82-115.53-70.11-228.02-149.98-421.63c-69.61-169.16-73.06-180.42-62.05-205.52c22.52-48.75,33.55-51.29,337.09-61.6
		l278.82-9.62l1.56-42.69c0.58-23.06-17.96-1088.86-41.35-2368.02l-42.31-2325.82l-77.71-133.29
		c-42.81-73.72-77.27-142.12-77.93-151.93c-0.23-29.92,109.16-761.23,116.43-780.42c17.68-43.8,51.83-49.48,332.85-57.15
		c86.17-1.68,116.58,9.85,130.1,49.47c3.96,12.72,38.12,190.51,77.26,395.24l69.75,373.23l-62.72,141.3l-63.32,141.79l42.5,2368.01
		c23.36,1302.7,44.15,2369.46,45.79,2370.92c2.2,1.94,133.8-1.58,293.05-7.29c319.66-11.43,334.49-9.58,353.21,40.79
		c8.66,22,3.88,37.25-31.64,116.52c-87.73,193.99-168.3,416.86-194.54,540.2c-44.93,210.32,64.22,541.53,276.64,839.04
		c28.95,40.97,46.25,73.7,49.86,93.29c2.01,17.15,37.6,787.51,77.57,1711.37c50.9,1176.4,69.01,1687.41,61.38,1702.18
		C7714.09,11066.94,7496.78,11189.38,7328.2,11255.5z M5891.37,8162.21c-35.42-31.33-95.23,18.26-59.86,49.54
		C5866.93,8243.08,5926.73,8193.49,5891.37,8162.21z"/>
</g>
</svg>
