<?xml version="1.0" encoding="utf-8"?>
<!-- Generator: Adobe Illustrator 27.1.1, SVG Export Plug-In . SVG Version: 6.00 Build 0)  -->
<svg version="1.1"
	 id="svg2" xmlns:dc="http://purl.org/dc/elements/1.1/" xmlns:inkscape="http://www.inkscape.org/namespaces/inkscape" xmlns:cc="http://creativecommons.org/ns#" xmlns:sodipodi="http://sodipodi.sourceforge.net/DTD/sodipodi-0.dtd" xmlns:ns1="http://sozi.baierouge.fr" xmlns:rdf="http://www.w3.org/1999/02/22-rdf-syntax-ns#" xmlns:svg="http://www.w3.org/2000/svg"
	 xmlns="http://www.w3.org/2000/svg" xmlns:xlink="http://www.w3.org/1999/xlink" x="0px" y="0px" viewBox="0 0 65.4 82.1"
	 style="enable-background:new 0 0 65.4 82.1;" xml:space="preserve">
<style type="text/css">
	.st0{fill:#9ACD32;}
	.st1{fill:#7F4D1F;}
</style>
<path id="path6050" inkscape:connector-curvature="0" class="st0" d="M26.7,64c0.2,2.6-0.8,5.2-2.9,6.9c-2,1.7-4.7,2.2-7.2,1.4
	c-0.2-2.6,0.8-5.2,2.9-6.9C21.6,63.8,24.3,63.3,26.7,64z"/>
<path id="path6052" inkscape:connector-curvature="0" class="st0" d="M19.8,60.5c-0.2,2.4-1.6,4.5-3.6,5.6c-2.1,1.1-4.5,1.2-6.6,0
	c0.2-2.4,1.6-4.5,3.6-5.6C15.3,59.4,17.7,59.4,19.8,60.5z"/>
<path id="path6054" inkscape:connector-curvature="0" class="st0" d="M14.2,55.4c-0.2,2-1.4,3.9-3.1,4.8c-1.8,1-3.9,1-5.7,0
	c0.2-2,1.4-3.9,3.1-4.8C10.3,54.5,12.5,54.4,14.2,55.4L14.2,55.4z"/>
<path id="path6056" inkscape:connector-curvature="0" class="st0" d="M10.2,50.6c-0.7,1.7-2.1,3-3.9,3.4c-1.8,0.4-3.6-0.1-4.9-1.4
	c0.7-1.7,2.1-3,3.9-3.4C7,48.8,8.9,49.3,10.2,50.6z"/>
<path id="path6058" inkscape:connector-curvature="0" class="st0" d="M1.7,37.7c1.6-0.2,3.2,0.6,4.2,1.9c1,1.3,1.2,3.1,0.7,4.7
	c-1.6,0.2-3.2-0.6-4.2-1.9C1.4,41.1,1.1,39.3,1.7,37.7L1.7,37.7z"/>
<path id="path6062" inkscape:connector-curvature="0" class="st0" d="M26.4,60.8c2.1-1.1,3.5-3.2,3.8-5.5c0.3-2.4-0.6-4.7-2.4-6.2
	c-2.1,1.1-3.5,3.2-3.8,5.5C23.7,57,24.6,59.3,26.4,60.8L26.4,60.8z"/>
<path id="path6064" inkscape:connector-curvature="0" class="st0" d="M19.6,57.2c1.8-0.9,3-2.7,3.3-4.7c0.2-2-0.6-4-2.1-5.3
	c-1.8,0.9-3,2.7-3.3,4.7C17.2,54,18,55.9,19.6,57.2z"/>
<path id="path6066" inkscape:connector-curvature="0" class="st0" d="M14.2,52.2c1.5-0.8,2.6-2.3,2.8-4s-0.5-3.4-1.7-4.5
	c-1.5,0.8-2.6,2.3-2.8,4C12.2,49.4,12.9,51.1,14.2,52.2z"/>
<path id="path6068" inkscape:connector-curvature="0" class="st0" d="M9.9,47.2c1.3-0.7,2.3-2,2.4-3.6c0.2-1.5-0.4-3-1.5-3.9
	c-1.3,0.7-2.3,2-2.4,3.6C8.1,44.8,8.7,46.3,9.9,47.2L9.9,47.2z"/>
<path id="path6070" inkscape:connector-curvature="0" class="st0" d="M6.8,46.8C6,48,4.7,48.8,3.2,48.9c-1.5,0-2.9-0.7-3.7-1.9
	c0.8-1.3,2.1-2.1,3.6-2.1C4.6,44.8,6,45.5,6.8,46.8L6.8,46.8z"/>
<path id="path3529" inkscape:connector-curvature="0" class="st0" d="M27.4,41c-0.5,1.7-1.9,3.1-3.6,3.6c-1.7,0.5-3.6,0.1-4.9-1
	c0.5-1.7,1.9-3.1,3.6-3.6C24.2,39.4,26.1,39.8,27.4,41z"/>
<path id="path3531" inkscape:connector-curvature="0" class="st0" d="M24.9,37.4c-1,1.3-2.6,2-4.2,1.8c-1.6-0.1-3-1.1-3.7-2.5
	c1-1.3,2.6-2,4.2-1.8C22.7,34.9,24.2,35.9,24.9,37.4z"/>
<path id="path3533" inkscape:connector-curvature="0" class="st0" d="M23.7,31.9c-0.9,1.1-2.2,1.7-3.6,1.6c-1.4-0.1-2.6-0.9-3.2-2.2
	c0.9-1.1,2.2-1.7,3.6-1.6C21.9,29.9,23.1,30.7,23.7,31.9z"/>
<path id="path3535" inkscape:connector-curvature="0" class="st0" d="M23.7,28.1c-1,0.7-2.3,0.9-3.5,0.5c-1.2-0.5-2-1.5-2.2-2.7
	c1-0.7,2.3-0.9,3.5-0.5C22.7,25.8,23.5,26.9,23.7,28.1z"/>
<path id="path3537" inkscape:connector-curvature="0" class="st0" d="M23.7,18.6c1,0.6,1.6,1.6,1.7,2.8c0.1,1.1-0.5,2.3-1.4,3
	c-1-0.6-1.6-1.6-1.7-2.8C22.3,20.4,22.8,19.3,23.7,18.6L23.7,18.6z"/>
<path id="path3541" inkscape:connector-curvature="0" class="st0" d="M25.9,33.7c1.3,0.2,2.6-0.4,3.4-1.4c0.8-1,1.1-2.4,0.8-3.6
	c-1.3-0.2-2.6,0.4-3.4,1.4C25.9,31.1,25.6,32.5,25.9,33.7z"/>
<path id="path3543" inkscape:connector-curvature="0" class="st0" d="M25,29.2c1.1,0.1,2.3-0.3,3.1-1.2c0.8-0.9,1-2.1,0.7-3.3
	c-1.1-0.1-2.3,0.3-3.1,1.2C24.9,26.9,24.7,28.1,25,29.2z"/>
<path id="path3733" inkscape:connector-curvature="0" class="st0" d="M42.9,6.7c0.5,0.8,0.6,1.9,0.2,2.8c-0.4,0.9-1.3,1.6-2.2,1.8
	c-0.5-0.8-0.6-1.9-0.2-2.8C41.1,7.6,41.9,6.9,42.9,6.7L42.9,6.7z"/>
<path id="path3735" inkscape:connector-curvature="0" class="st0" d="M53.9,18.1c-0.5,1.1-1.4,1.9-2.5,2.1c-0.6-0.9-0.7-2.2-0.2-3.3
	c0.5-1.1,1.4-1.9,2.5-2.1"/>
<path id="path3737" inkscape:connector-curvature="0" class="st0" d="M48.2,39.9c-0.5,1.1-1.4,1.9-2.5,2.1c-0.6-0.9-0.7-2.2-0.2-3.3
	c0.5-1.1,1.4-1.9,2.5-2.1l0,0C48.6,37.6,48.7,38.9,48.2,39.9"/>
<path id="path3741" inkscape:connector-curvature="0" class="st0" d="M38,55.7c0.5,1.4,1.6,2.5,3.1,2.9c1.5,0.4,3-0.1,4.1-1.1
	c-0.5-1.4-1.6-2.5-3.1-2.9C40.6,54.2,39.1,54.6,38,55.7L38,55.7z"/>
<path id="path3743" inkscape:connector-curvature="0" class="st0" d="M43.8,48.7c0.3,0.9,1.1,1.5,2,1.7c0.9,0.2,1.9-0.1,2.5-0.8
	c-0.3-0.9-1.1-1.5-2-1.7C45.4,47.7,44.4,48,43.8,48.7L43.8,48.7z"/>
<path id="path3745" inkscape:connector-curvature="0" class="st0" d="M41.5,52.4c0.4,1.1,1.2,1.9,2.4,2.1c1.1,0.2,2.4-0.1,3.2-0.9
	c-0.4-1.1-1.2-1.9-2.4-2.1C43.7,51.2,42.4,51.6,41.5,52.4z"/>
<path id="path3747" inkscape:connector-curvature="0" class="st0" d="M49.6,45.5c-0.6-0.7-1.5-1.1-2.4-1c-0.9,0.1-1.8,0.7-2.2,1.6
	l0,0c0.6,0.7,1.5,1.1,2.4,1C48.4,47,49.2,46.4,49.6,45.5"/>
<path id="path3763" inkscape:connector-curvature="0" class="st0" d="M36.9,25.3c0.9,1.2,2.2,1.8,3.7,1.7c1.4-0.1,2.7-1,3.5-2.3
	c-0.9-1.2-2.2-1.8-3.7-1.7C38.9,23.2,37.6,24,36.9,25.3L36.9,25.3z"/>
<path id="path3765" inkscape:connector-curvature="0" class="st0" d="M38,21c0.7,1,1.9,1.5,3.1,1.4c1.2-0.1,2.3-0.8,2.9-1.9
	c-0.7-1-1.9-1.5-3.1-1.4C39.7,19.2,38.6,19.9,38,21L38,21z"/>
<path id="path3767" inkscape:connector-curvature="0" class="st0" d="M38.9,17.3c0.7,0.9,1.7,1.4,2.9,1.3c1.1-0.1,2.1-0.8,2.7-1.8
	c-0.7-0.9-1.7-1.4-2.9-1.3C40.5,15.7,39.5,16.3,38.9,17.3L38.9,17.3z"/>
<path id="path3769" inkscape:connector-curvature="0" class="st0" d="M40.2,14.2c0.5,0.7,1.4,1.2,2.4,1.1c0.9-0.1,1.8-0.6,2.2-1.5
	c-0.5-0.7-1.4-1.2-2.4-1.1C41.5,12.8,40.7,13.4,40.2,14.2L40.2,14.2z"/>
<path id="path3771" inkscape:connector-curvature="0" class="st0" d="M49.2,22.2c-0.9-0.2-1.7-0.8-2.1-1.7c-0.3-0.9-0.2-1.9,0.3-2.7
	c0.9,0.2,1.7,0.8,2.1,1.7C49.9,20.4,49.7,21.4,49.2,22.2z"/>
<path id="path3775" inkscape:connector-curvature="0" class="st0" d="M46.7,24.9c-1.1-0.2-2-0.9-2.4-1.9c-0.4-1-0.3-2.2,0.3-3.1
	c1.1,0.2,2,0.9,2.4,1.9C47.4,22.8,47.3,24,46.7,24.9z"/>
<path id="path3793" inkscape:connector-curvature="0" class="st0" d="M34.5,25.8c-1.4,0.5-2.9,0.2-4-0.7c-1.1-0.9-1.7-2.3-1.6-3.8
	c1.4-0.5,2.9-0.2,4,0.7C34,22.9,34.6,24.3,34.5,25.8L34.5,25.8z"/>
<path id="path3795" inkscape:connector-curvature="0" class="st0" d="M35.9,21.2c-1.1,0.4-2.4,0.2-3.4-0.6c-0.9-0.8-1.4-1.9-1.3-3.2
	c1.1-0.4,2.4-0.2,3.4,0.6C35.6,18.8,36.1,20,35.9,21.2z"/>
<path id="path3797" inkscape:connector-curvature="0" class="st0" d="M37.8,16.8c-1.1,0.4-2.2,0.2-3.1-0.5c-0.9-0.7-1.3-1.8-1.2-3
	c1.1-0.4,2.2-0.2,3.1,0.5C37.5,14.6,38,15.7,37.8,16.8L37.8,16.8z"/>
<path id="path3799" inkscape:connector-curvature="0" class="st0" d="M39.5,13.7c-0.9,0.3-1.9,0.2-2.6-0.4c-0.7-0.6-1.1-1.5-1-2.5
	c0.9-0.3,1.9-0.2,2.6,0.4C39.2,11.8,39.6,12.7,39.5,13.7L39.5,13.7z"/>
<path id="path3801" inkscape:connector-curvature="0" class="st0" d="M29.1,38.6c1.4-0.3,2.5-1.2,3.1-2.5c0.6-1.3,0.4-2.8-0.4-3.9
	c-1.4,0.3-2.5,1.2-3.1,2.5C28.2,36,28.3,37.5,29.1,38.6z"/>
<path id="path3803" inkscape:connector-curvature="0" class="st0" d="M25.6,77c-1-2.6-0.7-5.6,0.9-8c1.6-2.3,4.3-3.7,7.1-3.7l0,0
	c1,2.6,0.7,5.6-0.9,8C31,75.7,28.4,77.1,25.6,77"/>
<path id="path3805" inkscape:connector-curvature="0" class="st0" d="M40.3,50.1c-1.2,0.1-2.4-0.4-3.1-1.3c-0.7-0.9-0.9-2.3-0.6-3.4
	c1.2-0.1,2.4,0.4,3.1,1.3C40.5,47.6,40.7,48.9,40.3,50.1L40.3,50.1z"/>
<path id="path3807" inkscape:connector-curvature="0" class="st0" d="M43,47.2c-1.1,0.1-2.1-0.4-2.7-1.3c-0.6-0.9-0.8-2.1-0.3-3.1
	c1.1-0.1,2.1,0.4,2.7,1.3S43.5,46.2,43,47.2L43,47.2z"/>
<path id="path3811" inkscape:connector-curvature="0" class="st0" d="M44.1,44.3c-0.9-0.2-1.6-0.9-1.9-1.8c-0.3-0.9-0.1-1.9,0.5-2.6
	c0.9,0.2,1.6,0.9,1.9,1.8C44.8,42.5,44.7,43.5,44.1,44.3L44.1,44.3z"/>
<path id="path3813" inkscape:connector-curvature="0" class="st0" d="M49.7,35.7c-1.3,0.7-2.9,0.6-4.1-0.1c-1.2-0.8-2-2.1-2.1-3.6
	l0,0c1.3-0.7,2.9-0.6,4.1,0.1C48.9,32.8,49.7,34.2,49.7,35.7"/>
<path id="path3815" inkscape:connector-curvature="0" class="st0" d="M50,32.2c-1.2,0.2-2.5-0.3-3.3-1.2c-0.8-1-1.1-2.3-0.7-3.6
	c1.2-0.2,2.5,0.3,3.3,1.3C50.1,29.7,50.4,31,50,32.2"/>
<path id="path3817" inkscape:connector-curvature="0" class="st0" d="M50.6,28.4c-0.9-0.3-1.6-1-1.9-2c-0.3-1-0.1-2,0.6-2.8l0,0
	c0.9,0.3,1.6,1,1.9,2"/>
<path id="path3821" inkscape:connector-curvature="0" class="st0" d="M53.4,22.1c-0.6-0.5-1.4-0.7-2.1-0.5c-0.8,0.2-1.4,0.8-1.6,1.5
	c0.6,0.5,1.4,0.7,2.1,0.5"/>
<path id="path3823" inkscape:connector-curvature="0" class="st0" d="M40.3,37.8c-1.3-0.1-2.6,0.4-3.5,1.5c-0.9,1.1-1.1,2.5-0.7,3.8
	c1.3,0.1,2.6-0.4,3.5-1.5C40.4,40.5,40.7,39.1,40.3,37.8L40.3,37.8z"/>
<path id="path3825" inkscape:connector-curvature="0" class="st0" d="M39.5,31.7c0.3,0.8,1,1.3,1.8,1.4c0.8,0.1,1.6-0.2,2.1-0.8
	c-0.3-0.8-1-1.3-1.8-1.4C40.8,30.8,40,31,39.5,31.7z"/>
<path id="path3827" inkscape:connector-curvature="0" class="st0" d="M36.1,32.9c0.1,1.3,0.8,2.5,2,3.1s2.5,0.6,3.7-0.1
	c-0.1-1.3-0.8-2.5-2-3.1C38.6,32.2,37.3,32.3,36.1,32.9L36.1,32.9z"/>
<path id="path3829" inkscape:connector-curvature="0" class="st0" d="M30.3,42.8c0.3,1.8-0.2,3.6-1.5,4.9c-1.3,1.3-3.1,1.8-4.8,1.5
	c-0.3-1.8,0.2-3.6,1.5-4.9C26.8,42.9,28.6,42.4,30.3,42.8L30.3,42.8z"/>
<path id="path4043" inkscape:connector-curvature="0" class="st0" d="M30.1,26.1c-0.3,1,0,2.1,0.7,2.9c0.7,0.8,1.8,1.2,2.8,1
	c0.3-1,0-2.1-0.7-2.9C32.2,26.2,31.1,25.9,30.1,26.1z"/>
<path class="st1" d="M45.8,77l-5.6,0l4.2,4.9c-1.6-1.6-2.9-3.2-4.2-4.9c-2.3-3.2-4.1-6.7-5.4-10.4c-0.2-0.5-0.4-1-0.5-1.5
	c-3.3-0.1-6.2-0.7-8.8-1.7c-2.8-1.1-5.2-2.7-7.3-4.6C13.9,55,10.6,50,7,45c4,4.7,7.7,9.3,12.1,12.5c2.2,1.6,4.5,2.8,7.1,3.6
	c2.1,0.6,4.5,0.9,7.1,0.9c-1.2-4.5-1.7-9.3-1.7-14c0-1.5,0.1-2.9,0.1-4.4c-1.9-0.9-3.4-2-4.5-3.2c-1.3-1.4-2.1-3-2.5-4.6
	c-1-3.2-0.8-6.8-0.7-10.7c0.4,3.9,0.7,7.4,2,10.2c0.6,1.4,1.5,2.5,2.7,3.5c0.8,0.7,1.9,1.4,3.2,1.9c1-10.5,4.3-20.7,8.8-29
	c-2.2,5.6-3.9,12-4.7,18.4c2.9-0.6,5.8-1.8,8.3-3.3c2.8-1.8,5.3-4,6.7-6.6c-1.1,2.8-3.3,5.4-6,7.6c-2.7,2.1-5.9,3.8-9.2,4.8
	c-0.5,5-0.5,10,0.1,14.9c0.2,1.7,0.5,3.4,0.8,5c0.8-0.2,1.5-0.5,2.1-0.9c1-0.6,1.8-1.4,2.6-2.4c1.6-2,2.8-4.6,4-7
	c-0.7,2.5-1.5,5.4-2.8,7.9c-0.7,1.2-1.4,2.4-2.5,3.4c-0.8,0.7-1.7,1.4-2.8,1.8c0.8,3,1.9,5.9,3.2,8.5c1.6,3.2,3.7,6.2,6.2,8.7L49,77
	"/>
</svg>
