<?xml version="1.0" encoding="utf-8"?>
<!-- Generator: Adobe Illustrator 27.1.1, SVG Export Plug-In . SVG Version: 6.00 Build 0)  -->
<svg version="1.1"
	 id="svg2" xmlns:dc="http://purl.org/dc/elements/1.1/" xmlns:inkscape="http://www.inkscape.org/namespaces/inkscape" xmlns:cc="http://creativecommons.org/ns#" xmlns:sodipodi="http://sodipodi.sourceforge.net/DTD/sodipodi-0.dtd" xmlns:rdf="http://www.w3.org/1999/02/22-rdf-syntax-ns#" xmlns:svg="http://www.w3.org/2000/svg"
	 xmlns="http://www.w3.org/2000/svg" xmlns:xlink="http://www.w3.org/1999/xlink" x="0px" y="0px" viewBox="0 0 549.8 617.7"
	 style="enable-background:new 0 0 549.8 617.7;" xml:space="preserve">
<style type="text/css">
	.st0{fill:#7F4D1F;}
	.st1{fill:#9ACD32;}
</style>
<sodipodi:namedview  bordercolor="#666666" borderopacity="1.0" id="base" inkscape:current-layer="layer1" inkscape:cx="372.04724" inkscape:cy="526.1811" inkscape:document-units="px" inkscape:pageopacity="0.0" inkscape:pageshadow="2" inkscape:window-height="968" inkscape:window-maximized="1" inkscape:window-width="1280" inkscape:window-x="-4" inkscape:window-y="-4" inkscape:zoom="0.72883651" pagecolor="#ffffff" showgrid="false" showguides="false">
	</sodipodi:namedview>
<defs>
	
		<inkscape:path-effect  cusp_linecap_type="round" effect="powerstroke" end_linecap_type="zerowidth" id="path-effect6525" interpolator_beta="0.2" interpolator_type="Linear" is_visible="true" linejoin_type="round" miter_limit="4" offset_points="0,6.3568824" sort_points="true" start_linecap_type="zerowidth">
		</inkscape:path-effect>
	
		<inkscape:path-effect  cusp_linecap_type="round" effect="powerstroke" end_linecap_type="zerowidth" id="path-effect6521" interpolator_beta="0.2" interpolator_type="Linear" is_visible="true" linejoin_type="round" miter_limit="4" offset_points="0.010972662,7.2552626" sort_points="true" start_linecap_type="zerowidth">
		</inkscape:path-effect>
	
		<inkscape:path-effect  cusp_linecap_type="round" effect="powerstroke" end_linecap_type="zerowidth" id="path-effect6516" interpolator_beta="0.2" interpolator_type="Linear" is_visible="true" linejoin_type="round" miter_limit="4" offset_points="0,6.5679895" sort_points="true" start_linecap_type="zerowidth">
		</inkscape:path-effect>
	
		<inkscape:path-effect  cusp_linecap_type="round" effect="powerstroke" end_linecap_type="zerowidth" id="path-effect6512" interpolator_beta="0.2" interpolator_type="Linear" is_visible="true" linejoin_type="round" miter_limit="4" offset_points="0,-7.5642102" sort_points="true" start_linecap_type="zerowidth">
		</inkscape:path-effect>
	
		<inkscape:path-effect  cusp_linecap_type="round" effect="powerstroke" end_linecap_type="zerowidth" id="path-effect5985" interpolator_beta="0.2" interpolator_type="Linear" is_visible="true" linejoin_type="round" miter_limit="4" offset_points="0,5.4706216" sort_points="true" start_linecap_type="zerowidth">
		</inkscape:path-effect>
	
		<inkscape:path-effect  cusp_linecap_type="round" effect="powerstroke" end_linecap_type="zerowidth" id="path-effect3478" interpolator_beta="0.2" interpolator_type="Linear" is_visible="true" linejoin_type="round" miter_limit="4" offset_points="0,5.9074047" sort_points="true" start_linecap_type="zerowidth">
		</inkscape:path-effect>
	
		<inkscape:path-effect  cusp_linecap_type="round" effect="powerstroke" end_linecap_type="zerowidth" id="path-effect3474" interpolator_beta="0.2" interpolator_type="Linear" is_visible="true" linejoin_type="round" miter_limit="4" offset_points="0,-6.7775141" sort_points="true" start_linecap_type="zerowidth">
		</inkscape:path-effect>
	
		<inkscape:path-effect  cusp_linecap_type="round" effect="powerstroke" end_linecap_type="zerowidth" id="path-effect3470" interpolator_beta="0.2" interpolator_type="Linear" is_visible="true" linejoin_type="round" miter_limit="4" offset_points="0,5.4706216" sort_points="true" start_linecap_type="zerowidth">
		</inkscape:path-effect>
	
		<inkscape:path-effect  cusp_linecap_type="round" effect="powerstroke" end_linecap_type="zerowidth" id="path-effect3466" interpolator_beta="0.2" interpolator_type="Linear" is_visible="true" linejoin_type="round" miter_limit="4" offset_points="0,-7.3786346" sort_points="true" start_linecap_type="zerowidth">
		</inkscape:path-effect>
	
		<inkscape:path-effect  cusp_linecap_type="round" effect="powerstroke" end_linecap_type="zerowidth" id="path-effect3462" interpolator_beta="0.2" interpolator_type="Linear" is_visible="true" linejoin_type="round" miter_limit="4" offset_points="0.02115919,-6.366871" sort_points="true" start_linecap_type="zerowidth">
		</inkscape:path-effect>
	
		<inkscape:path-effect  cusp_linecap_type="round" effect="powerstroke" end_linecap_type="zerowidth" id="path-effect3458" interpolator_beta="0.2" interpolator_type="Linear" is_visible="true" linejoin_type="round" miter_limit="4" offset_points="0.0047969949,-3.6781594" sort_points="true" start_linecap_type="zerowidth">
		</inkscape:path-effect>
	
		<inkscape:path-effect  cusp_linecap_type="round" effect="powerstroke" end_linecap_type="zerowidth" id="path-effect3454" interpolator_beta="0.2" interpolator_type="Linear" is_visible="true" linejoin_type="round" miter_limit="4" offset_points="0,4.5834098" sort_points="true" start_linecap_type="zerowidth">
		</inkscape:path-effect>
	
		<inkscape:path-effect  cusp_linecap_type="round" effect="powerstroke" end_linecap_type="zerowidth" id="path-effect3450" interpolator_beta="0.2" interpolator_type="Linear" is_visible="true" linejoin_type="round" miter_limit="4" offset_points="0.012153128,5.7437065" sort_points="true" start_linecap_type="zerowidth">
		</inkscape:path-effect>
	
		<inkscape:path-effect  cusp_linecap_type="round" effect="powerstroke" end_linecap_type="zerowidth" id="path-effect3446" interpolator_beta="0.2" interpolator_type="Linear" is_visible="true" linejoin_type="round" miter_limit="4" offset_points="0,-4.3752731" sort_points="true" start_linecap_type="zerowidth">
		</inkscape:path-effect>
	
		<inkscape:path-effect  cusp_linecap_type="round" effect="powerstroke" end_linecap_type="zerowidth" id="path-effect3442" interpolator_beta="0.2" interpolator_type="Linear" is_visible="true" linejoin_type="round" miter_limit="4" offset_points="0,7.794948" sort_points="true" start_linecap_type="zerowidth">
		</inkscape:path-effect>
	
		<inkscape:path-effect  cusp_linecap_type="round" effect="powerstroke" end_linecap_type="zerowidth" id="path-effect3438" interpolator_beta="0.2" interpolator_type="Linear" is_visible="true" linejoin_type="round" miter_limit="4" offset_points="0,7.0660087" sort_points="true" start_linecap_type="zerowidth">
		</inkscape:path-effect>
	
		<inkscape:path-effect  cusp_linecap_type="round" effect="powerstroke" end_linecap_type="zerowidth" id="path-effect3434" interpolator_beta="0.2" interpolator_type="Linear" is_visible="true" linejoin_type="round" miter_limit="4" offset_points="0,14.853881" sort_points="true" start_linecap_type="zerowidth">
		</inkscape:path-effect>
	
		<inkscape:path-effect  cusp_linecap_type="round" effect="powerstroke" end_linecap_type="zerowidth" id="path-effect3430" interpolator_beta="0.2" interpolator_type="Linear" is_visible="true" linejoin_type="round" miter_limit="4" offset_points="0,-10.508652" sort_points="true" start_linecap_type="zerowidth">
		</inkscape:path-effect>
	
		<inkscape:path-effect  cusp_linecap_type="round" effect="powerstroke" end_linecap_type="zerowidth" id="path-effect3426" interpolator_beta="0.2" interpolator_type="Linear" is_visible="true" linejoin_type="round" miter_limit="4" offset_points="0,-9.1222595" sort_points="true" start_linecap_type="zerowidth">
		</inkscape:path-effect>
	
		<inkscape:path-effect  cusp_linecap_type="round" effect="powerstroke" end_linecap_type="zerowidth" id="path-effect3422" interpolator_beta="0.2" interpolator_type="Linear" is_visible="true" linejoin_type="round" miter_limit="4" offset_points="0,11.359128" sort_points="true" start_linecap_type="zerowidth">
		</inkscape:path-effect>
	
		<inkscape:path-effect  cusp_linecap_type="round" effect="powerstroke" end_linecap_type="zerowidth" id="path-effect3418" interpolator_beta="0.2" interpolator_type="Linear" is_visible="true" linejoin_type="round" miter_limit="4" offset_points="0.010953818,20.783203" sort_points="true" start_linecap_type="zerowidth">
		</inkscape:path-effect>
	
		<inkscape:path-effect  cusp_linecap_type="round" effect="powerstroke" end_linecap_type="zerowidth" id="path-effect3414" interpolator_beta="0.2" interpolator_type="Linear" is_visible="true" linejoin_type="round" miter_limit="4" offset_points="0,-23.165981" sort_points="true" start_linecap_type="zerowidth">
		</inkscape:path-effect>
	
		<inkscape:path-effect  cusp_linecap_type="round" effect="powerstroke" end_linecap_type="zerowidth" id="path-effect3410" interpolator_beta="0.2" interpolator_type="Linear" is_visible="true" linejoin_type="round" miter_limit="4" offset_points="0.046550675,41.512007" sort_points="true" start_linecap_type="zerowidth">
		</inkscape:path-effect>
	
		<inkscape:path-effect  cusp_linecap_type="round" effect="powerstroke" end_linecap_type="zerowidth" id="path-effect3406" interpolator_beta="0.2" interpolator_type="Linear" is_visible="true" linejoin_type="round" miter_limit="4" offset_points="0,5.9074047" sort_points="true" start_linecap_type="zerowidth">
		</inkscape:path-effect>
	
		<inkscape:path-effect  cusp_linecap_type="round" effect="powerstroke" end_linecap_type="zerowidth" id="path-effect3402" interpolator_beta="0.2" interpolator_type="Linear" is_visible="true" linejoin_type="round" miter_limit="4" offset_points="0,-6.7775141" sort_points="true" start_linecap_type="zerowidth">
		</inkscape:path-effect>
	
		<inkscape:path-effect  cusp_linecap_type="round" effect="powerstroke" end_linecap_type="zerowidth" id="path-effect3398" interpolator_beta="0.2" interpolator_type="Linear" is_visible="true" linejoin_type="round" miter_limit="4" offset_points="0,5.4706216" sort_points="true" start_linecap_type="zerowidth">
		</inkscape:path-effect>
	
		<inkscape:path-effect  cusp_linecap_type="round" effect="powerstroke" end_linecap_type="zerowidth" id="path-effect3394" interpolator_beta="0.2" interpolator_type="Linear" is_visible="true" linejoin_type="round" miter_limit="4" offset_points="0,-7.3786346" sort_points="true" start_linecap_type="zerowidth">
		</inkscape:path-effect>
	
		<inkscape:path-effect  cusp_linecap_type="round" effect="powerstroke" end_linecap_type="zerowidth" id="path-effect3390" interpolator_beta="0.2" interpolator_type="Linear" is_visible="true" linejoin_type="round" miter_limit="4" offset_points="0.02115919,-6.366871" sort_points="true" start_linecap_type="zerowidth">
		</inkscape:path-effect>
	
		<inkscape:path-effect  cusp_linecap_type="round" effect="powerstroke" end_linecap_type="zerowidth" id="path-effect3386" interpolator_beta="0.2" interpolator_type="Linear" is_visible="true" linejoin_type="round" miter_limit="4" offset_points="0.0047969949,-3.6781594" sort_points="true" start_linecap_type="zerowidth">
		</inkscape:path-effect>
	
		<inkscape:path-effect  cusp_linecap_type="round" effect="powerstroke" end_linecap_type="zerowidth" id="path-effect3382" interpolator_beta="0.2" interpolator_type="Linear" is_visible="true" linejoin_type="round" miter_limit="4" offset_points="0,4.5834098" sort_points="true" start_linecap_type="zerowidth">
		</inkscape:path-effect>
	
		<inkscape:path-effect  cusp_linecap_type="round" effect="powerstroke" end_linecap_type="zerowidth" id="path-effect3378" interpolator_beta="0.2" interpolator_type="Linear" is_visible="true" linejoin_type="round" miter_limit="4" offset_points="0.012153128,5.7437065" sort_points="true" start_linecap_type="zerowidth">
		</inkscape:path-effect>
	
		<inkscape:path-effect  cusp_linecap_type="round" effect="powerstroke" end_linecap_type="zerowidth" id="path-effect3374" interpolator_beta="0.2" interpolator_type="Linear" is_visible="true" linejoin_type="round" miter_limit="4" offset_points="0,-4.3752731" sort_points="true" start_linecap_type="zerowidth">
		</inkscape:path-effect>
	
		<inkscape:path-effect  cusp_linecap_type="round" effect="powerstroke" end_linecap_type="zerowidth" id="path-effect3370" interpolator_beta="0.2" interpolator_type="Linear" is_visible="true" linejoin_type="round" miter_limit="4" offset_points="0,7.794948" sort_points="true" start_linecap_type="zerowidth">
		</inkscape:path-effect>
	
		<inkscape:path-effect  cusp_linecap_type="round" effect="powerstroke" end_linecap_type="zerowidth" id="path-effect3366" interpolator_beta="0.2" interpolator_type="Linear" is_visible="true" linejoin_type="round" miter_limit="4" offset_points="0,7.0660087" sort_points="true" start_linecap_type="zerowidth">
		</inkscape:path-effect>
	
		<inkscape:path-effect  cusp_linecap_type="round" effect="powerstroke" end_linecap_type="zerowidth" id="path-effect3362" interpolator_beta="0.2" interpolator_type="Linear" is_visible="true" linejoin_type="round" miter_limit="4" offset_points="0,14.853881" sort_points="true" start_linecap_type="zerowidth">
		</inkscape:path-effect>
	
		<inkscape:path-effect  cusp_linecap_type="round" effect="powerstroke" end_linecap_type="zerowidth" id="path-effect3358" interpolator_beta="0.2" interpolator_type="Linear" is_visible="true" linejoin_type="round" miter_limit="4" offset_points="0,-10.508652" sort_points="true" start_linecap_type="zerowidth">
		</inkscape:path-effect>
	
		<inkscape:path-effect  cusp_linecap_type="round" effect="powerstroke" end_linecap_type="zerowidth" id="path-effect3354" interpolator_beta="0.2" interpolator_type="Linear" is_visible="true" linejoin_type="round" miter_limit="4" offset_points="0,-9.1222595" sort_points="true" start_linecap_type="zerowidth">
		</inkscape:path-effect>
	
		<inkscape:path-effect  cusp_linecap_type="round" effect="powerstroke" end_linecap_type="zerowidth" id="path-effect3350" interpolator_beta="0.2" interpolator_type="Linear" is_visible="true" linejoin_type="round" miter_limit="4" offset_points="0,11.359128" sort_points="true" start_linecap_type="zerowidth">
		</inkscape:path-effect>
	
		<inkscape:path-effect  cusp_linecap_type="round" effect="powerstroke" end_linecap_type="zerowidth" id="path-effect3346" interpolator_beta="0.2" interpolator_type="Linear" is_visible="true" linejoin_type="round" miter_limit="4" offset_points="0.010953818,20.783203" sort_points="true" start_linecap_type="zerowidth">
		</inkscape:path-effect>
	
		<inkscape:path-effect  cusp_linecap_type="round" effect="powerstroke" end_linecap_type="zerowidth" id="path-effect3342" interpolator_beta="0.2" interpolator_type="Linear" is_visible="true" linejoin_type="round" miter_limit="4" offset_points="0,-23.165981" sort_points="true" start_linecap_type="zerowidth">
		</inkscape:path-effect>
	
		<inkscape:path-effect  cusp_linecap_type="round" effect="powerstroke" end_linecap_type="zerowidth" id="path-effect3338" interpolator_beta="0.2" interpolator_type="Linear" is_visible="true" linejoin_type="round" miter_limit="4" offset_points="0.046550675,41.512007" sort_points="true" start_linecap_type="zerowidth">
		</inkscape:path-effect>
</defs>
<g id="layer1" inkscape:groupmode="layer" inkscape:label="Camada 1">
	<g id="g11491" transform="translate(22.994884,0.05601236)">
		<path id="path3336" inkscape:connector-curvature="0" class="st0" d="M287.6,18.5c10.9,29,12.3,52.7,8.5,73.2
			c-1.3,7.1-3.3,13.9-5.9,20.4c-9.1-7.6-16.7-15.8-22.4-25c-6.6-10.7-10.8-23-11.5-37.4c-0.8,14.4,1.9,27.5,7.5,39.6
			c5.3,11.3,13.1,21.7,22.9,31.4c-4.1,9-9.2,17.5-14.7,25.9c-0.1,0.2-0.2,0.3-0.3,0.5c-10.5-2.7-19.3-6.9-26.8-12.5
			c-8.2-6.1-14.8-13.8-20.3-22.7c-10.9-18-16.5-40.6-19.2-63.5c0.3,22.8,3.4,46.7,12.8,67c2.6,5.6,5.7,11,9.3,16
			c-13.7,1-25.4-2.7-36.3-9.1c-13-7.7-24.6-19.1-36.8-30.7c11.4,12.1,22.5,24.4,35.2,33.2c11.8,8.1,25.3,13.2,42.1,11.9
			c1.9,2.2,4,4.4,6.1,6.4c7,6.6,15.5,12.1,25.6,16.3c-9.2,13-17.1,22.7-28.5,39.9c-7.4,11-14.5,22.9-20.4,36.1
			c-11.6-6-22-13.3-31-21.9c5.3-9.6,6.5-19.6,5.9-29.1c-0.7-11-4-22.1-7.3-32.6c1.3,11.1,2.5,22.1,1.2,32.4c-1,8-3.3,15-7.7,21.1
			c-2.9-3.2-5.6-6.6-8.1-10.1c-14-19.5-22.7-43.6-24.6-71c-2,27.3,2.7,53.6,14.4,77.1c10.7,21.4,27.1,40.4,49.1,55.4
			c-0.8,2.6-1.6,5.3-2.3,8c-4.5,18.5-4.9,37.1-2.8,55.6c-13.1-4.8-25.3-11.7-36.6-20.3c-9.2-7-17.8-15.2-25.7-24.4
			c3-3.4,5.3-7.1,6.9-10.9c2.2-5.2,3.1-10.5,3.4-15.8c0.6-10.7-1.5-22-3.2-31.9c-0.3,10.4-0.2,21.3-2.6,31
			c-1.2,4.7-2.9,8.9-5.4,12.6c-1.6,2.4-3.6,4.6-6,6.6c-4-5.1-7.8-10.5-11.4-16.1c-10.3-16-18.8-33.5-25.4-51.6
			c10.1-9,18.8-20.1,24.8-31.8c6.2-12,9.6-24.6,8.8-36c-0.8,11.2-5.7,22.9-12.9,33.6c-6.5,9.5-14.8,18.2-24,25.1
			c-7.8-23.7-12.6-48.3-14-71.5c-2.3,35.8,3.2,76.7,17,114.8c-5.6,0.2-10.5-0.3-14.7-1.4c-5.9-1.5-11-4.2-15.5-7.9
			c-9.3-7.6-16.1-19-24.1-32c6.2,13.4,11.7,26.5,20.4,35.9c4.4,4.8,9.8,8.9,16.7,11.7c6,2.4,13,3.8,21.3,3.9
			c2.2,5.2,4.5,10.4,6.9,15.5c7.9,16.3,17.7,31.8,29.4,45.7c-9.2,4.5-18.1,7.3-26.8,8.6c-10.5,1.6-20.9,1.1-31.3-0.9
			c-21.1-4-41.7-13.8-63.9-23.7c20.9,11.6,41.2,23.6,62.5,29.8c10.7,3.1,21.9,4.8,33.7,4.2c11-0.6,22.4-3.2,34.4-8.4
			c1.4,1.5,2.9,3,4.4,4.4c16.6,16.2,36.5,29.4,59.9,37.7c0.6,2.2,1.1,4.4,1.7,6.5c8.1,29.7,21.9,65.6,29.9,92.3
			c4.4,14.6,7.7,28.3,9.4,41.3c1.7,13,1.8,24.7,0,35.4c-1.5,8.6-4.2,16.7-8.3,24.4c-3.6,6.8-40.8,46.9-54.9,61.5h98.4
			c6.7-11.4,9-23.7,13.8-35.5c6.1-14.8,9.2-29.6,10.1-44.3c1.1-17.9-1-35.3-4.9-51.8c-3.8-16.4-9.5-32.5-15.6-47.9
			c-7.4-18.4-14.5-34-21.4-49.4c19.7-4.6,38.3-12.5,55.3-22.8c15.4-9.3,29.6-20.5,42.2-33.2c22.2,10,44.9,11.7,66.5,8.3
			c23-3.6,45.1-13.2,64.7-25.2c-20.6,10.5-42.9,17.9-65.3,19.6c-19.9,1.5-39.6-1.6-58-11c3.7-4.1,7.3-8.4,10.7-12.8
			c11.1-14.3,20.4-29.9,27.5-46.1c12-3.1,22-10.9,29.9-19.5c8.7-9.4,15.5-20.2,20-28.1c-5.9,7.2-13.6,16.8-23.1,24.9
			c-7.2,6.1-14.9,11-23.1,13.3c1.9-5,3.5-10,5-15.1c7.1-25.1,8.8-50.9,3.9-75.7c1.8,25.2-3.1,49.9-12.7,72.7
			c-6.9,16.5-16.4,32-27.7,46c-4.3-7.7-7.3-15.7-9.3-24.1c-2.6-10.8-3.4-22.3-3-34.6c-2.4,12-3.5,23.8-2.8,35.4
			c0.7,10.8,2.9,21.5,7.4,32.3c-2,2.2-3.9,4.3-6,6.3c-17.5,17.7-38,32.1-59.8,41.8c-0.3,0.1-0.6,0.3-0.9,0.4
			c-2.3-6.9-3.2-15.1-2.5-22.9c1-9.7,4.7-19,12.4-24.5c-8.8,4.1-14.5,13-17.4,23.5c-2.4,8.7-2.7,18.5-1.2,27.3
			c-15.4,5.8-31.2,9.3-46.9,10.1c-0.7-1.9-1.5-3.8-2.2-5.7c-7.9-21.2-13.2-41.2-13.8-60.3c14.8,1.7,28.4,0.6,40.8-2.6
			c15.1-3.9,28.3-10.7,39.7-19.2c22.7-16.8,38.7-40.2,48.6-60.4c-12.5,19-30.3,39.8-53.3,53.4c-7.4,4.4-15.3,8-23.6,10.5
			c-1.6-9-1.3-16.3,0.7-22.9c2.3-7.6,6.8-14.4,13.6-21.7c-7.8,5.9-14.1,11.9-18.4,19.7c-4.1,7.4-6.1,16.2-5.7,27.5
			c-1.4,0.3-2.8,0.5-4.2,0.8c-11.6,1.8-24.2,1.6-37.6-1.3c0.1-0.7,0.2-1.5,0.3-2.2c2.8-21.1,10.1-40.1,19.5-59.2
			c0.3-0.5,0.6-1.1,0.9-1.7c23.7-4.7,44.7-12.1,62.9-22.3c14.1,6,28,6.6,40.6,3.3c13.3-3.5,25.1-11.4,34.4-21.9
			c-10.6,9.4-22.9,15.3-35.4,16.9c-9.9,1.3-20-0.1-29.7-4.4c10.3-6.8,19.6-14.7,27.7-23.6c24.5-27,37.7-63,39.2-107.8
			c-4.5,44.9-20.7,78.3-45.6,101.4c-0.6,0.5-1.1,1-1.7,1.5c-6-12.1-9.7-26-10.6-39.6c-1-15,1.6-29.6,8.5-40.4
			c-8,10.2-11.8,24.8-12,40.5c-0.2,14.7,2.9,30.2,8.8,44c-20.4,16.4-46.2,27.1-76.7,32.6c6.6-12.2,13.6-24.9,18.7-35.6
			c9.3-19.5,16.5-39.7,17.7-62.2c0.3-5,0.2-10-0.1-15.2c13.4-4.6,21.3-13,26.9-22.6c5.7-9.9,9.2-21.7,13.4-33.1
			c-5.4,11.1-9.9,22.1-16.5,31.1c-6,8.2-13.4,14.3-24.5,17.4C301.7,54.3,296.6,37.2,287.6,18.5L287.6,18.5z"/>
		<path id="path5965" inkscape:connector-curvature="0" class="st1" d="M390.8,342.2c-7.2,6.2-10.8,15.6-9.5,25.1
			c1.3,9.4,7.4,17.5,16,21.5c7.2-6.2,10.8-15.6,9.5-25.1C405.5,354.4,399.5,346.3,390.8,342.2z"/>
		<path id="path5967" inkscape:connector-curvature="0" class="st1" d="M418.3,343.5c-5.4,7.3-6.8,16.9-3.6,25.5
			c3.2,8.6,10.5,14.9,19.4,16.9c5.4-7.3,6.8-16.9,3.6-25.5C434.5,351.8,427.2,345.5,418.3,343.5z"/>
		<path id="path5969" inkscape:connector-curvature="0" class="st1" d="M442.9,339.7c-3.9,6.8-4,15.2-0.3,22.1
			c3.7,7,10.6,11.6,18.4,12.3c3.9-6.8,4-15.2,0.3-22.1C457.7,345.1,450.7,340.4,442.9,339.7L442.9,339.7z"/>
		<path id="path5971" inkscape:connector-curvature="0" class="st1" d="M463.1,333.8c-2.3,6.7-1.1,14.1,3.2,19.7
			c4.3,5.6,11.2,8.6,18.3,8c2.3-6.7,1.1-14.1-3.2-19.7C477,336.2,470.1,333.2,463.1,333.8L463.1,333.8z"/>
		<path id="path5973" inkscape:connector-curvature="0" class="st1" d="M521.3,295c-6.1-2.1-12.9-1-18,3c-5.1,4-7.9,10.3-7.3,16.7
			c6.1,2.1,12.9,1,18-3C519.1,307.7,521.8,301.4,521.3,295L521.3,295z"/>
		<path id="path5975" inkscape:connector-curvature="0" class="st1" d="M393.4,330.9c-5-8.8-5.1-19.6-0.4-28.6
			c4.7-9,13.7-15,23.8-15.9c5,8.8,5.1,19.6,0.4,28.6C412.5,324,403.5,330,393.4,330.9z"/>
		<path id="path5977" inkscape:connector-curvature="0" class="st1" d="M423,333.9c-4.5-8-4.6-17.6-0.4-25.7
			c4.2-8.1,12.3-13.5,21.4-14.3c4.5,8,4.6,17.6,0.4,25.7C440.2,327.7,432.1,333,423,333.9z"/>
		<path id="path5979" inkscape:connector-curvature="0" class="st1" d="M453.3,329.5c-3.9-6.8-4-15.2-0.3-22.1
			c3.7-7,10.6-11.6,18.4-12.3c3.9,6.8,4,15.2,0.3,22.1C468.1,324.1,461.2,328.8,453.3,329.5z"/>
		<path id="path5981" inkscape:connector-curvature="0" class="st1" d="M461.1,218c-2.1-3.7-2.2-8.3-0.2-12.1c2-3.8,5.8-6.3,10-6.7
			c2.1,3.7,2.2,8.3,0.2,12.1C469.1,215.1,465.4,217.6,461.1,218L461.1,218z"/>
		<path id="path6484" inkscape:connector-curvature="0" class="st1" d="M431.5,255.1c0.1,6.2,3.3,11.9,8.6,15.2
			c5.3,3.3,11.8,3.7,17.4,1c-0.1-6.2-3.3-11.9-8.6-15.2C443.7,252.9,437.1,252.5,431.5,255.1z"/>
		<path id="path6486" inkscape:connector-curvature="0" class="st1" d="M443.4,244.6c1.6,4.6,5.3,8.2,10.1,9.4
			c4.7,1.2,9.8-0.1,13.4-3.4c-1.6-4.6-5.3-8.2-10.1-9.4C452,240,447,241.3,443.4,244.6L443.4,244.6z"/>
		<path id="path6488" inkscape:connector-curvature="0" class="st1" d="M455.1,229.8c1.3,3.9,4.5,6.8,8.4,7.8c3.9,1,8.1,0,11.1-2.8
			c-1.3-3.9-4.5-6.8-8.4-7.8C462.3,226,458.1,227.1,455.1,229.8L455.1,229.8z"/>
		<path id="path6490" inkscape:connector-curvature="0" class="st1" d="M431.6,243.8c-4.8-3.9-7.3-10-6.6-16.1
			c0.7-6.2,4.4-11.5,10-14.3c4.8,3.9,7.3,10,6.6,16.1C440.9,235.6,437.1,241,431.6,243.8L431.6,243.8z"/>
		<path id="path6492" inkscape:connector-curvature="0" class="st1" d="M448.3,226.7c-4.1-2.6-6.6-7.2-6.6-12.1
			c0-4.9,2.4-9.4,6.5-12.1c4.1,2.6,6.6,7.2,6.6,12.1C454.9,219.4,452.4,224,448.3,226.7z"/>
		<path id="path6494" inkscape:connector-curvature="0" class="st1" d="M422.3,164.6c-3.9-1.2-6.9-4.3-8-8.2
			c-1.1-3.9-0.1-8.1,2.6-11.2c3.9,1.2,6.9,4.3,8,8.2C425.9,157.3,424.9,161.6,422.3,164.6L422.3,164.6z"/>
		<path id="path6496" inkscape:connector-curvature="0" class="st1" d="M407.5,240.5c-6.7,0-12.9-3.3-16.5-8.9
			c-3.6-5.6-4.2-12.6-1.5-18.7c6.7,0,12.9,3.3,16.6,8.9C409.7,227.3,410.2,234.4,407.5,240.5z"/>
		<path id="path6498" inkscape:connector-curvature="0" class="st1" d="M414.5,217.9c-5.2,0-10.1-2.6-12.9-7
			c-2.8-4.4-3.3-9.9-1.2-14.7c5.2,0,10.1,2.6,12.9,7C416.2,207.6,416.6,213.2,414.5,217.9z"/>
		<path id="path6500" inkscape:connector-curvature="0" class="st1" d="M419.1,197.6c-4.3,0-8.3-2.1-10.6-5.7c-2.3-3.6-2.7-8.1-1-12
			c4.3,0,8.3,2.1,10.6,5.7C420.5,189.2,420.8,193.7,419.1,197.6z"/>
		<path id="path6502" inkscape:connector-curvature="0" class="st1" d="M420.3,179.6c-4.3,0-8.3-2.1-10.6-5.7c-2.3-3.6-2.7-8.1-1-12
			c4.3,0,8.3,2.1,10.6,5.7C421.7,171.2,422,175.7,420.3,179.6z"/>
		<path id="path6504" inkscape:connector-curvature="0" class="st1" d="M426.3,207.1c5.1,1.2,10.4-0.3,14.2-3.9
			c3.7-3.6,5.4-8.9,4.4-14c-5.1-1.2-10.4,0.3-14.2,3.9C427,196.7,425.3,202,426.3,207.1z"/>
		<path id="path6506" inkscape:connector-curvature="0" class="st1" d="M427.1,189.2c4,0.9,8.2-0.2,11.2-3.1c3-2.9,4.3-7.1,3.5-11.1
			c-4-0.9-8.2,0.2-11.2,3.1C427.6,181,426.3,185.2,427.1,189.2L427.1,189.2z"/>
		<path id="path6508" inkscape:connector-curvature="0" class="st1" d="M425.5,174.8c3.8,0.9,7.8-0.2,10.6-2.9
			c2.8-2.7,4.1-6.7,3.3-10.5c-3.8-0.9-7.8,0.2-10.6,2.9C426,167,424.8,170.9,425.5,174.8L425.5,174.8z"/>
		<path id="path6050" inkscape:connector-curvature="0" class="st1" d="M115.3,323.2c5.2,8.7,5.7,19.5,1.3,28.6
			c-4.4,9.1-13.2,15.4-23.3,16.6c-5.2-8.7-5.7-19.5-1.3-28.6C96.5,330.7,105.3,324.4,115.3,323.2z"/>
		<path id="path6052" inkscape:connector-curvature="0" class="st1" d="M84.6,322c3.2,8.6,1.8,18.1-3.6,25.5
			c-5.5,7.3-14.2,11.4-23.4,10.8c-3.2-8.6-1.8-18.1,3.6-25.5C66.7,325.5,75.5,321.5,84.6,322z"/>
		<path id="path6054" inkscape:connector-curvature="0" class="st1" d="M56.4,313.5c2.7,7.4,1.6,15.6-3.1,21.9
			c-4.7,6.3-12.3,9.8-20.1,9.3c-2.7-7.4-1.6-15.6,3.1-21.9C40.9,316.5,48.5,313,56.4,313.5L56.4,313.5z"/>
		<path id="path6056" inkscape:connector-curvature="0" class="st1" d="M33.8,303.3c0.5,7.1-2.5,13.9-8.2,18.2
			c-5.6,4.3-13.1,5.5-19.8,3.1c-0.5-7.1,2.5-13.9,8.2-18.2C19.6,302.1,27.1,300.9,33.8,303.3z"/>
		<path id="path6058" inkscape:connector-curvature="0" class="st1" d="M-17.8,272.4c5.6-3.2,12.5-3.3,18.3-0.3
			c5.7,3,9.6,8.7,10.2,15.2c-5.6,3.2-12.5,3.3-18.3,0.3C-13.4,284.6-17.2,278.9-17.8,272.4L-17.8,272.4z"/>
		<path id="path6062" inkscape:connector-curvature="0" class="st1" d="M108.8,312.4c5.7-7.2,7.3-16.7,4.4-25.4
			c-2.9-8.7-10.1-15.2-18.9-17.5c-5.7,7.2-7.3,16.7-4.4,25.4C92.8,303.6,99.9,310.2,108.8,312.4L108.8,312.4z"/>
		<path id="path6064" inkscape:connector-curvature="0" class="st1" d="M78.4,311.2c4.9-6.2,6.3-14.4,3.8-21.8
			c-2.5-7.4-8.7-13.1-16.3-15c-4.9,6.2-6.3,14.4-3.8,21.8C64.6,303.6,70.8,309.2,78.4,311.2z"/>
		<path id="path6066" inkscape:connector-curvature="0" class="st1" d="M50.8,302.4c4.1-5.2,5.3-12.1,3.2-18.4
			c-2.1-6.3-7.3-11.1-13.7-12.7c-4.1,5.2-5.3,12.1-3.2,18.4C39.2,296,44.4,300.8,50.8,302.4z"/>
		<path id="path6068" inkscape:connector-curvature="0" class="st1" d="M27.1,292.1c3.6-4.6,4.7-10.7,2.8-16.3
			c-1.9-5.5-6.5-9.8-12.1-11.2c-3.6,4.6-4.7,10.7-2.8,16.3C16.9,286.5,21.4,290.7,27.1,292.1L27.1,292.1z"/>
		<path id="path6070" inkscape:connector-curvature="0" class="st1" d="M15.5,295.5c-0.7,5.7-4.2,10.7-9.4,13.3
			c-5.2,2.5-11.3,2.3-16.3-0.7c0.7-5.7,4.2-10.7,9.4-13.3C4.4,292.3,10.5,292.6,15.5,295.5L15.5,295.5z"/>
		<path id="path3529" inkscape:connector-curvature="0" class="st1" d="M79.3,242c1,6.9-1.5,13.9-6.8,18.5
			c-5.2,4.6-12.5,6.3-19.2,4.4c-1-6.9,1.5-13.9,6.8-18.5C65.3,241.7,72.6,240.1,79.3,242z"/>
		<path id="path3531" inkscape:connector-curvature="0" class="st1" d="M64.2,233.5c-1.5,6.1-5.9,11.1-11.8,13.1
			c-5.9,2.1-12.5,1-17.5-2.8c1.5-6.1,5.9-11.1,11.8-13.1C52.6,228.6,59.2,229.6,64.2,233.5z"/>
		<path id="path3533" inkscape:connector-curvature="0" class="st1" d="M51,216.6c-1.3,5.3-5.1,9.5-10.2,11.3
			c-5.1,1.8-10.8,0.9-15-2.4c1.3-5.3,5.1-9.5,10.2-11.3C41,212.4,46.7,213.3,51,216.6z"/>
		<path id="path3535" inkscape:connector-curvature="0" class="st1" d="M44.7,203.3c-2.4,4.2-6.8,7-11.7,7.3
			c-4.9,0.3-9.6-1.9-12.4-5.8c2.4-4.2,6.8-7,11.7-7.3C37.1,197.1,41.8,199.3,44.7,203.3z"/>
		<path id="path3537" inkscape:connector-curvature="0" class="st1" d="M28.8,170.2c4.4,0.4,8.4,2.9,10.5,6.9
			c2.1,3.9,2.1,8.7,0,12.6c-4.4-0.4-8.4-2.9-10.5-6.9C26.6,178.8,26.6,174.1,28.8,170.2L28.8,170.2z"/>
		<path id="path3541" inkscape:connector-curvature="0" class="st1" d="M62,219.2c4.8-1.5,8.6-5.4,9.9-10.3
			c1.3-4.9,0.1-10.1-3.3-13.9c-4.8,1.5-8.6,5.4-9.9,10.3C57.3,210.2,58.6,215.5,62,219.2z"/>
		<path id="path3543" inkscape:connector-curvature="0" class="st1" d="M51.1,205.1c4.3-1.4,7.7-4.9,8.9-9.3c1.2-4.4,0.1-9.1-3-12.5
			c-4.3,1.4-7.7,4.9-8.9,9.3C46.9,197,48,201.7,51.1,205.1z"/>
		<path id="path3549" inkscape:connector-curvature="0" class="st1" d="M383.5,124.9c0.7-6.1,4.5-11.5,10-14.2
			c5.5-2.7,12.1-2.5,17.4,0.7c-0.7,6.1-4.5,11.5-10,14.2C395.4,128.4,388.8,128.1,383.5,124.9z"/>
		<path id="path3551" inkscape:connector-curvature="0" class="st1" d="M397.8,49.3c-3.6-1.9-6-5.5-6.4-9.5c-0.4-4.1,1.3-8,4.5-10.5
			c3.6,1.9,6,5.5,6.4,9.5C402.7,42.8,401,46.8,397.8,49.3L397.8,49.3z"/>
		<path id="path3553" inkscape:connector-curvature="0" class="st1" d="M373.3,122.5c-6.7-0.1-12.8-3.6-16.3-9.3
			c-3.5-5.7-3.9-12.7-1.1-18.8c6.7,0.1,12.8,3.6,16.3,9.3C375.7,109.4,376.1,116.5,373.3,122.5z"/>
		<path id="path3555" inkscape:connector-curvature="0" class="st1" d="M383.1,103.1c-5.2,0.4-10.2-1.9-13.4-6.1
			c-3.1-4.2-4-9.6-2.2-14.5c5.2-0.4,10.2,1.9,13.4,6.1C384,92.8,384.9,98.2,383.1,103.1z"/>
		<path id="path3557" inkscape:connector-curvature="0" class="st1" d="M389.6,83.9c-4.2,0.5-8.5-1.1-11.2-4.4
			c-2.8-3.3-3.7-7.7-2.4-11.8c4.2-0.5,8.5,1.1,11.2,4.4C389.9,75.4,390.8,79.8,389.6,83.9L389.6,83.9z"/>
		<path id="path3559" inkscape:connector-curvature="0" class="st1" d="M391.2,67.7c-4.2-0.7-7.7-3.6-9.4-7.5
			c-1.7-3.9-1.2-8.4,1.2-12c4.2,0.7,7.7,3.6,9.4,7.5C394.1,59.6,393.6,64.1,391.2,67.7L391.2,67.7z"/>
		<path id="path3561" inkscape:connector-curvature="0" class="st1" d="M390.6,103.1c4.4,2.7,10,3,14.7,0.8c4.7-2.2,8-6.7,8.6-11.9
			c-4.4-2.7-10-3-14.7-0.8C394.5,93.5,391.3,98,390.6,103.1L390.6,103.1z"/>
		<path id="path3563" inkscape:connector-curvature="0" class="st1" d="M396.4,83.2c3.4,2.3,7.8,2.8,11.6,1.2c3.8-1.6,6.6-5,7.3-9.1
			c-3.4-2.3-7.8-2.8-11.6-1.2C399.9,75.7,397.2,79.1,396.4,83.2z"/>
		<path id="path3565" inkscape:connector-curvature="0" class="st1" d="M398.4,67.3c3.6,1.5,7.7,1.2,11-1c3.2-2.2,5.2-5.9,5.1-9.8
			c-3.6-1.5-7.7-1.2-11,1C400.3,59.8,398.4,63.4,398.4,67.3z"/>
		<path id="path3567" inkscape:connector-curvature="0" class="st1" d="M394.9,168.6c-0.4-3.2,0.9-6.4,3.4-8.5
			c2.5-2.1,5.9-2.7,9-1.8c0.4,3.2-0.9,6.4-3.4,8.5C401.4,169,398,169.6,394.9,168.6L394.9,168.6z"/>
		<path id="path3571" inkscape:connector-curvature="0" class="st1" d="M335.8,124.8c-0.8-5.3-4.3-9.7-9.1-11.9
			c-4.9-2.2-10.5-1.7-15,1.2c0.8,5.3,4.3,9.7,9.1,11.9C325.7,128.2,331.3,127.7,335.8,124.8z"/>
		<path id="path3573" inkscape:connector-curvature="0" class="st1" d="M348.1,73c3.5-0.1,6.7-2,8.5-4.9c1.8-3,2-6.7,0.5-9.9
			c-3.5,0.1-6.7,2-8.5,4.9C346.8,66.2,346.6,69.9,348.1,73L348.1,73z"/>
		<path id="path3575" inkscape:connector-curvature="0" class="st1" d="M375.5,137.4c3.4,5.4,9.3,8.7,15.6,8.8
			c6.4,0.1,12.4-3,15.9-8.3c-3.4-5.4-9.3-8.7-15.6-8.8C385.1,128.9,379.1,132.1,375.5,137.4L375.5,137.4z"/>
		<path id="path3577" inkscape:connector-curvature="0" class="st1" d="M344.4,138.5c4.9,1.9,10.5,1.1,14.7-2
			c4.2-3.1,6.6-8.2,6.3-13.4c-4.9-1.9-10.5-1.1-14.7,2C346.5,128.2,344.1,133.3,344.4,138.5z"/>
		<path id="path3579" inkscape:connector-curvature="0" class="st1" d="M341,96.2c3.1,2,7,2.3,10.3,0.8c3.4-1.5,5.7-4.6,6.3-8.2
			c-3.1-2-7-2.3-10.3-0.8C344,89.5,341.6,92.6,341,96.2z"/>
		<path id="path3581" inkscape:connector-curvature="0" class="st1" d="M345.5,85.4c3.5,1,7.3,0.2,10.1-2.3c2.8-2.4,4.1-6.1,3.6-9.7
			c-3.5-1-7.3-0.2-10.1,2.3C346.3,78.1,344.9,81.8,345.5,85.4L345.5,85.4z"/>
		<path id="path3583" inkscape:connector-curvature="0" class="st1" d="M334.6,109.2c-4.2,1.7-8.9,1.2-12.6-1.4
			c-3.7-2.6-5.8-6.8-5.7-11.3c4.2-1.7,8.9-1.2,12.6,1.4C332.6,100.5,334.7,104.7,334.6,109.2z"/>
		<path id="path3585" inkscape:connector-curvature="0" class="st1" d="M335.6,95.4c-3.5,0.5-7.1-0.8-9.4-3.4
			c-2.4-2.7-3.2-6.3-2.2-9.8c3.5-0.5,7.1,0.8,9.4,3.4C335.7,88.3,336.5,92,335.6,95.4z"/>
		<path id="path3587" inkscape:connector-curvature="0" class="st1" d="M340,82.4c-3.4-0.2-6.4-2-8.1-4.9c-1.7-2.9-1.8-6.5-0.3-9.5
			c3.4,0.2,6.4,2,8.1,4.9C341.4,75.9,341.5,79.4,340,82.4z"/>
		<path id="path3589" inkscape:connector-curvature="0" class="st1" d="M338.9,146.5c-1.1-6.6-5.4-12.3-11.5-15
			c-6.1-2.7-13.2-2.1-18.8,1.5c1.1,6.6,5.4,12.3,11.5,15C326.2,150.8,333.3,150.2,338.9,146.5L338.9,146.5z"/>
		<path id="path3593" inkscape:connector-curvature="0" class="st1" d="M358.4,185.7c-2.8-3.7-3.5-8.4-1.9-12.7
			c1.6-4.3,5.2-7.5,9.7-8.5c2.8,3.7,3.5,8.4,1.9,12.7C366.5,181.5,362.9,184.7,358.4,185.7L358.4,185.7z"/>
		<path id="path3595" inkscape:connector-curvature="0" class="st1" d="M373.1,181.8c-2.3-3-2.8-6.9-1.6-10.4c1.3-3.5,4.3-6.2,7.9-7
			c2.3,3,2.8,6.9,1.6,10.4C379.8,178.3,376.8,180.9,373.1,181.8z"/>
		<path id="path3597" inkscape:connector-curvature="0" class="st1" d="M385.6,173.5c-2.3-3-2.8-6.9-1.6-10.4c1.3-3.5,4.3-6.2,7.9-7
			c2.3,3,2.8,6.9,1.6,10.4C392.2,170,389.2,172.7,385.6,173.5z"/>
		<path id="path3601" inkscape:connector-curvature="0" class="st1" d="M374.1,186.9c0.6,3.7,3,6.9,6.4,8.4
			c3.4,1.5,7.4,1.2,10.5-0.8c-0.6-3.7-3-6.9-6.4-8.4C381.2,184.5,377.2,184.8,374.1,186.9L374.1,186.9z"/>
		<path id="path3603" inkscape:connector-curvature="0" class="st1" d="M387.1,179.4c0.6,3.7,3,6.9,6.4,8.4
			c3.4,1.5,7.4,1.2,10.5-0.8c-0.6-3.7-3-6.9-6.4-8.4C394.2,177,390.3,177.3,387.1,179.4z"/>
		<path id="path3605" inkscape:connector-curvature="0" class="st1" d="M365.2,206.1c-0.4-3.2,0.9-6.4,3.4-8.5
			c2.5-2.1,5.9-2.7,9-1.8c0.4,3.2-0.9,6.4-3.4,8.5C371.7,206.5,368.3,207.1,365.2,206.1z"/>
		<path id="path3607" inkscape:connector-curvature="0" class="st1" d="M318.7,254.8c-4.8-2.9-7.8-8-8-13.6
			c-0.2-5.6,2.5-10.9,7.1-14.2c4.8,2.9,7.8,8,8,13.6C326,246.3,323.4,251.6,318.7,254.8z"/>
		<path id="path3609" inkscape:connector-curvature="0" class="st1" d="M333.9,243.1c-4.2-1.5-7.3-5.1-8.3-9.4
			c-1-4.3,0.3-8.9,3.4-12c4.2,1.5,7.3,5.1,8.3,9.4C338.3,235.4,337,240,333.9,243.1L333.9,243.1z"/>
		<path id="path3611" inkscape:connector-curvature="0" class="st1" d="M345.5,231.6c-3.9-1.4-6.8-4.7-7.8-8.7
			c-0.9-4,0.2-8.3,3.1-11.3c3.9,1.4,6.8,4.7,7.8,8.7C349.6,224.4,348.4,228.6,345.5,231.6L345.5,231.6z"/>
		<path id="path3613" inkscape:connector-curvature="0" class="st1" d="M354.1,219.5c-3.1-1.7-5.2-4.9-5.5-8.4
			c-0.3-3.6,1.2-7,4.1-9.2c3.1,1.7,5.2,4.9,5.5,8.4C358.4,213.9,356.9,217.3,354.1,219.5z"/>
		<path id="path3615" inkscape:connector-curvature="0" class="st1" d="M317.1,268.6c1.4,5.7,5.7,10.4,11.2,12.3
			c5.6,1.9,11.8,0.9,16.4-2.8c-1.4-5.7-5.7-10.4-11.2-12.3C328,264,321.8,265,317.1,268.6z"/>
		<path id="path3617" inkscape:connector-curvature="0" class="st1" d="M331.6,256.3c0.8,4.4,3.8,8,7.9,9.7
			c4.1,1.7,8.8,1.2,12.4-1.4c-0.8-4.4-3.8-8-7.9-9.7C340,253.2,335.3,253.7,331.6,256.3L331.6,256.3z"/>
		<path id="path3619" inkscape:connector-curvature="0" class="st1" d="M342.2,245.5c0.7,4.1,3.5,7.5,7.3,9.1
			c3.8,1.6,8.2,1.2,11.6-1.2c-0.7-4.1-3.5-7.5-7.3-9.1C350,242.7,345.6,243.1,342.2,245.5z"/>
		<path id="path3621" inkscape:connector-curvature="0" class="st1" d="M318.5,294.5c3,1.9,6.8,2.2,10,0.8c3.3-1.5,5.6-4.5,6.1-8
			c-3-1.9-6.8-2.2-10-0.8C321.4,287.9,319.1,290.9,318.5,294.5L318.5,294.5z"/>
		<path id="path3623" inkscape:connector-curvature="0" class="st1" d="M371.6,226.7c-2.4-2.2-3.4-5.5-2.9-8.7
			c0.6-3.2,2.8-5.9,5.8-7.2c2.4,2.2,3.4,5.5,2.9,8.7C376.8,222.8,374.6,225.5,371.6,226.7L371.6,226.7z"/>
		<path id="path3625" inkscape:connector-curvature="0" class="st1" d="M302.7,225.7c3.3,1.3,7.1,0.8,10-1.3
			c2.9-2.1,4.5-5.5,4.3-9.1c-3.3-1.3-7.1-0.8-10,1.3C304.1,218.7,302.5,222.2,302.7,225.7L302.7,225.7z"/>
		<path id="path3627" inkscape:connector-curvature="0" class="st1" d="M293.8,231.9c3-2.9,4.4-7.2,3.6-11.3
			c-0.8-4.1-3.6-7.6-7.5-9.2c-3,2.9-4.4,7.2-3.6,11.3C287.1,226.9,289.9,230.4,293.8,231.9L293.8,231.9z"/>
		<path id="path3629" inkscape:connector-curvature="0" class="st1" d="M285.8,242c2.1-4,2.1-8.7,0-12.7c-2.2-3.9-6.2-6.5-10.7-6.9
			c-2.1,4-2.1,8.7,0,12.7C277.4,239.1,281.4,241.7,285.8,242L285.8,242z"/>
		<path id="path3631" inkscape:connector-curvature="0" class="st1" d="M280.4,253.8c1-4.9-0.6-10-4.2-13.5
			c-3.6-3.5-8.7-4.9-13.6-3.8c-1,4.9,0.6,10,4.2,13.5C270.4,253.5,275.5,254.9,280.4,253.8L280.4,253.8z"/>
		<path id="path3633" inkscape:connector-curvature="0" class="st1" d="M289.1,256.2c3.4,2.9,8,3.8,12.2,2.5
			c4.2-1.3,7.6-4.6,8.8-8.9c-3.4-2.9-8-3.8-12.2-2.5C293.6,248.6,290.3,251.9,289.1,256.2L289.1,256.2z"/>
		<path id="path3635" inkscape:connector-curvature="0" class="st1" d="M293.1,244.3c3.1,1.7,6.9,1.7,10.1,0
			c3.1-1.7,5.2-4.9,5.4-8.5c-3.1-1.7-6.9-1.7-10.1,0C295.4,237.6,293.3,240.8,293.1,244.3L293.1,244.3z"/>
		<path id="path3637" inkscape:connector-curvature="0" class="st1" d="M478.2,326.3c0,6,3,11.5,8,14.8c5,3.3,11.3,3.8,16.8,1.3
			c0-6-3-11.5-8-14.8C490,324.4,483.7,323.9,478.2,326.3z"/>
		<path id="path3639" inkscape:connector-curvature="0" class="st1" d="M186.6,213c1.3-6.1,5.5-11.1,11.3-13.3
			c5.8-2.2,12.3-1.4,17.3,2.2c-1.3,6.1-5.5,11.1-11.3,13.3C198.2,217.5,191.7,216.6,186.6,213L186.6,213z"/>
		<path id="path3641" inkscape:connector-curvature="0" class="st1" d="M287.3,17.6c-4.1-0.3-7.7-2.6-9.7-6.2c-2-3.6-2-7.9-0.1-11.5
			c4.1,0.3,7.7,2.6,9.7,6.2C289.2,9.7,289.2,14,287.3,17.6L287.3,17.6z"/>
		<path id="path3643" inkscape:connector-curvature="0" class="st1" d="M206.4,48.1c-4.2-2.6-6.8-7.1-6.9-12.1
			c-0.1-4.9,2.3-9.6,6.4-12.4c4.2,2.6,6.8,7.1,6.9,12.1C212.9,40.7,210.5,45.3,206.4,48.1z"/>
		<path id="path3645" inkscape:connector-curvature="0" class="st1" d="M296.8,61.9c-4.6,2.4-10.1,2.3-14.7-0.2
			c-4.5-2.6-7.5-7.3-7.8-12.5c4.6-2.4,10.1-2.3,14.7,0.2C293.5,52,296.5,56.7,296.8,61.9z"/>
		<path id="path3647" inkscape:connector-curvature="0" class="st1" d="M293.5,40.7c-3.4,3.8-8.5,5.7-13.6,5
			c-5.1-0.8-9.4-4-11.6-8.7c3.4-3.8,8.5-5.7,13.6-5C287,32.8,291.4,36.1,293.5,40.7z"/>
		<path id="path3649" inkscape:connector-curvature="0" class="st1" d="M288.5,26.1c-3.1,2.9-7.5,4-11.7,3c-4.1-1-7.5-4.1-8.9-8.1
			c3.1-2.9,7.5-4,11.7-3C283.7,18.9,287.1,22,288.5,26.1z"/>
		<path id="path3651" inkscape:connector-curvature="0" class="st1" d="M296.2,36.2c5.2,0.7,10.3-1.2,13.8-5.1
			c3.4-3.9,4.6-9.3,3.2-14.3c-5.2-0.7-10.3,1.2-13.8,5.1C296,25.8,294.8,31.2,296.2,36.2L296.2,36.2z"/>
		<path id="path3653" inkscape:connector-curvature="0" class="st1" d="M344.8,21.1c4.1,0.8,8.2-0.5,11.1-3.5c2.9-3,4-7.2,3.1-11.2
			c-4.1-0.8-8.2,0.5-11.1,3.5C345.1,12.8,343.9,17,344.8,21.1z"/>
		<path id="path3655" inkscape:connector-curvature="0" class="st1" d="M291.1,21.8c3.9,0,7.5-2,9.7-5.3c2.1-3.3,2.4-7.4,0.8-11
			c-3.9,0-7.5,2-9.7,5.3C289.8,14.1,289.5,18.2,291.1,21.8L291.1,21.8z"/>
		<path id="path3657" inkscape:connector-curvature="0" class="st1" d="M254.2,138.9c5.3-2.2,9.1-7,10.1-12.6
			c1-5.6-0.9-11.4-5.1-15.3c-5.3,2.2-9.1,7-10.1,12.6C248.1,129.3,250.1,135,254.2,138.9z"/>
		<path id="path3659" inkscape:connector-curvature="0" class="st1" d="M339.5,40.9c2.2,3.3,5.9,5.3,9.8,5.3c4,0,7.7-2,9.8-5.4
			c-2.2-3.3-5.9-5.3-9.8-5.3C345.3,35.5,341.6,37.5,339.5,40.9z"/>
		<path id="path3661" inkscape:connector-curvature="0" class="st1" d="M342.4,32c2.8,2.3,6.7,3.1,10.2,2c3.5-1.1,6.2-3.9,7.2-7.5
			c-2.8-2.3-6.7-3.1-10.2-2C346.1,25.6,343.4,28.4,342.4,32z"/>
		<path id="path3663" inkscape:connector-curvature="0" class="st1" d="M333.3,53c2.3,3.6,6.3,5.7,10.6,5.7c4.3,0,8.2-2.2,10.5-5.8
			c-2.3-3.6-6.3-5.7-10.6-5.7C339.6,47.2,335.6,49.4,333.3,53z"/>
		<path id="path3665" inkscape:connector-curvature="0" class="st1" d="M336.7,34.8c-3.6,0.9-7.3,0-10.1-2.4c-2.7-2.5-4-6.2-3.4-9.8
			c3.6-0.9,7.3,0,10.1,2.4C336,27.5,337.3,31.1,336.7,34.8z"/>
		<path id="path3667" inkscape:connector-curvature="0" class="st1" d="M341.1,24.7c-3.7-0.1-7-2.1-8.9-5.3c-1.9-3.2-2-7.1-0.4-10.4
			c3.7,0.1,7,2.1,8.9,5.3C342.6,17.5,342.8,21.4,341.1,24.7L341.1,24.7z"/>
		<path id="path3669" inkscape:connector-curvature="0" class="st1" d="M331,47.2c-4.2,1.1-8.6,0-11.8-2.8c-3.2-2.9-4.7-7.2-4-11.4
			c4.2-1.1,8.6,0,11.8,2.8C330.2,38.6,331.7,42.9,331,47.2L331,47.2z"/>
		<path id="path3671" inkscape:connector-curvature="0" class="st1" d="M303.3,61.2c4,1.4,8.5,0.6,11.9-2c3.4-2.6,5.1-6.8,4.8-11.1
			c-4-1.4-8.5-0.6-11.9,2C304.7,52.8,302.9,56.9,303.3,61.2L303.3,61.2z"/>
		<path id="path3673" inkscape:connector-curvature="0" class="st1" d="M239.6,128.3c4.8-2,8.3-6.3,9.2-11.5
			c0.9-5.1-0.8-10.4-4.6-14c-4.8,2-8.3,6.3-9.2,11.5C234.1,119.5,235.8,124.7,239.6,128.3z"/>
		<path id="path3675" inkscape:connector-curvature="0" class="st1" d="M225.9,110.4c4.4-0.3,8.3-2.9,10.5-6.9
			c2.2-4,2.3-8.8,0.3-12.7c-4.4,0.3-8.3,2.9-10.5,6.9C224.1,101.6,223.9,106.4,225.9,110.4L225.9,110.4z"/>
		<path id="path3677" inkscape:connector-curvature="0" class="st1" d="M216.3,92.3c4.4,0.5,8.8-1.2,11.7-4.7
			c2.9-3.5,4-8.1,2.8-12.4c-4.4-0.5-8.8,1.2-11.7,4.7C216.2,83.4,215.1,88,216.3,92.3z"/>
		<path id="path3679" inkscape:connector-curvature="0" class="st1" d="M211.3,73.4c4.3,0.9,8.8-0.5,12-3.8
			c3.2-3.2,4.6-7.8,3.8-12.2c-4.3-0.9-8.8,0.5-12,3.8C211.9,64.4,210.5,69,211.3,73.4z"/>
		<path id="path3681" inkscape:connector-curvature="0" class="st1" d="M256.8,48c-3.2-2-5.2-5.4-5.3-9.2c-0.1-3.8,1.7-7.3,4.9-9.5
			c3.2,2,5.2,5.4,5.3,9.2C261.7,42.3,259.9,45.8,256.8,48z"/>
		<path id="path3683" inkscape:connector-curvature="0" class="st1" d="M276.7,97.4c4.8,1.2,9.9-0.1,13.5-3.5
			c3.6-3.4,5.3-8.4,4.4-13.2c-4.8-1.2-9.9,0.1-13.5,3.5C277.5,87.6,275.9,92.5,276.7,97.4z"/>
		<path id="path3685" inkscape:connector-curvature="0" class="st1" d="M268.9,86.5c4.6,1.1,9.4-0.1,12.9-3.4c3.5-3.2,5-8,4.2-12.7
			c-4.6-1.1-9.4,0.1-12.9,3.4C269.7,77.1,268.1,81.8,268.9,86.5z"/>
		<path id="path3687" inkscape:connector-curvature="0" class="st1" d="M262.6,74.2c3.6,0.9,7.3-0.1,10-2.6c2.7-2.5,3.9-6.2,3.3-9.8
			c-3.6-0.9-7.3,0.1-10,2.6C263.2,66.8,262,70.5,262.6,74.2L262.6,74.2z"/>
		<path id="path3689" inkscape:connector-curvature="0" class="st1" d="M258.7,62.8c3.6,0.9,7.3-0.1,10-2.6c2.7-2.5,3.9-6.2,3.3-9.8
			c-3.6-0.9-7.3,0.1-10,2.6C259.3,55.5,258.1,59.2,258.7,62.8L258.7,62.8z"/>
		<path id="path3691" inkscape:connector-curvature="0" class="st1" d="M270.5,103.7c-3,3.4-7.4,5-11.9,4.4
			c-4.4-0.7-8.3-3.5-10.1-7.6c3-3.4,7.4-5,11.9-4.4C264.8,96.8,268.6,99.6,270.5,103.7z"/>
		<path id="path3693" inkscape:connector-curvature="0" class="st1" d="M257.2,73.1c-2.8,3.2-6.9,4.7-11,4.1
			c-4.1-0.6-7.7-3.3-9.4-7.1c2.8-3.2,6.9-4.7,11-4.1C251.9,66.6,255.4,69.3,257.2,73.1z"/>
		<path id="path3695" inkscape:connector-curvature="0" class="st1" d="M262.3,89.3c-2.9,3.4-7.2,5-11.4,4.4c-4.3-0.7-8-3.5-9.8-7.6
			c2.9-3.4,7.2-5,11.4-4.4C256.8,82.3,260.5,85.2,262.3,89.3L262.3,89.3z"/>
		<path id="path3697" inkscape:connector-curvature="0" class="st1" d="M254.5,61.7c-3.7,2-8.1,2.1-11.8,0.1c-3.7-2-6.1-5.7-6.4-9.9
			c3.7-2,8.1-2.1,11.8-0.1C251.7,53.8,254.2,57.5,254.5,61.7z"/>
		<path id="path3701" inkscape:connector-curvature="0" class="st1" d="M376.6,271.3c4.6,1,9.5-0.3,12.9-3.7
			c3.4-3.3,4.9-8.2,3.9-12.8c-4.6-1-9.5,0.3-12.9,3.7C377.2,261.8,375.7,266.6,376.6,271.3L376.6,271.3z"/>
		<path id="path3703" inkscape:connector-curvature="0" class="st1" d="M370.8,241.5c3.6,0.6,7.3-0.6,9.8-3.3
			c2.5-2.7,3.5-6.5,2.6-10c-3.6-0.6-7.3,0.6-9.8,3.3C370.9,234.2,369.9,238,370.8,241.5z"/>
		<path id="path3705" inkscape:connector-curvature="0" class="st1" d="M372.7,255.3c3.8,0.9,7.8-0.3,10.5-3.2c2.8-2.9,4-7,3.2-11.1
			c-3.8-0.9-7.8,0.3-10.5,3.2C373.1,247.1,371.9,251.3,372.7,255.3z"/>
		<path id="path3707" inkscape:connector-curvature="0" class="st1" d="M311.6,193.8c0.1,6.2,3.3,11.9,8.6,15.2
			c5.3,3.3,11.8,3.7,17.4,1c-0.1-6.2-3.3-11.9-8.6-15.2C323.8,191.6,317.2,191.2,311.6,193.8z"/>
		<path id="path3709" inkscape:connector-curvature="0" class="st1" d="M365.2,241.9c-3.6,0.6-7.3-0.6-9.8-3.3
			c-2.5-2.7-3.5-6.5-2.6-10c3.6-0.6,7.3,0.6,9.8,3.3C365.2,234.6,366.1,238.4,365.2,241.9L365.2,241.9z"/>
		<path id="path3711" inkscape:connector-curvature="0" class="st1" d="M369.1,280.7c-3.4,3.3-8.3,4.6-12.9,3.4
			c-4.6-1.1-8.4-4.5-9.9-9c3.4-3.3,8.3-4.6,12.9-3.4C363.8,272.8,367.6,276.2,369.1,280.7L369.1,280.7z"/>
		<path id="path3713" inkscape:connector-curvature="0" class="st1" d="M367.2,263.7c-2.4,2.1-5.8,2.9-9,2.2
			c-3.2-0.7-5.8-2.9-6.9-5.8c2.4-2.1,5.8-2.9,9-2.2C363.5,258.6,366.1,260.8,367.2,263.7z"/>
		<path id="path3715" inkscape:connector-curvature="0" class="st1" d="M306.6,316.7c2.7,2.5,6.5,3.4,10.1,2.5
			c3.6-0.9,6.4-3.6,7.6-7.1c-2.7-2.5-6.5-3.4-10.1-2.5C310.6,310.5,307.8,313.2,306.6,316.7L306.6,316.7z"/>
		<path id="path3717" inkscape:connector-curvature="0" class="st1" d="M306.1,334.9c3.6,1.4,7.7,0.7,10.9-1.8
			c3.1-2.5,4.9-6.5,4.6-10.6c-3.6-1.4-7.7-0.7-10.9,1.8C307.7,326.8,305.9,330.8,306.1,334.9L306.1,334.9z"/>
		<path id="path3719" inkscape:connector-curvature="0" class="st1" d="M312.1,305c2.7,2.5,6.5,3.4,10.1,2.5
			c3.6-0.9,6.4-3.6,7.6-7.1c-2.7-2.5-6.5-3.4-10.1-2.5C316.1,298.8,313.2,301.5,312.1,305L312.1,305z"/>
		<path id="path3721" inkscape:connector-curvature="0" class="st1" d="M419.7,263.1c-2,6.4-0.8,13.5,3.2,18.8
			c4,5.3,10.3,8,16.7,7.3c2-6.4,0.8-13.5-3.2-18.8C432.4,265.2,426.1,262.4,419.7,263.1z"/>
		<path id="path3723" inkscape:connector-curvature="0" class="st1" d="M191.4,120.9c-3.3-2.7-5.1-6.8-4.7-11.1c0.4-4.2,3-8,6.7-9.9
			c3.3,2.7,5.1,6.8,4.7,11.1C197.8,115.1,195.2,118.9,191.4,120.9L191.4,120.9z"/>
		<path id="path3725" inkscape:connector-curvature="0" class="st1" d="M188.9,85.7c4.5-2,9.7-1.5,13.8,1.2
			c4.1,2.7,6.6,7.4,6.5,12.3c-4.5,2-9.7,1.5-13.8-1.2C191.3,95.2,188.8,90.6,188.9,85.7z"/>
		<path id="path3727" inkscape:connector-curvature="0" class="st1" d="M187.5,69c4-1.7,8.8-1.2,12.5,1.3c3.8,2.5,6.1,6.7,6.1,11.2
			c-4,1.7-8.8,1.2-12.5-1.3C189.9,77.6,187.6,73.4,187.5,69L187.5,69z"/>
		<path id="path3729" inkscape:connector-curvature="0" class="st1" d="M184.5,53.7c3.8-2.3,8.5-2.4,12.6-0.5c4.1,2,7,5.8,7.6,10.2
			c-3.8,2.3-8.5,2.4-12.6,0.5C188,61.9,185.2,58.1,184.5,53.7z"/>
		<path id="path3731" inkscape:connector-curvature="0" class="st1" d="M137.2,77.4c4.2-1.1,8.8,0,12.2,3c3.4,3,5.1,7.5,4.5,11.9
			c-4.2,1.1-8.8,0-12.2-3C138.3,86.3,136.6,81.8,137.2,77.4z"/>
		<path id="path3733" inkscape:connector-curvature="0" class="st1" d="M77.4,97.8c3.2,2,5.2,5.6,5.3,9.5c0.1,3.9-1.8,7.7-4.9,9.9
			c-3.2-2-5.2-5.6-5.3-9.5C72.4,103.8,74.2,100.1,77.4,97.8L77.4,97.8z"/>
		<path id="path3735" inkscape:connector-curvature="0" class="st1" d="M129.3,108.4c3.7,2.3,6,6.5,6.1,11c0.1,4.5-2,8.8-5.6,11.4
			c-3.7-2.3-6-6.5-6.1-11C123.5,115.3,125.7,111,129.3,108.4L129.3,108.4z"/>
		<path id="path3737" inkscape:connector-curvature="0" class="st1" d="M145.7,193.6c3.7,2.3,6,6.5,6.1,11c0.1,4.5-2,8.8-5.6,11.4
			c-3.7-2.3-6-6.5-6.1-11C140,200.5,142.1,196.2,145.7,193.6L145.7,193.6z"/>
		<path id="path3739" inkscape:connector-curvature="0" class="st1" d="M177.3,128.6c4.1,1.6,7.1,5.3,8,9.8c0.9,4.4-0.4,9-3.5,12.2
			c-4.1-1.6-7.1-5.3-8-9.8C172.9,136.4,174.2,131.7,177.3,128.6z"/>
		<path id="path3741" inkscape:connector-curvature="0" class="st1" d="M141.5,276c4.1,4.2,10,6.1,15.8,4.9
			c5.8-1.1,10.6-5.1,12.8-10.6c-4.1-4.2-10-6.1-15.8-4.9C148.5,266.5,143.7,270.5,141.5,276L141.5,276z"/>
		<path id="path3743" inkscape:connector-curvature="0" class="st1" d="M150.6,242.3c2.7,2.5,6.5,3.5,10,2.6c3.6-0.9,6.5-3.5,7.7-7
			c-2.7-2.5-6.5-3.5-10-2.6C154.7,236.2,151.8,238.8,150.6,242.3L150.6,242.3z"/>
		<path id="path3745" inkscape:connector-curvature="0" class="st1" d="M148.8,258.7c3.1,3.2,7.6,4.6,12,3.6c4.4-1,8.2-4.2,10-8.5
			c-3.1-3.2-7.6-4.6-12-3.6C154.3,251.1,150.6,254.3,148.8,258.7z"/>
		<path id="path3747" inkscape:connector-curvature="0" class="st1" d="M150.5,231.2c3.3,1.6,7.2,1.4,10.4-0.5
			c3.1-1.9,5.1-5.3,5.2-9c-3.3-1.6-7.2-1.4-10.4,0.5C152.6,224.1,150.6,227.5,150.5,231.2L150.5,231.2z"/>
		<path id="path3749" inkscape:connector-curvature="0" class="st1" d="M300.8,311.9c-3.4,1.4-7.3,1.1-10.3-1
			c-3-2.1-4.9-5.5-4.8-9.2c3.4-1.4,7.3-1.1,10.3,1C299.1,304.7,300.9,308.2,300.8,311.9L300.8,311.9z"/>
		<path id="path3751" inkscape:connector-curvature="0" class="st1" d="M296.2,326.9c-4.1,1.7-8.9,1-12.5-1.7
			c-3.7-2.8-5.8-7.3-5.6-12c4.1-1.7,8.9-1,12.5,1.7C294.3,317.7,296.4,322.2,296.2,326.9L296.2,326.9z"/>
		<path id="path3753" inkscape:connector-curvature="0" class="st1" d="M304.7,303.8c-3.7-0.2-7-2.3-8.8-5.5
			c-1.8-3.2-1.9-7.1-0.2-10.4c3.7,0.2,7,2.3,8.8,5.5C306.4,296.6,306.4,300.5,304.7,303.8L304.7,303.8z"/>
		<path id="path3755" inkscape:connector-curvature="0" class="st1" d="M298.1,341.4c-4.3,3.4-10,4.2-15.2,2.2
			c-5.2-2-9.2-6.6-10.6-12.1c4.3-3.4,10-4.2,15.2-2.2C292.7,331.3,296.7,335.8,298.1,341.4L298.1,341.4z"/>
		<path id="path3757" inkscape:connector-curvature="0" class="st1" d="M309.6,295.9c-2.8-2.4-4.2-6-3.7-9.7
			c0.5-3.6,2.8-6.8,6.1-8.4c2.8,2.4,4.2,6,3.7,9.7C315.2,291.2,312.9,294.3,309.6,295.9L309.6,295.9z"/>
		<path id="path3759" inkscape:connector-curvature="0" class="st1" d="M278.1,267.5c-0.9-5.2-4.3-9.6-9.2-11.7
			c-4.9-2.1-10.4-1.6-14.9,1.3c0.9,5.2,4.3,9.6,9.2,11.7C268.1,271,273.7,270.5,278.1,267.5L278.1,267.5z"/>
		<path id="path3761" inkscape:connector-curvature="0" class="st1" d="M371.7,291.7c-2.5,5.3-7.6,8.9-13.4,9.6
			c-5.8,0.7-11.6-1.5-15.4-6c2.5-5.3,7.6-8.9,13.4-9.6C362.1,285,367.9,287.2,371.7,291.7z"/>
		<path id="path3763" inkscape:connector-curvature="0" class="st1" d="M87,172.2c5,2.7,11,2.6,16-0.1c5-2.7,8.2-7.8,8.6-13.5
			c-5-2.7-11-2.6-16,0.1C90.6,161.4,87.4,166.5,87,172.2L87,172.2z"/>
		<path id="path3765" inkscape:connector-curvature="0" class="st1" d="M83.7,155.3c4.2,2.2,9.2,2.2,13.3-0.1
			c4.1-2.3,6.8-6.5,7.2-11.2c-4.2-2.2-9.2-2.2-13.3,0.1C86.7,146.3,84,150.6,83.7,155.3L83.7,155.3z"/>
		<path id="path3767" inkscape:connector-curvature="0" class="st1" d="M81,141.1c3.9,2.1,8.5,2,12.4-0.1c3.9-2.1,6.4-6.1,6.7-10.5
			c-3.9-2.1-8.5-2-12.4,0.1C83.8,132.8,81.3,136.7,81,141.1L81,141.1z"/>
		<path id="path3769" inkscape:connector-curvature="0" class="st1" d="M80.4,128.3c3.2,1.7,7.1,1.7,10.4-0.1
			c3.2-1.8,5.3-5.1,5.6-8.7c-3.2-1.7-7.1-1.7-10.4,0.1C82.8,121.3,80.7,124.6,80.4,128.3L80.4,128.3z"/>
		<path id="path3771" inkscape:connector-curvature="0" class="st1" d="M125.8,141.4c-3.6,0.9-7.3,0-10.1-2.4
			c-2.7-2.5-4-6.2-3.4-9.8c3.6-0.9,7.3,0,10.1,2.4C125.1,134.1,126.3,137.8,125.8,141.4z"/>
		<path id="path3773" inkscape:connector-curvature="0" class="st1" d="M143.1,124.2c-2.7-2.5-3.9-6.2-3.2-9.8
			c0.7-3.6,3.1-6.7,6.5-8.1c2.7,2.5,3.9,6.2,3.2,9.8C148.9,119.8,146.5,122.8,143.1,124.2z"/>
		<path id="path3775" inkscape:connector-curvature="0" class="st1" d="M121.3,154.9c-4.2,1.1-8.6,0-11.8-2.8
			c-3.2-2.9-4.7-7.2-4-11.4c4.2-1.1,8.6,0,11.8,2.8C120.5,146.4,122,150.7,121.3,154.9z"/>
		<path id="path3777" inkscape:connector-curvature="0" class="st1" d="M158.1,177.8c4.7,1.5,9.9,0.5,13.7-2.7
			c3.8-3.2,5.8-8,5.2-12.9c-4.7-1.5-9.9-0.5-13.7,2.7C159.5,168,157.5,172.9,158.1,177.8L158.1,177.8z"/>
		<path id="path3779" inkscape:connector-curvature="0" class="st1" d="M152.2,164.9c4.5,1.4,9.4,0.5,13.1-2.6c3.6-3,5.5-7.7,5-12.4
			c-4.5-1.4-9.4-0.5-13.1,2.6C153.5,155.5,151.6,160.2,152.2,164.9L152.2,164.9z"/>
		<path id="path3781" inkscape:connector-curvature="0" class="st1" d="M147.7,150.5c4.2,1.3,8.7,0.4,12.1-2.4
			c3.4-2.8,5.1-7.1,4.6-11.4c-4.2-1.3-8.7-0.4-12.1,2.4C148.9,141.9,147.2,146.2,147.7,150.5z"/>
		<path id="path3783" inkscape:connector-curvature="0" class="st1" d="M145,136.3c3.5,1.1,7.3,0.4,10.2-2c2.8-2.3,4.3-6,3.9-9.6
			c-3.5-1.1-7.3-0.4-10.2,2C146,129.1,144.6,132.7,145,136.3L145,136.3z"/>
		<path id="path3785" inkscape:connector-curvature="0" class="st1" d="M190.7,194c4,2.6,9,2.9,13.3,1c4.3-2,7.4-6,8.1-10.7
			c-4-2.6-9-2.9-13.3-1C194.4,185.2,191.4,189.3,190.7,194z"/>
		<path id="path3787" inkscape:connector-curvature="0" class="st1" d="M187.6,167.3c3.2,1.8,7.1,2,10.4,0.3
			c3.3-1.7,5.5-4.9,5.9-8.5c-3.2-1.8-7.1-2-10.4-0.3C190.2,160.4,187.9,163.6,187.6,167.3L187.6,167.3z"/>
		<path id="path3789" inkscape:connector-curvature="0" class="st1" d="M189.6,179.8c3.3,2.2,7.4,2.4,11,0.7
			c3.6-1.7,6.2-5.2,6.8-9.3c-3.3-2.2-7.4-2.4-11-0.7C192.9,172.2,190.3,175.7,189.6,179.8L189.6,179.8z"/>
		<path id="path3791" inkscape:connector-curvature="0" class="st1" d="M185.3,157.3c3.6,0.8,7.3-0.3,10-2.8c2.6-2.6,3.8-6.3,3-9.9
			c-3.6-0.8-7.3,0.3-10,2.8C185.7,149.9,184.6,153.7,185.3,157.3L185.3,157.3z"/>
		<path id="path3793" inkscape:connector-curvature="0" class="st1" d="M79.2,177.8c-4.1,3.9-9.9,5.5-15.4,4.2
			c-5.5-1.3-10-5.3-11.9-10.6c4.1-3.9,9.9-5.5,15.4-4.2C72.8,168.4,77.3,172.4,79.2,177.8L79.2,177.8z"/>
		<path id="path3795" inkscape:connector-curvature="0" class="st1" d="M76.7,159.4c-3.4,3.3-8.3,4.6-12.9,3.5
			c-4.6-1.1-8.3-4.4-9.9-8.9c3.4-3.3,8.3-4.6,12.9-3.5C71.4,151.6,75.1,155,76.7,159.4z"/>
		<path id="path3797" inkscape:connector-curvature="0" class="st1" d="M76.2,141.1c-3.2,3-7.7,4.3-12,3.3c-4.3-1-7.8-4.1-9.2-8.3
			c3.2-3,7.7-4.3,12-3.3C71.3,133.9,74.7,137,76.2,141.1L76.2,141.1z"/>
		<path id="path3799" inkscape:connector-curvature="0" class="st1" d="M76.9,127.5c-2.7,2.5-6.4,3.6-10,2.7
			c-3.6-0.8-6.5-3.4-7.7-6.9c2.7-2.5,6.4-3.6,10-2.7C72.7,121.4,75.6,124,76.9,127.5L76.9,127.5z"/>
		<path id="path3801" inkscape:connector-curvature="0" class="st1" d="M81.5,231c4.4-3.1,6.9-8.3,6.7-13.7
			c-0.2-5.4-3.2-10.3-7.9-13c-4.4,3.1-6.9,8.3-6.7,13.7C73.9,223.4,76.8,228.3,81.5,231z"/>
		<path id="path3803" inkscape:connector-curvature="0" class="st1" d="M142.1,316.7c8.1,7.4,11.9,18.4,10,29.2
			c-1.9,10.8-9.1,19.9-19.2,24.3c-8.1-7.4-11.9-18.4-10-29.2C124.8,330.2,132,321.1,142.1,316.7L142.1,316.7z"/>
		<path id="path3805" inkscape:connector-curvature="0" class="st1" d="M140.4,252.8c-4.1,2.4-9.1,2.6-13.4,0.4
			c-4.2-2.1-7.1-6.3-7.7-11c4.1-2.4,9.1-2.6,13.4-0.4C137,243.9,139.9,248.1,140.4,252.8L140.4,252.8z"/>
		<path id="path3807" inkscape:connector-curvature="0" class="st1" d="M145.4,238.1c-3.7,2-8.2,1.9-11.9-0.2
			c-3.7-2.1-6.1-5.9-6.3-10.1c3.7-2,8.2-1.9,11.9,0.2C142.8,230.1,145.2,233.9,145.4,238.1L145.4,238.1z"/>
		<path id="path3809" inkscape:connector-curvature="0" class="st1" d="M223.6,44.2c0.7,3.8-0.7,7.7-3.7,10.4
			c-3,2.6-7.2,3.6-11.2,2.7c-0.7-3.8,0.7-7.7,3.7-10.4C215.4,44.3,219.6,43.3,223.6,44.2z"/>
		<path id="path3811" inkscape:connector-curvature="0" class="st1" d="M144.2,226.4c-3.6,0.7-7.3-0.6-9.8-3.2
			c-2.5-2.7-3.5-6.5-2.6-10c3.6-0.7,7.3,0.6,9.8,3.2C144.1,219.1,145.1,222.8,144.2,226.4L144.2,226.4z"/>
		<path id="path3813" inkscape:connector-curvature="0" class="st1" d="M121.8,184.5c3.6-4.5,9.2-6.8,14.9-6.3
			c5.7,0.6,10.7,4,13.4,9.1c-3.6,4.5-9.2,6.8-14.9,6.3C129.5,193,124.5,189.6,121.8,184.5L121.8,184.5z"/>
		<path id="path3815" inkscape:connector-curvature="0" class="st1" d="M123,164.8c4.1-2.7,9.4-3.1,13.9-1c4.5,2,7.7,6.2,8.4,11.1
			c-4.1,2.7-9.4,3.1-13.9,1.1C127,173.9,123.8,169.7,123,164.8z"/>
		<path id="path3817" inkscape:connector-curvature="0" class="st1" d="M128.4,146.5c3.7-0.5,7.4,0.9,10,3.8
			c2.5,2.9,3.5,6.8,2.6,10.5c-3.7,0.5-7.4-0.9-10-3.8C128.4,154.1,127.5,150.2,128.4,146.5L128.4,146.5z"/>
		<path id="path3821" inkscape:connector-curvature="0" class="st1" d="M129,144c2.9,0.9,6.1,0.3,8.5-1.7c2.4-2,3.6-5,3.2-8
			c-2.9-0.9-6.1-0.3-8.5,1.7C129.8,137.9,128.6,140.9,129,144z"/>
		<path id="path3823" inkscape:connector-curvature="0" class="st1" d="M120,210.1c-4.9,1.7-8.7,5.8-9.9,10.8
			c-1.3,5.1,0.1,10.4,3.7,14.2c4.9-1.7,8.7-5.8,9.9-10.8C124.9,219.3,123.5,214,120,210.1L120,210.1z"/>
		<path id="path3825" inkscape:connector-curvature="0" class="st1" d="M106.8,190c2.4,2.1,5.6,2.8,8.6,1.9c3-0.9,5.4-3.2,6.3-6.2
			c-2.4-2.1-5.6-2.8-8.6-1.9C110.1,184.7,107.7,187,106.8,190z"/>
		<path id="path3827" inkscape:connector-curvature="0" class="st1" d="M96.9,199.9c2.5,4.4,7.1,7.2,12.2,7.4
			c5.1,0.2,9.9-2.1,12.9-6.2c-2.5-4.4-7.1-7.2-12.2-7.4C104.7,193.4,99.9,195.8,96.9,199.9L96.9,199.9z"/>
		<path id="path3829" inkscape:connector-curvature="0" class="st1" d="M92.6,243.5c4.2,5.6,5.2,12.9,2.8,19.5
			c-2.4,6.5-8,11.4-14.8,12.9c-4.2-5.6-5.2-12.9-2.8-19.5C80.2,249.8,85.8,245,92.6,243.5L92.6,243.5z"/>
		<path id="path3831" inkscape:connector-curvature="0" class="st1" d="M176.1,200.9c-4.7-1.7-8.2-5.6-9.4-10.5
			c-1.1-4.9,0.3-10,3.7-13.6c4.7,1.7,8.2,5.6,9.4,10.5C181,192.2,179.6,197.3,176.1,200.9z"/>
		<path id="path4013" inkscape:connector-curvature="0" class="st1" d="M366,334.4c-8.9,4.9-14.6,14-15.3,24.2
			c-0.7,10.1,3.8,19.9,12,26c8.9-4.9,14.6-14,15.3-24.2C378.6,350.3,374.1,340.5,366,334.4L366,334.4z"/>
		<path id="path4015" inkscape:connector-curvature="0" class="st1" d="M484.6,319.3c-4.1-2.6-6.6-7.2-6.6-12.1
			c0-4.9,2.4-9.4,6.5-12.1c4.1,2.6,6.6,7.2,6.6,12.1C491.1,312.1,488.6,316.6,484.6,319.3z"/>
		<path id="path4017" inkscape:connector-curvature="0" class="st1" d="M230.2,138c3.9,4.4,4.7,10.1,2.3,15.2
			c-2.4,5.1-7.8,8.8-14.4,9.8c-3.9-4.4-4.7-10.1-2.3-15.2C218.2,142.8,223.6,139.1,230.2,138z"/>
		<path id="path4019" inkscape:connector-curvature="0" class="st1" d="M215.9,136.7c1,4.1-0.1,8.5-3.1,11.6
			c-2.9,3.1-7.2,4.5-11.4,3.7c-1-4.1,0.1-8.5,3.1-11.6C207.4,137.4,211.7,136,215.9,136.7L215.9,136.7z"/>
		<path id="path4021" inkscape:connector-curvature="0" class="st1" d="M178.5,117c0.9,3.6-0.1,7.3-2.6,10c-2.5,2.7-6.2,3.9-9.8,3.2
			c-0.9-3.6,0.1-7.3,2.6-10C171.2,117.5,174.9,116.3,178.5,117z"/>
		<path id="path4023" inkscape:connector-curvature="0" class="st1" d="M169,109c-0.2,3.8-2.2,7.2-5.4,9.1
			c-3.2,1.9-7.2,2.1-10.6,0.4c0.2-3.8,2.2-7.2,5.4-9.1C161.6,107.5,165.6,107.4,169,109z"/>
		<path id="path4025" inkscape:connector-curvature="0" class="st1" d="M160.9,101.2c-1.9,2.7-5,4.3-8.3,4.2c-3.3-0.1-6.3-1.8-8-4.7
			c1.9-2.7,5-4.3,8.3-4.2C156.1,96.6,159.2,98.4,160.9,101.2z"/>
		<path id="path4027" inkscape:connector-curvature="0" class="st1" d="M176.5,110.8c4.7-0.4,8.9-3.1,11.2-7.3
			c2.3-4.2,2.3-9.2,0-13.3c-4.7,0.4-8.9,3.1-11.2,7.3C174.3,101.7,174.3,106.7,176.5,110.8L176.5,110.8z"/>
		<path id="path4029" inkscape:connector-curvature="0" class="st1" d="M166.7,101.9c3.7-0.3,6.9-2.4,8.7-5.6
			c1.8-3.2,1.7-7.1,0-10.4c-3.7,0.3-6.9,2.4-8.7,5.6C164.9,94.8,164.9,98.7,166.7,101.9z"/>
		<path id="path4031" inkscape:connector-curvature="0" class="st1" d="M158.2,93.2c3.7-0.3,6.9-2.4,8.7-5.6c1.8-3.2,1.7-7.1,0-10.4
			c-3.7,0.3-6.9,2.4-8.7,5.6C156.4,86.1,156.4,90,158.2,93.2z"/>
		<path id="path4035" inkscape:connector-curvature="0" class="st1" d="M305.6,79c0.6,3.7,3,6.9,6.4,8.4c3.4,1.5,7.4,1.2,10.5-0.8
			c-0.6-3.7-3-6.9-6.4-8.4C312.7,76.6,308.8,76.9,305.6,79L305.6,79z"/>
		<path id="path4037" inkscape:connector-curvature="0" class="st1" d="M344,124.8c4.1-0.8,7.6-3.6,9.1-7.4c1.5-3.8,0.9-8-1.6-11.3
			c-4.1,0.8-7.6,3.6-9.1,7.4C340.9,117.3,341.5,121.5,344,124.8L344,124.8z"/>
		<path id="path4039" inkscape:connector-curvature="0" class="st1" d="M299.8,46.2c3,1.3,6.5,1,9.2-0.9c2.7-1.8,4.3-4.9,4.3-8.2
			c-3-1.3-6.5-1-9.2,0.9C301.3,39.8,299.7,42.9,299.8,46.2L299.8,46.2z"/>
		<path id="path4041" inkscape:connector-curvature="0" class="st1" d="M204,135.4c-1.9,2.7-5,4.3-8.3,4.2c-3.3-0.1-6.3-1.8-8-4.7
			c1.9-2.7,5-4.3,8.3-4.2C199.2,130.8,202.3,132.6,204,135.4z"/>
		<path id="path4043" inkscape:connector-curvature="0" class="st1" d="M63.9,185.9c0.7,4.1,3.5,7.5,7.3,9.1
			c3.8,1.6,8.2,1.2,11.6-1.2c-0.7-4.1-3.5-7.5-7.3-9.1C71.7,183.1,67.3,183.5,63.9,185.9z"/>
		<path id="path4045" inkscape:connector-curvature="0" class="st1" d="M197.5,116c0.9,5.2,4.4,9.5,9.2,11.5
			c4.8,2,10.4,1.5,14.7-1.5c-0.9-5.2-4.4-9.5-9.2-11.5C207.4,112.5,201.8,113,197.5,116L197.5,116z"/>
	</g>
</g>
</svg>
