<?xml version="1.0" encoding="utf-8"?>
<!-- Generator: Adobe Illustrator 26.0.2, SVG Export Plug-In . SVG Version: 6.00 Build 0)  -->
<svg version="1.1" id="Layer_1" xmlns="http://www.w3.org/2000/svg" xmlns:xlink="http://www.w3.org/1999/xlink" x="0px" y="0px"
	 viewBox="0 0 100 100" style="enable-background:new 0 0 100 100;" xml:space="preserve">
<style type="text/css">
	.st0{fill:#9B9359;}
</style>
<path class="st0" d="M54.97,34.61c-0.15,0.45-0.52,0.8-1.1,0.79c-6.71-0.09-10.4,8.92-8.99,14.98c1.41,6.06,6.96,9.2,12.44,10.11
	c5.05,0.84,11.82,0.04,14.3-5.4c2.08-4.58,1.69-11.47-1.03-15.69C67.17,34.12,60.36,34.56,54.97,34.61z"/>
<path class="st0" d="M84.39,44.9c0.07-0.62,0.13-1.51,0-2.57c-0.2-1.66-0.74-2.84-1.22-3.85c-0.23-0.49-0.94-1.95-2.44-3.85
	c-1.32-1.68-1.56-1.55-3.66-3.85c-2.41-2.63-2.39-3.12-3.66-3.85c-0.57-0.33-0.57-0.19-3.66-1.28c-2.43-0.86-2.74-0.99-3.66-1.28
	c-2.27-0.73-3.4-1.09-4.89-1.28c-1.32-0.17-1.27,0-4.89,0c-3.45,0-3.54-0.15-4.89,0c-1.57,0.18-2.67,0.55-4.89,1.28
	c-2.14,0.71-3.92,1.3-6.11,2.57c-1.81,1.05-3.09,2.08-3.66,2.57c-1.01,0.86-2.38,2.01-3.66,3.85c-1.18,1.69-1.69,3.13-2.44,5.13
	c-0.46,1.21-1.4,3.76-1.83,7.06c-0.33,2.52,0,3.66,0,7.7v8.98L16,63.57v8.28l3.66-0.5V68h9.77c0.28,0.29,0.71,0.74,1.22,1.28
	c0.69,0.73,0.87,0.95,1.22,1.28c0,0,0.68,0.64,1.63,1.28c1.2,0.81,19.58,0.99,44.78,0c0.88-0.03,2.36-0.24,3.66-1.28
	c0.6-0.48,1.02-1.02,1.22-1.28c0,0,0.78-1.01,1.3-2.34C85.1,65.35,85.28,56.7,84.39,44.9z M71.99,59.03
	c-4.57,5.06-12.55,5.08-18.48,3.17c-6.43-2.07-11.7-7.73-11.36-15.17c0.31-6.56,4.43-13.88,11.17-14.18
	c0.15-0.45,0.52-0.82,1.11-0.82c3.93-0.01,8.06-0.28,11.85,1.07c3.52,1.25,6.23,3.86,7.62,7.49C76.03,46.16,76.16,54.42,71.99,59.03
	z"/>
<polygon class="st0" points="29.43,34.63 29.43,25.65 39.2,25.64 "/>
</svg>
