<?xml version="1.0" standalone="no"?>
<!DOCTYPE svg PUBLIC "-//W3C//DTD SVG 20010904//EN"
 "http://www.w3.org/TR/2001/REC-SVG-20010904/DTD/svg10.dtd">
<svg version="1.0" xmlns="http://www.w3.org/2000/svg"
 width="1032.000000pt" height="1280.000000pt" viewBox="0 0 1032.000000 1280.000000"
 preserveAspectRatio="xMidYMid meet">
<metadata>
Created by potrace 1.15, written by Peter Selinger 2001-2017
</metadata>
<g transform="translate(0.000000,1280.000000) scale(0.100000,-0.100000)"
fill="#6e5f49" stroke="none">
<path d="M5766 12775 c-16 -62 -62 -141 -160 -274 -120 -162 -176 -270 -212
-407 -23 -87 -27 -119 -27 -264 -1 -176 10 -245 60 -405 29 -92 96 -240 147
-324 20 -33 36 -72 36 -89 0 -16 11 -50 25 -73 14 -25 25 -60 25 -81 0 -20 13
-77 30 -126 81 -243 102 -633 66 -1267 -5 -86 -25 -172 -40 -168 -4 1 -34 40
-68 85 -34 46 -125 162 -203 258 -217 270 -224 281 -290 470 -95 277 -90 347
46 606 44 85 76 154 71 154 -32 0 -171 -124 -244 -218 -39 -50 -43 -61 -65
-190 -13 -75 -27 -190 -30 -254 l-6 -117 56 -114 c32 -65 130 -225 232 -377
185 -277 243 -382 269 -491 25 -103 21 -163 -14 -226 -17 -30 -30 -67 -30 -87
0 -28 -6 -38 -40 -60 -35 -23 -39 -29 -34 -55 6 -27 -6 -43 -125 -174 -72 -80
-141 -152 -154 -160 -14 -9 -34 -41 -47 -76 -13 -36 -35 -72 -52 -86 -22 -18
-33 -43 -49 -102 -10 -43 -34 -107 -51 -143 -22 -45 -32 -80 -32 -115 -1 -76
-22 -70 -84 24 -48 73 -109 193 -276 546 -31 66 -91 177 -132 247 -122 205
-164 340 -164 526 0 176 48 317 135 398 60 56 68 83 33 106 -42 28 -65 30 -71
9 -2 -10 -24 -33 -48 -50 -84 -57 -100 -74 -148 -145 -68 -101 -79 -126 -96
-213 -8 -43 -20 -90 -26 -105 l-11 -28 -57 52 c-107 98 -240 188 -706 478
-153 95 -176 300 -65 588 29 76 38 88 133 180 263 255 402 365 607 482 234
133 286 200 278 359 -4 86 -26 151 -61 180 -17 14 -18 10 -38 -124 -12 -84
-33 -138 -67 -168 -23 -21 -180 -112 -402 -234 -276 -151 -295 -167 -503 -421
-195 -236 -238 -311 -252 -432 -3 -30 -13 -64 -21 -75 -14 -19 -15 -18 -47 20
-204 247 -232 294 -281 490 -93 371 -90 496 17 885 104 376 107 568 13 799
-24 60 -64 126 -72 118 -2 -2 4 -39 13 -83 10 -52 16 -131 16 -234 1 -181 -13
-249 -112 -522 -32 -90 -68 -193 -80 -230 -22 -65 -23 -66 -50 -58 -52 15 -86
38 -201 138 -161 141 -200 197 -215 307 -10 77 -35 156 -58 190 l-22 30 -7
-55 c-10 -86 -9 -222 2 -281 5 -30 26 -87 46 -128 31 -63 57 -94 190 -224 199
-196 216 -226 239 -442 9 -87 22 -134 78 -285 27 -74 60 -177 73 -228 16 -62
34 -106 53 -130 15 -21 55 -77 87 -127 91 -137 103 -152 181 -210 50 -38 88
-78 122 -128 27 -39 64 -86 82 -103 58 -53 374 -261 453 -297 55 -26 79 -43
90 -66 11 -20 36 -41 74 -60 132 -67 217 -149 379 -366 138 -186 221 -332 257
-451 l6 -21 -69 18 c-170 43 -430 48 -921 19 -345 -22 -559 0 -799 80 -153 51
-215 78 -294 133 -36 24 -102 59 -147 78 -140 58 -233 165 -282 324 -18 58
-22 95 -23 215 l0 145 43 71 c33 55 46 90 57 156 8 46 29 122 46 168 38 105
42 182 10 233 -56 90 -81 69 -81 -68 0 -99 -5 -110 -103 -248 -21 -30 -40 -70
-44 -93 -3 -21 -28 -87 -54 -145 -27 -58 -57 -139 -67 -179 l-18 -73 -28 33
c-46 55 -74 121 -120 287 -51 179 -78 250 -140 366 -24 45 -52 108 -61 141
-20 73 -49 119 -107 172 -102 94 -181 115 -237 62 -28 -25 -26 -35 8 -43 40
-8 107 -69 145 -129 56 -89 95 -200 156 -444 71 -284 86 -330 140 -421 28 -47
44 -88 49 -124 6 -48 18 -69 96 -173 107 -142 271 -311 375 -383 91 -65 250
-144 345 -173 45 -14 77 -30 89 -46 10 -13 40 -33 65 -44 25 -10 57 -30 71
-43 18 -17 44 -26 98 -34 74 -10 126 -33 120 -53 -2 -6 -127 -80 -278 -165
-151 -85 -370 -212 -486 -283 -118 -71 -228 -130 -249 -134 -21 -4 -93 -25
-161 -46 -235 -73 -345 -76 -549 -16 -66 20 -129 36 -140 36 -11 0 -67 41
-125 91 -143 124 -218 179 -310 228 -86 46 -108 49 -140 23 l-22 -18 28 -27
c15 -15 52 -42 83 -59 35 -20 117 -94 221 -198 101 -101 187 -178 222 -198
156 -92 359 -121 608 -88 92 13 333 58 383 73 15 4 13 -5 -13 -56 -17 -34 -55
-132 -86 -219 -85 -241 -131 -328 -216 -407 -39 -36 -105 -88 -145 -115 -74
-49 -76 -50 -153 -50 -56 0 -81 -4 -90 -15 -10 -12 -6 -18 22 -35 77 -47 187
-47 279 0 157 80 271 170 336 268 48 72 80 140 169 352 98 232 135 293 255
417 85 87 161 134 434 271 428 214 552 255 855 287 161 18 420 19 545 4 166
-20 322 -77 385 -141 39 -38 199 -268 253 -363 84 -148 143 -321 167 -495 8
-58 7 -99 -5 -185 -8 -60 -26 -213 -40 -340 -36 -316 -61 -468 -87 -518 -18
-36 -22 -68 -29 -213 -9 -191 -15 -272 -65 -766 -19 -191 -41 -441 -50 -555
-21 -282 -21 -714 0 -973 29 -362 38 -414 121 -678 19 -63 42 -155 50 -205 16
-101 19 -314 6 -418 -8 -64 -13 -73 -98 -185 -131 -173 -151 -189 -323 -257
-206 -81 -245 -93 -340 -106 -165 -23 -216 -34 -310 -66 -181 -61 -292 -116
-440 -216 -102 -70 -165 -129 -334 -317 -195 -216 -304 -293 -470 -327 -60
-12 -81 -13 -92 -4 -18 14 -29 6 -20 -16 11 -29 111 -67 195 -72 92 -7 221 16
290 52 86 43 227 162 352 296 157 170 213 224 267 261 55 38 133 65 197 69
l50 3 3 -272 2 -273 -31 -17 c-62 -35 -66 -40 -44 -57 45 -35 94 -31 145 11
51 44 73 98 72 179 -1 59 4 84 34 158 28 69 35 99 33 144 -2 54 -1 57 42 98
39 37 64 48 204 95 88 29 216 75 285 103 184 73 460 208 502 246 20 17 62 68
94 111 31 44 68 87 80 95 l24 15 0 -69 c0 -39 -7 -146 -16 -238 -40 -419 8
-582 265 -892 47 -57 115 -138 150 -180 102 -123 168 -227 205 -324 16 -42 17
-54 6 -93 -15 -51 -5 -70 28 -59 31 9 61 65 68 126 19 167 -74 377 -267 600
-27 31 -49 58 -49 60 0 2 53 4 118 4 92 0 142 6 233 28 80 18 144 27 204 27
87 0 88 0 121 -35 45 -48 58 -46 52 10 -4 30 -18 63 -43 99 -30 44 -43 55 -73
60 -66 11 -147 6 -258 -14 -60 -11 -137 -20 -171 -20 -55 0 -68 4 -107 33 -24
17 -62 44 -84 60 -54 37 -82 96 -82 175 0 74 10 124 61 306 22 77 42 170 46
208 3 37 9 68 12 68 3 0 53 -48 111 -108 61 -63 138 -130 185 -161 44 -29 206
-115 360 -192 154 -77 309 -155 343 -174 35 -19 77 -35 92 -35 40 0 162 -26
240 -52 132 -42 512 -239 572 -295 14 -14 47 -64 72 -112 59 -111 90 -150 106
-134 7 6 18 62 25 125 12 107 12 115 -7 156 -12 25 -55 76 -101 120 -44 42
-100 96 -123 120 -24 23 -52 42 -63 42 -11 0 -64 30 -117 66 -56 38 -126 76
-164 89 -81 27 -108 41 -137 68 -33 29 -29 37 20 37 63 0 173 31 322 90 148
58 298 100 359 100 22 0 84 -7 136 -15 122 -19 120 -19 120 8 0 45 -42 88
-120 122 -39 17 -66 20 -210 19 l-165 0 -215 -57 c-331 -86 -472 -94 -607 -36
-26 11 -67 23 -92 26 -29 4 -67 20 -104 44 -33 22 -81 43 -115 50 -69 15 -103
44 -206 179 -141 185 -271 416 -431 762 -175 381 -284 770 -327 1168 -17 164
-17 746 0 940 50 553 106 988 178 1370 82 438 229 972 279 1015 13 11 35 43
48 70 26 51 75 104 137 146 19 13 60 47 91 76 42 40 84 66 166 103 278 124
469 157 793 139 213 -13 316 -30 384 -63 62 -31 292 -224 349 -292 22 -27 61
-71 87 -99 52 -56 67 -87 109 -227 38 -122 52 -151 110 -213 26 -27 62 -70 81
-94 48 -60 206 -192 249 -207 58 -21 185 -18 231 6 42 22 70 63 70 105 0 23
-3 25 -27 19 -16 -4 -38 -11 -51 -15 -59 -22 -94 -11 -184 56 -163 123 -249
249 -270 398 -6 41 -8 82 -5 91 6 15 10 15 44 1 118 -50 351 -80 548 -72 207
9 360 40 505 103 56 24 78 28 160 29 126 0 187 -20 302 -98 85 -58 94 -68 135
-142 54 -98 83 -125 140 -125 87 0 94 22 29 95 -24 28 -66 97 -93 155 -27 58
-58 112 -69 122 -10 9 -75 46 -144 83 -69 37 -131 72 -137 77 -22 18 43 87
106 115 31 14 94 43 140 65 108 51 253 104 361 130 63 16 119 21 220 22 152 1
170 -5 210 -68 26 -42 37 -45 46 -11 17 69 -34 150 -121 194 -157 78 -366 67
-660 -36 -71 -25 -165 -56 -207 -69 -97 -29 -140 -51 -236 -120 -112 -81 -161
-103 -254 -115 -48 -6 -100 -20 -129 -35 -119 -60 -467 -85 -622 -44 -92 24
-300 114 -399 171 -39 23 -96 68 -128 100 -39 39 -66 59 -82 59 -28 0 -54 17
-123 78 -61 55 -127 86 -315 147 -156 50 -240 83 -240 94 0 4 14 15 30 25 50
29 160 144 255 266 209 269 290 348 420 413 108 53 191 70 429 87 125 9 153
14 177 32 24 18 48 23 147 28 115 6 118 6 179 -23 68 -32 183 -46 285 -33 48
6 61 13 116 64 55 52 85 103 68 119 -3 3 -14 -1 -23 -9 -10 -8 -40 -24 -68
-34 -64 -24 -212 -25 -266 -1 -41 18 -99 64 -99 78 0 5 24 21 53 35 124 63
240 167 384 345 51 64 67 78 100 84 70 13 83 43 31 75 -44 27 -85 25 -144 -6
-58 -31 -98 -67 -166 -152 -29 -37 -81 -83 -122 -111 -39 -27 -103 -75 -141
-107 -148 -124 -321 -173 -735 -209 -96 -8 -193 -15 -216 -15 l-41 0 33 124
c55 203 110 353 184 501 82 164 113 206 184 242 44 23 66 28 161 31 75 3 140
-1 205 -13 174 -31 165 -31 209 4 21 17 44 44 49 59 l10 28 -77 1 c-60 0 -99
7 -186 36 -134 44 -195 54 -260 46 -27 -3 -52 -5 -54 -3 -9 8 46 78 108 136
79 76 212 166 302 207 120 55 364 91 614 91 61 0 170 5 244 10 144 11 156 17
180 81 15 43 3 49 -69 34 -104 -23 -176 -19 -278 15 -84 28 -103 30 -232 30
-156 0 -237 -13 -383 -62 -216 -71 -395 -180 -545 -330 -102 -101 -148 -170
-242 -357 -39 -79 -96 -184 -127 -233 -73 -118 -135 -253 -221 -478 -90 -237
-138 -346 -196 -444 -71 -120 -114 -166 -192 -206 -52 -26 -92 -59 -164 -133
-52 -54 -108 -107 -125 -117 -51 -32 -195 -86 -305 -114 -173 -46 -340 -103
-425 -147 -44 -22 -106 -47 -138 -55 -74 -18 -113 -38 -216 -113 -46 -33 -99
-66 -117 -73 -21 -7 -38 -22 -45 -40 -14 -34 -62 -88 -78 -88 -29 0 1 166 48
260 39 79 76 132 187 272 179 224 246 345 341 618 24 69 57 152 73 185 108
218 172 825 131 1239 -15 158 -3 269 41 396 72 204 173 342 298 405 71 36 126
41 208 20 64 -17 71 -17 119 -1 57 19 126 74 149 118 16 30 16 31 -8 25 -68
-17 -133 -18 -243 -2 -66 9 -122 18 -124 21 -9 9 85 96 149 139 92 61 171 98
302 143 108 38 115 39 143 24 67 -34 183 -53 214 -33 33 21 -22 106 -93 143
-31 17 -64 23 -137 26 -126 6 -216 -19 -369 -101 -63 -33 -145 -76 -182 -94
-43 -22 -78 -48 -99 -76 -18 -23 -86 -91 -151 -151 -94 -86 -126 -123 -153
-175 -19 -37 -55 -90 -80 -118 -25 -28 -45 -55 -45 -60 0 -23 -23 -84 -36 -98
-28 -28 -40 -16 -57 54 -20 85 -74 207 -174 392 -124 230 -173 365 -173 480 0
30 -5 72 -11 94 -15 56 -15 49 20 260 51 306 73 367 155 443 25 23 46 50 46
59 0 9 13 39 28 67 43 76 46 100 19 132 l-24 27 -7 -28z"/>
</g>
</svg>
