<?xml version="1.0" encoding="utf-8"?>
<!-- Generator: Adobe Illustrator 27.1.1, SVG Export Plug-In . SVG Version: 6.00 Build 0)  -->
<svg version="1.1"
	 id="svg2" xmlns:dc="http://purl.org/dc/elements/1.1/" xmlns:inkscape="http://www.inkscape.org/namespaces/inkscape" xmlns:cc="http://creativecommons.org/ns#" xmlns:sodipodi="http://sodipodi.sourceforge.net/DTD/sodipodi-0.dtd" xmlns:ns1="http://sozi.baierouge.fr" xmlns:rdf="http://www.w3.org/1999/02/22-rdf-syntax-ns#"
	 xmlns="http://www.w3.org/2000/svg" xmlns:xlink="http://www.w3.org/1999/xlink" x="0px" y="0px" viewBox="0 0 32.8 41.3"
	 style="enable-background:new 0 0 32.8 41.3;" xml:space="preserve">
<style type="text/css">
	.st0{fill:none;}
	.st1{fill-rule:evenodd;clip-rule:evenodd;fill:#866D2F;}
	.st2{fill-rule:evenodd;clip-rule:evenodd;fill:#7C652C;}
	.st3{fill-rule:evenodd;clip-rule:evenodd;fill:#625127;}
	.st4{fill-rule:evenodd;clip-rule:evenodd;fill:#A2843A;}
	.st5{clip-path:url(#SVGID_00000129926749271613176860000007912129610168582033_);}
	.st6{filter:url(#Adobe_OpacityMaskFilter);}
	
		.st7{clip-path:url(#SVGID_00000152251583055865996720000010672507773414779020_);fill:url(#path44_00000139984373519237324400000016710746677365600918_);}
	.st8{mask:url(#mask38_00000094579908460472718170000006588476904897165209_);}
	.st9{fill-rule:evenodd;clip-rule:evenodd;fill:url(#path54_00000072277471720357043770000005863647428505613235_);}
	.st10{clip-path:url(#SVGID_00000111157402538289862160000002684412237965731761_);}
	.st11{filter:url(#Adobe_OpacityMaskFilter_00000068641882698769942770000000179914080779883178_);}
	
		.st12{clip-path:url(#SVGID_00000000212681431752816760000006326375690198921630_);fill:url(#path86_00000104670882050906334430000017327934737000142260_);}
	.st13{mask:url(#mask80_00000078032172697828220630000000876612721877021080_);}
	.st14{fill-rule:evenodd;clip-rule:evenodd;fill:url(#path96_00000163072146616147890670000002657197806942338982_);}
	.st15{fill-rule:evenodd;clip-rule:evenodd;fill:#947835;}
	.st16{fill-rule:evenodd;clip-rule:evenodd;fill:#42361A;}
	.st17{fill-rule:evenodd;clip-rule:evenodd;fill:#AD8E46;}
	.st18{fill-rule:evenodd;clip-rule:evenodd;fill:#CDB76A;}
	.st19{fill-rule:evenodd;clip-rule:evenodd;fill:#AA9346;}
	.st20{fill-rule:evenodd;clip-rule:evenodd;fill:#D8B55C;}
	.st21{fill-rule:evenodd;clip-rule:evenodd;fill:#C4A24D;}
	.st22{fill-rule:evenodd;clip-rule:evenodd;fill:#A38741;}
	.st23{fill-rule:evenodd;clip-rule:evenodd;fill:#69582A;}
</style>
<line class="st0" x1="31.3" y1="2.8" x2="1.4" y2="3.2"/>
<line class="st0" x1="31.3" y1="2.4" x2="1.4" y2="2.8"/>
<path id="path320_00000166673756198664889190000017020706748812277143_" inkscape:connector-curvature="0" class="st1" d="M29.8,2.1
	c0.1,1.1-0.1,1.7-0.6,1.8c-0.2,0.1-0.5,0.1-0.9,0.1l-0.6-0.1c-6,0-10,0-12,0L3.5,4L3.3,0.9l4.5,0c3.3,0,5.7,0,7.3,0.1
	c2.5,0.1,5.6,0.1,9.4,0c0.5,0,1.8-0.1,3.6-0.4l0.8,0.3C29.5,1.2,29.8,1.6,29.8,2.1"/>
<path id="path322_00000074426403936647443910000014515323742475360932_" inkscape:connector-curvature="0" class="st2" d="M24.5,1
	l-1.1,0.1c0.2,0,0.4,0,0.7,0c0.9,0.1,1.6,0.1,2.1,0.1L29,1l-0.3,0.1c-0.4,0.2-1.1,0.2-2.1,0.2c-0.8-0.1-1.9,0-3.3,0
	c-1.6,0.1-2.7,0.1-3.3,0.1L6.8,1.2L8,1.3l-3.7,0c-0.6,0-0.9,0-1,0l-0.1,0L3.3,0.9l4.5,0c3.3,0,5.7,0,7.3,0.1
	C17.5,1.1,20.7,1.1,24.5,1z"/>
<path id="path326_00000011724095147151024280000018388777173975152020_" inkscape:connector-curvature="0" class="st2" d="M19.7,3
	L20,3l-0.5,0c-0.2,0-0.5,0.1-1,0.1h-1l0.8,0l-0.5,0l-5.2,0c-2.3,0-4.6,0-6.9-0.1C6.2,3,6.4,2.9,6.3,2.8c1.1,0,1.9,0,2.4-0.1l-4-0.3
	c-0.3,0-0.5,0-0.7,0c-0.3,0-0.5,0-0.7,0.1l-0.1-1l0.3-0.1c0.4,0.1,1,0.2,1.5,0.2l1,0.1C5.4,1.7,4.8,1.8,4.3,1.9
	c0.9,0.3,1.8,0.4,2.7,0.4c0.8-0.1,1.6-0.1,2.2-0.1c0.5,0,1.3,0,2.5,0.1l-0.4-0.2c0.2,0,0.5,0,1,0h-0.1c0.2,0.1,0.7,0.2,1.4,0.2
	l1.1,0l-0.5,0.1c-0.9,0.1-1.4,0.2-1.5,0.2l-0.5,0.1L11,3c1.1,0.1,3,0,5.8-0.2C16.9,2.8,19.7,3,19.7,3z"/>
<path id="path334_00000139972125691738752690000005375084309800397972_" inkscape:connector-curvature="0" class="st3" d="M20,3
	l-0.3,0l-3.5-0.2l0.2,0c0.8-0.1,1.3-0.1,1.6-0.1c1.3-0.1,2.3-0.1,2.9,0l0.3,0l0.1,0.1l2.3,0.1C25,3,26,3,26.4,3
	c0.2,0,0.5-0.1,0.8-0.2c-0.3,0.1-0.5,0.1-0.7,0.2l2.1,0.1c0.2,0,0.6,0.1,1.1,0.1c-0.1,0.1-0.1,0.1-0.1,0.1c-0.4,0-0.7,0-0.8,0.1
	L28,3.5l-1.4,0c-0.6,0-1.6,0-2.9,0.2c-0.9,0-1.5,0-2,0l1.4,0.1c0.8,0,1.4,0,1.8,0.1c-0.2,0.1-0.5,0.1-0.9,0l-15-0.3
	c-0.4,0-1.4,0-3.1-0.1l-1.8,0c-0.3,0-0.5,0-0.5,0C4.2,3.2,4.4,3,4.4,2.9C4.1,2.8,4,2.7,4.2,2.7h1.1c0.4,0,0.7,0,0.9-0.1H5.8L3.7,2.5
	L3.4,2.6V2.4c0.1-0.1,0.4-0.1,0.7-0.1c0.2,0,0.4,0,0.7,0l4,0.3C8.2,2.7,7.4,2.8,6.3,2.8c0,0.1-0.2,0.2-0.6,0.4
	c2.3,0.1,4.6,0.1,6.9,0.1l5.2,0l0.5,0h0.8c0.2,0,0.6,0,1.1,0l2.7,0c0.6,0,1.5-0.1,2.8-0.2C25.7,3.1,20,3,20,3z"/>
<path id="path350_00000157995764979528880120000002863862958018938772_" inkscape:connector-curvature="0" class="st4" d="M20.1,1.5
	c0.6,0,1.7,0,3.3-0.1c1.4-0.1,2.5-0.1,3.3,0l0.1,0.1L28,1.6c-0.1,0.1-0.3,0.1-0.5,0.1l-6.2,0.2c-1,0.1-2.9,0-5.8-0.2L13,1.6
	c-0.9,0-1.9,0-2.8-0.1L6.8,1.2L20.1,1.5z"/>
<g id="g10" transform="matrix(1.25 0 0 -1.25 0 49.266)">
	<g id="g12">
		<g id="g14">
			<g>
				<defs>
					<polyline id="SVGID_1_" points="24.6,36.3 24.7,7.3 1.5,7 2.4,37.4 					"/>
				</defs>
				<clipPath id="SVGID_00000174577252483441474740000005704531940480123272_">
					<use xlink:href="#SVGID_1_"  style="overflow:visible;"/>
				</clipPath>
				<g id="g16" style="clip-path:url(#SVGID_00000174577252483441474740000005704531940480123272_);">
					<g id="g22" transform="matrix(-.03496 -.7992 -.80024 .01272 .00027199 39.8)">
						<defs>
							<filter id="Adobe_OpacityMaskFilter" filterUnits="userSpaceOnUse">
								<feColorMatrix  type="matrix" values="1 0 0 0 0  0 1 0 0 0  0 0 1 0 0  0 0 0 1 0"/>
							</filter>
						</defs>
						<mask maskUnits="userSpaceOnUse" id="mask38_00000094579908460472718170000006588476904897165209_">
							<g id="g40_00000125567452284385548580000013435399431981879716_" class="st6">
								<g>
									<defs>
										<rect id="SVGID_00000004546361048567796980000016150226605762020753_" x="-48.7" y="-40.7" width="46.7" height="32"/>
									</defs>
									<clipPath id="SVGID_00000075156531862914993970000000456068486284716181_">
										<use xlink:href="#SVGID_00000004546361048567796980000016150226605762020753_"  style="overflow:visible;"/>
									</clipPath>
									<g id="g42_00000064347472251022705300000013042787817932646574_">
										
											<linearGradient id="path44_00000169530992227888845490000008082168748839560832_" gradientUnits="userSpaceOnUse" x1="61.8317" y1="-6.0231" x2="91.5605" y2="-6.0231" gradientTransform="matrix(-0.9986 8.731308e-02 3.180971e-02 0.9986 36.9935 -1.6161)">
											<stop  offset="0" style="stop-color:#FFFFFF;stop-opacity:0.6078"/>
											<stop  offset="0.9647" style="stop-color:#FFFFFF;stop-opacity:0"/>
											<stop  offset="1" style="stop-color:#FFFFFF;stop-opacity:0"/>
										</linearGradient>
										
											<path id="path44_00000168818075481324168640000014155758092986644122_" inkscape:connector-curvature="0" style="clip-path:url(#SVGID_00000075156531862914993970000000456068486284716181_);fill:url(#path44_00000169530992227888845490000008082168748839560832_);" d="
											M-40.9-0.7l-0.7-46.7l32-1.4l0.7,46.7C-8.9-2.1-40.9-0.7-40.9-0.7z"/>
									</g>
								</g>
							</g>
						</mask>
						<g id="g46" class="st8">
							
								<linearGradient id="path54_00000047778376212160940370000002561719504934936502_" gradientUnits="userSpaceOnUse" x1="1511.5599" y1="374.3464" x2="1541.2887" y2="374.3464" gradientTransform="matrix(-4.370000e-02 -0.999 -1.0003 1.590000e-02 435.8418 1523.3645)">
								<stop  offset="0" style="stop-color:#000000"/>
								<stop  offset="1" style="stop-color:#000000"/>
							</linearGradient>
							
								<path id="path54" inkscape:connector-curvature="0" style="fill-rule:evenodd;clip-rule:evenodd;fill:url(#path54_00000047778376212160940370000002561719504934936502_);" d="
								M16.7,1.3L-6.5,1l0.9,30.4l11,6.2l11.2-7.3C16.6,30.2,16.7,1.3,16.7,1.3z"/>
						</g>
					</g>
				</g>
			</g>
		</g>
		<g id="g56">
			<g>
				<defs>
					<polyline id="SVGID_00000176722601250890323890000004533020822654056342_" points="24.6,36.6 24.7,7.6 1.5,7.4 2.4,37.7 					
						"/>
				</defs>
				<clipPath id="SVGID_00000160911554304125837790000016543826569203891119_">
					<use xlink:href="#SVGID_00000176722601250890323890000004533020822654056342_"  style="overflow:visible;"/>
				</clipPath>
				<g id="g58" style="clip-path:url(#SVGID_00000160911554304125837790000016543826569203891119_);">
					<g id="g64" transform="matrix(-.7996 -.02528 -.04864 .79888 .00010062 39.8)">
						<defs>
							<filter id="Adobe_OpacityMaskFilter_00000042694367180786076990000010518669398444891522_" filterUnits="userSpaceOnUse">
								<feColorMatrix  type="matrix" values="1 0 0 0 0  0 1 0 0 0  0 0 1 0 0  0 0 0 1 0"/>
							</filter>
						</defs>
						<mask maskUnits="userSpaceOnUse" id="mask80_00000078032172697828220630000000876612721877021080_">
							
								<g id="g82_00000026162452254265160290000013866564660540371646_" style="filter:url(#Adobe_OpacityMaskFilter_00000042694367180786076990000010518669398444891522_);">
								<g>
									<defs>
										<rect id="SVGID_00000183210756830102795670000001104869413651500934_" x="-3.8" y="9.7" width="32.8" height="48.4"/>
									</defs>
									<clipPath id="SVGID_00000075144269766737423650000006781396265591430066_">
										<use xlink:href="#SVGID_00000183210756830102795670000001104869413651500934_"  style="overflow:visible;"/>
									</clipPath>
									<g id="g84_00000026149384719309718000000001182967001878790846_">
										
											<linearGradient id="path86_00000059267781026626878100000017293560638973147016_" gradientUnits="userSpaceOnUse" x1="30.9899" y1="-69.5928" x2="43.6459" y2="-69.5928" gradientTransform="matrix(0.9962 6.316701e-02 0.1214 -0.9962 2.2485 -36.9629)">
											<stop  offset="0" style="stop-color:#FFFFFF;stop-opacity:0.6078"/>
											<stop  offset="0.9647" style="stop-color:#FFFFFF;stop-opacity:0"/>
											<stop  offset="1" style="stop-color:#FFFFFF;stop-opacity:0"/>
										</linearGradient>
										
											<path id="path86_00000023971523703718449190000014595477888593454527_" inkscape:connector-curvature="0" style="clip-path:url(#SVGID_00000075144269766737423650000006781396265591430066_);fill:url(#path86_00000059267781026626878100000017293560638973147016_);" d="
											M27.5,58.7l-32.8-1l2.9-48.4l32.8,1L27.5,58.7z"/>
									</g>
								</g>
							</g>
						</mask>
						<g id="g88" class="st13">
							
								<linearGradient id="path96_00000079463224928390504950000009366948587388585355_" gradientUnits="userSpaceOnUse" x1="1943.3099" y1="-1022.8048" x2="1955.9659" y2="-1022.8048" gradientTransform="matrix(-0.9995 -3.160000e-02 -6.080000e-02 0.9986 1852.9227 1110.0096)">
								<stop  offset="0" style="stop-color:#000000"/>
								<stop  offset="1" style="stop-color:#000000"/>
							</linearGradient>
							
								<path id="path96" inkscape:connector-curvature="0" style="fill-rule:evenodd;clip-rule:evenodd;fill:url(#path96_00000079463224928390504950000009366948587388585355_);" d="
								M24.2,9.2L1,8.9L2,39.3l11,6.2l11.2-7.3C24.2,38.2,24.2,9.2,24.2,9.2z"/>
						</g>
					</g>
				</g>
			</g>
		</g>
		<path id="path102_00000146485673227448435240000003766522946655792309_" inkscape:connector-curvature="0" class="st15" d="
			M24.7,38.1c0.5-0.3,0.9-0.5,1.2-0.4l0.2-0.4c0.1-0.3,0.1-0.7-0.2-1c-0.3-0.5-0.6-0.7-0.8-0.7c-0.9,0.6-1.5,1-1.8,1.1"/>
		<path id="path104_00000029031253617172523880000011488650104879522965_" inkscape:connector-curvature="0" class="st2" d="
			M24.2,36.6"/>
		<path id="path104_00000018920706867490262210000009954583413185128868_" inkscape:connector-curvature="0" class="st2" d="
			M23.3,38.3l2.8-1.6v-0.1l-1.6,0.8l1.4-1.2v-0.1l-0.2-0.2l-0.4,0.2c-0.1,0.1-0.5,0.4-1.2,0.9l-0.5,0.4"/>
		<path id="path106_00000181771462791597405500000001973371841488349857_" inkscape:connector-curvature="0" class="st3" d="
			M24.2,36.6"/>
		<path id="path106_00000057827629364253456690000000001040608095372179_" inkscape:connector-curvature="0" class="st3" d="
			M23.6,37.6l0.5-0.4c0.7-0.6,1.1-0.9,1.2-0.9l0.4-0.2l-0.3-0.4l-0.6,0.4l-1,0.4"/>
		<path id="path112_00000022531653517020666600000007556423578462267067_" inkscape:connector-curvature="0" class="st16" d="
			M23.8,36.5l1-0.4l0.6-0.4c-0.1-0.1-0.2-0.2-0.3-0.2c-0.9,0.6-1.5,1-1.8,1.1"/>
		<path id="path114_00000126293110082125299220000010977924179934001085_" inkscape:connector-curvature="0" class="st4" d="
			M22.2,39.3l0.2-0.3"/>
		<path id="path114_00000134230679468358432900000001320165168695991690_" inkscape:connector-curvature="0" class="st4" d="
			M24,38.5"/>
		<path id="path118" inkscape:connector-curvature="0" class="st4" d="M23.6,38.5l-0.3,0.2l0.4-0.1l0.5-0.4c0.5-0.3,1-0.6,1.6-0.8
			l0.3-0.1l0.1-0.3l-0.4,0.2l-0.1,0.1C24.7,37.8,24.1,38.2,23.6,38.5z"/>
		<path id="path124_00000146499288567715609920000013535989832380942246_" inkscape:connector-curvature="0" class="st15" d="
			M1.8,35.5c-0.2,0-0.4,0.2-0.7,0.7c-0.2,0.3-0.3,0.7-0.2,1l0.2,0.4c0.3-0.1,0.7,0.1,1.2,0.4"/>
		<path id="path126" inkscape:connector-curvature="0" class="st2" d="M1.8,37.4C1.6,37.3,1.3,37.2,1,37l-0.2-0.1V37l0.4,0.3
			l0.2,0.1l0.7,0.2C2.1,37.6,1.8,37.4,1.8,37.4z"/>
		<path id="path128_00000084492172268611548580000010780450975322719666_" inkscape:connector-curvature="0" class="st2" d="
			M2.9,37.2c-0.7-0.6-1.1-0.9-1.2-0.9l-0.4-0.2l-0.1,0.2l0,0.1l1.2,1l0.2,0.2c0,0-1-0.6-1-0.6c-0.2-0.1-0.3-0.2-0.5-0.2l0,0.1h0
			c0.2,0.1,0.6,0.3,1.3,0.7"/>
		<path id="path128_00000101074844784162511180000000905445705274742204_" inkscape:connector-curvature="0" class="st2" d="
			M2.9,36.6L2.9,36.6"/>
		<path id="path130_00000088849655833198371440000014614265191874717352_" inkscape:connector-curvature="0" class="st3" d="
			M2.2,36.1l-0.6-0.4l-0.3,0.4l0.4,0.2c0.1,0.1,0.5,0.4,1.2,0.9"/>
		<path id="path130_00000029763470263547236770000002191112720670085782_" inkscape:connector-curvature="0" class="st3" d="
			M2.8,36.6L2.8,36.6"/>
		<path id="path136_00000010299402620543121410000006391152126475342496_" inkscape:connector-curvature="0" class="st16" d="
			M1.8,35.5c-0.1,0-0.1,0.1-0.3,0.2l0.6,0.4"/>
		<path id="path138_00000018948468460120551990000003454384756476097950_" inkscape:connector-curvature="0" class="st4" d="M3,38.5
			"/>
		<path id="path142_00000058551793055714826330000005878596918347743406_" inkscape:connector-curvature="0" class="st4" d="
			M1.4,37.4c0,0-0.6-0.3-0.6-0.3L1,37.4l0.3,0.1c0.6,0.2,1.1,0.5,1.6,0.8c0.3,0.2,0.5,0.3,0.5,0.4"/>
		<path id="path144" inkscape:connector-curvature="0" class="st17" d="M24.2,37.6l-0.9,1.2l0.3,0.2c0.3,0.1,0.6,0.2,1,0.2
			c0.6,0,1.1-0.1,1.6-0.4l-0.4-1L24.2,37.6z"/>
		<path id="path146" inkscape:connector-curvature="0" class="st18" d="M23.9,38.8l0.3,0.1c0.2,0.1,0.5,0.1,0.7,0
			c0.6-0.1,0.9-0.1,0.9-0.2c0-0.2-0.3-0.2-1-0.2c-0.3,0-0.5,0.1-0.7,0.2L23.9,38.8z"/>
		<path id="path148" inkscape:connector-curvature="0" class="st19" d="M24.4,38.9l-0.1,0L24.4,38.9l0.3,0.1l0.2-0.1H24.4z"/>
		<path id="path150" inkscape:connector-curvature="0" class="st19" d="M24.9,38.7l0.5-0.1c-0.5,0-0.9,0-1,0.1H24.9z"/>
		<path id="path152" inkscape:connector-curvature="0" class="st19" d="M24.7,38.9l0.2-0.1l0.2,0c0,0,0-0.1,0-0.1
			c-0.1-0.1-0.1-0.1-0.2-0.1c-0.1,0-0.2,0-0.2,0.1C24.6,38.8,24.6,38.9,24.7,38.9z"/>
		<path id="path154" inkscape:connector-curvature="0" class="st20" d="M23.4,38.7c0.8-0.1,1.3-0.2,1.4-0.2h0.3l0.4,0.1
			c0.1,0,0.2,0.1,0.4,0.1c0.2,0.1,0.3,0.1,0.3,0c-0.2-0.2-0.4-0.3-0.5-0.3l-0.3,0h-0.3l-0.3,0l-0.6,0c-0.1,0-0.3,0.1-0.6,0.2
			C23.6,38.6,23.4,38.7,23.4,38.7z"/>
		<path id="path156" inkscape:connector-curvature="0" class="st1" d="M26.2,38.7l-0.2-1.4c-0.1-1.1-0.2-2.3-0.2-3.4
			c0-1.3-0.2-4.9-0.4-10.7c-0.1-2-0.1-4.9-0.2-8.8c0-2.5,0.1-4.7,0.2-6.5l0-1c-0.2-0.3-0.7-0.5-1.4-0.4c-0.5,0-0.8,0.1-1.2,0.3
			l-0.4,0.3c0.3,2.8,0.5,4.7,0.6,5.7c0.3,6.4,0.5,10.6,0.5,12.7c0,5.9,0,9.1-0.1,9.6l-0.1,3.6l0.3-0.2c0.3-0.1,0.6-0.2,1-0.2
			C25.6,38.3,26.1,38.4,26.2,38.7z"/>
		<path id="path158" inkscape:connector-curvature="0" class="st2" d="M25.3,38.4v-0.2c-0.1-0.9-0.1-1.3-0.1-1.4l0.4,1.1l-0.1-2.2
			l0,0.3c-0.1-0.1-0.1-0.2-0.1-0.4l0-0.6l0-0.2l-0.1-0.4l-0.1,0.8l0,2.1c-0.1,0.4-0.1,0.7,0,0.9c-0.1-0.5-0.2-1.3-0.2-2.4l0-0.4v0.1
			c0,0.1,0,0.5,0,1.2l-0.1-2.1c-0.3,0.2-0.5,0.3-0.7,0.3l0,2.3l0,0.2l0.2-0.9l0-0.7c0-0.3,0-0.4,0.1-0.4v0.1l0-0.1l0.1,0.4l0.1,2.4
			l-0.1-0.3l0,0.7C25,38.3,25.2,38.3,25.3,38.4z"/>
		<path id="path160" inkscape:connector-curvature="0" class="st2" d="M24.9,33L24.9,33l-0.1-0.1h-0.2l0,0.4L24.4,33v-0.4l-0.1,0.2
			v0.6l0.4,0.3l0-0.6C24.7,33,24.9,33,24.9,33z"/>
		<path id="path162" inkscape:connector-curvature="0" class="st2" d="M24.1,9.5l0-1.4L24,8c-0.1,0-0.1,0.3-0.2,0.6
			c-0.1,0.2,0,0.5,0.1,0.6C23.9,9.2,24.1,9.5,24.1,9.5z"/>
		<path id="path164" inkscape:connector-curvature="0" class="st2" d="M23.8,16.5l0-1.1l0-0.3v0.5l0-0.7l0-0.2c0,0,0,0.1,0,0.3
			C23.7,15.6,23.8,16.2,23.8,16.5z"/>
		<path id="path166" inkscape:connector-curvature="0" class="st2" d="M23.7,14.6l0-1.5v0.3L23.6,12c0-0.4,0-0.6,0-0.6l0-0.3
			c0-0.9,0-1.3-0.1-1.5L23.7,14.6L23.7,14.6L23.7,14.6z"/>
		<path id="path168" inkscape:connector-curvature="0" class="st2" d="M23,8.8l0.2,1.6v0c0.1,0.1,0.1,0.2,0.1,0.3l0,0.1l0-1.6
			l-0.1-0.3C23.3,8.9,23,8.8,23,8.8z"/>
		<path id="path170" inkscape:connector-curvature="0" class="st2" d="M24.7,24.8l-0.1-2.2c-0.1,1.1-0.1,2.3,0.1,3.5
			C24.6,25.4,24.6,25,24.7,24.8z"/>
		<path id="path172" inkscape:connector-curvature="0" class="st2" d="M24.6,18.2c0,0,0-0.1-0.1-0.2c-0.1-0.1-0.1-0.2,0-0.2
			c0.1-0.2,0.1-0.3,0.1-0.4l0-3.6c0-0.1,0.1-0.3,0.1-0.6v0.4l0.1,0.5l0.1,2.8l-0.1-0.4l0.1,3.6l-0.1-1.4
			C24.7,18.6,24.6,18.2,24.6,18.2z M25,25.4c0-0.7,0-1.8-0.1-3.2c0-0.9,0-2.3,0-4.2c0.1-1.8,0.1-3.2,0-4.2c0-1.6-0.1-4-0.1-7.2
			l-0.3,0v0.6c0.1,0.3,0.1,0.7,0,1.1L24.4,9c0,0.2-0.1,0.3-0.2,0.4c0,0,0.1-0.2,0.2-0.6V8.3l0-0.2l-0.1-0.2l0,1.6l0,0.1
			c0.3,0.3,0.4,0.5,0.4,0.6v0.6c0,0.8,0,1.3-0.1,1.7c-0.1,0.5-0.1,0.9-0.1,1.2l-0.1-2.3c0-0.8,0-1.3,0-1.4c0,0,0-0.1,0-0.2
			c-0.1-0.1-0.1-0.1-0.2-0.1c-0.1,0-0.1,0.1-0.1,0.2c0-0.4-0.1-0.6-0.3-0.6l0.1,5.4l0.1,0l0,0.4l0-1.4c0-0.4,0-0.8,0.1-1.2
			c0.1-0.2,0.1-0.4,0.1-0.8l0,2.6l-0.2,1c0,0.3,0,0.7,0,1.1v0.2c0,0.3,0.1,0.7,0.2,1.2l0.2,0.6l0.2,0.1l0,1.2
			c-0.1-0.1-0.1-0.1-0.2,0c-0.1,0.1-0.1,0.2-0.1,0.4v1.6c0-0.1,0-0.3,0.1-0.8l0.1-0.6v-0.2h0.1v0c0.1,0.1,0.2,0.3,0.2,0.7l0,4
			c0,0,0,0.1,0,0.3l0,1.9l0-0.3v1.4l0.2-1.2C25,26.7,25,25.4,25,25.4z M24.1,11.6L24.1,11.6L24.1,11.6z"/>
		<path id="path174" inkscape:connector-curvature="0" class="st2" d="M23.4,7.3L23.4,7.3l0.1-0.7l-0.1,0l0,0.1c0.1,0,0.1,0.1,0,0.1
			C23.4,6.9,23.4,7.3,23.4,7.3z"/>
		<path id="path176" inkscape:connector-curvature="0" class="st2" d="M24,7.4V7.3l-0.3,0C23.8,7.4,23.9,7.5,24,7.4z"/>
		<path id="path178" inkscape:connector-curvature="0" class="st2" d="M24.2,7c0-0.2,0-0.3-0.2-0.4H24l-0.4,0l0,0.4l0,0
			c0.1,0,0.3,0,0.4,0.1l0.1-0.2L24.2,7z"/>
		<path id="path180" inkscape:connector-curvature="0" class="st2" d="M24.3,31.5c0,0.2,0,0.3,0,0.5C24.4,31.8,24.3,31.6,24.3,31.5
			l0-1.8l0.3,1.3l0.1,1l0,0.1v-1.7l-0.2-0.6l0,0.4l-0.2-0.7c0-0.4,0-0.7-0.1-1.1v-0.1c0-0.1,0-0.2-0.1-0.3l0.1,2.4
			C24.3,30.8,24.3,31.1,24.3,31.5z"/>
		<path id="path182" inkscape:connector-curvature="0" class="st3" d="M25.2,36.7c0,0.1,0,0.5,0.1,1.4v0.2h0.2v-1
			C25.5,37.3,25.2,36.7,25.2,36.7z"/>
		<path id="path184" inkscape:connector-curvature="0" class="st3" d="M26,38.6L26,37.1c0-0.2-0.1-0.4-0.2-0.4v0.2l-0.1-2.1
			c0-0.2,0-0.5-0.1-0.8c0,0.7,0,1.3,0,1.6l0.1,2.2l0,0.1c0.2,0.4,0.2,0.6,0.2,0.6C25.9,38.5,26,38.6,26,38.6z"/>
		<path id="path186" inkscape:connector-curvature="0" class="st3" d="M25.1,38c0-0.2,0-0.5,0-0.9l0-2.9l0-0.4
			c-0.1,0.1-0.1,0.1,0,0.2l-0.2,1.1l0,0.4C24.9,36.7,25,37.5,25.1,38z"/>
		<path id="path188" inkscape:connector-curvature="0" class="st3" d="M23.9,33.4l-0.1-4.9c-0.1-2.1-0.1-3.4,0-4
			c0.1-0.7,0.1-1.8,0.1-3.2v-1.1c0-1.1,0-1.8-0.1-2.1c-0.1-0.5-0.1-1.2-0.2-2.2c0-0.3-0.1-0.8-0.2-1.4v-0.1l-0.3-1.8v-1.4
			c0-0.1,0-0.3,0-0.6c0.1-0.1,0.1-0.1,0.1-0.2v0L23,8.8l-0.4-0.2c0.2,2,0.4,3.3,0.4,4.1c0.3,6.4,0.5,10.6,0.5,12.7l0,8.1l0.4-0.1
			C23.9,33.5,23.9,33.4,23.9,33.4z"/>
		<path id="path190" inkscape:connector-curvature="0" class="st3" d="M25,26.7l0.2-0.4L25.1,19l0-0.3l0.1-0.1L25,9.4
			c0-1.4,0-2.3-0.1-2.8c0.1,3.2,0.1,5.6,0.1,7.2c0,1,0,2.4,0,4.2c0,2,0,3.4,0,4.2c0.1,1.4,0.1,2.4,0.1,3.2C25,25.4,25,26.7,25,26.7z
			"/>
		<path id="path192" inkscape:connector-curvature="0" class="st3" d="M24.7,24.6L24.7,24.6l0-4c0-0.4-0.1-0.6-0.2-0.7l0,0h-0.1
			l0.1,1.6C24.6,21.5,24.7,24.6,24.7,24.6z M24.6,21.5l0-0.5L24.6,21.5z"/>
		<path id="path194" inkscape:connector-curvature="0" class="st3" d="M24.6,17.3c0,0.1,0,0.3-0.1,0.4c0,0.1,0,0.2,0,0.2
			c0.1,0.1,0.1,0.2,0.1,0.2l0.1,0.4l0.1,1.4l-0.1-3.7l0-0.4C24.6,15.8,24.6,17.3,24.6,17.3z"/>
		<path id="path196" inkscape:connector-curvature="0" class="st3" d="M24.4,8.3c0-0.3-0.1-0.6-0.2-0.7l0,0.1V8l0.1-0.1v0l0.1,0.2
			L24.4,8.3L24.4,8.3z"/>
		<path id="path198" inkscape:connector-curvature="0" class="st3" d="M23.6,6.6l0,0.6h0.1l0-0.2L23.6,6.6
			C23.6,6.6,23.6,6.6,23.6,6.6z"/>
		<path id="path200" inkscape:connector-curvature="0" class="st3" d="M24.4,13.6c0-0.3,0-0.7,0.1-1.2c0.1-0.4,0.1-0.9,0.1-1.7v-0.6
			c0,0-0.1-0.2-0.4-0.6l0-0.1h0l-0.2-0.3c-0.1-0.2-0.1-0.4-0.1-0.6C23.9,8.2,24,8,24,8h0c-0.1-0.1-0.1-0.2,0-0.3l0-0.3l-0.1,0
			c-0.1,0-0.2,0-0.3-0.2h-0.2l0,0.3l0,0.1l-0.1-0.1c-0.1-0.2-0.1-0.5-0.1-0.8l-0.1-0.1l-0.1,0C23,6.9,23,7,23,7.2c0,0.2,0,0.3,0,0.4
			c-0.1-0.1-0.2-0.3-0.3-0.6L22.6,7l-0.1,0.4l0.2,1.3l0.6,0.2l0.1,0.3l0.2,0.3v0c0.1,0.1,0.1,0.6,0.1,1.5l0,0.3l0,0l0-2
			c0.2,0,0.3,0.2,0.3,0.6c0-0.1,0-0.2,0.1-0.2c0.1,0,0.1,0,0.2,0.1c0,0.1,0,0.2,0,0.2c0,0.1,0,0.6,0,1.4
			C24.3,11.4,24.4,13.6,24.4,13.6z"/>
		<path id="path202" inkscape:connector-curvature="0" class="st3" d="M24.6,32.8l0.2,0.1l0,0H25c-0.1-0.6-0.1-1,0-1.1
			c0-0.1,0.1-0.2,0.1-0.3c0-0.2,0-0.5,0-0.8c0.1,0.1,0.1,0.2,0.2,0.5c0.1,0.3,0.1,0.4,0.1,0.5c0-0.3,0-0.9,0.1-1.5
			c0.1-0.3,0.1-0.6,0-0.8L25.4,29c-0.2-0.5-0.2-1.2-0.2-2.1v-0.6L25,26.7l-0.2,1.2V28c0,0.7,0,1.3,0,1.7l0,2.5l0-0.2l-0.1-1
			l-0.3-1.3v1.2c0.1,0.3,0.1,0.5,0.1,0.8C24.4,31.7,24.6,32.8,24.6,32.8z"/>
		<path id="path204" inkscape:connector-curvature="0" class="st16" d="M25,33l0.8-0.2c-0.2-5.3-0.4-8.5-0.4-9.5l-0.2-4.4l-0.2-0.1
			v-0.2L25,18.7l0,0.3l0.1,7.9c-0.1,0.9,0,1.6,0.2,2.1l0.1,0.3c0.1,0.3,0.1,0.5,0,0.8c-0.1,0.7-0.1,1.2-0.1,1.5
			c0-0.1-0.1-0.2-0.1-0.5c0-0.2-0.1-0.4-0.2-0.5c0,0.4,0,0.7,0,0.8C25,31.6,25,31.8,25,31.8C24.9,32,24.9,32.4,25,33z"/>
		<path id="path206" inkscape:connector-curvature="0" class="st16" d="M23.4,7.5V6.8l0-0.1l-0.3,0.1l0.1,0.1
			c0.1,0.2,0.1,0.3,0.1,0.4C23.4,7.2,23.4,7.5,23.4,7.5z"/>
		<path id="path208" inkscape:connector-curvature="0" class="st16" d="M23,7.6c0-0.1,0-0.2,0-0.4c0-0.2,0-0.3,0-0.4l-0.3,0.2
			C22.8,7.2,22.9,7.4,23,7.6z"/>
		<path id="path210" inkscape:connector-curvature="0" class="st16" d="M24.4,9l0.1-0.7c0.1-0.4,0.1-0.8,0-1.1V6.6l-0.4,0
			c0.1,0.1,0.2,0.3,0.2,0.4l-0.1,0.2L24,7.1C23.9,7,23.8,6.9,23.7,7l0,0l0,0.2h-0.1l-0.1,0h0.2l0.3,0v0l0.1,0l0,0.3l0-0.1
			c0.2,0.1,0.2,0.4,0.2,0.7v0.6c-0.1,0.3-0.2,0.5-0.2,0.6C24.3,9.4,24.3,9.2,24.4,9z"/>
		<path id="path212" inkscape:connector-curvature="0" class="st16" d="M25.1,18.8l0.2,0.1c-0.1-2.7-0.1-4.1-0.1-4.4
			c0-2.5,0.1-4.7,0.2-6.5l0-1c-0.1-0.1-0.3-0.3-0.6-0.4C24.9,7.1,25,8,25,9.4C25,9.4,25.1,18.8,25.1,18.8z"/>
		<path id="path214" inkscape:connector-curvature="0" class="st16" d="M24.6,32.9L24.6,32.9l-0.2-1.2c0-0.3,0-0.5-0.1-0.8l0,1.4
			l0,0.2V33l0.2,0.3C24.6,33.2,24.6,32.9,24.6,32.9z"/>
		<path id="path216" inkscape:connector-curvature="0" class="st16" d="M26,37.1l0.1,1.4l0.2,0.2l-0.2-1.4c-0.1-1.1-0.2-2.3-0.2-3.4
			l0-1.2L25,33h-0.1l-0.2,0l0.2,3.5c0-0.7,0-1.1,0-1.2v-0.1l0.2-1.1c0-0.1,0-0.1,0-0.2l0,0.4l0.1,0.4l0,0.1c0.1,0.3,0.1,0.5,0.1,0.8
			v0.2l0-0.1v0c0.1-0.3,0.1-0.9,0-1.6c0.1,0.3,0.1,0.6,0.1,0.8l0.1,2.1v-0.2C25.9,36.8,26,36.9,26,37.1z"/>
		<path id="path218" inkscape:connector-curvature="0" class="st16" d="M25.5,37.3v1c0.2,0.1,0.4,0.1,0.4,0.2c0-0.1-0.1-0.3-0.2-0.6
			l0-0.1C25.5,37.6,25.5,37.4,25.5,37.3z"/>
		<path id="path220" inkscape:connector-curvature="0" class="st4" d="M23.6,38.6c0.2-0.1,0.5-0.2,0.8-0.2L24,36
			c0,1,0.1,1.7,0.1,2.2l-0.1-1c0-0.5-0.1-1-0.2-1.4c0-0.1,0-0.3-0.1-0.4l-0.2,0.2l-0.1,3.2C23.4,38.8,23.6,38.6,23.6,38.6z"/>
		<path id="path222" inkscape:connector-curvature="0" class="st4" d="M24.6,37.4l0.2,0.5l-0.1-2.4l0-0.2l-0.1-0.2v-0.1
			c-0.1,0-0.1,0.2-0.1,0.4l0.1,1.5C24.5,37.3,24.5,37.4,24.6,37.4z"/>
		<path id="path224" inkscape:connector-curvature="0" class="st4" d="M24,31.1l0,2l0,0l0.3,0.2v-0.6C24.3,31.9,24.1,31.4,24,31.1z"
			/>
		<path id="path226" inkscape:connector-curvature="0" class="st4" d="M24.4,29.5l0.2,0.7l0-0.4v-0.9c0-0.3-0.1-0.8-0.2-1.5v-0.9
			c0-0.7-0.1-1.7-0.1-3c0-0.5-0.1-1.2-0.2-2.2V21c0,0.1,0,0.2,0,0.3l0,0.4v3.5l-0.1-0.9c0-0.1,0-0.2,0-0.4l0.2,4.4
			c0,0.1,0,0.2,0,0.2c0.1-0.4,0.1-0.9,0-1.4l0-0.7l0.1,2C24.4,28.7,24.4,29.1,24.4,29.5z"/>
		<path id="path228" inkscape:connector-curvature="0" class="st4" d="M24.8,26.5l0,0.3l0-1.9c0-0.2,0-0.3,0-0.3h-0.1l0,1.4
			L24.8,26.5C24.8,26.4,24.8,26.5,24.8,26.5z"/>
		<path id="path230" inkscape:connector-curvature="0" class="st4" d="M24,19.6c0,0,0.1,0,0.1,0c0,0,0.1,0,0.1,0l0.2-0.4l0-0.9
			l0-0.1l-0.2-0.6c-0.1-0.5-0.2-0.8-0.2-1.2v-0.2l-0.1-0.9v-0.3l0,0.2l0.1,3.7C23.9,19.4,24,19.6,24,19.6z"/>
		<path id="path232" inkscape:connector-curvature="0" class="st4" d="M24.6,16.3l0.1,0.4l-0.1-2.8l-0.1-0.5v-0.4
			c0,0.3-0.1,0.5-0.1,0.6L24.6,16.3z"/>
		<path id="path234" inkscape:connector-curvature="0" class="st4" d="M23.1,12.7l0.4,2.6l-0.2-4.5c0-0.2,0-0.3-0.1-0.3
			c0,0-0.1,0.1-0.1,0.2c0,0.3,0,0.5,0,0.6C23.1,11.2,23.1,12.7,23.1,12.7z"/>
		<path id="path236" inkscape:connector-curvature="0" class="st17" d="M2,37.6l-1.6,0.2l-0.4,1l0.5,0.2C0.9,39,1.2,39,1.6,39.1
			c0.6,0,1-0.1,1.3-0.3C2.9,38.8,2,37.6,2,37.6z"/>
		<path id="path238" inkscape:connector-curvature="0" class="st18" d="M2.4,38.8c-0.1-0.2-0.4-0.3-0.8-0.3c-0.7,0-1,0.1-1,0.2
			c0,0,0.3,0.1,0.9,0.2C1.7,39,2,39,2.4,38.8z"/>
		<path id="path240" inkscape:connector-curvature="0" class="st19" d="M1.6,38.9c0.1,0,0.1-0.1,0-0.2c-0.1-0.1-0.1-0.1-0.2-0.1
			c-0.1,0-0.1,0-0.1,0.1c0,0.1-0.1,0.1,0,0.1l0.2,0C1.4,38.8,1.6,38.9,1.6,38.9z"/>
		<path id="path242" inkscape:connector-curvature="0" class="st20" d="M1.4,38.3l-0.3,0H0.9l-0.3,0c-0.2,0.1-0.4,0.2-0.5,0.3
			c0,0,0.1,0,0.3,0c0.2-0.1,0.3-0.1,0.4-0.1l0.4-0.1h0.3c0.1,0,0.6,0.1,1.4,0.2l-0.1-0.1c-0.3-0.2-0.5-0.2-0.6-0.2
			C2,38.4,1.4,38.3,1.4,38.3z"/>
		<path id="path244" inkscape:connector-curvature="0" class="st1" d="M0,38.7l0.3-0.2c0.3-0.1,0.7-0.2,1.3-0.2c0.6,0,1,0.1,1.3,0.4
			l-0.1-3.6c-0.1-0.7-0.1-3.9-0.1-9.6c0-2.1,0.2-6.3,0.6-12.7c0-1,0.2-2.9,0.6-5.7C3.5,6.8,3,6.6,2.2,6.6c-0.4,0-0.8,0-1.1,0.2
			L0.8,7l0.2,7.5c-0.1,3.9-0.2,6.8-0.3,8.8C0.6,29.1,0.4,32.6,0.4,34c0,1.1-0.1,2.3-0.2,3.4C0.2,37.4,0,38.7,0,38.7z"/>
		<path id="path246" inkscape:connector-curvature="0" class="st2" d="M1.1,37.2v-2.1L1,34.2l-0.1,0.4v0.2l-0.1,0.6
			c0,0.2,0,0.3-0.1,0.4v-0.3l-0.2,2.2L1,36.7c-0.1,0.6-0.1,1.1-0.1,1.4v0.2c0.1,0,0.4,0,0.7,0v-0.7l-0.1,0.3l0.1-2.1l0.1-0.6l0,0.1
			l0-0.1c0.1,0,0.1,0.2,0.1,0.4v0.3L2,37.2l0-0.2l0-1.5c0-0.1,0-0.2,0-0.4c0-0.2,0-0.3,0-0.4c-0.2,0-0.4-0.1-0.6-0.3l-0.1,2.1l0-1.2
			l0-0.1l0,0.4c0,1.1,0,1.9-0.2,2.4C1.1,37.8,1.1,37.6,1.1,37.2z"/>
		<path id="path248" inkscape:connector-curvature="0" class="st2" d="M1.9,33.3l0-0.6l-0.1-0.2l0,0.4l-0.2,0.3l0-0.4H1.5l-0.1,0
			l0,0l0.2,0l0,0.6C1.5,33.6,1.9,33.3,1.9,33.3z"/>
		<path id="path250" inkscape:connector-curvature="0" class="st2" d="M2.1,9.5l0.2-0.3c0.1-0.2,0.1-0.4,0.1-0.6
			c0-0.2-0.1-0.4-0.2-0.6v0.1l0,0C2.2,8.1,2.1,9.5,2.1,9.5z"/>
		<path id="path252" inkscape:connector-curvature="0" class="st2" d="M2.4,16.5c0.1-0.3,0.2-0.8,0.2-1.5c0-0.1,0-0.2,0-0.3
			l-0.1,0.2v0l0,0.2l0,0.3v0.8L2.4,16.5z"/>
		<path id="path254" inkscape:connector-curvature="0" class="st2" d="M2.9,10.8L2.9,10.8L3,10.4l0,0l0.1-1.6L3,8.9L2.9,9.2
			C2.9,9.2,2.9,10.8,2.9,10.8z"/>
		<path id="path256" inkscape:connector-curvature="0" class="st2" d="M1.7,22.6l0,0.5v-0.4l-0.1,1.9l0,0.2c0,0.3,0,0.6,0,1.1
			C1.7,24.7,1.8,23.7,1.7,22.6z"/>
		<path id="path258" inkscape:connector-curvature="0" class="st2" d="M1.2,26.7l0.2,1.2l0-1.4l0,0.3v-1.9c0-0.2,0-0.3,0.1-0.3l0-4
			c0-0.4,0-0.6,0.1-0.7l0,0h0.1l0,0.2l0.1,0.6C2,20.9,2,21.1,2,21.2c0-0.3,0-0.8,0-1.4c-0.1-0.4-0.2-0.5-0.3-0.3l0-1.2l0.2-0.1
			l0.2-0.6c0.1-0.5,0.2-0.8,0.2-1.2l0-0.2v-1.1c0-0.2-0.1-0.6-0.2-1l0-4.1l0,2.3c0.1,0.4,0.1,0.8,0.1,1.2V15l0-0.4l0.1,0l0-3.4h0
			l0-2c-0.1,0-0.2,0.1-0.2,0.2c0,0.2-0.1,0.3,0,0.4L2.3,9.7C2.1,9.6,2,9.7,2,10C2,10.1,2,10.6,2,11.4l0,2.5c0-0.3-0.1-0.8-0.2-1.4
			c-0.1-0.6-0.1-1.1-0.1-1.7l0-0.6c0-0.1,0.1-0.3,0.4-0.6l0.1-0.1C2.1,9.1,2,8.6,2,7.9L1.9,8.3l0,0.6c0.1,0.3,0.2,0.5,0.2,0.6
			C1.9,9.3,1.9,9.2,1.8,9C1.8,8.9,1.8,8.6,1.8,8.4l0-1.8l-0.3,0c0,3.2-0.1,5.6-0.1,7.2c0.1,3.8,0.1,6.6,0.1,8.5
			C1.4,22.3,1.2,26.7,1.2,26.7z M1.6,18.2l-0.2,1.7l0.1-3.6l-0.1,0.4l0.2-3.6c0.1,0.1,0.1,0.3,0.1,0.6l0,3.6l0.1,0.4
			c0,0.1,0,0.2,0,0.2C1.7,18.1,1.6,18.2,1.6,18.2z"/>
		<path id="path260" inkscape:connector-curvature="0" class="st2" d="M2.8,7.3L2.8,7.3v0.3l0-0.9l-0.2,0L2.8,7.3L2.8,7.3z"/>
		<path id="path262" inkscape:connector-curvature="0" class="st2" d="M2.3,7.3L2.3,7.3v0.1c0.1,0,0.2,0,0.2-0.2
			C2.6,7.3,2.3,7.3,2.3,7.3z"/>
		<path id="path264" inkscape:connector-curvature="0" class="st2" d="M2,7l0.1-0.2l0.1,0.2C2.4,7,2.5,6.9,2.6,7l0,0l0-0.4l-0.4,0
			H2.2C2,6.7,2,6.8,2,7z"/>
		<path id="path266" inkscape:connector-curvature="0" class="st2" d="M1.5,32l0.4-2.3l0,0l0,1.5c0-0.3,0-0.5,0.1-0.8
			c0.1-0.3,0.1-0.7,0.1-1.3c0-0.2,0-0.6,0-1.1C2,28.1,2,28.2,2,28.3l0,0.1l-0.1,1.1l-0.2,0.7v-0.4l-0.1,0.6L1.5,32
			C1.5,32.1,1.5,32,1.5,32z"/>
		<path id="path268" inkscape:connector-curvature="0" class="st3" d="M1,36.7l-0.2,0.6v1h0.1v-0.2C0.9,37.8,1,37.3,1,36.7z"/>
		<path id="path270" inkscape:connector-curvature="0" class="st3" d="M0.6,37.8l0.2-2.2c-0.1-0.3-0.1-0.9-0.1-1.6
			c-0.1,0.3-0.1,0.6-0.1,0.8l-0.1,2.1v-0.2c-0.1,0.1-0.2,0.2-0.2,0.4l-0.1,0.6v0.8l0.1,0L0.6,37.8C0.6,37.9,0.6,37.8,0.6,37.8z"/>
		<path id="path272" inkscape:connector-curvature="0" class="st3" d="M1.1,38c0.1-0.5,0.2-1.3,0.2-2.4l0-0.4l-0.2-1.1l-0.1-0.2
			l0,0.4l0.1,2.9C1.1,37.6,1.1,37.8,1.1,38z M1.2,35.3l0-0.5l0,0.3c0,0.4,0,0.7,0,0.9C1.2,36,1.2,35.7,1.2,35.3z"/>
		<path id="path274" inkscape:connector-curvature="0" class="st3" d="M2.3,33.4l0,0.2l0.4,0.1l0-8.1c0-2.1,0.2-6.3,0.6-12.7
			c0-0.7,0.1-2.1,0.4-4.1L3.2,8.8l-0.1,1.6v0l0.1,0.2l0,2.1l-0.3,1.8v0.1c-0.1,0.6-0.2,1.1-0.2,1.4c0,1-0.1,1.7-0.2,2.2
			c0,0.9-0.1,1.6-0.1,2.1l0,1.1c0,1.4,0,2.4,0,3.2c0.1,0.4,0,1.7,0,4C2.4,28.5,2.3,33.4,2.3,33.4z"/>
		<path id="path276" inkscape:connector-curvature="0" class="st3" d="M1.4,22.3c0-1.9,0-4.7-0.1-8.5c0-0.3,0-0.7,0-1.1l-0.1,5.9
			l0,0.1l0,0.3L1,26.2l0.2,0.4C1.2,26.7,1.4,22.3,1.4,22.3z"/>
		<path id="path278" inkscape:connector-curvature="0" class="st3" d="M1.6,24.6L1.7,20c0,0,0,0.1,0,0.4l0,0.5l0.1-0.7v-0.1l0-0.2
			H1.7l0,0c-0.1,0.1-0.1,0.3-0.1,0.7L1.6,24.6C1.5,24.6,1.6,24.6,1.6,24.6z"/>
		<path id="path280" inkscape:connector-curvature="0" class="st3" d="M1.6,18.2c0,0,0-0.1,0.1-0.2c0-0.1,0.1-0.2,0-0.2l-0.1-0.4
			l0-1.4v0.4l0,0.1l-0.1,3.6C1.5,19.9,1.6,18.2,1.6,18.2z"/>
		<path id="path282" inkscape:connector-curvature="0" class="st3" d="M2.6,7.2L2.6,7.2l0-0.6h0l0,0.4C2.6,7,2.6,7.1,2.6,7.2z"/>
		<path id="path284" inkscape:connector-curvature="0" class="st3" d="M1.9,13.9l0-2.5C2,10.6,2,10.1,2,10c0-0.2,0.1-0.3,0.2-0.3
			l0.1,0.2c0-0.1,0-0.2,0-0.4c0-0.2,0.1-0.3,0.2-0.2l0,2l0,0V11c0-0.8,0-1.3,0.1-1.5v0L3,8.9l0.6-0.2l0.2-1.3L3.7,7L3.5,6.9
			C3.4,7.2,3.3,7.4,3.2,7.6c0-0.1,0-0.4,0-0.8l-0.2,0l0,0.1L2.9,7.6l0,0.1L2.7,7.3H2.6C2.5,7.4,2.4,7.5,2.3,7.4l-0.1,0l0,0.3l0,0.3
			c0.1,0.2,0.2,0.4,0.2,0.6c0.1,0.3,0,0.5-0.1,0.6L2,9.6c-0.2,0.3-0.3,0.5-0.4,0.6l0,0.6c0,0.6,0,1.2,0.1,1.7
			C1.9,13.1,1.9,13.6,1.9,13.9z"/>
		<path id="path286" inkscape:connector-curvature="0" class="st3" d="M1.5,32.9l0.1-0.1c0.1-0.5,0.2-0.9,0.2-1.1
			c0-0.3,0-0.5,0.1-0.8l0-1.2l0,0L1.5,32v0.2l0-0.1l0-1.7l-0.1-0.8v-1.8l-0.2-1.2L1,26.2l0,0.6c0,1-0.1,1.7-0.2,2.1l-0.1,0.3v0.8
			c0.1,0.7,0.1,1.2,0.1,1.5c0-0.1,0.1-0.2,0.1-0.5c0-0.2,0.1-0.4,0.2-0.5c0,0.4,0,0.7,0,0.8l0.1,0.3V33h0.1
			C1.4,33,1.5,32.9,1.5,32.9z"/>
		<path id="path288" inkscape:connector-curvature="0" class="st16" d="M1.3,33v-1.1l-0.1-0.3c0-0.2,0-0.5,0-0.8
			C1.1,30.8,1,30.9,1,31.2c-0.1,0.3-0.1,0.4-0.1,0.5c0-0.3,0-0.9-0.1-1.5v-0.8L0.9,29c0.1-0.5,0.2-1.2,0.2-2.1L1.2,19l0-0.3l0-0.1
			l0,0.2L1,18.9l-0.2,4.4c-0.2,4.6-0.3,7.8-0.4,9.5C0.4,32.8,1.3,33,1.3,33z"/>
		<path id="path290" inkscape:connector-curvature="0" class="st16" d="M3.1,6.7L2.8,6.6l0,0.8V7.2L3.1,6.7C3,6.8,3.1,6.7,3.1,6.7z"
			/>
		<path id="path292" inkscape:connector-curvature="0" class="st16" d="M3.2,7.6c0.1-0.1,0.2-0.3,0.3-0.6L3.2,6.8
			C3.2,7.2,3.2,7.4,3.2,7.6z"/>
		<path id="path294" inkscape:connector-curvature="0" class="st16" d="M1.8,9c0,0.1,0.1,0.3,0.2,0.4c0-0.1,0-0.2-0.2-0.6l0-0.6v0
			C2,7.9,2,7.6,2.1,7.6l0,0.1l0-0.3l0.1,0l0,0l0.2,0h0.2l-0.1,0H2.6c0-0.2,0-0.2,0-0.2l0,0c-0.1,0-0.2,0-0.4,0.1L2.1,7.2L2,7
			C2,6.8,2,6.7,2.2,6.6l-0.4,0l0,0.5l0,1.3C1.8,8.6,1.8,8.9,1.8,9z"/>
		<path id="path296" inkscape:connector-curvature="0" class="st16" d="M1.2,18.6l0.2-12C1.2,6.7,1.1,6.8,1,6.9L0.8,7L1,18.9
			l0.2-0.1L1.2,18.6z"/>
		<path id="path298" inkscape:connector-curvature="0" class="st16" d="M1.6,32.9l0,0.4L1.8,33l0.1-2.1c-0.1,0.3-0.1,0.5-0.1,0.8
			C1.8,31.9,1.7,32.3,1.6,32.9C1.6,32.8,1.6,32.9,1.6,32.9z"/>
		<path id="path300" inkscape:connector-curvature="0" class="st16" d="M0,38.7l0.2-0.2v-0.8l0.1-0.6c0-0.2,0.1-0.4,0.2-0.4v0.2
			l0.1-2.1c0-0.2,0-0.5,0.1-0.8c0,0.7,0,1.3,0.1,1.6v0c0-0.2,0-0.5,0.1-0.8l0-0.1L1,34.2l0-0.4l0.1,0.2l0.2,1.1l0,0.1l0,1.2L1.6,33
			l-0.2,0H1.3l-0.8-0.2l0,1.2c0,1.1-0.1,2.3-0.2,3.4C0.2,37.4,0,38.7,0,38.7z"/>
		<path id="path302" inkscape:connector-curvature="0" class="st16" d="M0.8,37.3c0,0.1-0.1,0.2-0.2,0.5l0,0.1l-0.2,0.6
			c0.1-0.1,0.2-0.1,0.5-0.2V37.3z"/>
		<path id="path304" inkscape:connector-curvature="0" class="st4" d="M2.9,38.8l0-3.2l-0.2-0.2c-0.1,0.1-0.1,0.2-0.1,0.4l-0.2,1.4
			c0,0.1,0,0.2,0,0.2l0-1.4l-0.4,2.4C2.3,38.4,2.7,38.5,2.9,38.8z"/>
		<path id="path306" inkscape:connector-curvature="0" class="st4" d="M1.7,37.4c0,0,0-0.1,0-0.3l0.1-0.7v-0.8c0-0.3,0-0.4-0.1-0.4
			l-0.1,0.2v0.2l0,0.2l-0.1,2.1C1.5,37.9,1.7,37.4,1.7,37.4z"/>
		<path id="path308" inkscape:connector-curvature="0" class="st4" d="M2.3,31.1C2.1,31.5,2,32,2,32.7l0,0.6l0.3-0.2l0,0
			C2.2,33.1,2.3,31.1,2.3,31.1z"/>
		<path id="path310" inkscape:connector-curvature="0" class="st4" d="M1.8,29.5l0.3-3v0.7c0,0.7,0,1.2,0.1,1.4l0-0.2l0.2-4.4
			c0,0.1-0.1,0.2-0.1,0.4l-0.1,0.9v-3.5l0-0.4c0-0.2,0-0.3,0-0.4v0.4c0,0.4-0.1,1.2-0.2,2.2c-0.1,0.7-0.1,1.7-0.1,3l0,0.9
			c-0.1,0.6-0.2,1.1-0.2,1.5v1.3L1.8,29.5z"/>
		<path id="path312" inkscape:connector-curvature="0" class="st4" d="M1.6,24.8l0-0.2h0c-0.1,0-0.1,0.1-0.1,0.3v1.9l0-0.3v-0.2
			l0-0.2C1.5,26.1,1.6,24.8,1.6,24.8z"/>
		<path id="path314" inkscape:connector-curvature="0" class="st4" d="M2.3,19l0.1-2.9l0,0v-1c0,0,0,0.1,0,0.3l0,0.9l0,0.2
			c0,0.3-0.1,0.7-0.2,1.2l-0.2,0.6l0,0.1l0,0.9L2,19.6c0.1-0.1,0.1,0,0.2,0C2.3,19.6,2.3,19.4,2.3,19z"/>
		<path id="path316" inkscape:connector-curvature="0" class="st4" d="M1.6,16.2l0.1-2.5c0-0.3,0-0.5-0.1-0.6l-0.2,3.6L1.6,16.2
			L1.6,16.2z"/>
		<path id="path318" inkscape:connector-curvature="0" class="st4" d="M3.1,12.7l0-2.1l-0.1-0.2h0L3,10.8l0,2.4
			c0,0.2-0.1,0.9-0.2,2.1C2.7,15.2,3.1,12.7,3.1,12.7z"/>
		<path id="path320" inkscape:connector-curvature="0" class="st1" d="M22.2,9.1l0.6-0.2c0.4-0.3,0.7-0.6,0.7-1
			c0.1-0.9,0-1.4-0.4-1.4c-0.2-0.1-0.4-0.1-0.7,0l-0.4,0c-4.7,0-7.8,0-9.3,0L3.2,6.4L3,8.8l3.5,0c2.6,0,4.4,0,5.6-0.1
			c1.9-0.1,4.4-0.1,7.3,0C19.9,8.8,20.8,8.9,22.2,9.1z"/>
		<path id="path322" inkscape:connector-curvature="0" class="st2" d="M19.4,8.8l-0.9-0.1c0.2,0,0.3,0,0.6,0
			c0.7-0.1,1.2-0.1,1.6-0.1L23,8.8l-0.2-0.1c-0.3-0.1-0.9-0.2-1.6-0.2c-0.6,0.1-1.5,0-2.6,0c-1.2-0.1-2.1-0.1-2.6-0.1L5.7,8.6l1-0.1
			l-2.8,0c-0.5,0-0.7,0-0.8,0L3,8.6l0,0.2l3.5,0c2.6,0,4.4,0,5.6-0.1C14,8.7,16.5,8.7,19.4,8.8z"/>
		<path id="path324" inkscape:connector-curvature="0" class="st2" d="M17,7.3L17,7.3l0.5,0.2c-0.3,0-1.1,0.1-2.6,0.2l0.2,0l2.1,0
			c1.6,0,2.5,0,2.8,0l0.4,0.1h0.3l-0.3-0.1c0.4,0.1,0.7,0.1,0.9,0l2.4,0l0-0.3l-1.5,0l-0.6-0.1c-0.3-0.1-0.5-0.1-0.6-0.1
			c-0.3,0-1.1,0-2.2,0C18.7,7.2,17,7.3,17,7.3z"/>
		<path id="path326" inkscape:connector-curvature="0" class="st2" d="M15.8,7.2l0.2,0l-0.4,0c-0.2,0-0.4,0-0.8,0H14l0.6,0l-0.4,0
			l-4,0C8.5,7,6.7,7,4.9,7.1c0.3,0.1,0.5,0.2,0.4,0.3c0.8,0,1.4,0,1.8,0.1L4.1,7.7c-0.2,0-0.4,0-0.5,0c-0.2,0-0.4,0-0.5-0.1L3,8.4
			l0.2,0.1C3.6,8.4,4,8.4,4.4,8.4l0.8-0.1C4.6,8.2,4.1,8.2,3.8,8.1c0.7-0.2,1.4-0.4,2.1-0.4c0.6,0.1,1.2,0.1,1.7,0.1c0.4,0,1,0,2,0
			L9.3,7.9c0.2,0,0.4,0,0.8,0h0c0.2-0.1,0.5-0.2,1.1-0.2l0.9,0l-0.4-0.1c-0.7-0.1-1.1-0.1-1.2-0.2l-0.4-0.1L9,7.2
			c0.8-0.1,2.3,0,4.5,0.2C13.5,7.3,15.8,7.2,15.8,7.2z"/>
		<path id="path328" inkscape:connector-curvature="0" class="st2" d="M22.6,8.3l-1,0.1l1.5,0.2h0c-0.1-0.1-0.4-0.2-0.7-0.2
			L22.6,8.3z"/>
		<path id="path330" inkscape:connector-curvature="0" class="st2" d="M23,8.3h0.5v0C23.4,8.3,23.2,8.3,23,8.3z"/>
		<path id="path332" inkscape:connector-curvature="0" class="st3" d="M18.8,8.7C18.8,8.7,18.8,8.7,18.8,8.7c0.1,0,0.2,0,0.3,0
			C19,8.7,18.9,8.7,18.8,8.7C18.8,8.7,18.8,8.7,18.8,8.7z M19,8.7l3.3,0.4C22.6,9,22.8,8.9,23,8.8l-2.2-0.2
			C20.3,8.6,19.8,8.7,19,8.7L19,8.7z"/>
		<path id="path334" inkscape:connector-curvature="0" class="st3" d="M16,7.2l-0.2,0L13,7.3l0.1,0c0.6,0.1,1,0.1,1.3,0.1
			c1,0.1,1.8,0,2.2,0l0.2,0l0-0.1l1.8,0c1.1-0.1,1.9-0.1,2.2,0c0.2,0,0.4,0.1,0.6,0.1c-0.2-0.1-0.4-0.1-0.6-0.1l1.6-0.1
			c0.2,0,0.5,0,0.8,0C23.4,7,23.4,7,23.4,7c-0.3,0-0.5,0-0.6,0l-0.6-0.1l-1.1,0c-0.5,0-1.2,0-2.2-0.1c-0.7,0-1.2,0-1.5,0l1.1-0.1
			c0.6,0,1.1,0,1.4-0.1c-0.1-0.1-0.4-0.1-0.7,0L7.5,6.8c-0.3,0-1.1,0-2.4,0.1l-1.4,0c-0.2,0-0.4,0-0.4,0C3.7,7,3.9,7.1,3.8,7.2
			C3.6,7.3,3.6,7.4,3.7,7.4h0.8c0.3,0,0.6,0,0.7,0H5L3.3,7.6L3.1,7.5v0.2c0.1,0.1,0.3,0.1,0.5,0.1c0.1,0,0.3,0,0.5,0l3.1-0.2
			c-0.4-0.1-1-0.1-1.8-0.1c0-0.1-0.1-0.2-0.4-0.3C6.7,7,8.5,7,10.3,7l4,0l0.4,0h0.6c0.2,0,0.5,0,0.9,0l2.1,0c0.5,0,1.2,0.1,2.2,0.2
			C20.4,7.1,16,7.2,16,7.2z"/>
		<path id="path336" inkscape:connector-curvature="0" class="st3" d="M21.2,7.7c-0.2,0-0.5,0-0.9,0l0.3,0.1l1.6,0.2H22l-0.5,0
			c0.6,0.1,1.3,0.2,2.1,0.3v0c-0.4-0.1-0.7-0.1-0.7-0.1L22.2,8h1.4V7.7C23.6,7.7,21.2,7.7,21.2,7.7z"/>
		<path id="path338" inkscape:connector-curvature="0" class="st3" d="M23.5,8.3h-0.8l-0.1,0.1c0.3,0.1,0.6,0.2,0.7,0.2
			C23.3,8.5,23.4,8.4,23.5,8.3z"/>
		<path id="path340" inkscape:connector-curvature="0" class="st3" d="M11.2,7.7c-0.6,0-1,0.1-1.1,0.2h0c0.4,0,0.9,0,1.6-0.1l0.2,0
			L16.3,8l-3-0.2l-0.7,0l-0.4,0h-0.8l0.3-0.1C11.7,7.7,11.2,7.7,11.2,7.7z"/>
		<path id="path342" inkscape:connector-curvature="0" class="st16" d="M19.1,6.5c0.1,0,0.1,0,0.2,0c-3.2,0-5.4,0-6.6,0L3.2,6.4
			L3.1,7.5l0.2,0.1L5,7.5h0.3c-0.2,0-0.4,0-0.7,0H3.7C3.6,7.4,3.6,7.3,3.8,7.2c0-0.1-0.2-0.2-0.6-0.3c0,0,0.2,0,0.4,0l1.4,0
			c1.3-0.1,2.1-0.1,2.4-0.1C7.5,6.8,19.1,6.5,19.1,6.5z M22.6,7.1L21,7.2c0.1,0,0.3,0.1,0.6,0.1l0.6,0.1l1.5,0
			c-0.1-0.6-0.2-0.9-0.5-0.9c-0.2-0.1-0.4-0.1-0.7,0l-0.4,0c-0.9,0-1.7,0-2.4,0c0.1,0,0.1,0,0.2,0.1c-0.3,0.1-0.7,0.1-1.4,0.1
			l-1.1,0.1c0.3,0,0.8,0,1.5,0c1,0.1,1.8,0.1,2.2,0.1l1.1,0l0.6,0.1c0.1,0,0.3,0,0.6,0c0,0,0,0.1,0,0.1C23.1,7.1,22.8,7.1,22.6,7.1z
			"/>
		<path id="path344" inkscape:connector-curvature="0" class="st16" d="M16,7.2l4.4,0C19.4,7,18.7,7,18.2,7l-2.1,0
			c-0.4,0-0.7,0-0.9,0l-1.2,0h0.8c0.4,0,0.6,0,0.8,0C15.6,7.1,16,7.2,16,7.2z"/>
		<path id="path346" inkscape:connector-curvature="0" class="st16" d="M22.8,8.1c0,0,0.3,0,0.7,0.1L23.6,8h-1.4L22.8,8.1z"/>
		<path id="path348" inkscape:connector-curvature="0" class="st16" d="M12.1,7.7h-0.4l-0.3,0.1h0.8l0.4,0l1.2,0
			C13.5,7.7,12.9,7.7,12.1,7.7z"/>
		<path id="path350" inkscape:connector-curvature="0" class="st4" d="M16,8.4c0.5,0,1.3,0,2.6,0.1c1.1,0.1,1.9,0.1,2.6,0l0-0.1
			l1-0.1c-0.1-0.1-0.2-0.1-0.4-0.1L17,8c-0.8-0.1-2.3,0-4.5,0.1l-1.9,0.1c-0.7,0-1.4,0-2.2,0.1L5.7,8.6L16,8.4z"/>
		<path id="path352" inkscape:connector-curvature="0" class="st4" d="M15.8,7.8L15.8,7.8c0.4,0.1,1.1,0.1,2,0.2L18,8L21.4,8l0.7,0
			l-1.6-0.2h-0.3c-0.8-0.1-1.8-0.1-2.8,0C17.4,7.7,15.8,7.8,15.8,7.8z"/>
		<path id="path354" inkscape:connector-curvature="0" class="st4" d="M7.6,7.9L4.8,8C4.9,8,5.5,8,6.4,8.1h1.5C8,8.1,8.2,8.1,8.5,8
			h1.4C9.3,7.9,8.5,7.9,7.6,7.9z"/>
		<path id="path356" inkscape:connector-curvature="0" class="st4" d="M10.9,7.4l0.5,0.1l3,0.1l1.2,0.1L15,7.7l-0.2,0
			c-1.8-0.2-3-0.4-3.5-0.4h-1.1C10.6,7.3,10.8,7.4,10.9,7.4z"/>
		<path id="path358" inkscape:connector-curvature="0" class="st16" d="M25,37.7c0.3,0.1,0.5,0.1,0.6,0c0.3-0.3,0.4-0.7,0.2-1.1
			c-0.2-0.3-0.5-0.6-0.9-0.8c-0.7-0.4-1.4,0.3-2,0.5l0,0.5l0,0c0.3,0,0.5,0,0.6,0c0.2-0.2,0.5-1,0.8-0.8c0.2,0.1,0.4,0.3,0.6,0.5
			c0.3,0.3,0.3,0.7,0,1C24.5,37.5,24.6,37.6,25,37.7z"/>
		<path id="path360" inkscape:connector-curvature="0" class="st16" d="M24.2,38.2c0.5-0.3,0.9-0.7,1-1c0.3-0.7,0.5-1.3,0.6-1.8
			l-0.1-0.7c-0.1-0.1-0.3-0.1-0.5-0.1c-0.2,0-0.3,0-0.3,0.1c-0.1,0.9-0.3,1.7-0.7,2.4c-0.1,0.2-0.4,0.5-0.8,0.8
			c-0.1,0.1-0.5,0.5-1.2,1.2c0.3,0,0.6,0,0.6,0C23,38.9,23.4,38.6,24.2,38.2z"/>
		<path id="path362" inkscape:connector-curvature="0" class="st21" d="M24.8,37.6c-0.1,0.1,0,0.2,0.3,0.3c0.3,0.1,0.5,0.1,0.6,0
			c0.3-0.3,0.3-0.7,0.1-1.1c-0.2-0.3-0.5-0.7-1-0.9c-0.4-0.2-0.8-0.3-1.2-0.4c-0.6-0.1-1,0.9-1.2,1.1c-0.1,0.1,0,0.2,0.3,0.3
			c0.3,0.1,0.5-0.7,0.6-0.8c0.3-0.3,0.8-0.2,1.5,0.5C25.1,37,25.1,37.3,24.8,37.6z"/>
		<path id="path364" inkscape:connector-curvature="0" class="st22" d="M25.5,37.6v-0.1c0-0.3,0.1-0.6,0.3-0.8
			c0-0.1-0.2-0.3-0.5-0.5c-0.3,0-0.6-0.1-0.8-0.2c-0.2-0.1-0.4-0.2-0.5-0.4l0-0.1c-0.7-0.1-1.2,0.8-1.5,1.1c-0.1,0.1,0,0.2,0.3,0.3
			c0.3,0.1,0.5-0.7,0.6-0.8c0.3-0.3,0.8-0.2,1.5,0.5c0.3,0.4,0.3,0.8,0,1.1c-0.1,0.2,0,0.3,0.5,0.4C25.4,38,25.5,37.6,25.5,37.6z"/>
		<path id="path366" inkscape:connector-curvature="0" class="st23" d="M25.2,38c0-0.2,0.1-0.4,0.3-0.6c0.1-0.2,0.2-0.5,0.3-0.7
			l-0.4-0.4l-0.7,0.2l0,0c0.3,0.4,0.3,0.8,0,1.1C24.7,37.7,24.8,37.8,25.2,38z"/>
		<path id="path368" inkscape:connector-curvature="0" class="st21" d="M24.4,38.4c0.5-0.4,0.9-0.7,1-1c0.4-1,0.6-1.9,0.6-2.6
			c0-0.1-0.2-0.2-0.5-0.2c-0.3-0.1-0.5,0-0.5,0c0.1,0.9-0.1,1.8-0.6,2.6c-0.2,0.3-0.5,0.7-1,1c-0.6,0.5-1,0.8-1.2,0.9
			c-0.1,0.1,0,0.2,0.4,0.2c0.3,0.1,0.5,0.1,0.6,0C23.2,39.3,23.6,39,24.4,38.4z"/>
		<path id="path370" inkscape:connector-curvature="0" class="st22" d="M23.2,38.8c0.4-0.2,0.8-0.5,1.1-1c0.1-0.2,0.3-0.6,0.6-1.2
			c0.2-0.5,0.5-0.8,1-1l0.1-0.8c0-0.1-0.2-0.2-0.5-0.2c-0.3-0.1-0.5,0-0.5,0c0.1,0.9-0.1,1.8-0.6,2.6c-0.2,0.3-0.5,0.7-0.9,1
			c-0.7,0.5-1.1,0.8-1.2,0.9L23.2,38.8z"/>
		<path id="path372" inkscape:connector-curvature="0" class="st23" d="M22.8,38.6l1.3-0.7c0.2-0.2,0.4-0.6,0.7-1.4l0.1-0.2l0.2-0.8
			c0.1-0.5,0.3-0.8,0.8-1c-0.1-0.1-0.3-0.1-0.6-0.2c-0.2,0-0.4,0-0.4,0.1c0.1,0.9-0.1,1.8-0.6,2.6c-0.1,0.3-0.3,0.5-0.6,0.8
			C23.7,38,22.8,38.6,22.8,38.6z"/>
		<path id="path374" inkscape:connector-curvature="0" class="st16" d="M1.4,37.7c0.3-0.1,0.4-0.1,0.3-0.2c-0.3-0.3-0.3-0.7,0-1
			C1.8,36.2,2,36,2.3,35.9c0.3-0.2,0.6,0.7,0.8,0.8c0.1,0.1,0.3,0.1,0.6,0l0,0l0-0.5c-0.7-0.2-1.3-0.9-2-0.5
			c-0.4,0.2-0.7,0.5-0.9,0.8c-0.2,0.4-0.2,0.8,0.2,1.1C0.9,37.8,1.1,37.8,1.4,37.7z"/>
		<path id="path376_00000147941922782183629010000004040182815022874791_" inkscape:connector-curvature="0" class="st16" d="
			M2.9,37.8c-0.4-0.3-0.6-0.6-0.8-0.8c-0.4-0.7-0.7-1.5-0.7-2.4c0-0.1-0.1-0.1-0.3-0.1c-0.2,0-0.3,0-0.5,0.1l-0.1,0.7
			c0.1,0.3,0.3,0.9,0.6,1.8c0.1,0.3,0.5,0.6,1,1C3,38.6,3.4,38.9,3.5,39"/>
		<path id="path378" inkscape:connector-curvature="0" class="st21" d="M1.5,37.6c-0.3-0.3-0.2-0.7,0.1-1.1c0.6-0.7,1.1-0.1,1.4,0.3
			c0.1,0.1,0.3,0.1,0.6,0c0.3-0.1,0.4-0.2,0.3-0.3c-0.3-0.3-0.7-1.2-1.2-1.1c-0.5,0.1-0.9,0.2-1.2,0.4c-0.5,0.3-0.8,0.6-1,0.9
			c-0.2,0.4-0.2,0.8,0.1,1.1C0.7,38,0.9,38,1.2,38C1.5,37.8,1.6,37.7,1.5,37.6z"/>
		<path id="path380" inkscape:connector-curvature="0" class="st22" d="M0.9,37.6L1,38c0.5-0.1,0.7-0.2,0.5-0.4
			c-0.3-0.3-0.2-0.7,0.1-1.1c0.6-0.7,1.1-0.1,1.4,0.3c0.1,0.1,0.3,0.1,0.6,0c0.3-0.1,0.4-0.2,0.3-0.3c-0.3-0.3-0.8-1.2-1.5-1.1
			l0,0.1c-0.2,0.2-0.3,0.3-0.6,0.4c-0.2,0.1-0.5,0.2-0.8,0.2l-0.4,0.5c0.2,0.2,0.3,0.5,0.3,0.8C0.8,37.5,0.9,37.6,0.9,37.6z"/>
		<path id="path382" inkscape:connector-curvature="0" class="st23" d="M1.2,38c0.3-0.1,0.4-0.2,0.3-0.3c-0.3-0.3-0.2-0.7,0.1-1.1
			l0,0c-0.2,0-0.5-0.1-0.7-0.2l-0.3,0.4c0.1,0.2,0.2,0.4,0.3,0.7C1,37.5,1.1,37.7,1.2,38z"/>
		<path id="path384_00000005946284847657824860000015883864166877108652_" inkscape:connector-curvature="0" class="st21" d="
			M2.9,38.2c-0.5-0.3-0.8-0.7-1-1c-0.4-0.8-0.6-1.7-0.6-2.6c0-0.1-0.2-0.1-0.5,0c-0.3,0-0.5,0.1-0.5,0.2c0,0.5,0.2,1.4,0.6,2.6
			c0.1,0.3,0.5,0.7,1,1c0.8,0.6,1.2,0.9,1.2,0.9c0.1,0.1,0.2,0.1,0.6,0"/>
		<path id="path386_00000093164833106324547000000001982857452033704360_" inkscape:connector-curvature="0" class="st22" d="
			M2.9,38.2c-0.5-0.3-0.8-0.7-1-1c-0.4-0.8-0.6-1.7-0.6-2.6c0-0.1-0.2-0.1-0.5,0c-0.3,0-0.5,0.1-0.5,0.2l0,0.8c0.5,0.2,0.8,0.5,1,1
			c0.2,0.6,0.4,1,0.6,1.2c0.3,0.5,0.7,0.8,1.1,1"/>
		<path id="path388_00000105413985540870240060000013616381090160699036_" inkscape:connector-curvature="0" class="st23" d="
			M2,37.2c-0.4-0.8-0.6-1.7-0.6-2.6c0-0.1-0.1-0.1-0.4-0.1c-0.3,0-0.5,0.1-0.6,0.2c0.4,0.2,0.7,0.5,0.8,1l0.1,0.8l0.1,0.2
			c0.3,0.7,0.6,1.2,0.7,1.4c0.1,0,0.2,0.2,0.6,0.3"/>
	</g>
</g>
<path id="path156_00000131352124225904240580000014474114406285254302_" inkscape:connector-curvature="0" class="st1" d="M22,6.8"
	/>
<path id="path176_00000092433768558096538000000007372086887198725796_" inkscape:connector-curvature="0" class="st2" d="
	M29.3,23.7"/>
<path id="path176_00000030445497540531719800000000144109453699468445_" inkscape:connector-curvature="0" class="st2" d="
	M29.3,23.8"/>
<path id="path178_00000178205192944991479830000005983264554271018660_" inkscape:connector-curvature="0" class="st2" d="
	M29.4,24.1"/>
<path id="path178_00000114772407167872252930000016157438839924215690_" inkscape:connector-curvature="0" class="st2" d="
	M29.7,24.2c0,0.2-0.1,0.4-0.2,0.6h-0.1"/>
<path id="path188_00000023995020781626169710000003664827556336468144_" inkscape:connector-curvature="0" class="st3" d="M28.2,17"
	/>
<path id="path200_00000131328027923707024080000016103086771459823519_" inkscape:connector-curvature="0" class="st3" d="
	M29.3,23.7"/>
<path id="path210_00000056419107818523754300000011521165696097437103_" inkscape:connector-curvature="0" class="st16" d="
	M29.3,23.8"/>
<path id="path210_00000117667409156345687560000011044501129381056442_" inkscape:connector-curvature="0" class="st16" d="
	M29.4,24.1"/>
<path id="path210_00000008110277174339413750000011406243835661222039_" inkscape:connector-curvature="0" class="st16" d="M30,24.7
	l-0.6,0c0.1-0.1,0.2-0.3,0.2-0.6"/>
<path id="path254_00000121272208066404448230000016026432585339475332_" inkscape:connector-curvature="0" class="st2" d="M3.2,20
	l0.2,1.9l-0.3-0.1L3,21.5"/>
<path id="path260_00000011744030911460502730000012975848754815580296_" inkscape:connector-curvature="0" class="st2" d="M2.9,23.9
	H2.8l0.1-0.3l0,1.1l-0.2,0.1l0-0.8L2.9,23.9z"/>
<path id="path264_00000142859022360078543120000002448832381054095235_" inkscape:connector-curvature="0" class="st2" d="M2.6,24.3
	L2.6,24.3l0.1,0.5l-0.5,0"/>
<path id="path274_00000025426880740401594160000000240046446208697733_" inkscape:connector-curvature="0" class="st3" d="M3.4,21.9
	L3.2,20"/>
<path id="path274_00000128464325376102993830000006789080305420911795_" inkscape:connector-curvature="0" class="st3" d="M3.4,17"
	/>
<path id="path282_00000142864868616467267580000004253945734807002796_" inkscape:connector-curvature="0" class="st3" d="M2.7,23.9
	L2.7,23.9l0,0.8h0l0-0.5C2.7,24.2,2.7,24.1,2.7,23.9z"/>
<path id="path290_00000088831677317193023010000000435629290984273821_" inkscape:connector-curvature="0" class="st16" d="
	M3.2,24.6l-0.3,0.1l0-1v0.3l0.2,0.5C3.2,24.5,3.2,24.6,3.2,24.6z"/>
<path id="path292_00000142170844758491485280000012914446702616979126_" inkscape:connector-curvature="0" class="st16" d="
	M3.4,24.5c0-0.5,0-0.9,0-1"/>
<path id="path294_00000067210857008910755980000014147544264902179974_" inkscape:connector-curvature="0" class="st16" d="
	M2.6,23.9h0.3l-0.1,0.1H2.7c0,0.2,0,0.3,0,0.3l-0.1,0"/>
<path id="path324_00000134949880872509911410000005464166530976545186_" inkscape:connector-curvature="0" class="st2" d="M21.3,2.9
	L21.3,2.9l0.6-0.2c-0.3,0-1.5-0.1-3.3-0.3l0.2,0l2.7,0c2,0,3.2,0,3.6,0l0.5-0.1h0.4l-0.4,0.1c0.5-0.1,0.9-0.1,1.1,0l3.1,0l0.1,0.4
	l-1.9,0l-0.8,0.1c-0.3,0.1-0.6,0.1-0.8,0.2c-0.4,0-1.4,0-2.8,0C23.5,2.9,21.3,2.9,21.3,2.9z"/>
<path id="path330_00000061433114784572278340000015565312191471166618_" inkscape:connector-curvature="0" class="st2" d="
	M28.7,22.6"/>
<path id="path330_00000047055679181230462490000008734199327370267535_" inkscape:connector-curvature="0" class="st2" d="
	M28.7,22.7"/>
<path id="path336_00000103978238771431895110000007687203760721483447_" inkscape:connector-curvature="0" class="st3" d="
	M28.8,22.7"/>
<path id="path336_00000102530590157236065330000014385921133544532926_" inkscape:connector-curvature="0" class="st3" d="M28.9,23"
	/>
<path id="path336_00000079459759063497118420000012271235314370497923_" inkscape:connector-curvature="0" class="st3" d="M28.9,23"
	/>
<path id="path336_00000031899557041375453340000011405255775350704548_" inkscape:connector-curvature="0" class="st3" d="
	M28.8,22.7"/>
<path id="path338_00000153700683484123057280000009635206396648343213_" inkscape:connector-curvature="0" class="st3" d="
	M28.7,22.6"/>
<path id="path340_00000176731025603728329790000017074196418900102787_" inkscape:connector-curvature="0" class="st3" d="M13.8,2.3
	c-0.8,0-1.2-0.1-1.4-0.2h0.1c0.5,0,1.2,0,2.1,0.1l0.3,0L20.4,2l-3.9,0.3l-0.9-0.1l-0.5,0.1h-1l0.4,0.1C14.5,2.4,13.8,2.3,13.8,2.3z"
	/>
<path id="path342_00000124868948599973011070000017340289589433783482_" inkscape:connector-curvature="0" class="st16" d="
	M24.1,3.8c0.1,0,0.2,0,0.3,0c-4.1,0-7,0-8.5,0L3.5,4L3.4,2.6l0.3-0.1l2.1,0.1h0.4C6,2.6,5.7,2.7,5.3,2.7H4.2C4,2.7,4.1,2.8,4.4,2.9
	c0,0.1-0.2,0.3-0.8,0.4c0,0,0.2,0,0.5,0l1.8,0c1.7,0.1,2.8,0.1,3.1,0.1C9.1,3.5,24.1,3.8,24.1,3.8z M28.6,3.1L26.5,3
	c0.2,0,0.4-0.1,0.7-0.2L28,2.7l1.9,0c-0.1,0.7-0.3,1.1-0.6,1.1c-0.2,0.1-0.5,0.1-0.9,0.1l-0.6-0.1c-1.1,0-2.1,0-3.1,0
	c0.1,0,0.2,0,0.3-0.1c-0.4-0.1-1-0.1-1.8-0.1l-1.4-0.1c0.4,0,1.1,0,2,0C25,3.4,26,3.4,26.6,3.4l1.4,0l0.8-0.1c0.1,0,0.4-0.1,0.8-0.1
	c0,0,0-0.1,0.1-0.1C29.2,3.1,28.8,3.1,28.6,3.1z"/>
<path id="path344_00000141440371623777268090000000604453889540138922_" inkscape:connector-curvature="0" class="st16" d="M20,3
	l5.7,0c-1.2,0.1-2.2,0.2-2.8,0.2l-2.7,0c-0.5,0-0.9,0-1.1,0l-1.6,0h1c0.5,0,0.8,0,1-0.1C19.6,3.1,20,3,20,3z"/>
<path id="path346_00000174567484156059753910000002126858449691063450_" inkscape:connector-curvature="0" class="st16" d="
	M28.8,22.7"/>
<path id="path346_00000039107344955010645500000003409443859269397676_" inkscape:connector-curvature="0" class="st16" d="M28.9,23
	"/>
<path id="path348_00000174581117970506833630000008997466392624262786_" inkscape:connector-curvature="0" class="st16" d="M15,2.4
	h-0.5l-0.4-0.1h1l0.5-0.1l1.5,0.1C16.8,2.3,16.1,2.4,15,2.4z"/>
<path id="path352_00000125580059954540605630000016920190177717066115_" inkscape:connector-curvature="0" class="st4" d="M19.7,2.3
	L19.7,2.3c0.5-0.1,1.4-0.2,2.6-0.3l0.3-0.1L27,2l0.9,0.1l-2,0.2h-0.4c-1.1,0.1-2.3,0.1-3.6,0C21.9,2.3,19.7,2.3,19.7,2.3z"/>
<path id="path356_00000045581792578076005150000017970411935087038635_" inkscape:connector-curvature="0" class="st4" d="M13.5,2.7
	l0.6-0.2L18,2.4l1.6-0.1l-0.8,0.1l-0.2,0c-2.3,0.3-3.8,0.5-4.5,0.5h-1.4C13,2.8,13.3,2.7,13.5,2.7z"/>
</svg>
