<?xml version="1.0" encoding="utf-8"?>
<!-- Generator: Adobe Illustrator 26.0.2, SVG Export Plug-In . SVG Version: 6.00 Build 0)  -->
<svg version="1.1" id="Layer_1" xmlns="http://www.w3.org/2000/svg" xmlns:xlink="http://www.w3.org/1999/xlink" x="0px" y="0px"
	 viewBox="0 0 1920 1080" style="enable-background:new 0 0 1920 1080;" xml:space="preserve">
<style type="text/css">
	.st0{fill:#9B9359;}
</style>
<path class="st0" d="M926,139.5c-13.09-42.23-21.21-44.26-24-44c-3.54,0.33-6.76,5.15-12,13c-4.65,6.96-7,13.13-8,16
	c-4.23,12.16-4.07,22.46-4,25c0.58,19.6,9.61,24.76,5,35c-1.66,3.69-4.83,7.44-5,14c-0.13,5.01,1.59,7.44,2,8c2.23,3,6.72,5.37,11,4
	c2.84-0.91,4.42-3.1,5-4l10,1l31,57v45.03v49.65v49.65v42.82v60.13l61,28.71l-13-282c27.37-58.78,47.24-102.07,54-116
	c1.16-2.39,4.25-8.69,4-17c-0.3-9.75-5.04-17.06-7-20c-2.73-4.1-7.49-8.06-17-16c-6.44-5.37-10.16-8.45-16-12
	c-5.4-3.29-9.35-4.99-14-7c-9.59-4.14-13.08-4.39-16-4c-1.81,0.24-6.65,0.88-8,4c-0.45,1.05-0.65,2.68,3,10c1.94,3.89,3.44,6.34,5,9
	c3.91,6.69,5.86,10.03,7,13c2.86,7.46,1.54,9.84,5,14c1.44,1.73,2.7,2.56,4,5c1.61,3.01,1.96,5.97,2,8l-59,23L926,139.5z"/>
<path class="st0" d="M934.5,709.5c2.04,3.38,5.25,8.1,10,13c5.22,5.38,9.28,9.57,16,12c1.84,0.66,12.91,4.46,24-1
	c7.56-3.72,11.45-9.93,14-14c2.67-4.26,4.15-8.22,5-11l-5.5-168l-61-28.71"/>
</svg>
