<?xml version="1.0" encoding="utf-8"?>
<!-- Generator: Adobe Illustrator 27.1.1, SVG Export Plug-In . SVG Version: 6.00 Build 0)  -->
<svg version="1.1"
	 id="svg5233" xmlns:dc="http://purl.org/dc/elements/1.1/" xmlns:inkscape="http://www.inkscape.org/namespaces/inkscape" xmlns:cc="http://creativecommons.org/ns#" xmlns:sodipodi="http://sodipodi.sourceforge.net/DTD/sodipodi-0.dtd" xmlns:ns1="http://sozi.baierouge.fr" xmlns:rdf="http://www.w3.org/1999/02/22-rdf-syntax-ns#" xmlns:svg="http://www.w3.org/2000/svg"
	 xmlns="http://www.w3.org/2000/svg" xmlns:xlink="http://www.w3.org/1999/xlink" x="0px" y="0px" viewBox="0 0 772.2 1823.8"
	 style="enable-background:new 0 0 772.2 1823.8;" xml:space="preserve">
<style type="text/css">
	.st0{fill:#EEBA34;}
	.st1{fill:#F8A84F;}
	.st2{fill:#F6414B;}
	.st3{fill:#F8570B;}
	.st4{fill:#F8950B;}
	.st5{fill:#FB2D55;}
	.st6{fill:#FBC02D;}
	.st7{fill:#F85B4F;}
	.st8{fill:url(#path5780_00000040575899305933319870000006120503998360644231_);}
	.st9{fill:#F8C44F;}
	.st10{fill-opacity:0;}
	.st11{fill:#FF4061;}
	.st12{fill:#FFE56E;}
</style>
<sodipodi:namedview  bordercolor="#666666" borderopacity="1.0" fit-margin-bottom="0" fit-margin-left="0" fit-margin-right="0" fit-margin-top="0" id="base" inkscape:current-layer="g6670" inkscape:cx="528.56558" inkscape:cy="347.72724" inkscape:document-units="px" inkscape:guide-bbox="true" inkscape:pageopacity="0.0" inkscape:pageshadow="2" inkscape:window-height="804" inkscape:window-maximized="1" inkscape:window-width="1152" inkscape:window-x="-4" inkscape:window-y="-4" inkscape:zoom="0.49497475" pagecolor="#ffffff" showgrid="false" showguides="true">
	</sodipodi:namedview>
<g id="layer1" transform="translate(1056.6 383.71)" inkscape:groupmode="layer" inkscape:label="Layer 1">
	<g id="g6670">
		<g id="g6815" transform="matrix(.43854 0 0 .43854 -573.03 -15.973)">
			<path id="path5752" inkscape:connector-curvature="0" sodipodi:nodetypes="scscscscscs" class="st0" d="M18,2842
				c-8.9,45.6-134.9,34.7-134.9,34.7s1.7,126.4-44.4,132c-46.1,5.6-74.7-117.5-74.7-117.5s-119.7,40.7-139.3-1.4
				c-19.6-42.1,88.7-107.4,88.7-107.4s-75.7-101.3-41.7-132.9c34-31.6,129.5,51.2,129.5,51.2s72.9-103.3,113.5-80.7
				c40.6,22.6-8.6,139-8.6,139S26.9,2796.5,18,2842L18,2842z"/>
			<g id="g5803" transform="matrix(.88270 -.46995 .46995 .88270 98.037 86.632)">
				
					<path id="path5798" inkscape:connector-curvature="0" inkscape:transform-center-x="8.4651585" inkscape:transform-center-y="-11.377627" sodipodi:nodetypes="ccccccccc" class="st1" d="
					M430.1-486.1c-10.6,82.5-42.1,55.4-73.8,27.4c-47.3,36.1-81.1,43.7-74.8-32.6c-31.8-15.4-92.4-19.2-22.6-75.3
					c-25.2-71.2-7.5-89.5,37.3-74.6c11.3-78.5,45.6-48,77.7-27.6c44-25.5,71.9-22.5,66.2,40.3c62.3,3.4,71.4,29.2,31.3,75.7
					C505.9-475.3,469.2-479.3,430.1-486.1L430.1-486.1z"/>
				<path id="path5801" inkscape:connector-curvature="0" class="st2" d="M426.1-560.9c0,30.1-27.1,54.5-60.6,54.5
					c-33.5,0-60.6-24.4-60.6-54.5c0-30.1,27.1-54.5,60.6-54.5C398.9-615.4,426.1-591,426.1-560.9z"/>
			</g>
			
				<path id="path5241" inkscape:connector-curvature="0" inkscape:transform-center-x="13.77288" inkscape:transform-center-y="-33.287529" sodipodi:nodetypes="acacacacacacacaca" class="st3" d="
				M579.6,2296.9c-6.5,34.7-104.7,15.2-104.7,15.2s57.3,82.1,28.2,102c-29.1,19.9-84.8-63.3-84.8-63.3s-17.5,98.6-52.2,92.1
				c-34.7-6.5-15.2-104.7-15.2-104.7s-82.1,57.3-102,28.2c-19.9-29.1,63.3-84.8,63.3-84.8s-98.6-17.5-92.1-52.2
				c6.5-34.7,104.7-15.2,104.7-15.2s-57.3-82.1-28.2-102c29.1-19.9,84.8,63.3,84.8,63.3s17.5-98.6,52.2-92.1
				c34.7,6.5,15.2,104.7,15.2,104.7s82.1-57.3,102-28.2c19.9,29.1-63.3,84.8-63.3,84.8S586.1,2262.2,579.6,2296.9L579.6,2296.9z"/>
			<path id="path5755" inkscape:connector-curvature="0" class="st3" d="M-152,2784.9c10.2,19.2,3.7,42.6-14.5,52.3
				c-18.2,9.7-41.3,2-51.5-17.2c-10.2-19.2-3.7-42.6,14.5-52.3C-185.3,2758-162.2,2765.7-152,2784.9z"/>
			<path id="path5757" inkscape:connector-curvature="0" class="st4" d="M439.9,2241.8c12.3,23.1,4.3,51.5-17.8,63.3
				c-22.2,11.8-50.1,2.6-62.4-20.5c-12.3-23.1-4.3-51.5,17.8-63.3S427.6,2218.6,439.9,2241.8z"/>
			
				<path id="path5759" inkscape:connector-curvature="0" inkscape:transform-center-x="3.7494401" inkscape:transform-center-y="-16.829975" sodipodi:nodetypes="acacacacacacacacacacacacacacacaca" class="st5" d="
				M-560,1999.6c-14.6,35.7-111.5-30.9-111.5-30.9s94.4,70.2,65.2,95.1C-647,2098.4-722,1953.2-722,1953.2s94.3,135.6,44.2,153.9
				c-45.7,16.7-59.7-133.2-59.7-133.2s33.8,158.8-19.1,157.5c-55.5-1.3-12.1-166.1-12.1-166.1s-19.6,167.4-70.2,147.5
				c-49.5-19.5,48.1-152.1,48.1-152.1s-75.1,138.7-112,103.7c-38.7-36.7,102.4-122.8,102.4-122.8s-125.8,101.2-148.4,53.7
				c-22.1-46.5,132.4-79.6,132.4-79.6s-145.8,45.6-147.5-3.5c-1.8-52.8,158-14.6,158-14.6s-187.5-18.9-164.6-74.6
				c25.1-61.2,186.2,68.7,186.2,68.7s-178.7-103.8-131.1-150.1c43.8-42.6,134.8,124.4,134.8,124.4s-109.9-147.3-54.8-166.5
				c55.3-19.2,60.6,164.8,60.6,164.8s-37.5-185.8,23.2-181.1c52.2,4-4.2,157.1-4.2,157.1s35-146.1,79.4-124.7
				c44.3,21.3-48,139.5-48,139.5s87.2-130.6,122.2-93.1c34.3,36.8-99.4,113.5-99.4,113.5s128.6-86.8,144.8-39.5
				c17,49.5-144.9,60.4-144.9,60.4s159.3-35.4,157.2,17.3c-2.1,53.5-160.6,5.3-160.6,5.3S-538.9,1948.4-560,1999.6L-560,1999.6z"/>
			<path id="path5762" inkscape:connector-curvature="0" class="st6" d="M-677.3,1864c24.8,46.5,8.5,103.6-36.4,127.4
				c-44.8,23.9-101.3,5.5-126-41c-24.8-46.5-8.5-103.6,36.4-127.4C-758.4,1799.1-702,1817.5-677.3,1864z"/>
			<g id="g5794" transform="matrix(.88270 -.46995 .46995 .88270 -507.55 49.708)">
				
					<path id="path5773" inkscape:connector-curvature="0" inkscape:transform-center-x="-3.010614" inkscape:transform-center-y="-2.2232693" sodipodi:nodetypes="acacacacacscacacacaca" class="st6" d="
					M771.7,724.9c-5.4,37.8-114.5,7.1-114.5,7.1s109.4,66.9,81.7,99.8c-28,33.3-113.8-64.2-113.8-64.2s57.3,118.6,15.2,130.8
					c-43.8,12.7-59.3-123.1-59.3-123.1S558,911.6,515.9,894.8C475,878.4,550.2,767,550.2,767s-102,86.5-123.7,48
					c-22.1-39.2,107-82.2,107-82.2S393.7,746.6,403.2,695c4.9-26.6,118-11.5,118-11.5s-107.2-68.1-79-99.9
					c25.3-28.4,97.2,59.8,97.2,59.8S488.9,539.9,525.8,527c37.9-13.3,63.8,102.3,63.8,102.3s11.7-111.8,48.4-102.6
					c37.6,9.5-6,116.2-6,116.2s85.4-75.9,106.9-44c21.9,32.6-82.7,84.1-82.7,84.1S777.5,684.4,771.7,724.9L771.7,724.9z"/>
				<path id="path5776" inkscape:connector-curvature="0" class="st7" d="M631.9,703.9c0,26.2-19.4,47.5-43.4,47.5
					c-24,0-43.4-21.3-43.4-47.5s19.4-47.5,43.4-47.5C612.4,656.4,631.9,677.7,631.9,703.9z"/>
			</g>
			<g id="g5790" transform="matrix(.88270 -.46995 .46995 .88270 -770.24 -43.893)">
				
					<radialGradient id="path5780_00000003815584557692808170000010239987629174674344_" cx="-1445.7957" cy="344.7854" r="170.37" gradientTransform="matrix(0.6236 0.6267 0.3621 -1.1459 813.1869 1408.7758)" gradientUnits="userSpaceOnUse">
					<stop  offset="0" style="stop-color:#F68A11"/>
					<stop  offset="1" style="stop-color:#FCCA91"/>
				</radialGradient>
				
					<path id="path5780" inkscape:connector-curvature="0" inkscape:transform-center-x="-1.3612934" inkscape:transform-center-y="-1.2958651" sodipodi:nodetypes="cccccc" style="fill:url(#path5780_00000003815584557692808170000010239987629174674344_);" d="
					M180.9,168.2c9.6,94.4-16.4,149.1-146.2,88.1C-52.3,272.7-123.8,270-93.9,142.8C-123.2,65.9-123.8,2.2-24.8-15.9
					C47-94.2,98.4-62.4,143.5,3.8C227.9,31.6,268,76.1,180.9,168.2L180.9,168.2z"/>
				<path id="path5785" inkscape:connector-curvature="0" class="st9" d="M139.5,118.8c0,48.5-39.8,87.9-88.9,87.9
					s-88.9-39.3-88.9-87.9c0-48.5,39.8-87.9,88.9-87.9C99.7,30.9,139.5,70.3,139.5,118.8z"/>
			</g>
			<g id="g6660" transform="matrix(.59947 -.31916 .32657 .61339 173.57 -1117.6)">
				
					<path id="path6139" inkscape:connector-curvature="0" inkscape:transform-center-x="0.091828389" inkscape:transform-center-y="11.687195" class="st10" d="
					M-2187.6,2436.9l68.2,79.3l-65.2,68.4l99.4-25l60.5,83.7l-6.8-94.7l102.6-16.7l-103.6-33.5l2.9-94l-57.2,74L-2187.6,2436.9z"/>
				
					<path id="path6145" inkscape:connector-curvature="0" inkscape:transform-center-x="11.324294" inkscape:transform-center-y="-6.0889264" sodipodi:nodetypes="sassssaasaasaasaass" class="st11" d="
					M-2254.3,2567.6c-22.4,17.4-33.5,45.7-18.1,66.2c30.2,40.1,152,5,154.7,28.4c3.3,27.7-89.4,25-112.7,53.4
					c-25.8,31.5,5.9,76.1,50.5,67c41.3-8.4,45.4-111,93.3-92.6c43,16.6-30.8,110.3,13.6,139.2c29.4,19.2,85,4.4,97.4-23
					c17.8-39.3-101.8-93.6-68.9-123.9c32.9-30.3,114.4,65.2,158.7,42.5c25.5-13.1,36.8-57.3,15.7-79.4
					c-36.7-38.5-170,37.4-161.2-2.4c6.7-30.1,134.3-37.8,129.7-89.1c-2.3-26.1-45.4-51.7-74.2-49.3c-51.2,4.3-41.7,119.2-87.6,106
					c-48.4-13.9,33.8-117.4-13.3-148.3c-30.5-20-88.1-4.4-101.4,23.9c-20.7,44.2,94.1,102.4,74.5,141.3
					C-2120.5,2661.2-2220.8,2541.6-2254.3,2567.6L-2254.3,2567.6z"/>
				<path id="path6656" inkscape:connector-curvature="0" class="st12" d="M-2089.1,2630.5c-12.3,7-15.2,21.8-6.3,33.1
					c8.9,11.3,26.1,14.8,38.5,7.9c12.3-7,15.2-21.8,6.3-33.1C-2059.5,2627-2076.7,2623.5-2089.1,2630.5z"/>
			</g>
		</g>
	</g>
</g>
</svg>
