<svg id="Layer_1" data-name="Layer 1" xmlns="http://www.w3.org/2000/svg" viewBox="0 0 606.57 605.36"><defs><style>.cls-1{fill:#f16722;}.cls-2{fill:#f9a22d;}</style></defs><title>gear08</title><g id="Layer_1-2" data-name="Layer 1-2"><g id="_Group_" data-name=" Group "><rect id="_Rectangle_" data-name=" Rectangle " class="cls-1" x="915.72" y="370.51" width="113.7" height="37.9" transform="translate(-159.39 1085.46) rotate(-84.83)"/><rect id="_Rectangle_2" data-name=" Rectangle 2" class="cls-1" x="886.1" y="663.02" width="120.01" height="37.9" transform="matrix(0.09, -1, 1, 0.09, -474.79, 1325.25)"/><rect id="_Rectangle_3" data-name=" Rectangle 3" class="cls-1" x="822.67" y="391.83" width="35.77" height="118.23" transform="translate(-668.3 641.53) rotate(-54.88)"/><rect id="_Rectangle_4" data-name=" Rectangle 4" class="cls-1" x="1063.43" y="561.16" width="35.77" height="118.23" transform="translate(-704.55 910.37) rotate(-54.88)"/><rect id="_Rectangle_5" data-name=" Rectangle 5" class="cls-1" x="1035.44" y="456.02" width="118.23" height="35.77" transform="translate(-754.3 264.88) rotate(-24.78)"/><rect id="_Rectangle_6" data-name=" Rectangle 6" class="cls-1" x="768.19" y="579.39" width="118.23" height="35.77" transform="translate(-830.61 164.22) rotate(-24.78)"/><path id="_Compound_Path_" data-name=" Compound Path " class="cls-2" d="M1261.87,568.57l1.11-11.4a10.74,10.74,0,0,0-7-11.09l-41.82-15a6.93,6.93,0,0,1-4.56-6.21,249.4,249.4,0,0,0-4-34.24,6.91,6.91,0,0,1,3.23-7.26l39-23.23a10.72,10.72,0,0,0,4.72-12.45l-3.5-10.94a10.71,10.71,0,0,0-10.82-7.41l-46.56,2.77a6.94,6.94,0,0,1-6.64-4,243.45,243.45,0,0,0-13.4-24.25,6.93,6.93,0,0,1,.24-7.78l25.44-34.9a10.71,10.71,0,0,0-.41-13.14l-7.33-8.8a10.72,10.72,0,0,0-13-2.75l-37.93,18.88a6.92,6.92,0,0,1-7.83-1.19,253.19,253.19,0,0,0-27-22A6.94,6.94,0,0,1,1101,325l10.64-44.33a6.91,6.91,0,0,0-3.47-7.76l-15.32-8.1a6.93,6.93,0,0,0-8.59,1.58l-29.51,34a6.94,6.94,0,0,1-7.67,1.92,249.8,249.8,0,0,0-34-9.49,6.93,6.93,0,0,1-5.44-5.65l-7.37-43.1c-.52-3.12-3.16-4.56-6.29-4.85l-17.31-1.61c-3.21-.29-6.12.72-7.14,3.78l-13.9,41.52a6.71,6.71,0,0,1-6.37,4.49,253.4,253.4,0,0,0-31.73,2.84,7,7,0,0,1-7.11-3.34l-22.39-38A7,7,0,0,0,880,245.7l-16.56,5.18a7,7,0,0,0-4.86,7L861,301.38a6.92,6.92,0,0,1-4.12,6.65,247.23,247.23,0,0,0-27.47,14.37,6.88,6.88,0,0,1-7.67-.3l-34.69-25.39a10.66,10.66,0,0,0-13.11.35l-8.89,7.2a10.71,10.71,0,0,0-2.8,13l18.29,37.09a6.92,6.92,0,0,1-1.26,7.92,250.4,250.4,0,0,0-22.49,26.6,6.94,6.94,0,0,1-7.21,2.65l-42-10.24a10.71,10.71,0,0,0-12,5.38l-5.37,10.07a10.69,10.69,0,0,0,2.4,13.07l31.27,27.33A6.91,6.91,0,0,1,725.7,445a250.6,250.6,0,0,0-10.49,33.54,6.94,6.94,0,0,1-5.64,5.28l-43,6.82a10.7,10.7,0,0,0-8.93,9.56l-1.13,11.44a10.71,10.71,0,0,0,7.26,11.16l39.88,13.31a6.92,6.92,0,0,1,4.7,6.47,248.54,248.54,0,0,0,3.77,38.2,6.89,6.89,0,0,1-3.12,7.08l-34.68,21.76a10.69,10.69,0,0,0-4.51,12.32l3.47,10.92a10.69,10.69,0,0,0,11.06,7.42L724,637a6.92,6.92,0,0,1,6.86,4.07A249.61,249.61,0,0,0,747,670.8a6.93,6.93,0,0,1-.3,7.92l-26.27,34.47a10.71,10.71,0,0,0,.25,13.28l7.31,8.81a10.68,10.68,0,0,0,12.82,2.91l39.84-18.71a6.9,6.9,0,0,1,7.68,1.26,256.48,256.48,0,0,0,26,21.2,7,7,0,0,1,2.73,7.43L805.9,791.59a10.71,10.71,0,0,0,5.35,12.2l10.15,5.36a10.71,10.71,0,0,0,12.93-2.27L864.11,774a6.92,6.92,0,0,1,7.7-1.8c10.46,4.15,21.15,8.53,32.26,11.32a7,7,0,0,1,5.31,5.83l6.08,44.29c.65,5,4.75,7.69,9.74,8.14l11.32,1c4.91.44,9.36-1.39,11-6l15.1-43.26a6.67,6.67,0,0,1,6.29-4.34,249.43,249.43,0,0,0,37-4.87,7,7,0,0,1,7.24,3.17l23.91,38.09a10.7,10.7,0,0,0,12.34,4.49l11-3.62a10.7,10.7,0,0,0,7.37-11l-3.6-45.69a7,7,0,0,1,3.93-6.77,253.38,253.38,0,0,0,26.72-15.1,7,7,0,0,1,8,.28l34.49,26.48a10.7,10.7,0,0,0,13.31-.21l8.9-7.3a10.7,10.7,0,0,0,2.9-12.78l-19.11-41a6.9,6.9,0,0,1,1.19-7.55,250.83,250.83,0,0,0,20.71-26,6.92,6.92,0,0,1,7.55-2.79l41.79,11.18a10.71,10.71,0,0,0,12.21-5.31l5.39-10.13a10.7,10.7,0,0,0-2.21-12.93l-33.12-30.26a6.91,6.91,0,0,1-1.81-7.48,255.88,255.88,0,0,0,9.36-32.71,7,7,0,0,1,5.83-5.47l42.46-5.75A10.7,10.7,0,0,0,1261.87,568.57Zm-307.36,149A180.57,180.57,0,0,1,780.69,509.14c13.75-89,92.93-155,182.92-152.56A180.56,180.56,0,0,1,1137.44,565C1123.69,653.94,1044.51,720,954.51,717.55Z" transform="translate(-656.45 -237.52)"/><path id="_Compound_Path_2" data-name=" Compound Path 2" class="cls-2" d="M968.68,430.76a106.73,106.73,0,1,0,96.67,115.91A106.73,106.73,0,0,0,968.68,430.76Zm-15.1,167a58.93,58.93,0,1,1,.08,0h-.08Z" transform="translate(-656.45 -237.52)"/></g></g></svg>