<svg id="Layer_1" data-name="Layer 1" xmlns="http://www.w3.org/2000/svg" viewBox="0 0 708.21 706.79"><defs><style>.cls-1{fill:#A9A0BA;}.cls-2{fill:#655A7C;}</style></defs><title>gear01</title><g id="Layer_1-2" data-name="Layer 1-2"><g id="_Group_" data-name=" Group "><rect id="_Rectangle_" data-name=" Rectangle " class="cls-1" x="908.35" y="342.07" width="132.75" height="44.25" transform="translate(-81.45 1115.34) rotate(-84.83)"/><rect id="_Rectangle_2" data-name=" Rectangle 2" class="cls-1" x="873.76" y="683.59" width="140.12" height="44.25" transform="translate(-449.69 1395.31) rotate(-84.83)"/><rect id="_Rectangle_3" data-name=" Rectangle 3" class="cls-1" x="799.7" y="366.96" width="41.77" height="138.04" transform="translate(-613.72 669.56) rotate(-54.88)"/><rect id="_Rectangle_4" data-name=" Rectangle 4" class="cls-1" x="1080.8" y="564.66" width="41.77" height="138.04" transform="translate(-656.05 983.46) rotate(-54.88)"/><rect id="_Rectangle_5" data-name=" Rectangle 5" class="cls-1" x="1048.13" y="441.9" width="138.04" height="41.77" transform="translate(-696.74 324.05) rotate(-24.78)"/><rect id="_Rectangle_6" data-name=" Rectangle 6" class="cls-1" x="736.09" y="585.94" width="138.04" height="41.77" transform="translate(-785.84 206.53) rotate(-24.78)"/><path id="_Compound_Path_" data-name=" Compound Path " class="cls-2" d="M1312.5,573.31l1.29-13.31a12.5,12.5,0,0,0-8.23-12.94l-48.83-17.53a8.09,8.09,0,0,1-5.32-7.26,290.27,290.27,0,0,0-4.67-40,8.05,8.05,0,0,1,3.78-8.48l45.54-27.12a12.52,12.52,0,0,0,5.51-14.54l-4.09-12.77a12.51,12.51,0,0,0-12.63-8.65L1230.49,414a8.11,8.11,0,0,1-7.76-4.61,282.46,282.46,0,0,0-15.64-28.31,8.11,8.11,0,0,1,.28-9.08l29.7-40.75a12.5,12.5,0,0,0-.48-15.34L1228,305.6a12.52,12.52,0,0,0-15.19-3.21l-44.3,22a8.06,8.06,0,0,1-9.13-1.38A295.47,295.47,0,0,0,1128,297.4a8.07,8.07,0,0,1-3.23-8.49l12.43-51.76a8.11,8.11,0,0,0-4.06-9.06l-17.89-9.46a8.08,8.08,0,0,0-10,1.85l-34.47,39.66a8.07,8.07,0,0,1-8.94,2.25,293.16,293.16,0,0,0-39.67-11.08,8.09,8.09,0,0,1-6.35-6.59l-8.6-50.33c-.61-3.65-3.69-5.32-7.35-5.66l-20.22-1.88c-3.74-.34-7.13.84-8.32,4.41L955,239.74a7.81,7.81,0,0,1-7.43,5.24,292.75,292.75,0,0,0-37.05,3.32,8.13,8.13,0,0,1-8.3-3.91L876.1,200a8.16,8.16,0,0,0-9.42-3.64l-19.33,6a8.1,8.1,0,0,0-5.67,8.19l2.81,50.77a8.07,8.07,0,0,1-4.81,7.77,287.45,287.45,0,0,0-32.07,16.78,8,8,0,0,1-9-.36l-40.5-29.64a12.45,12.45,0,0,0-15.31.41l-10.37,8.4a12.51,12.51,0,0,0-3.28,15.19l21.36,43.31a8.09,8.09,0,0,1-1.47,9.24,292.53,292.53,0,0,0-26.26,31.06,8.11,8.11,0,0,1-8.42,3.1l-49-12a12.5,12.5,0,0,0-14,6.29l-6.27,11.75a12.5,12.5,0,0,0,2.8,15.26l36.51,31.91a8.09,8.09,0,0,1,2.06,9.14,292.87,292.87,0,0,0-12.26,39.17,8.06,8.06,0,0,1-6.58,6.15l-50.21,8A12.49,12.49,0,0,0,607,493.45l-1.32,13.35a12.51,12.51,0,0,0,8.47,13l46.57,15.54a8.06,8.06,0,0,1,5.48,7.55,290.09,290.09,0,0,0,4.41,44.6A8.06,8.06,0,0,1,667,595.8l-40.49,25.4a12.5,12.5,0,0,0-5.28,14.39l4.06,12.75A12.47,12.47,0,0,0,638.18,657l46.34-3.74a8.07,8.07,0,0,1,8,4.74,293.77,293.77,0,0,0,18.82,34.67,8.05,8.05,0,0,1-.35,9.24l-30.67,40.26a12.49,12.49,0,0,0,.29,15.5L689.14,768a12.47,12.47,0,0,0,15,3.41l46.52-21.85a8.05,8.05,0,0,1,9,1.47A299,299,0,0,0,790,775.74a8.08,8.08,0,0,1,3.19,8.66l-13,49.31a12.48,12.48,0,0,0,6.24,14.23l11.86,6.26a12.48,12.48,0,0,0,15.08-2.64l34.78-38.38a8.08,8.08,0,0,1,9-2.1c12.21,4.85,24.69,10,37.66,13.23a8.13,8.13,0,0,1,6.2,6.8l7.1,51.71c.76,5.79,5.55,9,11.37,9.5l13.22,1.19c5.73.52,10.93-1.61,12.81-7L963.07,836a7.78,7.78,0,0,1,7.35-5.07,290.05,290.05,0,0,0,43.23-5.69,8.16,8.16,0,0,1,8.45,3.7L1050,873.37a12.51,12.51,0,0,0,14.42,5.25l12.84-4.23a12.5,12.5,0,0,0,8.6-12.86l-4.2-53.34a8.11,8.11,0,0,1,4.59-7.9,295.26,295.26,0,0,0,31.2-17.63,8.11,8.11,0,0,1,9.36.32l40.27,30.92a12.49,12.49,0,0,0,15.54-.25l10.38-8.52a12.47,12.47,0,0,0,3.4-14.92l-22.32-47.91a8.05,8.05,0,0,1,1.4-8.81,293.5,293.5,0,0,0,24.18-30.3,8.1,8.1,0,0,1,8.81-3.26L1257.27,713a12.49,12.49,0,0,0,14.25-6.2l6.31-11.82a12.52,12.52,0,0,0-2.59-15.11l-38.67-35.33a8.05,8.05,0,0,1-2.11-8.72,298.24,298.24,0,0,0,10.93-38.2,8.1,8.1,0,0,1,6.8-6.39l49.58-6.72A12.49,12.49,0,0,0,1312.5,573.31ZM953.64,747.25c-116.4-3-208.37-99.7-205.42-216.11a210.66,210.66,0,0,1,2.47-27.22c16-103.87,108.5-181,213.57-178.12,116.4,2.95,208.37,99.7,205.42,216.1a210.32,210.32,0,0,1-2.46,27.22C1151.16,673,1058.71,750.1,953.64,747.25Z" transform="translate(-605.63 -186.79)"/><path id="_Compound_Path_2" data-name=" Compound Path 2" class="cls-2" d="M970.18,412.41a124.61,124.61,0,1,0,112.87,135.34A124.61,124.61,0,0,0,970.18,412.41Zm-17.63,195a70.45,70.45,0,1,1,.1,0h-.1Z" transform="translate(-605.63 -186.79)"/></g></g></svg>