<?xml version="1.0" encoding="utf-8"?>
<!-- Generator: Adobe Illustrator 25.0.0, SVG Export Plug-In . SVG Version: 6.00 Build 0)  -->
<svg version="1.1" id="Layer_1" xmlns="http://www.w3.org/2000/svg" xmlns:xlink="http://www.w3.org/1999/xlink" x="0px" y="0px"
	 viewBox="0 0 291.3 291.3" style="enable-background:new 0 0 291.3 291.3;" xml:space="preserve">
<style type="text/css">
	.st0{fill:#3F729B;}
	.st1{fill:#FFFFFF;}
</style>
<g>
	<g id="XMLID_1_">
		<g>
			<circle class="st0" cx="145.7" cy="145.7" r="145.7"/>
		</g>
		<g>
		</g>
	</g>
	<path class="st1" d="M195.9,63.7H95.4c-17.5,0-31.7,14.2-31.7,31.7v100.6c0,17.5,14.2,31.7,31.7,31.7h100.6
		c17.5,0,31.7-14.2,31.7-31.7V95.4C227.6,77.9,213.4,63.7,195.9,63.7z M205.9,82l3.6,0v27.2l-27.4,0.1L182,82.1
		C182,82.1,205.9,82,205.9,82z M145.7,118.2c22.7,0,27.4,21.3,27.4,27.4c0,15.1-12.3,27.4-27.4,27.4c-15.1,0-27.4-12.3-27.4-27.4
		C118.2,139.6,122.9,118.2,145.7,118.2z M209.6,194c0,8.7-7,15.7-15.7,15.7H97.1c-8.7,0-15.7-7-15.7-15.7v-66.5h22.8
		c-2.1,5.2-3.3,12.3-3.3,18.3c0,24.7,20.1,44.8,44.8,44.8s44.8-20.1,44.8-44.8c0-6-1.2-13.1-3.3-18.3h22.5L209.6,194L209.6,194z"/>
</g>
</svg>
