<?xml version="1.0" encoding="utf-8"?>
<!-- Generator: Adobe Illustrator 27.1.1, SVG Export Plug-In . SVG Version: 6.00 Build 0)  -->
<svg version="1.1" id="Layer_1" xmlns="http://www.w3.org/2000/svg" xmlns:xlink="http://www.w3.org/1999/xlink" x="0px" y="0px"
	 viewBox="0 0 15375.9 11340.9" style="enable-background:new 0 0 15375.9 11340.9;" xml:space="preserve">
<style type="text/css">
	.st0{fill:#C2E8F9;}
</style>
<path class="st0" d="M6270.3,9930.4c-21.5-264.9-43-529.8-64.5-794.7c-22.8,262.4-45.5,524.7-68.3,787.1
	c-51.6,266.5-63,468.8-41,531.6c9.8,28.1,28.2,58.3,28.2,58.3c22.9,37.8,49.8,82,81,80.4c30.7-1.7,52.5-47.3,70.5-84.8
	c0,0,15.4-32.2,22.2-62C6312.8,10382.7,6304.5,10188.7,6270.3,9930.4z"/>
<path class="st0" d="M2331.6,9817.9c-21.5-264.9-43-529.8-64.5-794.7c-22.8,262.4-45.5,524.7-68.3,787.1
	c-51.6,266.5-63,468.8-41,531.6c9.8,28.1,28.2,58.3,28.2,58.3c22.9,37.8,49.8,82,81,80.4c30.7-1.7,52.5-47.3,70.5-84.8
	c0,0,15.4-32.2,22.2-62C2374.1,10270.2,2365.9,10076.2,2331.6,9817.9z"/>
<path class="st0" d="M9162.5,8707.9c-21.5-264.9-43-529.8-64.5-794.7c-22.8,262.4-45.5,524.7-68.3,787.1
	c-51.6,266.5-63,468.8-41,531.6c9.8,28.1,28.2,58.3,28.2,58.3c22.9,37.8,49.8,82,81,80.4c30.7-1.7,52.5-47.3,70.5-84.8
	c0,0,15.4-32.2,22.2-62C9205,9160.2,9196.8,8966.2,9162.5,8707.9z"/>
<path class="st0" d="M12279.8,6191.2c-21.5-264.9-43-529.8-64.5-794.7c-22.8,262.4-45.5,524.7-68.3,787.1
	c-51.6,266.5-63,468.8-41,531.6c9.8,28.1,28.2,58.3,28.2,58.3c22.9,37.8,49.8,82,81,80.4c30.7-1.7,52.5-47.3,70.5-84.8
	c0,0,15.4-32.2,22.2-62C12322.4,6643.5,12314.1,6449.5,12279.8,6191.2z"/>
<path class="st0" d="M14607.3,10331.1c-21.5-264.9-43-529.8-64.5-794.7c-22.8,262.4-45.5,524.7-68.3,787.1
	c-51.6,266.5-63,468.8-41,531.6c9.8,28.1,28.2,58.3,28.2,58.3c22.9,37.8,49.8,82,81,80.4c30.7-1.7,52.5-47.3,70.5-84.8
	c0,0,15.4-32.2,22.2-62C14649.9,10783.4,14641.6,10589.4,14607.3,10331.1z"/>
<path class="st0" d="M1336.3,6038.4c-21.5-264.9-43-529.8-64.5-794.7c-22.8,262.4-45.5,524.7-68.3,787.1
	c-51.6,266.5-63,468.8-41,531.6c9.8,28.1,28.2,58.3,28.2,58.3c22.9,37.8,49.8,82,81,80.4c30.7-1.7,52.5-47.3,70.5-84.8
	c0,0,15.4-32.2,22.2-62C1378.9,6490.6,1370.6,6296.7,1336.3,6038.4z"/>
<path class="st0" d="M4932.4,2216.6c-21.5-264.9-43-529.8-64.5-794.7c-22.8,262.4-45.5,524.7-68.3,787.1
	c-51.6,266.5-63,468.8-41,531.6c9.8,28.1,28.2,58.3,28.2,58.3c22.9,37.8,49.8,82,81,80.4c30.7-1.7,52.5-47.3,70.5-84.8
	c0,0,15.4-32.2,22.2-62C4975,2668.9,4966.7,2474.9,4932.4,2216.6z"/>
<path class="st0" d="M1555.6,1355.6c-21.5-264.9-43-529.8-64.5-794.7c-22.8,262.4-45.5,524.7-68.3,787.1
	c-51.6,266.5-63,468.8-41,531.6c9.8,28.1,28.2,58.3,28.2,58.3c22.9,37.8,49.8,82,81,80.4c30.7-1.7,52.5-47.3,70.5-84.8
	c0,0,15.4-32.2,22.2-62C1598.2,1807.9,1589.9,1613.9,1555.6,1355.6z"/>
<path class="st0" d="M7214.4,5309.7c-21.5-264.9-43-529.8-64.5-794.7c-22.8,262.4-45.5,524.7-68.3,787.1
	c-51.6,266.5-63,468.8-41,531.6c9.8,28.1,28.2,58.3,28.2,58.3c22.9,37.8,49.8,82,81,80.4c30.7-1.7,52.5-47.3,70.5-84.8
	c0,0,15.4-32.2,22.2-62C7256.9,5761.9,7248.7,5568,7214.4,5309.7z"/>
<path class="st0" d="M10374.7,2945.3c-21.5-264.9-43-529.8-64.5-794.7c-22.8,262.4-45.5,524.7-68.3,787.1
	c-51.6,266.5-63,468.8-41,531.6c9.8,28.1,28.2,58.3,28.2,58.3c22.9,37.8,49.8,82,81,80.4c30.7-1.7,52.5-47.3,70.5-84.8
	c0,0,15.4-32.2,22.2-62C10417.2,3397.6,10408.9,3203.6,10374.7,2945.3z"/>
<path class="st0" d="M13608.8,1153.4c-21.5-264.9-43-529.8-64.5-794.7c-22.8,262.4-45.5,524.7-68.3,787.1
	c-51.6,266.5-63,468.8-41,531.6c9.8,28.1,28.2,58.3,28.2,58.3c22.9,37.8,49.8,82,81,80.4c30.7-1.7,52.5-47.3,70.5-84.8
	c0,0,15.4-32.2,22.2-62C13651.3,1605.7,13643.1,1411.7,13608.8,1153.4z"/>
</svg>
