<svg id="Layer_1" data-name="Layer 1" xmlns="http://www.w3.org/2000/svg" viewBox="0 0 82.76 82.76"><defs><style>.cls-1{fill:#fff;}</style></defs><title>email_icon</title><g id="Layer_1-2" data-name="Layer 1-2"><path class="cls-1" d="M979.85,524.94H939.61a1,1,0,0,0-1,.95h0v28.76a1,1,0,0,0,1,1h40.24a1,1,0,0,0,.95-1V525.89A1,1,0,0,0,979.85,524.94Zm-1,26.43L967,539.5l-1.36,1.35,12.83,12.83H941l12.83-12.83-1.37-1.35-11.86,11.87V526.84h38.32Z" transform="translate(-918.35 -498.89)"/><path class="cls-1" d="M977,526.86l-17.23,17.23L942.5,526.86h-1.93v.77l18.49,18.48a.94.94,0,0,0,1.32,0l0,0,18.49-18.48v-.77Z" transform="translate(-918.35 -498.89)"/><path class="cls-1" d="M1001.11,540.27a41.38,41.38,0,1,0-41.38,41.38A41.38,41.38,0,0,0,1001.11,540.27Zm-79,0a37.63,37.63,0,1,1,37.63,37.63,37.62,37.62,0,0,1-37.63-37.63Z" transform="translate(-918.35 -498.89)"/></g></svg>