<svg id="Layer_1" data-name="Layer 1" xmlns="http://www.w3.org/2000/svg" viewBox="0 0 457.4 457.4"><defs><style>.cls-1{fill:#f16722;}</style></defs><title>gear04</title><g id="Layer_1-2" data-name="Layer 1-2"><g id="Layer_2-2" data-name="Layer 2-2"><g id="Layer_1-2-2" data-name="Layer 1-2-2"><path class="cls-1" d="M1187.47,572.73l1-57.06-61.49-11.27a170.27,170.27,0,0,0-20.46-51.87l37.19-50.25-39.8-41.12-51.51,35.37a171.19,171.19,0,0,0-51.11-22.15L992,312.53l-57-1-11.05,61.49A169.56,169.56,0,0,0,872,393.59l-50.51-37.23L780.62,396,816,447.44a169.49,169.49,0,0,0-22.15,51.18L732,507.84l-1,57L792.48,576A170,170,0,0,0,813,627.94l-37.25,50.38,39.67,41L867,683.88a170.83,170.83,0,0,0,51.08,22.31L927.27,768l57.06,1,11.17-61.65a169.08,169.08,0,0,0,51.84-20.5l50.28,37.26,41-39.67-35.4-51.48a171.78,171.78,0,0,0,22.31-51.14ZM962,656.9a116.73,116.73,0,1,1,114.31-119.09v.08a109.94,109.94,0,0,1-.37,11.9A116.79,116.79,0,0,1,962,656.9Z" transform="translate(-731.03 -311.57)"/></g></g></g></svg>