<?xml version="1.0" encoding="utf-8"?>
<!-- Generator: Adobe Illustrator 26.0.2, SVG Export Plug-In . SVG Version: 6.00 Build 0)  -->
<svg version="1.1" id="Layer_1" xmlns="http://www.w3.org/2000/svg" xmlns:xlink="http://www.w3.org/1999/xlink" x="0px" y="0px"
	 viewBox="0 0 1922.9 456.9" style="enable-background:new 0 0 1922.9 456.9;" xml:space="preserve">
<style type="text/css">
	.st0{fill:none;}
	.st1{fill:#595866;}
	.st2{fill:#595866;stroke:#595866;stroke-miterlimit:10;}
	.st3{fill:#595866;stroke:#595866;stroke-width:1;stroke-miterlimit:10.0001;}
	.st4{fill:none;stroke:#595866;stroke-miterlimit:10;}
	.st5{fill:#595866;stroke:#595866;stroke-width:0.25;stroke-miterlimit:10;}
	.st6{fill:#BDD6E4;stroke:#BDD6E4;stroke-width:0.25;stroke-miterlimit:10;}
	.st7{fill:#BDD6E4;}
	.st8{fill:#BDD6E4;stroke:#BDD6E4;stroke-miterlimit:10;}
	.st9{fill:#FFA774;}
	.st10{fill:#FFA774;stroke:#FFA774;stroke-miterlimit:10;}
	.st11{fill:#FFA774;stroke:#FFA774;stroke-width:1;stroke-miterlimit:10.0003;}
	.st12{fill:#6B5A3E;stroke:#6B5A3E;stroke-miterlimit:10;}
	.st13{fill:#FFFFFF;}
</style>
<polyline class="st0" points="1921.9,455.9 1921.9,90.9 1.9,90.9 "/>
<path class="st1" d="M41.2,207.3c52.6-13.4,100.3-40.4,150-61.4l-7.1,3c37.7-15.8,77.1-27.2,117.7-32.7l-7.9,1
	c32-4.3,64.4-4.4,96.4-0.3l-7.9-1.1c26.3,3.6,52,10.6,76.5,20.9l-7.1-3c39.5,16.9,76.3,40.2,113.4,61.6
	c38.8,22.4,77.6,44.8,116.4,67.1l65.5,37.8c13.5,7.8,33.2,3.6,40.7-10.7s3.7-32.4-10.7-40.7l-134.6-77.6l-67.3-38.8
	c-21.2-12.2-42.3-24.8-64.1-36.2c-22.5-11.7-46-22-70.4-29c-23.9-6.7-48.5-10.8-73.3-12.3c-47.4-3.2-95.9,3.3-141.6,16
	c-52.9,14.8-101,40.9-151.3,62.2l7.1-3c-18.4,7.8-37.2,14.7-56.5,19.6C10,153.5-0.6,171.2,4.3,186.3
	C9.6,202.1,25.1,211.4,41.2,207.3z"/>
<path class="st1" d="M1762.1,224.7c55.7-26.3,105.9-63,147.8-108.3c10.6-11.4,12.2-30.9,0-42.1c-11.5-10.6-30.8-12.2-42.1,0
	c-10,10.8-20.5,21.1-31.5,31c-5.5,4.9-11.1,9.7-16.8,14.3c-1.3,1.1-2.7,2.1-4,3.2c-1.5,1.2-6.6,4.5,0.7-0.5c-3,2.1-5.9,4.5-8.8,6.6
	c-23.6,17.2-48.8,32-75.2,44.4c-6.4,3-11.9,11.2-13.7,17.8c-2,7.1-1.1,16.6,3,22.9C1730.8,228.6,1747,231.8,1762.1,224.7
	L1762.1,224.7z"/>
<path class="st1" d="M22.6,152.7l-17.3,4.1c-2.6,0.7-4.4,3.1-4.4,5.7c2.3,63.9,2.4,127.9,0.3,191.9c-0.2,7.7,11.7,7.7,11.9,0
	c2.1-63.9,2-127.9-0.3-191.9l-4.4,5.7l17.3-4.1C33.2,162.4,30,150.9,22.6,152.7L22.6,152.7z"/>
<path class="st1" d="M5,194.6c-0.1,10.6-1.2,21.1-3.3,31.5c-1.5,7.5,9.2,10.5,11.5,3.2c1.7-5.3,2.3-10.9,1.8-16.5
	c-0.7-7.6-12.6-7.6-11.9,0c0.5,4.5,0,9-1.4,13.3l11.5,3.2c2.4-11.4,3.6-23,3.7-34.6C17,187,5.1,186.9,5,194.6L5,194.6z"/>
<path class="st1" d="M777.5,267.7l6.5,181.5c0.3,7.6,12.2,7.7,11.9,0l-6.5-181.5C789.2,260,777.3,260,777.5,267.7L777.5,267.7z"/>
<rect x="15.4" y="199.4" class="st2" width="627" height="250"/>
<polygon class="st2" points="2.4,213.4 59.4,385.4 15.4,456.4 1.4,456.4 "/>
<rect x="642.4" y="449.4" class="st2" width="144" height="6"/>
<rect x="629.4" y="227.4" class="st2" width="85" height="227"/>
<rect x="183.4" y="134.4" class="st2" width="391" height="140"/>
<rect x="56.4" y="179.4" class="st2" width="142" height="48"/>
<rect x="118.43" y="129.39" transform="matrix(0.3795 -0.9252 0.9252 0.3795 -59.9948 239.334)" class="st3" width="60" height="70"/>
<rect x="148.4" y="256.4" class="st2" width="70" height="60"/>
<rect x="148.4" y="164.4" class="st2" width="32" height="15"/>
<rect x="211.4" y="106.4" class="st2" width="257" height="65"/>
<rect x="164.4" y="158.4" class="st2" width="36" height="36"/>
<rect x="700.4" y="267.4" class="st2" width="86" height="182"/>
<rect x="7.4" y="194.4" class="st2" width="622" height="261"/>
<line class="st4" x1="11.4" y1="324.4" x2="2.4" y2="324.4"/>
<line class="st4" x1="33.4" y1="340.4" x2="24.4" y2="340.4"/>
<line class="st4" x1="24.4" y1="373.4" x2="15.4" y2="373.4"/>
<line class="st4" x1="20.4" y1="344.9" x2="21.4" y2="336"/>
<rect x="1722.4" y="192.4" class="st2" width="200" height="264"/>
<rect x="1802.4" y="137.4" class="st2" width="120" height="70"/>
<rect x="1877.4" y="73.4" class="st2" width="44" height="71"/>
<path class="st1" d="M1871.5,74.8c4.4-1.3,7.7-4,11-7.1c4.4-4.1,8.7-8.3,12.9-12.5c8.8-8.6,17.4-17.4,25.8-26.4
	c1.3-1.4-0.8-3.5-2.1-2.1c-7.6,8.1-15.2,16-23.1,23.8c-3.8,3.8-7.6,7.5-11.5,11.2c-4.1,3.9-8.1,8.6-13.8,10.3
	C1868.9,72.5,1869.8,75.4,1871.5,74.8L1871.5,74.8z"/>
<path class="st1" d="M1875.1,72.1c2.4-0.8,4.6-2.2,6.4-4.1c1-1,0-3-1.4-2.5c-3.4,1.3-6.6,3.2-9.4,5.5l2.1,2.1
	c8.3-6.7,16.3-13.8,24-21c3.6-3.4,7.2-6.9,10.8-10.5c3.6-3.7,7.3-9,12-11.4l-2.2-0.9l0.4,2c0.4,1.9,3.2,1.1,2.9-0.8l-0.4-2
	c-0.2-0.8-1.1-1.3-1.9-1c-0.1,0-0.2,0.1-0.3,0.1c-4,2-6.9,6-10,9.2c-3.9,4-7.9,8-12,11.9c-8.2,7.8-16.6,15.2-25.4,22.3
	c-1.5,1.2,0.6,3.3,2.1,2.1c2.4-2,5.2-3.6,8.1-4.8l-1.4-2.5c-1.4,1.5-3.2,2.6-5.1,3.3C1872.5,69.9,1873.3,72.7,1875.1,72.1
	L1875.1,72.1z"/>
<path class="st1" d="M1884.7,62.5c0.2,1.3,0.1,2.7-0.3,4c-0.2,0.8,0.3,1.6,1.1,1.8c0.6,0.2,1.3-0.1,1.7-0.7c1.1-1.5,2.3-2.9,3.7-4.2
	c1.2-1.1-0.4-3.3-1.8-2.3c-4.1,2.9-8.3,5.7-12.7,8.3l1.8,2.3c5.6-6.1,12.5-10.9,20.2-14l-1.4-2.5l-16.5,20.9l2.3,1.8
	c3.5-7.7,8.1-14.9,13.7-21.2l-2.3-1.8l-7.4,13.3c-1,1.7,1.4,3,2.6,1.5l9.1-12.2l-2.6-1.5c-3.1,5.5-6.5,10.8-10,16l2.6,1.5
	c3.7-7.9,8-15.4,13-22.5l-2.7-0.4c0.8,3.1-2,7.2-3.4,10s-2.9,5.5-4.5,8.1l2.7,1.2c2.2-6.4,5.3-12.4,9.1-17.9l-2.7-1.1
	c-1.4,5.1-3.1,10.2-5.1,15.1l2.9,0.8c1.7-4.8,4.2-9.4,7.3-13.5l-2.8-0.8c-0.9,7.8-3.2,17.3,0.3,24.8c0.8,1.7,3.4,0.2,2.6-1.5
	c-3.1-6.6-0.7-16.3,0.1-23.3c0.2-1.6-2-1.8-2.8-0.8c-3.2,4.3-5.8,9.2-7.6,14.2c-0.7,1.8,2.2,2.5,2.9,0.8c2-4.9,3.7-10,5.1-15.1
	c0.2-0.8-0.3-1.6-1.1-1.8c-0.6-0.1-1.2,0.1-1.6,0.6c-4,5.7-7.2,12-9.4,18.6c-0.6,1.6,1.9,2.6,2.7,1.2c2.3-4,4.5-8.1,6.5-12.3
	c1.3-2.8,2.5-5.1,1.7-8.1c-0.2-0.8-1.1-1.2-1.9-1c-0.3,0.1-0.6,0.3-0.8,0.6c-5,7.1-9.3,14.7-13,22.5c-0.4,0.7-0.1,1.6,0.6,2
	c0.7,0.3,1.5,0.1,1.9-0.5c3.5-5.2,6.9-10.6,10-16c1-1.7-1.4-3-2.6-1.5l-9.1,12.2l2.6,1.5l7.4-13.3c0.8-1.4-1.2-3.1-2.3-1.8
	c-5.8,6.5-10.6,13.9-14.2,21.8c-0.6,1.4,1.2,3.2,2.3,1.8l16.5-20.8c0.8-1,0.1-3.1-1.4-2.5c-8.2,3.3-15.5,8.3-21.5,14.8
	c-0.6,0.6-0.6,1.5,0,2.1c0.5,0.5,1.2,0.6,1.8,0.2c4.3-2.6,8.5-5.4,12.7-8.3l-1.8-2.3c-1.5,1.5-2.9,3.1-4.2,4.8l2.7,1.2
	c0.3-1.6,0.5-3.2,0.4-4.8C1887.6,60.7,1884.6,60.7,1884.7,62.5L1884.7,62.5z"/>
<rect x="1890.9" y="56.9" class="st5" width="31" height="22"/>
<rect x="1880.9" y="96.9" class="st5" width="31" height="22"/>
<rect x="1895.9" y="49.9" class="st5" width="26" height="60"/>
<rect x="1900.9" y="45.9" class="st5" width="21" height="4"/>
<rect x="1911.9" y="33.9" class="st5" width="7" height="17"/>
<rect x="1918.9" y="27.9" class="st5" width="3" height="23"/>
<rect x="1903.9" y="44.9" class="st5" width="9" height="2"/>
<rect x="1908.9" y="37.9" class="st5" width="4" height="8"/>
<rect x="1903.9" y="41.9" class="st5" width="10" height="3"/>
<rect x="1915.9" y="30.9" class="st6" width="4" height="4"/>
<path class="st7" d="M10.3,212.5c88.7,29.7,184.6,30.2,273.6,1.5c28.3-9.1,55.6-20.7,82.9-32.5c53.9-23.2,108.7-48.3,167.6-54.8
	c62.7-6.9,125.8,6.9,183.8,30.5c58.4,23.8,112.1,57.7,164.7,92.2c6.7,4.4,13.4,8.8,20.1,13.2c6.4,4.2,12.4-6.1,6-10.3
	c-53-34.9-106.3-70-164.2-96.5C688,129.9,626.4,112.2,563.6,113c-60.4,0.8-116.9,21.4-171.8,44.8c-55.5,23.7-110.4,49-170.3,59.3
	c-61.7,10.6-125,7.4-185.4-9.2c-7.6-2.1-15.2-4.4-22.6-6.9C6.2,198.5,3,210,10.3,212.5L10.3,212.5z"/>
<path class="st7" d="M729.3,157c55.9,46.8,133.8,53.8,202.7,37.3c79.8-19.1,148.9-65.7,219.2-106c36.2-20.8,73.3-40.3,112.9-53.6
	c78.6-26.5,163.2-29.8,243.7-9.7c40.2,10,79,25,116.8,41.9c38.6,17.3,76.4,36.4,114.3,55.1l120.7,59.5l29.9,14.7
	c6.8,3.4,12.9-6.9,6-10.3c-78.5-38.7-156.6-78.3-235.7-115.8C1585.6,34.9,1508.4,5,1425.7,0.6c-41-2.1-82.1,1.4-122.1,10.5
	c-39.9,9.1-78,24.2-114.4,42.8c-72.9,37.2-139.6,86.8-216.7,115.5c-68,25.3-148.2,32.9-213.1-5.5c-7.6-4.5-14.9-9.6-21.7-15.3
	C731.9,143.7,723.4,152.1,729.3,157L729.3,157z"/>
<path class="st7" d="M1896.2,199.2c4.6,0.6,8.8,3,11.6,6.7c1.9,2.6,5.1,3.9,8.2,2.1c2.5-1.5,4.1-5.6,2.1-8.1
	c-5.2-7.1-13.2-11.7-21.9-12.6c-3.2-0.4-6,3-6,6C1890.2,196.8,1892.9,198.8,1896.2,199.2L1896.2,199.2z"/>
<path class="st7" d="M2.8,208.8c3.5,11.9,4.8,24.3,3.8,36.6c-0.6,7.7,11.2,7.5,11.9,0c1-11.4-1.1-22.9-6-33.2
	c-2.4-5.3-11.7-2.8-11.1,3c2.9,29.6,3.5,59.5,1.7,89.2c-0.5,7.7,11.4,7.6,11.9,0c1.8-29.7,1.2-59.5-1.7-89.2l-11.1,3
	c3.9,8.5,5.4,17.9,4.4,27.2h11.9c1-13.4-0.4-26.9-4.2-39.8C12.1,198.3,0.6,201.4,2.8,208.8L2.8,208.8z"/>
<rect x="2.4" y="227.4" class="st8" width="1918" height="225"/>
<rect x="438.4" y="145.4" class="st8" width="279" height="99"/>
<rect x="705.4" y="171.4" class="st8" width="51" height="69"/>
<rect x="731.4" y="199.4" class="st8" width="124" height="28"/>
<rect x="705.4" y="149.4" class="st8" width="21" height="30"/>
<rect x="716.4" y="171.4" class="st8" width="1" height="1"/>
<rect x="456.4" y="138.4" class="st8" width="234" height="23"/>
<rect x="426.4" y="150.4" class="st8" width="20" height="79"/>
<rect x="236.4" y="220.4" class="st8" width="202" height="13"/>
<rect x="407.4" y="157.4" class="st8" width="19" height="70"/>
<rect x="386.4" y="164.4" class="st8" width="27" height="57"/>
<rect x="264.4" y="213.4" class="st8" width="130" height="14"/>
<rect x="307.4" y="199.4" class="st8" width="95" height="21"/>
<rect x="282.4" y="206.4" class="st8" width="31" height="10"/>
<rect x="323.4" y="188.4" class="st8" width="90" height="15"/>
<rect x="381.4" y="164.4" class="st8" width="16" height="39"/>
<rect x="363.4" y="176.4" class="st8" width="26" height="23"/>
<rect x="349.4" y="182.4" class="st8" width="19" height="12"/>
<rect x="373.4" y="172.4" class="st8" width="16" height="12"/>
<rect x="514.4" y="123.4" class="st8" width="128" height="22"/>
<rect x="485.4" y="130.4" class="st8" width="36" height="15"/>
<rect x="468.4" y="130.4" class="st8" width="27" height="8"/>
<rect x="639.4" y="130.4" class="st8" width="22" height="22"/>
<rect x="15.4" y="209.4" class="st8" width="22" height="30"/>
<rect x="30.4" y="220.4" class="st8" width="52" height="19"/>
<path class="st7" d="M682.4,143.6c17.2,1.4,32.6,7.9,47.9,15.6c6.8,3.5,12.8-6.8,6-10.3c-8.5-4.3-17.5-7.5-26-11.5
	c-9-3.5-18.2-5-27.8-5.8C674.8,131.1,674.8,143,682.4,143.6L682.4,143.6z"/>
<path class="st7" d="M724.9,170.1c6.8,3.8,14.8,7.8,22.6,9c7.2,1.1,12.7,3.1,17.6,8.8l2.6-10c-7.5,1.5-14.9,3.3-21.3,7.6l7.2,9.3
	l7.3-6.6l-10-2.6c3.2,9.1,12.3,10.1,20.4,7.4l-4.6-10.9l-17.2,8c-6.4,3-1.7,12.2,4.6,10.9c6.8-1.5,13.5-2.9,20.4-4
	c5.6-0.8,13.5-2.6,18.7,0.3l3-11.1c-14.7,1.6-29.6,1.8-44.4,0.5v11.9c15,0,29.9,2.4,44.1,7.1c7.3,2.4,10.4-9.1,3.2-11.5
	c-15.2-5-31.2-7.6-47.3-7.5c-7.8,0-7.5,11.3,0,11.9c14.8,1.2,29.7,1.1,44.4-0.5c5.5-0.6,8.6-8,3-11.1c-7-3.9-14.9-3.2-22.5-2.2
	c-8.7,1-17.2,2.8-25.7,4.7l4.6,10.9l17.2-8c6.1-2.8,1.8-13-4.6-10.9c-0.6,0.2-5.4,2-5.8,0.9c-0.9-3.2-4.2-5-7.4-4.1
	c-1,0.3-1.9,0.8-2.6,1.5l-7.3,6.6c-4.9,4.5,1.6,13.2,7.2,9.3s12-5.1,18.5-6.4c4.7-0.9,5.3-6.8,2.6-10c-4.8-5.6-11.3-9.5-18.4-11.2
	c-3.9-0.9-7.6-1.3-11.4-2.6c-4.4-1.6-8.6-3.5-12.7-5.8C724.2,156.1,718.2,166.4,724.9,170.1z"/>
<path class="st7" d="M852.1,205c-1.7,6.5,0.3,13.4,5.4,17.8c6,5.2,15,4.8,22.5,5.4c18.4,1.5,36.9,2.3,55.4,2.4
	c18.2,0.1,36.4-1.3,54.5-0.5c16.4,0.7,33.3,3.6,49-2.7c5.7-2.3,5.6-9.2,0-11.5c-15.7-6.5-33.1-7-49.8-7.6c-18-0.6-36-0.5-54-0.3
	c-17.7,0.2-35.3,0.5-53,0.3c-4.6,0-9.2-0.1-13.7-0.3c-2,0-3.9-0.1-5.9-0.2s-6.1-1.1-7.8-0.3c-0.2,0.1-0.9-0.3-1-0.2
	s-0.2,4.2,0.4,4.7c0.5,0.4,5-0.4,5.8-0.5c4.6-0.2,9.2-0.5,13.7-0.7c36-1.6,72-1.4,108,0.5c18,1,36,2.4,53.9,4.2
	c6.3,0.6,14.2,0.9,16.1-6.8c1.6-6.8-4.2-12.1-10.4-13c-9.4-1.5-19.7-0.5-29.2-0.7c-10.2-0.2-20.5-0.5-30.7-0.9
	c-20.5-0.8-40.9-1.8-61.4-2.8l1.6,11.7l103.5-24.7l-3.1-11.5c-22.4,8.9-46.1,13.8-69.7,18.5c-7.1,1.4-4.6,11.1,1.6,11.7
	c28.7,2.9,57.5,1.5,86.3,0c7.6-0.4,7.7-12.1,0-11.9l-51.9,1.2l3,11.1c11.3-6.1,24.1-8.8,36.9-7.8v-11.9l-6.8,0.7
	c-7.5,0.8-7.6,12.7,0,11.9l6.8-0.7c7.5-0.8,7.8-11.4,0-11.9c-14.9-1-29.8,2.3-42.9,9.5c-5.2,2.8-2.8,11.2,3,11.1l51.9-1.2v-11.9
	c-28.7,1.5-57.6,2.9-86.3,0l1.6,11.7c23.6-4.7,47.2-9.6,69.6-18.5c7-2.8,4.5-13.3-3.2-11.5l-103.5,24.7c-6.8,1.6-4.9,11.4,1.6,11.7
	c36,1.8,71.9,3.6,108,4l5.9,0.1c1.2,0,4.4,0.6,5.7,0.1s0,1.7,1.4-1.6s0.9-1-0.2-1.6c-1.6-0.8-5.3-0.5-7.1-0.7
	c-8.8-0.9-17.6-1.7-26.4-2.3c-18-1.3-36-2.3-54-2.8c-17.7-0.5-35.4-0.6-53-0.2c-8.8,0.2-17.7,0.5-26.5,0.8
	c-4.3,0.2-8.5,0.4-12.8,0.6c-3.7,0.2-7.7,0.1-11.2,1.4c-6.1,2.3-9.5,9.8-4.3,15c4.8,4.8,14,3.7,20.1,3.8c17.7,0.6,35.3,0.4,53,0.2
	c20-0.2,39.9-0.6,59.9-0.2c19.1,0.4,39.5,0,57.5,7.5v-11.5c-13.6,5.5-28,3.3-42.2,2.5c-15.4-0.9-30.9,0.1-46.3,0.3
	c-15.8,0.2-31.7-0.2-47.5-1c-7.6-0.4-15.2-0.9-22.7-1.6c-5-0.4-15.3-0.1-13.5-7.9C865.4,200.8,853.9,197.6,852.1,205L852.1,205z"/>
<path class="st7" d="M995.6,178.7c27.5-11.9,56-22.7,82.4-37.1c11.8-6.5,23.1-13.9,34.7-20.8c5.9-3.5,11.9-6.9,18-9.9
	c2.8-1.4,5.7-2.7,8.6-4c1.6-0.7,3.2-1.3,4.9-1.9c0.8-0.3,1.6-0.6,2.4-0.9c1.8-0.6,2.2-0.7,1.2-0.4l-3.6-2.7l0.4,0.7l-0.6-4.6
	c-0.5,2.4-8.1,5.7-10.1,6.9c-4.6,2.7-9.1,5.4-13.7,8.1c-9.4,5.5-18.9,11-28.4,16.3c-18.9,10.5-38.2,20.3-58.3,28.2
	c-6.7,2.7-19.1,5.8-16.5,15.8c1,3.8,4.4,6.3,8.1,6.9c5.1,0.8,10-2.1,14.5-4.1c9.5-4,18.8-8.5,27.7-13.7c8.9-5.3,16.9-12,25.5-17.8
	c9.7-6.4,20.1-11.5,30.3-17c5.3-2.9,10.4-6,15.6-9c4.9-2.8,10.2-5.8,16-4.4l-2.6-10c-17.6,16.8-39,28.3-59.8,40.4
	c-10.5,6.1-20.6,12.6-30.7,19.2c-5.1,3.4-10.3,6.7-15.7,9.7c-2.5,1.4-5.1,2.7-7.8,3.9c-1.4,0.6-3.8,1.2-5,2.1c1-0.7,1.8,2.6,1-1.2
	l-4.2,7.3c20.3-4,38-14.8,54-27.5c8-6.4,15.5-13.3,23-20.3c6.8-6.2,14.6-13.3,24.2-14.4l-3-11.1l-10,7.3c-5.3,3.8-2.3,12.5,4.6,10.9
	c8.9-2.2,17.9-3.9,27-5.1l-5.1-9l-3.7,5.2c-4.4,6.3,5.9,12.2,10.3,6l3.7-5.2c2.4-3.4-0.8-9.5-5.1-9c-10.1,1.3-20.2,3.2-30.1,5.5
	l4.6,10.9l10-7.3c4.2-3,3.5-11.8-3-11.1c-20.3,2.3-34,19.8-48.6,32.4c-16.3,14-34.4,26-55.7,30.3c-3.3,0.7-4.7,4.4-4.2,7.3
	c1.1,5.5,4.7,10.7,10.9,10.1s13-4.8,18.4-7.8c13-7.2,24.8-16.1,37.5-23.7c24.4-14.7,50.2-27.6,71.1-47.4c2.3-2.4,2.3-6.2,0-8.5
	c-0.7-0.7-1.6-1.2-2.6-1.5c-15.4-3.7-28.9,8.2-41.6,15c-14.4,7.7-28.2,15.5-41.4,25.2c-13.4,9.8-27.8,17.1-43,23.7
	c-0.9,0.3-1.8,0.6-2.6,1.1l-0.9,0.4l0.3,4.1c1.5-0.5,3-1.1,4.4-1.8c4.1-1.6,8.1-3.2,12.1-4.9c7.6-3.2,15.2-6.6,22.7-10.3
	c14.9-7.2,29.4-15.2,43.7-23.4c7.3-4.2,14.6-8.5,21.8-12.8c6.2-3.7,13.1-7,18.3-12c4.2-4.2,6.1-12.2-1.6-14.1
	c-6.1-1.5-14.6,3.6-20,6.1c-13.8,6.2-26.7,14.4-39.6,22.3c-31.9,19.6-66.7,33.2-100.9,48C982.5,171.4,988.6,181.7,995.6,178.7
	L995.6,178.7z"/>
<rect x="1088.4" y="121.4" class="st8" width="505" height="116"/>
<rect x="1028.4" y="165.4" class="st8" width="87" height="87"/>
<rect x="1065.4" y="148.4" class="st8" width="31" height="31"/>
<rect x="1305.4" y="22.4" class="st8" width="226" height="133"/>
<rect x="1583.4" y="49.4" class="st8" width="26" height="203"/>
<rect x="1604.4" y="56.4" class="st8" width="21" height="177"/>
<rect x="1858.4" y="193.4" class="st8" width="62" height="34"/>
<rect x="1609.4" y="155.4" class="st8" width="222" height="92"/>
<rect x="1805.4" y="185.4" class="st8" width="83" height="17"/>
<rect x="1827.4" y="164.4" class="st8" width="16" height="29"/>
<rect x="1822.4" y="202.4" class="st8" width="45" height="35"/>
<rect x="1822.4" y="172.4" class="st8" width="49" height="17"/>
<rect x="1511.4" y="57.4" class="st8" width="93" height="73"/>
<rect x="1618.4" y="68.4" class="st8" width="12" height="91"/>
<rect x="1618.4" y="144.4" class="st8" width="190" height="20"/>
<rect x="1687.4" y="94.4" class="st8" width="21" height="65"/>
<rect x="1704.4" y="101.4" class="st8" width="16" height="54"/>
<rect x="1713.4" y="114.4" class="st8" width="19" height="45"/>
<rect x="1727.4" y="121.4" class="st8" width="33" height="38"/>
<rect x="1713.4" y="108.4" class="st8" width="14" height="20"/>
<rect x="1753.4" y="137.4" class="st8" width="36" height="10"/>
<rect x="1753.4" y="127.4" class="st8" width="20" height="20"/>
<rect x="1727.4" y="119.4" class="st8" width="17" height="11"/>
<rect x="1621.4" y="97.4" class="st8" width="66" height="57"/>
<rect x="1618.4" y="73.4" class="st8" width="42" height="31"/>
<rect x="1621.4" y="63.4" class="st8" width="16" height="17"/>
<rect x="1651.4" y="89.4" class="st8" width="43" height="12"/>
<rect x="1657.4" y="80.4" class="st8" width="17" height="17"/>
<rect x="1523.4" y="29.4" class="st8" width="26" height="43"/>
<rect x="1540.4" y="43.4" class="st8" width="48" height="20"/>
<rect x="1544.4" y="34.4" class="st8" width="22" height="22"/>
<rect x="1141.4" y="93.4" class="st8" width="180" height="33"/>
<rect x="1253.4" y="29.4" class="st8" width="60" height="85"/>
<rect x="1141.4" y="88.4" class="st8" width="148" height="9"/>
<rect x="1239.4" y="40.4" class="st8" width="18" height="51"/>
<rect x="1149.4" y="76.4" class="st8" width="108" height="13"/>
<rect x="1174.4" y="71.4" class="st8" width="74" height="11"/>
<rect x="1250.4" y="34.4" class="st8" width="15" height="15"/>
<rect x="1228.4" y="41.4" class="st8" width="16" height="35"/>
<rect x="1174.4" y="65.4" class="st8" width="79" height="11"/>
<rect x="1199.4" y="58.4" class="st8" width="37" height="13"/>
<rect x="1188.4" y="58.4" class="st8" width="15" height="15"/>
<rect x="1203.4" y="49.4" class="st8" width="33" height="19"/>
<rect x="1283.4" y="22.4" class="st8" width="30" height="7"/>
<rect x="1310.4" y="15.4" class="st8" width="195" height="14"/>
<path class="st7" d="M1363.1,18.9c26.9,1.7,53.9,3.2,80.8,4.4c7.7,0.4,7.6-11.5,0-11.9c-27-1.3-53.9-2.8-80.8-4.4
	C1355.5,6.5,1355.5,18.5,1363.1,18.9z"/>
<path class="st1" d="M6.2,208.3c31.4,18.1,69.4,19.7,104.6,23.6c39.9,4.4,80.1,8.8,120.3,9.2c35.8,0.6,71.4-6,104.6-19.3
	c32.4-12.9,62.6-30.4,92.4-48.5c16.7-10.2,33.3-20.6,50.3-30.3c17.7-10.1,36.5-19.4,57.3-19.8c7.7-0.1,7.7-12,0-11.9
	c-35.3,0.7-66.2,22.8-95.2,40.5c-29.4,17.9-58.7,36.2-89.9,50.7c-31.6,14.7-65.1,24.8-100,26.4c-39.3,1.8-79.1-2.5-118.1-6.6
	c-21.5-2.2-43-4.3-64.4-7.4c-19.4-2.8-38.8-7.1-55.9-17C5.5,194.1-0.5,204.4,6.2,208.3L6.2,208.3z"/>
<path class="st1" d="M6.2,213.1c66.2,26.7,136.1,44.9,207,52.8c34.4,3.8,68.2,1.2,101.2-9.6c31.9-10.4,61.6-26.8,88.8-46.4
	c31.7-22.8,60.3-49.4,88.4-76.5c5.5-5.3-2.9-13.7-8.4-8.4C435.5,171,385,217.4,322,241c-31.3,11.9-64.9,16.7-98.2,14
	c-34.7-2.9-69.3-9.5-103.1-17.7c-37.9-9.2-75.1-21.2-111.2-35.8C2.3,198.8-0.8,210.3,6.2,213.1z"/>
<path class="st1" d="M26.1,210.3c25.4,13.1,52.8,17.6,81.2,16.4c29-1.2,58.3-6.8,87.2-2.3l1.6-11.7l-104.3,8.5
	c-5.4,0.4-8.7,8.2-3,11.1c16.3,8.4,33.6,14.7,51.5,18.9c17.3,4,37,7.5,54.8,5.2c14.3-1.9,30.3-13.2,26.1-29.6
	c-1.7-6.7-7.1-12.4-14-13.6c-8.5-1.4-16.8,3.9-24.8,6.1c-20.2,5.6-41.5,4.3-62.2,3.2c-6.2-0.3-7.7,8.1-3,11.1
	c16.3,10.4,36,18,55.5,18.7c17,0.6,35.5-7.6,39.7-25.5c1.1-4.8-2.9-8-7.3-7.3c-19.4,3-38.4,8.6-56.3,16.6c-5.6,2.5-2.5,11.1,3,11.1
	c16.3-0.1,32.5-1.8,48.4-5c5.6-1.1,5.8-10.5,0-11.5c2,0.3-2.4,1.4,0.8-0.5c1.4-0.9,2.9-1.7,4.5-2.4c4.7-1.9,9.5-3.6,14.3-5.3
	c9.5-3.4,19.1-6.7,28.8-9.7c19.8-6.2,39.9-11.3,60-16.7c39.9-10.7,79-23.9,117.1-39.8c7-2.9,3.9-14.4-3.2-11.5
	c-34.3,14.2-69,26.6-104.8,36.5S246,200,211.2,212.9c-7.4,2.7-17.5,4.9-21.4,12.6c-3.2,6.2-0.1,15.3,7.2,16.6v-11.5
	c-14.9,3-30.1,4.6-45.2,4.6l3,11.1c17-7.5,35-12.7,53.5-15.4l-7.3-7.3c-3.5,14.9-20.4,17.9-33.5,16.3c-15.8-1.9-31-8.1-44.3-16.6
	l-3,11.1c19.2,1,38.5,1.9,57.5-1.7c4.7-0.9,9.3-2.1,13.8-3.7c3.8-1.3,9-4.7,13.2-4.1c8.2,1.1,5,11.7,0.8,15.2
	c-7.3,6-18,5.2-26.9,4.7c-9.7-0.5-19.4-1.8-28.9-3.7c-19.1-3.8-37.5-10.2-54.8-19l-3,11.1l104.3-8.5c6.2-0.5,8.7-10.6,1.6-11.7
	c-28.3-4.4-56.4-0.1-84.8,1.6c-28.2,1.7-55.4-1.3-80.8-14.5C25.3,196.6,19.3,206.8,26.1,210.3L26.1,210.3z"/>
<path class="st1" d="M224.6,230c65.7-16.7,130.2-38,192.8-63.9c17.9-7.4,35.6-15.1,53.2-23.2c7-3.2,0.9-13.5-6-10.3
	c-60.9,28-123.6,51.6-187.8,70.6c-18.4,5.4-36.8,10.5-55.4,15.2C214,220.4,217.2,231.9,224.6,230L224.6,230z"/>
<path class="st1" d="M486.4,118.9c-23.9-0.8-47.2,7.7-65.1,23.6c-4.3,3.8,0.2,12.2,5.8,10l56.9-23.1l-5.8-10
	c-10.4,12.1-26.5,15.1-41.2,19.1c-17.6,4.9-34.4,12.4-50.8,20.5c-34.6,17.2-69,33.8-105.6,46.6c-20.4,7.2-41.4,14.3-63.2,14.7
	c-6.8,0.1-8,9.7-1.6,11.7c35.6,10.9,69-8.4,101.5-20.2c16.8-6.1,34.6-9.5,51.2-16.2s31.4-16.9,46-27.2l-7.2-9.4
	c-16.2,16.7-40,21-61.1,28.3c-11.1,4-21.8,9-32,15c-10.6,6.1-21.6,12.6-34.1,13.8c-7.5,0.7-7.8,12.2,0,11.9
	c32-1.1,63.2-10.4,90.6-26.9c6-3.6,1.9-12.2-4.6-10.9c-16.5,3.3-32.1,9.8-48,15.1c-16.1,5.4-32.1,7.9-49,9.5
	c-15.7,1.4-31.5,3.1-46,9.6c-6.2,2.8-12.7,6.6-15.9,12.8c-3.3,6-2.4,13.5,2.1,18.6l1.2-9.3c-0.3,0.4-0.5,0.2-0.6-0.4v8.4
	c5.3-5.1,11.6-8.9,18.6-11.2l-7.5-5.7c0,1.2,0.1,8.9-2.3,8.5c-7.4-1.1-10.8,9.9-3.2,11.5c31.7,6.6,65-1.7,94.9-12.3
	c29.2-10.3,57-24.7,83.4-40.8c15.3-9.4,30.3-19.3,45-29.6c6.2-4.3,0.7-14.1-6-10.3c-13.5,7.7-27,15.4-40,23.9
	c-12.5,8.2-23.9,17.5-35.6,26.6c-11.7,9.3-25.6,15.5-40.4,18c-15.1,2.7-30.5,4.3-45.8,4.8c-9.1,0.4-18.3-0.3-27.2-2.2
	c-6.6-1.4-13.8-2.6-19,2.9c-1.5,1.5-2.1,3.7-1.5,5.8c3.9,10.8,16.8,8.3,25.8,7.4c12.2-1.2,24.3-3.1,36.2-5.5
	c24-5.1,47.4-12.7,69.7-22.9c6.3-2.8,1.7-12.4-4.6-10.9l-38.3,9.4c-7.4,1.8-4.3,13.3,3.2,11.5l38.4-9.4l-4.6-10.9
	c-18.6,8.4-38,14.9-57.9,19.7c-9.6,2.3-19.2,4.1-29,5.5c-5.3,0.8-10.5,1.4-15.8,1.8c-2.4,0.2-4.9,0.4-7.4,0.6
	c-1,0.1-4.5-0.3-4.2,0.5l-1.5,5.8c1.9-2.1,7.7,0.3,10.1,0.8c4.8,0.9,9.7,1.5,14.5,1.8c10,0.5,20,0.1,30-1
	c18.5-1.8,38.2-3.1,55.4-10.8s30.5-21.7,45.7-32.4c16-11.2,33-20.9,49.9-30.5l-6-10.3c-49,34-101.2,66-160.1,79.2
	c-17.7,4-36.1,6-54,2.3l-3.2,11.5c12.6,1.8,17.2-9.3,17.4-20c0.1-3.7-3.9-7-7.5-5.7c-8.9,2.9-17.1,7.8-23.8,14.3
	c-2.4,2.3-2.1,6,0,8.4c3.8,4.3,10.1,5.3,15,2.3c3.6-2,3.6-6.5,1.2-9.3c-3.7-4.4,4.8-9.4,7.6-10.9c6.1-3.1,12.5-5.3,19.2-6.6
	c13.7-3,27.8-3.3,41.8-5c28.9-3.7,54.6-17.6,83-23.3l-4.6-10.9C339.1,206.3,310,215,280.1,216v11.9c13-1.3,24.6-6.6,35.9-13
	s22.4-12.5,34.9-16.7c22.8-7.7,47.6-12.9,65-30.9c4.5-4.7-1.5-13.4-7.2-9.3c-13.9,9.8-28.1,20-44,26.4c-15.8,6.3-32.6,9.6-48.6,15.3
	c-30.8,10.9-63.2,31.1-96.9,20.9l-1.6,11.7c19.8-0.3,38.9-5.7,57.5-12c19-6.4,37.6-13.6,56-21.5c18.3-7.9,36.1-16.7,53.9-25.7
	c17.4-8.8,35-17.3,53.9-22.6c17-4.8,35.8-8.5,47.9-22.6c3.4-4,0.2-12.4-5.8-10L423.9,141l5.8,10c15.6-13.7,35.9-20.9,56.7-20.1
	C494.1,131.2,494,119.2,486.4,118.9L486.4,118.9z"/>
<path class="st1" d="M436.8,183c35.2-15.8,58.9-53.1,98.3-60c7.5-1.3,4.3-12.8-3.2-11.5c-40.8,7.1-64.9,44.9-101.2,61.2
	C423.8,175.9,429.8,186.2,436.8,183L436.8,183z"/>
<path class="st9" d="M10.4,315.6c69-57.2,156.1-90.1,244.6-100.7c94.8-11.3,190.7,2.8,281,32.5c52.7,17.3,103.5,39.8,152.5,65.7
	c6.8,3.6,12.8-6.7,6-10.3c-88.8-47-184.5-83.3-284.3-97.3c-92.2-13-187.4-6.4-275.1,25.9c-48.2,17.7-93.4,43-133,75.8
	C-3.9,312.1,4.6,320.5,10.4,315.6L10.4,315.6z"/>
<path class="st9" d="M686.4,313c-2.2,44.9,0.1,89.8,6.9,134.2l5.7-7.5L547.3,431c-7.7-0.4-7.6,11.5,0,11.9l151.8,8.7
	c4.2,0.2,6.3-4,5.7-7.5c-6.6-43.3-8.7-87.2-6.5-131C698.7,305.4,686.8,305.4,686.4,313L686.4,313z"/>
<rect x="6.4" y="311.4" class="st10" width="676" height="120"/>
<rect x="100.4" y="254.4" class="st10" width="484" height="75"/>
<rect x="233.4" y="211.4" class="st10" width="180" height="56"/>
<rect x="584.4" y="262.4" class="st10" width="22" height="77"/>
<rect x="2.4" y="311.4" class="st10" width="689" height="141"/>
<rect x="15.4" y="300.4" class="st10" width="108" height="24"/>
<rect x="29.4" y="291.4" class="st10" width="83" height="13"/>
<rect x="198.4" y="215.4" class="st10" width="43" height="43"/>
<rect x="107.4" y="244.4" class="st10" width="129" height="18"/>
<rect x="402.4" y="216.4" class="st10" width="44" height="64"/>
<rect x="438.4" y="240.4" class="st10" width="109" height="27"/>
<rect x="436.4" y="221.4" class="st10" width="46" height="35"/>
<rect x="543.4" y="250.4" class="st10" width="21" height="17"/>
<rect x="468.4" y="233.4" class="st10" width="53" height="11"/>
<rect x="446.4" y="225.4" class="st10" width="47" height="19"/>
<rect x="595.4" y="280.4" class="st10" width="54" height="54"/>
<rect x="634.4" y="304.4" class="st10" width="56" height="12"/>
<rect x="600.4" y="267.4" class="st10" width="22" height="30"/>
<rect x="629.4" y="291.4" class="st10" width="43" height="25"/>
<rect x="89.4" y="257.4" class="st10" width="11" height="47"/>
<rect x="37.4" y="287.4" class="st10" width="75" height="13"/>
<rect x="60.4" y="273.41" transform="matrix(0.8972 -0.4417 0.4417 0.8972 -118.0513 63.7561)" class="st11" width="35" height="24"/>
<rect x="77.4" y="280.4" class="st10" width="5" height="5"/>
<rect x="45.4" y="282.4" class="st10" width="24" height="7"/>
<rect x="131.4" y="233.4" class="st10" width="87" height="11"/>
<rect x="57.4" y="267.4" class="st10" width="100" height="26"/>
<rect x="187.4" y="221.4" class="st10" width="24" height="15"/>
<rect x="163.4" y="226.4" class="st10" width="32" height="10"/>
<rect x="75.4" y="262.4" class="st10" width="25" height="11"/>
<rect x="1.4" y="304.4" class="st12" width="1921" height="151"/>
<path class="st13" d="M1921.85,353.62c-129.83-13.14-259.99-26.24-390.62-25.98c-65.64,0.13-131.32,3.71-196.41,12.36
	c-63.98,8.51-127.14,23.6-191.63,28.12c-125.59,8.79-246.8-33.63-371.54-38.45c-125.61-4.86-246.31,38.31-371.23,42.3
	c-62.32,1.99-122.22-10.26-182.73-23.67c-57.1-12.66-115.83-25.55-174.67-20.04c-14.04,1.32-27.92,3.7-41.59,7.11
	c-6.24,1.56-3.6,11.2,2.66,9.64c119.82-29.88,238.04,31.63,357.21,36.79c124.19,5.37,243.89-37.57,367.37-42.18
	c125.23-4.67,245.99,38.09,370.79,39.74c63.68,0.84,126.13-11.77,188.64-22.24c64.31-10.78,129.18-16.82,194.35-18.73
	c130.54-3.84,260.93,7.43,390.71,20.33c16.23,1.61,32.46,3.26,48.69,4.9C1928.24,364.27,1928.2,354.26,1921.85,353.62z"/>
<rect x="3.27" y="339.4" class="st13" width="160.13" height="101.51"/>
<rect x="30.4" y="334.4" class="st13" width="97" height="20.21"/>
<rect x="153.06" y="349.05" class="st13" width="42.34" height="106.85"/>
<rect x="3.27" y="339.4" class="st13" width="154.13" height="117.5"/>
<rect x="157.4" y="345.32" class="st13" width="25" height="9.29"/>
<rect x="183.4" y="390.16" class="st13" width="263" height="66.74"/>
<rect x="187.4" y="354.61" class="st13" width="38.98" height="47.86"/>
<rect x="452.34" y="382.27" class="st13" width="1470.56" height="74.63"/>
<rect x="1357.4" y="347.34" class="st13" width="396" height="39.59"/>
<rect x="1385.22" y="339.9" class="st13" width="319.18" height="14.71"/>
<rect x="1460.04" y="333.89" class="st13" width="169.36" height="20.72"/>
<rect x="1439.2" y="333.89" class="st13" width="33.15" height="10.36"/>
<rect x="1357.4" y="344.25" class="st13" width="50.5" height="3.09"/>
<rect x="1704.4" y="339.9" class="st13" width="40" height="14.71"/>
<rect x="1747.95" y="345.8" class="st13" width="15.45" height="41.13"/>
<rect x="1316.27" y="345.8" class="st13" width="41.13" height="41.13"/>
<rect x="1199.4" y="371.75" class="st13" width="132.78" height="12.34"/>
<rect x="1219.9" y="366.36" class="st13" width="116.93" height="11.56"/>
<rect x="1270.62" y="354.61" class="st13" width="56.83" height="15.27"/>
<rect x="1763.4" y="347.25" class="st13" width="88.59" height="39.68"/>
<rect x="1831.4" y="354.64" class="st13" width="79.5" height="32.29"/>
<rect x="1906.79" y="361.72" class="st13" width="16.11" height="25.21"/>
<rect x="1738.95" y="344.25" class="st13" width="18.42" height="8.05"/>
<rect x="1299.03" y="352.3" class="st13" width="25.63" height="6.96"/>
<rect x="496.51" y="371.4" class="st13" width="306.68" height="14.47"/>
<rect x="694.65" y="336.34" class="st13" width="145.74" height="56.9"/>
<rect x="510.02" y="364.79" class="st13" width="194.88" height="10.85"/>
<rect x="502.24" y="370.21" class="st13" width="12.69" height="5.42"/>
<rect x="656.57" y="340.9" class="st13" width="48.33" height="25.32"/>
<rect x="561.19" y="358.4" class="st13" width="117.49" height="11.81"/>
<rect x="543.4" y="358.43" class="st13" width="31" height="11.78"/>
<rect x="643.06" y="344.53" class="st13" width="15.97" height="19.78"/>
<rect x="580.84" y="353.56" class="st13" width="78.19" height="10.75"/>
<rect x="604.17" y="349.03" class="st13" width="40.53" height="7.78"/>
<rect x="634.4" y="346.16" class="st13" width="16.65" height="6.75"/>
<rect x="426.4" y="380.63" class="st13" width="47.3" height="75.27"/>
<rect x="429.64" y="375.64" class="st13" width="78.94" height="10.23"/>
<rect x="468.4" y="366.22" class="st13" width="33.84" height="21.7"/>
<rect x="187.4" y="349.05" class="st13" width="15.59" height="9.35"/>
<rect x="221.82" y="356.4" class="st13" width="31.52" height="36.84"/>
<rect x="244.75" y="372.93" class="st13" width="189.13" height="25.22"/>
<rect x="247.83" y="360.49" class="st13" width="26.39" height="20.26"/>
<rect x="264.4" y="366.22" class="st13" width="33.5" height="15.68"/>
<rect y="340.45" class="st13" width="3.27" height="116.45"/>
<rect x="837.52" y="343.3" class="st13" width="48.31" height="48.31"/>
<rect x="885.82" y="352.46" class="st13" width="50.76" height="33.41"/>
<rect x="936.58" y="360.9" class="st13" width="54.04" height="21.37"/>
<rect x="983.25" y="372.14" class="st13" width="220.65" height="11.95"/>
<rect x="988.98" y="364.79" class="st13" width="22.11" height="13.33"/>
<rect x="1230.1" y="360.9" class="st13" width="42.57" height="6.56"/>
<rect x="1196.53" y="367.45" class="st13" width="26.2" height="4.69"/>
<rect x="1262.03" y="354.61" class="st13" width="14.33" height="9.56"/>
</svg>
