<?xml version="1.0" encoding="utf-8"?>
<!-- Generator: Adobe Illustrator 23.1.1, SVG Export Plug-In . SVG Version: 6.00 Build 0)  -->
<svg version="1.1" id="Layer_1" xmlns="http://www.w3.org/2000/svg" xmlns:xlink="http://www.w3.org/1999/xlink" x="0px" y="0px"
	 viewBox="0 0 500 80" style="enable-background:new 0 0 500 80;" xml:space="preserve">
<style type="text/css">
	.st0{fill:#231F20;}
</style>
<g>
	<g>
		<path class="st0" d="M83.44,37.33H65.3v-1.32h0.58c2.17,0,2.81-0.77,2.81-2.43V20.04c0-1.99-1.15-2.44-2.67-2.44h-0.64v-1.32
			h11.47v1.32h-0.98c-1.76,0-2.5,0.78-2.5,2.37v13.95c0,1.25,0.37,1.55,1.69,1.55h4.3c2.27,0,2.94-1.11,5.21-4.02h1.36L83.44,37.33z
			"/>
		<path class="st0" d="M86.81,16.28h10.76v1.32h-0.58c-1.83,0-2.57,0.78-2.57,2.54v13.41c0,1.65,0.57,2.46,2.64,2.46h0.51v1.32
			H86.81v-1.32h0.48c1.79,0,2.47-0.84,2.47-2.33V20.14c0-1.75-0.61-2.54-2.5-2.54h-0.44V16.28z"/>
		<path class="st0" d="M104.91,33.27c0,2.07,0.65,2.74,3.35,2.74v1.32h-8.18v-1.32h0.2c2.07,0,2.58-0.74,2.58-2.13V18.35
			c-0.75-0.5-1.66-0.74-2.71-0.74v-1.32h6.97l13.81,14.42V20.48c0-2.43-0.51-2.88-3.22-2.88h-0.34v-1.32h8.73v1.32h-0.34
			c-2.1,0-2.77,0.45-2.77,1.73v18.1h-1.86l-16.21-16.95V33.27z"/>
		<path class="st0" d="M150.05,31.28c-0.27,1.8-1.08,4.39-1.89,6.15c-0.55-0.17-1.22-0.23-2-0.23c-1.59,0-3.28,0.61-5.82,0.61
			c-6.94,0-12.32-4.81-12.32-10.92c0-6.23,5.72-11.1,12.96-11.1c3.52,0,5.82,1.39,6.5,1.39c0.27,0,0.47-0.1,0.68-0.34H149l0.3,5.93
			h-1.32c-1.08-3.36-3.48-5.25-6.73-5.25c-4.84,0-8.19,3.66-8.19,9.01c0,5.45,3.72,9.64,8.56,9.64c3.11,0,5.69-1.79,7.07-4.87
			H150.05z"/>
		<path class="st0" d="M166.04,15.65c7.07,0,12.08,4.43,12.08,10.76c0,6.02-4.64,11.4-12.72,11.4c-7.79,0-12.32-4.97-12.32-10.66
			C153.08,20.45,158.5,15.65,166.04,15.65z M166.18,36.36c4.7,0,6.9-4.07,6.9-8.73c0-5.45-2.71-10.52-7.85-10.52
			c-4.3,0-7.1,3.32-7.1,8.42C158.13,31.99,161.41,36.36,166.18,36.36z"/>
		<path class="st0" d="M198.22,37.33h-18.14v-1.32h0.58c2.16,0,2.81-0.77,2.81-2.43V20.04c0-1.99-1.15-2.44-2.68-2.44h-0.64v-1.32
			h11.47v1.32h-0.98c-1.76,0-2.51,0.78-2.51,2.37v13.95c0,1.25,0.37,1.55,1.7,1.55h4.3c2.27,0,2.94-1.11,5.21-4.02h1.35
			L198.22,37.33z"/>
		<path class="st0" d="M206.45,33.27c0,2.07,0.65,2.74,3.35,2.74v1.32h-8.19v-1.32h0.2c2.07,0,2.58-0.74,2.58-2.13V18.35
			c-0.74-0.5-1.66-0.74-2.71-0.74v-1.32h6.97l13.8,14.42V20.48c0-2.43-0.51-2.88-3.22-2.88h-0.33v-1.32h8.73v1.32h-0.34
			c-2.1,0-2.78,0.45-2.78,1.73v18.1h-1.86l-16.21-16.95V33.27z"/>
		<path class="st0" d="M258.13,37.33H240v-1.32h0.57c2.16,0,2.81-0.77,2.81-2.43V20.04c0-1.99-1.14-2.44-2.67-2.44h-0.64v-1.32
			h11.47v1.32h-0.98c-1.76,0-2.51,0.78-2.51,2.37v13.95c0,1.25,0.37,1.55,1.69,1.55h4.3c2.27,0,2.94-1.11,5.21-4.02h1.35
			L258.13,37.33z"/>
		<path class="st0" d="M268.55,29.52l-1.43,3.95c-0.61,1.73-0.57,2.54,2.68,2.54h0.44v1.32h-8.97v-1.32h0.5
			c1.63,0,2.47-0.74,3.32-3.11l5.79-16.14l-0.37-0.98h5.01l6.77,17.19c0.88,2.23,1.62,2.91,3.38,3.04v1.32h-11v-1.32h1.18
			c2.06,0,2.37-0.91,1.69-2.57l-1.59-3.92H268.55z M272.06,19.74l-2.84,7.92h5.96L272.06,19.74z"/>
		<path class="st0" d="M291.83,20.59c0-2.61-0.37-2.98-2.95-2.98h-0.85v-1.32c0.85-0.02,2.47-0.16,4.27-0.27
			c2.04-0.1,4.03-0.23,5.48-0.23c4.23,0,7.48,0.58,9.31,2.4c0.84,0.85,1.29,2.03,1.29,3.07c0,2.07-1.35,3.35-4.17,3.96v0.07
			c3.28,0.71,5.36,2.94,5.36,5.68c0,3.45-3.15,6.36-8.74,6.36h-13.09v-1.32c3.31,0,4.09-0.84,4.09-2.84V20.59z M296.5,24.72
			c0.75,0.03,1.96,0.06,2.61,0.06c3.38,0,4.23-1.83,4.23-3.56c0-1.93-0.95-4.12-5.05-4.12c-0.71,0-1.22,0.02-1.79,0.1V24.72z
			 M296.5,32.77c0,2.47,0.91,3.05,3.08,3.05c3.79,0,4.74-2.44,4.74-4.71c0-2.03-0.95-5.04-5.34-5.04c-0.65,0-1.97,0.07-2.48,0.1
			V32.77z"/>
		<path class="st0" d="M325.74,15.65c7.07,0,12.08,4.43,12.08,10.76c0,6.02-4.64,11.4-12.73,11.4c-7.78,0-12.31-4.97-12.31-10.66
			C312.79,20.45,318.19,15.65,325.74,15.65z M325.88,36.36c4.7,0,6.9-4.07,6.9-8.73c0-5.45-2.71-10.52-7.85-10.52
			c-4.3,0-7.11,3.32-7.11,8.42C317.82,31.99,321.1,36.36,325.88,36.36z"/>
		<path class="st0" d="M347.76,33.55c0,1.72,0.74,2.46,2.68,2.46h1.01v1.32H339.6v-1.32h0.54c2.07,0,2.95-0.5,2.95-2.46V20.18
			c0-1.63-0.43-2.58-2.7-2.58h-0.71v-1.32c1.69-0.1,2.99-0.16,4.37-0.27c1.9-0.13,4.33-0.23,5.55-0.23c4.99,0,7.69,0.64,9.38,2.34
			c1.12,1.11,1.63,2.4,1.63,3.85c0,2.57-1.86,4.6-5.01,5.45c2.23,1.87,3.41,4.54,5.81,6.94c1.39,1.38,2.34,1.79,4.47,2v1.32
			c-0.74,0.03-1.08,0.03-2.1,0.03c-4.19,0-5.92-0.61-7.51-2.2c-1.69-1.69-3.65-5.25-5.82-7.11h-2.68V33.55z M347.76,26.98h1.32
			c4.09,0,6.46-1.25,6.46-4.87c0-3.59-2.74-4.88-6.02-4.88h-1.76V26.98z"/>
		<path class="st0" d="M374.77,29.52l-1.42,3.95c-0.61,1.73-0.57,2.54,2.68,2.54h0.44v1.32h-8.97v-1.32H368
			c1.62,0,2.47-0.74,3.32-3.11l5.78-16.14l-0.37-0.98h5.01l6.76,17.19c0.88,2.23,1.62,2.91,3.39,3.04v1.32h-11v-1.32h1.19
			c2.06,0,2.36-0.91,1.69-2.57l-1.59-3.92H374.77z M378.29,19.74l-2.84,7.92h5.96L378.29,19.74z"/>
		<path class="st0" d="M405.3,33.47c0,1.77,0.54,2.54,2.95,2.54h0.81v1.32h-12.18v-1.32h1.15c1.85,0,2.6-0.74,2.6-2.54V18.05h-3.99
			c-2.61,0-3.01,0.4-3.66,3.99h-1.38l0.6-6.32h1.08c0.27,0.24,0.45,0.41,0.64,0.47c0.24,0.08,0.51,0.1,0.99,0.1h16.11
			c0.91,0,1.08-0.07,1.62-0.57h1.08l0.6,6.32h-1.38c-0.64-3.55-1.04-3.99-3.65-3.99h-4V33.47z"/>
		<path class="st0" d="M429.91,15.65c7.07,0,12.08,4.43,12.08,10.76c0,6.02-4.64,11.4-12.73,11.4c-7.78,0-12.31-4.97-12.31-10.66
			C416.95,20.45,422.35,15.65,429.91,15.65z M430.04,36.36c4.71,0,6.91-4.07,6.91-8.73c0-5.45-2.71-10.52-7.86-10.52
			c-4.29,0-7.11,3.32-7.11,8.42C421.98,31.99,425.27,36.36,430.04,36.36z"/>
		<path class="st0" d="M451.92,33.55c0,1.72,0.74,2.46,2.67,2.46h1.02v1.32h-11.85v-1.32h0.54c2.07,0,2.94-0.5,2.94-2.46V20.18
			c0-1.63-0.44-2.58-2.7-2.58h-0.71v-1.32c1.68-0.1,2.97-0.16,4.36-0.27c1.89-0.13,4.33-0.23,5.55-0.23c4.97,0,7.68,0.64,9.37,2.34
			c1.12,1.11,1.62,2.4,1.62,3.85c0,2.57-1.86,4.6-5.01,5.45c2.23,1.87,3.42,4.54,5.82,6.94c1.39,1.38,2.34,1.79,4.47,2v1.32
			c-0.75,0.03-1.08,0.03-2.1,0.03c-4.19,0-5.93-0.61-7.51-2.2c-1.7-1.69-3.66-5.25-5.83-7.11h-2.67V33.55z M451.92,26.98h1.32
			c4.09,0,6.46-1.25,6.46-4.87c0-3.59-2.74-4.88-6.02-4.88h-1.75V26.98z"/>
		<path class="st0" d="M483.45,33.51c0,1.62,0.51,2.5,2.95,2.5h0.51v1.32h-11.53v-1.32h0.84c2.03,0,2.58-0.91,2.58-2.43v-4.7
			l-7.28-9.68c-0.98-1.29-1.39-1.59-3.08-1.59h-0.23v-1.32h11.03v1.32h-0.41c-1.96,0-2.24,0.82-1.52,1.73l5.42,7.14l3.92-6.16
			c0.88-1.39,1.15-2.71-1.22-2.71h-0.4v-1.32H493v1.32c-1.96,0.14-2.53,0.51-3.75,2.37l-5.79,8.9V33.51z"/>
		<g>
			<path class="st0" d="M84.74,64.31h-6.38v-1.2h0.39c0.67,0,1.14-0.13,1.37-0.38c0.14-0.15,0.2-0.36,0.18-0.64l-0.54-8.29
				l-4.91,10.51h-1l-5.04-10.53l-0.5,8.35c-0.02,0.28,0.04,0.49,0.16,0.62c0.19,0.21,0.57,0.33,1.2,0.35l0.38,0.01v1.19h-5.31v-1.2
				h0.39c1.27,0,1.39-0.05,1.5-1.95l0.52-8.47c0.08-1.39,0.06-1.43-0.94-1.49l-0.37-0.02v-1.15h3.93l5,10.44l4.97-10.44h3.84v1.15
				l-0.36,0.03c-1.09,0.09-1.09,0.1-1.07,0.43l0.69,9.85c0.11,1.63,0.11,1.63,1.5,1.63h0.39V64.31z"/>
		</g>
		<g>
			<path class="st0" d="M97.7,64.31h-5.45V63.2h0.84c0.73,0,0.89-0.08,0.92-0.11c0.01-0.24-0.07-0.42-0.13-0.57l-1.07-2.89h-2.95
				l-0.97,2.61c-0.08,0.19-0.24,0.6-0.24,0.72c0,0.2,0.61,0.24,0.98,0.24h0.67v1.11h-4.7V63.2l0.39,0c0.86-0.02,0.95-0.02,1.46-1.42
				l3.03-8.26l-0.32-0.78h2.33l3.63,9.65c0.27,0.74,0.47,0.82,1.17,0.82h0.39V64.31z M90.44,58.1h1.79l-0.91-2.41L90.44,58.1z"/>
		</g>
		<g>
			<path class="st0" d="M102.13,64.57c-0.67,0-1.44-0.21-1.95-0.35c-0.19-0.05-0.34-0.1-0.42-0.11l-0.12,0.18l-0.84,0.01l-0.47-3.37
				h1.09l0.07,0.31c0.3,1.27,1.27,2.08,2.48,2.08c0.94,0,1.94-0.5,1.94-1.6c0-0.94-1.13-1.66-2.33-2.41
				c-1.45-0.91-3.1-1.96-3.1-3.73c0-1.62,1.46-2.85,3.41-2.85c0.93,0,1.43,0.18,1.79,0.3c0.21,0.08,0.35,0.12,0.51,0.12l0.12-0.16
				l0.8-0.01l0.4,2.94h-1.01l-0.1-0.25c-0.42-1.06-1.34-1.75-2.35-1.75c-0.9,0-1.5,0.48-1.5,1.2c0,0.91,1.1,1.59,2.27,2.32
				c1.48,0.92,3.16,1.97,3.16,3.85C105.98,63.16,104.32,64.57,102.13,64.57z"/>
		</g>
		<g>
			<path class="st0" d="M110.95,64.57c-0.67,0-1.44-0.21-1.95-0.35c-0.19-0.05-0.34-0.1-0.42-0.11l-0.12,0.18l-0.84,0.01l-0.46-3.37
				h1.09l0.07,0.31c0.3,1.27,1.27,2.08,2.47,2.08c0.94,0,1.94-0.5,1.94-1.6c0-0.94-1.13-1.66-2.33-2.41
				c-1.46-0.91-3.1-1.96-3.1-3.73c0-1.62,1.47-2.85,3.41-2.85c0.93,0,1.43,0.18,1.79,0.3c0.21,0.08,0.35,0.12,0.51,0.12l0.12-0.15
				l0.8-0.02l0.39,2.94h-1.01l-0.1-0.25c-0.41-1.06-1.34-1.75-2.36-1.75c-0.9,0-1.5,0.48-1.5,1.2c0,0.91,1.1,1.59,2.27,2.32
				c1.48,0.92,3.17,1.97,3.17,3.85C114.79,63.16,113.14,64.57,110.95,64.57z"/>
		</g>
		<g>
			<path class="st0" d="M127.26,64.31h-5.44V63.2h0.83c0.74,0,0.89-0.08,0.92-0.11c0.01-0.24-0.07-0.42-0.12-0.56l-1.07-2.89h-2.95
				l-0.98,2.66c-0.08,0.19-0.22,0.56-0.22,0.67c0,0.2,0.61,0.24,0.97,0.24h0.67v1.11h-4.7V63.2l0.39,0
				c0.86-0.02,0.95-0.02,1.47-1.42l3.02-8.26l-0.31-0.78h2.32l3.63,9.65c0.27,0.73,0.48,0.82,1.17,0.82h0.39V64.31z M120,58.1h1.79
				l-0.91-2.41L120,58.1z"/>
		</g>
		<g>
			<path class="st0" d="M133.44,64.57c-3.65,0-6.3-2.44-6.3-5.8c0-3.5,2.72-6.05,6.47-6.05c1.49,0,2.41,0.32,3.02,0.53
				c0.24,0.08,0.44,0.15,0.55,0.15l0.12-0.15l0.19,0.05h0.62l0.21,3.25h-1.02l-0.09-0.26c-0.52-1.45-1.85-2.35-3.48-2.35
				c-2.55,0-4.19,1.77-4.19,4.5c0,2.75,1.92,4.92,4.37,4.92c1.68,0,2.91-0.75,3.78-2.3l0.11-0.2h1.08l-0.14,0.51
				c-0.23,0.81-0.71,1.89-1.12,2.57l-0.14,0.22l-0.26-0.04c-0.45-0.06-0.84,0.03-1.37,0.15C135.25,64.4,134.52,64.57,133.44,64.57z"
				/>
		</g>
		<g>
			<path class="st0" d="M152.6,64.31h-5.58V63.2h0.92c0.85,0,0.94-0.18,0.94-0.88v-3.04h-5.85v2.83c0,0.96,0.12,1.09,0.96,1.09h0.4
				l0.05,0.71v0.4h-5.04V63.2h0.49c0.85,0,0.94-0.18,0.94-0.84v-7.44c0-0.62-0.07-0.76-0.85-0.81l-0.37-0.02v-1.09h4.82v1.11h-0.39
				c-0.9,0-1.01,0.05-1.01,1.24v2.55h5.85v-2.94c0-0.64-0.07-0.85-0.94-0.85h-0.71v-1.11h5.14v1.1l-0.38,0.01
				c-0.8,0.03-0.91,0.15-0.91,1v7.02c0,0.99,0.17,1.08,0.96,1.08h0.57V64.31z"/>
		</g>
		<g>
			<path class="st0" d="M160.06,64.57c-3.21,0-5.28-1.83-5.28-4.65v-4.95c0-0.78-0.03-0.85-1.07-0.87l-0.39,0v-1.1h5.14v1.11h-0.55
				c-0.78,0-0.94,0.14-0.94,0.85v4.7c0,2.14,1.2,3.26,3.46,3.26c1.58,0,3.47-0.56,3.47-3.28v-3.95c0-1.46-0.14-1.53-1.28-1.59
				l-0.38-0.02v-1.09H167v1.1l-0.39,0c-0.89,0.02-1.15,0.28-1.15,1.16v4.57C165.46,62.02,164.04,64.57,160.06,64.57z"/>
		</g>
		<g>
			<path class="st0" d="M171.29,64.57c-0.67,0-1.44-0.21-1.95-0.35c-0.19-0.05-0.34-0.1-0.42-0.1l-0.12,0.18l-0.84,0.01l-0.46-3.37
				h1.08l0.07,0.3c0.3,1.27,1.28,2.08,2.48,2.08c0.93,0,1.94-0.5,1.94-1.6c0-0.94-1.13-1.66-2.33-2.41c-1.45-0.91-3.1-1.96-3.1-3.73
				c0-1.62,1.46-2.85,3.4-2.85c0.93,0,1.43,0.18,1.79,0.3c0.21,0.08,0.35,0.12,0.51,0.12l0.12-0.16l0.8-0.01l0.39,2.94h-1l-0.1-0.25
				c-0.41-1.06-1.34-1.75-2.36-1.75c-0.9,0-1.5,0.48-1.5,1.2c0,0.91,1.1,1.59,2.27,2.32c1.49,0.92,3.17,1.97,3.17,3.85
				C175.13,63.16,173.48,64.57,171.29,64.57z"/>
		</g>
		<g>
			<path class="st0" d="M185.23,64.31h-9.73V63.2h0.86c1.15,0,1.2-0.22,1.2-0.99v-7.15c0-0.77-0.09-0.96-0.96-0.96h-0.77v-1.11h8.89
				l0.18,3.14h-1.06l-0.05-0.33c-0.22-1.41-0.58-1.41-0.86-1.41h-3.17v3.37h2.63c0.3,0,0.51,0,0.59-0.91L183,56.5h1.08v4h-1.07
				l-0.04-0.35c-0.11-0.99-0.26-0.99-0.76-0.99h-2.46v3.21c0,0.54,0.08,0.54,0.52,0.54h2.6c0.89,0,1.17-0.19,1.59-1.63l0.08-0.28
				h1.03L185.23,64.31z"/>
		</g>
		<g>
			<path class="st0" d="M194.95,64.31h-6.12V63.2h1.02c0.83,0,0.94-0.17,0.94-0.84v-7.96h-2.55c-0.3,0-0.58,0-0.85,1.54l-0.06,0.33
				h-1.07l0.35-3.53h1.02l0.03,0.24c0.06,0.01,0.1,0.01,0.15,0.01h8.14c0.07,0,0.12,0,0.15-0.01l0.04-0.25h1.01l0.34,3.53h-1.07
				l-0.06-0.33c-0.26-1.54-0.55-1.54-0.84-1.54h-2.55v7.96c0,0.67,0.11,0.84,0.94,0.84h1.02V64.31z"/>
		</g>
		<g>
			<path class="st0" d="M207.09,64.31h-6.11V63.2h1.01c0.84,0,0.95-0.17,0.95-0.84v-7.96h-2.55c-0.31,0-0.58,0-0.85,1.54l-0.06,0.33
				h-1.07l0.35-3.53h1.02l0.04,0.24c0.06,0.01,0.11,0.02,0.15,0.02h8.14c0.07,0,0.12-0.01,0.16-0.01l0.04-0.25h1.01l0.35,3.53h-1.08
				l-0.06-0.33c-0.26-1.54-0.53-1.54-0.84-1.54h-2.55v7.96c0,0.67,0.11,0.84,0.94,0.84h1.02V64.31z"/>
		</g>
		<g>
			<path class="st0" d="M214.39,64.57c-0.67,0-1.44-0.21-1.94-0.35c-0.2-0.05-0.34-0.1-0.42-0.11l-0.12,0.18l-0.84,0.01l-0.46-3.37
				h1.08l0.07,0.31c0.3,1.27,1.27,2.08,2.48,2.08c0.93,0,1.94-0.5,1.94-1.6c0-0.94-1.13-1.66-2.33-2.41
				c-1.45-0.91-3.1-1.96-3.1-3.73c0-1.62,1.46-2.85,3.4-2.85c0.93,0,1.43,0.18,1.79,0.3c0.21,0.08,0.35,0.12,0.52,0.12l0.12-0.16
				l0.8-0.01l0.39,2.94h-1l-0.1-0.25c-0.41-1.06-1.34-1.75-2.36-1.75c-0.89,0-1.5,0.48-1.5,1.2c0,0.91,1.1,1.59,2.26,2.32
				c1.48,0.92,3.17,1.97,3.17,3.85C218.23,63.16,216.58,64.57,214.39,64.57z"/>
		</g>
		<g>
			<path class="st0" d="M233.31,64.31h-6.07v-1.19l0.38-0.02c1.08-0.05,1.25-0.16,1.25-1.48v-9.26c0-0.93-0.2-1.12-1.25-1.17
				l-0.37-0.02v-1.19h6.07v1.21h-0.39c-1.23,0-1.45,0.2-1.45,1.36v9.22c0,1.06,0.17,1.33,1.45,1.33h0.39V64.31z"/>
		</g>
		<g>
			<path class="st0" d="M246.87,64.42h-1l-8.21-8.58v6.27c0,0.96,0.05,1.08,1.32,1.08h0.39v1.11h-4.71V63.2h0.39
				c1.01,0,1.06-0.29,1.06-0.74v-8.11c-0.28-0.16-0.61-0.23-1.04-0.25l-0.38-0.01v-1.1h3.22l7.4,7.72v-5.75c0-0.71,0-0.83-1.27-0.86
				l-0.38-0.01v-1.1h4.75v1.11h-0.4c-1.14,0-1.14,0.15-1.14,0.49V64.42z"/>
		</g>
		<g>
			<path class="st0" d="M252.8,64.57c-0.67,0-1.43-0.21-1.94-0.35c-0.19-0.05-0.34-0.1-0.42-0.11l-0.12,0.18l-0.84,0.01l-0.46-3.37
				h1.08l0.07,0.31c0.3,1.27,1.27,2.08,2.48,2.08c0.94,0,1.94-0.5,1.94-1.6c0-0.94-1.14-1.66-2.33-2.41
				c-1.46-0.91-3.1-1.96-3.1-3.73c0-1.62,1.47-2.85,3.41-2.85c0.93,0,1.43,0.18,1.78,0.3c0.21,0.08,0.35,0.12,0.51,0.12l0.12-0.16
				l0.81-0.01l0.39,2.94h-1.01l-0.1-0.25c-0.41-1.06-1.34-1.75-2.36-1.75c-0.9,0-1.5,0.48-1.5,1.2c0,0.91,1.1,1.59,2.26,2.32
				c1.48,0.92,3.16,1.97,3.16,3.85C256.64,63.16,254.99,64.57,252.8,64.57z"/>
		</g>
		<g>
			<path class="st0" d="M266.13,64.31h-6.12V63.2h1.02c0.83,0,0.94-0.17,0.94-0.84v-7.96h-2.55c-0.3,0-0.58,0-0.86,1.54l-0.06,0.33
				h-1.07l0.35-3.53h1.03l0.03,0.24c0.05,0.01,0.1,0.01,0.14,0.01h8.14c0.06,0,0.11,0,0.15-0.01l0.04-0.25h1.02l0.34,3.53h-1.07
				l-0.06-0.33c-0.26-1.54-0.54-1.54-0.85-1.54h-2.55v7.96c0,0.67,0.11,0.84,0.94,0.84h1.03V64.31z"/>
		</g>
		<g>
			<path class="st0" d="M274.56,64.31h-4.9v-1.09l0.37-0.02c0.79-0.04,0.9-0.1,0.9-1.06v-7.2c0-0.64-0.08-0.79-0.9-0.83l-0.37-0.02
				v-1.09h4.9v1.11h-0.4c-0.91,0-1.04,0.12-1.04,0.98v7.17c0,0.78,0.09,0.94,1.04,0.94h0.4V64.31z"/>
		</g>
		<g>
			<path class="st0" d="M284.19,64.31h-6.12V63.2h1.03c0.83,0,0.94-0.17,0.94-0.84v-7.96h-2.55c-0.31,0-0.58,0-0.85,1.54l-0.06,0.33
				h-1.07l0.35-3.53h1.02l0.03,0.24c0.06,0.01,0.1,0.02,0.15,0.02h8.14c0.07,0,0.12,0,0.14-0.01l0.04-0.25h1.02l0.35,3.53h-1.06
				l-0.06-0.33c-0.27-1.54-0.55-1.54-0.84-1.54h-2.56v7.96c0,0.67,0.11,0.84,0.94,0.84h1.02V64.31z"/>
		</g>
		<g>
			<path class="st0" d="M294.21,64.57c-3.21,0-5.28-1.83-5.28-4.65v-4.95c0-0.78-0.03-0.85-1.06-0.87l-0.39,0v-1.1h5.13v1.11h-0.55
				c-0.78,0-0.94,0.14-0.94,0.85v4.7c0,2.14,1.2,3.26,3.46,3.26c1.57,0,3.46-0.56,3.46-3.28v-3.95c0-1.46-0.15-1.53-1.28-1.59
				l-0.37-0.02v-1.09h4.76v1.1l-0.39,0c-0.89,0.02-1.15,0.28-1.15,1.16v4.57C299.62,62.02,298.2,64.57,294.21,64.57z"/>
		</g>
		<g>
			<path class="st0" d="M310.52,64.31h-6.13V63.2h1.03c0.83,0,0.94-0.17,0.94-0.84v-7.96h-2.56c-0.29,0-0.58,0-0.85,1.55l-0.06,0.32
				h-1.06l0.35-3.53h1.01l0.04,0.24c0.05,0.01,0.1,0.02,0.15,0.02h8.14c0.07,0,0.12-0.01,0.14-0.01l0.04-0.25h1.02l0.35,3.53H312
				l-0.05-0.33c-0.26-1.54-0.55-1.54-0.84-1.54h-2.55v7.96c0,0.67,0.11,0.84,0.94,0.84h1.02V64.31z"/>
		</g>
		<g>
			<path class="st0" d="M323.24,64.31h-9.73V63.2h0.86c1.2,0,1.2-0.27,1.2-0.99v-7.15c0-0.77-0.08-0.96-0.96-0.96h-0.77v-1.11h8.89
				l0.18,3.14h-1.05l-0.05-0.33c-0.22-1.41-0.58-1.41-0.87-1.41h-3.17v3.37h2.64c0.28,0,0.51,0,0.58-0.91l0.03-0.36h1.08v4h-1.07
				l-0.04-0.35c-0.11-0.99-0.26-0.99-0.76-0.99h-2.47v3.21c0,0.54,0.09,0.54,0.52,0.54h2.61c0.89,0,1.17-0.19,1.59-1.63l0.09-0.28
				h1.04L323.24,64.31z"/>
		</g>
		<g>
			<path class="st0" d="M335.6,64.57c-3.71,0-6.5-2.44-6.5-5.69c0-3.57,2.77-6.15,6.59-6.15c3.55,0,6.33,2.47,6.33,5.63
				C342.01,61.84,339.2,64.57,335.6,64.57z M335.24,53.95c-2.77,0-3.77,2.64-3.77,4.41c0,2.85,1.92,5,4.48,5
				c2.53,0,3.68-2.3,3.68-4.44C339.64,55.99,337.83,53.95,335.24,53.95z"/>
		</g>
		<g>
			<path class="st0" d="M347.93,64.31h-4.9v-1.09l0.37-0.02c0.81-0.05,0.87-0.06,0.87-1.26V55.3c0-1.04-0.05-1.18-0.88-1.2l-0.39,0
				v-1.1h8.36v2.79h-1.07l0-0.39c-0.01-0.8-0.21-1-1.01-1h-2.83v3.18h2.96c0.29,0,0.55-0.05,0.59-0.71l0.03-0.37h1.05v3.76h-1.06
				L350,59.88c-0.02-0.83-0.25-0.91-0.8-0.91h-2.74v3.32c0,0.7,0,0.91,1.08,0.91h0.39V64.31z"/>
		</g>
		<g>
			<path class="st0" d="M370.89,64.31h-7.63v-1.2h1.2c1.15,0,1.32-0.27,1.32-1.2V51.56h-3.39c-0.53,0-0.87,0.14-1.2,2.09l-0.06,0.33
				h-1.16l0.43-4.31h1.09l0.06,0.32c0.08-0.01,0.18,0.01,0.29,0.01h10.46c0.2,0,0.3-0.03,0.32-0.05l0.05-0.33l0.31,0.06h0.77
				l0.43,4.31h-1.17l-0.05-0.33c-0.33-1.94-0.69-2.08-1.2-2.08h-3.39V61.9c0,0.93,0.17,1.2,1.32,1.2h1.2V64.31z"/>
		</g>
		<g>
			<path class="st0" d="M384.68,64.31h-9.74V63.2h0.87c1.19,0,1.19-0.25,1.19-0.99v-7.15c0-0.77-0.08-0.96-0.96-0.96h-0.77v-1.11
				h8.88l0.19,3.14h-1.06l-0.05-0.33c-0.23-1.41-0.58-1.41-0.87-1.41h-3.17v3.37h2.63c0.3,0,0.52,0,0.59-0.91l0.03-0.36h1.08v4
				h-1.07l-0.04-0.35c-0.11-0.99-0.27-0.99-0.75-0.99h-2.46v3.21c0,0.54,0.08,0.54,0.52,0.54h2.6c0.89,0,1.17-0.19,1.59-1.63L384,61
				h1.03L384.68,64.31z"/>
		</g>
		<g>
			<path class="st0" d="M392.41,64.57c-3.66,0-6.31-2.44-6.31-5.8c0-3.5,2.72-6.05,6.47-6.05c1.49,0,2.41,0.32,3.02,0.53
				c0.24,0.08,0.44,0.15,0.55,0.15l0.12-0.14l0.18,0.04h0.63l0.2,3.25h-1.01l-0.09-0.26c-0.52-1.45-1.85-2.35-3.49-2.35
				c-2.55,0-4.2,1.77-4.2,4.5c0,2.75,1.93,4.92,4.38,4.92c1.68,0,2.91-0.75,3.79-2.3l0.11-0.2h1.07l-0.14,0.51
				c-0.24,0.81-0.71,1.89-1.13,2.57l-0.13,0.22l-0.26-0.04c-0.46-0.06-0.84,0.03-1.37,0.15C394.22,64.4,393.49,64.57,392.41,64.57z"
				/>
		</g>
		<g>
			<path class="st0" d="M411.57,64.31h-5.58V63.2h0.92c0.85,0,0.94-0.18,0.94-0.88v-3.04h-5.84v2.83c0,0.96,0.12,1.09,0.95,1.09
				h0.39l0.06,0.71v0.4h-5.04V63.2h0.5c0.85,0,0.94-0.18,0.94-0.84v-7.44c0-0.62-0.07-0.76-0.85-0.81l-0.37-0.02v-1.09h4.81v1.11
				h-0.39c-0.9,0-1.01,0.05-1.01,1.24v2.55h5.84v-2.94c0-0.64-0.07-0.85-0.94-0.85h-0.71v-1.11h5.12v1.1l-0.38,0.01
				c-0.79,0.03-0.9,0.15-0.9,1v7.02c0,0.99,0.17,1.08,0.96,1.08h0.57V64.31z"/>
		</g>
		<g>
			<path class="st0" d="M424.71,64.42h-1l-8.2-8.58v6.27c0,0.92,0,1.08,1.31,1.08h0.4v1.11h-4.71V63.2h0.39c1,0,1.06-0.28,1.06-0.74
				v-8.11c-0.28-0.16-0.6-0.23-1.04-0.25l-0.38-0.01v-1.1h3.22l7.41,7.72v-5.75c0-0.71,0-0.83-1.27-0.86l-0.39-0.01v-1.1h4.75v1.11
				h-0.39c-1.15,0-1.15,0.15-1.15,0.49V64.42z"/>
		</g>
		<g>
			<path class="st0" d="M433.34,64.57c-3.71,0-6.5-2.44-6.5-5.69c0-3.57,2.77-6.15,6.58-6.15c3.56,0,6.33,2.47,6.33,5.63
				C439.75,61.9,437,64.57,433.34,64.57z M432.98,53.95c-2.76,0-3.77,2.64-3.77,4.41c0,2.85,1.92,5,4.47,5
				c2.54,0,3.69-2.3,3.69-4.44C437.38,55.99,435.57,53.95,432.98,53.95z"/>
		</g>
		<g>
			<path class="st0" d="M448.56,64.31h-8.19V63.2h0.95c0.55,0,0.67-0.06,0.67-0.72v-7.5c0-0.66-0.08-0.87-0.95-0.87h-0.63v-1.11
				h5.79v1.11h-1.03c-0.99,0-0.99,0.05-0.99,0.77v7.81c0,0.15,0.03,0.19,0.03,0.2l0,0c0,0,0.05,0.03,0.25,0.03h2.49
				c0.76,0,0.97-0.21,2.04-1.7l0.12-0.16h1.16L448.56,64.31z"/>
		</g>
		<g>
			<path class="st0" d="M457.2,64.57c-3.71,0-6.5-2.44-6.5-5.69c0-3.57,2.77-6.15,6.59-6.15c3.55,0,6.33,2.47,6.33,5.63
				C463.62,61.84,460.8,64.57,457.2,64.57z M456.84,53.95c-2.76,0-3.76,2.64-3.76,4.41c0,2.85,1.93,5,4.48,5
				c2.53,0,3.69-2.3,3.69-4.44C461.24,55.99,459.44,53.95,456.84,53.95z"/>
		</g>
		<g>
			<path class="st0" d="M470.85,64.57c-3.82,0-5.82-2.88-5.82-5.72c0-2.46,1.67-6.12,6.29-6.12c1.31,0,2.32,0.29,2.92,0.47
				c0.19,0.05,0.39,0.11,0.46,0.11c0.08,0,0.12-0.02,0.13-0.02l0.11-0.09h0.77v3.53h-1.05l-0.07-0.31
				c-0.36-1.66-1.37-2.47-3.08-2.47c-2.84,0-4.11,2.41-4.11,4.8c0,3.39,2.38,4.62,3.98,4.62c0.74,0,1.47-0.16,2.2-0.5v-1.88
				c0-0.7-0.12-0.89-0.96-0.89h-1.02V59h5.36v1.07l-0.37,0.03c-0.74,0.05-0.82,0.24-0.82,0.67v2.59l-0.21,0.11
				C473.8,64.37,471.56,64.57,470.85,64.57z"/>
		</g>
		<g>
			<path class="st0" d="M486.08,64.31h-5.45V63.2h0.72c0.87,0,0.95-0.25,0.95-0.83V60.1l-2.95-4.6c-0.79-1.24-1.08-1.37-1.99-1.4
				l-0.39-0.01v-1.1h5.3v1.11h-0.4c-0.58,0-0.76,0.07-0.81,0.09c0.02,0.01,0.06,0.12,0.24,0.4l2.36,3.64l2.06-3.51
				c0.24-0.4,0.2-0.53,0.2-0.53l0,0c0,0-0.12-0.1-0.73-0.1h-0.39v-1.11h4.62v1.08l-0.37,0.03c-1,0.08-1.39,0.45-1.81,1.15
				l-2.75,4.66v2.43c0,0.67,0.12,0.86,0.96,0.86h0.62V64.31z"/>
		</g>
	</g>
</g>
<g>
	<g>
		<path class="st0" d="M40.81,55.41c-0.21,0-0.45-0.02-0.69-0.06c-0.86-0.13-1.88-0.47-3.02-0.99c-1.53,0.67-3.29,1-5.23,1
			c-1.92,0-3.68-0.34-5.25-1.02c-1.19,0.54-2.2,0.89-3.01,1.01c-1.26,0.2-2.14-0.11-2.57-0.81c-0.27-0.45-0.46-1.24,0.18-2.48
			l0.18-0.39c0.15-0.32,0.31-0.67,0.64-1.2c-0.1-0.16-0.19-0.32-0.29-0.48c-1.4-2.47-1.27-5.54,0.43-9.9
			c-0.76-1.7-2.5-6.38-0.42-9.89c0.09-0.16,0.19-0.31,0.29-0.46c-0.33-0.53-0.5-0.88-0.64-1.2l-0.18-0.39
			c-0.64-1.24-0.45-2.03-0.17-2.48c0.43-0.7,1.31-1.01,2.56-0.81c0.82,0.13,1.83,0.47,3.03,1.02c1.56-0.69,3.32-1.03,5.23-1.03
			c1.94,0,3.7,0.33,5.23,1c1.15-0.52,2.16-0.86,3.02-0.99c1.26-0.2,2.14,0.11,2.56,0.81c0.27,0.45,0.46,1.24-0.18,2.49l-0.18,0.39
			c-0.15,0.32-0.31,0.67-0.64,1.2c0.1,0.15,0.2,0.31,0.29,0.46c1.91,3.24,0.66,7.49-0.34,9.89c1.64,4.19,1.76,7.52,0.34,9.92
			c-0.09,0.16-0.19,0.31-0.29,0.46c0.33,0.54,0.5,0.89,0.64,1.21l0.18,0.39c0.64,1.23,0.45,2.03,0.18,2.47
			C42.33,55.1,41.67,55.41,40.81,55.41z M38.51,53.62c0.67,0.26,1.27,0.43,1.8,0.51c0.18,0.03,0.35,0.04,0.5,0.04
			c0.24,0,0.66-0.04,0.81-0.28c0.15-0.24,0.06-0.71-0.23-1.27c-0.07-0.16-0.14-0.29-0.2-0.43c-0.09-0.2-0.18-0.4-0.32-0.64
			C40.19,52.37,39.4,53.06,38.51,53.62z M22.83,51.56C22.7,51.8,22.61,52,22.51,52.2c-0.06,0.14-0.12,0.27-0.2,0.42
			c-0.29,0.56-0.37,1.04-0.23,1.27c0.15,0.25,0.57,0.29,0.81,0.29c0.16,0,0.32-0.02,0.5-0.04c0.5-0.08,1.1-0.26,1.79-0.53
			C24.29,53.04,23.5,52.36,22.83,51.56z M28.12,53.59c2.3,0.72,5.21,0.71,7.45,0.02c-1.17-0.63-2.42-1.42-3.72-2.31
			C30.63,52.14,29.34,52.93,28.12,53.59z M32.92,50.52c1.48,1.02,2.91,1.86,4.18,2.48c1.21-0.61,2.24-1.46,3.08-2.55
			c-0.29-0.41-0.66-0.91-1.15-1.54c-0.5-0.64-1.15-1.41-1.97-2.32C35.65,48.13,34.17,49.54,32.92,50.52z M23.53,50.46
			c0.81,1.05,1.85,1.9,3.07,2.52c1.31-0.64,2.79-1.51,4.19-2.45c-1.34-1.04-2.82-2.44-4.16-3.92c-0.81,0.91-1.46,1.67-1.95,2.31
			C24.19,49.54,23.81,50.04,23.53,50.46z M27.47,45.68c1.41,1.58,3,3.06,4.39,4.09c1.26-0.95,2.88-2.47,4.36-4.11
			c-1.13-1.24-2.31-2.47-3.25-3.45c-0.43-0.45-0.81-0.85-1.11-1.18l-0.01,0.01l-0.01-0.01c-0.3,0.33-0.68,0.72-1.11,1.18
			C29.79,43.19,28.61,44.43,27.47,45.68z M37.89,45.65c0.88,0.99,1.58,1.8,2.12,2.49c0.36,0.47,0.66,0.87,0.91,1.21
			c1.08-1.86,1.06-4.45-0.06-7.74C40.15,42.81,39.14,44.19,37.89,45.65L37.89,45.65L37.89,45.65z M22.94,41.6
			c-1.17,3.41-1.21,5.83-0.14,7.75c0.25-0.34,0.55-0.74,0.91-1.21c0.54-0.69,1.23-1.5,2.1-2.48h0l0,0
			C24.66,44.28,23.68,42.91,22.94,41.6z M23.52,40.06c0.72,1.47,1.79,3.07,3.13,4.67c1.12-1.21,2.27-2.42,3.19-3.39
			c0.46-0.48,0.86-0.91,1.18-1.23c-0.32-0.34-0.73-0.77-1.2-1.27c-0.92-0.97-2.07-2.17-3.18-3.38
			C25.18,37.15,24.1,38.75,23.52,40.06z M32.7,40.11c0.31,0.33,0.71,0.75,1.17,1.25c0.92,0.96,2.06,2.16,3.18,3.38
			c1.51-1.77,2.64-3.4,3.23-4.66c-0.59-1.34-1.67-2.93-3.16-4.65c-1.12,1.22-2.28,2.44-3.21,3.42
			C33.43,39.33,33.02,39.77,32.7,40.11z M27.45,34.52c1.13,1.24,2.31,2.48,3.25,3.47c0.44,0.46,0.83,0.87,1.14,1.2l0.01-0.01l0,0.01
			c0.31-0.34,0.7-0.75,1.15-1.21c0.95-1,2.13-2.25,3.27-3.5c-1.43-1.54-3.06-3.04-4.42-4.05C30.52,31.45,28.89,32.95,27.45,34.52z
			 M22.79,30.87c-1.44,2.48-0.63,5.77,0.09,7.7c0.81-1.47,1.93-2.91,2.91-4.04l-0.01,0l0,0c-0.86-0.96-1.55-1.78-2.08-2.45
			C23.34,31.61,23.04,31.21,22.79,30.87z M37.95,34.5c0.98,1.13,2.12,2.57,2.94,4.04c0.78-2.21,1.4-5.32,0.03-7.67
			c-0.25,0.34-0.55,0.74-0.91,1.21C39.48,32.74,38.8,33.54,37.95,34.5L37.95,34.5L37.95,34.5z M23.54,29.77
			c0.29,0.41,0.65,0.9,1.15,1.53c0.49,0.63,1.13,1.39,1.94,2.29c1.35-1.47,2.87-2.88,4.18-3.9c-1.4-0.94-2.87-1.8-4.18-2.44
			C25.4,27.88,24.37,28.72,23.54,29.77z M32.92,29.69c1.32,1.03,2.84,2.44,4.19,3.88c0.79-0.89,1.42-1.63,1.91-2.26
			c0.49-0.63,0.86-1.13,1.15-1.54c-0.84-1.09-1.87-1.94-3.08-2.55C35.82,27.84,34.4,28.68,32.92,29.69z M28.13,26.64
			c1.22,0.65,2.52,1.44,3.73,2.28c1.29-0.9,2.54-1.68,3.72-2.31C33.34,25.92,30.43,25.91,28.13,26.64z M22.9,26.04
			c-0.24,0-0.66,0.04-0.81,0.28c-0.15,0.24-0.06,0.72,0.22,1.28c0.08,0.15,0.14,0.29,0.2,0.43c0.1,0.21,0.19,0.4,0.33,0.65
			c0.69-0.8,1.48-1.49,2.38-2.05c-0.71-0.28-1.31-0.46-1.82-0.54C23.22,26.05,23.06,26.04,22.9,26.04z M38.51,26.6
			c0.89,0.55,1.68,1.25,2.37,2.06c0.13-0.24,0.22-0.44,0.32-0.64c0.06-0.14,0.13-0.27,0.2-0.43c0.29-0.56,0.38-1.04,0.23-1.28
			c-0.15-0.24-0.57-0.28-0.81-0.28c-0.16,0-0.32,0.01-0.5,0.04C39.78,26.17,39.18,26.34,38.51,26.6z"/>
	</g>
	<polygon class="st0" points="7,16.03 18.65,16.03 15.54,20.88 15.54,59.1 40.86,59.1 46.77,54.95 41.8,64.18 7,64.18 9.95,59.1 
		9.95,20.88 	"/>
	<polygon class="st0" points="56.73,64.18 45.07,64.18 48.18,59.34 48.18,21.12 22.86,21.12 16.96,25.26 21.93,16.03 56.73,16.03 
		53.78,21.12 53.78,59.34 	"/>
</g>
</svg>
