<svg id="Layer_1" data-name="Layer 1" xmlns="http://www.w3.org/2000/svg" xmlns:xlink="http://www.w3.org/1999/xlink" viewBox="0 0 298.52 280"><defs><style>.cls-1{fill:none;}.cls-2{fill:#76B4EB;}.cls-3{fill:#ffe636;}.cls-4{clip-path:url(#clip-path);}.cls-5{fill:#f9a22d;}</style><clipPath id="clip-path" transform="translate(-810.47 -400.27)"><rect class="cls-1" x="853.95" y="512.13" width="211.15" height="63.21" transform="translate(-127.88 359.67) rotate(-19.93)"/></clipPath></defs><title>faq_icon</title><circle class="cls-2" cx="149.08" cy="140" r="140"/><g id="Layer_1-2" data-name="Layer 1-2"><path id="_Path_3" data-name=" Path 3" class="cls-3" d="M909.13,562.61c4.65,12.88-2.39,27.09-15.8,31.87s-26.42-2.26-30.94-14.88.8-26.69,14.08-31.47S904.49,549.72,909.13,562.61Z" transform="translate(-810.47 -400.27)"/><path id="_Path_4" data-name=" Path 4" class="cls-3" d="M1011.92,525.16c4.65,12.88,19.79,20.85,33.06,15.93s18.33-20.18,13.68-32.93-17.66-19.65-30.94-14.87S1007.27,512.28,1011.92,525.16Z" transform="translate(-810.47 -400.27)"/><g class="cls-4"><g id="_Group_" data-name=" Group "><g id="_Group_2" data-name=" Group 2"><path id="_Path_7" data-name=" Path 7" class="cls-3" d="M908.87,572.3c-1.06,8.76-6.91,17.66-16.2,21.25a25.18,25.18,0,0,1-32.4-14.61,26.76,26.76,0,0,1-1.46-11.69l18.32-6.64,4.38,2.53,8.63,5-3.71,9.3,1.06,2.79Z" transform="translate(-810.47 -400.27)"/><polygon id="_Path_8" data-name=" Path 8" class="cls-2" points="79.81 167.65 76.22 176.81 74.23 182.12 56.7 188.63 23.77 200.71 0 197 16.2 178.8 48.47 166.85 66.66 160.08 71.18 162.6 79.81 167.65"/></g><g id="_Group_3" data-name=" Group 3"><polygon id="_Path_9" data-name=" Path 9" class="cls-3" points="222.43 108.42 219.38 117.05 227.21 121.57 227.48 122.23 226.55 121.83 218.45 117.45 221.77 108.69 222.17 107.62 222.43 108.42"/><path id="_Path_10" data-name=" Path 10" class="cls-3" d="M1042.73,525.16l17.39-6.11c-1.32,9-7.17,17.66-16.33,20.85-9.56,3.32-19.39,1.33-26.29-6.11L887.75,580.93l-2-1.06L890,568.32l-8.1-4.52-4.38-2.52-18.33,6.64A24.92,24.92,0,0,1,887.09,546a24.35,24.35,0,0,1,15.4,7.83l108.1-39.17A25,25,0,0,1,1036.88,491a24.67,24.67,0,0,1,15.54,6.51l-17.53,7.7-2,3.72-.4.93-3.32,8,8.24,4.39.79.53Z" transform="translate(-810.47 -400.27)"/><path id="_Path_13" data-name=" Path 13" class="cls-2" d="M1109,489.17l-15.93,18.06-33.2,11.69-17.53,6.24-4.65-2.53-.8-.53-8.1-4.38q3.06-6.71,6.11-13.41l17.4-7h.26l32.27-11.69Z" transform="translate(-810.47 -400.27)"/></g></g></g><path id="_Path_14" data-name=" Path 14" class="cls-5" d="M1009,526.75l-95.62,34.66a2.22,2.22,0,0,1-2.78-1.33h0a2.23,2.23,0,0,1,1.32-2.79l95.62-34.66a2.22,2.22,0,0,1,2.78,1.33h0A2.28,2.28,0,0,1,1009,526.75Z" transform="translate(-810.47 -400.27)"/></g></svg>