<svg id="Layer_1" data-name="Layer 1" xmlns="http://www.w3.org/2000/svg" viewBox="0 0 557 557.68"><defs><style>.cls-1{fill:#AACE98;}.cls-2{fill:#D2F7BE;}</style></defs><title>gear03</title><g id="Layer_1-2" data-name="Layer 1-2"><g id="Layer_2-2" data-name="Layer 2-2"><g id="Layer_1-2-2" data-name="Layer 1-2-2"><path class="cls-1" d="M961.92,260.84l17.77,1.07h2.84c7.64,0,7.82,0,8.89,7.77,3.06,20.17,6.13,40.29,8.88,60.42.62,4.22,2.05,5.33,6.13,6.08a145.83,145.83,0,0,1,39.14,13.33c5.06,2.4,10.44,5,15.33,7.2,18.21-15.91,36-32,54-47.89A308.91,308.91,0,0,1,1175,362.39c1.91,2.31,1.6,3.51,0,5.91-12.92,17-25.76,34.38-38.69,51.4a5.9,5.9,0,0,0-.53,6.88q10.62,20.54,20.48,41.23a63.59,63.59,0,0,1,3.46,11.46,4.45,4.45,0,0,0,4.8,3.6c15.86.71,31.76,1.46,47.13,2.4a204.17,204.17,0,0,1,21.1,1.11,266.19,266.19,0,0,1,3.6,84.84l-24.25,3.51c-14.57,2-29.14,4-43.89,5.87a4.72,4.72,0,0,0-4.85,4.44,190.3,190.3,0,0,1-18.34,52.6,5.45,5.45,0,0,0,1,4.8c14.34,15.77,28.65,31.45,43.17,47,1.25,1.33,2.36,2.75,3.83,4.44-16.93,22-33.19,44.42-55.89,62.19-12.84-9.41-25.28-18.39-37.71-27.85-5.78-4.44-11.55-9.28-17.77-13.86a5.67,5.67,0,0,0-5.25-.58,174.37,174.37,0,0,1-53.3,25.59,5,5,0,0,0-4.31,5.64c-.62,21.55-2,42.83-3.07,64.37a5,5,0,0,1-3,3.73,288.63,288.63,0,0,1-78.49,4.45,5.27,5.27,0,0,1-3-3.25c-3.29-20.74-6.53-41.49-9.29-62.19a7.58,7.58,0,0,0-7.15-7.77,152.47,152.47,0,0,1-49.53-17.51A7.33,7.33,0,0,0,855,728h0c-15.82,15.15-32.16,29.67-48.38,44.42a252.06,252.06,0,0,1-61.88-56.73c14.22-19.1,28.39-37.93,42.82-56.77A190.09,190.09,0,0,1,758,597l-51.66-2.57c-5,0-10.31-.76-15.28-.93a4,4,0,0,1-4.44-3.43.9.9,0,0,1,0-.4,227.73,227.73,0,0,1-4.05-74.45c.49-3.64,1.82-4.93,5.2-5.42l54.6-8.35,11.86-1.78a183.38,183.38,0,0,1,21.54-58.41c1.69-2.67.8-4.45-1.11-6.58l-45.89-50.37a284.5,284.5,0,0,1,52.42-59.4,4.18,4.18,0,0,1,5.91,0h0l.27.27c16.83,12.7,33.58,25.23,50.2,37.94a7.37,7.37,0,0,0,9.86.57c14.08-7.81,28.61-14.88,43.22-21.9a71.5,71.5,0,0,1,13.64-3.64l.62-23.28c.76-14.83,1.87-29.76,2.71-44.42,0-3,1.16-4.44,4.18-4.44,5.37-1.16,10.79-2,16.17-2.8,1.85-.37,3.69-.83,5.5-1.38C942.73,261.68,952.1,261.24,961.92,260.84ZM953,375.9c-86-3.07-161,83-155.93,169.56a163.89,163.89,0,1,0,327.62-10h0v-4.75C1120.91,440.18,1036,365.55,953,375.9Z" transform="translate(-681.16 -260.84)"/><path class="cls-2" d="M954.28,404.15c68.14-4,138.69,48.11,142.82,128.12,3.78,78.4-63.57,139.88-130.47,143-72.94,3.2-140.07-57.71-142.64-130.07a135.72,135.72,0,0,1,130.21-141ZM1069.2,533.78C1068,467.63,1009,428.54,955.79,431.16A108.22,108.22,0,0,0,851.66,543.31v0h0a110.62,110.62,0,0,0,113.5,104.75C1015.41,646.52,1075.07,600.19,1069.2,533.78Z" transform="translate(-681.16 -260.84)"/></g></g></g></svg>