<?xml version="1.0" encoding="utf-8"?>
<!-- Generator: Adobe Illustrator 25.0.0, SVG Export Plug-In . SVG Version: 6.00 Build 0)  -->
<svg version="1.1" id="Layer_1" xmlns="http://www.w3.org/2000/svg" xmlns:xlink="http://www.w3.org/1999/xlink" x="0px" y="0px"
	preserveAspectRatio="xMidYMid meet" viewBox="60 110 218.01 213.12" style="enable-background:new 0 0 218.01 213.12;background-size:cover;" xml:space="preserve">
<style type="text/css">
	.st2{fill:#CE883C;}
	.st4{fill:#F9AA54;}
	.st5{fill:#F8AA55;}
</style>
<g id="Layer_3">
	<path class="st2" d="M78.21,127.25c2.61,0,5.22,0.01,7.83,0.01c4.1,0,8.19,0,12.29,0c3.51,0,7.03-0.01,10.54-0.01
		c1.74-0.01,3.47-0.02,5.21-0.03c10.29-0.15,20.57-0.31,30.86-0.46c5.3,0.02,10.59,0.03,15.89,0.06c2.93,0.02,4,0.93,4.25,3.84
		c0.25,2.89,0.48,5.8,0.48,8.7c-0.02,6.79-0.76,7.67-7.46,9.38c-0.09,2.01-0.27,4.1-0.26,6.19c0.06,12.26,0.09,24.52,0.29,36.78
		c0.04,2.66-0.9,4.36-3.4,4.85c-8.62,1.71-17.22,3.75-25.93,4.81c-12.81,1.56-25.74,1.58-38.57,0.03c-5.9-0.72-11.7-2.29-17.51-3.65
		c-2.22-0.52-2.98-2.16-3.1-4.56c-0.72-14.26-1.63-28.51-2.58-42.76c-0.04-0.66-0.92-1.67-1.59-1.83c-6.97-1.76-7.18-0.28-8.08-9.24
		c-0.27-2.69-0.13-5.45,0.15-8.15c0.32-3.12,1.37-3.87,4.51-3.89C67.44,127.29,72.82,127.27,78.21,127.25z M72.65,149.74
		c0.26,3.37,0.51,6.5,0.73,9.63c0.72,10.15,1.62,20.3,2.01,30.46c0.12,2.98,1.35,3.94,3.75,4.23c7.92,0.94,15.83,2.29,23.77,2.53
		c8.51,0.26,17.07-0.26,25.56-1.02c6.96-0.62,13.85-2.06,20.76-3.18c2.29-0.37,3.27-1.48,3.23-4.12
		c-0.19-12.09-0.08-24.19-0.09-36.28c0-0.93-0.1-1.86-0.16-3.06C125.72,151.07,99.52,151.25,72.65,149.74z M159.81,142.86
		c0-2.67-0.16-4.79,0.04-6.87c0.25-2.58-0.45-3.51-3.28-3.44c-8.55,0.21-17.11,0-25.66,0.08c-11.04,0.1-22.08,0.39-33.13,0.48
		c-10.6,0.09-21.2,0.03-31.8,0.04c-1.01,0-2.03,0.09-3.4,0.15c0.25,2.71,0.3,5.09,0.78,7.39c0.16,0.78,1.32,1.86,2.11,1.94
		c9.68,1,19.37,2.43,29.07,2.57c14.35,0.2,28.72-0.47,43.07-0.96C144.88,144.01,152.13,143.35,159.81,142.86z"/>
	<path class="st4" d="M72.65,149.74c26.87,1.51,53.07,1.33,79.56-0.8c0.07,1.2,0.16,2.13,0.16,3.06
		c0.01,12.09-0.09,24.19,0.09,36.28c0.04,2.64-0.94,3.75-3.23,4.12c-6.91,1.12-13.8,2.56-20.76,3.18
		c-8.49,0.75-17.06,1.27-25.56,1.02c-7.94-0.24-15.85-1.6-23.77-2.53c-2.4-0.28-3.64-1.24-3.75-4.23
		c-0.4-10.17-1.3-20.31-2.01-30.46C73.16,156.24,72.91,153.12,72.65,149.74z"/>
	<path class="st5" d="M159.81,142.86c-7.67,0.5-14.93,1.15-22.2,1.39c-14.35,0.49-28.72,1.15-43.07,0.96
		c-9.7-0.13-19.39-1.57-29.07-2.57c-0.79-0.08-1.95-1.16-2.11-1.94c-0.47-2.29-0.53-4.67-0.78-7.39c1.37-0.06,2.39-0.15,3.4-0.15
		c10.6-0.02,21.2,0.05,31.8-0.04c11.04-0.09,22.08-0.38,33.13-0.48c8.55-0.08,17.11,0.12,25.66-0.08c2.83-0.07,3.53,0.86,3.28,3.44
		C159.65,138.07,159.81,140.19,159.81,142.86z"/>
</g>
</svg>
