<?xml version="1.0" standalone="no"?>
<!DOCTYPE svg PUBLIC "-//W3C//DTD SVG 20010904//EN"
 "http://www.w3.org/TR/2001/REC-SVG-20010904/DTD/svg10.dtd">
<svg version="1.0" xmlns="http://www.w3.org/2000/svg"
 width="1239.000000pt" height="1280.000000pt" viewBox="0 0 1239.000000 1280.000000"
 preserveAspectRatio="xMidYMid meet">
<metadata>
Created by potrace 1.15, written by Peter Selinger 2001-2017
</metadata>
<g transform="translate(0.000000,1280.000000) scale(0.100000,-0.100000)"
fill="#6e5f49" stroke="none">
<path d="M5064 12792 c-59 -39 -40 -232 50 -488 92 -262 268 -626 475 -977
287 -489 461 -857 461 -976 0 -50 36 -152 81 -228 51 -88 256 -287 361 -351
170 -105 291 -146 478 -162 63 -5 129 -13 145 -18 194 -60 342 -188 433 -375
70 -141 86 -213 87 -372 0 -96 -4 -141 -17 -173 -60 -159 -194 -291 -548 -542
-370 -263 -641 -514 -800 -745 -163 -236 -396 -507 -733 -854 -437 -448 -616
-674 -637 -807 -5 -31 -12 -59 -16 -63 -23 -24 -100 164 -121 299 -13 80 -14
107 -3 176 7 45 10 99 7 121 -10 63 -82 193 -153 278 -149 178 -302 402 -449
655 -182 315 -301 464 -500 623 -335 271 -566 533 -690 782 -44 89 -62 142
-96 280 -161 667 -395 1004 -927 1337 -154 96 -566 301 -717 357 -322 118
-663 179 -953 168 -161 -6 -206 -15 -252 -53 -39 -33 -39 -67 0 -104 34 -31
85 -47 187 -54 135 -11 251 -67 367 -176 116 -110 196 -148 351 -168 95 -13
196 -45 365 -119 336 -146 739 -391 890 -543 132 -131 192 -291 211 -555 5
-82 17 -187 25 -232 59 -328 253 -735 422 -884 54 -47 111 -79 142 -79 104 0
-217 -149 -459 -213 -111 -29 -126 -30 -321 -31 -188 -1 -217 1 -340 27 -436
91 -574 78 -893 -79 -395 -195 -731 -477 -806 -679 -27 -71 -26 -104 2 -146
49 -73 116 -95 193 -63 69 29 144 12 359 -80 68 -29 147 -34 199 -12 18 8 51
32 72 53 105 106 282 152 688 178 419 27 684 86 967 216 331 151 522 187 738
139 229 -51 470 -176 561 -290 25 -32 37 -60 47 -114 18 -98 49 -135 125 -151
101 -20 184 -212 248 -574 61 -348 72 -623 33 -801 -55 -246 -177 -552 -445
-1115 -147 -309 -162 -352 -162 -485 0 -138 23 -239 123 -543 91 -278 124
-387 118 -393 -2 -3 -12 23 -22 57 l-17 62 -86 -7 c-91 -7 -103 -8 -217 -25
-82 -13 -98 -16 -225 -42 -133 -28 -159 -34 -210 -51 -25 -8 -65 -21 -90 -28
-25 -7 -79 -25 -120 -40 -41 -16 -86 -32 -100 -35 -52 -15 -302 -135 -360
-174 -14 -9 -38 -23 -55 -31 -16 -8 -32 -17 -35 -20 -3 -3 -32 -25 -65 -50
-73 -54 -102 -79 -174 -150 -126 -124 -155 -170 -241 -385 -5 -11 -14 -55 -20
-98 -19 -131 6 -248 91 -417 61 -121 211 -282 354 -380 28 -19 56 -40 64 -48
7 -7 52 -33 100 -58 47 -25 102 -53 121 -63 151 -80 389 -166 613 -222 198
-49 263 -61 502 -93 399 -54 1026 -34 1400 44 103 22 225 50 255 60 14 4 45
13 70 20 190 54 390 130 505 192 22 12 72 38 111 58 79 41 212 134 309 218 24
21 152 161 175 191 13 18 25 39 26 48 2 9 7 19 11 22 12 8 44 79 74 161 20 55
23 84 23 190 0 151 -16 207 -106 369 -57 103 -212 261 -343 351 -28 18 -52 36
-55 39 -3 3 -16 12 -29 19 -47 27 -97 54 -136 75 -22 12 -42 24 -45 27 -3 3
-17 11 -32 18 -16 6 -39 17 -53 24 -14 6 -27 9 -31 6 -3 -3 24 -51 60 -106 53
-83 126 -211 84 -148 -215 319 -258 413 -297 648 -30 185 -41 423 -48 1073 -9
915 11 1248 88 1479 37 112 67 167 217 398 189 293 294 489 308 576 9 55 101
244 204 417 189 317 405 618 565 783 184 192 318 286 635 447 514 260 922 555
1486 1075 344 319 558 491 791 639 527 334 966 426 1560 325 176 -29 402 -41
488 -25 92 17 179 64 215 116 65 94 75 239 30 439 -27 121 -52 170 -97 191
-46 22 -92 17 -278 -30 -194 -49 -291 -64 -472 -75 -159 -10 -378 -1 -511 21
-37 6 -126 10 -199 10 -208 -1 -308 -30 -513 -151 -218 -128 -301 -133 -350
-18 -21 50 -22 61 -17 218 6 170 16 236 86 590 64 329 75 418 76 600 0 185 -8
213 -75 257 -117 79 -249 -52 -440 -435 -113 -227 -200 -435 -481 -1161 -411
-1060 -692 -1561 -875 -1561 -54 0 -104 89 -104 184 0 195 -365 578 -720 756
-124 62 -194 81 -321 91 -137 9 -223 28 -328 70 -192 77 -350 216 -418 368
-15 34 -30 97 -39 163 -17 130 -38 197 -109 343 -106 218 -247 424 -395 579
-88 92 -104 113 -164 235 -37 73 -108 228 -157 345 -142 334 -230 499 -312
584 -40 41 -60 49 -83 34z m5756 -2301 c0 -53 -253 -181 -357 -181 -36 0 -43
3 -43 20 0 54 248 178 358 179 35 1 42 -2 42 -18z m-9702 -3299 c10 -30 -120
-117 -262 -174 -78 -32 -139 -35 -144 -7 -14 74 383 251 406 181z m5046 -5078
c3 -8 2 -12 -4 -9 -6 3 -10 10 -10 16 0 14 7 11 14 -7z"/>
<path d="M5951 2480 c14 -31 19 -36 19 -24 0 6 -7 19 -16 30 -14 18 -14 18 -3
-6z"/>
</g>
</svg>
