<?xml version="1.0" encoding="utf-8"?>
<!-- Generator: Adobe Illustrator 26.0.2, SVG Export Plug-In . SVG Version: 6.00 Build 0)  -->
<svg version="1.1" id="Layer_1" xmlns="http://www.w3.org/2000/svg" xmlns:xlink="http://www.w3.org/1999/xlink" x="0px" y="0px"
	 viewBox="0 0 1920 1080" style="enable-background:new 0 0 1920 1080;" xml:space="preserve">
<style type="text/css">
	.st0{fill:#9B9359;}
</style>
<polygon class="st0" points="483,236 509,221 616,324 735,348 732,417 722,632 709.5,941.7 636.8,955.81 609,939.76 626,913 
	598,891 614,866 587,852 609,824.03 584,809 603,779 573,766 592,735 568,719 584,692 558,677 578,646 552,631 570,603 
	539.81,588.41 560,559 534.74,540 552,516 525.45,499.88 543,475 520,456 541,436 514,412 531,389 503,371 521,343 499,326 517,297 
	490,281 508,254 "/>
<path class="st0" d="M749,215c1.2-5.1,3.2-13.9,2-25c-0.13-1.23-1.42-7.51-4-20c-2.28-11.06-2.86-13.74-3-18
	c-0.18-5.33,0.71-9.68,2-17c1.88-10.68,3.15-12.24,2-16c-1.7-5.58-6.5-8.72-10-11c-2.96-1.93-9.44-6.17-17-5
	c-4.24,0.66-6.99,2.73-14,9c-5.13,4.59-11.63,10.62-19,18l-35-3h-62l-18-19c-1.49-2.78-5.95-10.16-15-14c-1.5-0.64-15.93-6.53-24,1
	c-7.45,6.95-4.33,20.55-4,22c1.31,5.69,3.37,6.35,4,12c0.43,3.84-0.15,6.93-3,16c-4.94,15.72-5.79,14.68-7,21
	c-1.01,5.29-1.01,10.2-1,20c0,5.98,0.28,9.36,1,13c0.83,4.22,2.03,7.63,3,10l97,98c5.73,2.27,104.2,40.65,118,18
	c3.7-6.07,3.48-20.09-1-31c-5.13-12.5-13.24-14.58-14-25c-0.31-4.22,0.88-5.76,9-23C747.03,222.57,748.27,218.09,749,215z
	 M700.54,181.97c-0.29,7.76-3.9,14.94-3.93,22.66c0,1.27-0.4,2.28-1.02,3.05c-0.05,1.94-1.11,3.83-3.48,4.56
	c-9.34,2.88-19.92,2.17-29.56,1.63c-10.42-0.58-20.75-2.2-31.14-3.15c-10.72-0.99-21.48-1.52-32.16-2.88
	c-4.64-0.59-9.37-1.11-13.84-2.55c-4.7-1.51-9.1-3.62-13.99-4.48c-1.48-0.26-2.45-0.99-3.01-1.93c-0.59-0.39-1.13-0.95-1.57-1.7
	c-4.12-7.14-7.22-14.8-7.51-23.14c-0.29-8.41,2.52-16.35,6.14-23.82c1.19-2.45,3.41-2.95,5.37-2.29c0.8-0.93,1.99-1.56,3.58-1.59
	c10.23-0.19,20.4,1.17,30.63,1.11c9.87-0.06,19.73-0.72,29.6-0.95c20.13-0.46,39.44,2.89,59.13,6.71c2.87,0.56,3.88,2.85,3.54,5.08
	c0.21,0.36,0.38,0.75,0.51,1.2C699.94,166.78,700.82,174.39,700.54,181.97z"/>
<path class="st0" d="M466.53,91.2"/>
<path class="st0" d="M923,439"/>
<path class="st0" d="M831,117"/>
<path class="st0" d="M696.6,204.63c0,1.27-0.4,2.28-1.02,3.05c-0.05,1.94-1.11,3.83-3.48,4.56c-2.88,0.89-5.88,1.43-8.94,1.75
	L697,216v-15.94C696.76,201.57,696.61,203.09,696.6,204.63z"/>
<path class="st0" d="M466.53,79.57"/>
<path class="st0" d="M697,216l-6.34-3.35c-0.11,0.03-0.22,0.06-0.32,0.09C692.56,213.88,694.78,214.99,697,216z"/>
</svg>
