<svg id="Layer_1" data-name="Layer 1" xmlns="http://www.w3.org/2000/svg" viewBox="0 0 280 280"><defs><style>.cls-1{fill:#3c72a6;}.cls-2{fill:#ffe636;}.cls-3{fill:#f9a22d;}.cls-4{fill:#f16722;}</style></defs><title>schedule_icon</title><circle class="cls-1" cx="140" cy="140" r="140"/><g id="Layer_1-2" data-name="Layer 1-2"><g id="_Group_" data-name=" Group "><path id="_Path_2" data-name=" Path 2" class="cls-2" d="M880.87,534a1.87,1.87,0,0,1-1.76,1.44,1.2,1.2,0,0,1-1.12-.8,30.53,30.53,0,0,1,3.68-38.27l-1.12-1.12a4,4,0,0,1-.48-5.6l.48-.48,16.17-16.33a4.52,4.52,0,0,1,6.24-.64l.48.48,9-9a6.41,6.41,0,0,1,0-8.65l.16-.16a5.79,5.79,0,0,1,8.16,0h0l17.13,17a5.72,5.72,0,0,1,0,7.85l-.32.32c-2.4,2.4-5.44,3.2-8.8,0l-9,9c2.08,2.24,2.89,5.92,1,7.85L904.4,513.22c-1.92,1.93-5,1-6.88-.8l-1.12-1.12C887.76,519.79,882.15,528.43,880.87,534Z" transform="translate(-819.73 -400.27)"/><path id="_Path_5" data-name=" Path 5" class="cls-3" d="M1023.83,626.57l-116.22-118,9-9,118,116.06a4.17,4.17,0,0,1,0,6.09l-4.64,4.64A4.31,4.31,0,0,1,1023.83,626.57Z" transform="translate(-819.73 -400.27)"/><path id="_Path_6" data-name=" Path 6" class="cls-2" d="M901.52,482l-6.56-1c-.48-.16-.8-.48-.64-1,0-.16.16-.32.16-.48l5.12-5.13a.77.77,0,0,1,1.12,0h0l7,7a.77.77,0,0,1,0,1.12,1.22,1.22,0,0,1-.8.32Z" transform="translate(-819.73 -400.27)"/><path id="_Rectangle_2" data-name=" Rectangle 2" class="cls-4" d="M923.3,503.14l2.4,2.4a2.23,2.23,0,0,1,0,3l-9.13,9.13a2.23,2.23,0,0,1-3,0l-2.4-2.4a2.24,2.24,0,0,1,0-3l9.12-9.12A2.24,2.24,0,0,1,923.3,503.14Z" transform="translate(-819.73 -400.27)"/></g></g></svg>