<?xml version="1.0" encoding="utf-8"?>
<!-- Generator: Adobe Illustrator 25.0.0, SVG Export Plug-In . SVG Version: 6.00 Build 0)  -->
<svg version="1.1" id="Layer_1" xmlns="http://www.w3.org/2000/svg" xmlns:xlink="http://www.w3.org/1999/xlink" x="0px" y="0px"
	 viewBox="0 0 218.01 213.12" style="enable-background:new 0 0 218.01 213.12;" xml:space="preserve">
<style type="text/css">
	.st0{fill:#FEFEFE;}
	.st1{fill:#539D34;}
	.st2{fill:#CE883C;}
	.st3{fill:#A7CE96;}
	.st4{fill:#F9AA54;}
	.st5{fill:#F8AA55;}
</style>
<g id="Layer_3">
	<path class="st0" d="M78.21,127.25c-5.38,0.02-10.77,0.04-16.15,0.06c-3.13,0.02-4.18,0.77-4.51,3.89
		c-0.28,2.7-0.42,5.46-0.15,8.15c0.9,8.96,1.11,7.49,8.08,9.24c0.66,0.17,1.54,1.17,1.59,1.83c0.94,14.25,1.86,28.5,2.58,42.76
		c0.12,2.41,0.88,4.04,3.1,4.56c5.81,1.36,11.61,2.94,17.51,3.65c12.83,1.56,25.75,1.54,38.57-0.03c8.71-1.06,17.31-3.1,25.93-4.81
		c2.5-0.5,3.44-2.19,3.4-4.85c-0.2-12.26-0.24-24.52-0.29-36.78c-0.01-2.09,0.17-4.18,0.26-6.19c6.7-1.71,7.44-2.59,7.46-9.38
		c0.01-2.9-0.23-5.81-0.48-8.7c-0.25-2.91-1.32-3.83-4.25-3.84c-5.3-0.03-10.59-0.04-15.89-0.06c0.07-0.16,0.12-0.34,0.22-0.47
		c14.43-18.79,19.47-40.54,19.84-63.68c0.05-3.28-0.83-6.64-1.69-9.86c-0.75-2.81-2.55-3.39-5.07-2.08
		c-2.27,1.18-4.51,2.41-6.73,3.68c-2.94,1.69-5.85,3.45-8.94,5.27c-2.74-9.51-6.92-18.03-11.99-26.13
		c-5.28-8.45-11.55-16.01-19.65-21.96c-1.8-1.32-3.25-1.45-4.77,0.41C97.68,22.4,90.2,33.46,86.27,46.54
		c-1.18,3.93-2.18,7.92-3.32,12.11c-0.89-0.65-1.59-1.16-2.28-1.68c-5.83-4.36-12.09-7.93-19.13-9.97c-4.15-1.2-4.99-0.66-6.38,3.39
		c-2.57,7.48-3.08,15.14-2.44,22.97c1.22,14.77,5.14,28.62,14.2,40.6C70.4,118.62,74.42,122.84,78.21,127.25z"/>
	<path class="st0" d="M100.52,66.39c-0.47-0.49-1.05-0.66-1.71-0.45c-0.52,0.17-1.06,0.46-0.95,1.06"/>
	<path class="st1" d="M78.21,127.25c-3.78-4.41-7.8-8.64-11.3-13.26c-9.06-11.98-12.98-25.83-14.2-40.6
		c-0.65-7.82-0.13-15.49,2.44-22.97c1.39-4.05,2.23-4.6,6.38-3.39c7.04,2.04,13.29,5.61,19.13,9.97c0.69,0.52,1.39,1.02,2.28,1.68
		c1.14-4.19,2.14-8.18,3.32-12.11c3.93-13.09,11.41-24.15,19.92-34.61c1.52-1.86,2.97-1.73,4.77-0.41
		c8.1,5.95,14.37,13.51,19.65,21.96c5.06,8.1,9.25,16.62,11.99,26.13c3.09-1.83,5.99-3.58,8.94-5.27c2.22-1.27,4.46-2.5,6.73-3.68
		c2.52-1.32,4.32-0.74,5.07,2.08c0.86,3.22,1.74,6.57,1.69,9.86c-0.36,23.14-5.4,44.89-19.84,63.68c-0.1,0.13-0.15,0.31-0.22,0.47
		c-10.29,0.15-20.57,0.31-30.86,0.46c0.39-0.76,0.7-1.59,1.2-2.28c5.03-7.01,10.49-13.76,15.06-21.06
		c5.98-9.55,11.35-19.48,16.8-29.35c3-5.43,5.63-11.05,8.53-16.79c-0.55,0.07-0.73,0.04-0.86,0.11
		c-12.69,7.04-24.26,15.43-32.69,27.5c-8.77,12.56-15.79,25.73-13.24,41.89c-3.51,0-7.03,0.01-10.54,0.01
		C83.29,104.48,71.1,80.09,58.72,55.7c-0.6,1.69-1.14,3.31-1.13,4.94c0.06,6.05-0.09,12.13,0.55,18.13
		c1.07,10.09,4.21,19.59,9.65,28.24c4.91,7.81,10.75,14.81,18.28,20.27C83.42,127.26,80.81,127.26,78.21,127.25z M107.37,18.33
		C98,28.59,90.04,45.67,87.65,59.78c-0.35,2.08,0.17,3.3,1.52,4.82c4.89,5.54,9.65,11.21,14.29,16.96c2.09,2.6,3.8,5.51,5.89,8.59
		C110.74,65.97,110,42.33,107.37,18.33z"/>
	<path class="st2" d="M78.21,127.25c2.61,0,5.22,0.01,7.83,0.01c4.1,0,8.19,0,12.29,0c3.51,0,7.03-0.01,10.54-0.01
		c1.74-0.01,3.47-0.02,5.21-0.03c10.29-0.15,20.57-0.31,30.86-0.46c5.3,0.02,10.59,0.03,15.89,0.06c2.93,0.02,4,0.93,4.25,3.84
		c0.25,2.89,0.48,5.8,0.48,8.7c-0.02,6.79-0.76,7.67-7.46,9.38c-0.09,2.01-0.27,4.1-0.26,6.19c0.06,12.26,0.09,24.52,0.29,36.78
		c0.04,2.66-0.9,4.36-3.4,4.85c-8.62,1.71-17.22,3.75-25.93,4.81c-12.81,1.56-25.74,1.58-38.57,0.03c-5.9-0.72-11.7-2.29-17.51-3.65
		c-2.22-0.52-2.98-2.16-3.1-4.56c-0.72-14.26-1.63-28.51-2.58-42.76c-0.04-0.66-0.92-1.67-1.59-1.83c-6.97-1.76-7.18-0.28-8.08-9.24
		c-0.27-2.69-0.13-5.45,0.15-8.15c0.32-3.12,1.37-3.87,4.51-3.89C67.44,127.29,72.82,127.27,78.21,127.25z M72.65,149.74
		c0.26,3.37,0.51,6.5,0.73,9.63c0.72,10.15,1.62,20.3,2.01,30.46c0.12,2.98,1.35,3.94,3.75,4.23c7.92,0.94,15.83,2.29,23.77,2.53
		c8.51,0.26,17.07-0.26,25.56-1.02c6.96-0.62,13.85-2.06,20.76-3.18c2.29-0.37,3.27-1.48,3.23-4.12
		c-0.19-12.09-0.08-24.19-0.09-36.28c0-0.93-0.1-1.86-0.16-3.06C125.72,151.07,99.52,151.25,72.65,149.74z M159.81,142.86
		c0-2.67-0.16-4.79,0.04-6.87c0.25-2.58-0.45-3.51-3.28-3.44c-8.55,0.21-17.11,0-25.66,0.08c-11.04,0.1-22.08,0.39-33.13,0.48
		c-10.6,0.09-21.2,0.03-31.8,0.04c-1.01,0-2.03,0.09-3.4,0.15c0.25,2.71,0.3,5.09,0.78,7.39c0.16,0.78,1.32,1.86,2.11,1.94
		c9.68,1,19.37,2.43,29.07,2.57c14.35,0.2,28.72-0.47,43.07-0.96C144.88,144.01,152.13,143.35,159.81,142.86z"/>
	<path class="st3" d="M114.08,127.23c-1.74,0.01-3.47,0.02-5.21,0.03c-2.55-16.16,4.47-29.33,13.24-41.89
		c8.43-12.06,20-20.46,32.69-27.5c0.13-0.07,0.31-0.05,0.86-0.11c-2.9,5.73-5.53,11.36-8.53,16.79c-5.45,9.87-10.82,19.8-16.8,29.35
		c-4.57,7.3-10.02,14.05-15.06,21.06C114.78,125.64,114.47,126.46,114.08,127.23z"/>
	<path class="st3" d="M98.33,127.26c-4.1,0-8.19,0-12.29,0C78.5,121.8,72.67,114.81,67.76,107c-5.43-8.65-8.58-18.16-9.65-28.24
		c-0.64-6-0.5-12.08-0.55-18.13c-0.01-1.62,0.53-3.25,1.13-4.94C71.06,80.08,83.26,104.47,98.33,127.26z"/>
	<path class="st3" d="M107.37,18.33c2.63,24.01,3.38,47.64,1.98,71.83c-2.09-3.08-3.79-6-5.89-8.59
		c-4.64-5.75-9.4-11.42-14.29-16.96c-1.34-1.52-1.87-2.74-1.52-4.82C90.04,45.67,98,28.59,107.37,18.33z"/>
	<path class="st4" d="M72.65,149.74c26.87,1.51,53.07,1.33,79.56-0.8c0.07,1.2,0.16,2.13,0.16,3.06
		c0.01,12.09-0.09,24.19,0.09,36.28c0.04,2.64-0.94,3.75-3.23,4.12c-6.91,1.12-13.8,2.56-20.76,3.18
		c-8.49,0.75-17.06,1.27-25.56,1.02c-7.94-0.24-15.85-1.6-23.77-2.53c-2.4-0.28-3.64-1.24-3.75-4.23
		c-0.4-10.17-1.3-20.31-2.01-30.46C73.16,156.24,72.91,153.12,72.65,149.74z"/>
	<path class="st5" d="M159.81,142.86c-7.67,0.5-14.93,1.15-22.2,1.39c-14.35,0.49-28.72,1.15-43.07,0.96
		c-9.7-0.13-19.39-1.57-29.07-2.57c-0.79-0.08-1.95-1.16-2.11-1.94c-0.47-2.29-0.53-4.67-0.78-7.39c1.37-0.06,2.39-0.15,3.4-0.15
		c10.6-0.02,21.2,0.05,31.8-0.04c11.04-0.09,22.08-0.38,33.13-0.48c8.55-0.08,17.11,0.12,25.66-0.08c2.83-0.07,3.53,0.86,3.28,3.44
		C159.65,138.07,159.81,140.19,159.81,142.86z"/>
</g>
</svg>
