<?xml version="1.0"?>
<svg xmlns:rdf="http://www.w3.org/1999/02/22-rdf-syntax-ns#" xmlns="http://www.w3.org/2000/svg" xmlns:cc="http://web.resource.org/cc/" xmlns:dc="http://purl.org/dc/elements/1.1/" xmlns:sodipodi="http://inkscape.sourceforge.net/DTD/sodipodi-0.dtd" id="svg1477" height="400pt" sodipodi:version="0.32" width="400pt" sodipodi:docname="feuille_09.svg" sodipodi:docbase="/home/silvyn/image_svg">
 <sodipodi:namedview id="base" bordercolor="#666666" pagecolor="#ffffff" showgrid="false" borderopacity="1.0" showguides="false">
  <sodipodi:guide id="guide1486" position="1322.8571" orientation="horizontal"/>
  <sodipodi:guide id="guide1488" position="600.00000" orientation="horizontal"/>
  <sodipodi:guide id="guide1490" position="-112.85714" orientation="vertical"/>
  <sodipodi:guide id="guide4768" position="-72.857143" orientation="horizontal"/>
 </sodipodi:namedview>
 <g id="layer1">
  <g id="g1359" transform="matrix(.84728 .64811 -.64811 .84728 984.1 -678.43)" fill="#f1a859">
   <path id="path1355" sodipodi:nodetypes="csssssssssssssssssssssssssssssssssssssssc" d="m-61.872 1412.4c-2.384-1.9-2.611-2.6-2.053-6.3 0.345-2.3 0.113-7-0.516-10.5-0.629-3.4-1.523-13.3-1.986-21.9-1.053-19.6-2.15-22.7-9.921-28.5-8.552-6.3-13.577-11.2-23.882-23.2-16.03-18.7-23-30.1-33.81-55.6-7.66-18-15.79-34.1-20.45-40.4-4.35-5.9-28.23-32.4-40.51-40.7-5.45-3.6-10.08-7.1-10.27-7.7-0.21-0.6 1.23-1.1 3.55-1.1 4.24 0 24.5-6.1 26.92-8.1 2.87-2.4 6.17-10.5 8.48-20.9 3.05-13.7 3.28-36.9 0.48-47-2.57-9.2-6.23-17.5-10.58-23.9-3.3-4.9-18.59-24.5-22.74-29.2-1.3-1.5-0.73-1.5 4.86 0.3 9.25 2.9 32.25 3.7 40.04 1.5 7.1-2.1 13.86-8.4 19.11-17.8 8.13-14.5 9.55-24.6 5.25-37.21-1.34-3.94-2.74-8.85-3.11-10.91-0.75-4.17-5.86-13.18-10.45-18.4-1.65-1.89-3-3.62-3-3.85s1.9 0.25 4.23 1.07c5.87 2.07 26.5 2.05 33.42-0.04 15.705-4.75 30.091-21.36 33.346-38.53 1.266-6.67-0.43-26.38-2.884-33.51-3.347-9.72-3.365-9.7 6.003-6.46 4.465 1.55 11.404 3.12 15.42 3.5 6.495 0.61 7.892 0.41 12.633-1.78 11.415-5.28 30.185-22.29 40.002-36.26 5.0166-7.13 18.036-29.61 23.061-39.82 5.433-11.03 5.262-11.37 5.315 10.72 0.054 22.67 1.488 33.44 6.572 49.34 1.717 5.37-26.184 431.04-29.681 436.54-3.4972 5.6-8.7391 12.6-11.649 15.5-7.067 7.2-23.441 19.7-31.649 24.1-9.31 5.1-9.48 5.6-9.511 28.6-0.023 16.9 0.626 24.2 3.017 34.2 0.709 2.9-3.148 6.3-7.201 6.3-1.747 0-4.382-0.9-5.856-2.1z"/>
   <path id="path1357" sodipodi:nodetypes="cssssssssssssssssssssssssssss" d="m-41.252 1342c10.007-3.6 16.226-6.8 29.557-15.4 20.729-13.3 30.705-22.2 48.397-43.5 12.523-15.1 24.936-28.1 31.217-32.8 5.851-4.4 36.351-22.9 50.491-27.3 6.28-1.9 11.71-3.9 12.07-4.4 0.39-0.6-0.87-1.4-3.1-2.1-4.06-1.2-21.69-12.9-23.44-15.5-2.06-3.1-2.88-11.9-2.1-22.5 1.02-14 7.47-36.2 13.06-45.1 5.13-8.1 11.01-15 17.03-19.9 4.55-3.7 24.86-18.1 30.19-21.4 1.67-1.1 1.11-1.2-4.75-1.1-9.69 0.1-31.96-5.7-38.76-10.1-6.21-4-10.88-12-13.21-22.5-3.59-16.3-2.05-26.3 5.7-37.2 2.42-3.4 5.17-7.7 6.12-9.5 1.92-3.8 9.41-11 15.3-14.65 2.12-1.33 3.92-2.59 3.98-2.81 0.07-0.23-1.89-0.31-4.35-0.2-6.22 0.3-25.98-5.67-32-9.66-13.674-9.07-22.666-29.12-20.842-46.49 0.709-6.76 8.007-25.15 12.409-31.27 6.004-8.35 6.016-8.32-3.889-7.91-4.721 0.19-11.819-0.3-15.774-1.09-6.395-1.29-7.676-1.88-11.585-5.35-9.412-8.34-22.49-30.03-27.871-46.23-2.75-8.28-8.746-33.56-10.621-44.77-2.027-12.13-72.323 543.93-63.229 540.73z"/>
  </g>
 </g>
 <metadata>
  <rdf:RDF>
   <cc:Work>
    <dc:format>image/svg+xml</dc:format>
    <dc:type rdf:resource="http://purl.org/dc/dcmitype/StillImage"/>
    <cc:license rdf:resource="http://creativecommons.org/licenses/publicdomain/"/>
    <dc:publisher>
     <cc:Agent rdf:about="http://openclipart.org/">
      <dc:title>Openclipart</dc:title>
     </cc:Agent>
    </dc:publisher>
   </cc:Work>
   <cc:License rdf:about="http://creativecommons.org/licenses/publicdomain/">
    <cc:permits rdf:resource="http://creativecommons.org/ns#Reproduction"/>
    <cc:permits rdf:resource="http://creativecommons.org/ns#Distribution"/>
    <cc:permits rdf:resource="http://creativecommons.org/ns#DerivativeWorks"/>
   </cc:License>
  </rdf:RDF>
 </metadata>
</svg>
