<?xml version="1.0" encoding="utf-8"?>
<!-- Generator: Adobe Illustrator 26.0.2, SVG Export Plug-In . SVG Version: 6.00 Build 0)  -->
<svg version="1.1" id="Layer_1" xmlns="http://www.w3.org/2000/svg" xmlns:xlink="http://www.w3.org/1999/xlink" x="0px" y="0px"
	 viewBox="0 0 80.5 62.8" style="enable-background:new 0 0 80.5 62.8;" xml:space="preserve">
<style type="text/css">
	.st0{fill:none;stroke:#000000;stroke-width:0.4;stroke-miterlimit:10;}
	.st1{fill:none;stroke:#231F20;stroke-width:0.5;stroke-linecap:round;stroke-miterlimit:10;}
	.st2{fill:#F2B351;}
	.st3{fill:none;stroke:#F2B351;stroke-miterlimit:10;}
</style>
<line class="st0" x1="5.6" y1="60.3" x2="42.2" y2="32"/>
<line class="st0" x1="42.5" y1="32" x2="76" y2="59.4"/>
<path class="st1" d="M6.3,62.6c0-1.7-1.4-3-3-3s-3,1.4-3,3"/>
<path class="st1" d="M77.2,59.6c-1.7,0-3,1.3-3,3"/>
<path class="st1" d="M80.2,62.6c0-1.7-1.3-3-3-3"/>
<path d="M39.9,38.1c5,0,4.8-4.3,4.8-4.3s-0.1-0.5,0.8-0.5c0.6,0,0.8-1,0-1c-1,0-1.8,0.5-2.3,1.3c-0.5,0.9-1.4,1.4-2.4,1.4
	c-1.4,0.2-2.6-0.8-2.8-2.1c0-0.1,0-0.2,0-0.3c0-2,1.2-2.7,2.3-2.7c0.9,0,1.8,0.1,2.7,0.3l0-3.7h-2.8v1.2c-5.6,0-6.3,3.3-6.3,5
	C33.9,34.4,34.8,38.1,39.9,38.1"/>
<polygon class="st2" points="44.8,25.8 44.8,23.9 39,23.9 39,25.8 40.2,25.8 43,25.8 "/>
<polyline class="st2" points="39,0 39,8.4 36.8,8.4 36.8,0 "/>
<polyline class="st2" points="47.7,0 47.7,8.4 45.5,8.4 45.5,0 "/>
<path d="M49.2,16.4V9H34.6v7.4l2.8,6.8h8.8L49.2,16.4z"/>
<path class="st3" d="M22.3,3.1"/>
<path d="M26.2,11.4"/>
<path d="M34.8,10.8c0.1,0,0.1,0,0.1-0.1s0-0.1-0.1-0.1s-0.1,0-0.1,0.1S34.7,10.8,34.8,10.8z"/>
</svg>
