<?xml version="1.0" encoding="utf-8"?>
<!-- Generator: Adobe Illustrator 26.0.2, SVG Export Plug-In . SVG Version: 6.00 Build 0)  -->
<svg version="1.1" id="Layer_1" xmlns="http://www.w3.org/2000/svg" xmlns:xlink="http://www.w3.org/1999/xlink" x="0px" y="0px"
	 viewBox="0 0 19.3 173.03" style="enable-background:new 0 0 19.3 173.03;" xml:space="preserve">
<style type="text/css">
	.st0{fill:#BCB8B3;stroke:#585858;stroke-miterlimit:1;}
</style>
<g transform="translate(0.000000,1280.000000) scale(0.100000,-0.100000)">
	<path class="st0" d="M14.39,11704.67c-4.08-1.88-7.22-5.71-8.53-10.5l-0.76-2.71v-301.52v-301.52l0.76-2.77
		c1.06-3.79,3.71-7.59,6.61-9.41c1.93-1.18,2.77-1.44,5.21-1.44c2.44,0,3.28,0.24,5.11,1.38c2.84,1.77,5,4.67,6.27,8.43l1.02,3.01
		l0.11,33.9l0.11,33.85h66.17h66.2v-32.42c0-35.96,0-35.96,2.37-40.85c2.81-5.76,8.06-8.62,12.99-7.04
		c4.24,1.33,6.71,3.99,8.61,9.21l1.38,3.79v301.85v301.85l-1.38,3.79c-1.89,5.22-4.38,7.88-8.61,9.21
		c-4.93,1.57-10.18-1.28-12.99-7.04c-2.33-4.83-2.37-5.22-2.37-37.64v-29.23H96.46H30.29l-0.11,30.69l-0.11,30.65l-1.02,3.01
		c-1.96,5.76-6.09,9.56-10.8,9.85C16.86,11705.22,15.22,11705.02,14.39,11704.67z M162.68,11575.71v-35.96H96.46H30.25v35.96v35.96
		h66.21h66.21V11575.71z M162.68,11484.55v-35.96H96.46H30.25v35.96v35.96h66.21h66.21V11484.55z M162.68,11393.41v-35.96H96.46
		H30.25v35.96v35.96h66.21h66.21V11393.41z M162.68,11301.74v-35.96H96.46H30.25v35.96v35.96h66.21h66.21V11301.74z M162.68,11210.6
		v-35.98H96.46H30.25v35.96v35.96h66.21h66.21V11210.6z"/>
</g>
<g transform="translate(0.000000,1280.000000) scale(0.100000,-0.100000)">
	<path class="st0" d="M14.29,12245.16c-4.08-1.88-7.22-5.71-8.53-10.5l-0.76-2.7v-301.52v-301.52l0.76-2.76
		c1.06-3.79,3.71-7.59,6.61-9.41c1.93-1.18,2.77-1.44,5.21-1.44c2.44,0,3.28,0.24,5.11,1.38c2.84,1.77,5,4.67,6.27,8.43l1.02,3.01
		l0.11,33.9l0.11,33.86h66.17h66.21v-32.42c0-35.96,0-35.96,2.37-40.85c2.81-5.76,8.06-8.62,12.99-7.04
		c4.24,1.33,6.71,3.99,8.61,9.21l1.38,3.79v301.85v301.85l-1.38,3.79c-1.89,5.22-4.38,7.88-8.61,9.21
		c-4.93,1.57-10.18-1.28-12.99-7.04c-2.33-4.83-2.37-5.22-2.37-37.64v-29.21H96.38H30.21l-0.11,30.69l-0.11,30.65l-1.02,3.01
		c-1.96,5.76-6.09,9.56-10.8,9.85C16.78,12245.7,15.14,12245.5,14.29,12245.16z M162.58,12116.2v-35.96H96.36h-66.2v35.96v35.96
		h66.21h66.21v-35.96H162.58z M162.58,12025.04v-35.96H96.36h-66.2v35.96v35.96h66.21h66.21v-35.96H162.58z M162.58,11933.88v-35.96
		H96.36h-66.2v35.96v35.96h66.21h66.21v-35.96H162.58z M162.58,11842.23v-35.96H96.36h-66.2v35.96v35.98h66.21h66.21v-35.98H162.58z
		 M162.58,11751.07v-35.96H96.36h-66.2v35.96v35.96h66.21h66.21v-35.96H162.58z"/>
</g>
<g transform="translate(0.000000,1280.000000) scale(0.100000,-0.100000)">
	<path class="st0" d="M14.39,12794.43c-4.08-1.88-7.22-5.71-8.53-10.5l-0.76-2.7v-301.52v-301.52l0.76-2.77
		c1.06-3.79,3.71-7.59,6.61-9.41c1.93-1.18,2.77-1.44,5.21-1.44c2.44,0,3.28,0.24,5.11,1.38c2.84,1.77,5,4.67,6.27,8.43l1.02,3.01
		l0.11,33.9l0.11,33.85h66.17h66.2v-32.42c0-35.96,0-35.96,2.37-40.85c2.81-5.76,8.06-8.62,12.99-7.04
		c4.24,1.33,6.71,3.99,8.61,9.21l1.38,3.79v301.85v301.87l-1.38,3.79c-1.89,5.23-4.38,7.88-8.61,9.21
		c-4.93,1.57-10.18-1.28-12.99-7.04c-2.33-4.83-2.37-5.23-2.37-37.64v-29.23H96.46H30.29l-0.11,30.69l-0.11,30.65l-1.02,3.01
		c-1.96,5.76-6.09,9.56-10.8,9.85C16.86,12794.97,15.22,12794.77,14.39,12794.43z M162.68,12665.48v-35.96H96.46H30.25v35.96v35.96
		h66.21h66.21V12665.48z M162.68,12574.32v-35.96H96.46H30.25v35.96v35.96h66.21h66.21V12574.32z M162.68,12483.15v-35.96H96.46
		H30.25v35.96v35.96h66.21h66.21V12483.15z M162.68,12391.5v-35.96H96.46H30.25v35.96v35.96h66.21h66.21V12391.5z M162.68,12300.34
		v-35.96H96.46H30.25v35.96v35.96h66.21h66.21V12300.34z"/>
</g>
</svg>
