<svg id="Layer_1" data-name="Layer 1" xmlns="http://www.w3.org/2000/svg" viewBox="0 0 515 515"><defs><style>.cls-1{fill:#f16722;}</style></defs><title>gear10</title><g id="Layer_1-2" data-name="Layer 1-2"><g id="Layer_2-2" data-name="Layer 2-2"><g id="Layer_1-2-2" data-name="Layer 1-2-2"><path class="cls-1" d="M1216.15,576.82l1.08-64.24L1148,499.88a191.94,191.94,0,0,0-23-58.4l41.87-56.57L1122,338.6l-58,39.83a192.89,192.89,0,0,0-57.55-24.94L996,283.85l-64.21-1.08L919.38,352A190.9,190.9,0,0,0,861,375.12l-56.87-41.91-46.05,44.62,39.83,57.92A190.94,190.94,0,0,0,773,493.37l-69.64,10.39L702.23,568l69.19,12.58A191,191,0,0,0,794.54,639l-41.95,56.73,44.67,46.15L855.32,702a192.66,192.66,0,0,0,57.51,25.13l10.35,69.6,64.24,1.08L1000,728.35a189.79,189.79,0,0,0,58.37-23.08l56.61,42,46.16-44.66-39.87-58A193.19,193.19,0,0,0,1146.4,587ZM962.26,671.59A131.43,131.43,0,1,1,1091,537.49v.1a122.34,122.34,0,0,1-.41,13.4A131.5,131.5,0,0,1,962.26,671.59Z" transform="translate(-702.23 -282.77)"/></g></g></g></svg>