<?xml version="1.0" encoding="utf-8"?>
<!-- Generator: Adobe Illustrator 26.0.2, SVG Export Plug-In . SVG Version: 6.00 Build 0)  -->
<svg version="1.1"
	 id="SVGRoot" inkscape:version="0.92.1 r15371" sodipodi:docname="1.svg" xmlns:cc="http://creativecommons.org/ns#" xmlns:dc="http://purl.org/dc/elements/1.1/" xmlns:inkscape="http://www.inkscape.org/namespaces/inkscape" xmlns:rdf="http://www.w3.org/1999/02/22-rdf-syntax-ns#" xmlns:sodipodi="http://sodipodi.sourceforge.net/DTD/sodipodi-0.dtd" xmlns:svg="http://www.w3.org/2000/svg"
	 xmlns="http://www.w3.org/2000/svg" xmlns:xlink="http://www.w3.org/1999/xlink" x="0px" y="0px" viewBox="0 0 841.89 595.28"
	 style="enable-background:new 0 0 841.89 595.28;" xml:space="preserve">
<style type="text/css">
	.st0{fill:#9B9359;}
</style>
<sodipodi:namedview  bordercolor="#666666" borderopacity="1.0" id="base" inkscape:current-layer="layer1" inkscape:cx="418.16604" inkscape:cy="396.85039" inkscape:document-units="mm" inkscape:pageopacity="0.0" inkscape:pageshadow="2" inkscape:window-height="623" inkscape:window-maximized="1" inkscape:window-width="853" inkscape:window-x="-8" inkscape:window-y="-8" inkscape:zoom="0.35" pagecolor="#ffffff" showgrid="false">
	</sodipodi:namedview>
<g id="layer1" inkscape:groupmode="layer" inkscape:label="Camada 1">
	<g id="g200" transform="matrix(3.986066,0,0,-3.5447642,265.51994,37.420843)">
		<path id="path198" inkscape:connector-curvature="0" class="st0" d="M75.77-15.19c-0.68-0.33-1.48,0.06-1.77,0.86
			c-0.3,0.8,0.01,1.74,0.69,2.07l10.83,5.28c-0.35,0.68-0.7,1.34-1.12,1.99l-10.51-5.12c-0.68-0.33-1.48,0.06-1.77,0.86
			c-0.3,0.8,0.02,1.73,0.7,2.06l9.86,4.81c-1.6,2.26-3.53,4.48-5.82,6.81c-1.44,1.19-3.87,1.73-5.3,1.28
			C58.84,1.48,46.52-3.55,34.51-9.4C23.26-14.89,12.32-21.08,1.55-28.06l15.3-41.39c3.36,1.15,6.7,2.36,10.01,3.65
			c5.36,2.04,10.67,4.22,15.89,6.56l10.08-13.27l1.54-2l3.68,1.8l23.56-36.59l-16.95-14.21c-1.17-1.15-1.97-2.48-1.37-4.08l1.8-4.87
			l54.79,26.71l-3.66,9.91c-0.59,1.59-2.15,2.35-3.51,1.69l-7.89-3.85L70.94-44.8c5.29,3.07,10.52,6.32,15.71,9.75
			c1.28,0.87,2.65,3.27,2.89,5.27c0.23,5.78-0.08,10.55-1.07,14.83l-10.8-5.27c-0.68-0.33-1.48,0.06-1.78,0.86
			c-0.29,0.79,0.03,1.73,0.7,2.06l11.04,5.38c-0.24,0.75-0.51,1.48-0.8,2.16l-11.07-5.4L75.77-15.19z M70.79-148.03
			c0.59-1.6,2.16-2.35,3.51-1.69l49.9,24.33c1.36,0.66,1.97,2.48,1.38,4.08l-4.93,13.35l-54.79-26.72L70.79-148.03z M42.19-62.06
			c-4.54-2.01-9.16-3.89-13.77-5.69L36.79-78c0.77-0.94,2.22-1.3,3.22-0.81l10.89,5.31L42.19-62.06z M-54.01-80.03l3.55-0.57
			l24.23,11.81l-1.44,3.89l-24.2-11.8L-54.01-80.03z M-27.09-60.54l3.75-10.16l10.26-2.75l12.09,3.76l-9.96,26.96l-10.75-7.38
			L-27.09-60.54z M-9.01-41.87l8.72,12.79l15.27-41.32L0.91-68.73L-9.01-41.87z"/>
	</g>
</g>
</svg>
