<svg id="Layer_1" data-name="Layer 1" xmlns="http://www.w3.org/2000/svg" viewBox="0 0 83.23 83.23"><defs><style>.cls-1{fill:#fff;}</style></defs><title>facebook_icon</title><g id="Layer_1-2" data-name="Layer 1-2"><path class="cls-1" d="M1001.35,540.27a41.62,41.62,0,1,0-41.62,41.62A41.63,41.63,0,0,0,1001.35,540.27Zm-79.46,0a37.84,37.84,0,1,1,37.84,37.84,37.84,37.84,0,0,1-37.84-37.84Z" transform="translate(-918.11 -498.65)"/><path class="cls-1" d="M961.27,565.44v-24h7.92l1.33-8h-9.25v-4c0-2.08.68-4.07,3.65-4.07h6v-7.94h-8.4c-7.12,0-9,4.63-9,11.18v4.81h-4.89v8h4.89v24Z" transform="translate(-918.11 -498.65)"/></g></svg>