<svg id="Layer_1" data-name="Layer 1" xmlns="http://www.w3.org/2000/svg" viewBox="0 0 207.06 211.07"><defs><style>.cls-1{fill:#FFC607;}.cls-2{fill:#FFA049;}.cls-3{fill:#FFA049;}.cls-4{fill:#fff;}.cls-5{fill:#FFA049;}.cls-6{fill:#FFA049;}</style></defs><title>make_icon</title><path class="cls-1" d="M1063.18,548.21l.08,3.86-.08,3.79-.22,3.78-.37,3.79-.52,3.71-.67,3.71-.82,3.63-1,3.57-1.11,3.49-1.19,3.49-1.33,3.41-1.49,3.34-1.56,3.26-1.7,3.19-1.86,3.12-1.93,3-2.08,3-2.15,2.89-2.23,2.83-2.37,2.67-2.45,2.6-2.52,2.52-2.67,2.37-2.75,2.3-2.82,2.23-2.9,2.08-3,1.93-3,1.86-3.12,1.7-3.19,1.63-3.26,1.49-3.34,1.33-3.42,1.27-3.48,1.11-3.49,1-3.56.81-3.64.67-3.71.52-3.71.37-3.79.22-3.78.07-3.79-.07-3.78-.22-3.71-.37-3.64-.52-3.63-.67-3.57-.81-3.48-1-3.49-1.11-3.42-1.27-3.34-1.33L931.9,637l-3.19-1.63-3.12-1.7-3.05-1.86-3-1.93L918,628.71l-1.32-.94L914.3,626,893,632.82l-16.6-16.45,11.21-24.54h0l-1.44-3.24-1.34-3.42-.34-1-.84-2.49-1.12-3.56-.42-1.55-21-9.21-1.26-18.84,19.86-8.8.39-2.79.67-3.71.82-3.64,1-3.56,0,0v-.05l1.09-3.39,1.18-3.49.08-.21-15.81-22.13L876.58,482l29.51,3.62,2.36-2.34,2.67-2.38,2.74-2.3,2.51-1.91h0l.08-.05.23-.18,2.9-2.08h0l0,.45,0-.48,1-31.5-3.27,1.55,20.19-9.64,24.73,24.16,1.17-.12,3.78-.22,3.79-.07,3.78.07,3.79.22,2.93.29,22.23-22L1025,444l1.3,33.14,1.89,1.44,2.75,2.3,2.67,2.38,2.52,2.52,2.45,2.6,2.37,2.66,2.23,2.75,2.15,2.9,2.08,3,1.93,3.05,1.86,3.12,1.7,3.19,1.56,3.26,1.49,3.34,1,2.61v0l.3.78,1.19,3.49,1.11,3.48,1,3.56.82,3.64.67,3.71.52,3.71.37,3.79Zm-14,3.86-.07-3.19-.23-3.19-.29-3.19-.45-3.12-.59-3-.67-3.05-.82-3-.89-3-1-2.9-1.11-2.82-1.26-2.82-1.34-2.74L1039,513.4l-1.56-2.59-1.63-2.53-1.71-2.44-1.85-2.38-1.93-2.3-2-2.23-2.08-2.15-2.16-2.08-2.22-2-2.3-1.93-2.38-1.86-2.45-1.7-2.52-1.63-2.6-1.56-2.67-1.41-2.74-1.34-2.75-1.26-2.82-1.11-2.9-1-3-.89-3-.82-3-.67-3-.59-3.12-.45-3.19-.3-3.19-.22-3.19-.07-3.19.07-3.19.22-3.19.3-3.12.45-3,.59-3,.67-3,.82-3,.89-2.9,1L940.58,480l-2.75,1.26-2.74,1.34L932.42,484l-2.6,1.56-2.52,1.63-2.45,1.7-2.38,1.86-2.3,1.93-2.22,2-2.16,2.08-2.07,2.15-2,2.23-1.93,2.3-1.85,2.38-1.71,2.44-1.63,2.53L903,513.4l-1.41,2.68-1.34,2.74L899,521.64l-1.11,2.82-1,2.9-.89,3-.82,3-.66,3.05-.6,3-.45,3.12-.29,3.19-.22,3.19-.08,3.19.08,3.27.22,3.19.29,3.19.45,3.12.6,3,.66,3,.82,3,.89,3,1,2.89,1.11,2.82,1.26,2.82,1.34,2.75,1.41,2.67,1.56,2.6,1.63,2.52,1.71,2.45,1.85,2.38,1.93,2.3,2,2.23,2.07,2.15,2.16,2.07,2.22,2,2.3,1.93,2.38,1.85L927.3,617l2.52,1.63,2.6,1.56,2.67,1.49,2.74,1.33,2.39,1.1.36.16,2.82,1.12,2.9,1,3,.89,3,.81,3,.67,3,.6,3.12.44,3.19.3,3.19.22,3.19.07,3.19-.07,3.19-.22,3.19-.3,3.12-.44,3-.6,3-.67,3-.81,3-.89,2.9-1,2.82-1.12,2.75-1.26,2.74-1.33,1.26-.7,1.41-.79,2.6-1.56,2.52-1.63,2.45-1.71,2.38-1.85,2.3-1.93,2.22-2,2.16-2.07,2.08-2.15,2-2.23,1.93-2.3,1.85-2.38,1.71-2.45,1.63-2.52,1.56-2.6,1.41-2.67,1.34-2.75,1.26-2.82,1.11-2.82,1-2.89.89-3,.82-3,.67-3,.59-3,.45-3.12.29-3.19.23-3.19Z" transform="translate(-856.2 -434.74)"/><polygon class="cls-2" points="206.99 113.4 206.99 113.48 206.76 109.69 206.4 105.9 205.87 102.19 205.21 98.48 204.39 94.85 203.43 91.28 202.31 87.8 201.12 84.31 200.82 83.53 201.12 84.23 202.31 87.72 203.43 91.21 204.39 94.77 205.21 98.41 205.87 102.12 206.4 105.83 206.76 109.61 206.99 113.4"/><polygon class="cls-3" points="206.99 121.12 206.99 121.19 206.76 124.98 206.4 128.77 205.87 132.48 205.21 136.19 204.39 139.82 203.43 143.39 202.31 146.95 201.12 150.44 199.79 153.85 198.31 157.19 196.74 160.45 195.04 163.65 193.18 166.76 191.25 169.8 189.18 172.77 187.02 175.67 184.8 178.41 182.42 181.09 179.97 183.68 177.45 186.21 174.78 188.58 172.03 190.88 169.21 193.03 172.03 190.81 174.78 188.51 177.45 186.13 179.97 183.61 182.42 181.01 184.8 178.34 187.02 175.52 189.18 172.63 191.25 169.66 193.18 166.62 195.04 163.5 196.74 160.31 198.31 157.04 199.79 153.7 201.12 150.29 202.31 146.8 203.43 143.31 204.39 139.75 205.21 136.11 205.87 132.4 206.4 128.69 206.76 124.91 206.99 121.12"/><path class="cls-4" d="M1049.09,548.88l.07,3.19-.07,3.27-.23,3.19-.29,3.19-.45,3.12-.59,3-.67,3-.82,3-.89,3-1,2.89-1.11,2.82-1.26,2.82-1.34,2.75-1.41,2.67-1.56,2.6-1.63,2.52-1.71,2.45-1.85,2.38-1.93,2.3-2,2.23-2.08,2.15-2.16,2.07-2.22,2-2.3,1.93-2.38,1.85-2.45,1.71-2.52,1.63-2.6,1.56-1.41.79-1.18.62-2.75,1.34-2.75,1.26-2.82,1.11-2.89,1-3,.89-3,.82-3,.67-3,.59-3.13.44-3.18.3-3.19.23-3.2.07-3.19-.07-3.19-.23-3.19-.3-3.12-.44-3-.59-3.05-.67-3-.82-3-.89-2.9-1-2.82-1.11-.37-.15-.06.06-2.39-1.1-2.74-1.33-2.67-1.49-2.6-1.56L927.3,617l-2.45-1.71-2.38-1.85-2.3-1.93-2.22-2-2.16-2.07-2.07-2.15-2-2.23-1.93-2.3-1.85-2.38-1.71-2.45-1.63-2.52-1.56-2.6-1.41-2.67-1.34-2.75L899,582.57l-1.11-2.82-1-2.89-.89-3-.82-3-.66-3-.6-3-.45-3.12-.29-3.19-.22-3.19-.08-3.27.08-3.19.22-3.19.29-3.19.45-3.12.6-3,.66-3.05.82-3,.89-3,1-2.9,1.11-2.82,1.26-2.82,1.34-2.74L903,513.4l1.56-2.59,1.63-2.53,1.71-2.44,1.85-2.38,1.93-2.3,2-2.23,2.07-2.15L918,494.7l2.22-2,2.3-1.93,2.38-1.86,2.45-1.7,2.52-1.63,2.6-1.56,2.67-1.41,2.74-1.34,2.75-1.26,2.82-1.11,2.9-1,3-.89,3-.82,3-.67,3-.59,3.12-.45,3.19-.3,3.19-.22,3.19-.07,3.19.07,3.19.22,3.19.3,3.12.45,3,.59,3,.67,3,.82,3,.89,2.9,1,2.82,1.11,2.75,1.26,2.74,1.34,2.67,1.41,2.6,1.56,2.52,1.63,2.45,1.7,2.38,1.86,2.3,1.93,2.22,2,2.16,2.08,2.08,2.15,2,2.23,1.93,2.3,1.85,2.38,1.71,2.44,1.63,2.53,1.56,2.59,1.41,2.68,1.34,2.74,1.26,2.82,1.11,2.82,1,2.9.89,3,.82,3,.67,3.05.59,3,.45,3.12.29,3.19Zm-6.31,3.34-.08-3-.14-2.89-.3-2.9-.37-2.89-.52-2.82-.6-2.75-.74-2.74-.81-2.68-1-2.67-1-2.6-1.11-2.52-1.26-2.52-1.34-2.45-1.41-2.37-1.48-2.31-1.56-2.22-1.71-2.16-1.78-2.15-1.85-2.08-1.94-2-2-1.93-2.08-1.85-2.15-1.79-2.23-1.7-2.22-1.56-2.3-1.48-2.38-1.41-2.45-1.34-2.52-1.26-2.53-1.12-2.59-1-2.67-1-2.67-.81-2.75-.75-2.75-.59-2.82-.52-2.89-.37-2.9-.3-2.67-.22-3-.07-3,.07-2.89.15-2.9.29-2.89.45-2.82.52-2.82.59-2.74.75-2.68.81-2.67,1-2.6,1-2.52,1.12-2.52,1.26-2.45,1.34-2.38,1.41-2.3,1.48-2.22,1.56L926.7,496l-2.15,1.79-2.08,1.85-2,1.93-1.93,2-1.86,2.08-1.78,2.15-1.71,2.16-1.55,2.22-1.49,2.31-1.41,2.37-1.33,2.45-1.26,2.52L905,524.31l-1,2.6-1,2.67-.82,2.68-.74,2.74-.59,2.75-.52,2.82-.32,2.07-.13.82-.3,2.9-.14,2.89-.08,3,.08,3,.14,2.9.3,2.89.45,2.82.37,2.59.59,2.75.74,2.75.82,2.67,1,2.67,1,2.6,1.12,2.52,1.26,2.52,1.33,2.45L910,589.7l1.48,2.3,1.56,2.22,1.71,2.23,1.78,2.15,1.85,2.08,1.93,2,2,1.93,2.07,1.85,2.16,1.78,2.15,1.71,2.22,1.56,2.3,1.48,2.38,1.41,2.45,1.34,2.52,1.26,2.53,1.11,2.59,1,2.68,1,2.67.81,2.74.75,2.75.88,2.82.53,2.89.37,2.9.29,2.89.15,3,.07,3-.07,2.89-.15,2.9-.29,2.89-.37,2.82-.53,2.75-.66,2.75-.75,2.67-.81,2.67-1,2.59-1,2.53-1.12L1004,616l2.45-1.34,2.38-1.4,2.3-1.49,2.22-1.56,2.23-1.7,2.15-1.79,2.08-1.85,2-1.93,1.94-2,1.85-2.08,1.78-2.15,1.71-2.23,1.56-2.23,1.48-2.3,1.41-2.37,1.34-2.45,1.26-2.53,1.11-2.52,1-2.6,1-2.67.81-2.67.74-2.75.6-2.74.52-2.82.37-2.82.3-2.89.14-2.9Z" transform="translate(-856.2 -434.74)"/><path class="cls-1" d="M925.37,507.69v90.4H943V539.68L970.72,573l.81-1,.08.07,2.15-2.6,10.39-12-.22-.3L999,538.93V596.6h17.66V506.28H999l-28.2,35.18-15.44-18.78-12.32-15v-.07h-.37l-.15-.15-.14.15h-17Zm117.33,41.56.08,3-.08,3-.14,2.9-.3,2.89-.37,2.82-.52,2.82-.6,2.74-.74,2.75-.81,2.67-1,2.67-1,2.6-1.11,2.52-1.26,2.53-1.34,2.45-1.41,2.37-1.48,2.3-1.56,2.23-1.71,2.23-1.78,2.15-1.85,2.08-1.94,2-2,1.93-2.08,1.85-2.15,1.79-2.23,1.7-2.22,1.56-2.3,1.49-2.38,1.4L1004,616l-2.52,1.26-2.53,1.12-2.59,1-2.67,1-2.67.81-2.75.75-2.75.66-2.82.53-2.89.37-2.9.29-2.89.15-3,.07-3-.07-2.89-.15-2.9-.29-2.89-.37-2.82-.53-2.75-.88-2.74-.75-2.67-.81-2.68-1-2.59-1L940.58,617l-2.52-1.26-2.45-1.34L933.23,613l-2.3-1.48L928.71,610l-2.15-1.71-2.16-1.78-2.07-1.85-2-1.93-1.93-2-1.85-2.08-1.78-2.15-1.71-2.23L911.49,592,910,589.7l-1.42-2.38-1.33-2.45L906,582.35l-1.12-2.52-1-2.6-1-2.67-.82-2.67-.74-2.75-.59-2.75-.37-2.59-.45-2.82-.29-2.89-.15-2.9-.08-3,.08-3,.15-2.89.29-2.9.13-.82.32-2,.52-2.82.59-2.74.74-2.75.82-2.67,1-2.67,1-2.6,1.12-2.52,1.26-2.53,1.33-2.45,1.41-2.37,1.48-2.3,1.56-2.23,1.71-2.15,1.78-2.15,1.86-2.08,1.93-2,2-1.94,2.08-1.85L926.7,496l2.15-1.71,2.23-1.55,2.3-1.49,2.38-1.41,2.45-1.34,2.52-1.26,2.52-1.11,2.6-1,2.67-1,2.67-.82,2.75-.74,2.82-.67,2.82-.52,2.89-.37,2.9-.3,2.89-.15,3-.07,3,.07,2.67.15,2.9.3,2.89.37,2.82.52,2.75.59,2.75.75,2.67.81,2.67,1,2.59,1,2.53,1.12,2.52,1.26,2.45,1.34,2.38,1.41,2.3,1.48,2.22,1.56,2.23,1.7,2.15,1.79,2.08,1.85,2,1.93,1.94,2,1.85,2.08,1.78,2.15,1.71,2.16,1.56,2.22,1.48,2.31,1.41,2.37,1.34,2.45,1.26,2.52,1.11,2.52,1,2.6,1,2.67.81,2.68.74,2.74.6,2.75.52,2.82.37,2.89.3,2.9Z" transform="translate(-856.2 -434.74)"/><polygon class="cls-5" points="142.79 71.54 160.45 71.54 160.45 161.86 142.79 161.86 142.79 104.2 127.73 122.46 127.95 122.75 117.56 134.78 115.41 137.38 115.33 137.3 114.52 138.26 86.83 104.94 86.83 163.35 69.17 163.35 69.17 72.95 86.16 72.95 86.31 72.95 86.46 72.95 86.83 72.95 99 88.1 99.15 87.94 114.59 106.72 142.79 71.54"/><polygon class="cls-2" points="151.99 186.25 150.73 186.95 147.99 188.29 145.24 189.54 142.42 190.66 139.53 191.7 136.56 192.59 133.59 193.41 130.55 194.08 127.5 194.67 124.39 195.11 121.19 195.41 118 195.63 114.81 195.71 111.62 195.63 108.43 195.41 105.24 195.11 102.12 194.67 99.08 194.08 96.04 193.41 93.07 192.59 90.1 191.7 87.2 190.66 84.39 189.54 84.03 189.38 84.08 189.32 84.46 189.47 87.28 190.59 90.17 191.62 93.14 192.51 96.11 193.33 99.15 194 102.19 194.59 105.31 195.04 108.5 195.34 111.69 195.56 114.89 195.63 118.08 195.56 121.27 195.34 124.46 195.04 127.58 194.59 130.62 194 133.66 193.33 136.63 192.51 139.6 191.62 142.5 190.59 145.31 189.47 148.06 188.21 150.81 186.88 151.99 186.25"/><polygon class="cls-6" points="120.67 46.01 118 45.87 115.04 45.79 112.07 45.87 109.17 46.01 106.28 46.31 103.38 46.68 106.28 46.24 109.17 45.94 112.07 45.79 115.03 45.72 118 45.79 120.67 46.01"/><polygon class="cls-3" points="100.56 47.2 97.74 47.87 94.99 48.61 92.33 49.43 89.65 50.39 87.05 51.43 84.53 52.55 82.01 53.8 79.56 55.14 77.18 56.55 74.89 58.04 72.66 59.59 70.5 61.3 68.35 63.08 66.28 64.94 64.27 66.87 62.34 68.87 60.49 70.95 58.7 73.1 57 75.25 55.44 77.48 53.96 79.78 52.54 82.16 51.21 84.61 49.95 87.13 48.83 89.65 47.79 92.25 46.83 94.92 46.01 97.59 45.27 100.34 44.68 103.08 44.16 105.9 43.84 107.91 44.16 105.83 44.68 103.01 45.27 100.27 46.02 97.52 46.83 94.85 47.8 92.17 48.84 89.58 49.95 87.05 51.21 84.53 52.55 82.08 53.96 79.71 55.44 77.41 57 75.18 58.7 73.03 60.49 70.88 62.34 68.8 64.27 66.8 66.28 64.87 68.36 63.01 70.5 61.23 72.66 59.52 74.89 57.96 77.19 56.48 79.56 55.07 82.01 53.73 84.53 52.47 87.05 51.36 89.65 50.32 92.33 49.35 95 48.54 97.74 47.79 100.56 47.2"/><polygon class="cls-6" points="86.83 72.95 99.15 87.94 99 88.1 86.83 72.95"/><polygon class="cls-6" points="86.83 72.88 86.83 72.95 86.46 72.95 86.31 72.95 86.16 72.95 69.17 72.95 69.17 72.88 86.17 72.88 86.31 72.73 86.47 72.88 86.83 72.88"/><polygon class="cls-4" points="64.42 8.09 63.44 39.59 63.39 39.62 61.23 11.21 60.26 41.89 60.18 41.95 61.1 11.2 61.15 9.65 64.42 8.09"/><polygon class="cls-3" points="63.44 39.59 63.42 40.07 63.39 39.62 63.44 39.59"/><polygon class="cls-4" points="61.23 11.21 63.39 39.62 63.38 39.63 60.49 41.71 60.26 41.89 61.23 11.21"/><polygon class="cls-4" points="61.8 193.98 33.47 203.13 17.59 187.4 20.21 181.64 36.81 198.08 58.11 191.22 60.49 193.03 61.8 193.98"/><polygon class="cls-6" points="43.72 126.24 44.16 129.06 43.71 126.24 43.41 123.35 43.27 120.45 43.42 123.35 43.72 126.24"/><polygon class="cls-6" points="43.71 108.73 43.84 107.91 43.72 108.73 43.42 111.62 43.27 114.51 43.41 111.62 43.71 108.73"/><polygon class="cls-6" points="43.27 114.51 43.2 117.48 43.27 120.45 43.19 117.48 43.27 114.51"/><polygon class="cls-2" points="31.43 157.1 20.21 181.64 20.18 181.6 31.43 157.1"/><polygon class="cls-4" points="12.91 61.97 28.73 84.1 28.65 84.31 27.46 87.8 26.37 91.19 18.69 80.42 18.4 80.01 9.15 66.97 19.3 47.13 20.38 47.26 12.91 61.97"/><polygon class="cls-4" points="27.46 146.95 28.31 149.43 1.49 137.74 0 115.4 3.64 113.79 4.9 132.62 25.93 141.84 26.35 143.39 27.46 146.95"/><polygon class="cls-2" points="26.37 91.19 26.36 91.24 18.69 80.42 26.37 91.19"/></svg>